%TF.GenerationSoftware,KiCad,Pcbnew,7.0.5*%
%TF.CreationDate,2023-12-19T13:48:19-08:00*%
%TF.ProjectId,EV11 Board Design,45563131-2042-46f6-9172-642044657369,EV9*%
%TF.SameCoordinates,Original*%
%TF.FileFunction,Profile,NP*%
%FSLAX46Y46*%
G04 Gerber Fmt 4.6, Leading zero omitted, Abs format (unit mm)*
G04 Created by KiCad (PCBNEW 7.0.5) date 2023-12-19 13:48:19*
%MOMM*%
%LPD*%
G01*
G04 APERTURE LIST*
%TA.AperFunction,Profile*%
%ADD10C,0.050000*%
%TD*%
%TA.AperFunction,Profile*%
%ADD11C,0.100000*%
%TD*%
G04 APERTURE END LIST*
D10*
X144600000Y-73400000D02*
G75*
G03*
X142600000Y-71400000I-2000000J0D01*
G01*
X177350009Y-112038490D02*
X181189991Y-112041511D01*
X177350009Y-112038490D02*
G75*
G03*
X176128653Y-113265921I-30009J-1191510D01*
G01*
X180399986Y-56024214D02*
X130459999Y-56004371D01*
X113980000Y-143440000D02*
G75*
G03*
X115980000Y-145440000I2000000J0D01*
G01*
X144600000Y-73400000D02*
X144598077Y-112920087D01*
X174150000Y-145400000D02*
G75*
G03*
X176150000Y-143400000I0J2000000D01*
G01*
X130470000Y-71395628D02*
X142600000Y-71400000D01*
X115990001Y-115000001D02*
G75*
G03*
X113990001Y-117000001I-1J-1999999D01*
G01*
X181189991Y-112041510D02*
G75*
G03*
X182379998Y-110790000I9J1191510D01*
G01*
X182399986Y-58024214D02*
G75*
G03*
X180399986Y-56024214I-1999986J14D01*
G01*
X142580000Y-115009999D02*
G75*
G03*
X144598077Y-112920087I20000J1999999D01*
G01*
X142580000Y-115009999D02*
X115990001Y-115000001D01*
X182399986Y-58024214D02*
X182379999Y-110790000D01*
X115980000Y-145440000D02*
X174150000Y-145400000D01*
X130459999Y-56004371D02*
G75*
G03*
X129604371Y-56859999I1J-855629D01*
G01*
X129614372Y-70540000D02*
G75*
G03*
X130470000Y-71395628I855628J0D01*
G01*
X176128653Y-113265921D02*
X176150000Y-143400000D01*
X113990001Y-117000001D02*
X113980000Y-143440000D01*
X129604371Y-56859999D02*
X129614372Y-70540000D01*
D11*
%TO.C,J4*%
X134750000Y-58875000D02*
G75*
G03*
X134750000Y-58875000I-750000J0D01*
G01*
X134750000Y-68075000D02*
G75*
G03*
X134750000Y-68075000I-750000J0D01*
G01*
%TD*%
M02*
