%TF.GenerationSoftware,KiCad,Pcbnew,(6.0.11)*%
%TF.CreationDate,2023-02-10T10:35:54-08:00*%
%TF.ProjectId,EV1,4556312e-6b69-4636-9164-5f7063625858,rev?*%
%TF.SameCoordinates,Original*%
%TF.FileFunction,Soldermask,Bot*%
%TF.FilePolarity,Negative*%
%FSLAX46Y46*%
G04 Gerber Fmt 4.6, Leading zero omitted, Abs format (unit mm)*
G04 Created by KiCad (PCBNEW (6.0.11)) date 2023-02-10 10:35:54*
%MOMM*%
%LPD*%
G01*
G04 APERTURE LIST*
%ADD10C,0.650000*%
%ADD11O,1.600000X1.000000*%
%ADD12O,2.100000X1.000000*%
%ADD13C,0.700000*%
%ADD14C,0.800000*%
G04 APERTURE END LIST*
D10*
%TO.C,J9*%
X190890000Y-89470000D03*
X190890000Y-95250000D03*
D11*
X194540000Y-96680000D03*
D12*
X190360000Y-88040000D03*
D11*
X194540000Y-88040000D03*
D12*
X190360000Y-96680000D03*
%TD*%
D13*
X158242000Y-78613000D03*
X160274000Y-86995000D03*
X143383000Y-82042000D03*
X168591500Y-80899000D03*
X177800000Y-96901000D03*
X149501675Y-85575325D03*
X142113000Y-108077000D03*
X148717000Y-80010000D03*
X167894000Y-83947000D03*
X158115000Y-101473000D03*
X148690000Y-75920000D03*
X142113000Y-87757000D03*
X138303000Y-104775000D03*
X132080000Y-88265000D03*
X175768000Y-86360000D03*
X147955000Y-86233000D03*
X142113000Y-83820000D03*
X170434000Y-97028000D03*
X156055000Y-75415000D03*
X162814000Y-84201000D03*
X143383000Y-80010000D03*
X172310000Y-75246500D03*
X158242000Y-78613000D03*
X153035000Y-95758000D03*
X136017000Y-90297000D03*
X180949334Y-94009591D03*
X180975000Y-90297000D03*
X145542000Y-95095500D03*
D14*
X186740000Y-95680000D03*
D13*
X146812000Y-91313000D03*
X147066000Y-97854500D03*
X172250500Y-78250000D03*
X181410000Y-76130000D03*
X159893000Y-98298000D03*
X178820000Y-109260000D03*
D14*
X186700000Y-89150000D03*
X187820000Y-88030000D03*
D13*
X162330000Y-75740000D03*
X147193000Y-101981000D03*
X138684000Y-94107000D03*
X137160000Y-89789000D03*
X164973000Y-96266000D03*
X172339000Y-94361000D03*
X145415000Y-82423000D03*
X128905000Y-68961000D03*
X170053000Y-85344000D03*
D14*
X187790000Y-96420000D03*
D13*
X131729000Y-75341000D03*
X183896000Y-76200000D03*
X171831000Y-97663000D03*
X134620000Y-105537000D03*
X159639000Y-82804000D03*
X151406675Y-87480325D03*
X163830000Y-85979000D03*
X149987000Y-93599000D03*
X170950000Y-108580000D03*
X153797000Y-82550000D03*
X153797000Y-84201000D03*
X155956000Y-105283000D03*
X148336000Y-105283000D03*
X155702000Y-104013000D03*
X148336000Y-104267000D03*
X153416000Y-103378000D03*
X149606000Y-103378000D03*
X162179000Y-91313000D03*
X160782000Y-104648000D03*
X161925000Y-90424000D03*
X162560000Y-104394000D03*
X163893500Y-104457500D03*
X161861500Y-89471500D03*
X151892000Y-82550000D03*
X144510000Y-75420000D03*
X152400000Y-78359000D03*
X154432000Y-78613000D03*
X138810000Y-75590000D03*
X141224000Y-85852000D03*
X136360000Y-75400000D03*
X140081000Y-85852000D03*
X146939000Y-81280000D03*
X154813000Y-84201000D03*
X154855540Y-102129270D03*
X132842000Y-90678000D03*
X153289000Y-101219000D03*
X131953000Y-93218000D03*
X155575000Y-99187000D03*
X134239000Y-94361000D03*
X130556000Y-98171000D03*
X130556000Y-94361000D03*
X155194000Y-100203000D03*
X135001000Y-100711000D03*
X154051000Y-101727000D03*
X137795000Y-102362000D03*
X138303000Y-97155000D03*
X149797500Y-97917000D03*
X129286000Y-74803000D03*
X129286000Y-80264000D03*
X147955000Y-96520000D03*
X133477000Y-89408000D03*
D14*
X183200000Y-91880000D03*
X185690000Y-92760000D03*
D13*
X177038000Y-83058000D03*
X181991000Y-83058000D03*
D14*
X187850000Y-90659500D03*
M02*
