%TF.GenerationSoftware,KiCad,Pcbnew,(6.0.11)*%
%TF.CreationDate,2023-02-10T10:35:54-08:00*%
%TF.ProjectId,EV1,4556312e-6b69-4636-9164-5f7063625858,rev?*%
%TF.SameCoordinates,Original*%
%TF.FileFunction,Legend,Top*%
%TF.FilePolarity,Positive*%
%FSLAX46Y46*%
G04 Gerber Fmt 4.6, Leading zero omitted, Abs format (unit mm)*
G04 Created by KiCad (PCBNEW (6.0.11)) date 2023-02-10 10:35:54*
%MOMM*%
%LPD*%
G01*
G04 APERTURE LIST*
G04 Aperture macros list*
%AMRoundRect*
0 Rectangle with rounded corners*
0 $1 Rounding radius*
0 $2 $3 $4 $5 $6 $7 $8 $9 X,Y pos of 4 corners*
0 Add a 4 corners polygon primitive as box body*
4,1,4,$2,$3,$4,$5,$6,$7,$8,$9,$2,$3,0*
0 Add four circle primitives for the rounded corners*
1,1,$1+$1,$2,$3*
1,1,$1+$1,$4,$5*
1,1,$1+$1,$6,$7*
1,1,$1+$1,$8,$9*
0 Add four rect primitives between the rounded corners*
20,1,$1+$1,$2,$3,$4,$5,0*
20,1,$1+$1,$4,$5,$6,$7,0*
20,1,$1+$1,$6,$7,$8,$9,0*
20,1,$1+$1,$8,$9,$2,$3,0*%
G04 Aperture macros list end*
%ADD10C,0.150000*%
%ADD11C,0.120000*%
%ADD12R,4.500000X1.300000*%
%ADD13R,3.900000X1.800000*%
%ADD14R,1.300000X4.500000*%
%ADD15R,1.800000X3.900000*%
%ADD16RoundRect,0.250000X0.250000X0.475000X-0.250000X0.475000X-0.250000X-0.475000X0.250000X-0.475000X0*%
%ADD17RoundRect,0.250000X-0.262500X-0.450000X0.262500X-0.450000X0.262500X0.450000X-0.262500X0.450000X0*%
%ADD18RoundRect,0.250000X0.475000X-0.250000X0.475000X0.250000X-0.475000X0.250000X-0.475000X-0.250000X0*%
%ADD19R,1.500000X2.000000*%
%ADD20R,3.800000X2.000000*%
%ADD21RoundRect,0.243750X0.243750X0.456250X-0.243750X0.456250X-0.243750X-0.456250X0.243750X-0.456250X0*%
%ADD22RoundRect,0.250000X-0.250000X-0.475000X0.250000X-0.475000X0.250000X0.475000X-0.250000X0.475000X0*%
%ADD23R,1.120000X2.160000*%
%ADD24RoundRect,0.250000X0.450000X-0.262500X0.450000X0.262500X-0.450000X0.262500X-0.450000X-0.262500X0*%
%ADD25RoundRect,0.250000X0.262500X0.450000X-0.262500X0.450000X-0.262500X-0.450000X0.262500X-0.450000X0*%
%ADD26C,0.650000*%
%ADD27R,1.450000X0.600000*%
%ADD28R,1.450000X0.300000*%
%ADD29O,1.600000X1.000000*%
%ADD30O,2.100000X1.000000*%
%ADD31R,2.160000X1.120000*%
%ADD32RoundRect,0.218750X-0.218750X-0.381250X0.218750X-0.381250X0.218750X0.381250X-0.218750X0.381250X0*%
%ADD33RoundRect,0.075000X-0.700000X-0.075000X0.700000X-0.075000X0.700000X0.075000X-0.700000X0.075000X0*%
%ADD34RoundRect,0.075000X-0.075000X-0.700000X0.075000X-0.700000X0.075000X0.700000X-0.075000X0.700000X0*%
%ADD35RoundRect,0.250000X-0.475000X0.250000X-0.475000X-0.250000X0.475000X-0.250000X0.475000X0.250000X0*%
%ADD36R,4.495400X1.295400*%
%ADD37R,3.800000X1.800000*%
%ADD38R,1.600000X1.500000*%
%ADD39C,0.700000*%
%ADD40C,0.800000*%
G04 APERTURE END LIST*
D10*
X196872380Y-79625714D02*
X196872380Y-80197142D01*
X196872380Y-79911428D02*
X195872380Y-79911428D01*
X196015238Y-80006666D01*
X196110476Y-80101904D01*
X196158095Y-80197142D01*
X195872380Y-79006666D02*
X195872380Y-78911428D01*
X195920000Y-78816190D01*
X195967619Y-78768571D01*
X196062857Y-78720952D01*
X196253333Y-78673333D01*
X196491428Y-78673333D01*
X196681904Y-78720952D01*
X196777142Y-78768571D01*
X196824761Y-78816190D01*
X196872380Y-78911428D01*
X196872380Y-79006666D01*
X196824761Y-79101904D01*
X196777142Y-79149523D01*
X196681904Y-79197142D01*
X196491428Y-79244761D01*
X196253333Y-79244761D01*
X196062857Y-79197142D01*
X195967619Y-79149523D01*
X195920000Y-79101904D01*
X195872380Y-79006666D01*
X196491428Y-78244761D02*
X196491428Y-77482857D01*
X195872380Y-76816190D02*
X195872380Y-76720952D01*
X195920000Y-76625714D01*
X195967619Y-76578095D01*
X196062857Y-76530476D01*
X196253333Y-76482857D01*
X196491428Y-76482857D01*
X196681904Y-76530476D01*
X196777142Y-76578095D01*
X196824761Y-76625714D01*
X196872380Y-76720952D01*
X196872380Y-76816190D01*
X196824761Y-76911428D01*
X196777142Y-76959047D01*
X196681904Y-77006666D01*
X196491428Y-77054285D01*
X196253333Y-77054285D01*
X196062857Y-77006666D01*
X195967619Y-76959047D01*
X195920000Y-76911428D01*
X195872380Y-76816190D01*
X195967619Y-76101904D02*
X195920000Y-76054285D01*
X195872380Y-75959047D01*
X195872380Y-75720952D01*
X195920000Y-75625714D01*
X195967619Y-75578095D01*
X196062857Y-75530476D01*
X196158095Y-75530476D01*
X196300952Y-75578095D01*
X196872380Y-76149523D01*
X196872380Y-75530476D01*
X196491428Y-75101904D02*
X196491428Y-74340000D01*
X195967619Y-73911428D02*
X195920000Y-73863809D01*
X195872380Y-73768571D01*
X195872380Y-73530476D01*
X195920000Y-73435238D01*
X195967619Y-73387619D01*
X196062857Y-73340000D01*
X196158095Y-73340000D01*
X196300952Y-73387619D01*
X196872380Y-73959047D01*
X196872380Y-73340000D01*
X195872380Y-72720952D02*
X195872380Y-72625714D01*
X195920000Y-72530476D01*
X195967619Y-72482857D01*
X196062857Y-72435238D01*
X196253333Y-72387619D01*
X196491428Y-72387619D01*
X196681904Y-72435238D01*
X196777142Y-72482857D01*
X196824761Y-72530476D01*
X196872380Y-72625714D01*
X196872380Y-72720952D01*
X196824761Y-72816190D01*
X196777142Y-72863809D01*
X196681904Y-72911428D01*
X196491428Y-72959047D01*
X196253333Y-72959047D01*
X196062857Y-72911428D01*
X195967619Y-72863809D01*
X195920000Y-72816190D01*
X195872380Y-72720952D01*
X195967619Y-72006666D02*
X195920000Y-71959047D01*
X195872380Y-71863809D01*
X195872380Y-71625714D01*
X195920000Y-71530476D01*
X195967619Y-71482857D01*
X196062857Y-71435238D01*
X196158095Y-71435238D01*
X196300952Y-71482857D01*
X196872380Y-72054285D01*
X196872380Y-71435238D01*
X195872380Y-71101904D02*
X195872380Y-70482857D01*
X196253333Y-70816190D01*
X196253333Y-70673333D01*
X196300952Y-70578095D01*
X196348571Y-70530476D01*
X196443809Y-70482857D01*
X196681904Y-70482857D01*
X196777142Y-70530476D01*
X196824761Y-70578095D01*
X196872380Y-70673333D01*
X196872380Y-70959047D01*
X196824761Y-71054285D01*
X196777142Y-71101904D01*
X194658571Y-82773809D02*
X194658571Y-82440476D01*
X195182380Y-82297619D02*
X195182380Y-82773809D01*
X194182380Y-82773809D01*
X194182380Y-82297619D01*
X194182380Y-82011904D02*
X195182380Y-81678571D01*
X194182380Y-81345238D01*
X195182380Y-80488095D02*
X195182380Y-81059523D01*
X195182380Y-80773809D02*
X194182380Y-80773809D01*
X194325238Y-80869047D01*
X194420476Y-80964285D01*
X194468095Y-81059523D01*
X194801428Y-79297619D02*
X194801428Y-78535714D01*
X194658571Y-76964285D02*
X194658571Y-77297619D01*
X195182380Y-77297619D02*
X194182380Y-77297619D01*
X194182380Y-76821428D01*
X195182380Y-76440476D02*
X194515714Y-76440476D01*
X194182380Y-76440476D02*
X194230000Y-76488095D01*
X194277619Y-76440476D01*
X194230000Y-76392857D01*
X194182380Y-76440476D01*
X194277619Y-76440476D01*
X194515714Y-75964285D02*
X195182380Y-75964285D01*
X194610952Y-75964285D02*
X194563333Y-75916666D01*
X194515714Y-75821428D01*
X194515714Y-75678571D01*
X194563333Y-75583333D01*
X194658571Y-75535714D01*
X195182380Y-75535714D01*
X194515714Y-75059523D02*
X195182380Y-75059523D01*
X194610952Y-75059523D02*
X194563333Y-75011904D01*
X194515714Y-74916666D01*
X194515714Y-74773809D01*
X194563333Y-74678571D01*
X194658571Y-74630952D01*
X195182380Y-74630952D01*
X194658571Y-73059523D02*
X194706190Y-72916666D01*
X194753809Y-72869047D01*
X194849047Y-72821428D01*
X194991904Y-72821428D01*
X195087142Y-72869047D01*
X195134761Y-72916666D01*
X195182380Y-73011904D01*
X195182380Y-73392857D01*
X194182380Y-73392857D01*
X194182380Y-73059523D01*
X194230000Y-72964285D01*
X194277619Y-72916666D01*
X194372857Y-72869047D01*
X194468095Y-72869047D01*
X194563333Y-72916666D01*
X194610952Y-72964285D01*
X194658571Y-73059523D01*
X194658571Y-73392857D01*
X195134761Y-72011904D02*
X195182380Y-72107142D01*
X195182380Y-72297619D01*
X195134761Y-72392857D01*
X195039523Y-72440476D01*
X194658571Y-72440476D01*
X194563333Y-72392857D01*
X194515714Y-72297619D01*
X194515714Y-72107142D01*
X194563333Y-72011904D01*
X194658571Y-71964285D01*
X194753809Y-71964285D01*
X194849047Y-72440476D01*
X195182380Y-71535714D02*
X194515714Y-71535714D01*
X194706190Y-71535714D02*
X194610952Y-71488095D01*
X194563333Y-71440476D01*
X194515714Y-71345238D01*
X194515714Y-71250000D01*
X194515714Y-70488095D02*
X195325238Y-70488095D01*
X195420476Y-70535714D01*
X195468095Y-70583333D01*
X195515714Y-70678571D01*
X195515714Y-70821428D01*
X195468095Y-70916666D01*
X195134761Y-70488095D02*
X195182380Y-70583333D01*
X195182380Y-70773809D01*
X195134761Y-70869047D01*
X195087142Y-70916666D01*
X194991904Y-70964285D01*
X194706190Y-70964285D01*
X194610952Y-70916666D01*
X194563333Y-70869047D01*
X194515714Y-70773809D01*
X194515714Y-70583333D01*
X194563333Y-70488095D01*
%TO.C,U10*%
X125081904Y-83062380D02*
X125081904Y-83871904D01*
X125129523Y-83967142D01*
X125177142Y-84014761D01*
X125272380Y-84062380D01*
X125462857Y-84062380D01*
X125558095Y-84014761D01*
X125605714Y-83967142D01*
X125653333Y-83871904D01*
X125653333Y-83062380D01*
X126653333Y-84062380D02*
X126081904Y-84062380D01*
X126367619Y-84062380D02*
X126367619Y-83062380D01*
X126272380Y-83205238D01*
X126177142Y-83300476D01*
X126081904Y-83348095D01*
X127272380Y-83062380D02*
X127367619Y-83062380D01*
X127462857Y-83110000D01*
X127510476Y-83157619D01*
X127558095Y-83252857D01*
X127605714Y-83443333D01*
X127605714Y-83681428D01*
X127558095Y-83871904D01*
X127510476Y-83967142D01*
X127462857Y-84014761D01*
X127367619Y-84062380D01*
X127272380Y-84062380D01*
X127177142Y-84014761D01*
X127129523Y-83967142D01*
X127081904Y-83871904D01*
X127034285Y-83681428D01*
X127034285Y-83443333D01*
X127081904Y-83252857D01*
X127129523Y-83157619D01*
X127177142Y-83110000D01*
X127272380Y-83062380D01*
%TO.C,U6*%
X148908095Y-74392380D02*
X148908095Y-75201904D01*
X148955714Y-75297142D01*
X149003333Y-75344761D01*
X149098571Y-75392380D01*
X149289047Y-75392380D01*
X149384285Y-75344761D01*
X149431904Y-75297142D01*
X149479523Y-75201904D01*
X149479523Y-74392380D01*
X150384285Y-74392380D02*
X150193809Y-74392380D01*
X150098571Y-74440000D01*
X150050952Y-74487619D01*
X149955714Y-74630476D01*
X149908095Y-74820952D01*
X149908095Y-75201904D01*
X149955714Y-75297142D01*
X150003333Y-75344761D01*
X150098571Y-75392380D01*
X150289047Y-75392380D01*
X150384285Y-75344761D01*
X150431904Y-75297142D01*
X150479523Y-75201904D01*
X150479523Y-74963809D01*
X150431904Y-74868571D01*
X150384285Y-74820952D01*
X150289047Y-74773333D01*
X150098571Y-74773333D01*
X150003333Y-74820952D01*
X149955714Y-74868571D01*
X149908095Y-74963809D01*
%TO.C,U7*%
X172578095Y-108972380D02*
X172578095Y-109781904D01*
X172625714Y-109877142D01*
X172673333Y-109924761D01*
X172768571Y-109972380D01*
X172959047Y-109972380D01*
X173054285Y-109924761D01*
X173101904Y-109877142D01*
X173149523Y-109781904D01*
X173149523Y-108972380D01*
X173530476Y-108972380D02*
X174197142Y-108972380D01*
X173768571Y-109972380D01*
%TO.C,C14*%
X151122142Y-103129142D02*
X151074523Y-103176761D01*
X150931666Y-103224380D01*
X150836428Y-103224380D01*
X150693571Y-103176761D01*
X150598333Y-103081523D01*
X150550714Y-102986285D01*
X150503095Y-102795809D01*
X150503095Y-102652952D01*
X150550714Y-102462476D01*
X150598333Y-102367238D01*
X150693571Y-102272000D01*
X150836428Y-102224380D01*
X150931666Y-102224380D01*
X151074523Y-102272000D01*
X151122142Y-102319619D01*
X152074523Y-103224380D02*
X151503095Y-103224380D01*
X151788809Y-103224380D02*
X151788809Y-102224380D01*
X151693571Y-102367238D01*
X151598333Y-102462476D01*
X151503095Y-102510095D01*
X152931666Y-102557714D02*
X152931666Y-103224380D01*
X152693571Y-102176761D02*
X152455476Y-102891047D01*
X153074523Y-102891047D01*
%TO.C,R1*%
X176617333Y-100020380D02*
X176284000Y-99544190D01*
X176045904Y-100020380D02*
X176045904Y-99020380D01*
X176426857Y-99020380D01*
X176522095Y-99068000D01*
X176569714Y-99115619D01*
X176617333Y-99210857D01*
X176617333Y-99353714D01*
X176569714Y-99448952D01*
X176522095Y-99496571D01*
X176426857Y-99544190D01*
X176045904Y-99544190D01*
X177569714Y-100020380D02*
X176998285Y-100020380D01*
X177284000Y-100020380D02*
X177284000Y-99020380D01*
X177188761Y-99163238D01*
X177093523Y-99258476D01*
X176998285Y-99306095D01*
%TO.C,R11*%
X174871142Y-84399380D02*
X174537809Y-83923190D01*
X174299714Y-84399380D02*
X174299714Y-83399380D01*
X174680666Y-83399380D01*
X174775904Y-83447000D01*
X174823523Y-83494619D01*
X174871142Y-83589857D01*
X174871142Y-83732714D01*
X174823523Y-83827952D01*
X174775904Y-83875571D01*
X174680666Y-83923190D01*
X174299714Y-83923190D01*
X175823523Y-84399380D02*
X175252095Y-84399380D01*
X175537809Y-84399380D02*
X175537809Y-83399380D01*
X175442571Y-83542238D01*
X175347333Y-83637476D01*
X175252095Y-83685095D01*
X176775904Y-84399380D02*
X176204476Y-84399380D01*
X176490190Y-84399380D02*
X176490190Y-83399380D01*
X176394952Y-83542238D01*
X176299714Y-83637476D01*
X176204476Y-83685095D01*
%TO.C,C12*%
X165197142Y-84297142D02*
X165149523Y-84344761D01*
X165006666Y-84392380D01*
X164911428Y-84392380D01*
X164768571Y-84344761D01*
X164673333Y-84249523D01*
X164625714Y-84154285D01*
X164578095Y-83963809D01*
X164578095Y-83820952D01*
X164625714Y-83630476D01*
X164673333Y-83535238D01*
X164768571Y-83440000D01*
X164911428Y-83392380D01*
X165006666Y-83392380D01*
X165149523Y-83440000D01*
X165197142Y-83487619D01*
X166149523Y-84392380D02*
X165578095Y-84392380D01*
X165863809Y-84392380D02*
X165863809Y-83392380D01*
X165768571Y-83535238D01*
X165673333Y-83630476D01*
X165578095Y-83678095D01*
X166530476Y-83487619D02*
X166578095Y-83440000D01*
X166673333Y-83392380D01*
X166911428Y-83392380D01*
X167006666Y-83440000D01*
X167054285Y-83487619D01*
X167101904Y-83582857D01*
X167101904Y-83678095D01*
X167054285Y-83820952D01*
X166482857Y-84392380D01*
X167101904Y-84392380D01*
%TO.C,U2*%
X162560095Y-89495380D02*
X162560095Y-90304904D01*
X162607714Y-90400142D01*
X162655333Y-90447761D01*
X162750571Y-90495380D01*
X162941047Y-90495380D01*
X163036285Y-90447761D01*
X163083904Y-90400142D01*
X163131523Y-90304904D01*
X163131523Y-89495380D01*
X163560095Y-89590619D02*
X163607714Y-89543000D01*
X163702952Y-89495380D01*
X163941047Y-89495380D01*
X164036285Y-89543000D01*
X164083904Y-89590619D01*
X164131523Y-89685857D01*
X164131523Y-89781095D01*
X164083904Y-89923952D01*
X163512476Y-90495380D01*
X164131523Y-90495380D01*
%TO.C,D2*%
X175918904Y-91638380D02*
X175918904Y-90638380D01*
X176157000Y-90638380D01*
X176299857Y-90686000D01*
X176395095Y-90781238D01*
X176442714Y-90876476D01*
X176490333Y-91066952D01*
X176490333Y-91209809D01*
X176442714Y-91400285D01*
X176395095Y-91495523D01*
X176299857Y-91590761D01*
X176157000Y-91638380D01*
X175918904Y-91638380D01*
X176871285Y-90733619D02*
X176918904Y-90686000D01*
X177014142Y-90638380D01*
X177252238Y-90638380D01*
X177347476Y-90686000D01*
X177395095Y-90733619D01*
X177442714Y-90828857D01*
X177442714Y-90924095D01*
X177395095Y-91066952D01*
X176823666Y-91638380D01*
X177442714Y-91638380D01*
%TO.C,U4*%
X164028095Y-74182380D02*
X164028095Y-74991904D01*
X164075714Y-75087142D01*
X164123333Y-75134761D01*
X164218571Y-75182380D01*
X164409047Y-75182380D01*
X164504285Y-75134761D01*
X164551904Y-75087142D01*
X164599523Y-74991904D01*
X164599523Y-74182380D01*
X165504285Y-74515714D02*
X165504285Y-75182380D01*
X165266190Y-74134761D02*
X165028095Y-74849047D01*
X165647142Y-74849047D01*
%TO.C,C10*%
X146042142Y-103608142D02*
X145994523Y-103655761D01*
X145851666Y-103703380D01*
X145756428Y-103703380D01*
X145613571Y-103655761D01*
X145518333Y-103560523D01*
X145470714Y-103465285D01*
X145423095Y-103274809D01*
X145423095Y-103131952D01*
X145470714Y-102941476D01*
X145518333Y-102846238D01*
X145613571Y-102751000D01*
X145756428Y-102703380D01*
X145851666Y-102703380D01*
X145994523Y-102751000D01*
X146042142Y-102798619D01*
X146994523Y-103703380D02*
X146423095Y-103703380D01*
X146708809Y-103703380D02*
X146708809Y-102703380D01*
X146613571Y-102846238D01*
X146518333Y-102941476D01*
X146423095Y-102989095D01*
X147613571Y-102703380D02*
X147708809Y-102703380D01*
X147804047Y-102751000D01*
X147851666Y-102798619D01*
X147899285Y-102893857D01*
X147946904Y-103084333D01*
X147946904Y-103322428D01*
X147899285Y-103512904D01*
X147851666Y-103608142D01*
X147804047Y-103655761D01*
X147708809Y-103703380D01*
X147613571Y-103703380D01*
X147518333Y-103655761D01*
X147470714Y-103608142D01*
X147423095Y-103512904D01*
X147375476Y-103322428D01*
X147375476Y-103084333D01*
X147423095Y-102893857D01*
X147470714Y-102798619D01*
X147518333Y-102751000D01*
X147613571Y-102703380D01*
%TO.C,SW2*%
X133754761Y-83756333D02*
X133802380Y-83613476D01*
X133802380Y-83375380D01*
X133754761Y-83280142D01*
X133707142Y-83232523D01*
X133611904Y-83184904D01*
X133516666Y-83184904D01*
X133421428Y-83232523D01*
X133373809Y-83280142D01*
X133326190Y-83375380D01*
X133278571Y-83565857D01*
X133230952Y-83661095D01*
X133183333Y-83708714D01*
X133088095Y-83756333D01*
X132992857Y-83756333D01*
X132897619Y-83708714D01*
X132850000Y-83661095D01*
X132802380Y-83565857D01*
X132802380Y-83327761D01*
X132850000Y-83184904D01*
X132802380Y-82851571D02*
X133802380Y-82613476D01*
X133088095Y-82423000D01*
X133802380Y-82232523D01*
X132802380Y-81994428D01*
X132897619Y-81661095D02*
X132850000Y-81613476D01*
X132802380Y-81518238D01*
X132802380Y-81280142D01*
X132850000Y-81184904D01*
X132897619Y-81137285D01*
X132992857Y-81089666D01*
X133088095Y-81089666D01*
X133230952Y-81137285D01*
X133802380Y-81708714D01*
X133802380Y-81089666D01*
%TO.C,R10*%
X174998142Y-79573380D02*
X174664809Y-79097190D01*
X174426714Y-79573380D02*
X174426714Y-78573380D01*
X174807666Y-78573380D01*
X174902904Y-78621000D01*
X174950523Y-78668619D01*
X174998142Y-78763857D01*
X174998142Y-78906714D01*
X174950523Y-79001952D01*
X174902904Y-79049571D01*
X174807666Y-79097190D01*
X174426714Y-79097190D01*
X175950523Y-79573380D02*
X175379095Y-79573380D01*
X175664809Y-79573380D02*
X175664809Y-78573380D01*
X175569571Y-78716238D01*
X175474333Y-78811476D01*
X175379095Y-78859095D01*
X176569571Y-78573380D02*
X176664809Y-78573380D01*
X176760047Y-78621000D01*
X176807666Y-78668619D01*
X176855285Y-78763857D01*
X176902904Y-78954333D01*
X176902904Y-79192428D01*
X176855285Y-79382904D01*
X176807666Y-79478142D01*
X176760047Y-79525761D01*
X176664809Y-79573380D01*
X176569571Y-79573380D01*
X176474333Y-79525761D01*
X176426714Y-79478142D01*
X176379095Y-79382904D01*
X176331476Y-79192428D01*
X176331476Y-78954333D01*
X176379095Y-78763857D01*
X176426714Y-78668619D01*
X176474333Y-78621000D01*
X176569571Y-78573380D01*
%TO.C,R5*%
X169378333Y-100147380D02*
X169045000Y-99671190D01*
X168806904Y-100147380D02*
X168806904Y-99147380D01*
X169187857Y-99147380D01*
X169283095Y-99195000D01*
X169330714Y-99242619D01*
X169378333Y-99337857D01*
X169378333Y-99480714D01*
X169330714Y-99575952D01*
X169283095Y-99623571D01*
X169187857Y-99671190D01*
X168806904Y-99671190D01*
X170283095Y-99147380D02*
X169806904Y-99147380D01*
X169759285Y-99623571D01*
X169806904Y-99575952D01*
X169902142Y-99528333D01*
X170140238Y-99528333D01*
X170235476Y-99575952D01*
X170283095Y-99623571D01*
X170330714Y-99718809D01*
X170330714Y-99956904D01*
X170283095Y-100052142D01*
X170235476Y-100099761D01*
X170140238Y-100147380D01*
X169902142Y-100147380D01*
X169806904Y-100099761D01*
X169759285Y-100052142D01*
%TO.C,R8*%
X155823333Y-78802380D02*
X155490000Y-78326190D01*
X155251904Y-78802380D02*
X155251904Y-77802380D01*
X155632857Y-77802380D01*
X155728095Y-77850000D01*
X155775714Y-77897619D01*
X155823333Y-77992857D01*
X155823333Y-78135714D01*
X155775714Y-78230952D01*
X155728095Y-78278571D01*
X155632857Y-78326190D01*
X155251904Y-78326190D01*
X156394761Y-78230952D02*
X156299523Y-78183333D01*
X156251904Y-78135714D01*
X156204285Y-78040476D01*
X156204285Y-77992857D01*
X156251904Y-77897619D01*
X156299523Y-77850000D01*
X156394761Y-77802380D01*
X156585238Y-77802380D01*
X156680476Y-77850000D01*
X156728095Y-77897619D01*
X156775714Y-77992857D01*
X156775714Y-78040476D01*
X156728095Y-78135714D01*
X156680476Y-78183333D01*
X156585238Y-78230952D01*
X156394761Y-78230952D01*
X156299523Y-78278571D01*
X156251904Y-78326190D01*
X156204285Y-78421428D01*
X156204285Y-78611904D01*
X156251904Y-78707142D01*
X156299523Y-78754761D01*
X156394761Y-78802380D01*
X156585238Y-78802380D01*
X156680476Y-78754761D01*
X156728095Y-78707142D01*
X156775714Y-78611904D01*
X156775714Y-78421428D01*
X156728095Y-78326190D01*
X156680476Y-78278571D01*
X156585238Y-78230952D01*
%TO.C,R6*%
X175220333Y-102687380D02*
X174887000Y-102211190D01*
X174648904Y-102687380D02*
X174648904Y-101687380D01*
X175029857Y-101687380D01*
X175125095Y-101735000D01*
X175172714Y-101782619D01*
X175220333Y-101877857D01*
X175220333Y-102020714D01*
X175172714Y-102115952D01*
X175125095Y-102163571D01*
X175029857Y-102211190D01*
X174648904Y-102211190D01*
X176077476Y-101687380D02*
X175887000Y-101687380D01*
X175791761Y-101735000D01*
X175744142Y-101782619D01*
X175648904Y-101925476D01*
X175601285Y-102115952D01*
X175601285Y-102496904D01*
X175648904Y-102592142D01*
X175696523Y-102639761D01*
X175791761Y-102687380D01*
X175982238Y-102687380D01*
X176077476Y-102639761D01*
X176125095Y-102592142D01*
X176172714Y-102496904D01*
X176172714Y-102258809D01*
X176125095Y-102163571D01*
X176077476Y-102115952D01*
X175982238Y-102068333D01*
X175791761Y-102068333D01*
X175696523Y-102115952D01*
X175648904Y-102163571D01*
X175601285Y-102258809D01*
%TO.C,R13*%
X156517142Y-85161380D02*
X156183809Y-84685190D01*
X155945714Y-85161380D02*
X155945714Y-84161380D01*
X156326666Y-84161380D01*
X156421904Y-84209000D01*
X156469523Y-84256619D01*
X156517142Y-84351857D01*
X156517142Y-84494714D01*
X156469523Y-84589952D01*
X156421904Y-84637571D01*
X156326666Y-84685190D01*
X155945714Y-84685190D01*
X157469523Y-85161380D02*
X156898095Y-85161380D01*
X157183809Y-85161380D02*
X157183809Y-84161380D01*
X157088571Y-84304238D01*
X156993333Y-84399476D01*
X156898095Y-84447095D01*
X157802857Y-84161380D02*
X158421904Y-84161380D01*
X158088571Y-84542333D01*
X158231428Y-84542333D01*
X158326666Y-84589952D01*
X158374285Y-84637571D01*
X158421904Y-84732809D01*
X158421904Y-84970904D01*
X158374285Y-85066142D01*
X158326666Y-85113761D01*
X158231428Y-85161380D01*
X157945714Y-85161380D01*
X157850476Y-85113761D01*
X157802857Y-85066142D01*
%TO.C,J9*%
X188736666Y-98032380D02*
X188736666Y-98746666D01*
X188689047Y-98889523D01*
X188593809Y-98984761D01*
X188450952Y-99032380D01*
X188355714Y-99032380D01*
X189260476Y-99032380D02*
X189450952Y-99032380D01*
X189546190Y-98984761D01*
X189593809Y-98937142D01*
X189689047Y-98794285D01*
X189736666Y-98603809D01*
X189736666Y-98222857D01*
X189689047Y-98127619D01*
X189641428Y-98080000D01*
X189546190Y-98032380D01*
X189355714Y-98032380D01*
X189260476Y-98080000D01*
X189212857Y-98127619D01*
X189165238Y-98222857D01*
X189165238Y-98460952D01*
X189212857Y-98556190D01*
X189260476Y-98603809D01*
X189355714Y-98651428D01*
X189546190Y-98651428D01*
X189641428Y-98603809D01*
X189689047Y-98556190D01*
X189736666Y-98460952D01*
%TO.C,D1*%
X177081904Y-96162380D02*
X177081904Y-95162380D01*
X177320000Y-95162380D01*
X177462857Y-95210000D01*
X177558095Y-95305238D01*
X177605714Y-95400476D01*
X177653333Y-95590952D01*
X177653333Y-95733809D01*
X177605714Y-95924285D01*
X177558095Y-96019523D01*
X177462857Y-96114761D01*
X177320000Y-96162380D01*
X177081904Y-96162380D01*
X178605714Y-96162380D02*
X178034285Y-96162380D01*
X178320000Y-96162380D02*
X178320000Y-95162380D01*
X178224761Y-95305238D01*
X178129523Y-95400476D01*
X178034285Y-95448095D01*
%TO.C,SW1*%
X166052666Y-76985761D02*
X166195523Y-77033380D01*
X166433619Y-77033380D01*
X166528857Y-76985761D01*
X166576476Y-76938142D01*
X166624095Y-76842904D01*
X166624095Y-76747666D01*
X166576476Y-76652428D01*
X166528857Y-76604809D01*
X166433619Y-76557190D01*
X166243142Y-76509571D01*
X166147904Y-76461952D01*
X166100285Y-76414333D01*
X166052666Y-76319095D01*
X166052666Y-76223857D01*
X166100285Y-76128619D01*
X166147904Y-76081000D01*
X166243142Y-76033380D01*
X166481238Y-76033380D01*
X166624095Y-76081000D01*
X166957428Y-76033380D02*
X167195523Y-77033380D01*
X167386000Y-76319095D01*
X167576476Y-77033380D01*
X167814571Y-76033380D01*
X168719333Y-77033380D02*
X168147904Y-77033380D01*
X168433619Y-77033380D02*
X168433619Y-76033380D01*
X168338380Y-76176238D01*
X168243142Y-76271476D01*
X168147904Y-76319095D01*
%TO.C,C11*%
X149217142Y-82780142D02*
X149169523Y-82827761D01*
X149026666Y-82875380D01*
X148931428Y-82875380D01*
X148788571Y-82827761D01*
X148693333Y-82732523D01*
X148645714Y-82637285D01*
X148598095Y-82446809D01*
X148598095Y-82303952D01*
X148645714Y-82113476D01*
X148693333Y-82018238D01*
X148788571Y-81923000D01*
X148931428Y-81875380D01*
X149026666Y-81875380D01*
X149169523Y-81923000D01*
X149217142Y-81970619D01*
X150169523Y-82875380D02*
X149598095Y-82875380D01*
X149883809Y-82875380D02*
X149883809Y-81875380D01*
X149788571Y-82018238D01*
X149693333Y-82113476D01*
X149598095Y-82161095D01*
X151121904Y-82875380D02*
X150550476Y-82875380D01*
X150836190Y-82875380D02*
X150836190Y-81875380D01*
X150740952Y-82018238D01*
X150645714Y-82113476D01*
X150550476Y-82161095D01*
%TO.C,120R1*%
X139287142Y-97962380D02*
X138715714Y-97962380D01*
X139001428Y-97962380D02*
X139001428Y-96962380D01*
X138906190Y-97105238D01*
X138810952Y-97200476D01*
X138715714Y-97248095D01*
X139668095Y-97057619D02*
X139715714Y-97010000D01*
X139810952Y-96962380D01*
X140049047Y-96962380D01*
X140144285Y-97010000D01*
X140191904Y-97057619D01*
X140239523Y-97152857D01*
X140239523Y-97248095D01*
X140191904Y-97390952D01*
X139620476Y-97962380D01*
X140239523Y-97962380D01*
X140858571Y-96962380D02*
X140953809Y-96962380D01*
X141049047Y-97010000D01*
X141096666Y-97057619D01*
X141144285Y-97152857D01*
X141191904Y-97343333D01*
X141191904Y-97581428D01*
X141144285Y-97771904D01*
X141096666Y-97867142D01*
X141049047Y-97914761D01*
X140953809Y-97962380D01*
X140858571Y-97962380D01*
X140763333Y-97914761D01*
X140715714Y-97867142D01*
X140668095Y-97771904D01*
X140620476Y-97581428D01*
X140620476Y-97343333D01*
X140668095Y-97152857D01*
X140715714Y-97057619D01*
X140763333Y-97010000D01*
X140858571Y-96962380D01*
X142191904Y-97962380D02*
X141858571Y-97486190D01*
X141620476Y-97962380D02*
X141620476Y-96962380D01*
X142001428Y-96962380D01*
X142096666Y-97010000D01*
X142144285Y-97057619D01*
X142191904Y-97152857D01*
X142191904Y-97295714D01*
X142144285Y-97390952D01*
X142096666Y-97438571D01*
X142001428Y-97486190D01*
X141620476Y-97486190D01*
X143144285Y-97962380D02*
X142572857Y-97962380D01*
X142858571Y-97962380D02*
X142858571Y-96962380D01*
X142763333Y-97105238D01*
X142668095Y-97200476D01*
X142572857Y-97248095D01*
%TO.C,R7*%
X149566333Y-81478380D02*
X149233000Y-81002190D01*
X148994904Y-81478380D02*
X148994904Y-80478380D01*
X149375857Y-80478380D01*
X149471095Y-80526000D01*
X149518714Y-80573619D01*
X149566333Y-80668857D01*
X149566333Y-80811714D01*
X149518714Y-80906952D01*
X149471095Y-80954571D01*
X149375857Y-81002190D01*
X148994904Y-81002190D01*
X149899666Y-80478380D02*
X150566333Y-80478380D01*
X150137761Y-81478380D01*
%TO.C,C13*%
X157727142Y-102827142D02*
X157679523Y-102874761D01*
X157536666Y-102922380D01*
X157441428Y-102922380D01*
X157298571Y-102874761D01*
X157203333Y-102779523D01*
X157155714Y-102684285D01*
X157108095Y-102493809D01*
X157108095Y-102350952D01*
X157155714Y-102160476D01*
X157203333Y-102065238D01*
X157298571Y-101970000D01*
X157441428Y-101922380D01*
X157536666Y-101922380D01*
X157679523Y-101970000D01*
X157727142Y-102017619D01*
X158679523Y-102922380D02*
X158108095Y-102922380D01*
X158393809Y-102922380D02*
X158393809Y-101922380D01*
X158298571Y-102065238D01*
X158203333Y-102160476D01*
X158108095Y-102208095D01*
X159012857Y-101922380D02*
X159631904Y-101922380D01*
X159298571Y-102303333D01*
X159441428Y-102303333D01*
X159536666Y-102350952D01*
X159584285Y-102398571D01*
X159631904Y-102493809D01*
X159631904Y-102731904D01*
X159584285Y-102827142D01*
X159536666Y-102874761D01*
X159441428Y-102922380D01*
X159155714Y-102922380D01*
X159060476Y-102874761D01*
X159012857Y-102827142D01*
%TO.C,R2*%
X142073333Y-82621380D02*
X141740000Y-82145190D01*
X141501904Y-82621380D02*
X141501904Y-81621380D01*
X141882857Y-81621380D01*
X141978095Y-81669000D01*
X142025714Y-81716619D01*
X142073333Y-81811857D01*
X142073333Y-81954714D01*
X142025714Y-82049952D01*
X141978095Y-82097571D01*
X141882857Y-82145190D01*
X141501904Y-82145190D01*
X142454285Y-81716619D02*
X142501904Y-81669000D01*
X142597142Y-81621380D01*
X142835238Y-81621380D01*
X142930476Y-81669000D01*
X142978095Y-81716619D01*
X143025714Y-81811857D01*
X143025714Y-81907095D01*
X142978095Y-82049952D01*
X142406666Y-82621380D01*
X143025714Y-82621380D01*
%TO.C,U9*%
X143548095Y-108692380D02*
X143548095Y-109501904D01*
X143595714Y-109597142D01*
X143643333Y-109644761D01*
X143738571Y-109692380D01*
X143929047Y-109692380D01*
X144024285Y-109644761D01*
X144071904Y-109597142D01*
X144119523Y-109501904D01*
X144119523Y-108692380D01*
X144643333Y-109692380D02*
X144833809Y-109692380D01*
X144929047Y-109644761D01*
X144976666Y-109597142D01*
X145071904Y-109454285D01*
X145119523Y-109263809D01*
X145119523Y-108882857D01*
X145071904Y-108787619D01*
X145024285Y-108740000D01*
X144929047Y-108692380D01*
X144738571Y-108692380D01*
X144643333Y-108740000D01*
X144595714Y-108787619D01*
X144548095Y-108882857D01*
X144548095Y-109120952D01*
X144595714Y-109216190D01*
X144643333Y-109263809D01*
X144738571Y-109311428D01*
X144929047Y-109311428D01*
X145024285Y-109263809D01*
X145071904Y-109216190D01*
X145119523Y-109120952D01*
%TO.C,U1*%
X153466895Y-90765380D02*
X153466895Y-91574904D01*
X153514514Y-91670142D01*
X153562133Y-91717761D01*
X153657371Y-91765380D01*
X153847847Y-91765380D01*
X153943085Y-91717761D01*
X153990704Y-91670142D01*
X154038323Y-91574904D01*
X154038323Y-90765380D01*
X155038323Y-91765380D02*
X154466895Y-91765380D01*
X154752609Y-91765380D02*
X154752609Y-90765380D01*
X154657371Y-90908238D01*
X154562133Y-91003476D01*
X154466895Y-91051095D01*
%TO.C,C4*%
X140168333Y-94718142D02*
X140120714Y-94765761D01*
X139977857Y-94813380D01*
X139882619Y-94813380D01*
X139739761Y-94765761D01*
X139644523Y-94670523D01*
X139596904Y-94575285D01*
X139549285Y-94384809D01*
X139549285Y-94241952D01*
X139596904Y-94051476D01*
X139644523Y-93956238D01*
X139739761Y-93861000D01*
X139882619Y-93813380D01*
X139977857Y-93813380D01*
X140120714Y-93861000D01*
X140168333Y-93908619D01*
X141025476Y-94146714D02*
X141025476Y-94813380D01*
X140787380Y-93765761D02*
X140549285Y-94480047D01*
X141168333Y-94480047D01*
%TO.C,R9*%
X174839333Y-81986380D02*
X174506000Y-81510190D01*
X174267904Y-81986380D02*
X174267904Y-80986380D01*
X174648857Y-80986380D01*
X174744095Y-81034000D01*
X174791714Y-81081619D01*
X174839333Y-81176857D01*
X174839333Y-81319714D01*
X174791714Y-81414952D01*
X174744095Y-81462571D01*
X174648857Y-81510190D01*
X174267904Y-81510190D01*
X175315523Y-81986380D02*
X175506000Y-81986380D01*
X175601238Y-81938761D01*
X175648857Y-81891142D01*
X175744095Y-81748285D01*
X175791714Y-81557809D01*
X175791714Y-81176857D01*
X175744095Y-81081619D01*
X175696476Y-81034000D01*
X175601238Y-80986380D01*
X175410761Y-80986380D01*
X175315523Y-81034000D01*
X175267904Y-81081619D01*
X175220285Y-81176857D01*
X175220285Y-81414952D01*
X175267904Y-81510190D01*
X175315523Y-81557809D01*
X175410761Y-81605428D01*
X175601238Y-81605428D01*
X175696476Y-81557809D01*
X175744095Y-81510190D01*
X175791714Y-81414952D01*
%TO.C,U3*%
X125218095Y-109362380D02*
X125218095Y-110171904D01*
X125265714Y-110267142D01*
X125313333Y-110314761D01*
X125408571Y-110362380D01*
X125599047Y-110362380D01*
X125694285Y-110314761D01*
X125741904Y-110267142D01*
X125789523Y-110171904D01*
X125789523Y-109362380D01*
X126170476Y-109362380D02*
X126789523Y-109362380D01*
X126456190Y-109743333D01*
X126599047Y-109743333D01*
X126694285Y-109790952D01*
X126741904Y-109838571D01*
X126789523Y-109933809D01*
X126789523Y-110171904D01*
X126741904Y-110267142D01*
X126694285Y-110314761D01*
X126599047Y-110362380D01*
X126313333Y-110362380D01*
X126218095Y-110314761D01*
X126170476Y-110267142D01*
%TO.C,R4*%
X166711333Y-100147380D02*
X166378000Y-99671190D01*
X166139904Y-100147380D02*
X166139904Y-99147380D01*
X166520857Y-99147380D01*
X166616095Y-99195000D01*
X166663714Y-99242619D01*
X166711333Y-99337857D01*
X166711333Y-99480714D01*
X166663714Y-99575952D01*
X166616095Y-99623571D01*
X166520857Y-99671190D01*
X166139904Y-99671190D01*
X167568476Y-99480714D02*
X167568476Y-100147380D01*
X167330380Y-99099761D02*
X167092285Y-99814047D01*
X167711333Y-99814047D01*
%TO.C,C9*%
X146518333Y-101068142D02*
X146470714Y-101115761D01*
X146327857Y-101163380D01*
X146232619Y-101163380D01*
X146089761Y-101115761D01*
X145994523Y-101020523D01*
X145946904Y-100925285D01*
X145899285Y-100734809D01*
X145899285Y-100591952D01*
X145946904Y-100401476D01*
X145994523Y-100306238D01*
X146089761Y-100211000D01*
X146232619Y-100163380D01*
X146327857Y-100163380D01*
X146470714Y-100211000D01*
X146518333Y-100258619D01*
X146994523Y-101163380D02*
X147185000Y-101163380D01*
X147280238Y-101115761D01*
X147327857Y-101068142D01*
X147423095Y-100925285D01*
X147470714Y-100734809D01*
X147470714Y-100353857D01*
X147423095Y-100258619D01*
X147375476Y-100211000D01*
X147280238Y-100163380D01*
X147089761Y-100163380D01*
X146994523Y-100211000D01*
X146946904Y-100258619D01*
X146899285Y-100353857D01*
X146899285Y-100591952D01*
X146946904Y-100687190D01*
X146994523Y-100734809D01*
X147089761Y-100782428D01*
X147280238Y-100782428D01*
X147375476Y-100734809D01*
X147423095Y-100687190D01*
X147470714Y-100591952D01*
%TO.C,C5*%
X144232333Y-82526142D02*
X144184714Y-82573761D01*
X144041857Y-82621380D01*
X143946619Y-82621380D01*
X143803761Y-82573761D01*
X143708523Y-82478523D01*
X143660904Y-82383285D01*
X143613285Y-82192809D01*
X143613285Y-82049952D01*
X143660904Y-81859476D01*
X143708523Y-81764238D01*
X143803761Y-81669000D01*
X143946619Y-81621380D01*
X144041857Y-81621380D01*
X144184714Y-81669000D01*
X144232333Y-81716619D01*
X145137095Y-81621380D02*
X144660904Y-81621380D01*
X144613285Y-82097571D01*
X144660904Y-82049952D01*
X144756142Y-82002333D01*
X144994238Y-82002333D01*
X145089476Y-82049952D01*
X145137095Y-82097571D01*
X145184714Y-82192809D01*
X145184714Y-82430904D01*
X145137095Y-82526142D01*
X145089476Y-82573761D01*
X144994238Y-82621380D01*
X144756142Y-82621380D01*
X144660904Y-82573761D01*
X144613285Y-82526142D01*
%TO.C,R12*%
X172331142Y-87447380D02*
X171997809Y-86971190D01*
X171759714Y-87447380D02*
X171759714Y-86447380D01*
X172140666Y-86447380D01*
X172235904Y-86495000D01*
X172283523Y-86542619D01*
X172331142Y-86637857D01*
X172331142Y-86780714D01*
X172283523Y-86875952D01*
X172235904Y-86923571D01*
X172140666Y-86971190D01*
X171759714Y-86971190D01*
X173283523Y-87447380D02*
X172712095Y-87447380D01*
X172997809Y-87447380D02*
X172997809Y-86447380D01*
X172902571Y-86590238D01*
X172807333Y-86685476D01*
X172712095Y-86733095D01*
X173664476Y-86542619D02*
X173712095Y-86495000D01*
X173807333Y-86447380D01*
X174045428Y-86447380D01*
X174140666Y-86495000D01*
X174188285Y-86542619D01*
X174235904Y-86637857D01*
X174235904Y-86733095D01*
X174188285Y-86875952D01*
X173616857Y-87447380D01*
X174235904Y-87447380D01*
%TO.C,C1*%
X176363333Y-94591142D02*
X176315714Y-94638761D01*
X176172857Y-94686380D01*
X176077619Y-94686380D01*
X175934761Y-94638761D01*
X175839523Y-94543523D01*
X175791904Y-94448285D01*
X175744285Y-94257809D01*
X175744285Y-94114952D01*
X175791904Y-93924476D01*
X175839523Y-93829238D01*
X175934761Y-93734000D01*
X176077619Y-93686380D01*
X176172857Y-93686380D01*
X176315714Y-93734000D01*
X176363333Y-93781619D01*
X177315714Y-94686380D02*
X176744285Y-94686380D01*
X177030000Y-94686380D02*
X177030000Y-93686380D01*
X176934761Y-93829238D01*
X176839523Y-93924476D01*
X176744285Y-93972095D01*
%TO.C,C8*%
X142708333Y-95099142D02*
X142660714Y-95146761D01*
X142517857Y-95194380D01*
X142422619Y-95194380D01*
X142279761Y-95146761D01*
X142184523Y-95051523D01*
X142136904Y-94956285D01*
X142089285Y-94765809D01*
X142089285Y-94622952D01*
X142136904Y-94432476D01*
X142184523Y-94337238D01*
X142279761Y-94242000D01*
X142422619Y-94194380D01*
X142517857Y-94194380D01*
X142660714Y-94242000D01*
X142708333Y-94289619D01*
X143279761Y-94622952D02*
X143184523Y-94575333D01*
X143136904Y-94527714D01*
X143089285Y-94432476D01*
X143089285Y-94384857D01*
X143136904Y-94289619D01*
X143184523Y-94242000D01*
X143279761Y-94194380D01*
X143470238Y-94194380D01*
X143565476Y-94242000D01*
X143613095Y-94289619D01*
X143660714Y-94384857D01*
X143660714Y-94432476D01*
X143613095Y-94527714D01*
X143565476Y-94575333D01*
X143470238Y-94622952D01*
X143279761Y-94622952D01*
X143184523Y-94670571D01*
X143136904Y-94718190D01*
X143089285Y-94813428D01*
X143089285Y-95003904D01*
X143136904Y-95099142D01*
X143184523Y-95146761D01*
X143279761Y-95194380D01*
X143470238Y-95194380D01*
X143565476Y-95146761D01*
X143613095Y-95099142D01*
X143660714Y-95003904D01*
X143660714Y-94813428D01*
X143613095Y-94718190D01*
X143565476Y-94670571D01*
X143470238Y-94622952D01*
%TO.C,U5*%
X185138095Y-74212380D02*
X185138095Y-75021904D01*
X185185714Y-75117142D01*
X185233333Y-75164761D01*
X185328571Y-75212380D01*
X185519047Y-75212380D01*
X185614285Y-75164761D01*
X185661904Y-75117142D01*
X185709523Y-75021904D01*
X185709523Y-74212380D01*
X186661904Y-74212380D02*
X186185714Y-74212380D01*
X186138095Y-74688571D01*
X186185714Y-74640952D01*
X186280952Y-74593333D01*
X186519047Y-74593333D01*
X186614285Y-74640952D01*
X186661904Y-74688571D01*
X186709523Y-74783809D01*
X186709523Y-75021904D01*
X186661904Y-75117142D01*
X186614285Y-75164761D01*
X186519047Y-75212380D01*
X186280952Y-75212380D01*
X186185714Y-75164761D01*
X186138095Y-75117142D01*
%TO.C,C2*%
X166965333Y-98557142D02*
X166917714Y-98604761D01*
X166774857Y-98652380D01*
X166679619Y-98652380D01*
X166536761Y-98604761D01*
X166441523Y-98509523D01*
X166393904Y-98414285D01*
X166346285Y-98223809D01*
X166346285Y-98080952D01*
X166393904Y-97890476D01*
X166441523Y-97795238D01*
X166536761Y-97700000D01*
X166679619Y-97652380D01*
X166774857Y-97652380D01*
X166917714Y-97700000D01*
X166965333Y-97747619D01*
X167346285Y-97747619D02*
X167393904Y-97700000D01*
X167489142Y-97652380D01*
X167727238Y-97652380D01*
X167822476Y-97700000D01*
X167870095Y-97747619D01*
X167917714Y-97842857D01*
X167917714Y-97938095D01*
X167870095Y-98080952D01*
X167298666Y-98652380D01*
X167917714Y-98652380D01*
%TO.C,R3*%
X163536333Y-102433380D02*
X163203000Y-101957190D01*
X162964904Y-102433380D02*
X162964904Y-101433380D01*
X163345857Y-101433380D01*
X163441095Y-101481000D01*
X163488714Y-101528619D01*
X163536333Y-101623857D01*
X163536333Y-101766714D01*
X163488714Y-101861952D01*
X163441095Y-101909571D01*
X163345857Y-101957190D01*
X162964904Y-101957190D01*
X163869666Y-101433380D02*
X164488714Y-101433380D01*
X164155380Y-101814333D01*
X164298238Y-101814333D01*
X164393476Y-101861952D01*
X164441095Y-101909571D01*
X164488714Y-102004809D01*
X164488714Y-102242904D01*
X164441095Y-102338142D01*
X164393476Y-102385761D01*
X164298238Y-102433380D01*
X164012523Y-102433380D01*
X163917285Y-102385761D01*
X163869666Y-102338142D01*
%TO.C,U8*%
X194418095Y-108902380D02*
X194418095Y-109711904D01*
X194465714Y-109807142D01*
X194513333Y-109854761D01*
X194608571Y-109902380D01*
X194799047Y-109902380D01*
X194894285Y-109854761D01*
X194941904Y-109807142D01*
X194989523Y-109711904D01*
X194989523Y-108902380D01*
X195608571Y-109330952D02*
X195513333Y-109283333D01*
X195465714Y-109235714D01*
X195418095Y-109140476D01*
X195418095Y-109092857D01*
X195465714Y-108997619D01*
X195513333Y-108950000D01*
X195608571Y-108902380D01*
X195799047Y-108902380D01*
X195894285Y-108950000D01*
X195941904Y-108997619D01*
X195989523Y-109092857D01*
X195989523Y-109140476D01*
X195941904Y-109235714D01*
X195894285Y-109283333D01*
X195799047Y-109330952D01*
X195608571Y-109330952D01*
X195513333Y-109378571D01*
X195465714Y-109426190D01*
X195418095Y-109521428D01*
X195418095Y-109711904D01*
X195465714Y-109807142D01*
X195513333Y-109854761D01*
X195608571Y-109902380D01*
X195799047Y-109902380D01*
X195894285Y-109854761D01*
X195941904Y-109807142D01*
X195989523Y-109711904D01*
X195989523Y-109521428D01*
X195941904Y-109426190D01*
X195894285Y-109378571D01*
X195799047Y-109330952D01*
%TO.C,X1*%
X142573476Y-87082380D02*
X143240142Y-88082380D01*
X143240142Y-87082380D02*
X142573476Y-88082380D01*
X144144904Y-88082380D02*
X143573476Y-88082380D01*
X143859190Y-88082380D02*
X143859190Y-87082380D01*
X143763952Y-87225238D01*
X143668714Y-87320476D01*
X143573476Y-87368095D01*
D11*
%TO.C,U10*%
X114830000Y-64210000D02*
X124630000Y-64210000D01*
X124630000Y-64210000D02*
X124630000Y-84610000D01*
X124630000Y-84610000D02*
X114830000Y-84610000D01*
X114830000Y-84610000D02*
X114830000Y-64210000D01*
%TO.C,U6*%
X150190000Y-63950000D02*
X127390000Y-63950000D01*
X127390000Y-63950000D02*
X127390000Y-73850000D01*
X127390000Y-73850000D02*
X150190000Y-73850000D01*
X150190000Y-73850000D02*
X150190000Y-63950000D01*
%TO.C,U7*%
X146910000Y-120240000D02*
X174910000Y-120240000D01*
X174910000Y-120240000D02*
X174910000Y-110440000D01*
X174910000Y-110440000D02*
X146910000Y-110440000D01*
X146910000Y-110440000D02*
X146910000Y-120240000D01*
%TO.C,C14*%
X151391252Y-100357000D02*
X150868748Y-100357000D01*
X151391252Y-101827000D02*
X150868748Y-101827000D01*
%TO.C,R1*%
X173889936Y-97817000D02*
X174344064Y-97817000D01*
X173889936Y-99287000D02*
X174344064Y-99287000D01*
%TO.C,R11*%
X172082936Y-82265000D02*
X172537064Y-82265000D01*
X172082936Y-83735000D02*
X172537064Y-83735000D01*
%TO.C,C12*%
X161571000Y-87129252D02*
X161571000Y-86606748D01*
X163041000Y-87129252D02*
X163041000Y-86606748D01*
%TO.C,U2*%
X171304000Y-92782000D02*
X171304000Y-89022000D01*
X164484000Y-95032000D02*
X164484000Y-89022000D01*
X171304000Y-89022000D02*
X170044000Y-89022000D01*
X164484000Y-89022000D02*
X165744000Y-89022000D01*
%TO.C,D2*%
X175675000Y-91130000D02*
X175675000Y-89210000D01*
X175675000Y-89210000D02*
X172990000Y-89210000D01*
X172990000Y-91130000D02*
X175675000Y-91130000D01*
%TO.C,U4*%
X166500000Y-63900000D02*
X151100000Y-63900000D01*
X151100000Y-63900000D02*
X151100000Y-73900000D01*
X151100000Y-73900000D02*
X166500000Y-73900000D01*
X166500000Y-73900000D02*
X166500000Y-63900000D01*
%TO.C,C10*%
X143248748Y-101400000D02*
X143771252Y-101400000D01*
X143248748Y-102870000D02*
X143771252Y-102870000D01*
%TO.C,SW2*%
X135080000Y-88140000D02*
X135080000Y-81320000D01*
X136795000Y-86540000D02*
X136795000Y-85333333D01*
X137825000Y-86540000D02*
X137825000Y-82920000D01*
X136915000Y-86540000D02*
X136915000Y-85333333D01*
X137035000Y-86540000D02*
X137035000Y-85333333D01*
X135080000Y-88140000D02*
X136390000Y-88140000D01*
X137515000Y-86540000D02*
X137515000Y-85333333D01*
X134840000Y-88380000D02*
X136223000Y-88380000D01*
X137155000Y-86540000D02*
X137155000Y-85333333D01*
X137275000Y-86540000D02*
X137275000Y-85333333D01*
X137990000Y-81320000D02*
X139300000Y-81320000D01*
X139300000Y-88140000D02*
X139300000Y-81320000D01*
X137755000Y-86540000D02*
X137755000Y-85333333D01*
X137990000Y-88140000D02*
X139300000Y-88140000D01*
X136675000Y-86540000D02*
X136675000Y-85333333D01*
X135080000Y-81320000D02*
X136390000Y-81320000D01*
X134840000Y-88380000D02*
X134840000Y-86997000D01*
X136555000Y-82920000D02*
X136555000Y-86540000D01*
X136555000Y-86540000D02*
X137825000Y-86540000D01*
X137395000Y-86540000D02*
X137395000Y-85333333D01*
X137825000Y-82920000D02*
X136555000Y-82920000D01*
X136555000Y-85333333D02*
X137825000Y-85333333D01*
X137635000Y-86540000D02*
X137635000Y-85333333D01*
%TO.C,R10*%
X172172936Y-77505000D02*
X172627064Y-77505000D01*
X172172936Y-78975000D02*
X172627064Y-78975000D01*
%TO.C,R5*%
X170145000Y-102327064D02*
X170145000Y-101872936D01*
X171615000Y-102327064D02*
X171615000Y-101872936D01*
%TO.C,R8*%
X156767064Y-79225000D02*
X156312936Y-79225000D01*
X156767064Y-80695000D02*
X156312936Y-80695000D01*
%TO.C,R6*%
X172755000Y-102357064D02*
X172755000Y-101902936D01*
X174225000Y-102357064D02*
X174225000Y-101902936D01*
%TO.C,R13*%
X157387064Y-83995000D02*
X156932936Y-83995000D01*
X157387064Y-82525000D02*
X156932936Y-82525000D01*
%TO.C,J9*%
X197390000Y-97060000D02*
X197390000Y-87660000D01*
X191590000Y-87660000D02*
X193590000Y-87660000D01*
X195490000Y-87660000D02*
X197390000Y-87660000D01*
X191590000Y-97060000D02*
X193590000Y-97060000D01*
X195490000Y-97060000D02*
X197390000Y-97060000D01*
%TO.C,D1*%
X173117000Y-96845000D02*
X175802000Y-96845000D01*
X175802000Y-96845000D02*
X175802000Y-94925000D01*
X175802000Y-94925000D02*
X173117000Y-94925000D01*
%TO.C,SW1*%
X165270000Y-79655000D02*
X164063333Y-79655000D01*
X167110000Y-81850000D02*
X165727000Y-81850000D01*
X166870000Y-81610000D02*
X160050000Y-81610000D01*
X160050000Y-78700000D02*
X160050000Y-77390000D01*
X165270000Y-79055000D02*
X164063333Y-79055000D01*
X165270000Y-79415000D02*
X164063333Y-79415000D01*
X165270000Y-79775000D02*
X164063333Y-79775000D01*
X165270000Y-79535000D02*
X164063333Y-79535000D01*
X165270000Y-80135000D02*
X165270000Y-78865000D01*
X165270000Y-79175000D02*
X164063333Y-79175000D01*
X160050000Y-81610000D02*
X160050000Y-80300000D01*
X165270000Y-80015000D02*
X164063333Y-80015000D01*
X167110000Y-81850000D02*
X167110000Y-80467000D01*
X166870000Y-78700000D02*
X166870000Y-77390000D01*
X165270000Y-79295000D02*
X164063333Y-79295000D01*
X161650000Y-80135000D02*
X165270000Y-80135000D01*
X165270000Y-79895000D02*
X164063333Y-79895000D01*
X161650000Y-78865000D02*
X161650000Y-80135000D01*
X165270000Y-78935000D02*
X164063333Y-78935000D01*
X166870000Y-77390000D02*
X160050000Y-77390000D01*
X165270000Y-78865000D02*
X161650000Y-78865000D01*
X166870000Y-81610000D02*
X166870000Y-80300000D01*
X164063333Y-80135000D02*
X164063333Y-78865000D01*
%TO.C,C11*%
X149725748Y-82831000D02*
X150248252Y-82831000D01*
X149725748Y-84301000D02*
X150248252Y-84301000D01*
%TO.C,120R1*%
X140530378Y-98500000D02*
X141329622Y-98500000D01*
X140530378Y-99620000D02*
X141329622Y-99620000D01*
%TO.C,R7*%
X152172936Y-79275000D02*
X152627064Y-79275000D01*
X152172936Y-80745000D02*
X152627064Y-80745000D01*
%TO.C,C13*%
X158742748Y-99087000D02*
X159265252Y-99087000D01*
X158742748Y-100557000D02*
X159265252Y-100557000D01*
%TO.C,R2*%
X144065000Y-84817064D02*
X144065000Y-84362936D01*
X142595000Y-84817064D02*
X142595000Y-84362936D01*
%TO.C,U9*%
X130460000Y-120240000D02*
X145860000Y-120240000D01*
X145860000Y-120240000D02*
X145860000Y-110240000D01*
X145860000Y-110240000D02*
X130460000Y-110240000D01*
X130460000Y-110240000D02*
X130460000Y-120240000D01*
%TO.C,U1*%
X150068800Y-86685600D02*
X149118800Y-86685600D01*
X159338800Y-86685600D02*
X159338800Y-87635600D01*
X150068800Y-96905600D02*
X149118800Y-96905600D01*
X159338800Y-96905600D02*
X159338800Y-95955600D01*
X149118800Y-86685600D02*
X149118800Y-87635600D01*
X158388800Y-86685600D02*
X159338800Y-86685600D01*
X149118800Y-96905600D02*
X149118800Y-95955600D01*
X158388800Y-96905600D02*
X159338800Y-96905600D01*
X149118800Y-87635600D02*
X147778800Y-87635600D01*
%TO.C,C4*%
X139395000Y-91678748D02*
X139395000Y-92201252D01*
X137925000Y-91678748D02*
X137925000Y-92201252D01*
%TO.C,R9*%
X172092936Y-81385000D02*
X172547064Y-81385000D01*
X172092936Y-79915000D02*
X172547064Y-79915000D01*
%TO.C,U3*%
X114861150Y-85430000D02*
X124661150Y-85430000D01*
X124661150Y-85430000D02*
X124661150Y-110730000D01*
X124661150Y-110730000D02*
X114861150Y-110730000D01*
X114861150Y-110730000D02*
X114861150Y-85430000D01*
%TO.C,R4*%
X167595000Y-102287064D02*
X167595000Y-101832936D01*
X169065000Y-102287064D02*
X169065000Y-101832936D01*
%TO.C,C9*%
X145788748Y-99795000D02*
X146311252Y-99795000D01*
X145788748Y-98325000D02*
X146311252Y-98325000D01*
%TO.C,C5*%
X145135000Y-84328748D02*
X145135000Y-84851252D01*
X146605000Y-84328748D02*
X146605000Y-84851252D01*
%TO.C,R12*%
X172062936Y-84609000D02*
X172517064Y-84609000D01*
X172062936Y-86079000D02*
X172517064Y-86079000D01*
%TO.C,C1*%
X174251252Y-93445000D02*
X173728748Y-93445000D01*
X174251252Y-91975000D02*
X173728748Y-91975000D01*
%TO.C,C8*%
X144807000Y-94734748D02*
X144807000Y-95257252D01*
X146277000Y-94734748D02*
X146277000Y-95257252D01*
%TO.C,U5*%
X187900000Y-63910000D02*
X167500000Y-63910000D01*
X167500000Y-63910000D02*
X167500000Y-73710000D01*
X167500000Y-73710000D02*
X187900000Y-73710000D01*
X187900000Y-73710000D02*
X187900000Y-63910000D01*
%TO.C,C2*%
X167393252Y-95785000D02*
X166870748Y-95785000D01*
X167393252Y-97255000D02*
X166870748Y-97255000D01*
%TO.C,R3*%
X164945000Y-102287064D02*
X164945000Y-101832936D01*
X166415000Y-102287064D02*
X166415000Y-101832936D01*
%TO.C,U8*%
X176410000Y-120210000D02*
X196810000Y-120210000D01*
X196810000Y-120210000D02*
X196810000Y-110410000D01*
X196810000Y-110410000D02*
X176410000Y-110410000D01*
X176410000Y-110410000D02*
X176410000Y-120210000D01*
%TO.C,X1*%
X143700000Y-92000000D02*
X143160000Y-92000000D01*
X143160000Y-88400000D02*
X143700000Y-88400000D01*
X140730000Y-92000000D02*
X140730000Y-88400000D01*
X145700000Y-88400000D02*
X146130000Y-88400000D01*
X141160000Y-92250000D02*
X141160000Y-92000000D01*
X146130000Y-92000000D02*
X145700000Y-92000000D01*
X140730000Y-88400000D02*
X141160000Y-88400000D01*
X141160000Y-92000000D02*
X140730000Y-92000000D01*
X146130000Y-88400000D02*
X146130000Y-92000000D01*
X143160000Y-92000000D02*
X143160000Y-92250000D01*
%TD*%
%LPC*%
D12*
%TO.C,U10*%
X123430000Y-68210000D03*
X123430000Y-70710000D03*
X123430000Y-73210000D03*
X123430000Y-75710000D03*
X123430000Y-78210000D03*
X123430000Y-80710000D03*
D13*
X116630000Y-65010000D03*
X116630000Y-83910000D03*
%TD*%
D14*
%TO.C,U6*%
X146290000Y-72550000D03*
X143790000Y-72550000D03*
X141290000Y-72550000D03*
X138790000Y-72550000D03*
X136290000Y-72550000D03*
X133790000Y-72550000D03*
X131290000Y-72550000D03*
D15*
X149490000Y-65750000D03*
X128090000Y-65750000D03*
%TD*%
%TO.C,U7*%
X174110000Y-118440000D03*
X147710000Y-118440000D03*
D14*
X170910000Y-111640000D03*
X168410000Y-111640000D03*
X165910000Y-111640000D03*
X163410000Y-111640000D03*
X160910000Y-111640000D03*
X158410000Y-111640000D03*
X155910000Y-111640000D03*
X153410000Y-111640000D03*
X150910000Y-111640000D03*
%TD*%
D16*
%TO.C,C14*%
X152080000Y-101092000D03*
X150180000Y-101092000D03*
%TD*%
D17*
%TO.C,R1*%
X173204500Y-98552000D03*
X175029500Y-98552000D03*
%TD*%
%TO.C,R11*%
X171397500Y-83000000D03*
X173222500Y-83000000D03*
%TD*%
D18*
%TO.C,C12*%
X162306000Y-87818000D03*
X162306000Y-85918000D03*
%TD*%
D19*
%TO.C,U2*%
X165594000Y-94082000D03*
X167894000Y-94082000D03*
D20*
X167894000Y-87782000D03*
D19*
X170194000Y-94082000D03*
%TD*%
D21*
%TO.C,D2*%
X174927500Y-90170000D03*
X173052500Y-90170000D03*
%TD*%
D14*
%TO.C,U4*%
X162500000Y-72500000D03*
X160000000Y-72500000D03*
X157500000Y-72500000D03*
X155000000Y-72500000D03*
D15*
X165700000Y-65700000D03*
X151800000Y-65700000D03*
%TD*%
D22*
%TO.C,C10*%
X142560000Y-102135000D03*
X144460000Y-102135000D03*
%TD*%
D23*
%TO.C,SW2*%
X137190000Y-88095000D03*
X137190000Y-81365000D03*
%TD*%
D17*
%TO.C,R10*%
X171487500Y-78240000D03*
X173312500Y-78240000D03*
%TD*%
D24*
%TO.C,R5*%
X170880000Y-103012500D03*
X170880000Y-101187500D03*
%TD*%
D25*
%TO.C,R8*%
X157452500Y-79960000D03*
X155627500Y-79960000D03*
%TD*%
D24*
%TO.C,R6*%
X173490000Y-103042500D03*
X173490000Y-101217500D03*
%TD*%
D25*
%TO.C,R13*%
X158072500Y-83260000D03*
X156247500Y-83260000D03*
%TD*%
D26*
%TO.C,J9*%
X190890000Y-89470000D03*
X190890000Y-95250000D03*
D27*
X189445000Y-95610000D03*
X189445000Y-94810000D03*
D28*
X189445000Y-93610000D03*
X189445000Y-92610000D03*
X189445000Y-92110000D03*
X189445000Y-91110000D03*
D27*
X189445000Y-89910000D03*
X189445000Y-89110000D03*
X189445000Y-89110000D03*
X189445000Y-89910000D03*
D28*
X189445000Y-90610000D03*
X189445000Y-91610000D03*
X189445000Y-93110000D03*
X189445000Y-94110000D03*
D27*
X189445000Y-94810000D03*
X189445000Y-95610000D03*
D29*
X194540000Y-96680000D03*
D30*
X190360000Y-88040000D03*
D29*
X194540000Y-88040000D03*
D30*
X190360000Y-96680000D03*
%TD*%
D21*
%TO.C,D1*%
X175054500Y-95885000D03*
X173179500Y-95885000D03*
%TD*%
D31*
%TO.C,SW1*%
X166825000Y-79500000D03*
X160095000Y-79500000D03*
%TD*%
D22*
%TO.C,C11*%
X149037000Y-83566000D03*
X150937000Y-83566000D03*
%TD*%
D32*
%TO.C,120R1*%
X139867500Y-99060000D03*
X141992500Y-99060000D03*
%TD*%
D17*
%TO.C,R7*%
X151487500Y-80010000D03*
X153312500Y-80010000D03*
%TD*%
D22*
%TO.C,C13*%
X158054000Y-99822000D03*
X159954000Y-99822000D03*
%TD*%
D24*
%TO.C,R2*%
X143330000Y-85502500D03*
X143330000Y-83677500D03*
%TD*%
D14*
%TO.C,U9*%
X134460000Y-111640000D03*
X136960000Y-111640000D03*
X139460000Y-111640000D03*
X141960000Y-111640000D03*
D15*
X131260000Y-118440000D03*
X145160000Y-118440000D03*
%TD*%
D33*
%TO.C,U1*%
X148553800Y-88045600D03*
X148553800Y-88545600D03*
X148553800Y-89045600D03*
X148553800Y-89545600D03*
X148553800Y-90045600D03*
X148553800Y-90545600D03*
X148553800Y-91045600D03*
X148553800Y-91545600D03*
X148553800Y-92045600D03*
X148553800Y-92545600D03*
X148553800Y-93045600D03*
X148553800Y-93545600D03*
X148553800Y-94045600D03*
X148553800Y-94545600D03*
X148553800Y-95045600D03*
X148553800Y-95545600D03*
D34*
X150478800Y-97470600D03*
X150978800Y-97470600D03*
X151478800Y-97470600D03*
X151978800Y-97470600D03*
X152478800Y-97470600D03*
X152978800Y-97470600D03*
X153478800Y-97470600D03*
X153978800Y-97470600D03*
X154478800Y-97470600D03*
X154978800Y-97470600D03*
X155478800Y-97470600D03*
X155978800Y-97470600D03*
X156478800Y-97470600D03*
X156978800Y-97470600D03*
X157478800Y-97470600D03*
X157978800Y-97470600D03*
D33*
X159903800Y-95545600D03*
X159903800Y-95045600D03*
X159903800Y-94545600D03*
X159903800Y-94045600D03*
X159903800Y-93545600D03*
X159903800Y-93045600D03*
X159903800Y-92545600D03*
X159903800Y-92045600D03*
X159903800Y-91545600D03*
X159903800Y-91045600D03*
X159903800Y-90545600D03*
X159903800Y-90045600D03*
X159903800Y-89545600D03*
X159903800Y-89045600D03*
X159903800Y-88545600D03*
X159903800Y-88045600D03*
D34*
X157978800Y-86120600D03*
X157478800Y-86120600D03*
X156978800Y-86120600D03*
X156478800Y-86120600D03*
X155978800Y-86120600D03*
X155478800Y-86120600D03*
X154978800Y-86120600D03*
X154478800Y-86120600D03*
X153978800Y-86120600D03*
X153478800Y-86120600D03*
X152978800Y-86120600D03*
X152478800Y-86120600D03*
X151978800Y-86120600D03*
X151478800Y-86120600D03*
X150978800Y-86120600D03*
X150478800Y-86120600D03*
%TD*%
D35*
%TO.C,C4*%
X138660000Y-90990000D03*
X138660000Y-92890000D03*
%TD*%
D17*
%TO.C,R9*%
X171407500Y-80650000D03*
X173232500Y-80650000D03*
%TD*%
D36*
%TO.C,U3*%
X123461150Y-89330000D03*
X123461150Y-91830000D03*
X123461150Y-94330000D03*
X123461150Y-96830000D03*
X123461150Y-99330000D03*
X123461150Y-101830000D03*
X123461150Y-104330000D03*
X123461150Y-106830000D03*
D37*
X116611150Y-86130000D03*
D13*
X116661150Y-110030000D03*
%TD*%
D24*
%TO.C,R4*%
X168330000Y-102972500D03*
X168330000Y-101147500D03*
%TD*%
D22*
%TO.C,C9*%
X145100000Y-99060000D03*
X147000000Y-99060000D03*
%TD*%
D35*
%TO.C,C5*%
X145870000Y-83640000D03*
X145870000Y-85540000D03*
%TD*%
D17*
%TO.C,R12*%
X171377500Y-85344000D03*
X173202500Y-85344000D03*
%TD*%
D16*
%TO.C,C1*%
X174940000Y-92710000D03*
X173040000Y-92710000D03*
%TD*%
D35*
%TO.C,C8*%
X145542000Y-94046000D03*
X145542000Y-95946000D03*
%TD*%
D14*
%TO.C,U5*%
X183900000Y-72510000D03*
X181400000Y-72510000D03*
X178900000Y-72510000D03*
X176400000Y-72510000D03*
X173900000Y-72510000D03*
X171400000Y-72510000D03*
D15*
X187100000Y-65710000D03*
X168200000Y-65710000D03*
%TD*%
D16*
%TO.C,C2*%
X168082000Y-96520000D03*
X166182000Y-96520000D03*
%TD*%
D24*
%TO.C,R3*%
X165680000Y-102972500D03*
X165680000Y-101147500D03*
%TD*%
D14*
%TO.C,U8*%
X180410000Y-111610000D03*
X182910000Y-111610000D03*
X185410000Y-111610000D03*
X187910000Y-111610000D03*
X190410000Y-111610000D03*
X192910000Y-111610000D03*
D15*
X177210000Y-118410000D03*
X196110000Y-118410000D03*
%TD*%
D38*
%TO.C,X1*%
X142160000Y-91300000D03*
X144700000Y-91300000D03*
X144700000Y-89100000D03*
X142160000Y-89100000D03*
%TD*%
D39*
X158242000Y-78613000D03*
X160274000Y-86995000D03*
X143383000Y-82042000D03*
X168591500Y-80899000D03*
X177800000Y-96901000D03*
X149501675Y-85575325D03*
X142113000Y-108077000D03*
X148717000Y-80010000D03*
X167894000Y-83947000D03*
X158115000Y-101473000D03*
X148690000Y-75920000D03*
X142113000Y-87757000D03*
X138303000Y-104775000D03*
X132080000Y-88265000D03*
X175768000Y-86360000D03*
X147955000Y-86233000D03*
X142113000Y-83820000D03*
X170434000Y-97028000D03*
X156055000Y-75415000D03*
X162814000Y-84201000D03*
X143383000Y-80010000D03*
X172310000Y-75246500D03*
X158242000Y-78613000D03*
X153035000Y-95758000D03*
X136017000Y-90297000D03*
X180949334Y-94009591D03*
X180975000Y-90297000D03*
X145542000Y-95095500D03*
D40*
X186740000Y-95680000D03*
D39*
X146812000Y-91313000D03*
X147066000Y-97854500D03*
X172250500Y-78250000D03*
X181410000Y-76130000D03*
X159893000Y-98298000D03*
X178820000Y-109260000D03*
D40*
X186700000Y-89150000D03*
X187820000Y-88030000D03*
D39*
X162330000Y-75740000D03*
X147193000Y-101981000D03*
X138684000Y-94107000D03*
X137160000Y-89789000D03*
X164973000Y-96266000D03*
X172339000Y-94361000D03*
X145415000Y-82423000D03*
X128905000Y-68961000D03*
X170053000Y-85344000D03*
D40*
X187790000Y-96420000D03*
D39*
X131729000Y-75341000D03*
X183896000Y-76200000D03*
X171831000Y-97663000D03*
X134620000Y-105537000D03*
X159639000Y-82804000D03*
X151406675Y-87480325D03*
X163830000Y-85979000D03*
X149987000Y-93599000D03*
X170950000Y-108580000D03*
X153797000Y-82550000D03*
X153797000Y-84201000D03*
X155956000Y-105283000D03*
X148336000Y-105283000D03*
X155702000Y-104013000D03*
X148336000Y-104267000D03*
X153416000Y-103378000D03*
X149606000Y-103378000D03*
X162179000Y-91313000D03*
X160782000Y-104648000D03*
X161925000Y-90424000D03*
X162560000Y-104394000D03*
X163893500Y-104457500D03*
X161861500Y-89471500D03*
X151892000Y-82550000D03*
X144510000Y-75420000D03*
X152400000Y-78359000D03*
X154432000Y-78613000D03*
X138810000Y-75590000D03*
X141224000Y-85852000D03*
X136360000Y-75400000D03*
X140081000Y-85852000D03*
X146939000Y-81280000D03*
X154813000Y-84201000D03*
X154855540Y-102129270D03*
X132842000Y-90678000D03*
X153289000Y-101219000D03*
X131953000Y-93218000D03*
X155575000Y-99187000D03*
X134239000Y-94361000D03*
X130556000Y-98171000D03*
X130556000Y-94361000D03*
X155194000Y-100203000D03*
X135001000Y-100711000D03*
X154051000Y-101727000D03*
X137795000Y-102362000D03*
X138303000Y-97155000D03*
X149797500Y-97917000D03*
X129286000Y-74803000D03*
X129286000Y-80264000D03*
X147955000Y-96520000D03*
X133477000Y-89408000D03*
D40*
X183200000Y-91880000D03*
X185690000Y-92760000D03*
D39*
X177038000Y-83058000D03*
X181991000Y-83058000D03*
D40*
X187850000Y-90659500D03*
M02*
