%TF.GenerationSoftware,KiCad,Pcbnew,(6.0.11)*%
%TF.CreationDate,2023-02-10T10:35:54-08:00*%
%TF.ProjectId,EV1,4556312e-6b69-4636-9164-5f7063625858,rev?*%
%TF.SameCoordinates,Original*%
%TF.FileFunction,Copper,L1,Top*%
%TF.FilePolarity,Positive*%
%FSLAX46Y46*%
G04 Gerber Fmt 4.6, Leading zero omitted, Abs format (unit mm)*
G04 Created by KiCad (PCBNEW (6.0.11)) date 2023-02-10 10:35:54*
%MOMM*%
%LPD*%
G01*
G04 APERTURE LIST*
G04 Aperture macros list*
%AMRoundRect*
0 Rectangle with rounded corners*
0 $1 Rounding radius*
0 $2 $3 $4 $5 $6 $7 $8 $9 X,Y pos of 4 corners*
0 Add a 4 corners polygon primitive as box body*
4,1,4,$2,$3,$4,$5,$6,$7,$8,$9,$2,$3,0*
0 Add four circle primitives for the rounded corners*
1,1,$1+$1,$2,$3*
1,1,$1+$1,$4,$5*
1,1,$1+$1,$6,$7*
1,1,$1+$1,$8,$9*
0 Add four rect primitives between the rounded corners*
20,1,$1+$1,$2,$3,$4,$5,0*
20,1,$1+$1,$4,$5,$6,$7,0*
20,1,$1+$1,$6,$7,$8,$9,0*
20,1,$1+$1,$8,$9,$2,$3,0*%
G04 Aperture macros list end*
%TA.AperFunction,SMDPad,CuDef*%
%ADD10R,4.500000X1.300000*%
%TD*%
%TA.AperFunction,SMDPad,CuDef*%
%ADD11R,3.900000X1.800000*%
%TD*%
%TA.AperFunction,SMDPad,CuDef*%
%ADD12R,1.300000X4.500000*%
%TD*%
%TA.AperFunction,SMDPad,CuDef*%
%ADD13R,1.800000X3.900000*%
%TD*%
%TA.AperFunction,SMDPad,CuDef*%
%ADD14RoundRect,0.250000X0.250000X0.475000X-0.250000X0.475000X-0.250000X-0.475000X0.250000X-0.475000X0*%
%TD*%
%TA.AperFunction,SMDPad,CuDef*%
%ADD15RoundRect,0.250000X-0.262500X-0.450000X0.262500X-0.450000X0.262500X0.450000X-0.262500X0.450000X0*%
%TD*%
%TA.AperFunction,SMDPad,CuDef*%
%ADD16RoundRect,0.250000X0.475000X-0.250000X0.475000X0.250000X-0.475000X0.250000X-0.475000X-0.250000X0*%
%TD*%
%TA.AperFunction,SMDPad,CuDef*%
%ADD17R,1.500000X2.000000*%
%TD*%
%TA.AperFunction,SMDPad,CuDef*%
%ADD18R,3.800000X2.000000*%
%TD*%
%TA.AperFunction,SMDPad,CuDef*%
%ADD19RoundRect,0.243750X0.243750X0.456250X-0.243750X0.456250X-0.243750X-0.456250X0.243750X-0.456250X0*%
%TD*%
%TA.AperFunction,SMDPad,CuDef*%
%ADD20RoundRect,0.250000X-0.250000X-0.475000X0.250000X-0.475000X0.250000X0.475000X-0.250000X0.475000X0*%
%TD*%
%TA.AperFunction,SMDPad,CuDef*%
%ADD21R,1.120000X2.160000*%
%TD*%
%TA.AperFunction,SMDPad,CuDef*%
%ADD22RoundRect,0.250000X0.450000X-0.262500X0.450000X0.262500X-0.450000X0.262500X-0.450000X-0.262500X0*%
%TD*%
%TA.AperFunction,SMDPad,CuDef*%
%ADD23RoundRect,0.250000X0.262500X0.450000X-0.262500X0.450000X-0.262500X-0.450000X0.262500X-0.450000X0*%
%TD*%
%TA.AperFunction,SMDPad,CuDef*%
%ADD24R,1.450000X0.600000*%
%TD*%
%TA.AperFunction,SMDPad,CuDef*%
%ADD25R,1.450000X0.300000*%
%TD*%
%TA.AperFunction,ComponentPad*%
%ADD26O,1.600000X1.000000*%
%TD*%
%TA.AperFunction,ComponentPad*%
%ADD27O,2.100000X1.000000*%
%TD*%
%TA.AperFunction,SMDPad,CuDef*%
%ADD28R,2.160000X1.120000*%
%TD*%
%TA.AperFunction,SMDPad,CuDef*%
%ADD29RoundRect,0.218750X-0.218750X-0.381250X0.218750X-0.381250X0.218750X0.381250X-0.218750X0.381250X0*%
%TD*%
%TA.AperFunction,SMDPad,CuDef*%
%ADD30RoundRect,0.075000X-0.700000X-0.075000X0.700000X-0.075000X0.700000X0.075000X-0.700000X0.075000X0*%
%TD*%
%TA.AperFunction,SMDPad,CuDef*%
%ADD31RoundRect,0.075000X-0.075000X-0.700000X0.075000X-0.700000X0.075000X0.700000X-0.075000X0.700000X0*%
%TD*%
%TA.AperFunction,SMDPad,CuDef*%
%ADD32RoundRect,0.250000X-0.475000X0.250000X-0.475000X-0.250000X0.475000X-0.250000X0.475000X0.250000X0*%
%TD*%
%TA.AperFunction,SMDPad,CuDef*%
%ADD33R,4.495400X1.295400*%
%TD*%
%TA.AperFunction,SMDPad,CuDef*%
%ADD34R,3.800000X1.800000*%
%TD*%
%TA.AperFunction,SMDPad,CuDef*%
%ADD35R,1.600000X1.500000*%
%TD*%
%TA.AperFunction,ViaPad*%
%ADD36C,0.700000*%
%TD*%
%TA.AperFunction,ViaPad*%
%ADD37C,0.800000*%
%TD*%
%TA.AperFunction,Conductor*%
%ADD38C,0.500000*%
%TD*%
%TA.AperFunction,Conductor*%
%ADD39C,0.300000*%
%TD*%
%TA.AperFunction,Conductor*%
%ADD40C,0.250000*%
%TD*%
G04 APERTURE END LIST*
D10*
%TO.P,U10,1*%
%TO.N,GND*%
X123430000Y-68210000D03*
%TO.P,U10,2*%
X123430000Y-70710000D03*
%TO.P,U10,3*%
%TO.N,/USART2_TX*%
X123430000Y-73210000D03*
%TO.P,U10,4*%
%TO.N,/USART2_RX*%
X123430000Y-75710000D03*
%TO.P,U10,5*%
%TO.N,VBUS*%
X123430000Y-78210000D03*
%TO.P,U10,6*%
%TO.N,+3.3V*%
X123430000Y-80710000D03*
D11*
%TO.P,U10,7*%
%TO.N,N/C*%
X116630000Y-65010000D03*
%TO.P,U10,8*%
X116630000Y-83910000D03*
%TD*%
D12*
%TO.P,U6,1*%
%TO.N,+3.3V*%
X146290000Y-72550000D03*
%TO.P,U6,2*%
%TO.N,/BB_COLS_2*%
X143790000Y-72550000D03*
%TO.P,U6,3*%
%TO.N,/BB_COLS_3*%
X141290000Y-72550000D03*
%TO.P,U6,4*%
%TO.N,/BB_COLS_4*%
X138790000Y-72550000D03*
%TO.P,U6,5*%
%TO.N,/BB_COLS_5*%
X136290000Y-72550000D03*
%TO.P,U6,6*%
%TO.N,/BB_COLS_6*%
X133790000Y-72550000D03*
%TO.P,U6,7*%
%TO.N,GND*%
X131290000Y-72550000D03*
D13*
%TO.P,U6,8*%
%TO.N,N/C*%
X149490000Y-65750000D03*
%TO.P,U6,9*%
X128090000Y-65750000D03*
%TD*%
%TO.P,U7,11*%
%TO.N,N/C*%
X174110000Y-118440000D03*
%TO.P,U7,10*%
X147710000Y-118440000D03*
D12*
%TO.P,U7,9*%
%TO.N,GND*%
X170910000Y-111640000D03*
%TO.P,U7,8*%
%TO.N,/BB_ROW_8*%
X168410000Y-111640000D03*
%TO.P,U7,7*%
%TO.N,/BB_ROW_7*%
X165910000Y-111640000D03*
%TO.P,U7,6*%
%TO.N,/BB_ROW_6*%
X163410000Y-111640000D03*
%TO.P,U7,5*%
%TO.N,/BB_ROW_5*%
X160910000Y-111640000D03*
%TO.P,U7,4*%
%TO.N,/BB_ROW_4*%
X158410000Y-111640000D03*
%TO.P,U7,3*%
%TO.N,/BB_ROW_3*%
X155910000Y-111640000D03*
%TO.P,U7,2*%
%TO.N,/BB_ROW_2*%
X153410000Y-111640000D03*
%TO.P,U7,1*%
%TO.N,+3.3V*%
X150910000Y-111640000D03*
%TD*%
D14*
%TO.P,C14,1*%
%TO.N,+3.3V*%
X152080000Y-101092000D03*
%TO.P,C14,2*%
%TO.N,GND*%
X150180000Y-101092000D03*
%TD*%
D15*
%TO.P,R1,1*%
%TO.N,GND*%
X173204500Y-98552000D03*
%TO.P,R1,2*%
%TO.N,Net-(D1-Pad1)*%
X175029500Y-98552000D03*
%TD*%
%TO.P,R11,1*%
%TO.N,GND*%
X171397500Y-83000000D03*
%TO.P,R11,2*%
%TO.N,Net-(J9-PadB5)*%
X173222500Y-83000000D03*
%TD*%
D16*
%TO.P,C12,1*%
%TO.N,+3.3V*%
X162306000Y-87818000D03*
%TO.P,C12,2*%
%TO.N,GND*%
X162306000Y-85918000D03*
%TD*%
D17*
%TO.P,U2,1,GND*%
%TO.N,GND*%
X165594000Y-94082000D03*
%TO.P,U2,2,VO*%
%TO.N,+3.3V*%
X167894000Y-94082000D03*
D18*
X167894000Y-87782000D03*
D17*
%TO.P,U2,3,VI*%
%TO.N,Net-(D2-Pad2)*%
X170194000Y-94082000D03*
%TD*%
D19*
%TO.P,D2,1,K*%
%TO.N,VBUS*%
X174927500Y-90170000D03*
%TO.P,D2,2,A*%
%TO.N,Net-(D2-Pad2)*%
X173052500Y-90170000D03*
%TD*%
D12*
%TO.P,U4,1*%
%TO.N,GND*%
X162500000Y-72500000D03*
%TO.P,U4,2*%
%TO.N,/I2C_SCL*%
X160000000Y-72500000D03*
%TO.P,U4,3*%
%TO.N,/I2C_SDA*%
X157500000Y-72500000D03*
%TO.P,U4,4*%
%TO.N,+3.3V*%
X155000000Y-72500000D03*
D13*
%TO.P,U4,5*%
%TO.N,N/C*%
X165700000Y-65700000D03*
%TO.P,U4,6*%
X151800000Y-65700000D03*
%TD*%
D20*
%TO.P,C10,1*%
%TO.N,+3.3V*%
X142560000Y-102135000D03*
%TO.P,C10,2*%
%TO.N,GND*%
X144460000Y-102135000D03*
%TD*%
D21*
%TO.P,SW2,1,1*%
%TO.N,GND*%
X137190000Y-88095000D03*
%TO.P,SW2,2,2*%
%TO.N,/RESET*%
X137190000Y-81365000D03*
%TD*%
D15*
%TO.P,R10,1*%
%TO.N,GND*%
X171487500Y-78240000D03*
%TO.P,R10,2*%
%TO.N,Net-(J9-PadA7)*%
X173312500Y-78240000D03*
%TD*%
D22*
%TO.P,R5,1*%
%TO.N,/IO_PC8*%
X170880000Y-103012500D03*
%TO.P,R5,2*%
%TO.N,Net-(R5-Pad2)*%
X170880000Y-101187500D03*
%TD*%
D23*
%TO.P,R8,1*%
%TO.N,+3.3V*%
X157452500Y-79960000D03*
%TO.P,R8,2*%
%TO.N,/I2C_SCL*%
X155627500Y-79960000D03*
%TD*%
D22*
%TO.P,R6,1*%
%TO.N,/IO_PC9*%
X173490000Y-103042500D03*
%TO.P,R6,2*%
%TO.N,Net-(R6-Pad2)*%
X173490000Y-101217500D03*
%TD*%
D23*
%TO.P,R13,1*%
%TO.N,GND*%
X158072500Y-83260000D03*
%TO.P,R13,2*%
%TO.N,/BOOT0*%
X156247500Y-83260000D03*
%TD*%
D24*
%TO.P,J9,A1,GND*%
%TO.N,GND*%
X189445000Y-95610000D03*
%TO.P,J9,A4,VBUS*%
%TO.N,VBUS*%
X189445000Y-94810000D03*
D25*
%TO.P,J9,A5,CC1*%
%TO.N,Net-(J9-PadA5)*%
X189445000Y-93610000D03*
%TO.P,J9,A6,D+*%
%TO.N,Net-(J9-PadA6)*%
X189445000Y-92610000D03*
%TO.P,J9,A7,D-*%
%TO.N,Net-(J9-PadA7)*%
X189445000Y-92110000D03*
%TO.P,J9,A8,SBU1*%
%TO.N,unconnected-(J9-PadA8)*%
X189445000Y-91110000D03*
D24*
%TO.P,J9,A9,VBUS*%
%TO.N,VBUS*%
X189445000Y-89910000D03*
%TO.P,J9,A12,GND*%
%TO.N,GND*%
X189445000Y-89110000D03*
%TO.P,J9,B1,GND*%
X189445000Y-89110000D03*
%TO.P,J9,B4,VBUS*%
%TO.N,VBUS*%
X189445000Y-89910000D03*
D25*
%TO.P,J9,B5,CC2*%
%TO.N,Net-(J9-PadB5)*%
X189445000Y-90610000D03*
%TO.P,J9,B6,D+*%
%TO.N,Net-(J9-PadA6)*%
X189445000Y-91610000D03*
%TO.P,J9,B7,D-*%
%TO.N,Net-(J9-PadA7)*%
X189445000Y-93110000D03*
%TO.P,J9,B8,SBU2*%
%TO.N,unconnected-(J9-PadB8)*%
X189445000Y-94110000D03*
D24*
%TO.P,J9,B9,VBUS*%
%TO.N,VBUS*%
X189445000Y-94810000D03*
%TO.P,J9,B12,GND*%
%TO.N,GND*%
X189445000Y-95610000D03*
D26*
%TO.P,J9,S1,SHIELD*%
%TO.N,unconnected-(J9-PadS1)*%
X194540000Y-96680000D03*
D27*
X190360000Y-88040000D03*
D26*
X194540000Y-88040000D03*
D27*
X190360000Y-96680000D03*
%TD*%
D19*
%TO.P,D1,1,K*%
%TO.N,Net-(D1-Pad1)*%
X175054500Y-95885000D03*
%TO.P,D1,2,A*%
%TO.N,+3.3V*%
X173179500Y-95885000D03*
%TD*%
D28*
%TO.P,SW1,1,1*%
%TO.N,+3.3V*%
X166825000Y-79500000D03*
%TO.P,SW1,2,2*%
%TO.N,/BOOT0*%
X160095000Y-79500000D03*
%TD*%
D20*
%TO.P,C11,1*%
%TO.N,+3.3V*%
X149037000Y-83566000D03*
%TO.P,C11,2*%
%TO.N,GND*%
X150937000Y-83566000D03*
%TD*%
D29*
%TO.P,120R1,1*%
%TO.N,+3.3VA*%
X139867500Y-99060000D03*
%TO.P,120R1,2*%
%TO.N,+3.3V*%
X141992500Y-99060000D03*
%TD*%
D15*
%TO.P,R7,1*%
%TO.N,+3.3V*%
X151487500Y-80010000D03*
%TO.P,R7,2*%
%TO.N,/I2C_SDA*%
X153312500Y-80010000D03*
%TD*%
D20*
%TO.P,C13,1*%
%TO.N,+3.3V*%
X158054000Y-99822000D03*
%TO.P,C13,2*%
%TO.N,GND*%
X159954000Y-99822000D03*
%TD*%
D22*
%TO.P,R2,1*%
%TO.N,/RESET*%
X143330000Y-85502500D03*
%TO.P,R2,2*%
%TO.N,+3.3V*%
X143330000Y-83677500D03*
%TD*%
D12*
%TO.P,U9,1*%
%TO.N,GND*%
X134460000Y-111640000D03*
%TO.P,U9,2*%
%TO.N,/USART_3_TX*%
X136960000Y-111640000D03*
%TO.P,U9,3*%
%TO.N,/USART_3_RX*%
X139460000Y-111640000D03*
%TO.P,U9,4*%
%TO.N,+3.3V*%
X141960000Y-111640000D03*
D13*
%TO.P,U9,5*%
%TO.N,N/C*%
X131260000Y-118440000D03*
%TO.P,U9,6*%
X145160000Y-118440000D03*
%TD*%
D30*
%TO.P,U1,1,VBAT*%
%TO.N,unconnected-(U1-Pad1)*%
X148553800Y-88045600D03*
%TO.P,U1,2,PC13*%
%TO.N,unconnected-(U1-Pad2)*%
X148553800Y-88545600D03*
%TO.P,U1,3,PC14*%
%TO.N,/BB_COLS_4*%
X148553800Y-89045600D03*
%TO.P,U1,4,PC15*%
%TO.N,/BB_COLS_5*%
X148553800Y-89545600D03*
%TO.P,U1,5,PH0*%
%TO.N,/HSE_IN*%
X148553800Y-90045600D03*
%TO.P,U1,6,PH1*%
%TO.N,unconnected-(U1-Pad6)*%
X148553800Y-90545600D03*
%TO.P,U1,7,NRST*%
%TO.N,/RESET*%
X148553800Y-91045600D03*
%TO.P,U1,8,PC0*%
%TO.N,unconnected-(U1-Pad8)*%
X148553800Y-91545600D03*
%TO.P,U1,9,PC1*%
%TO.N,unconnected-(U1-Pad9)*%
X148553800Y-92045600D03*
%TO.P,U1,10,PC2*%
%TO.N,unconnected-(U1-Pad10)*%
X148553800Y-92545600D03*
%TO.P,U1,11,PC3*%
%TO.N,unconnected-(U1-Pad11)*%
X148553800Y-93045600D03*
%TO.P,U1,12,VSSA*%
%TO.N,GND*%
X148553800Y-93545600D03*
%TO.P,U1,13,VDDA*%
%TO.N,+3.3VA*%
X148553800Y-94045600D03*
%TO.P,U1,14,PA0*%
%TO.N,unconnected-(U1-Pad14)*%
X148553800Y-94545600D03*
%TO.P,U1,15,PA1*%
%TO.N,/CS_PA1*%
X148553800Y-95045600D03*
%TO.P,U1,16,PA2*%
%TO.N,/USART2_TX*%
X148553800Y-95545600D03*
D31*
%TO.P,U1,17,PA3*%
%TO.N,/USART2_RX*%
X150478800Y-97470600D03*
%TO.P,U1,18,VSS*%
%TO.N,GND*%
X150978800Y-97470600D03*
%TO.P,U1,19,VDD*%
%TO.N,+3.3V*%
X151478800Y-97470600D03*
%TO.P,U1,20,PA4*%
%TO.N,/BL_PA4*%
X151978800Y-97470600D03*
%TO.P,U1,21,PA5*%
%TO.N,/SCK_SPI*%
X152478800Y-97470600D03*
%TO.P,U1,22,PA6*%
%TO.N,/RST_PA6*%
X152978800Y-97470600D03*
%TO.P,U1,23,PA7*%
%TO.N,/MOSI_SPI*%
X153478800Y-97470600D03*
%TO.P,U1,24,PC4*%
%TO.N,unconnected-(U1-Pad24)*%
X153978800Y-97470600D03*
%TO.P,U1,25,PC5*%
%TO.N,unconnected-(U1-Pad25)*%
X154478800Y-97470600D03*
%TO.P,U1,26,PB0*%
%TO.N,/DC_PB0*%
X154978800Y-97470600D03*
%TO.P,U1,27,PB1*%
%TO.N,unconnected-(U1-Pad27)*%
X155478800Y-97470600D03*
%TO.P,U1,28,PB2*%
%TO.N,unconnected-(U1-Pad28)*%
X155978800Y-97470600D03*
%TO.P,U1,29,PB10*%
%TO.N,/USART_3_TX*%
X156478800Y-97470600D03*
%TO.P,U1,30,PB11*%
%TO.N,/USART_3_RX*%
X156978800Y-97470600D03*
%TO.P,U1,31,VCAP_1*%
%TO.N,unconnected-(U1-Pad31)*%
X157478800Y-97470600D03*
%TO.P,U1,32,VDD*%
%TO.N,+3.3V*%
X157978800Y-97470600D03*
D30*
%TO.P,U1,33,PB12*%
%TO.N,/BB_ROW_2*%
X159903800Y-95545600D03*
%TO.P,U1,34,PB13*%
%TO.N,/BB_ROW_3*%
X159903800Y-95045600D03*
%TO.P,U1,35,PB14*%
%TO.N,/BB_ROW_4*%
X159903800Y-94545600D03*
%TO.P,U1,36,PB15*%
%TO.N,/BB_ROW_5*%
X159903800Y-94045600D03*
%TO.P,U1,37,PC6*%
%TO.N,Net-(R3-Pad2)*%
X159903800Y-93545600D03*
%TO.P,U1,38,PC7*%
%TO.N,Net-(R4-Pad2)*%
X159903800Y-93045600D03*
%TO.P,U1,39,PC8*%
%TO.N,Net-(R5-Pad2)*%
X159903800Y-92545600D03*
%TO.P,U1,40,PC9*%
%TO.N,Net-(R6-Pad2)*%
X159903800Y-92045600D03*
%TO.P,U1,41,PA8*%
%TO.N,/BB_ROW_6*%
X159903800Y-91545600D03*
%TO.P,U1,42,PA9*%
%TO.N,/BB_ROW_7*%
X159903800Y-91045600D03*
%TO.P,U1,43,PA10*%
%TO.N,/BB_ROW_8*%
X159903800Y-90545600D03*
%TO.P,U1,44,PA11*%
%TO.N,/USB_D-*%
X159903800Y-90045600D03*
%TO.P,U1,45,PA12*%
%TO.N,/USB_D+*%
X159903800Y-89545600D03*
%TO.P,U1,46,PA13*%
%TO.N,/SWD_DIO*%
X159903800Y-89045600D03*
%TO.P,U1,47,VCAP_2*%
%TO.N,unconnected-(U1-Pad47)*%
X159903800Y-88545600D03*
%TO.P,U1,48,VDD*%
%TO.N,+3.3V*%
X159903800Y-88045600D03*
D31*
%TO.P,U1,49,PA14*%
%TO.N,/SWD_CLK*%
X157978800Y-86120600D03*
%TO.P,U1,50,PA15*%
%TO.N,unconnected-(U1-Pad50)*%
X157478800Y-86120600D03*
%TO.P,U1,51,PC10*%
%TO.N,unconnected-(U1-Pad51)*%
X156978800Y-86120600D03*
%TO.P,U1,52,PC11*%
%TO.N,unconnected-(U1-Pad52)*%
X156478800Y-86120600D03*
%TO.P,U1,53,PC12*%
%TO.N,unconnected-(U1-Pad53)*%
X155978800Y-86120600D03*
%TO.P,U1,54,PD2*%
%TO.N,unconnected-(U1-Pad54)*%
X155478800Y-86120600D03*
%TO.P,U1,55,PB3*%
%TO.N,unconnected-(U1-Pad55)*%
X154978800Y-86120600D03*
%TO.P,U1,56,PB4*%
%TO.N,unconnected-(U1-Pad56)*%
X154478800Y-86120600D03*
%TO.P,U1,57,PB5*%
%TO.N,/BB_COLS_6*%
X153978800Y-86120600D03*
%TO.P,U1,58,PB6*%
%TO.N,/I2C_SCL*%
X153478800Y-86120600D03*
%TO.P,U1,59,PB7*%
%TO.N,/I2C_SDA*%
X152978800Y-86120600D03*
%TO.P,U1,60,BOOT0*%
%TO.N,/BOOT0*%
X152478800Y-86120600D03*
%TO.P,U1,61,PB8*%
%TO.N,/BB_COLS_3*%
X151978800Y-86120600D03*
%TO.P,U1,62,PB9*%
%TO.N,/BB_COLS_2*%
X151478800Y-86120600D03*
%TO.P,U1,63,VSS*%
%TO.N,GND*%
X150978800Y-86120600D03*
%TO.P,U1,64,VDD*%
%TO.N,+3.3V*%
X150478800Y-86120600D03*
%TD*%
D32*
%TO.P,C4,1*%
%TO.N,+3.3V*%
X138660000Y-90990000D03*
%TO.P,C4,2*%
%TO.N,GND*%
X138660000Y-92890000D03*
%TD*%
D15*
%TO.P,R9,1*%
%TO.N,GND*%
X171407500Y-80650000D03*
%TO.P,R9,2*%
%TO.N,Net-(J9-PadA6)*%
X173232500Y-80650000D03*
%TD*%
D33*
%TO.P,U3,1*%
%TO.N,+3.3V*%
X123461150Y-89330000D03*
%TO.P,U3,2*%
%TO.N,/RST_PA6*%
X123461150Y-91830000D03*
%TO.P,U3,3*%
%TO.N,/BL_PA4*%
X123461150Y-94330000D03*
%TO.P,U3,4*%
%TO.N,/CS_PA1*%
X123461150Y-96830000D03*
%TO.P,U3,5*%
%TO.N,/DC_PB0*%
X123461150Y-99330000D03*
%TO.P,U3,6*%
%TO.N,/MOSI_SPI*%
X123461150Y-101830000D03*
%TO.P,U3,7*%
%TO.N,/SCK_SPI*%
X123461150Y-104330000D03*
%TO.P,U3,8*%
%TO.N,GND*%
X123461150Y-106830000D03*
D34*
%TO.P,U3,9*%
%TO.N,N/C*%
X116611150Y-86130000D03*
D11*
%TO.P,U3,10*%
X116661150Y-110030000D03*
%TD*%
D22*
%TO.P,R4,1*%
%TO.N,/IO_PC7*%
X168330000Y-102972500D03*
%TO.P,R4,2*%
%TO.N,Net-(R4-Pad2)*%
X168330000Y-101147500D03*
%TD*%
D20*
%TO.P,C9,1*%
%TO.N,+3.3VA*%
X145100000Y-99060000D03*
%TO.P,C9,2*%
%TO.N,GND*%
X147000000Y-99060000D03*
%TD*%
D32*
%TO.P,C5,1*%
%TO.N,GND*%
X145870000Y-83640000D03*
%TO.P,C5,2*%
%TO.N,/RESET*%
X145870000Y-85540000D03*
%TD*%
D15*
%TO.P,R12,1*%
%TO.N,GND*%
X171377500Y-85344000D03*
%TO.P,R12,2*%
%TO.N,Net-(J9-PadA5)*%
X173202500Y-85344000D03*
%TD*%
D14*
%TO.P,C1,1*%
%TO.N,VBUS*%
X174940000Y-92710000D03*
%TO.P,C1,2*%
%TO.N,GND*%
X173040000Y-92710000D03*
%TD*%
D32*
%TO.P,C8,1*%
%TO.N,+3.3VA*%
X145542000Y-94046000D03*
%TO.P,C8,2*%
%TO.N,GND*%
X145542000Y-95946000D03*
%TD*%
D12*
%TO.P,U5,1*%
%TO.N,GND*%
X183900000Y-72510000D03*
%TO.P,U5,2*%
X181400000Y-72510000D03*
%TO.P,U5,3*%
%TO.N,/RESET*%
X178900000Y-72510000D03*
%TO.P,U5,4*%
%TO.N,/SWD_DIO*%
X176400000Y-72510000D03*
%TO.P,U5,5*%
%TO.N,/SWD_CLK*%
X173900000Y-72510000D03*
%TO.P,U5,6*%
%TO.N,+3.3V*%
X171400000Y-72510000D03*
D13*
%TO.P,U5,7*%
%TO.N,N/C*%
X187100000Y-65710000D03*
%TO.P,U5,8*%
X168200000Y-65710000D03*
%TD*%
D14*
%TO.P,C2,1*%
%TO.N,+3.3V*%
X168082000Y-96520000D03*
%TO.P,C2,2*%
%TO.N,GND*%
X166182000Y-96520000D03*
%TD*%
D22*
%TO.P,R3,1*%
%TO.N,/IO_PC6*%
X165680000Y-102972500D03*
%TO.P,R3,2*%
%TO.N,Net-(R3-Pad2)*%
X165680000Y-101147500D03*
%TD*%
D12*
%TO.P,U8,1*%
%TO.N,GND*%
X180410000Y-111610000D03*
%TO.P,U8,2*%
%TO.N,/IO_PC6*%
X182910000Y-111610000D03*
%TO.P,U8,3*%
%TO.N,/IO_PC7*%
X185410000Y-111610000D03*
%TO.P,U8,4*%
%TO.N,/IO_PC8*%
X187910000Y-111610000D03*
%TO.P,U8,5*%
%TO.N,/IO_PC9*%
X190410000Y-111610000D03*
%TO.P,U8,6*%
%TO.N,+3.3V*%
X192910000Y-111610000D03*
D13*
%TO.P,U8,7*%
%TO.N,N/C*%
X177210000Y-118410000D03*
%TO.P,U8,8*%
X196110000Y-118410000D03*
%TD*%
D35*
%TO.P,X1,1,~{ST}*%
%TO.N,unconnected-(X1-Pad1)*%
X142160000Y-91300000D03*
%TO.P,X1,2,GND*%
%TO.N,GND*%
X144700000Y-91300000D03*
%TO.P,X1,3,OUT*%
%TO.N,/HSE_IN*%
X144700000Y-89100000D03*
%TO.P,X1,4,VCC*%
%TO.N,+3.3V*%
X142160000Y-89100000D03*
%TD*%
D36*
%TO.N,+3.3V*%
X158242000Y-78613000D03*
X160274000Y-86995000D03*
X143383000Y-82042000D03*
X168591500Y-80899000D03*
X177800000Y-96901000D03*
X149501675Y-85575325D03*
X142113000Y-108077000D03*
X148717000Y-80010000D03*
X167894000Y-83947000D03*
X158115000Y-101473000D03*
X148690000Y-75920000D03*
X142113000Y-87757000D03*
X138303000Y-104775000D03*
X132080000Y-88265000D03*
X175768000Y-86360000D03*
X147955000Y-86233000D03*
X142113000Y-83820000D03*
X170434000Y-97028000D03*
X156055000Y-75415000D03*
X162814000Y-84201000D03*
X143383000Y-80010000D03*
X172310000Y-75246500D03*
X158242000Y-78613000D03*
X153035000Y-95758000D03*
X136017000Y-90297000D03*
%TO.N,VBUS*%
X180949334Y-94009591D03*
X180975000Y-90297000D03*
%TO.N,GND*%
X145542000Y-95095500D03*
D37*
X186740000Y-95680000D03*
D36*
X146812000Y-91313000D03*
X147066000Y-97854500D03*
X172250500Y-78250000D03*
X181410000Y-76130000D03*
X159893000Y-98298000D03*
X178820000Y-109260000D03*
D37*
X186700000Y-89150000D03*
X187820000Y-88030000D03*
D36*
X162330000Y-75740000D03*
X147193000Y-101981000D03*
X138684000Y-94107000D03*
X137160000Y-89789000D03*
X164973000Y-96266000D03*
X172339000Y-94361000D03*
X145415000Y-82423000D03*
X128905000Y-68961000D03*
X170053000Y-85344000D03*
D37*
X187790000Y-96420000D03*
D36*
X131729000Y-75341000D03*
X183896000Y-76200000D03*
X171831000Y-97663000D03*
X134620000Y-105537000D03*
X159639000Y-82804000D03*
X151406675Y-87480325D03*
X163830000Y-85979000D03*
X149987000Y-93599000D03*
X170950000Y-108580000D03*
%TO.N,/I2C_SCL*%
X153797000Y-82550000D03*
X153797000Y-84201000D03*
%TO.N,/USART_3_RX*%
X155956000Y-105283000D03*
X148336000Y-105283000D03*
%TO.N,/USART_3_TX*%
X155702000Y-104013000D03*
X148336000Y-104267000D03*
%TO.N,/BB_ROW_3*%
X153416000Y-103378000D03*
X149606000Y-103378000D03*
%TO.N,/BB_ROW_6*%
X162179000Y-91313000D03*
X160782000Y-104648000D03*
%TO.N,/BB_ROW_7*%
X161925000Y-90424000D03*
X162560000Y-104394000D03*
%TO.N,/BB_ROW_8*%
X163893500Y-104457500D03*
X161861500Y-89471500D03*
%TO.N,/BB_COLS_2*%
X151892000Y-82550000D03*
X144510000Y-75420000D03*
%TO.N,/BB_COLS_3*%
X152400000Y-78359000D03*
X154432000Y-78613000D03*
%TO.N,/BB_COLS_4*%
X138810000Y-75590000D03*
X141224000Y-85852000D03*
%TO.N,/BB_COLS_5*%
X136360000Y-75400000D03*
X140081000Y-85852000D03*
%TO.N,/BB_COLS_6*%
X146939000Y-81280000D03*
X154813000Y-84201000D03*
%TO.N,/RST_PA6*%
X154855540Y-102129270D03*
X132842000Y-90678000D03*
%TO.N,/BL_PA4*%
X153289000Y-101219000D03*
X131953000Y-93218000D03*
%TO.N,/DC_PB0*%
X155575000Y-99187000D03*
X134239000Y-94361000D03*
X130556000Y-98171000D03*
X130556000Y-94361000D03*
%TO.N,/MOSI_SPI*%
X155194000Y-100203000D03*
X135001000Y-100711000D03*
%TO.N,/SCK_SPI*%
X154051000Y-101727000D03*
X137795000Y-102362000D03*
%TO.N,/USART2_RX*%
X138303000Y-97155000D03*
X149797500Y-97917000D03*
%TO.N,/USART2_TX*%
X129286000Y-74803000D03*
X129286000Y-80264000D03*
X147955000Y-96520000D03*
X133477000Y-89408000D03*
D37*
%TO.N,Net-(J9-PadA7)*%
X183200000Y-91880000D03*
X185690000Y-92760000D03*
D36*
%TO.N,Net-(J9-PadB5)*%
X177038000Y-83058000D03*
X181991000Y-83058000D03*
D37*
X187850000Y-90659500D03*
%TD*%
D38*
%TO.N,VBUS*%
X122750000Y-78890000D02*
X123430000Y-78210000D01*
X119911000Y-78890000D02*
X122750000Y-78890000D01*
X116410000Y-75389000D02*
X119911000Y-78890000D01*
X189680000Y-62210000D02*
X123180000Y-62210000D01*
X189680000Y-74734000D02*
X189680000Y-62210000D01*
X186690000Y-77724000D02*
X189680000Y-74734000D01*
X180975000Y-78486000D02*
X181737000Y-77724000D01*
X181737000Y-77724000D02*
X186690000Y-77724000D01*
X123180000Y-62210000D02*
X116410000Y-68980000D01*
X116410000Y-68980000D02*
X116410000Y-75389000D01*
X180975000Y-90297000D02*
X180975000Y-78486000D01*
D39*
%TO.N,/RESET*%
X178910000Y-76167000D02*
X178910000Y-73912500D01*
X179832000Y-77089000D02*
X178910000Y-76167000D01*
X186436000Y-77089000D02*
X179832000Y-77089000D01*
X132429000Y-64294000D02*
X133723000Y-63000000D01*
X188990000Y-74535000D02*
X186436000Y-77089000D01*
X132429000Y-76149000D02*
X132429000Y-64294000D01*
X135255000Y-78975000D02*
X132429000Y-76149000D01*
X135255000Y-79430000D02*
X135255000Y-78975000D01*
X133723000Y-63000000D02*
X188990000Y-63000000D01*
X188990000Y-63000000D02*
X188990000Y-74535000D01*
X137190000Y-81365000D02*
X135255000Y-79430000D01*
%TO.N,+3.3VA*%
X141177500Y-100330000D02*
X139907500Y-99060000D01*
X145542400Y-94045600D02*
X145542000Y-94046000D01*
X144526000Y-100330000D02*
X141177500Y-100330000D01*
X144272000Y-93980000D02*
X144018000Y-94234000D01*
X144018000Y-94234000D02*
X144018000Y-97978000D01*
X148553800Y-94045600D02*
X147677759Y-94045600D01*
X148553800Y-94045600D02*
X145542400Y-94045600D01*
X145100000Y-99756000D02*
X144526000Y-100330000D01*
X145100000Y-99060000D02*
X145100000Y-99756000D01*
X144018000Y-97978000D02*
X145100000Y-99060000D01*
X145542000Y-94046000D02*
X145476000Y-93980000D01*
X145476000Y-93980000D02*
X144272000Y-93980000D01*
%TO.N,+3.3V*%
X120740000Y-81390000D02*
X124110000Y-81390000D01*
X167894000Y-94082000D02*
X167894000Y-94488000D01*
D38*
X142560000Y-102135000D02*
X141063000Y-103632000D01*
D39*
X158242000Y-79170500D02*
X157452500Y-79960000D01*
D38*
X142160000Y-87804000D02*
X142113000Y-87757000D01*
D39*
X151478800Y-96583834D02*
X151478800Y-97470600D01*
X152042028Y-96162028D02*
X151900606Y-96162028D01*
X151478800Y-98656306D02*
X151420053Y-98715053D01*
X188468000Y-117652000D02*
X188468000Y-121000000D01*
D38*
X132080000Y-88265000D02*
X126955000Y-88265000D01*
D39*
X163068000Y-84201000D02*
X162814000Y-84201000D01*
X142113000Y-121433000D02*
X142113000Y-115824000D01*
D38*
X142113000Y-95631000D02*
X142113000Y-98979500D01*
X149501675Y-84030675D02*
X149037000Y-83566000D01*
D39*
X126880000Y-88190000D02*
X124601150Y-88190000D01*
D38*
X143187500Y-83820000D02*
X143330000Y-83677500D01*
D39*
X189341000Y-106441000D02*
X187340000Y-106441000D01*
D38*
X155000000Y-74360000D02*
X156055000Y-75415000D01*
X155000000Y-72500000D02*
X155000000Y-74360000D01*
D39*
X173052500Y-96012000D02*
X169824000Y-96012000D01*
X172310000Y-75246500D02*
X172310000Y-73420000D01*
D38*
X148717000Y-80010000D02*
X143383000Y-80010000D01*
D39*
X157978800Y-99746800D02*
X158054000Y-99822000D01*
X151900606Y-96162028D02*
X151478800Y-96583834D01*
X150478800Y-86120600D02*
X150478800Y-85200800D01*
X160274000Y-86995000D02*
X161483000Y-86995000D01*
X119709000Y-88190000D02*
X126880000Y-88190000D01*
D38*
X147820790Y-85732211D02*
X147955000Y-85866421D01*
D39*
X158054000Y-99822000D02*
X158054000Y-101412000D01*
D38*
X143383000Y-82042000D02*
X143383000Y-83624500D01*
D39*
X192910000Y-111610000D02*
X192910000Y-113210000D01*
D38*
X136398000Y-92964000D02*
X139065000Y-95631000D01*
D39*
X161102000Y-87818000D02*
X162306000Y-87818000D01*
X167894000Y-94488000D02*
X170434000Y-97028000D01*
X150910000Y-111640000D02*
X150910000Y-120938000D01*
D38*
X143383000Y-83624500D02*
X143330000Y-83677500D01*
D39*
X122670000Y-121760000D02*
X123090000Y-122180000D01*
X169824000Y-96012000D02*
X167894000Y-94082000D01*
X158242000Y-78613000D02*
X158242000Y-79170500D01*
X192910000Y-110010000D02*
X189341000Y-106441000D01*
X188468000Y-121000000D02*
X150972000Y-121000000D01*
X150910000Y-120938000D02*
X150972000Y-121000000D01*
X122670000Y-109680000D02*
X122670000Y-121760000D01*
D38*
X142113000Y-98979500D02*
X142032500Y-99060000D01*
D39*
X142113000Y-108077000D02*
X142113000Y-108014500D01*
X124110000Y-81390000D02*
X123430000Y-80710000D01*
D38*
X150046950Y-86120600D02*
X150378800Y-86120600D01*
D39*
X120870000Y-109200000D02*
X122190000Y-109200000D01*
X172310000Y-73420000D02*
X171400000Y-72510000D01*
X192910000Y-111610000D02*
X192910000Y-110010000D01*
X159903800Y-88045600D02*
X160874400Y-88045600D01*
D38*
X147955000Y-85866421D02*
X147955000Y-86233000D01*
X136710000Y-90990000D02*
X136017000Y-90297000D01*
X140550000Y-89100000D02*
X142160000Y-89100000D01*
D39*
X151420053Y-98715053D02*
X151420053Y-100432053D01*
D38*
X142113000Y-83820000D02*
X143187500Y-83820000D01*
D39*
X167894000Y-96332000D02*
X168082000Y-96520000D01*
D38*
X138118000Y-90990000D02*
X136398000Y-92710000D01*
X146290000Y-72550000D02*
X146290000Y-73520000D01*
D39*
X158054000Y-101412000D02*
X158115000Y-101473000D01*
X167894000Y-87782000D02*
X174346000Y-87782000D01*
X116270000Y-107380000D02*
X119050000Y-107380000D01*
D38*
X142160000Y-89100000D02*
X142160000Y-87804000D01*
D39*
X135757000Y-122180000D02*
X142113000Y-115824000D01*
X149098000Y-84836000D02*
X148971000Y-84709000D01*
X119709000Y-88190000D02*
X119709000Y-82421000D01*
X148971000Y-83632000D02*
X149037000Y-83566000D01*
D38*
X151487500Y-80010000D02*
X148717000Y-80010000D01*
X146678579Y-84590000D02*
X147820790Y-85732211D01*
X139065000Y-95631000D02*
X142113000Y-95631000D01*
D39*
X162342000Y-87782000D02*
X162306000Y-87818000D01*
X148971000Y-84709000D02*
X148971000Y-83632000D01*
X150972000Y-121000000D02*
X150372000Y-121600000D01*
D38*
X143330000Y-83677500D02*
X144242500Y-84590000D01*
D39*
X118364000Y-89535000D02*
X119709000Y-88190000D01*
D38*
X144242500Y-84590000D02*
X146678579Y-84590000D01*
D39*
X119709000Y-82421000D02*
X120740000Y-81390000D01*
X167894000Y-87782000D02*
X162342000Y-87782000D01*
X153035000Y-95758000D02*
X152446056Y-95758000D01*
X192910000Y-113210000D02*
X188468000Y-117652000D01*
D38*
X138660000Y-90990000D02*
X140550000Y-89100000D01*
X146290000Y-73520000D02*
X148690000Y-75920000D01*
D39*
X142280000Y-121600000D02*
X142113000Y-121433000D01*
X119050000Y-107380000D02*
X120870000Y-109200000D01*
X160874400Y-88045600D02*
X161102000Y-87818000D01*
X151478800Y-97470600D02*
X151478800Y-98656306D01*
X167894000Y-87782000D02*
X167894000Y-83947000D01*
X164313000Y-84201000D02*
X163068000Y-84201000D01*
X150478800Y-85200800D02*
X150114000Y-84836000D01*
D38*
X136398000Y-92710000D02*
X136398000Y-92964000D01*
D39*
X177800000Y-96901000D02*
X187340000Y-106441000D01*
X142113000Y-115824000D02*
X142113000Y-108077000D01*
X174346000Y-87782000D02*
X175768000Y-86360000D01*
X167894000Y-94082000D02*
X167894000Y-96332000D01*
D38*
X149501675Y-85575325D02*
X150046950Y-86120600D01*
D39*
X123090000Y-122180000D02*
X135757000Y-122180000D01*
X150114000Y-84836000D02*
X149098000Y-84836000D01*
D38*
X138660000Y-90990000D02*
X136710000Y-90990000D01*
X138660000Y-90990000D02*
X138118000Y-90990000D01*
D39*
X150372000Y-121600000D02*
X142280000Y-121600000D01*
X118364000Y-89535000D02*
X116270000Y-91629000D01*
X168224000Y-80899000D02*
X166825000Y-79500000D01*
X161483000Y-86995000D02*
X162306000Y-87818000D01*
X157978800Y-97470600D02*
X157978800Y-99746800D01*
D38*
X149501675Y-85575325D02*
X149501675Y-84030675D01*
D39*
X168591500Y-80899000D02*
X168224000Y-80899000D01*
X122190000Y-109200000D02*
X122670000Y-109680000D01*
D38*
X139446000Y-103632000D02*
X138303000Y-104775000D01*
D39*
X151420053Y-100432053D02*
X152080000Y-101092000D01*
X124601150Y-88190000D02*
X123461150Y-89330000D01*
X116270000Y-91629000D02*
X116270000Y-107380000D01*
X141960000Y-108167500D02*
X141960000Y-111640000D01*
X142113000Y-108014500D02*
X141960000Y-108167500D01*
X152446056Y-95758000D02*
X152042028Y-96162028D01*
D38*
X141063000Y-103632000D02*
X139446000Y-103632000D01*
D39*
X167894000Y-94082000D02*
X167894000Y-87782000D01*
X167894000Y-87782000D02*
X164313000Y-84201000D01*
%TO.N,VBUS*%
X190191556Y-94810000D02*
X189445000Y-94810000D01*
X177710000Y-93890000D02*
X176530000Y-92710000D01*
X180949334Y-93827334D02*
X177292000Y-90170000D01*
X177292000Y-90170000D02*
X174927500Y-90170000D01*
X189445000Y-89910000D02*
X190191556Y-89910000D01*
X186510000Y-90890000D02*
X187490000Y-89910000D01*
X185000000Y-94280000D02*
X188200000Y-94280000D01*
X190191556Y-89910000D02*
X191970000Y-91688444D01*
X181568000Y-90890000D02*
X186510000Y-90890000D01*
X191970000Y-93031556D02*
X190191556Y-94810000D01*
X180829743Y-93890000D02*
X180949334Y-94009591D01*
X180949334Y-94009591D02*
X184729591Y-94009591D01*
X180949334Y-94009591D02*
X180949334Y-93827334D01*
X177710000Y-93890000D02*
X180829743Y-93890000D01*
X188200000Y-94280000D02*
X188710000Y-94790000D01*
X184729591Y-94009591D02*
X185000000Y-94280000D01*
X187490000Y-89910000D02*
X189445000Y-89910000D01*
X191970000Y-91688444D02*
X191970000Y-93031556D01*
X180975000Y-90297000D02*
X181568000Y-90890000D01*
X176530000Y-92710000D02*
X174940000Y-92710000D01*
D38*
%TO.N,GND*%
X171377500Y-85344000D02*
X170053000Y-85344000D01*
D39*
X138660000Y-92890000D02*
X144092000Y-92890000D01*
D38*
X188900000Y-89110000D02*
X187820000Y-88030000D01*
D40*
X181400000Y-76120000D02*
X181410000Y-76130000D01*
D38*
X171487500Y-80570000D02*
X171407500Y-80650000D01*
D39*
X149933600Y-93545600D02*
X149987000Y-93599000D01*
D38*
X162330000Y-75740000D02*
X162560000Y-75510000D01*
X134640000Y-105557000D02*
X134620000Y-105537000D01*
X134640000Y-107987500D02*
X134460000Y-108167500D01*
X172720000Y-98552000D02*
X171831000Y-97663000D01*
X183910000Y-73912500D02*
X183910000Y-76186000D01*
X134467000Y-105690000D02*
X134620000Y-105537000D01*
X137190000Y-88095000D02*
X137190000Y-89759000D01*
X134640000Y-107987500D02*
X134640000Y-105557000D01*
D39*
X150937000Y-83566000D02*
X151191000Y-83312000D01*
D38*
X128834000Y-68890000D02*
X128905000Y-68961000D01*
X145542000Y-95946000D02*
X145542000Y-95095500D01*
D39*
X150937000Y-84945400D02*
X150937000Y-83566000D01*
X138660000Y-92890000D02*
X138660000Y-94083000D01*
D38*
X124350000Y-70710000D02*
X123430000Y-70710000D01*
X131729000Y-75341000D02*
X131290000Y-74902000D01*
X156591000Y-94361000D02*
X152994528Y-94361000D01*
X123430000Y-68210000D02*
X125552500Y-68210000D01*
D39*
X150368000Y-98806000D02*
X150180000Y-98994000D01*
D38*
X173040000Y-93660000D02*
X172339000Y-94361000D01*
D39*
X144780000Y-92202000D02*
X144780000Y-91380000D01*
D38*
X147039000Y-102135000D02*
X147193000Y-101981000D01*
X147000000Y-99060000D02*
X147000000Y-97920500D01*
X165594000Y-95645000D02*
X164973000Y-96266000D01*
X171487500Y-78240000D02*
X172240500Y-78240000D01*
X181410000Y-73912500D02*
X183910000Y-73912500D01*
X147000000Y-97920500D02*
X147066000Y-97854500D01*
X171397500Y-85324000D02*
X171377500Y-85344000D01*
X145870000Y-82878000D02*
X145415000Y-82423000D01*
D40*
X181400000Y-72510000D02*
X181400000Y-76120000D01*
X181400000Y-72510000D02*
X183900000Y-72510000D01*
D39*
X148553800Y-93545600D02*
X149933600Y-93545600D01*
D38*
X171407500Y-80650000D02*
X171407500Y-82990000D01*
X170910000Y-111640000D02*
X170910000Y-108620000D01*
X159893000Y-98298000D02*
X159893000Y-97663000D01*
D39*
X138660000Y-94083000D02*
X138684000Y-94107000D01*
D38*
X165594000Y-94082000D02*
X165594000Y-95645000D01*
D39*
X150978800Y-86120600D02*
X150978800Y-87052450D01*
X150978800Y-86120600D02*
X150978800Y-84987200D01*
D38*
X186740000Y-95680000D02*
X189375000Y-95680000D01*
X171487500Y-78240000D02*
X171487500Y-80570000D01*
X188600000Y-95610000D02*
X187790000Y-96420000D01*
X186740000Y-89110000D02*
X186700000Y-89150000D01*
X165227000Y-96520000D02*
X164973000Y-96266000D01*
X189445000Y-89110000D02*
X186740000Y-89110000D01*
D39*
X150978800Y-97470600D02*
X150978800Y-96376728D01*
X150622000Y-98806000D02*
X150368000Y-98806000D01*
D38*
X178820000Y-110020000D02*
X180410000Y-111610000D01*
X173204500Y-98552000D02*
X172720000Y-98552000D01*
D39*
X150978800Y-98449200D02*
X150622000Y-98806000D01*
D38*
X126880000Y-105690000D02*
X134467000Y-105690000D01*
X134460000Y-108167500D02*
X134460000Y-111640000D01*
D39*
X150978800Y-87052450D02*
X151406675Y-87480325D01*
D38*
X189375000Y-95680000D02*
X189445000Y-95610000D01*
X166182000Y-96520000D02*
X165227000Y-96520000D01*
X159893000Y-97663000D02*
X156591000Y-94361000D01*
X171397500Y-83000000D02*
X171397500Y-85324000D01*
D39*
X144700000Y-91300000D02*
X146799000Y-91300000D01*
D38*
X125740000Y-106830000D02*
X123461150Y-106830000D01*
X170910000Y-108620000D02*
X170950000Y-108580000D01*
X145870000Y-83640000D02*
X145870000Y-82878000D01*
X159183000Y-83260000D02*
X159639000Y-82804000D01*
X144460000Y-102135000D02*
X147039000Y-102135000D01*
X162560000Y-75510000D02*
X162560000Y-72560000D01*
X125552500Y-68210000D02*
X126232500Y-68890000D01*
X162306000Y-85918000D02*
X163769000Y-85918000D01*
X173040000Y-92710000D02*
X173040000Y-93660000D01*
X159954000Y-99822000D02*
X159954000Y-98359000D01*
D39*
X144780000Y-91380000D02*
X144700000Y-91300000D01*
D38*
X189445000Y-89110000D02*
X188900000Y-89110000D01*
X158072500Y-83260000D02*
X159183000Y-83260000D01*
D39*
X146799000Y-91300000D02*
X146812000Y-91313000D01*
D38*
X163769000Y-85918000D02*
X163830000Y-85979000D01*
X131290000Y-74902000D02*
X131290000Y-72550000D01*
X189445000Y-95610000D02*
X188600000Y-95610000D01*
X137190000Y-89759000D02*
X137160000Y-89789000D01*
D39*
X150978800Y-84987200D02*
X150937000Y-84945400D01*
D38*
X172240500Y-78240000D02*
X172250500Y-78250000D01*
D39*
X150978800Y-96376728D02*
X152994528Y-94361000D01*
D38*
X171407500Y-82990000D02*
X171397500Y-83000000D01*
X178820000Y-109260000D02*
X178820000Y-110020000D01*
X126880000Y-105690000D02*
X125740000Y-106830000D01*
X159954000Y-98359000D02*
X159893000Y-98298000D01*
X126232500Y-68890000D02*
X128834000Y-68890000D01*
D39*
X150978800Y-97470600D02*
X150978800Y-98449200D01*
D38*
X162560000Y-72560000D02*
X162500000Y-72500000D01*
D39*
X144092000Y-92890000D02*
X144780000Y-92202000D01*
D38*
X183910000Y-76186000D02*
X183896000Y-76200000D01*
X126232500Y-68890000D02*
X126232500Y-68827500D01*
D39*
X150180000Y-98994000D02*
X150180000Y-101092000D01*
D38*
X126232500Y-68827500D02*
X124350000Y-70710000D01*
D39*
%TO.N,/RESET*%
X143367500Y-85540000D02*
X143330000Y-85502500D01*
X143330000Y-85502500D02*
X142144500Y-85502500D01*
X140462000Y-83820000D02*
X140462000Y-81026000D01*
X146011359Y-85540000D02*
X145870000Y-85540000D01*
X140462000Y-81026000D02*
X140208000Y-80772000D01*
X147847359Y-87376000D02*
X146011359Y-85540000D01*
X137783000Y-80772000D02*
X137190000Y-81365000D01*
X148553800Y-91045600D02*
X149492400Y-91045600D01*
X149606000Y-87376000D02*
X147847359Y-87376000D01*
X145870000Y-85540000D02*
X143367500Y-85540000D01*
X149860000Y-90678000D02*
X149860000Y-87630000D01*
X140208000Y-80772000D02*
X137783000Y-80772000D01*
X149492400Y-91045600D02*
X149860000Y-90678000D01*
X142144500Y-85502500D02*
X140462000Y-83820000D01*
X149860000Y-87630000D02*
X149606000Y-87376000D01*
%TO.N,Net-(D1-Pad1)*%
X176657000Y-96393000D02*
X176657000Y-98171000D01*
X175156500Y-98679000D02*
X175029500Y-98552000D01*
X176149000Y-98679000D02*
X175156500Y-98679000D01*
X176276000Y-96012000D02*
X176657000Y-96393000D01*
X176657000Y-98171000D02*
X176149000Y-98679000D01*
X175054500Y-96012000D02*
X176276000Y-96012000D01*
%TO.N,Net-(D2-Pad2)*%
X170194000Y-93028500D02*
X173052500Y-90170000D01*
X170194000Y-94082000D02*
X170194000Y-93028500D01*
%TO.N,/I2C_SCL*%
X153478800Y-85244559D02*
X153416000Y-85181759D01*
X153416000Y-84582000D02*
X153797000Y-84201000D01*
X155627500Y-80719500D02*
X155627500Y-79960000D01*
X153478800Y-86120600D02*
X153478800Y-85244559D01*
X153797000Y-82550000D02*
X155627500Y-80719500D01*
X160000000Y-72500000D02*
X160000000Y-75297500D01*
X155627500Y-79670000D02*
X155627500Y-79960000D01*
X160000000Y-75297500D02*
X155627500Y-79670000D01*
X153416000Y-85181759D02*
X153416000Y-84582000D01*
%TO.N,/I2C_SDA*%
X153312500Y-77700500D02*
X153312500Y-80010000D01*
X153416000Y-77597000D02*
X153312500Y-77700500D01*
X148336000Y-81788000D02*
X152527000Y-81788000D01*
X151710441Y-88265000D02*
X151202107Y-88265000D01*
X152978800Y-86120600D02*
X152978800Y-86996641D01*
X157500000Y-72500000D02*
X157500000Y-75470000D01*
X157500000Y-75470000D02*
X155373000Y-77597000D01*
X152978800Y-86996641D02*
X151710441Y-88265000D01*
X147701000Y-84763893D02*
X147701000Y-82423000D01*
X147701000Y-82423000D02*
X148336000Y-81788000D01*
X155373000Y-77597000D02*
X153416000Y-77597000D01*
X151202107Y-88265000D02*
X147701000Y-84763893D01*
X152527000Y-81788000D02*
X153312500Y-81002500D01*
X153312500Y-81002500D02*
X153312500Y-80010000D01*
%TO.N,/USART_3_RX*%
X156978800Y-97470600D02*
X156978800Y-104260200D01*
X148336000Y-105283000D02*
X142344500Y-105283000D01*
X142344500Y-105283000D02*
X139460000Y-108167500D01*
X139460000Y-108167500D02*
X139460000Y-111640000D01*
X156978800Y-104260200D02*
X155956000Y-105283000D01*
%TO.N,/USART_3_TX*%
X156478800Y-97470600D02*
X156478800Y-103236200D01*
X136960000Y-108167500D02*
X136960000Y-111640000D01*
X156478800Y-103236200D02*
X155702000Y-104013000D01*
X148336000Y-104267000D02*
X140860500Y-104267000D01*
X140860500Y-104267000D02*
X136960000Y-108167500D01*
%TO.N,/BB_ROW_2*%
X159903800Y-95545600D02*
X158820653Y-95545600D01*
X149895950Y-102678000D02*
X150890000Y-103672050D01*
X149098000Y-102108000D02*
X149668000Y-102678000D01*
X156104053Y-92829000D02*
X153678000Y-92829000D01*
X150890000Y-105180000D02*
X153410000Y-107700000D01*
X149098000Y-97409000D02*
X149098000Y-102108000D01*
X153678000Y-92829000D02*
X149098000Y-97409000D01*
X153410000Y-107700000D02*
X153410000Y-111640000D01*
X158820653Y-95545600D02*
X156104053Y-92829000D01*
X149668000Y-102678000D02*
X149895950Y-102678000D01*
X150890000Y-103672050D02*
X150890000Y-105180000D01*
%TO.N,/BB_ROW_3*%
X153390000Y-106300000D02*
X155910000Y-108820000D01*
X148590000Y-102362000D02*
X149606000Y-103378000D01*
X159903800Y-95045600D02*
X159027759Y-95045600D01*
X159027759Y-95045600D02*
X156311159Y-92329000D01*
X156311159Y-92329000D02*
X153470893Y-92329000D01*
X155910000Y-108820000D02*
X155910000Y-111640000D01*
X153416000Y-103378000D02*
X153390000Y-103404000D01*
X153390000Y-103404000D02*
X153390000Y-106300000D01*
X148590000Y-97209893D02*
X148590000Y-102362000D01*
X153470893Y-92329000D02*
X148590000Y-97209893D01*
%TO.N,/BB_ROW_4*%
X156870000Y-107950000D02*
X158250000Y-107950000D01*
X159903800Y-94545600D02*
X160966600Y-94545600D01*
X158250000Y-107950000D02*
X158410000Y-108110000D01*
X155890000Y-106619000D02*
X155890000Y-106970000D01*
X161290000Y-101219000D02*
X155890000Y-106619000D01*
X155890000Y-106970000D02*
X156870000Y-107950000D01*
X160966600Y-94545600D02*
X161290000Y-94869000D01*
X158410000Y-108110000D02*
X158410000Y-111640000D01*
X161290000Y-94869000D02*
X161290000Y-101219000D01*
%TO.N,/BB_ROW_5*%
X158020000Y-106500000D02*
X159120000Y-107600000D01*
X158020000Y-105420000D02*
X158020000Y-106500000D01*
X161482600Y-94045600D02*
X161790000Y-94353000D01*
X160910000Y-107610000D02*
X160910000Y-111640000D01*
X158369000Y-105029000D02*
X158390000Y-105050000D01*
X161790000Y-94353000D02*
X161790000Y-101608000D01*
X160900000Y-107600000D02*
X160910000Y-107610000D01*
X158390000Y-105050000D02*
X158020000Y-105420000D01*
X159120000Y-107600000D02*
X160900000Y-107600000D01*
X161790000Y-101608000D02*
X158369000Y-105029000D01*
X159903800Y-94045600D02*
X161482600Y-94045600D01*
%TO.N,/BB_ROW_6*%
X160782000Y-104648000D02*
X162330000Y-106196000D01*
X162740000Y-108760000D02*
X163250000Y-108760000D01*
X161946400Y-91545600D02*
X162179000Y-91313000D01*
X159903800Y-91545600D02*
X161946400Y-91545600D01*
X163250000Y-108760000D02*
X163410000Y-108920000D01*
X162330000Y-108350000D02*
X162740000Y-108760000D01*
X163410000Y-108920000D02*
X163410000Y-111640000D01*
X162330000Y-106196000D02*
X162330000Y-108350000D01*
%TO.N,/BB_ROW_7*%
X165910000Y-109040000D02*
X165910000Y-111640000D01*
X162941000Y-104775000D02*
X162941000Y-107823000D01*
X162941000Y-107823000D02*
X163218000Y-108100000D01*
X159903800Y-91045600D02*
X161303400Y-91045600D01*
X163218000Y-108100000D02*
X164970000Y-108100000D01*
X164970000Y-108100000D02*
X165910000Y-109040000D01*
X162560000Y-104394000D02*
X162941000Y-104775000D01*
X161303400Y-91045600D02*
X161925000Y-90424000D01*
%TO.N,/BB_ROW_8*%
X160787400Y-90545600D02*
X161861500Y-89471500D01*
X163893500Y-104457500D02*
X168410000Y-108974000D01*
X168410000Y-108974000D02*
X168410000Y-111640000D01*
X159903800Y-90545600D02*
X160787400Y-90545600D01*
%TO.N,/BB_COLS_2*%
X144510000Y-73270000D02*
X143790000Y-72550000D01*
X151892000Y-84201000D02*
X151892000Y-82550000D01*
X151478800Y-84614200D02*
X151892000Y-84201000D01*
X151478800Y-86120600D02*
X151478800Y-84614200D01*
X144510000Y-75420000D02*
X144510000Y-73270000D01*
%TO.N,/BB_COLS_3*%
X152146000Y-78613000D02*
X144145000Y-78613000D01*
X152400000Y-84455000D02*
X152400000Y-83536950D01*
X144145000Y-78613000D02*
X143690000Y-78158000D01*
X151978800Y-86120600D02*
X151978800Y-84876200D01*
X151978800Y-84876200D02*
X152400000Y-84455000D01*
X143690000Y-75920000D02*
X143410000Y-75640000D01*
X141590000Y-75640000D02*
X141290000Y-75340000D01*
X154432000Y-80772000D02*
X154432000Y-78613000D01*
X141290000Y-75340000D02*
X141290000Y-72550000D01*
X152908000Y-83028950D02*
X152908000Y-82296000D01*
X143690000Y-78158000D02*
X143690000Y-75920000D01*
X152400000Y-83536950D02*
X152908000Y-83028950D01*
X152908000Y-82296000D02*
X154432000Y-80772000D01*
X143410000Y-75640000D02*
X141590000Y-75640000D01*
X152400000Y-78359000D02*
X152146000Y-78613000D01*
%TO.N,/BB_COLS_4*%
X141737000Y-86365000D02*
X141224000Y-85852000D01*
X148553800Y-89045600D02*
X147677759Y-89045600D01*
X144997159Y-86365000D02*
X141737000Y-86365000D01*
X147677759Y-89045600D02*
X144997159Y-86365000D01*
X138810000Y-75590000D02*
X138790000Y-75570000D01*
X138790000Y-75570000D02*
X138790000Y-72550000D01*
%TO.N,/BB_COLS_5*%
X147402706Y-89545600D02*
X144725106Y-86868000D01*
X136360000Y-72620000D02*
X136290000Y-72550000D01*
X136360000Y-75400000D02*
X136360000Y-72620000D01*
X140589000Y-86868000D02*
X140081000Y-86360000D01*
X140081000Y-86360000D02*
X140081000Y-85852000D01*
X144725106Y-86868000D02*
X140589000Y-86868000D01*
X148553800Y-89545600D02*
X147402706Y-89545600D01*
%TO.N,/BB_COLS_6*%
X146939000Y-81280000D02*
X141605000Y-81280000D01*
X141605000Y-81280000D02*
X139573000Y-79248000D01*
X139573000Y-79248000D02*
X136525000Y-79248000D01*
X133790000Y-76513000D02*
X133790000Y-72550000D01*
X154813000Y-84410359D02*
X154813000Y-84201000D01*
X136525000Y-79248000D02*
X133790000Y-76513000D01*
X153978800Y-85244559D02*
X154813000Y-84410359D01*
X153978800Y-86120600D02*
X153978800Y-85244559D01*
%TO.N,/RST_PA6*%
X152978800Y-98282427D02*
X152978800Y-98346641D01*
X152978800Y-98876800D02*
X153051000Y-98949000D01*
X124601150Y-90690000D02*
X123461150Y-91830000D01*
X154178000Y-100058788D02*
X154178000Y-100330000D01*
X154813000Y-102108000D02*
X154834270Y-102108000D01*
X132842000Y-90678000D02*
X132830000Y-90690000D01*
X154813000Y-100965000D02*
X154813000Y-102108000D01*
X152978800Y-97470600D02*
X152978800Y-98876800D01*
X152978800Y-97470600D02*
X152978800Y-98241800D01*
X153068212Y-98949000D02*
X154178000Y-100058788D01*
X132830000Y-90690000D02*
X124601150Y-90690000D01*
X152978800Y-98241800D02*
X152978800Y-98282427D01*
X154834270Y-102108000D02*
X154855540Y-102129270D01*
X154178000Y-100330000D02*
X154813000Y-100965000D01*
X153051000Y-98949000D02*
X153068212Y-98949000D01*
%TO.N,/BL_PA4*%
X151978800Y-99908800D02*
X152019000Y-99949000D01*
X131953000Y-93218000D02*
X131925000Y-93190000D01*
X151978800Y-97470600D02*
X151978800Y-99908800D01*
X152019000Y-99949000D02*
X152654000Y-99949000D01*
X124601150Y-93190000D02*
X123461150Y-94330000D01*
X131925000Y-93190000D02*
X124601150Y-93190000D01*
X152654000Y-99949000D02*
X153162000Y-100457000D01*
X153162000Y-100457000D02*
X153162000Y-101092000D01*
X153162000Y-101092000D02*
X153289000Y-101219000D01*
%TO.N,/CS_PA1*%
X144903528Y-100830000D02*
X139692000Y-100830000D01*
X148553800Y-95045600D02*
X147018872Y-95045600D01*
X124601150Y-95690000D02*
X123461150Y-96830000D01*
X139692000Y-100830000D02*
X134552000Y-95690000D01*
X147018872Y-96042656D02*
X145950000Y-97111528D01*
X147018872Y-95045600D02*
X147018872Y-96042656D01*
X134552000Y-95690000D02*
X124601150Y-95690000D01*
X145950000Y-99783528D02*
X144903528Y-100830000D01*
X145950000Y-97111528D02*
X145950000Y-99783528D01*
%TO.N,/DC_PB0*%
X134239000Y-94361000D02*
X130556000Y-94361000D01*
X154978800Y-97470600D02*
X154978800Y-98590800D01*
X154978800Y-98590800D02*
X155575000Y-99187000D01*
X130556000Y-98171000D02*
X130537000Y-98190000D01*
X124601150Y-98190000D02*
X123461150Y-99330000D01*
X130537000Y-98190000D02*
X124601150Y-98190000D01*
%TO.N,/MOSI_SPI*%
X135001000Y-100711000D02*
X134980000Y-100690000D01*
X153478800Y-97470600D02*
X153478800Y-98614800D01*
X153478800Y-98614800D02*
X154686000Y-99822000D01*
X155067000Y-100203000D02*
X155194000Y-100203000D01*
X154686000Y-99822000D02*
X155067000Y-100203000D01*
X124601150Y-100690000D02*
X123461150Y-101830000D01*
X134980000Y-100690000D02*
X124601150Y-100690000D01*
%TO.N,/SCK_SPI*%
X152478800Y-97470600D02*
X152478800Y-99392800D01*
X153662000Y-100602050D02*
X154051000Y-100991050D01*
X152861106Y-99449000D02*
X153662000Y-100249894D01*
X124601150Y-103190000D02*
X123461150Y-104330000D01*
X137795000Y-102362000D02*
X136967000Y-103190000D01*
X153662000Y-100249894D02*
X153662000Y-100602050D01*
X152478800Y-97470600D02*
X152478800Y-98489534D01*
X152535000Y-99449000D02*
X152861106Y-99449000D01*
X136967000Y-103190000D02*
X124601150Y-103190000D01*
X154051000Y-100991050D02*
X154051000Y-101727000D01*
X152478800Y-99392800D02*
X152535000Y-99449000D01*
%TO.N,/SWD_CLK*%
X173910000Y-75518000D02*
X173910000Y-73912500D01*
X170688000Y-75946000D02*
X173482000Y-75946000D01*
X161676400Y-82423000D02*
X168148000Y-82423000D01*
X169291000Y-77343000D02*
X170688000Y-75946000D01*
X169291000Y-81280000D02*
X169291000Y-77343000D01*
X173482000Y-75946000D02*
X173910000Y-75518000D01*
X168148000Y-82423000D02*
X169291000Y-81280000D01*
X157978800Y-86120600D02*
X161676400Y-82423000D01*
%TO.N,/SWD_DIO*%
X158242000Y-87630000D02*
X158115000Y-87757000D01*
X158115000Y-88646000D02*
X158514600Y-89045600D01*
X158750000Y-87376000D02*
X158496000Y-87630000D01*
X176410000Y-73912500D02*
X176277500Y-73912500D01*
X158115000Y-87757000D02*
X158115000Y-88646000D01*
X158496000Y-87630000D02*
X158242000Y-87630000D01*
X169799000Y-81788000D02*
X168529000Y-83058000D01*
X168529000Y-83058000D02*
X162179000Y-83058000D01*
X170887106Y-76454000D02*
X169799000Y-77542106D01*
X169799000Y-77542106D02*
X169799000Y-81788000D01*
X176277500Y-73912500D02*
X173736000Y-76454000D01*
X158514600Y-89045600D02*
X159903800Y-89045600D01*
X173736000Y-76454000D02*
X170887106Y-76454000D01*
X158750000Y-86487000D02*
X158750000Y-87376000D01*
X162179000Y-83058000D02*
X158750000Y-86487000D01*
%TO.N,/IO_PC9*%
X183922500Y-107230000D02*
X189150000Y-107230000D01*
X173490000Y-103042500D02*
X179735000Y-103042500D01*
X190410000Y-108490000D02*
X190410000Y-111610000D01*
X189150000Y-107230000D02*
X190410000Y-108490000D01*
X179735000Y-103042500D02*
X183922500Y-107230000D01*
%TO.N,/IO_PC8*%
X178586500Y-104394000D02*
X182102500Y-107910000D01*
X172261500Y-104394000D02*
X178586500Y-104394000D01*
X187910000Y-108310000D02*
X187910000Y-111610000D01*
X170880000Y-103012500D02*
X172261500Y-104394000D01*
X187510000Y-107910000D02*
X187910000Y-108310000D01*
X182102500Y-107910000D02*
X187510000Y-107910000D01*
%TO.N,/IO_PC7*%
X185140000Y-108410000D02*
X185410000Y-108680000D01*
X178308000Y-105156000D02*
X181562000Y-108410000D01*
X170513500Y-105156000D02*
X178308000Y-105156000D01*
X185410000Y-108680000D02*
X185410000Y-111610000D01*
X168330000Y-102972500D02*
X170513500Y-105156000D01*
X181562000Y-108410000D02*
X185140000Y-108410000D01*
%TO.N,/IO_PC6*%
X165680000Y-102972500D02*
X168371500Y-105664000D01*
X183050000Y-108930000D02*
X183050000Y-111470000D01*
X183050000Y-111470000D02*
X182910000Y-111610000D01*
X168371500Y-105664000D02*
X176784000Y-105664000D01*
X176784000Y-105664000D02*
X180050000Y-108930000D01*
X180050000Y-108930000D02*
X183050000Y-108930000D01*
%TO.N,/USART2_RX*%
X129159000Y-78740000D02*
X129159000Y-77216000D01*
X124110000Y-76390000D02*
X123430000Y-75710000D01*
X132588000Y-79756000D02*
X130175000Y-79756000D01*
X134239000Y-81407000D02*
X132588000Y-79756000D01*
X138303000Y-97155000D02*
X134239000Y-93091000D01*
X150478800Y-97470600D02*
X150243900Y-97470600D01*
X150243900Y-97470600D02*
X149797500Y-97917000D01*
X129159000Y-77216000D02*
X128333000Y-76390000D01*
X130175000Y-79756000D02*
X129159000Y-78740000D01*
X128333000Y-76390000D02*
X124110000Y-76390000D01*
X134239000Y-93091000D02*
X134239000Y-81407000D01*
%TO.N,/USART2_TX*%
X124700000Y-74480000D02*
X123430000Y-73210000D01*
X147955000Y-96144400D02*
X148553800Y-95545600D01*
X128963000Y-74480000D02*
X124700000Y-74480000D01*
X147955000Y-96520000D02*
X147955000Y-96144400D01*
X133477000Y-84455000D02*
X133477000Y-89408000D01*
X129286000Y-80264000D02*
X133477000Y-84455000D01*
X129286000Y-74803000D02*
X128963000Y-74480000D01*
%TO.N,Net-(J9-PadA5)*%
X177292000Y-89408000D02*
X181274000Y-93390000D01*
X177292000Y-86106000D02*
X177292000Y-89408000D01*
X185050000Y-93390000D02*
X185270000Y-93610000D01*
X181274000Y-93390000D02*
X185050000Y-93390000D01*
X173202500Y-85350000D02*
X176536000Y-85350000D01*
X185270000Y-93610000D02*
X189445000Y-93610000D01*
X176536000Y-85350000D02*
X177292000Y-86106000D01*
%TO.N,Net-(J9-PadA6)*%
X177808000Y-89162000D02*
X181536000Y-92890000D01*
X186000661Y-92010000D02*
X186600661Y-92610000D01*
X186600661Y-92610000D02*
X189490000Y-92610000D01*
X190470000Y-91610000D02*
X190520000Y-91660000D01*
X189445000Y-91610000D02*
X188577106Y-91610000D01*
X189445000Y-91610000D02*
X190470000Y-91610000D01*
X177178000Y-80650000D02*
X177808000Y-81280000D01*
X190520000Y-91660000D02*
X190520000Y-92470000D01*
X177808000Y-81280000D02*
X177808000Y-89162000D01*
X181716000Y-92710000D02*
X184679339Y-92710000D01*
X190520000Y-92470000D02*
X190380000Y-92610000D01*
X185379339Y-92010000D02*
X186000661Y-92010000D01*
X173232500Y-80650000D02*
X177178000Y-80650000D01*
X181536000Y-92890000D02*
X181716000Y-92710000D01*
X184679339Y-92710000D02*
X185379339Y-92010000D01*
X190380000Y-92610000D02*
X189445000Y-92610000D01*
%TO.N,Net-(J9-PadA7)*%
X183200000Y-91430000D02*
X183160000Y-91390000D01*
X189445000Y-93110000D02*
X186040000Y-93110000D01*
X189445000Y-93110000D02*
X188650000Y-93110000D01*
X186040000Y-93110000D02*
X185690000Y-92760000D01*
X186727107Y-91380000D02*
X187640000Y-91380000D01*
X183160000Y-91390000D02*
X186717107Y-91390000D01*
X178308000Y-88900000D02*
X180798000Y-91390000D01*
X186717107Y-91390000D02*
X186727107Y-91380000D01*
X173312500Y-78240000D02*
X177300000Y-78240000D01*
X183200000Y-91880000D02*
X183200000Y-91430000D01*
X178308000Y-79248000D02*
X178308000Y-88900000D01*
X187640000Y-91380000D02*
X188370000Y-92110000D01*
X177300000Y-78240000D02*
X178308000Y-79248000D01*
X188370000Y-92110000D02*
X188710000Y-92110000D01*
X180798000Y-91390000D02*
X183160000Y-91390000D01*
%TO.N,Net-(J9-PadB5)*%
X173222500Y-83000000D02*
X176980000Y-83000000D01*
X189445000Y-90610000D02*
X187899500Y-90610000D01*
X187899500Y-90610000D02*
X187850000Y-90659500D01*
X176980000Y-83000000D02*
X177038000Y-83058000D01*
%TO.N,Net-(R3-Pad2)*%
X161871600Y-93545600D02*
X159903800Y-93545600D01*
X165680000Y-100656000D02*
X162306000Y-97282000D01*
X162306000Y-97282000D02*
X162306000Y-93980000D01*
X165680000Y-101147500D02*
X165680000Y-100656000D01*
X162306000Y-93980000D02*
X161871600Y-93545600D01*
%TO.N,Net-(R4-Pad2)*%
X168330000Y-99496000D02*
X167640000Y-98806000D01*
X167640000Y-98806000D02*
X164592000Y-98806000D01*
X162814000Y-93218000D02*
X162641600Y-93045600D01*
X162814000Y-97028000D02*
X162814000Y-93218000D01*
X168330000Y-101147500D02*
X168330000Y-99496000D01*
X162641600Y-93045600D02*
X159903800Y-93045600D01*
X164592000Y-98806000D02*
X162814000Y-97028000D01*
%TO.N,Net-(R5-Pad2)*%
X164846000Y-98298000D02*
X163322000Y-96774000D01*
X170880000Y-101187500D02*
X170880000Y-99314606D01*
X163322000Y-96774000D02*
X163322000Y-92710000D01*
X163157600Y-92545600D02*
X159903800Y-92545600D01*
X169863394Y-98298000D02*
X164846000Y-98298000D01*
X170880000Y-99314606D02*
X169863394Y-98298000D01*
X163322000Y-92710000D02*
X163157600Y-92545600D01*
%TO.N,Net-(R6-Pad2)*%
X163830000Y-96520000D02*
X163830000Y-92456000D01*
X165100000Y-97790000D02*
X163830000Y-96520000D01*
X163830000Y-92456000D02*
X163419600Y-92045600D01*
X163419600Y-92045600D02*
X159903800Y-92045600D01*
X173490000Y-101217500D02*
X170062500Y-97790000D01*
X170062500Y-97790000D02*
X165100000Y-97790000D01*
%TO.N,/BOOT0*%
X152916000Y-83939000D02*
X153595000Y-83260000D01*
X153595000Y-83260000D02*
X156247500Y-83260000D01*
X156591000Y-81788000D02*
X158496000Y-81788000D01*
X158496000Y-81788000D02*
X160095000Y-80189000D01*
X156247500Y-83260000D02*
X156247500Y-82131500D01*
X156247500Y-82131500D02*
X156591000Y-81788000D01*
X160095000Y-80189000D02*
X160095000Y-79500000D01*
X152478800Y-86120600D02*
X152478800Y-85244559D01*
X152478800Y-85244559D02*
X152916000Y-84807359D01*
X152916000Y-84807359D02*
X152916000Y-83939000D01*
%TO.N,/HSE_IN*%
X148553800Y-90045600D02*
X147195600Y-90045600D01*
X147195600Y-90045600D02*
X146250000Y-89100000D01*
X146250000Y-89100000D02*
X144700000Y-89100000D01*
%TD*%
M02*
