M48
; DRILL file {KiCad (6.0.11)} date Fri Feb 10 10:35:54 2023
; FORMAT={-:-/ absolute / inch / decimal}
; #@! TF.CreationDate,2023-02-10T10:35:54-08:00
; #@! TF.GenerationSoftware,Kicad,Pcbnew,(6.0.11)
; #@! TF.FileFunction,Plated,1,2,PTH
FMAT,2
INCH
; #@! TA.AperFunction,Plated,PTH,ViaDrill
T1C0.0118
; #@! TA.AperFunction,Plated,PTH,ViaDrill
T2C0.0157
; #@! TA.AperFunction,Plated,PTH,ComponentDrill
T3C0.0236
%
G90
G05
T1
X5.075Y-2.715
X5.09Y-2.945
X5.09Y-3.16
X5.14Y-3.715
X5.14Y-3.865
X5.1862Y-2.9662
X5.195Y-3.67
X5.2Y-3.475
X5.23Y-3.57
X5.255Y-3.52
X5.285Y-3.715
X5.3Y-4.155
X5.315Y-3.965
X5.355Y-3.555
X5.3685Y-2.9685
X5.4Y-3.535
X5.425Y-4.03
X5.445Y-3.825
X5.445Y-4.125
X5.46Y-3.705
X5.465Y-2.976
X5.515Y-3.38
X5.56Y-3.38
X5.595Y-3.3
X5.595Y-3.455
X5.595Y-4.255
X5.645Y-3.15
X5.645Y-3.23
X5.6894Y-2.9693
X5.725Y-3.245
X5.73Y-3.7439
X5.78Y-3.595
X5.785Y-3.2
X5.79Y-3.8525
X5.795Y-4.015
X5.825Y-3.395
X5.825Y-3.8
X5.84Y-4.105
X5.84Y-4.145
X5.8539Y-2.989
X5.855Y-3.15
X5.8859Y-3.3691
X5.89Y-4.07
X5.8975Y-3.855
X5.905Y-3.685
X5.9609Y-3.4441
X5.98Y-3.25
X6.0Y-3.085
X6.025Y-3.77
X6.035Y-3.985
X6.04Y-4.07
X6.055Y-3.25
X6.055Y-3.315
X6.065Y-4.005
X6.08Y-3.095
X6.095Y-3.315
X6.0967Y-4.0208
X6.11Y-3.945
X6.125Y-3.905
X6.13Y-4.095
X6.14Y-4.145
X6.1439Y-2.9691
X6.225Y-3.995
X6.23Y-3.095
X6.23Y-3.095
X6.285Y-3.26
X6.295Y-3.87
X6.31Y-3.425
X6.33Y-4.12
X6.3725Y-3.5225
X6.375Y-3.56
X6.385Y-3.595
X6.3909Y-2.9819
X6.4Y-4.11
X6.41Y-3.315
X6.45Y-3.385
X6.4525Y-4.1125
X6.495Y-3.79
X6.61Y-3.305
X6.6375Y-3.185
X6.695Y-3.36
X6.71Y-3.82
X6.7303Y-4.2748
X6.765Y-3.845
X6.7815Y-3.0807
X6.7839Y-2.9625
X6.785Y-3.715
X6.92Y-3.4
X6.97Y-3.27
X7.0Y-3.815
X7.0402Y-4.3016
X7.124Y-3.7012
X7.125Y-3.555
X7.1421Y-2.9972
X7.165Y-3.27
X7.24Y-3.0
T2
X7.2126Y-3.6173
X7.3106Y-3.652
X7.3504Y-3.5098
X7.352Y-3.7669
X7.3933Y-3.7961
X7.3945Y-3.4657
X7.3957Y-3.5693
T3
G00X7.4728Y-3.4661
M15
G01X7.5161Y-3.4661
M16
G05
G00X7.4728Y-3.8063
M15
G01X7.5161Y-3.8063
M16
G05
G00X7.6472Y-3.4661
M15
G01X7.6709Y-3.4661
M16
G05
G00X7.6472Y-3.8063
M15
G01X7.6709Y-3.8063
M16
G05
T0
M30
