%TF.GenerationSoftware,KiCad,Pcbnew,(6.0.11)*%
%TF.CreationDate,2023-02-10T10:35:54-08:00*%
%TF.ProjectId,EV1,4556312e-6b69-4636-9164-5f7063625858,rev?*%
%TF.SameCoordinates,Original*%
%TF.FileFunction,Soldermask,Top*%
%TF.FilePolarity,Negative*%
%FSLAX46Y46*%
G04 Gerber Fmt 4.6, Leading zero omitted, Abs format (unit mm)*
G04 Created by KiCad (PCBNEW (6.0.11)) date 2023-02-10 10:35:54*
%MOMM*%
%LPD*%
G01*
G04 APERTURE LIST*
G04 Aperture macros list*
%AMRoundRect*
0 Rectangle with rounded corners*
0 $1 Rounding radius*
0 $2 $3 $4 $5 $6 $7 $8 $9 X,Y pos of 4 corners*
0 Add a 4 corners polygon primitive as box body*
4,1,4,$2,$3,$4,$5,$6,$7,$8,$9,$2,$3,0*
0 Add four circle primitives for the rounded corners*
1,1,$1+$1,$2,$3*
1,1,$1+$1,$4,$5*
1,1,$1+$1,$6,$7*
1,1,$1+$1,$8,$9*
0 Add four rect primitives between the rounded corners*
20,1,$1+$1,$2,$3,$4,$5,0*
20,1,$1+$1,$4,$5,$6,$7,0*
20,1,$1+$1,$6,$7,$8,$9,0*
20,1,$1+$1,$8,$9,$2,$3,0*%
G04 Aperture macros list end*
%ADD10R,4.500000X1.300000*%
%ADD11R,3.900000X1.800000*%
%ADD12R,1.300000X4.500000*%
%ADD13R,1.800000X3.900000*%
%ADD14RoundRect,0.250000X0.250000X0.475000X-0.250000X0.475000X-0.250000X-0.475000X0.250000X-0.475000X0*%
%ADD15RoundRect,0.250000X-0.262500X-0.450000X0.262500X-0.450000X0.262500X0.450000X-0.262500X0.450000X0*%
%ADD16RoundRect,0.250000X0.475000X-0.250000X0.475000X0.250000X-0.475000X0.250000X-0.475000X-0.250000X0*%
%ADD17R,1.500000X2.000000*%
%ADD18R,3.800000X2.000000*%
%ADD19RoundRect,0.243750X0.243750X0.456250X-0.243750X0.456250X-0.243750X-0.456250X0.243750X-0.456250X0*%
%ADD20RoundRect,0.250000X-0.250000X-0.475000X0.250000X-0.475000X0.250000X0.475000X-0.250000X0.475000X0*%
%ADD21R,1.120000X2.160000*%
%ADD22RoundRect,0.250000X0.450000X-0.262500X0.450000X0.262500X-0.450000X0.262500X-0.450000X-0.262500X0*%
%ADD23RoundRect,0.250000X0.262500X0.450000X-0.262500X0.450000X-0.262500X-0.450000X0.262500X-0.450000X0*%
%ADD24C,0.650000*%
%ADD25R,1.450000X0.600000*%
%ADD26R,1.450000X0.300000*%
%ADD27O,1.600000X1.000000*%
%ADD28O,2.100000X1.000000*%
%ADD29R,2.160000X1.120000*%
%ADD30RoundRect,0.218750X-0.218750X-0.381250X0.218750X-0.381250X0.218750X0.381250X-0.218750X0.381250X0*%
%ADD31RoundRect,0.075000X-0.700000X-0.075000X0.700000X-0.075000X0.700000X0.075000X-0.700000X0.075000X0*%
%ADD32RoundRect,0.075000X-0.075000X-0.700000X0.075000X-0.700000X0.075000X0.700000X-0.075000X0.700000X0*%
%ADD33RoundRect,0.250000X-0.475000X0.250000X-0.475000X-0.250000X0.475000X-0.250000X0.475000X0.250000X0*%
%ADD34R,4.495400X1.295400*%
%ADD35R,3.800000X1.800000*%
%ADD36R,1.600000X1.500000*%
%ADD37C,0.700000*%
%ADD38C,0.800000*%
G04 APERTURE END LIST*
D10*
%TO.C,U10*%
X123430000Y-68210000D03*
X123430000Y-70710000D03*
X123430000Y-73210000D03*
X123430000Y-75710000D03*
X123430000Y-78210000D03*
X123430000Y-80710000D03*
D11*
X116630000Y-65010000D03*
X116630000Y-83910000D03*
%TD*%
D12*
%TO.C,U6*%
X146290000Y-72550000D03*
X143790000Y-72550000D03*
X141290000Y-72550000D03*
X138790000Y-72550000D03*
X136290000Y-72550000D03*
X133790000Y-72550000D03*
X131290000Y-72550000D03*
D13*
X149490000Y-65750000D03*
X128090000Y-65750000D03*
%TD*%
%TO.C,U7*%
X174110000Y-118440000D03*
X147710000Y-118440000D03*
D12*
X170910000Y-111640000D03*
X168410000Y-111640000D03*
X165910000Y-111640000D03*
X163410000Y-111640000D03*
X160910000Y-111640000D03*
X158410000Y-111640000D03*
X155910000Y-111640000D03*
X153410000Y-111640000D03*
X150910000Y-111640000D03*
%TD*%
D14*
%TO.C,C14*%
X152080000Y-101092000D03*
X150180000Y-101092000D03*
%TD*%
D15*
%TO.C,R1*%
X173204500Y-98552000D03*
X175029500Y-98552000D03*
%TD*%
%TO.C,R11*%
X171397500Y-83000000D03*
X173222500Y-83000000D03*
%TD*%
D16*
%TO.C,C12*%
X162306000Y-87818000D03*
X162306000Y-85918000D03*
%TD*%
D17*
%TO.C,U2*%
X165594000Y-94082000D03*
X167894000Y-94082000D03*
D18*
X167894000Y-87782000D03*
D17*
X170194000Y-94082000D03*
%TD*%
D19*
%TO.C,D2*%
X174927500Y-90170000D03*
X173052500Y-90170000D03*
%TD*%
D12*
%TO.C,U4*%
X162500000Y-72500000D03*
X160000000Y-72500000D03*
X157500000Y-72500000D03*
X155000000Y-72500000D03*
D13*
X165700000Y-65700000D03*
X151800000Y-65700000D03*
%TD*%
D20*
%TO.C,C10*%
X142560000Y-102135000D03*
X144460000Y-102135000D03*
%TD*%
D21*
%TO.C,SW2*%
X137190000Y-88095000D03*
X137190000Y-81365000D03*
%TD*%
D15*
%TO.C,R10*%
X171487500Y-78240000D03*
X173312500Y-78240000D03*
%TD*%
D22*
%TO.C,R5*%
X170880000Y-103012500D03*
X170880000Y-101187500D03*
%TD*%
D23*
%TO.C,R8*%
X157452500Y-79960000D03*
X155627500Y-79960000D03*
%TD*%
D22*
%TO.C,R6*%
X173490000Y-103042500D03*
X173490000Y-101217500D03*
%TD*%
D23*
%TO.C,R13*%
X158072500Y-83260000D03*
X156247500Y-83260000D03*
%TD*%
D24*
%TO.C,J9*%
X190890000Y-89470000D03*
X190890000Y-95250000D03*
D25*
X189445000Y-95610000D03*
X189445000Y-94810000D03*
D26*
X189445000Y-93610000D03*
X189445000Y-92610000D03*
X189445000Y-92110000D03*
X189445000Y-91110000D03*
D25*
X189445000Y-89910000D03*
X189445000Y-89110000D03*
X189445000Y-89110000D03*
X189445000Y-89910000D03*
D26*
X189445000Y-90610000D03*
X189445000Y-91610000D03*
X189445000Y-93110000D03*
X189445000Y-94110000D03*
D25*
X189445000Y-94810000D03*
X189445000Y-95610000D03*
D27*
X194540000Y-96680000D03*
D28*
X190360000Y-88040000D03*
D27*
X194540000Y-88040000D03*
D28*
X190360000Y-96680000D03*
%TD*%
D19*
%TO.C,D1*%
X175054500Y-95885000D03*
X173179500Y-95885000D03*
%TD*%
D29*
%TO.C,SW1*%
X166825000Y-79500000D03*
X160095000Y-79500000D03*
%TD*%
D20*
%TO.C,C11*%
X149037000Y-83566000D03*
X150937000Y-83566000D03*
%TD*%
D30*
%TO.C,120R1*%
X139867500Y-99060000D03*
X141992500Y-99060000D03*
%TD*%
D15*
%TO.C,R7*%
X151487500Y-80010000D03*
X153312500Y-80010000D03*
%TD*%
D20*
%TO.C,C13*%
X158054000Y-99822000D03*
X159954000Y-99822000D03*
%TD*%
D22*
%TO.C,R2*%
X143330000Y-85502500D03*
X143330000Y-83677500D03*
%TD*%
D12*
%TO.C,U9*%
X134460000Y-111640000D03*
X136960000Y-111640000D03*
X139460000Y-111640000D03*
X141960000Y-111640000D03*
D13*
X131260000Y-118440000D03*
X145160000Y-118440000D03*
%TD*%
D31*
%TO.C,U1*%
X148553800Y-88045600D03*
X148553800Y-88545600D03*
X148553800Y-89045600D03*
X148553800Y-89545600D03*
X148553800Y-90045600D03*
X148553800Y-90545600D03*
X148553800Y-91045600D03*
X148553800Y-91545600D03*
X148553800Y-92045600D03*
X148553800Y-92545600D03*
X148553800Y-93045600D03*
X148553800Y-93545600D03*
X148553800Y-94045600D03*
X148553800Y-94545600D03*
X148553800Y-95045600D03*
X148553800Y-95545600D03*
D32*
X150478800Y-97470600D03*
X150978800Y-97470600D03*
X151478800Y-97470600D03*
X151978800Y-97470600D03*
X152478800Y-97470600D03*
X152978800Y-97470600D03*
X153478800Y-97470600D03*
X153978800Y-97470600D03*
X154478800Y-97470600D03*
X154978800Y-97470600D03*
X155478800Y-97470600D03*
X155978800Y-97470600D03*
X156478800Y-97470600D03*
X156978800Y-97470600D03*
X157478800Y-97470600D03*
X157978800Y-97470600D03*
D31*
X159903800Y-95545600D03*
X159903800Y-95045600D03*
X159903800Y-94545600D03*
X159903800Y-94045600D03*
X159903800Y-93545600D03*
X159903800Y-93045600D03*
X159903800Y-92545600D03*
X159903800Y-92045600D03*
X159903800Y-91545600D03*
X159903800Y-91045600D03*
X159903800Y-90545600D03*
X159903800Y-90045600D03*
X159903800Y-89545600D03*
X159903800Y-89045600D03*
X159903800Y-88545600D03*
X159903800Y-88045600D03*
D32*
X157978800Y-86120600D03*
X157478800Y-86120600D03*
X156978800Y-86120600D03*
X156478800Y-86120600D03*
X155978800Y-86120600D03*
X155478800Y-86120600D03*
X154978800Y-86120600D03*
X154478800Y-86120600D03*
X153978800Y-86120600D03*
X153478800Y-86120600D03*
X152978800Y-86120600D03*
X152478800Y-86120600D03*
X151978800Y-86120600D03*
X151478800Y-86120600D03*
X150978800Y-86120600D03*
X150478800Y-86120600D03*
%TD*%
D33*
%TO.C,C4*%
X138660000Y-90990000D03*
X138660000Y-92890000D03*
%TD*%
D15*
%TO.C,R9*%
X171407500Y-80650000D03*
X173232500Y-80650000D03*
%TD*%
D34*
%TO.C,U3*%
X123461150Y-89330000D03*
X123461150Y-91830000D03*
X123461150Y-94330000D03*
X123461150Y-96830000D03*
X123461150Y-99330000D03*
X123461150Y-101830000D03*
X123461150Y-104330000D03*
X123461150Y-106830000D03*
D35*
X116611150Y-86130000D03*
D11*
X116661150Y-110030000D03*
%TD*%
D22*
%TO.C,R4*%
X168330000Y-102972500D03*
X168330000Y-101147500D03*
%TD*%
D20*
%TO.C,C9*%
X145100000Y-99060000D03*
X147000000Y-99060000D03*
%TD*%
D33*
%TO.C,C5*%
X145870000Y-83640000D03*
X145870000Y-85540000D03*
%TD*%
D15*
%TO.C,R12*%
X171377500Y-85344000D03*
X173202500Y-85344000D03*
%TD*%
D14*
%TO.C,C1*%
X174940000Y-92710000D03*
X173040000Y-92710000D03*
%TD*%
D33*
%TO.C,C8*%
X145542000Y-94046000D03*
X145542000Y-95946000D03*
%TD*%
D12*
%TO.C,U5*%
X183900000Y-72510000D03*
X181400000Y-72510000D03*
X178900000Y-72510000D03*
X176400000Y-72510000D03*
X173900000Y-72510000D03*
X171400000Y-72510000D03*
D13*
X187100000Y-65710000D03*
X168200000Y-65710000D03*
%TD*%
D14*
%TO.C,C2*%
X168082000Y-96520000D03*
X166182000Y-96520000D03*
%TD*%
D22*
%TO.C,R3*%
X165680000Y-102972500D03*
X165680000Y-101147500D03*
%TD*%
D12*
%TO.C,U8*%
X180410000Y-111610000D03*
X182910000Y-111610000D03*
X185410000Y-111610000D03*
X187910000Y-111610000D03*
X190410000Y-111610000D03*
X192910000Y-111610000D03*
D13*
X177210000Y-118410000D03*
X196110000Y-118410000D03*
%TD*%
D36*
%TO.C,X1*%
X142160000Y-91300000D03*
X144700000Y-91300000D03*
X144700000Y-89100000D03*
X142160000Y-89100000D03*
%TD*%
D37*
X158242000Y-78613000D03*
X160274000Y-86995000D03*
X143383000Y-82042000D03*
X168591500Y-80899000D03*
X177800000Y-96901000D03*
X149501675Y-85575325D03*
X142113000Y-108077000D03*
X148717000Y-80010000D03*
X167894000Y-83947000D03*
X158115000Y-101473000D03*
X148690000Y-75920000D03*
X142113000Y-87757000D03*
X138303000Y-104775000D03*
X132080000Y-88265000D03*
X175768000Y-86360000D03*
X147955000Y-86233000D03*
X142113000Y-83820000D03*
X170434000Y-97028000D03*
X156055000Y-75415000D03*
X162814000Y-84201000D03*
X143383000Y-80010000D03*
X172310000Y-75246500D03*
X158242000Y-78613000D03*
X153035000Y-95758000D03*
X136017000Y-90297000D03*
X180949334Y-94009591D03*
X180975000Y-90297000D03*
X145542000Y-95095500D03*
D38*
X186740000Y-95680000D03*
D37*
X146812000Y-91313000D03*
X147066000Y-97854500D03*
X172250500Y-78250000D03*
X181410000Y-76130000D03*
X159893000Y-98298000D03*
X178820000Y-109260000D03*
D38*
X186700000Y-89150000D03*
X187820000Y-88030000D03*
D37*
X162330000Y-75740000D03*
X147193000Y-101981000D03*
X138684000Y-94107000D03*
X137160000Y-89789000D03*
X164973000Y-96266000D03*
X172339000Y-94361000D03*
X145415000Y-82423000D03*
X128905000Y-68961000D03*
X170053000Y-85344000D03*
D38*
X187790000Y-96420000D03*
D37*
X131729000Y-75341000D03*
X183896000Y-76200000D03*
X171831000Y-97663000D03*
X134620000Y-105537000D03*
X159639000Y-82804000D03*
X151406675Y-87480325D03*
X163830000Y-85979000D03*
X149987000Y-93599000D03*
X170950000Y-108580000D03*
X153797000Y-82550000D03*
X153797000Y-84201000D03*
X155956000Y-105283000D03*
X148336000Y-105283000D03*
X155702000Y-104013000D03*
X148336000Y-104267000D03*
X153416000Y-103378000D03*
X149606000Y-103378000D03*
X162179000Y-91313000D03*
X160782000Y-104648000D03*
X161925000Y-90424000D03*
X162560000Y-104394000D03*
X163893500Y-104457500D03*
X161861500Y-89471500D03*
X151892000Y-82550000D03*
X144510000Y-75420000D03*
X152400000Y-78359000D03*
X154432000Y-78613000D03*
X138810000Y-75590000D03*
X141224000Y-85852000D03*
X136360000Y-75400000D03*
X140081000Y-85852000D03*
X146939000Y-81280000D03*
X154813000Y-84201000D03*
X154855540Y-102129270D03*
X132842000Y-90678000D03*
X153289000Y-101219000D03*
X131953000Y-93218000D03*
X155575000Y-99187000D03*
X134239000Y-94361000D03*
X130556000Y-98171000D03*
X130556000Y-94361000D03*
X155194000Y-100203000D03*
X135001000Y-100711000D03*
X154051000Y-101727000D03*
X137795000Y-102362000D03*
X138303000Y-97155000D03*
X149797500Y-97917000D03*
X129286000Y-74803000D03*
X129286000Y-80264000D03*
X147955000Y-96520000D03*
X133477000Y-89408000D03*
D38*
X183200000Y-91880000D03*
X185690000Y-92760000D03*
D37*
X177038000Y-83058000D03*
X181991000Y-83058000D03*
D38*
X187850000Y-90659500D03*
M02*
