M48
; DRILL file {KiCad (6.0.11)} date Mon Feb  6 10:27:39 2023
; FORMAT={-:-/ absolute / inch / decimal}
; #@! TF.CreationDate,2023-02-06T10:27:39-08:00
; #@! TF.GenerationSoftware,Kicad,Pcbnew,(6.0.11)
; #@! TF.FileFunction,Plated,1,2,PTH
FMAT,2
INCH
; #@! TA.AperFunction,Plated,PTH,ComponentDrill
T1C0.0374
%
G90
G05
T1
X4.8736Y-3.2408
X4.8736Y-3.7743
X4.8755Y-4.418
X4.972Y-3.2408
X4.972Y-3.7743
X4.974Y-4.418
X5.0704Y-3.2408
X5.0704Y-3.7743
X5.0724Y-4.418
X5.1688Y-3.2408
X5.1688Y-3.7743
X5.1708Y-4.418
X5.2673Y-3.2408
X5.2673Y-3.7743
X5.2692Y-4.418
X5.3657Y-3.2408
X5.3657Y-3.7743
X5.3677Y-4.418
X5.4641Y-3.2408
X5.4641Y-3.7743
X5.5625Y-3.2408
X5.5625Y-3.7743
X5.661Y-3.2408
X5.8381Y-3.8845
X5.8381Y-4.2932
X5.9346Y-3.1778
X5.9366Y-3.8845
X5.9366Y-4.2932
X6.033Y-3.1778
X6.035Y-3.8845
X6.035Y-4.2932
X6.1314Y-3.1778
X6.1334Y-3.8845
X6.1334Y-4.2932
X6.2299Y-3.1778
X6.3283Y-3.1778
X6.4267Y-3.1778
X6.5251Y-3.1778
X6.8007Y-3.3511
X6.8991Y-3.3511
X6.9976Y-3.3511
X7.096Y-3.3511
T0
M30
