%TF.GenerationSoftware,KiCad,Pcbnew,(6.0.11)*%
%TF.CreationDate,2023-02-10T10:35:54-08:00*%
%TF.ProjectId,EV1,4556312e-6b69-4636-9164-5f7063625858,rev?*%
%TF.SameCoordinates,Original*%
%TF.FileFunction,Copper,L2,Bot*%
%TF.FilePolarity,Positive*%
%FSLAX46Y46*%
G04 Gerber Fmt 4.6, Leading zero omitted, Abs format (unit mm)*
G04 Created by KiCad (PCBNEW (6.0.11)) date 2023-02-10 10:35:54*
%MOMM*%
%LPD*%
G01*
G04 APERTURE LIST*
%TA.AperFunction,ComponentPad*%
%ADD10O,1.600000X1.000000*%
%TD*%
%TA.AperFunction,ComponentPad*%
%ADD11O,2.100000X1.000000*%
%TD*%
%TA.AperFunction,ViaPad*%
%ADD12C,0.700000*%
%TD*%
%TA.AperFunction,ViaPad*%
%ADD13C,0.800000*%
%TD*%
%TA.AperFunction,Conductor*%
%ADD14C,0.300000*%
%TD*%
%TA.AperFunction,Conductor*%
%ADD15C,0.500000*%
%TD*%
G04 APERTURE END LIST*
D10*
%TO.P,J9,S1,SHIELD*%
%TO.N,unconnected-(J9-PadS1)*%
X194540000Y-96680000D03*
D11*
X190360000Y-88040000D03*
D10*
X194540000Y-88040000D03*
D11*
X190360000Y-96680000D03*
%TD*%
D12*
%TO.N,+3.3V*%
X158242000Y-78613000D03*
X160274000Y-86995000D03*
X143383000Y-82042000D03*
X168591500Y-80899000D03*
X177800000Y-96901000D03*
X149501675Y-85575325D03*
X142113000Y-108077000D03*
X148717000Y-80010000D03*
X167894000Y-83947000D03*
X158115000Y-101473000D03*
X148690000Y-75920000D03*
X142113000Y-87757000D03*
X138303000Y-104775000D03*
X132080000Y-88265000D03*
X175768000Y-86360000D03*
X147955000Y-86233000D03*
X142113000Y-83820000D03*
X170434000Y-97028000D03*
X156055000Y-75415000D03*
X162814000Y-84201000D03*
X143383000Y-80010000D03*
X172310000Y-75246500D03*
X158242000Y-78613000D03*
X153035000Y-95758000D03*
X136017000Y-90297000D03*
%TO.N,VBUS*%
X180949334Y-94009591D03*
X180975000Y-90297000D03*
%TO.N,GND*%
X145542000Y-95095500D03*
D13*
X186740000Y-95680000D03*
D12*
X146812000Y-91313000D03*
X147066000Y-97854500D03*
X172250500Y-78250000D03*
X181410000Y-76130000D03*
X159893000Y-98298000D03*
X178820000Y-109260000D03*
D13*
X186700000Y-89150000D03*
X187820000Y-88030000D03*
D12*
X162330000Y-75740000D03*
X147193000Y-101981000D03*
X138684000Y-94107000D03*
X137160000Y-89789000D03*
X164973000Y-96266000D03*
X172339000Y-94361000D03*
X145415000Y-82423000D03*
X128905000Y-68961000D03*
X170053000Y-85344000D03*
D13*
X187790000Y-96420000D03*
D12*
X131729000Y-75341000D03*
X183896000Y-76200000D03*
X171831000Y-97663000D03*
X134620000Y-105537000D03*
X159639000Y-82804000D03*
X151406675Y-87480325D03*
X163830000Y-85979000D03*
X149987000Y-93599000D03*
X170950000Y-108580000D03*
%TO.N,/I2C_SCL*%
X153797000Y-82550000D03*
X153797000Y-84201000D03*
%TO.N,/USART_3_RX*%
X155956000Y-105283000D03*
X148336000Y-105283000D03*
%TO.N,/USART_3_TX*%
X155702000Y-104013000D03*
X148336000Y-104267000D03*
%TO.N,/BB_ROW_3*%
X153416000Y-103378000D03*
X149606000Y-103378000D03*
%TO.N,/BB_ROW_6*%
X162179000Y-91313000D03*
X160782000Y-104648000D03*
%TO.N,/BB_ROW_7*%
X161925000Y-90424000D03*
X162560000Y-104394000D03*
%TO.N,/BB_ROW_8*%
X163893500Y-104457500D03*
X161861500Y-89471500D03*
%TO.N,/BB_COLS_2*%
X151892000Y-82550000D03*
X144510000Y-75420000D03*
%TO.N,/BB_COLS_3*%
X152400000Y-78359000D03*
X154432000Y-78613000D03*
%TO.N,/BB_COLS_4*%
X138810000Y-75590000D03*
X141224000Y-85852000D03*
%TO.N,/BB_COLS_5*%
X136360000Y-75400000D03*
X140081000Y-85852000D03*
%TO.N,/BB_COLS_6*%
X146939000Y-81280000D03*
X154813000Y-84201000D03*
%TO.N,/RST_PA6*%
X154855540Y-102129270D03*
X132842000Y-90678000D03*
%TO.N,/BL_PA4*%
X153289000Y-101219000D03*
X131953000Y-93218000D03*
%TO.N,/DC_PB0*%
X155575000Y-99187000D03*
X134239000Y-94361000D03*
X130556000Y-98171000D03*
X130556000Y-94361000D03*
%TO.N,/MOSI_SPI*%
X155194000Y-100203000D03*
X135001000Y-100711000D03*
%TO.N,/SCK_SPI*%
X154051000Y-101727000D03*
X137795000Y-102362000D03*
%TO.N,/USART2_RX*%
X138303000Y-97155000D03*
X149797500Y-97917000D03*
%TO.N,/USART2_TX*%
X129286000Y-74803000D03*
X129286000Y-80264000D03*
X147955000Y-96520000D03*
X133477000Y-89408000D03*
D13*
%TO.N,Net-(J9-PadA7)*%
X183200000Y-91880000D03*
X185690000Y-92760000D03*
D12*
%TO.N,Net-(J9-PadB5)*%
X177038000Y-83058000D03*
X181991000Y-83058000D03*
D13*
X187850000Y-90659500D03*
%TD*%
D14*
%TO.N,+3.3V*%
X176276000Y-85852000D02*
X176276000Y-76962000D01*
D15*
X139827000Y-106299000D02*
X141732000Y-106299000D01*
D14*
X170434000Y-97028000D02*
X170499000Y-96963000D01*
X175768000Y-86360000D02*
X176276000Y-85852000D01*
X167894000Y-81596500D02*
X168591500Y-80899000D01*
X176276000Y-76962000D02*
X174459500Y-76962000D01*
X158242000Y-76932000D02*
X157930000Y-76620000D01*
D15*
X148717000Y-75947000D02*
X148690000Y-75920000D01*
X148844000Y-86233000D02*
X149501675Y-85575325D01*
D14*
X155100000Y-74460000D02*
X155100000Y-72510000D01*
X156210000Y-95758000D02*
X153035000Y-95758000D01*
D15*
X133985000Y-88265000D02*
X132080000Y-88265000D01*
D14*
X174459500Y-76962000D02*
X174025500Y-76962000D01*
D15*
X142140000Y-107987500D02*
X142140000Y-108020000D01*
X142113000Y-87757000D02*
X142113000Y-83820000D01*
D14*
X170499000Y-96963000D02*
X177738000Y-96963000D01*
D15*
X147955000Y-86233000D02*
X148844000Y-86233000D01*
X142140000Y-106707000D02*
X142140000Y-107987500D01*
D14*
X158242000Y-78613000D02*
X158242000Y-76932000D01*
X158115000Y-101473000D02*
X158115000Y-97663000D01*
X156210000Y-91059000D02*
X160274000Y-86995000D01*
X162814000Y-84201000D02*
X158242000Y-79629000D01*
D15*
X143383000Y-80010000D02*
X143383000Y-82042000D01*
X142140000Y-108020000D02*
X142130000Y-108030000D01*
D14*
X158242000Y-79629000D02*
X158242000Y-78613000D01*
X158115000Y-97663000D02*
X156210000Y-95758000D01*
X157260000Y-76620000D02*
X156055000Y-75415000D01*
X177738000Y-96963000D02*
X177800000Y-96901000D01*
X167894000Y-83947000D02*
X167894000Y-81596500D01*
X174025500Y-76962000D02*
X172310000Y-75246500D01*
D15*
X141732000Y-106299000D02*
X142140000Y-106707000D01*
D14*
X157930000Y-76620000D02*
X157260000Y-76620000D01*
X156210000Y-95758000D02*
X156210000Y-91059000D01*
D15*
X138303000Y-104775000D02*
X139827000Y-106299000D01*
X136017000Y-90297000D02*
X133985000Y-88265000D01*
X148717000Y-80010000D02*
X148717000Y-75947000D01*
D14*
%TO.N,VBUS*%
X180975000Y-93983925D02*
X180975000Y-90297000D01*
X180949334Y-94009591D02*
X180975000Y-93983925D01*
D15*
%TO.N,GND*%
X186700000Y-95640000D02*
X186740000Y-95680000D01*
X186700000Y-89150000D02*
X186700000Y-95640000D01*
D14*
%TO.N,/I2C_SCL*%
X153797000Y-84201000D02*
X153797000Y-82550000D01*
%TO.N,/USART_3_RX*%
X155956000Y-105283000D02*
X156083000Y-105283000D01*
X148336000Y-105283000D02*
X155956000Y-105283000D01*
%TO.N,/USART_3_TX*%
X148336000Y-104267000D02*
X155448000Y-104267000D01*
X155448000Y-104267000D02*
X155702000Y-104013000D01*
%TO.N,/BB_ROW_3*%
X149606000Y-103378000D02*
X153416000Y-103378000D01*
%TO.N,/BB_ROW_6*%
X162179000Y-91313000D02*
X162179000Y-103251000D01*
X162179000Y-103251000D02*
X160782000Y-104648000D01*
%TO.N,/BB_ROW_7*%
X163195000Y-103759000D02*
X162560000Y-104394000D01*
X163195000Y-90424000D02*
X163195000Y-99822000D01*
X161925000Y-90424000D02*
X163195000Y-90424000D01*
X163195000Y-99822000D02*
X163195000Y-103759000D01*
%TO.N,/BB_ROW_8*%
X163131500Y-89471500D02*
X163957000Y-90297000D01*
X163893500Y-104457500D02*
X163830000Y-104521000D01*
X161861500Y-89471500D02*
X163131500Y-89471500D01*
X163957000Y-104394000D02*
X163893500Y-104457500D01*
X163957000Y-90297000D02*
X163957000Y-104394000D01*
%TO.N,/BB_COLS_2*%
X146177000Y-82042000D02*
X146177000Y-81661000D01*
X146177000Y-81661000D02*
X146190000Y-81648000D01*
X146685000Y-82550000D02*
X146177000Y-82042000D01*
X145690000Y-75420000D02*
X144510000Y-75420000D01*
X146190000Y-81648000D02*
X146190000Y-75920000D01*
X151892000Y-82550000D02*
X146685000Y-82550000D01*
X146190000Y-75920000D02*
X145690000Y-75420000D01*
%TO.N,/BB_COLS_3*%
X154432000Y-78613000D02*
X152654000Y-78613000D01*
X152654000Y-78613000D02*
X152400000Y-78359000D01*
%TO.N,/BB_COLS_4*%
X141190000Y-77970000D02*
X138810000Y-75590000D01*
X141224000Y-85852000D02*
X141190000Y-85818000D01*
X141190000Y-85818000D02*
X141190000Y-77970000D01*
%TO.N,/BB_COLS_5*%
X140081000Y-79121000D02*
X136360000Y-75400000D01*
X140081000Y-85852000D02*
X140081000Y-79121000D01*
%TO.N,/BB_COLS_6*%
X154813000Y-82042000D02*
X154432000Y-81661000D01*
X154813000Y-84201000D02*
X154813000Y-82042000D01*
X154051000Y-81280000D02*
X146939000Y-81280000D01*
X154432000Y-81661000D02*
X154051000Y-81280000D01*
%TO.N,/RST_PA6*%
X139065000Y-101473000D02*
X132842000Y-95250000D01*
X154855540Y-102129270D02*
X154855540Y-101541590D01*
X132842000Y-95250000D02*
X132842000Y-90678000D01*
X154855540Y-101541590D02*
X153135950Y-99822000D01*
X145161000Y-101473000D02*
X139065000Y-101473000D01*
X153135950Y-99822000D02*
X146812000Y-99822000D01*
X146812000Y-99822000D02*
X145161000Y-101473000D01*
X132842000Y-90678000D02*
X132830000Y-90690000D01*
%TO.N,/BL_PA4*%
X131925000Y-93190000D02*
X131953000Y-93218000D01*
X145796000Y-102108000D02*
X138557000Y-102108000D01*
X153289000Y-101219000D02*
X146685000Y-101219000D01*
X146685000Y-101219000D02*
X145796000Y-102108000D01*
X138557000Y-102108000D02*
X131953000Y-95504000D01*
X131953000Y-95504000D02*
X131953000Y-93218000D01*
%TO.N,/DC_PB0*%
X155575000Y-99187000D02*
X139065000Y-99187000D01*
X130556000Y-94361000D02*
X130556000Y-98171000D01*
X139065000Y-99187000D02*
X134239000Y-94361000D01*
%TO.N,/MOSI_SPI*%
X155194000Y-100203000D02*
X155555540Y-100564540D01*
X154151950Y-103124000D02*
X153643950Y-102616000D01*
X155555540Y-102762460D02*
X155194000Y-103124000D01*
X155555540Y-100564540D02*
X155555540Y-102762460D01*
X137795000Y-103505000D02*
X135001000Y-100711000D01*
X149098000Y-102616000D02*
X148209000Y-103505000D01*
X153643950Y-102616000D02*
X149098000Y-102616000D01*
X148209000Y-103505000D02*
X137795000Y-103505000D01*
X155194000Y-103124000D02*
X154151950Y-103124000D01*
%TO.N,/SCK_SPI*%
X153662000Y-102116000D02*
X148890893Y-102116000D01*
X138303000Y-102870000D02*
X137795000Y-102362000D01*
X148890893Y-102116000D02*
X148709000Y-102116000D01*
X154051000Y-101727000D02*
X153662000Y-102116000D01*
X147955000Y-102870000D02*
X138303000Y-102870000D01*
X148709000Y-102116000D02*
X147955000Y-102870000D01*
%TO.N,/USART2_RX*%
X148336000Y-97917000D02*
X147574000Y-97155000D01*
X149797500Y-97917000D02*
X148336000Y-97917000D01*
X147574000Y-97155000D02*
X138303000Y-97155000D01*
%TO.N,/USART2_TX*%
X129286000Y-74803000D02*
X129286000Y-80264000D01*
X135128000Y-91059000D02*
X135128000Y-92710000D01*
X133477000Y-89408000D02*
X135128000Y-91059000D01*
X138938000Y-96520000D02*
X147955000Y-96520000D01*
X135128000Y-92710000D02*
X138938000Y-96520000D01*
%TO.N,Net-(J9-PadA7)*%
X185690000Y-92760000D02*
X184080000Y-92760000D01*
X184080000Y-92760000D02*
X183200000Y-91880000D01*
%TO.N,Net-(J9-PadB5)*%
X177038000Y-83058000D02*
X181991000Y-83058000D01*
X187850000Y-90659500D02*
X187850000Y-89239339D01*
X187850000Y-89239339D02*
X181991000Y-83380339D01*
X181991000Y-83380339D02*
X181991000Y-83058000D01*
%TD*%
%TA.AperFunction,Conductor*%
%TO.N,GND*%
G36*
X197451621Y-61520191D02*
G01*
X197498114Y-61573847D01*
X197509500Y-61626189D01*
X197509500Y-122473500D01*
X197489498Y-122541621D01*
X197435842Y-122588114D01*
X197383500Y-122599500D01*
X114196500Y-122599500D01*
X114128379Y-122579498D01*
X114081886Y-122525842D01*
X114070500Y-122473500D01*
X114070500Y-98164138D01*
X129900758Y-98164138D01*
X129918035Y-98320633D01*
X129972143Y-98468490D01*
X129976380Y-98474796D01*
X129976382Y-98474799D01*
X130010964Y-98526262D01*
X130059958Y-98599172D01*
X130081958Y-98619190D01*
X130170322Y-98699595D01*
X130176410Y-98705135D01*
X130183085Y-98708759D01*
X130308099Y-98776637D01*
X130308101Y-98776638D01*
X130314776Y-98780262D01*
X130322125Y-98782190D01*
X130459719Y-98818287D01*
X130459721Y-98818287D01*
X130467069Y-98820215D01*
X130550380Y-98821524D01*
X130616898Y-98822569D01*
X130616901Y-98822569D01*
X130624495Y-98822688D01*
X130777968Y-98787538D01*
X130918625Y-98716795D01*
X130981796Y-98662842D01*
X131032574Y-98619474D01*
X131032576Y-98619471D01*
X131038348Y-98614542D01*
X131130224Y-98486683D01*
X131188950Y-98340598D01*
X131201208Y-98254468D01*
X131210553Y-98188807D01*
X131210553Y-98188804D01*
X131211134Y-98184723D01*
X131211278Y-98171000D01*
X131192363Y-98014694D01*
X131177102Y-97974306D01*
X131139394Y-97874514D01*
X131139393Y-97874511D01*
X131136710Y-97867412D01*
X131047531Y-97737657D01*
X131041865Y-97732609D01*
X131037986Y-97728209D01*
X131007941Y-97663883D01*
X131006500Y-97644884D01*
X131006500Y-94886954D01*
X131026502Y-94818833D01*
X131035955Y-94806586D01*
X131038348Y-94804542D01*
X131049393Y-94789172D01*
X131102350Y-94715474D01*
X131130224Y-94676683D01*
X131188950Y-94530598D01*
X131211134Y-94374723D01*
X131211278Y-94361000D01*
X131192363Y-94204694D01*
X131136710Y-94057412D01*
X131047531Y-93927657D01*
X130948647Y-93839554D01*
X130935648Y-93827972D01*
X130935645Y-93827970D01*
X130929976Y-93822919D01*
X130790831Y-93749245D01*
X130774122Y-93745048D01*
X130645498Y-93712740D01*
X130645496Y-93712740D01*
X130638128Y-93710889D01*
X130630530Y-93710849D01*
X130630528Y-93710849D01*
X130563319Y-93710497D01*
X130480684Y-93710065D01*
X130473305Y-93711837D01*
X130473301Y-93711837D01*
X130334967Y-93745048D01*
X130334963Y-93745049D01*
X130327588Y-93746820D01*
X130187679Y-93819032D01*
X130181957Y-93824024D01*
X130181955Y-93824025D01*
X130074759Y-93917538D01*
X130074756Y-93917541D01*
X130069034Y-93922533D01*
X130064667Y-93928747D01*
X129998204Y-94023314D01*
X129978501Y-94051348D01*
X129921309Y-94198039D01*
X129920318Y-94205568D01*
X129902819Y-94338484D01*
X129900758Y-94354138D01*
X129918035Y-94510633D01*
X129972143Y-94658490D01*
X129976380Y-94664796D01*
X129976382Y-94664799D01*
X130007870Y-94711657D01*
X130059958Y-94789172D01*
X130065574Y-94794282D01*
X130070542Y-94800038D01*
X130069210Y-94801187D01*
X130101223Y-94853765D01*
X130105500Y-94886317D01*
X130105500Y-97645030D01*
X130085498Y-97713151D01*
X130074020Y-97728184D01*
X130069034Y-97732533D01*
X130032621Y-97784343D01*
X129986756Y-97849603D01*
X129978501Y-97861348D01*
X129921309Y-98008039D01*
X129900758Y-98164138D01*
X114070500Y-98164138D01*
X114070500Y-93211138D01*
X131297758Y-93211138D01*
X131315035Y-93367633D01*
X131369143Y-93515490D01*
X131373380Y-93521796D01*
X131373382Y-93521799D01*
X131403171Y-93566129D01*
X131456958Y-93646172D01*
X131462575Y-93651283D01*
X131467542Y-93657038D01*
X131466210Y-93658187D01*
X131498223Y-93710765D01*
X131502500Y-93743317D01*
X131502500Y-95469780D01*
X131501627Y-95484589D01*
X131497636Y-95518310D01*
X131499328Y-95527574D01*
X131499328Y-95527575D01*
X131508172Y-95576001D01*
X131508822Y-95579904D01*
X131512230Y-95602568D01*
X131517551Y-95637962D01*
X131520679Y-95644475D01*
X131521975Y-95651573D01*
X131549025Y-95703647D01*
X131550768Y-95707137D01*
X131576191Y-95760079D01*
X131581077Y-95765365D01*
X131581110Y-95765413D01*
X131584421Y-95771788D01*
X131588725Y-95776828D01*
X131625952Y-95814055D01*
X131629381Y-95817620D01*
X131668146Y-95859556D01*
X131674505Y-95863249D01*
X131680663Y-95868766D01*
X137441840Y-101629943D01*
X137475866Y-101692255D01*
X137470801Y-101763070D01*
X137426370Y-101819678D01*
X137426679Y-101820032D01*
X137420959Y-101825022D01*
X137420956Y-101825024D01*
X137313759Y-101918538D01*
X137313756Y-101918541D01*
X137308034Y-101923533D01*
X137303667Y-101929747D01*
X137241083Y-102018795D01*
X137217501Y-102052348D01*
X137215025Y-102058699D01*
X137165442Y-102109044D01*
X137096186Y-102124665D01*
X137029478Y-102100363D01*
X137015119Y-102088016D01*
X135689545Y-100762442D01*
X135655519Y-100700130D01*
X135653553Y-100688484D01*
X135637363Y-100554694D01*
X135613873Y-100492529D01*
X135584394Y-100414514D01*
X135584393Y-100414511D01*
X135581710Y-100407412D01*
X135492531Y-100277657D01*
X135445971Y-100236174D01*
X135380648Y-100177972D01*
X135380645Y-100177970D01*
X135374976Y-100172919D01*
X135235831Y-100099245D01*
X135219122Y-100095048D01*
X135090498Y-100062740D01*
X135090496Y-100062740D01*
X135083128Y-100060889D01*
X135075530Y-100060849D01*
X135075528Y-100060849D01*
X135008319Y-100060497D01*
X134925684Y-100060065D01*
X134918305Y-100061837D01*
X134918301Y-100061837D01*
X134779967Y-100095048D01*
X134779963Y-100095049D01*
X134772588Y-100096820D01*
X134632679Y-100169032D01*
X134626957Y-100174024D01*
X134626955Y-100174025D01*
X134519759Y-100267538D01*
X134519756Y-100267541D01*
X134514034Y-100272533D01*
X134509667Y-100278747D01*
X134451602Y-100361365D01*
X134423501Y-100401348D01*
X134366309Y-100548039D01*
X134365318Y-100555568D01*
X134346982Y-100694842D01*
X134345758Y-100704138D01*
X134363035Y-100860633D01*
X134417143Y-101008490D01*
X134421380Y-101014796D01*
X134421382Y-101014799D01*
X134461709Y-101074811D01*
X134504958Y-101139172D01*
X134621410Y-101245135D01*
X134628085Y-101248759D01*
X134753099Y-101316637D01*
X134753101Y-101316638D01*
X134759776Y-101320262D01*
X134767125Y-101322190D01*
X134904718Y-101358287D01*
X134904722Y-101358288D01*
X134912069Y-101360215D01*
X134963697Y-101361026D01*
X135031494Y-101382095D01*
X135050812Y-101397915D01*
X137452247Y-103799350D01*
X137462101Y-103810439D01*
X137477294Y-103829711D01*
X137477298Y-103829715D01*
X137483128Y-103837110D01*
X137490875Y-103842464D01*
X137490879Y-103842468D01*
X137531404Y-103870477D01*
X137534598Y-103872758D01*
X137581817Y-103907635D01*
X137588634Y-103910029D01*
X137594569Y-103914131D01*
X137603544Y-103916969D01*
X137603545Y-103916970D01*
X137625507Y-103923915D01*
X137650475Y-103931812D01*
X137654215Y-103933060D01*
X137700745Y-103949400D01*
X137700748Y-103949401D01*
X137709631Y-103952520D01*
X137716816Y-103952803D01*
X137716889Y-103952817D01*
X137723730Y-103954980D01*
X137730337Y-103955500D01*
X137783006Y-103955500D01*
X137787952Y-103955597D01*
X137844994Y-103957838D01*
X137852100Y-103955954D01*
X137860347Y-103955500D01*
X137953547Y-103955500D01*
X138021668Y-103975502D01*
X138068161Y-104029158D01*
X138078265Y-104099432D01*
X138048771Y-104164012D01*
X138011337Y-104193466D01*
X137934679Y-104233032D01*
X137928957Y-104238024D01*
X137928955Y-104238025D01*
X137821759Y-104331538D01*
X137821756Y-104331541D01*
X137816034Y-104336533D01*
X137811667Y-104342747D01*
X137731017Y-104457500D01*
X137725501Y-104465348D01*
X137668309Y-104612039D01*
X137665398Y-104634152D01*
X137649161Y-104757482D01*
X137647758Y-104768138D01*
X137665035Y-104924633D01*
X137719143Y-105072490D01*
X137723380Y-105078796D01*
X137723382Y-105078799D01*
X137742141Y-105106715D01*
X137806958Y-105203172D01*
X137812574Y-105208282D01*
X137914258Y-105300807D01*
X137923410Y-105309135D01*
X137930085Y-105312759D01*
X138055099Y-105380637D01*
X138055101Y-105380638D01*
X138061776Y-105384262D01*
X138069123Y-105386189D01*
X138069127Y-105386191D01*
X138126330Y-105401197D01*
X138183453Y-105433978D01*
X139427130Y-106677655D01*
X139430783Y-106681464D01*
X139472799Y-106727156D01*
X139509797Y-106750095D01*
X139519548Y-106756797D01*
X139554216Y-106783112D01*
X139568193Y-106788646D01*
X139588202Y-106798709D01*
X139593688Y-106802111D01*
X139593692Y-106802113D01*
X139600986Y-106806635D01*
X139609228Y-106809029D01*
X139609231Y-106809031D01*
X139642784Y-106818779D01*
X139653997Y-106822618D01*
X139694453Y-106838635D01*
X139702996Y-106839533D01*
X139702997Y-106839533D01*
X139709402Y-106840206D01*
X139731380Y-106844518D01*
X139745825Y-106848715D01*
X139752408Y-106849198D01*
X139752411Y-106849199D01*
X139754208Y-106849331D01*
X139754219Y-106849331D01*
X139756515Y-106849500D01*
X139791219Y-106849500D01*
X139804390Y-106850190D01*
X139844454Y-106854401D01*
X139852919Y-106852969D01*
X139852928Y-106852969D01*
X139863000Y-106851265D01*
X139884013Y-106849500D01*
X141451784Y-106849500D01*
X141519905Y-106869502D01*
X141540876Y-106886401D01*
X141552592Y-106898116D01*
X141586619Y-106960427D01*
X141589500Y-106987215D01*
X141589500Y-107650666D01*
X141566587Y-107723117D01*
X141553383Y-107741905D01*
X141535501Y-107767348D01*
X141478309Y-107914039D01*
X141457758Y-108070138D01*
X141475035Y-108226633D01*
X141529143Y-108374490D01*
X141533380Y-108380796D01*
X141533382Y-108380799D01*
X141573709Y-108440811D01*
X141616958Y-108505172D01*
X141733410Y-108611135D01*
X141740085Y-108614759D01*
X141865099Y-108682637D01*
X141865101Y-108682638D01*
X141871776Y-108686262D01*
X141879125Y-108688190D01*
X142016719Y-108724287D01*
X142016721Y-108724287D01*
X142024069Y-108726215D01*
X142107380Y-108727524D01*
X142173898Y-108728569D01*
X142173901Y-108728569D01*
X142181495Y-108728688D01*
X142334968Y-108693538D01*
X142475625Y-108622795D01*
X142501869Y-108600381D01*
X142589574Y-108525474D01*
X142589576Y-108525471D01*
X142595348Y-108520542D01*
X142687224Y-108392683D01*
X142745950Y-108246598D01*
X142768134Y-108090723D01*
X142768278Y-108077000D01*
X142749363Y-107920694D01*
X142698634Y-107786443D01*
X142690500Y-107741905D01*
X142690500Y-106721993D01*
X142690611Y-106716717D01*
X142690796Y-106712310D01*
X142693210Y-106654706D01*
X142691248Y-106646341D01*
X142683273Y-106612338D01*
X142681110Y-106600667D01*
X142676372Y-106566081D01*
X142675206Y-106557568D01*
X142669235Y-106543770D01*
X142662201Y-106522501D01*
X142660729Y-106516225D01*
X142658768Y-106507864D01*
X142654631Y-106500339D01*
X142654630Y-106500336D01*
X142637805Y-106469732D01*
X142632589Y-106459087D01*
X142615305Y-106419145D01*
X142605842Y-106407459D01*
X142593354Y-106388874D01*
X142589290Y-106381482D01*
X142586107Y-106375692D01*
X142579103Y-106367578D01*
X142554567Y-106343042D01*
X142545742Y-106333241D01*
X142525795Y-106308609D01*
X142525793Y-106308607D01*
X142520386Y-106301930D01*
X142505052Y-106291033D01*
X142488945Y-106277421D01*
X142131881Y-105920357D01*
X142128228Y-105916548D01*
X142105896Y-105892262D01*
X142086201Y-105870844D01*
X142049198Y-105847901D01*
X142039448Y-105841200D01*
X142004783Y-105814888D01*
X141990804Y-105809354D01*
X141970801Y-105799293D01*
X141958014Y-105791365D01*
X141949763Y-105788968D01*
X141949761Y-105788967D01*
X141916228Y-105779225D01*
X141904995Y-105775379D01*
X141875470Y-105763689D01*
X141864547Y-105759364D01*
X141856006Y-105758466D01*
X141856005Y-105758466D01*
X141849592Y-105757792D01*
X141827617Y-105753480D01*
X141813175Y-105749285D01*
X141805692Y-105748736D01*
X141804792Y-105748669D01*
X141804781Y-105748669D01*
X141802485Y-105748500D01*
X141767783Y-105748500D01*
X141754613Y-105747810D01*
X141744384Y-105746735D01*
X141714546Y-105743599D01*
X141706081Y-105745031D01*
X141706072Y-105745031D01*
X141696000Y-105746735D01*
X141674987Y-105748500D01*
X140107214Y-105748500D01*
X140039093Y-105728498D01*
X140018119Y-105711595D01*
X138967137Y-104660613D01*
X138938366Y-104616056D01*
X138934994Y-104607133D01*
X138883710Y-104471412D01*
X138794531Y-104341657D01*
X138741144Y-104294091D01*
X138682648Y-104241972D01*
X138682645Y-104241970D01*
X138676976Y-104236919D01*
X138593752Y-104192854D01*
X138542909Y-104143301D01*
X138526927Y-104074127D01*
X138550881Y-104007293D01*
X138607165Y-103964020D01*
X138652711Y-103955500D01*
X147577951Y-103955500D01*
X147646072Y-103975502D01*
X147692565Y-104029158D01*
X147702669Y-104099432D01*
X147702211Y-104101725D01*
X147701309Y-104104039D01*
X147698673Y-104124065D01*
X147683150Y-104241972D01*
X147680758Y-104260138D01*
X147698035Y-104416633D01*
X147752143Y-104564490D01*
X147839958Y-104695172D01*
X147840392Y-104695567D01*
X147868525Y-104757482D01*
X147858286Y-104827736D01*
X147846860Y-104847626D01*
X147765294Y-104963683D01*
X147758501Y-104973348D01*
X147701309Y-105120039D01*
X147700318Y-105127568D01*
X147682735Y-105261125D01*
X147680758Y-105276138D01*
X147698035Y-105432633D01*
X147752143Y-105580490D01*
X147756380Y-105586796D01*
X147756382Y-105586799D01*
X147796709Y-105646811D01*
X147839958Y-105711172D01*
X147897674Y-105763689D01*
X147950466Y-105811726D01*
X147956410Y-105817135D01*
X147977885Y-105828795D01*
X148088099Y-105888637D01*
X148088101Y-105888638D01*
X148094776Y-105892262D01*
X148102125Y-105894190D01*
X148239719Y-105930287D01*
X148239721Y-105930287D01*
X148247069Y-105932215D01*
X148330380Y-105933524D01*
X148396898Y-105934569D01*
X148396901Y-105934569D01*
X148404495Y-105934688D01*
X148557968Y-105899538D01*
X148698625Y-105828795D01*
X148704397Y-105823866D01*
X148704399Y-105823864D01*
X148774854Y-105763689D01*
X148839644Y-105734658D01*
X148856685Y-105733500D01*
X155435750Y-105733500D01*
X155503871Y-105753502D01*
X155520549Y-105766306D01*
X155570794Y-105812025D01*
X155576410Y-105817135D01*
X155583083Y-105820758D01*
X155708099Y-105888637D01*
X155708101Y-105888638D01*
X155714776Y-105892262D01*
X155722125Y-105894190D01*
X155859719Y-105930287D01*
X155859721Y-105930287D01*
X155867069Y-105932215D01*
X155950380Y-105933524D01*
X156016898Y-105934569D01*
X156016901Y-105934569D01*
X156024495Y-105934688D01*
X156177968Y-105899538D01*
X156318625Y-105828795D01*
X156381167Y-105775379D01*
X156432574Y-105731474D01*
X156432576Y-105731471D01*
X156438348Y-105726542D01*
X156530224Y-105598683D01*
X156588950Y-105452598D01*
X156611134Y-105296723D01*
X156611278Y-105283000D01*
X156592363Y-105126694D01*
X156574265Y-105078799D01*
X156539394Y-104986514D01*
X156539393Y-104986511D01*
X156536710Y-104979412D01*
X156447531Y-104849657D01*
X156400971Y-104808174D01*
X156335648Y-104749972D01*
X156335645Y-104749970D01*
X156329976Y-104744919D01*
X156195498Y-104673716D01*
X156162071Y-104641138D01*
X160126758Y-104641138D01*
X160144035Y-104797633D01*
X160198143Y-104945490D01*
X160202380Y-104951796D01*
X160202382Y-104951799D01*
X160233670Y-104998360D01*
X160285958Y-105076172D01*
X160402410Y-105182135D01*
X160409085Y-105185759D01*
X160534099Y-105253637D01*
X160534101Y-105253638D01*
X160540776Y-105257262D01*
X160548125Y-105259190D01*
X160685719Y-105295287D01*
X160685721Y-105295287D01*
X160693069Y-105297215D01*
X160776380Y-105298524D01*
X160842898Y-105299569D01*
X160842901Y-105299569D01*
X160850495Y-105299688D01*
X161003968Y-105264538D01*
X161144625Y-105193795D01*
X161222167Y-105127568D01*
X161258574Y-105096474D01*
X161258576Y-105096471D01*
X161264348Y-105091542D01*
X161356224Y-104963683D01*
X161414950Y-104817598D01*
X161436480Y-104666316D01*
X161465881Y-104601694D01*
X161472128Y-104594975D01*
X161696868Y-104370235D01*
X161759180Y-104336209D01*
X161829995Y-104341274D01*
X161886831Y-104383821D01*
X161911201Y-104445503D01*
X161922035Y-104543633D01*
X161976143Y-104691490D01*
X161980380Y-104697796D01*
X161980382Y-104697799D01*
X162005621Y-104735358D01*
X162063958Y-104822172D01*
X162088608Y-104844602D01*
X162139360Y-104890782D01*
X162180410Y-104928135D01*
X162232902Y-104956636D01*
X162312099Y-104999637D01*
X162312101Y-104999638D01*
X162318776Y-105003262D01*
X162326125Y-105005190D01*
X162463719Y-105041287D01*
X162463721Y-105041287D01*
X162471069Y-105043215D01*
X162554380Y-105044524D01*
X162620898Y-105045569D01*
X162620901Y-105045569D01*
X162628495Y-105045688D01*
X162781968Y-105010538D01*
X162922625Y-104939795D01*
X162985995Y-104885672D01*
X163036574Y-104842474D01*
X163036576Y-104842471D01*
X163042348Y-104837542D01*
X163046782Y-104831372D01*
X163103351Y-104752649D01*
X163159345Y-104709001D01*
X163230049Y-104702555D01*
X163293013Y-104735358D01*
X163310253Y-104755898D01*
X163397458Y-104885672D01*
X163440276Y-104924633D01*
X163475447Y-104956636D01*
X163513910Y-104991635D01*
X163520585Y-104995259D01*
X163645599Y-105063137D01*
X163645601Y-105063138D01*
X163652276Y-105066762D01*
X163659625Y-105068690D01*
X163797219Y-105104787D01*
X163797221Y-105104787D01*
X163804569Y-105106715D01*
X163887880Y-105108024D01*
X163954398Y-105109069D01*
X163954401Y-105109069D01*
X163961995Y-105109188D01*
X164115468Y-105074038D01*
X164256125Y-105003295D01*
X164284088Y-104979412D01*
X164370074Y-104905974D01*
X164370076Y-104905971D01*
X164375848Y-104901042D01*
X164467724Y-104773183D01*
X164526450Y-104627098D01*
X164546668Y-104485039D01*
X164548053Y-104475307D01*
X164548053Y-104475304D01*
X164548634Y-104471223D01*
X164548778Y-104457500D01*
X164529863Y-104301194D01*
X164502791Y-104229549D01*
X164476894Y-104161014D01*
X164476893Y-104161011D01*
X164474210Y-104153912D01*
X164429660Y-104089092D01*
X164407500Y-104017724D01*
X164407500Y-97021138D01*
X169778758Y-97021138D01*
X169796035Y-97177633D01*
X169850143Y-97325490D01*
X169854380Y-97331796D01*
X169854382Y-97331799D01*
X169868592Y-97352945D01*
X169937958Y-97456172D01*
X169960270Y-97476474D01*
X170021687Y-97532359D01*
X170054410Y-97562135D01*
X170103948Y-97589032D01*
X170186099Y-97633637D01*
X170186101Y-97633638D01*
X170192776Y-97637262D01*
X170200125Y-97639190D01*
X170337719Y-97675287D01*
X170337721Y-97675287D01*
X170345069Y-97677215D01*
X170428380Y-97678524D01*
X170494898Y-97679569D01*
X170494901Y-97679569D01*
X170502495Y-97679688D01*
X170655968Y-97644538D01*
X170796625Y-97573795D01*
X170838120Y-97538355D01*
X170910574Y-97476474D01*
X170910576Y-97476471D01*
X170916348Y-97471542D01*
X170920777Y-97465379D01*
X170925925Y-97459780D01*
X170927012Y-97460780D01*
X170976344Y-97422326D01*
X171022672Y-97413500D01*
X177351330Y-97413500D01*
X177420220Y-97435485D01*
X177420410Y-97435135D01*
X177421055Y-97435485D01*
X177476420Y-97465546D01*
X177552099Y-97506637D01*
X177552101Y-97506638D01*
X177558776Y-97510262D01*
X177566125Y-97512190D01*
X177703719Y-97548287D01*
X177703721Y-97548287D01*
X177711069Y-97550215D01*
X177794380Y-97551524D01*
X177860898Y-97552569D01*
X177860901Y-97552569D01*
X177868495Y-97552688D01*
X178021968Y-97517538D01*
X178162625Y-97446795D01*
X178199371Y-97415411D01*
X178276574Y-97349474D01*
X178276576Y-97349471D01*
X178282348Y-97344542D01*
X178374224Y-97216683D01*
X178432950Y-97070598D01*
X178444111Y-96992175D01*
X178454553Y-96918807D01*
X178454553Y-96918804D01*
X178455134Y-96914723D01*
X178455278Y-96901000D01*
X178436363Y-96744694D01*
X178424059Y-96712131D01*
X178409793Y-96674376D01*
X189004455Y-96674376D01*
X189005191Y-96681379D01*
X189005191Y-96681380D01*
X189022425Y-96845348D01*
X189023227Y-96852983D01*
X189025498Y-96859654D01*
X189077908Y-97013607D01*
X189081103Y-97022993D01*
X189084793Y-97028991D01*
X189084794Y-97028993D01*
X189110390Y-97070598D01*
X189175206Y-97175955D01*
X189180132Y-97180986D01*
X189180135Y-97180989D01*
X189221128Y-97222849D01*
X189300859Y-97304268D01*
X189306784Y-97308087D01*
X189306786Y-97308088D01*
X189410663Y-97375032D01*
X189451817Y-97401554D01*
X189458437Y-97403963D01*
X189458440Y-97403965D01*
X189613961Y-97460570D01*
X189613964Y-97460571D01*
X189620578Y-97462978D01*
X189677308Y-97470144D01*
X189755355Y-97480004D01*
X189755358Y-97480004D01*
X189759283Y-97480500D01*
X190955155Y-97480500D01*
X191088472Y-97465546D01*
X191095847Y-97462978D01*
X191191710Y-97429595D01*
X191258073Y-97406485D01*
X191265965Y-97401554D01*
X191404401Y-97315049D01*
X191410375Y-97311316D01*
X191474365Y-97247771D01*
X191532810Y-97189733D01*
X191532813Y-97189729D01*
X191537807Y-97184770D01*
X191542337Y-97177633D01*
X191630258Y-97039090D01*
X191634037Y-97033136D01*
X191677671Y-96910598D01*
X191691919Y-96870586D01*
X191691920Y-96870581D01*
X191694281Y-96863951D01*
X191695114Y-96856965D01*
X191695115Y-96856961D01*
X191714711Y-96692617D01*
X191715545Y-96685624D01*
X191714363Y-96674376D01*
X193434455Y-96674376D01*
X193435191Y-96681379D01*
X193435191Y-96681380D01*
X193452425Y-96845348D01*
X193453227Y-96852983D01*
X193455498Y-96859654D01*
X193507908Y-97013607D01*
X193511103Y-97022993D01*
X193514793Y-97028991D01*
X193514794Y-97028993D01*
X193540390Y-97070598D01*
X193605206Y-97175955D01*
X193610132Y-97180986D01*
X193610135Y-97180989D01*
X193651128Y-97222849D01*
X193730859Y-97304268D01*
X193736784Y-97308087D01*
X193736786Y-97308088D01*
X193840663Y-97375032D01*
X193881817Y-97401554D01*
X193888437Y-97403963D01*
X193888440Y-97403965D01*
X194043961Y-97460570D01*
X194043964Y-97460571D01*
X194050578Y-97462978D01*
X194107308Y-97470144D01*
X194185355Y-97480004D01*
X194185358Y-97480004D01*
X194189283Y-97480500D01*
X194885155Y-97480500D01*
X195018472Y-97465546D01*
X195025847Y-97462978D01*
X195121710Y-97429595D01*
X195188073Y-97406485D01*
X195195965Y-97401554D01*
X195334401Y-97315049D01*
X195340375Y-97311316D01*
X195404365Y-97247771D01*
X195462810Y-97189733D01*
X195462813Y-97189729D01*
X195467807Y-97184770D01*
X195472337Y-97177633D01*
X195560258Y-97039090D01*
X195564037Y-97033136D01*
X195607671Y-96910598D01*
X195621919Y-96870586D01*
X195621920Y-96870581D01*
X195624281Y-96863951D01*
X195625114Y-96856965D01*
X195625115Y-96856961D01*
X195644711Y-96692617D01*
X195645545Y-96685624D01*
X195638440Y-96618025D01*
X195627510Y-96514025D01*
X195627509Y-96514021D01*
X195626773Y-96507017D01*
X195620780Y-96489414D01*
X195571168Y-96343677D01*
X195571167Y-96343674D01*
X195568897Y-96337007D01*
X195538376Y-96287395D01*
X195521846Y-96260526D01*
X195474794Y-96184045D01*
X195469868Y-96179014D01*
X195469865Y-96179011D01*
X195379425Y-96086657D01*
X195349141Y-96055732D01*
X195332413Y-96044951D01*
X195204109Y-95962265D01*
X195198183Y-95958446D01*
X195191563Y-95956037D01*
X195191560Y-95956035D01*
X195036039Y-95899430D01*
X195036036Y-95899429D01*
X195029422Y-95897022D01*
X194972692Y-95889856D01*
X194894645Y-95879996D01*
X194894642Y-95879996D01*
X194890717Y-95879500D01*
X194194845Y-95879500D01*
X194061528Y-95894454D01*
X194054875Y-95896771D01*
X194054874Y-95896771D01*
X194028889Y-95905820D01*
X193891927Y-95953515D01*
X193885953Y-95957248D01*
X193885951Y-95957249D01*
X193765373Y-96032595D01*
X193739625Y-96048684D01*
X193675635Y-96112229D01*
X193617190Y-96170267D01*
X193617187Y-96170271D01*
X193612193Y-96175230D01*
X193608419Y-96181176D01*
X193608418Y-96181178D01*
X193575442Y-96233140D01*
X193515963Y-96326864D01*
X193513598Y-96333506D01*
X193458081Y-96489414D01*
X193458080Y-96489419D01*
X193455719Y-96496049D01*
X193454886Y-96503035D01*
X193454885Y-96503039D01*
X193449965Y-96544301D01*
X193434455Y-96674376D01*
X191714363Y-96674376D01*
X191708440Y-96618025D01*
X191697510Y-96514025D01*
X191697509Y-96514021D01*
X191696773Y-96507017D01*
X191690780Y-96489414D01*
X191641168Y-96343677D01*
X191641167Y-96343674D01*
X191638897Y-96337007D01*
X191608376Y-96287395D01*
X191591846Y-96260526D01*
X191544794Y-96184045D01*
X191539868Y-96179014D01*
X191539865Y-96179011D01*
X191449425Y-96086657D01*
X191419141Y-96055732D01*
X191296696Y-95976821D01*
X191250274Y-95923110D01*
X191240259Y-95852823D01*
X191269834Y-95788280D01*
X191290893Y-95768977D01*
X191335873Y-95736297D01*
X191342287Y-95731637D01*
X191447856Y-95604026D01*
X191518373Y-95454171D01*
X191533703Y-95373805D01*
X191547921Y-95299272D01*
X191547921Y-95299270D01*
X191549406Y-95291486D01*
X191540335Y-95147301D01*
X191539505Y-95134107D01*
X191539505Y-95134105D01*
X191539007Y-95126195D01*
X191536558Y-95118657D01*
X191490279Y-94976225D01*
X191490278Y-94976222D01*
X191487828Y-94968683D01*
X191399086Y-94828848D01*
X191370143Y-94801668D01*
X191284132Y-94720898D01*
X191278356Y-94715474D01*
X191133224Y-94635687D01*
X191125549Y-94633716D01*
X191125548Y-94633716D01*
X190980487Y-94596471D01*
X190980484Y-94596471D01*
X190972809Y-94594500D01*
X190848758Y-94594500D01*
X190801286Y-94600497D01*
X190733553Y-94609053D01*
X190733550Y-94609054D01*
X190725688Y-94610047D01*
X190718321Y-94612964D01*
X190718320Y-94612964D01*
X190579070Y-94668097D01*
X190579067Y-94668098D01*
X190571701Y-94671015D01*
X190565290Y-94675673D01*
X190565288Y-94675674D01*
X190555413Y-94682849D01*
X190437713Y-94768363D01*
X190332144Y-94895974D01*
X190261627Y-95045829D01*
X190260141Y-95053620D01*
X190244788Y-95134107D01*
X190230594Y-95208514D01*
X190233180Y-95249621D01*
X190237970Y-95325747D01*
X190240993Y-95373805D01*
X190243442Y-95381341D01*
X190243442Y-95381343D01*
X190287946Y-95518310D01*
X190292172Y-95531317D01*
X190380914Y-95671152D01*
X190384431Y-95674455D01*
X190411895Y-95738426D01*
X190400186Y-95808451D01*
X190352478Y-95861029D01*
X190286800Y-95879500D01*
X189764845Y-95879500D01*
X189631528Y-95894454D01*
X189624875Y-95896771D01*
X189624874Y-95896771D01*
X189598889Y-95905820D01*
X189461927Y-95953515D01*
X189455953Y-95957248D01*
X189455951Y-95957249D01*
X189335373Y-96032595D01*
X189309625Y-96048684D01*
X189245635Y-96112229D01*
X189187190Y-96170267D01*
X189187187Y-96170271D01*
X189182193Y-96175230D01*
X189178419Y-96181176D01*
X189178418Y-96181178D01*
X189145442Y-96233140D01*
X189085963Y-96326864D01*
X189083598Y-96333506D01*
X189028081Y-96489414D01*
X189028080Y-96489419D01*
X189025719Y-96496049D01*
X189024886Y-96503035D01*
X189024885Y-96503039D01*
X189019965Y-96544301D01*
X189004455Y-96674376D01*
X178409793Y-96674376D01*
X178383394Y-96604514D01*
X178383393Y-96604511D01*
X178380710Y-96597412D01*
X178291531Y-96467657D01*
X178221529Y-96405287D01*
X178179648Y-96367972D01*
X178179645Y-96367970D01*
X178173976Y-96362919D01*
X178137635Y-96343677D01*
X178052998Y-96298864D01*
X178034831Y-96289245D01*
X178018122Y-96285048D01*
X177889498Y-96252740D01*
X177889496Y-96252740D01*
X177882128Y-96250889D01*
X177874530Y-96250849D01*
X177874528Y-96250849D01*
X177807319Y-96250497D01*
X177724684Y-96250065D01*
X177717305Y-96251837D01*
X177717301Y-96251837D01*
X177578967Y-96285048D01*
X177578963Y-96285049D01*
X177571588Y-96286820D01*
X177431679Y-96359032D01*
X177425957Y-96364024D01*
X177425955Y-96364025D01*
X177318756Y-96457541D01*
X177313034Y-96462533D01*
X177308667Y-96468746D01*
X177306809Y-96470810D01*
X177246363Y-96508050D01*
X177213173Y-96512500D01*
X170878353Y-96512500D01*
X170808890Y-96490734D01*
X170807976Y-96489919D01*
X170801262Y-96486364D01*
X170801259Y-96486362D01*
X170675543Y-96419799D01*
X170675544Y-96419799D01*
X170668831Y-96416245D01*
X170652122Y-96412048D01*
X170523498Y-96379740D01*
X170523496Y-96379740D01*
X170516128Y-96377889D01*
X170508530Y-96377849D01*
X170508528Y-96377849D01*
X170441319Y-96377497D01*
X170358684Y-96377065D01*
X170351305Y-96378837D01*
X170351301Y-96378837D01*
X170212967Y-96412048D01*
X170212963Y-96412049D01*
X170205588Y-96413820D01*
X170198843Y-96417301D01*
X170198844Y-96417301D01*
X170089152Y-96473917D01*
X170065679Y-96486032D01*
X170059957Y-96491024D01*
X170059955Y-96491025D01*
X169952759Y-96584538D01*
X169952756Y-96584541D01*
X169947034Y-96589533D01*
X169908269Y-96644689D01*
X169882483Y-96681380D01*
X169856501Y-96718348D01*
X169799309Y-96865039D01*
X169794575Y-96901000D01*
X169780450Y-97008288D01*
X169778758Y-97021138D01*
X164407500Y-97021138D01*
X164407500Y-94002729D01*
X180294092Y-94002729D01*
X180311369Y-94159224D01*
X180365477Y-94307081D01*
X180369714Y-94313387D01*
X180369716Y-94313390D01*
X180404487Y-94365134D01*
X180453292Y-94437763D01*
X180475604Y-94458065D01*
X180547046Y-94523072D01*
X180569744Y-94543726D01*
X180576419Y-94547350D01*
X180701433Y-94615228D01*
X180701435Y-94615229D01*
X180708110Y-94618853D01*
X180715459Y-94620781D01*
X180853053Y-94656878D01*
X180853055Y-94656878D01*
X180860403Y-94658806D01*
X180943714Y-94660115D01*
X181010232Y-94661160D01*
X181010235Y-94661160D01*
X181017829Y-94661279D01*
X181171302Y-94626129D01*
X181311959Y-94555386D01*
X181373197Y-94503084D01*
X181425908Y-94458065D01*
X181425910Y-94458062D01*
X181431682Y-94453133D01*
X181523558Y-94325274D01*
X181582284Y-94179189D01*
X181589287Y-94129984D01*
X181603887Y-94027398D01*
X181603887Y-94027395D01*
X181604468Y-94023314D01*
X181604612Y-94009591D01*
X181585697Y-93853285D01*
X181545685Y-93747395D01*
X181532728Y-93713105D01*
X181532727Y-93713102D01*
X181530044Y-93706003D01*
X181525746Y-93699749D01*
X181525742Y-93699742D01*
X181447661Y-93586135D01*
X181425500Y-93514767D01*
X181425500Y-91872611D01*
X182494394Y-91872611D01*
X182512999Y-92041135D01*
X182545754Y-92130642D01*
X182564022Y-92180560D01*
X182571266Y-92200356D01*
X182665830Y-92341083D01*
X182671442Y-92346190D01*
X182671445Y-92346193D01*
X182785612Y-92450077D01*
X182785616Y-92450080D01*
X182791233Y-92455191D01*
X182797906Y-92458814D01*
X182797910Y-92458817D01*
X182933558Y-92532467D01*
X182933560Y-92532468D01*
X182940235Y-92536092D01*
X182947584Y-92538020D01*
X183096883Y-92577188D01*
X183096885Y-92577188D01*
X183104233Y-92579116D01*
X183213503Y-92580832D01*
X183281300Y-92601901D01*
X183300618Y-92617721D01*
X183737247Y-93054350D01*
X183747101Y-93065439D01*
X183762294Y-93084710D01*
X183768128Y-93092110D01*
X183775876Y-93097465D01*
X183775878Y-93097467D01*
X183816400Y-93125474D01*
X183819619Y-93127774D01*
X183866817Y-93162634D01*
X183873631Y-93165027D01*
X183879569Y-93169131D01*
X183888546Y-93171970D01*
X183888548Y-93171971D01*
X183935517Y-93186825D01*
X183939266Y-93188076D01*
X183994631Y-93207519D01*
X184001818Y-93207801D01*
X184001880Y-93207813D01*
X184008730Y-93209980D01*
X184015337Y-93210500D01*
X184068016Y-93210500D01*
X184072962Y-93210597D01*
X184129994Y-93212838D01*
X184137100Y-93210954D01*
X184145347Y-93210500D01*
X185095454Y-93210500D01*
X185163575Y-93230502D01*
X185180254Y-93243307D01*
X185275612Y-93330077D01*
X185275616Y-93330080D01*
X185281233Y-93335191D01*
X185287906Y-93338814D01*
X185287910Y-93338817D01*
X185423558Y-93412467D01*
X185423560Y-93412468D01*
X185430235Y-93416092D01*
X185437584Y-93418020D01*
X185586883Y-93457188D01*
X185586885Y-93457188D01*
X185594233Y-93459116D01*
X185680609Y-93460473D01*
X185756161Y-93461660D01*
X185756164Y-93461660D01*
X185763760Y-93461779D01*
X185771165Y-93460083D01*
X185771166Y-93460083D01*
X185831586Y-93446245D01*
X185929029Y-93423928D01*
X186080498Y-93347747D01*
X186209423Y-93237634D01*
X186308361Y-93099947D01*
X186311194Y-93092900D01*
X186368766Y-92949687D01*
X186368767Y-92949685D01*
X186371601Y-92942634D01*
X186394462Y-92782001D01*
X186394909Y-92778862D01*
X186394909Y-92778859D01*
X186395490Y-92774778D01*
X186395645Y-92760000D01*
X186375276Y-92591680D01*
X186315345Y-92433077D01*
X186247789Y-92334783D01*
X186223614Y-92299608D01*
X186223613Y-92299607D01*
X186219312Y-92293349D01*
X186202589Y-92278449D01*
X186098392Y-92185612D01*
X186098388Y-92185610D01*
X186092721Y-92180560D01*
X185942881Y-92101224D01*
X185778441Y-92059919D01*
X185770843Y-92059879D01*
X185770841Y-92059879D01*
X185693668Y-92059475D01*
X185608895Y-92059031D01*
X185601508Y-92060805D01*
X185601504Y-92060805D01*
X185458162Y-92095220D01*
X185444032Y-92098612D01*
X185437288Y-92102093D01*
X185437285Y-92102094D01*
X185432089Y-92104776D01*
X185293369Y-92176375D01*
X185183070Y-92272595D01*
X185176359Y-92278449D01*
X185111877Y-92308157D01*
X185093530Y-92309500D01*
X184318793Y-92309500D01*
X184250672Y-92289498D01*
X184229698Y-92272595D01*
X183942382Y-91985279D01*
X183908356Y-91922967D01*
X183906328Y-91894787D01*
X183905490Y-91894778D01*
X183905602Y-91884135D01*
X183905602Y-91884129D01*
X183905645Y-91880000D01*
X183903840Y-91865080D01*
X183900601Y-91838317D01*
X183885276Y-91711680D01*
X183825345Y-91553077D01*
X183729312Y-91413349D01*
X183717514Y-91402837D01*
X183608392Y-91305612D01*
X183608388Y-91305610D01*
X183602721Y-91300560D01*
X183452881Y-91221224D01*
X183288441Y-91179919D01*
X183280843Y-91179879D01*
X183280841Y-91179879D01*
X183203668Y-91179475D01*
X183118895Y-91179031D01*
X183111508Y-91180805D01*
X183111504Y-91180805D01*
X182968162Y-91215220D01*
X182954032Y-91218612D01*
X182947288Y-91222093D01*
X182947285Y-91222094D01*
X182810117Y-91292892D01*
X182803369Y-91296375D01*
X182797647Y-91301367D01*
X182797645Y-91301368D01*
X182772357Y-91323428D01*
X182675604Y-91407831D01*
X182578113Y-91546547D01*
X182516524Y-91704513D01*
X182515532Y-91712046D01*
X182515532Y-91712047D01*
X182498909Y-91838317D01*
X182494394Y-91872611D01*
X181425500Y-91872611D01*
X181425500Y-90822954D01*
X181445502Y-90754833D01*
X181454955Y-90742586D01*
X181457348Y-90740542D01*
X181468393Y-90725172D01*
X181502289Y-90678000D01*
X181549224Y-90612683D01*
X181607950Y-90466598D01*
X181626013Y-90339680D01*
X181629553Y-90314807D01*
X181629553Y-90314804D01*
X181630134Y-90310723D01*
X181630278Y-90297000D01*
X181611363Y-90140694D01*
X181590803Y-90086284D01*
X181558394Y-90000514D01*
X181558393Y-90000511D01*
X181555710Y-89993412D01*
X181466531Y-89863657D01*
X181414000Y-89816853D01*
X181354648Y-89763972D01*
X181354645Y-89763970D01*
X181348976Y-89758919D01*
X181334619Y-89751317D01*
X181216543Y-89688799D01*
X181216544Y-89688799D01*
X181209831Y-89685245D01*
X181200177Y-89682820D01*
X181064498Y-89648740D01*
X181064496Y-89648740D01*
X181057128Y-89646889D01*
X181049530Y-89646849D01*
X181049528Y-89646849D01*
X180982319Y-89646497D01*
X180899684Y-89646065D01*
X180892305Y-89647837D01*
X180892301Y-89647837D01*
X180753967Y-89681048D01*
X180753963Y-89681049D01*
X180746588Y-89682820D01*
X180690454Y-89711793D01*
X180613877Y-89751317D01*
X180606679Y-89755032D01*
X180600957Y-89760024D01*
X180600955Y-89760025D01*
X180493759Y-89853538D01*
X180493756Y-89853541D01*
X180488034Y-89858533D01*
X180483667Y-89864747D01*
X180407234Y-89973500D01*
X180397501Y-89987348D01*
X180340309Y-90134039D01*
X180339318Y-90141568D01*
X180321378Y-90277834D01*
X180319758Y-90290138D01*
X180337035Y-90446633D01*
X180391143Y-90594490D01*
X180395380Y-90600796D01*
X180395382Y-90600799D01*
X180424802Y-90644580D01*
X180478958Y-90725172D01*
X180484575Y-90730283D01*
X180489542Y-90736038D01*
X180488210Y-90737187D01*
X180520223Y-90789765D01*
X180524500Y-90822317D01*
X180524500Y-93459634D01*
X180504498Y-93527755D01*
X180481330Y-93554582D01*
X180472187Y-93562558D01*
X180462368Y-93571124D01*
X180458001Y-93577338D01*
X180380499Y-93687612D01*
X180371835Y-93699939D01*
X180314643Y-93846630D01*
X180313652Y-93854159D01*
X180303976Y-93927657D01*
X180294092Y-94002729D01*
X164407500Y-94002729D01*
X164407500Y-90331219D01*
X164408373Y-90316410D01*
X164411257Y-90292041D01*
X164412364Y-90282689D01*
X164410672Y-90273426D01*
X164410672Y-90273419D01*
X164401825Y-90224982D01*
X164401174Y-90221075D01*
X164393850Y-90172356D01*
X164393850Y-90172355D01*
X164392449Y-90163038D01*
X164389321Y-90156525D01*
X164388025Y-90149427D01*
X164360972Y-90097347D01*
X164359223Y-90093845D01*
X164337887Y-90049413D01*
X164337886Y-90049412D01*
X164333809Y-90040921D01*
X164328923Y-90035636D01*
X164328892Y-90035589D01*
X164325579Y-90029211D01*
X164321275Y-90024172D01*
X164284048Y-89986945D01*
X164280618Y-89983379D01*
X164248246Y-89948359D01*
X164241854Y-89941444D01*
X164235495Y-89937751D01*
X164229337Y-89932234D01*
X163474253Y-89177150D01*
X163464399Y-89166061D01*
X163449207Y-89146791D01*
X163449205Y-89146789D01*
X163443372Y-89139390D01*
X163435625Y-89134035D01*
X163435623Y-89134034D01*
X163400652Y-89109865D01*
X163395115Y-89106038D01*
X163391903Y-89103743D01*
X163382941Y-89097123D01*
X163344684Y-89068866D01*
X163337868Y-89066473D01*
X163331931Y-89062369D01*
X163322951Y-89059529D01*
X163322949Y-89059528D01*
X163302783Y-89053150D01*
X163275981Y-89044674D01*
X163272250Y-89043429D01*
X163225763Y-89027104D01*
X163225761Y-89027104D01*
X163216869Y-89023981D01*
X163209681Y-89023699D01*
X163209622Y-89023688D01*
X163202770Y-89021520D01*
X163196163Y-89021000D01*
X163143484Y-89021000D01*
X163138537Y-89020903D01*
X163081506Y-89018662D01*
X163074400Y-89020546D01*
X163066153Y-89021000D01*
X162381763Y-89021000D01*
X162313642Y-89000998D01*
X162297944Y-88989076D01*
X162241148Y-88938472D01*
X162241145Y-88938470D01*
X162235476Y-88933419D01*
X162227667Y-88929284D01*
X162141785Y-88883812D01*
X162096331Y-88859745D01*
X162086677Y-88857320D01*
X161950998Y-88823240D01*
X161950996Y-88823240D01*
X161943628Y-88821389D01*
X161936030Y-88821349D01*
X161936028Y-88821349D01*
X161868819Y-88820997D01*
X161786184Y-88820565D01*
X161778805Y-88822337D01*
X161778801Y-88822337D01*
X161640467Y-88855548D01*
X161640463Y-88855549D01*
X161633088Y-88857320D01*
X161571403Y-88889158D01*
X161500569Y-88925718D01*
X161493179Y-88929532D01*
X161487457Y-88934524D01*
X161487455Y-88934525D01*
X161380259Y-89028038D01*
X161380256Y-89028041D01*
X161374534Y-89033033D01*
X161366347Y-89044682D01*
X161299785Y-89139390D01*
X161284001Y-89161848D01*
X161226809Y-89308539D01*
X161220810Y-89354107D01*
X161208008Y-89451349D01*
X161206258Y-89464638D01*
X161223535Y-89621133D01*
X161277643Y-89768990D01*
X161365458Y-89899672D01*
X161371077Y-89904785D01*
X161375057Y-89909396D01*
X161404427Y-89974033D01*
X161394188Y-90044287D01*
X161382763Y-90064176D01*
X161380566Y-90067301D01*
X161357612Y-90099962D01*
X161347501Y-90114348D01*
X161290309Y-90261039D01*
X161285575Y-90297000D01*
X161276207Y-90368157D01*
X161269758Y-90417138D01*
X161287035Y-90573633D01*
X161341143Y-90721490D01*
X161345380Y-90727796D01*
X161345382Y-90727799D01*
X161363578Y-90754877D01*
X161428958Y-90852172D01*
X161434574Y-90857282D01*
X161535775Y-90949368D01*
X161572697Y-91010009D01*
X161570974Y-91080984D01*
X161568374Y-91088314D01*
X161544309Y-91150039D01*
X161537508Y-91201700D01*
X161524857Y-91297793D01*
X161523758Y-91306138D01*
X161541035Y-91462633D01*
X161595143Y-91610490D01*
X161599380Y-91616796D01*
X161599382Y-91616799D01*
X161639709Y-91676811D01*
X161682958Y-91741172D01*
X161688575Y-91746283D01*
X161693542Y-91752038D01*
X161692210Y-91753187D01*
X161724223Y-91805765D01*
X161728500Y-91838317D01*
X161728500Y-103012207D01*
X161708498Y-103080328D01*
X161691595Y-103101302D01*
X160832546Y-103960351D01*
X160770234Y-103994377D01*
X160742792Y-103997254D01*
X160706684Y-103997065D01*
X160699305Y-103998837D01*
X160699301Y-103998837D01*
X160560967Y-104032048D01*
X160560963Y-104032049D01*
X160553588Y-104033820D01*
X160413679Y-104106032D01*
X160407957Y-104111024D01*
X160407955Y-104111025D01*
X160300759Y-104204538D01*
X160300756Y-104204541D01*
X160295034Y-104209533D01*
X160264761Y-104252607D01*
X160211294Y-104328683D01*
X160204501Y-104338348D01*
X160147309Y-104485039D01*
X160146318Y-104492568D01*
X160127931Y-104632230D01*
X160126758Y-104641138D01*
X156162071Y-104641138D01*
X156144656Y-104624165D01*
X156128674Y-104554990D01*
X156152628Y-104488157D01*
X156172627Y-104466553D01*
X156178573Y-104461475D01*
X156178576Y-104461472D01*
X156184348Y-104456542D01*
X156276224Y-104328683D01*
X156284244Y-104308734D01*
X156314542Y-104233364D01*
X156334950Y-104182598D01*
X156345847Y-104106032D01*
X156356553Y-104030807D01*
X156356553Y-104030804D01*
X156357134Y-104026723D01*
X156357202Y-104020254D01*
X156357235Y-104017134D01*
X156357235Y-104017128D01*
X156357278Y-104013000D01*
X156338363Y-103856694D01*
X156320885Y-103810439D01*
X156285394Y-103716514D01*
X156285393Y-103716511D01*
X156282710Y-103709412D01*
X156193531Y-103579657D01*
X156135141Y-103527633D01*
X156081648Y-103479972D01*
X156081645Y-103479970D01*
X156075976Y-103474919D01*
X155936831Y-103401245D01*
X155929469Y-103399396D01*
X155929467Y-103399395D01*
X155891488Y-103389856D01*
X155846296Y-103378504D01*
X155785101Y-103342511D01*
X155753080Y-103279145D01*
X155760400Y-103208527D01*
X155787897Y-103167206D01*
X155849890Y-103105213D01*
X155860979Y-103095359D01*
X155880251Y-103080166D01*
X155880255Y-103080162D01*
X155887650Y-103074332D01*
X155893004Y-103066585D01*
X155893008Y-103066581D01*
X155921017Y-103026056D01*
X155923298Y-103022862D01*
X155958175Y-102975643D01*
X155960569Y-102968826D01*
X155964671Y-102962891D01*
X155982352Y-102906985D01*
X155983600Y-102903245D01*
X155999940Y-102856715D01*
X155999941Y-102856712D01*
X156003060Y-102847829D01*
X156003343Y-102840644D01*
X156003357Y-102840571D01*
X156005520Y-102833730D01*
X156006040Y-102827123D01*
X156006040Y-102774454D01*
X156006137Y-102769508D01*
X156008008Y-102721875D01*
X156008378Y-102712466D01*
X156006494Y-102705360D01*
X156006040Y-102697113D01*
X156006040Y-100598760D01*
X156006913Y-100583951D01*
X156009797Y-100559583D01*
X156010904Y-100550230D01*
X156009212Y-100540963D01*
X156009212Y-100540962D01*
X156000367Y-100492529D01*
X155999718Y-100488628D01*
X155992391Y-100439895D01*
X155992389Y-100439887D01*
X155990989Y-100430578D01*
X155987863Y-100424068D01*
X155986566Y-100416967D01*
X155959522Y-100364903D01*
X155957754Y-100361365D01*
X155936426Y-100316951D01*
X155932349Y-100308461D01*
X155927462Y-100303175D01*
X155927435Y-100303135D01*
X155924120Y-100296752D01*
X155919815Y-100291712D01*
X155882575Y-100254472D01*
X155879748Y-100251554D01*
X155879718Y-100251522D01*
X155847720Y-100188145D01*
X155846553Y-100180482D01*
X155836214Y-100095048D01*
X155830363Y-100046694D01*
X155787924Y-99934382D01*
X155782556Y-99863590D01*
X155816314Y-99801132D01*
X155849176Y-99777280D01*
X155937625Y-99732795D01*
X155963869Y-99710381D01*
X156051574Y-99635474D01*
X156051576Y-99635471D01*
X156057348Y-99630542D01*
X156149224Y-99502683D01*
X156207950Y-99356598D01*
X156230134Y-99200723D01*
X156230278Y-99187000D01*
X156211363Y-99030694D01*
X156155710Y-98883412D01*
X156066531Y-98753657D01*
X156005853Y-98699595D01*
X155954648Y-98653972D01*
X155954645Y-98653970D01*
X155948976Y-98648919D01*
X155935061Y-98641551D01*
X155816543Y-98578799D01*
X155816544Y-98578799D01*
X155809831Y-98575245D01*
X155793122Y-98571048D01*
X155664498Y-98538740D01*
X155664496Y-98538740D01*
X155657128Y-98536889D01*
X155649530Y-98536849D01*
X155649528Y-98536849D01*
X155582319Y-98536497D01*
X155499684Y-98536065D01*
X155492305Y-98537837D01*
X155492301Y-98537837D01*
X155353967Y-98571048D01*
X155353963Y-98571049D01*
X155346588Y-98572820D01*
X155206679Y-98645032D01*
X155200962Y-98650019D01*
X155200955Y-98650024D01*
X155137421Y-98705449D01*
X155072939Y-98735157D01*
X155054592Y-98736500D01*
X150146871Y-98736500D01*
X150078750Y-98716498D01*
X150032257Y-98662842D01*
X150022153Y-98592568D01*
X150051647Y-98527988D01*
X150090257Y-98497935D01*
X150126640Y-98479636D01*
X150160125Y-98462795D01*
X150186369Y-98440381D01*
X150274074Y-98365474D01*
X150274076Y-98365471D01*
X150279848Y-98360542D01*
X150371724Y-98232683D01*
X150430450Y-98086598D01*
X150440683Y-98014694D01*
X150452053Y-97934807D01*
X150452053Y-97934804D01*
X150452634Y-97930723D01*
X150452778Y-97917000D01*
X150433863Y-97760694D01*
X150415898Y-97713151D01*
X150380894Y-97620514D01*
X150380893Y-97620511D01*
X150378210Y-97613412D01*
X150289031Y-97483657D01*
X150202905Y-97406921D01*
X150177148Y-97383972D01*
X150177145Y-97383970D01*
X150171476Y-97378919D01*
X150157561Y-97371551D01*
X150039043Y-97308799D01*
X150039044Y-97308799D01*
X150032331Y-97305245D01*
X150004419Y-97298234D01*
X149886998Y-97268740D01*
X149886996Y-97268740D01*
X149879628Y-97266889D01*
X149872030Y-97266849D01*
X149872028Y-97266849D01*
X149804819Y-97266497D01*
X149722184Y-97266065D01*
X149714805Y-97267837D01*
X149714801Y-97267837D01*
X149576467Y-97301048D01*
X149576463Y-97301049D01*
X149569088Y-97302820D01*
X149429179Y-97375032D01*
X149423462Y-97380019D01*
X149423455Y-97380024D01*
X149359921Y-97435449D01*
X149295439Y-97465157D01*
X149277092Y-97466500D01*
X148574793Y-97466500D01*
X148506672Y-97446498D01*
X148485698Y-97429595D01*
X148308224Y-97252121D01*
X148274198Y-97189809D01*
X148279263Y-97118994D01*
X148319612Y-97068122D01*
X148317625Y-97065795D01*
X148431574Y-96968474D01*
X148431576Y-96968471D01*
X148437348Y-96963542D01*
X148529224Y-96835683D01*
X148587950Y-96689598D01*
X148610134Y-96533723D01*
X148610278Y-96520000D01*
X148609371Y-96512500D01*
X148596914Y-96409569D01*
X148591363Y-96363694D01*
X148575196Y-96320910D01*
X148538394Y-96223514D01*
X148538393Y-96223511D01*
X148535710Y-96216412D01*
X148446531Y-96086657D01*
X148385853Y-96032595D01*
X148334648Y-95986972D01*
X148334645Y-95986970D01*
X148328976Y-95981919D01*
X148315061Y-95974551D01*
X148196543Y-95911799D01*
X148196544Y-95911799D01*
X148189831Y-95908245D01*
X148173122Y-95904048D01*
X148044498Y-95871740D01*
X148044496Y-95871740D01*
X148037128Y-95869889D01*
X148029530Y-95869849D01*
X148029528Y-95869849D01*
X147962319Y-95869497D01*
X147879684Y-95869065D01*
X147872305Y-95870837D01*
X147872301Y-95870837D01*
X147733967Y-95904048D01*
X147733963Y-95904049D01*
X147726588Y-95905820D01*
X147586679Y-95978032D01*
X147580962Y-95983019D01*
X147580955Y-95983024D01*
X147517421Y-96038449D01*
X147452939Y-96068157D01*
X147434592Y-96069500D01*
X139176793Y-96069500D01*
X139108672Y-96049498D01*
X139087698Y-96032595D01*
X138806241Y-95751138D01*
X152379758Y-95751138D01*
X152397035Y-95907633D01*
X152451143Y-96055490D01*
X152455380Y-96061796D01*
X152455382Y-96061799D01*
X152472086Y-96086657D01*
X152538958Y-96186172D01*
X152655410Y-96292135D01*
X152676885Y-96303795D01*
X152787099Y-96363637D01*
X152787101Y-96363638D01*
X152793776Y-96367262D01*
X152801125Y-96369190D01*
X152938719Y-96405287D01*
X152938721Y-96405287D01*
X152946069Y-96407215D01*
X153029380Y-96408524D01*
X153095898Y-96409569D01*
X153095901Y-96409569D01*
X153103495Y-96409688D01*
X153256968Y-96374538D01*
X153397625Y-96303795D01*
X153403397Y-96298866D01*
X153403399Y-96298864D01*
X153473854Y-96238689D01*
X153538644Y-96209658D01*
X153555685Y-96208500D01*
X155971207Y-96208500D01*
X156039328Y-96228502D01*
X156060302Y-96245405D01*
X157627595Y-97812698D01*
X157661621Y-97875010D01*
X157664500Y-97901793D01*
X157664500Y-100947030D01*
X157644498Y-101015151D01*
X157633020Y-101030184D01*
X157628034Y-101034533D01*
X157537501Y-101163348D01*
X157480309Y-101310039D01*
X157479318Y-101317568D01*
X157470823Y-101382095D01*
X157459758Y-101466138D01*
X157477035Y-101622633D01*
X157531143Y-101770490D01*
X157535380Y-101776796D01*
X157535382Y-101776799D01*
X157559999Y-101813432D01*
X157618958Y-101901172D01*
X157735410Y-102007135D01*
X157742085Y-102010759D01*
X157867099Y-102078637D01*
X157867101Y-102078638D01*
X157873776Y-102082262D01*
X157881125Y-102084190D01*
X158018719Y-102120287D01*
X158018721Y-102120287D01*
X158026069Y-102122215D01*
X158109380Y-102123524D01*
X158175898Y-102124569D01*
X158175901Y-102124569D01*
X158183495Y-102124688D01*
X158336968Y-102089538D01*
X158477625Y-102018795D01*
X158589163Y-101923533D01*
X158591574Y-101921474D01*
X158591576Y-101921471D01*
X158597348Y-101916542D01*
X158689224Y-101788683D01*
X158747950Y-101642598D01*
X158770134Y-101486723D01*
X158770278Y-101473000D01*
X158751363Y-101316694D01*
X158724323Y-101245135D01*
X158698394Y-101176514D01*
X158698393Y-101176511D01*
X158695710Y-101169412D01*
X158606531Y-101039657D01*
X158600865Y-101034609D01*
X158596986Y-101030209D01*
X158566941Y-100965883D01*
X158565500Y-100946884D01*
X158565500Y-97697220D01*
X158566373Y-97682411D01*
X158569257Y-97658043D01*
X158570364Y-97648690D01*
X158568672Y-97639426D01*
X158568672Y-97639422D01*
X158559827Y-97590989D01*
X158559178Y-97587088D01*
X158551851Y-97538355D01*
X158551849Y-97538347D01*
X158550449Y-97529038D01*
X158547323Y-97522528D01*
X158546026Y-97515427D01*
X158529523Y-97483657D01*
X158518982Y-97463363D01*
X158517214Y-97459825D01*
X158495886Y-97415411D01*
X158491809Y-97406921D01*
X158486922Y-97401635D01*
X158486895Y-97401595D01*
X158483580Y-97395212D01*
X158479275Y-97390172D01*
X158442048Y-97352945D01*
X158438618Y-97349379D01*
X158406246Y-97314359D01*
X158399854Y-97307444D01*
X158393495Y-97303751D01*
X158387337Y-97298234D01*
X156697405Y-95608302D01*
X156663379Y-95545990D01*
X156660500Y-95519207D01*
X156660500Y-91297793D01*
X156680502Y-91229672D01*
X156697405Y-91208698D01*
X160222973Y-87683130D01*
X160285285Y-87649104D01*
X160314047Y-87646241D01*
X160318599Y-87646313D01*
X160334898Y-87646569D01*
X160334901Y-87646569D01*
X160342495Y-87646688D01*
X160495968Y-87611538D01*
X160636625Y-87540795D01*
X160662869Y-87518381D01*
X160750574Y-87443474D01*
X160750576Y-87443471D01*
X160756348Y-87438542D01*
X160848224Y-87310683D01*
X160906950Y-87164598D01*
X160929134Y-87008723D01*
X160929278Y-86995000D01*
X160910363Y-86838694D01*
X160893203Y-86793282D01*
X160857394Y-86698514D01*
X160857393Y-86698511D01*
X160854710Y-86691412D01*
X160765531Y-86561657D01*
X160718971Y-86520174D01*
X160653648Y-86461972D01*
X160653645Y-86461970D01*
X160647976Y-86456919D01*
X160508831Y-86383245D01*
X160489212Y-86378317D01*
X160363498Y-86346740D01*
X160363496Y-86346740D01*
X160356128Y-86344889D01*
X160348530Y-86344849D01*
X160348528Y-86344849D01*
X160281319Y-86344497D01*
X160198684Y-86344065D01*
X160191305Y-86345837D01*
X160191301Y-86345837D01*
X160052967Y-86379048D01*
X160052963Y-86379049D01*
X160045588Y-86380820D01*
X159905679Y-86453032D01*
X159899957Y-86458024D01*
X159899955Y-86458025D01*
X159792759Y-86551538D01*
X159792756Y-86551541D01*
X159787034Y-86556533D01*
X159763913Y-86589431D01*
X159703294Y-86675683D01*
X159696501Y-86685348D01*
X159639309Y-86832039D01*
X159632601Y-86882992D01*
X159620550Y-86974526D01*
X159591827Y-87039453D01*
X159584723Y-87047174D01*
X155915650Y-90716247D01*
X155904561Y-90726101D01*
X155885291Y-90741293D01*
X155885289Y-90741295D01*
X155877890Y-90747128D01*
X155872535Y-90754875D01*
X155872534Y-90754877D01*
X155844545Y-90795375D01*
X155842243Y-90798597D01*
X155818210Y-90831135D01*
X155807366Y-90845816D01*
X155804973Y-90852632D01*
X155800869Y-90858569D01*
X155798029Y-90867549D01*
X155798028Y-90867551D01*
X155792352Y-90885499D01*
X155783485Y-90913538D01*
X155783182Y-90914495D01*
X155781929Y-90918250D01*
X155767923Y-90958135D01*
X155762481Y-90973631D01*
X155762199Y-90980819D01*
X155762188Y-90980878D01*
X155760020Y-90987730D01*
X155759500Y-90994337D01*
X155759500Y-91047016D01*
X155759403Y-91051962D01*
X155757162Y-91108994D01*
X155759046Y-91116100D01*
X155759500Y-91124347D01*
X155759500Y-95181500D01*
X155739498Y-95249621D01*
X155685842Y-95296114D01*
X155633500Y-95307500D01*
X153555263Y-95307500D01*
X153487142Y-95287498D01*
X153471444Y-95275576D01*
X153414648Y-95224972D01*
X153414645Y-95224970D01*
X153408976Y-95219919D01*
X153269831Y-95146245D01*
X153253122Y-95142048D01*
X153124498Y-95109740D01*
X153124496Y-95109740D01*
X153117128Y-95107889D01*
X153109530Y-95107849D01*
X153109528Y-95107849D01*
X153042319Y-95107497D01*
X152959684Y-95107065D01*
X152952305Y-95108837D01*
X152952301Y-95108837D01*
X152813967Y-95142048D01*
X152813963Y-95142049D01*
X152806588Y-95143820D01*
X152666679Y-95216032D01*
X152660957Y-95221024D01*
X152660955Y-95221025D01*
X152553759Y-95314538D01*
X152553756Y-95314541D01*
X152548034Y-95319533D01*
X152457501Y-95448348D01*
X152400309Y-95595039D01*
X152399318Y-95602568D01*
X152381432Y-95738426D01*
X152379758Y-95751138D01*
X138806241Y-95751138D01*
X135615405Y-92560302D01*
X135581379Y-92497990D01*
X135578500Y-92471207D01*
X135578500Y-91093220D01*
X135579373Y-91078411D01*
X135582257Y-91054043D01*
X135583364Y-91044690D01*
X135581420Y-91034045D01*
X135581581Y-91032521D01*
X135581376Y-91026013D01*
X135582269Y-91025985D01*
X135588859Y-90963439D01*
X135633289Y-90908063D01*
X135700604Y-90885499D01*
X135762027Y-90899868D01*
X135762038Y-90899841D01*
X135762220Y-90899913D01*
X135765493Y-90900679D01*
X135775776Y-90906262D01*
X135783125Y-90908190D01*
X135920719Y-90944287D01*
X135920721Y-90944287D01*
X135928069Y-90946215D01*
X136011380Y-90947524D01*
X136077898Y-90948569D01*
X136077901Y-90948569D01*
X136085495Y-90948688D01*
X136238968Y-90913538D01*
X136379625Y-90842795D01*
X136482564Y-90754877D01*
X136493574Y-90745474D01*
X136493576Y-90745471D01*
X136499348Y-90740542D01*
X136591224Y-90612683D01*
X136649950Y-90466598D01*
X136668013Y-90339680D01*
X136671553Y-90314807D01*
X136671553Y-90314804D01*
X136672134Y-90310723D01*
X136672278Y-90297000D01*
X136653363Y-90140694D01*
X136632803Y-90086284D01*
X136600394Y-90000514D01*
X136600393Y-90000511D01*
X136597710Y-89993412D01*
X136508531Y-89863657D01*
X136456000Y-89816853D01*
X136396648Y-89763972D01*
X136396645Y-89763970D01*
X136390976Y-89758919D01*
X136376619Y-89751317D01*
X136258543Y-89688799D01*
X136258544Y-89688799D01*
X136251831Y-89685245D01*
X136194713Y-89670898D01*
X136136314Y-89637789D01*
X134384882Y-87886358D01*
X134381229Y-87882549D01*
X134373391Y-87874025D01*
X134339201Y-87836844D01*
X134302198Y-87813901D01*
X134292448Y-87807200D01*
X134257783Y-87780888D01*
X134243804Y-87775354D01*
X134223801Y-87765293D01*
X134211014Y-87757365D01*
X134202763Y-87754968D01*
X134202761Y-87754967D01*
X134169228Y-87745225D01*
X134157995Y-87741379D01*
X134117547Y-87725364D01*
X134109006Y-87724466D01*
X134109005Y-87724466D01*
X134102592Y-87723792D01*
X134080617Y-87719480D01*
X134066175Y-87715285D01*
X134058692Y-87714735D01*
X134057792Y-87714669D01*
X134057781Y-87714669D01*
X134055485Y-87714500D01*
X134020783Y-87714500D01*
X134007613Y-87713810D01*
X133997384Y-87712735D01*
X133967546Y-87709599D01*
X133959081Y-87711031D01*
X133959072Y-87711031D01*
X133949000Y-87712735D01*
X133927987Y-87714500D01*
X132461819Y-87714500D01*
X132402860Y-87699854D01*
X132321544Y-87656799D01*
X132321541Y-87656798D01*
X132314831Y-87653245D01*
X132298122Y-87649048D01*
X132169498Y-87616740D01*
X132169496Y-87616740D01*
X132162128Y-87614889D01*
X132154530Y-87614849D01*
X132154528Y-87614849D01*
X132087319Y-87614497D01*
X132004684Y-87614065D01*
X131997305Y-87615837D01*
X131997301Y-87615837D01*
X131858967Y-87649048D01*
X131858963Y-87649049D01*
X131851588Y-87650820D01*
X131844843Y-87654301D01*
X131844844Y-87654301D01*
X131726689Y-87715285D01*
X131711679Y-87723032D01*
X131705957Y-87728024D01*
X131705955Y-87728025D01*
X131598759Y-87821538D01*
X131598756Y-87821541D01*
X131593034Y-87826533D01*
X131576953Y-87849414D01*
X131536739Y-87906633D01*
X131502501Y-87955348D01*
X131445309Y-88102039D01*
X131444318Y-88109568D01*
X131429259Y-88223951D01*
X131424758Y-88258138D01*
X131442035Y-88414633D01*
X131496143Y-88562490D01*
X131583958Y-88693172D01*
X131589574Y-88698282D01*
X131667076Y-88768803D01*
X131700410Y-88799135D01*
X131759497Y-88831217D01*
X131832099Y-88870637D01*
X131832101Y-88870638D01*
X131838776Y-88874262D01*
X131846125Y-88876190D01*
X131983719Y-88912287D01*
X131983721Y-88912287D01*
X131991069Y-88914215D01*
X132074380Y-88915524D01*
X132140898Y-88916569D01*
X132140901Y-88916569D01*
X132148495Y-88916688D01*
X132301968Y-88881538D01*
X132406558Y-88828935D01*
X132463171Y-88815500D01*
X132855729Y-88815500D01*
X132923850Y-88835502D01*
X132970343Y-88889158D01*
X132980447Y-88959432D01*
X132958816Y-89013950D01*
X132905848Y-89089317D01*
X132899501Y-89098348D01*
X132842309Y-89245039D01*
X132821758Y-89401138D01*
X132839035Y-89557633D01*
X132893143Y-89705490D01*
X132977716Y-89831347D01*
X132999107Y-89899042D01*
X132980503Y-89967558D01*
X132927810Y-90015139D01*
X132872474Y-90027619D01*
X132766684Y-90027065D01*
X132759305Y-90028837D01*
X132759301Y-90028837D01*
X132620967Y-90062048D01*
X132620963Y-90062049D01*
X132613588Y-90063820D01*
X132473679Y-90136032D01*
X132467957Y-90141024D01*
X132467955Y-90141025D01*
X132360759Y-90234538D01*
X132360756Y-90234541D01*
X132355034Y-90239533D01*
X132328116Y-90277834D01*
X132294040Y-90326319D01*
X132264501Y-90368348D01*
X132207309Y-90515039D01*
X132206318Y-90522568D01*
X132195382Y-90605636D01*
X132186758Y-90671138D01*
X132204035Y-90827633D01*
X132258143Y-90975490D01*
X132262380Y-90981796D01*
X132262382Y-90981799D01*
X132276863Y-91003348D01*
X132345958Y-91106172D01*
X132351575Y-91111283D01*
X132356542Y-91117038D01*
X132355210Y-91118187D01*
X132387223Y-91170765D01*
X132391500Y-91203317D01*
X132391500Y-92504798D01*
X132371498Y-92572919D01*
X132317842Y-92619412D01*
X132247568Y-92629516D01*
X132206543Y-92616153D01*
X132187831Y-92606245D01*
X132129845Y-92591680D01*
X132042498Y-92569740D01*
X132042496Y-92569740D01*
X132035128Y-92567889D01*
X132027530Y-92567849D01*
X132027528Y-92567849D01*
X131960319Y-92567497D01*
X131877684Y-92567065D01*
X131870305Y-92568837D01*
X131870301Y-92568837D01*
X131731967Y-92602048D01*
X131731963Y-92602049D01*
X131724588Y-92603820D01*
X131584679Y-92676032D01*
X131578957Y-92681024D01*
X131578955Y-92681025D01*
X131471759Y-92774538D01*
X131471756Y-92774541D01*
X131466034Y-92779533D01*
X131375501Y-92908348D01*
X131318309Y-93055039D01*
X131312723Y-93097467D01*
X131300881Y-93187420D01*
X131297758Y-93211138D01*
X114070500Y-93211138D01*
X114070500Y-80257138D01*
X128630758Y-80257138D01*
X128648035Y-80413633D01*
X128702143Y-80561490D01*
X128706380Y-80567796D01*
X128706382Y-80567799D01*
X128725622Y-80596430D01*
X128789958Y-80692172D01*
X128811958Y-80712190D01*
X128859931Y-80755842D01*
X128906410Y-80798135D01*
X128913085Y-80801759D01*
X129038099Y-80869637D01*
X129038101Y-80869638D01*
X129044776Y-80873262D01*
X129052125Y-80875190D01*
X129189719Y-80911287D01*
X129189721Y-80911287D01*
X129197069Y-80913215D01*
X129280380Y-80914524D01*
X129346898Y-80915569D01*
X129346901Y-80915569D01*
X129354495Y-80915688D01*
X129507968Y-80880538D01*
X129648625Y-80809795D01*
X129718362Y-80750234D01*
X129762574Y-80712474D01*
X129762576Y-80712471D01*
X129768348Y-80707542D01*
X129860224Y-80579683D01*
X129918950Y-80433598D01*
X129925953Y-80384393D01*
X129940553Y-80281807D01*
X129940553Y-80281804D01*
X129941134Y-80277723D01*
X129941278Y-80264000D01*
X129922363Y-80107694D01*
X129917175Y-80093963D01*
X129869394Y-79967514D01*
X129869393Y-79967511D01*
X129866710Y-79960412D01*
X129777531Y-79830657D01*
X129771865Y-79825609D01*
X129767986Y-79821209D01*
X129737941Y-79756883D01*
X129736500Y-79737884D01*
X129736500Y-75393138D01*
X135704758Y-75393138D01*
X135722035Y-75549633D01*
X135776143Y-75697490D01*
X135780380Y-75703796D01*
X135780382Y-75703799D01*
X135815857Y-75756591D01*
X135863958Y-75828172D01*
X135883586Y-75846032D01*
X135957335Y-75913138D01*
X135980410Y-75934135D01*
X136038720Y-75965795D01*
X136112099Y-76005637D01*
X136112101Y-76005638D01*
X136118776Y-76009262D01*
X136126125Y-76011190D01*
X136263718Y-76047287D01*
X136263722Y-76047288D01*
X136271069Y-76049215D01*
X136322697Y-76050026D01*
X136390494Y-76071095D01*
X136409812Y-76086915D01*
X139593595Y-79270698D01*
X139627621Y-79333010D01*
X139630500Y-79359793D01*
X139630500Y-85326030D01*
X139610498Y-85394151D01*
X139599020Y-85409184D01*
X139594034Y-85413533D01*
X139503501Y-85542348D01*
X139446309Y-85689039D01*
X139439508Y-85740700D01*
X139429327Y-85818032D01*
X139425758Y-85845138D01*
X139443035Y-86001633D01*
X139497143Y-86149490D01*
X139501380Y-86155796D01*
X139501382Y-86155799D01*
X139541709Y-86215811D01*
X139584958Y-86280172D01*
X139701410Y-86386135D01*
X139708085Y-86389759D01*
X139833099Y-86457637D01*
X139833101Y-86457638D01*
X139839776Y-86461262D01*
X139847125Y-86463190D01*
X139984719Y-86499287D01*
X139984721Y-86499287D01*
X139992069Y-86501215D01*
X140075380Y-86502524D01*
X140141898Y-86503569D01*
X140141901Y-86503569D01*
X140149495Y-86503688D01*
X140302968Y-86468538D01*
X140443625Y-86397795D01*
X140504460Y-86345837D01*
X140557574Y-86300474D01*
X140557576Y-86300471D01*
X140563348Y-86295542D01*
X140563364Y-86295560D01*
X140621350Y-86260669D01*
X140692316Y-86262766D01*
X140738062Y-86289367D01*
X140838789Y-86381021D01*
X140838793Y-86381024D01*
X140844410Y-86386135D01*
X140851085Y-86389759D01*
X140976099Y-86457637D01*
X140976101Y-86457638D01*
X140982776Y-86461262D01*
X140990125Y-86463190D01*
X141127719Y-86499287D01*
X141127721Y-86499287D01*
X141135069Y-86501215D01*
X141218380Y-86502524D01*
X141284898Y-86503569D01*
X141284901Y-86503569D01*
X141292495Y-86503688D01*
X141408370Y-86477149D01*
X141479237Y-86481438D01*
X141536535Y-86523360D01*
X141562073Y-86589605D01*
X141562500Y-86599969D01*
X141562500Y-87369084D01*
X141542067Y-87433693D01*
X141543459Y-87434439D01*
X141539872Y-87441128D01*
X141535501Y-87447348D01*
X141478309Y-87594039D01*
X141477318Y-87601568D01*
X141461020Y-87725364D01*
X141457758Y-87750138D01*
X141475035Y-87906633D01*
X141529143Y-88054490D01*
X141533380Y-88060796D01*
X141533382Y-88060799D01*
X141556340Y-88094963D01*
X141616958Y-88185172D01*
X141733410Y-88291135D01*
X141740085Y-88294759D01*
X141865099Y-88362637D01*
X141865101Y-88362638D01*
X141871776Y-88366262D01*
X141879125Y-88368190D01*
X142016719Y-88404287D01*
X142016721Y-88404287D01*
X142024069Y-88406215D01*
X142107380Y-88407524D01*
X142173898Y-88408569D01*
X142173901Y-88408569D01*
X142181495Y-88408688D01*
X142334968Y-88373538D01*
X142475625Y-88302795D01*
X142527912Y-88258138D01*
X142589574Y-88205474D01*
X142589576Y-88205471D01*
X142595348Y-88200542D01*
X142687224Y-88072683D01*
X142745950Y-87926598D01*
X142755379Y-87860346D01*
X142767553Y-87774807D01*
X142767553Y-87774804D01*
X142768134Y-87770723D01*
X142768278Y-87757000D01*
X142749363Y-87600694D01*
X142744175Y-87586963D01*
X142696396Y-87460519D01*
X142696394Y-87460516D01*
X142693710Y-87453412D01*
X142685660Y-87441700D01*
X142663500Y-87370333D01*
X142663500Y-86226138D01*
X147299758Y-86226138D01*
X147317035Y-86382633D01*
X147371143Y-86530490D01*
X147375380Y-86536796D01*
X147375382Y-86536799D01*
X147392086Y-86561657D01*
X147458958Y-86661172D01*
X147575410Y-86767135D01*
X147631109Y-86797377D01*
X147707099Y-86838637D01*
X147707101Y-86838638D01*
X147713776Y-86842262D01*
X147721125Y-86844190D01*
X147858719Y-86880287D01*
X147858721Y-86880287D01*
X147866069Y-86882215D01*
X147949380Y-86883524D01*
X148015898Y-86884569D01*
X148015901Y-86884569D01*
X148023495Y-86884688D01*
X148176968Y-86849538D01*
X148281558Y-86796935D01*
X148338171Y-86783500D01*
X148829007Y-86783500D01*
X148834284Y-86783611D01*
X148896294Y-86786210D01*
X148907848Y-86783500D01*
X148938662Y-86776273D01*
X148950333Y-86774110D01*
X148965229Y-86772069D01*
X148993432Y-86768206D01*
X149007230Y-86762235D01*
X149028499Y-86755201D01*
X149034775Y-86753729D01*
X149043136Y-86751768D01*
X149050661Y-86747631D01*
X149050664Y-86747630D01*
X149081268Y-86730805D01*
X149091913Y-86725589D01*
X149131855Y-86708305D01*
X149143541Y-86698842D01*
X149162126Y-86686354D01*
X149163956Y-86685348D01*
X149175308Y-86679107D01*
X149183422Y-86672103D01*
X149207958Y-86647567D01*
X149217759Y-86638742D01*
X149242392Y-86618794D01*
X149242393Y-86618793D01*
X149249070Y-86613386D01*
X149254043Y-86606388D01*
X149254048Y-86606383D01*
X149259968Y-86598052D01*
X149273579Y-86581946D01*
X149620210Y-86235315D01*
X149681174Y-86201590D01*
X149687438Y-86200155D01*
X149723643Y-86191863D01*
X149864300Y-86121120D01*
X149929793Y-86065184D01*
X149978249Y-86023799D01*
X149978251Y-86023796D01*
X149984023Y-86018867D01*
X150075899Y-85891008D01*
X150134625Y-85744923D01*
X150151721Y-85624799D01*
X150156228Y-85593132D01*
X150156228Y-85593129D01*
X150156809Y-85589048D01*
X150156953Y-85575325D01*
X150138038Y-85419019D01*
X150082385Y-85271737D01*
X149993206Y-85141982D01*
X149946646Y-85100499D01*
X149881323Y-85042297D01*
X149881320Y-85042295D01*
X149875651Y-85037244D01*
X149736506Y-84963570D01*
X149719797Y-84959373D01*
X149591173Y-84927065D01*
X149591171Y-84927065D01*
X149583803Y-84925214D01*
X149576205Y-84925174D01*
X149576203Y-84925174D01*
X149508994Y-84924822D01*
X149426359Y-84924390D01*
X149418980Y-84926162D01*
X149418976Y-84926162D01*
X149280642Y-84959373D01*
X149280638Y-84959374D01*
X149273263Y-84961145D01*
X149133354Y-85033357D01*
X149127632Y-85038349D01*
X149127630Y-85038350D01*
X149020434Y-85131863D01*
X149020431Y-85131866D01*
X149014709Y-85136858D01*
X148924176Y-85265673D01*
X148866984Y-85412364D01*
X148865467Y-85411773D01*
X148837271Y-85461204D01*
X148652881Y-85645595D01*
X148590569Y-85679620D01*
X148563785Y-85682500D01*
X148336819Y-85682500D01*
X148277860Y-85667854D01*
X148196544Y-85624799D01*
X148196541Y-85624798D01*
X148189831Y-85621245D01*
X148173122Y-85617048D01*
X148044498Y-85584740D01*
X148044496Y-85584740D01*
X148037128Y-85582889D01*
X148029530Y-85582849D01*
X148029528Y-85582849D01*
X147962319Y-85582497D01*
X147879684Y-85582065D01*
X147872305Y-85583837D01*
X147872301Y-85583837D01*
X147733967Y-85617048D01*
X147733963Y-85617049D01*
X147726588Y-85618820D01*
X147719843Y-85622301D01*
X147719844Y-85622301D01*
X147603210Y-85682500D01*
X147586679Y-85691032D01*
X147580957Y-85696024D01*
X147580955Y-85696025D01*
X147473759Y-85789538D01*
X147473756Y-85789541D01*
X147468034Y-85794533D01*
X147437761Y-85837607D01*
X147383935Y-85914194D01*
X147377501Y-85923348D01*
X147320309Y-86070039D01*
X147319318Y-86077568D01*
X147302598Y-86204568D01*
X147299758Y-86226138D01*
X142663500Y-86226138D01*
X142663500Y-84209274D01*
X142682479Y-84150350D01*
X142679131Y-84148509D01*
X142682790Y-84141853D01*
X142687224Y-84135683D01*
X142690057Y-84128635D01*
X142690059Y-84128632D01*
X142743114Y-83996652D01*
X142745950Y-83989598D01*
X142768134Y-83833723D01*
X142768278Y-83820000D01*
X142767328Y-83812145D01*
X142760937Y-83759341D01*
X142749363Y-83663694D01*
X142741061Y-83641722D01*
X142696394Y-83523514D01*
X142696393Y-83523511D01*
X142693710Y-83516412D01*
X142604531Y-83386657D01*
X142544960Y-83333581D01*
X142492648Y-83286972D01*
X142492645Y-83286970D01*
X142486976Y-83281919D01*
X142347831Y-83208245D01*
X142331122Y-83204048D01*
X142202498Y-83171740D01*
X142202496Y-83171740D01*
X142195128Y-83169889D01*
X142187530Y-83169849D01*
X142187528Y-83169849D01*
X142120319Y-83169497D01*
X142037684Y-83169065D01*
X142030305Y-83170837D01*
X142030301Y-83170837D01*
X141891967Y-83204048D01*
X141891963Y-83204049D01*
X141884588Y-83205820D01*
X141824290Y-83236942D01*
X141754582Y-83250411D01*
X141688659Y-83224056D01*
X141647449Y-83166243D01*
X141640500Y-83124976D01*
X141640500Y-82035138D01*
X142727758Y-82035138D01*
X142745035Y-82191633D01*
X142799143Y-82339490D01*
X142803380Y-82345796D01*
X142803382Y-82345799D01*
X142826340Y-82379963D01*
X142886958Y-82470172D01*
X142905128Y-82486705D01*
X142994258Y-82567807D01*
X143003410Y-82576135D01*
X143010085Y-82579759D01*
X143135099Y-82647637D01*
X143135101Y-82647638D01*
X143141776Y-82651262D01*
X143149125Y-82653190D01*
X143286719Y-82689287D01*
X143286721Y-82689287D01*
X143294069Y-82691215D01*
X143377380Y-82692524D01*
X143443898Y-82693569D01*
X143443901Y-82693569D01*
X143451495Y-82693688D01*
X143604968Y-82658538D01*
X143745625Y-82587795D01*
X143773810Y-82563723D01*
X143859574Y-82490474D01*
X143859576Y-82490471D01*
X143865348Y-82485542D01*
X143957224Y-82357683D01*
X144015950Y-82211598D01*
X144028571Y-82122917D01*
X144037553Y-82059807D01*
X144037553Y-82059804D01*
X144038134Y-82055723D01*
X144038278Y-82042000D01*
X144019363Y-81885694D01*
X144000318Y-81835293D01*
X143966396Y-81745519D01*
X143966394Y-81745516D01*
X143963710Y-81738412D01*
X143955660Y-81726700D01*
X143933500Y-81655333D01*
X143933500Y-80399274D01*
X143952479Y-80340350D01*
X143949131Y-80338509D01*
X143952793Y-80331849D01*
X143957224Y-80325683D01*
X143960057Y-80318635D01*
X143960059Y-80318632D01*
X144013114Y-80186652D01*
X144015950Y-80179598D01*
X144026183Y-80107694D01*
X144037553Y-80027807D01*
X144037553Y-80027804D01*
X144038134Y-80023723D01*
X144038278Y-80010000D01*
X144036314Y-79993766D01*
X144030124Y-79942621D01*
X144019363Y-79853694D01*
X144001398Y-79806151D01*
X143966394Y-79713514D01*
X143966393Y-79713511D01*
X143963710Y-79706412D01*
X143874531Y-79576657D01*
X143827971Y-79535174D01*
X143762648Y-79476972D01*
X143762645Y-79476970D01*
X143756976Y-79471919D01*
X143617831Y-79398245D01*
X143585830Y-79390207D01*
X143472498Y-79361740D01*
X143472496Y-79361740D01*
X143465128Y-79359889D01*
X143457530Y-79359849D01*
X143457528Y-79359849D01*
X143390319Y-79359497D01*
X143307684Y-79359065D01*
X143300305Y-79360837D01*
X143300301Y-79360837D01*
X143161967Y-79394048D01*
X143161963Y-79394049D01*
X143154588Y-79395820D01*
X143014679Y-79468032D01*
X143008957Y-79473024D01*
X143008955Y-79473025D01*
X142901759Y-79566538D01*
X142901756Y-79566541D01*
X142896034Y-79571533D01*
X142891667Y-79577747D01*
X142814574Y-79687439D01*
X142805501Y-79700348D01*
X142748309Y-79847039D01*
X142747318Y-79854568D01*
X142728992Y-79993766D01*
X142727758Y-80003138D01*
X142745035Y-80159633D01*
X142799143Y-80307490D01*
X142811081Y-80325255D01*
X142832500Y-80395531D01*
X142832500Y-81654084D01*
X142812067Y-81718693D01*
X142813459Y-81719439D01*
X142809872Y-81726128D01*
X142805501Y-81732348D01*
X142748309Y-81879039D01*
X142747318Y-81886568D01*
X142728982Y-82025842D01*
X142727758Y-82035138D01*
X141640500Y-82035138D01*
X141640500Y-78004219D01*
X141641373Y-77989410D01*
X141644257Y-77965041D01*
X141645364Y-77955689D01*
X141643672Y-77946426D01*
X141643672Y-77946419D01*
X141634825Y-77897982D01*
X141634174Y-77894075D01*
X141626850Y-77845356D01*
X141626850Y-77845355D01*
X141625449Y-77836038D01*
X141622321Y-77829525D01*
X141621025Y-77822427D01*
X141593972Y-77770347D01*
X141592223Y-77766845D01*
X141570887Y-77722413D01*
X141570886Y-77722412D01*
X141566809Y-77713921D01*
X141561923Y-77708636D01*
X141561892Y-77708589D01*
X141558579Y-77702211D01*
X141554275Y-77697172D01*
X141517048Y-77659945D01*
X141513618Y-77656379D01*
X141481246Y-77621359D01*
X141474854Y-77614444D01*
X141468495Y-77610751D01*
X141462337Y-77605234D01*
X139498545Y-75641442D01*
X139464519Y-75579130D01*
X139462553Y-75567484D01*
X139461631Y-75559861D01*
X139446363Y-75433694D01*
X139438596Y-75413138D01*
X143854758Y-75413138D01*
X143872035Y-75569633D01*
X143926143Y-75717490D01*
X143930380Y-75723796D01*
X143930382Y-75723799D01*
X143945815Y-75746765D01*
X144013958Y-75848172D01*
X144066207Y-75895715D01*
X144122335Y-75946787D01*
X144130410Y-75954135D01*
X144151885Y-75965795D01*
X144262099Y-76025637D01*
X144262101Y-76025638D01*
X144268776Y-76029262D01*
X144276125Y-76031190D01*
X144413719Y-76067287D01*
X144413721Y-76067287D01*
X144421069Y-76069215D01*
X144504380Y-76070524D01*
X144570898Y-76071569D01*
X144570901Y-76071569D01*
X144578495Y-76071688D01*
X144731968Y-76036538D01*
X144872625Y-75965795D01*
X144878397Y-75960866D01*
X144878399Y-75960864D01*
X144948854Y-75900689D01*
X145013644Y-75871658D01*
X145030685Y-75870500D01*
X145451207Y-75870500D01*
X145519328Y-75890502D01*
X145540302Y-75907405D01*
X145702595Y-76069698D01*
X145736621Y-76132010D01*
X145739500Y-76158793D01*
X145739500Y-81525619D01*
X145734077Y-81557430D01*
X145734368Y-81557486D01*
X145732603Y-81566740D01*
X145729481Y-81575631D01*
X145729199Y-81582819D01*
X145729188Y-81582878D01*
X145727020Y-81589730D01*
X145726500Y-81596337D01*
X145726500Y-81649016D01*
X145726403Y-81653962D01*
X145724162Y-81710994D01*
X145726046Y-81718100D01*
X145726500Y-81726347D01*
X145726500Y-82007780D01*
X145725627Y-82022589D01*
X145721636Y-82056310D01*
X145723328Y-82065574D01*
X145723328Y-82065575D01*
X145732172Y-82114001D01*
X145732822Y-82117904D01*
X145741551Y-82175962D01*
X145744679Y-82182475D01*
X145745975Y-82189573D01*
X145773025Y-82241647D01*
X145774768Y-82245137D01*
X145800191Y-82298079D01*
X145805077Y-82303365D01*
X145805110Y-82303413D01*
X145808421Y-82309788D01*
X145812725Y-82314828D01*
X145849952Y-82352055D01*
X145853381Y-82355620D01*
X145892146Y-82397556D01*
X145898505Y-82401249D01*
X145904663Y-82406766D01*
X146342247Y-82844350D01*
X146352101Y-82855439D01*
X146367293Y-82874709D01*
X146373128Y-82882110D01*
X146380875Y-82887465D01*
X146380877Y-82887466D01*
X146421375Y-82915455D01*
X146424587Y-82917750D01*
X146471816Y-82952634D01*
X146478632Y-82955027D01*
X146484569Y-82959131D01*
X146493549Y-82961971D01*
X146493551Y-82961972D01*
X146513717Y-82968350D01*
X146540519Y-82976826D01*
X146544250Y-82978071D01*
X146590737Y-82994396D01*
X146590739Y-82994396D01*
X146599631Y-82997519D01*
X146606819Y-82997801D01*
X146606878Y-82997812D01*
X146613730Y-82999980D01*
X146620337Y-83000500D01*
X146673016Y-83000500D01*
X146677962Y-83000597D01*
X146734994Y-83002838D01*
X146742100Y-83000954D01*
X146750344Y-83000500D01*
X151371750Y-83000500D01*
X151439871Y-83020502D01*
X151456549Y-83033306D01*
X151506794Y-83079025D01*
X151512410Y-83084135D01*
X151519083Y-83087758D01*
X151644099Y-83155637D01*
X151644101Y-83155638D01*
X151650776Y-83159262D01*
X151658125Y-83161190D01*
X151795719Y-83197287D01*
X151795721Y-83197287D01*
X151803069Y-83199215D01*
X151886380Y-83200524D01*
X151952898Y-83201569D01*
X151952901Y-83201569D01*
X151960495Y-83201688D01*
X152113968Y-83166538D01*
X152254625Y-83095795D01*
X152282810Y-83071723D01*
X152368574Y-82998474D01*
X152368576Y-82998471D01*
X152374348Y-82993542D01*
X152466224Y-82865683D01*
X152524950Y-82719598D01*
X152541095Y-82606157D01*
X152546553Y-82567807D01*
X152546553Y-82567804D01*
X152547134Y-82563723D01*
X152547278Y-82550000D01*
X152528363Y-82393694D01*
X152514756Y-82357683D01*
X152475394Y-82253514D01*
X152475393Y-82253511D01*
X152472710Y-82246412D01*
X152383531Y-82116657D01*
X152315799Y-82056310D01*
X152271648Y-82016972D01*
X152271645Y-82016970D01*
X152265976Y-82011919D01*
X152252061Y-82004551D01*
X152182752Y-81967854D01*
X152131909Y-81918301D01*
X152115927Y-81849127D01*
X152139881Y-81782293D01*
X152196165Y-81739020D01*
X152241711Y-81730500D01*
X153447547Y-81730500D01*
X153515668Y-81750502D01*
X153562161Y-81804158D01*
X153572265Y-81874432D01*
X153542771Y-81939012D01*
X153505337Y-81968466D01*
X153428679Y-82008032D01*
X153422957Y-82013024D01*
X153422955Y-82013025D01*
X153315759Y-82106538D01*
X153315756Y-82106541D01*
X153310034Y-82111533D01*
X153302033Y-82122917D01*
X153253739Y-82191633D01*
X153219501Y-82240348D01*
X153162309Y-82387039D01*
X153160440Y-82401234D01*
X153144150Y-82524972D01*
X153141758Y-82543138D01*
X153159035Y-82699633D01*
X153213143Y-82847490D01*
X153217380Y-82853796D01*
X153217382Y-82853799D01*
X153236407Y-82882110D01*
X153300958Y-82978172D01*
X153306575Y-82983283D01*
X153311542Y-82989038D01*
X153310210Y-82990187D01*
X153342223Y-83042765D01*
X153346500Y-83075317D01*
X153346500Y-83675030D01*
X153326498Y-83743151D01*
X153315020Y-83758184D01*
X153310034Y-83762533D01*
X153219501Y-83891348D01*
X153162309Y-84038039D01*
X153161318Y-84045568D01*
X153143070Y-84184173D01*
X153141758Y-84194138D01*
X153159035Y-84350633D01*
X153213143Y-84498490D01*
X153217380Y-84504796D01*
X153217382Y-84504799D01*
X153249528Y-84552637D01*
X153300958Y-84629172D01*
X153417410Y-84735135D01*
X153438885Y-84746795D01*
X153549099Y-84806637D01*
X153549101Y-84806638D01*
X153555776Y-84810262D01*
X153563125Y-84812190D01*
X153700719Y-84848287D01*
X153700721Y-84848287D01*
X153708069Y-84850215D01*
X153791380Y-84851524D01*
X153857898Y-84852569D01*
X153857901Y-84852569D01*
X153865495Y-84852688D01*
X154018968Y-84817538D01*
X154159625Y-84746795D01*
X154222994Y-84692672D01*
X154287781Y-84663643D01*
X154357981Y-84674248D01*
X154389622Y-84695291D01*
X154433410Y-84735135D01*
X154454885Y-84746795D01*
X154565099Y-84806637D01*
X154565101Y-84806638D01*
X154571776Y-84810262D01*
X154579125Y-84812190D01*
X154716719Y-84848287D01*
X154716721Y-84848287D01*
X154724069Y-84850215D01*
X154807380Y-84851524D01*
X154873898Y-84852569D01*
X154873901Y-84852569D01*
X154881495Y-84852688D01*
X155034968Y-84817538D01*
X155175625Y-84746795D01*
X155201869Y-84724381D01*
X155289574Y-84649474D01*
X155289576Y-84649471D01*
X155295348Y-84644542D01*
X155387224Y-84516683D01*
X155445950Y-84370598D01*
X155460431Y-84268849D01*
X155467553Y-84218807D01*
X155467553Y-84218804D01*
X155468134Y-84214723D01*
X155468278Y-84201000D01*
X155449363Y-84044694D01*
X155425700Y-83982072D01*
X155396394Y-83904514D01*
X155396393Y-83904511D01*
X155393710Y-83897412D01*
X155304531Y-83767657D01*
X155298865Y-83762609D01*
X155294986Y-83758209D01*
X155264941Y-83693883D01*
X155263500Y-83674884D01*
X155263500Y-82076219D01*
X155264373Y-82061410D01*
X155265534Y-82051598D01*
X155268364Y-82027689D01*
X155266672Y-82018426D01*
X155266672Y-82018419D01*
X155257825Y-81969982D01*
X155257174Y-81966075D01*
X155255595Y-81955568D01*
X155252626Y-81935820D01*
X155249850Y-81917356D01*
X155249850Y-81917355D01*
X155248449Y-81908038D01*
X155245321Y-81901525D01*
X155244025Y-81894427D01*
X155216972Y-81842347D01*
X155215223Y-81838845D01*
X155193887Y-81794413D01*
X155193886Y-81794412D01*
X155189809Y-81785921D01*
X155184923Y-81780636D01*
X155184892Y-81780589D01*
X155181579Y-81774211D01*
X155177275Y-81769172D01*
X155140048Y-81731945D01*
X155136618Y-81728379D01*
X155104246Y-81693359D01*
X155097854Y-81686444D01*
X155091495Y-81682751D01*
X155085337Y-81677234D01*
X154393753Y-80985650D01*
X154383899Y-80974561D01*
X154368707Y-80955291D01*
X154368705Y-80955289D01*
X154362872Y-80947890D01*
X154355125Y-80942535D01*
X154355123Y-80942534D01*
X154316107Y-80915569D01*
X154314615Y-80914538D01*
X154311403Y-80912243D01*
X154271758Y-80882960D01*
X154271757Y-80882959D01*
X154264184Y-80877366D01*
X154257368Y-80874973D01*
X154251431Y-80870869D01*
X154242451Y-80868029D01*
X154242449Y-80868028D01*
X154222283Y-80861650D01*
X154195481Y-80853174D01*
X154191750Y-80851929D01*
X154145263Y-80835604D01*
X154145261Y-80835604D01*
X154136369Y-80832481D01*
X154129181Y-80832199D01*
X154129122Y-80832188D01*
X154122270Y-80830020D01*
X154115663Y-80829500D01*
X154062984Y-80829500D01*
X154058037Y-80829403D01*
X154001006Y-80827162D01*
X153993900Y-80829046D01*
X153985653Y-80829500D01*
X149066371Y-80829500D01*
X148998250Y-80809498D01*
X148951757Y-80755842D01*
X148941653Y-80685568D01*
X148971147Y-80620988D01*
X149009757Y-80590935D01*
X149046140Y-80572636D01*
X149079625Y-80555795D01*
X149105869Y-80533381D01*
X149193574Y-80458474D01*
X149193576Y-80458471D01*
X149199348Y-80453542D01*
X149291224Y-80325683D01*
X149294059Y-80318632D01*
X149347114Y-80186652D01*
X149349950Y-80179598D01*
X149360183Y-80107694D01*
X149371553Y-80027807D01*
X149371553Y-80027804D01*
X149372134Y-80023723D01*
X149372278Y-80010000D01*
X149370314Y-79993766D01*
X149364124Y-79942621D01*
X149353363Y-79853694D01*
X149335398Y-79806151D01*
X149300396Y-79713519D01*
X149300394Y-79713516D01*
X149297710Y-79706412D01*
X149289660Y-79694700D01*
X149267500Y-79623333D01*
X149267500Y-78352138D01*
X151744758Y-78352138D01*
X151762035Y-78508633D01*
X151816143Y-78656490D01*
X151903958Y-78787172D01*
X151909574Y-78792282D01*
X151998734Y-78873411D01*
X152020410Y-78893135D01*
X152065883Y-78917825D01*
X152152099Y-78964637D01*
X152152101Y-78964638D01*
X152158776Y-78968262D01*
X152166125Y-78970190D01*
X152303719Y-79006287D01*
X152303721Y-79006287D01*
X152311069Y-79008215D01*
X152370132Y-79009143D01*
X152404070Y-79009676D01*
X152452302Y-79021255D01*
X152453569Y-79022131D01*
X152509519Y-79039826D01*
X152513250Y-79041071D01*
X152559737Y-79057396D01*
X152559739Y-79057396D01*
X152568631Y-79060519D01*
X152575819Y-79060801D01*
X152575878Y-79060812D01*
X152582730Y-79062980D01*
X152589337Y-79063500D01*
X152642016Y-79063500D01*
X152646962Y-79063597D01*
X152703994Y-79065838D01*
X152711100Y-79063954D01*
X152719344Y-79063500D01*
X153911750Y-79063500D01*
X153979871Y-79083502D01*
X153996549Y-79096306D01*
X154007961Y-79106690D01*
X154052410Y-79147135D01*
X154059083Y-79150758D01*
X154184099Y-79218637D01*
X154184101Y-79218638D01*
X154190776Y-79222262D01*
X154198125Y-79224190D01*
X154335719Y-79260287D01*
X154335721Y-79260287D01*
X154343069Y-79262215D01*
X154426380Y-79263524D01*
X154492898Y-79264569D01*
X154492901Y-79264569D01*
X154500495Y-79264688D01*
X154653968Y-79229538D01*
X154794625Y-79158795D01*
X154856715Y-79105765D01*
X154908574Y-79061474D01*
X154908576Y-79061471D01*
X154914348Y-79056542D01*
X155006224Y-78928683D01*
X155064950Y-78782598D01*
X155087134Y-78626723D01*
X155087278Y-78613000D01*
X155068363Y-78456694D01*
X155012710Y-78309412D01*
X154923531Y-78179657D01*
X154821603Y-78088842D01*
X154811648Y-78079972D01*
X154811645Y-78079970D01*
X154805976Y-78074919D01*
X154792061Y-78067551D01*
X154673543Y-78004799D01*
X154673544Y-78004799D01*
X154666831Y-78001245D01*
X154649079Y-77996786D01*
X154521498Y-77964740D01*
X154521496Y-77964740D01*
X154514128Y-77962889D01*
X154506530Y-77962849D01*
X154506528Y-77962849D01*
X154439319Y-77962497D01*
X154356684Y-77962065D01*
X154349305Y-77963837D01*
X154349301Y-77963837D01*
X154210967Y-77997048D01*
X154210963Y-77997049D01*
X154203588Y-77998820D01*
X154063679Y-78071032D01*
X154057962Y-78076019D01*
X154057955Y-78076024D01*
X153994421Y-78131449D01*
X153929939Y-78161157D01*
X153911592Y-78162500D01*
X153108259Y-78162500D01*
X153040138Y-78142498D01*
X152993645Y-78088842D01*
X152990393Y-78081037D01*
X152983395Y-78062516D01*
X152983393Y-78062512D01*
X152980710Y-78055412D01*
X152891531Y-77925657D01*
X152844971Y-77884174D01*
X152779648Y-77825972D01*
X152779645Y-77825970D01*
X152773976Y-77820919D01*
X152761043Y-77814071D01*
X152719270Y-77791954D01*
X152634831Y-77747245D01*
X152535970Y-77722413D01*
X152489498Y-77710740D01*
X152489496Y-77710740D01*
X152482128Y-77708889D01*
X152474530Y-77708849D01*
X152474528Y-77708849D01*
X152407319Y-77708497D01*
X152324684Y-77708065D01*
X152317305Y-77709837D01*
X152317301Y-77709837D01*
X152178967Y-77743048D01*
X152178963Y-77743049D01*
X152171588Y-77744820D01*
X152031679Y-77817032D01*
X152025957Y-77822024D01*
X152025955Y-77822025D01*
X151918759Y-77915538D01*
X151918756Y-77915541D01*
X151913034Y-77920533D01*
X151908667Y-77926747D01*
X151853811Y-78004799D01*
X151822501Y-78049348D01*
X151765309Y-78196039D01*
X151764318Y-78203568D01*
X151751207Y-78303157D01*
X151744758Y-78352138D01*
X149267500Y-78352138D01*
X149267500Y-76251911D01*
X149276593Y-76204914D01*
X149278865Y-76199262D01*
X149322950Y-76089598D01*
X149332388Y-76023282D01*
X149344553Y-75937807D01*
X149344553Y-75937804D01*
X149345134Y-75933723D01*
X149345278Y-75920000D01*
X149326363Y-75763694D01*
X149298650Y-75690354D01*
X149273394Y-75623514D01*
X149273393Y-75623511D01*
X149270710Y-75616412D01*
X149181531Y-75486657D01*
X149134971Y-75445174D01*
X149093404Y-75408138D01*
X155399758Y-75408138D01*
X155417035Y-75564633D01*
X155471143Y-75712490D01*
X155475380Y-75718796D01*
X155475382Y-75718799D01*
X155489382Y-75739633D01*
X155558958Y-75843172D01*
X155675410Y-75949135D01*
X155697012Y-75960864D01*
X155807099Y-76020637D01*
X155807101Y-76020638D01*
X155813776Y-76024262D01*
X155821125Y-76026190D01*
X155958718Y-76062287D01*
X155958722Y-76062288D01*
X155966069Y-76064215D01*
X156017697Y-76065026D01*
X156085494Y-76086095D01*
X156104812Y-76101915D01*
X156917247Y-76914350D01*
X156927101Y-76925439D01*
X156939568Y-76941252D01*
X156948128Y-76952110D01*
X156955875Y-76957465D01*
X156955877Y-76957466D01*
X156996375Y-76985455D01*
X156999587Y-76987750D01*
X157013119Y-76997745D01*
X157038257Y-77016312D01*
X157046816Y-77022634D01*
X157053632Y-77025027D01*
X157059569Y-77029131D01*
X157068549Y-77031971D01*
X157068551Y-77031972D01*
X157088717Y-77038350D01*
X157115519Y-77046826D01*
X157119250Y-77048071D01*
X157165737Y-77064396D01*
X157165739Y-77064396D01*
X157174631Y-77067519D01*
X157181819Y-77067801D01*
X157181878Y-77067812D01*
X157188730Y-77069980D01*
X157195337Y-77070500D01*
X157248016Y-77070500D01*
X157252962Y-77070597D01*
X157309994Y-77072838D01*
X157317100Y-77070954D01*
X157325344Y-77070500D01*
X157665500Y-77070500D01*
X157733621Y-77090502D01*
X157780114Y-77144158D01*
X157791500Y-77196500D01*
X157791500Y-78087030D01*
X157771498Y-78155151D01*
X157760020Y-78170184D01*
X157755034Y-78174533D01*
X157664501Y-78303348D01*
X157607309Y-78450039D01*
X157586758Y-78606138D01*
X157604035Y-78762633D01*
X157658143Y-78910490D01*
X157662380Y-78916796D01*
X157662382Y-78916799D01*
X157687057Y-78953519D01*
X157745958Y-79041172D01*
X157751575Y-79046283D01*
X157756542Y-79052038D01*
X157755210Y-79053187D01*
X157787223Y-79105765D01*
X157791500Y-79138317D01*
X157791500Y-79594780D01*
X157790627Y-79609589D01*
X157786636Y-79643310D01*
X157788328Y-79652574D01*
X157788328Y-79652575D01*
X157797172Y-79701001D01*
X157797822Y-79704904D01*
X157802803Y-79738030D01*
X157806551Y-79762962D01*
X157809679Y-79769475D01*
X157810975Y-79776573D01*
X157838025Y-79828647D01*
X157839768Y-79832137D01*
X157865191Y-79885079D01*
X157870077Y-79890365D01*
X157870110Y-79890413D01*
X157873421Y-79896788D01*
X157877725Y-79901828D01*
X157914952Y-79939055D01*
X157918381Y-79942620D01*
X157957146Y-79984556D01*
X157963505Y-79988249D01*
X157969663Y-79993766D01*
X162126070Y-84150173D01*
X162160096Y-84212485D01*
X162162214Y-84225441D01*
X162176035Y-84350633D01*
X162230143Y-84498490D01*
X162234380Y-84504796D01*
X162234382Y-84504799D01*
X162266528Y-84552637D01*
X162317958Y-84629172D01*
X162434410Y-84735135D01*
X162455885Y-84746795D01*
X162566099Y-84806637D01*
X162566101Y-84806638D01*
X162572776Y-84810262D01*
X162580125Y-84812190D01*
X162717719Y-84848287D01*
X162717721Y-84848287D01*
X162725069Y-84850215D01*
X162808380Y-84851524D01*
X162874898Y-84852569D01*
X162874901Y-84852569D01*
X162882495Y-84852688D01*
X163035968Y-84817538D01*
X163176625Y-84746795D01*
X163202869Y-84724381D01*
X163290574Y-84649474D01*
X163290576Y-84649471D01*
X163296348Y-84644542D01*
X163388224Y-84516683D01*
X163446950Y-84370598D01*
X163461431Y-84268849D01*
X163468553Y-84218807D01*
X163468553Y-84218804D01*
X163469134Y-84214723D01*
X163469278Y-84201000D01*
X163450363Y-84044694D01*
X163426700Y-83982072D01*
X163410855Y-83940138D01*
X167238758Y-83940138D01*
X167256035Y-84096633D01*
X167310143Y-84244490D01*
X167314380Y-84250796D01*
X167314382Y-84250799D01*
X167354709Y-84310811D01*
X167397958Y-84375172D01*
X167514410Y-84481135D01*
X167566902Y-84509636D01*
X167646099Y-84552637D01*
X167646101Y-84552638D01*
X167652776Y-84556262D01*
X167660125Y-84558190D01*
X167797719Y-84594287D01*
X167797721Y-84594287D01*
X167805069Y-84596215D01*
X167888380Y-84597524D01*
X167954898Y-84598569D01*
X167954901Y-84598569D01*
X167962495Y-84598688D01*
X168115968Y-84563538D01*
X168256625Y-84492795D01*
X168282869Y-84470381D01*
X168370574Y-84395474D01*
X168370576Y-84395471D01*
X168376348Y-84390542D01*
X168468224Y-84262683D01*
X168526950Y-84116598D01*
X168537183Y-84044694D01*
X168548553Y-83964807D01*
X168548553Y-83964804D01*
X168549134Y-83960723D01*
X168549278Y-83947000D01*
X168530363Y-83790694D01*
X168518088Y-83758209D01*
X168477394Y-83650514D01*
X168477393Y-83650511D01*
X168474710Y-83643412D01*
X168385531Y-83513657D01*
X168379865Y-83508609D01*
X168375986Y-83504209D01*
X168345941Y-83439883D01*
X168344500Y-83420884D01*
X168344500Y-81835293D01*
X168364502Y-81767172D01*
X168381405Y-81746198D01*
X168540473Y-81587130D01*
X168602785Y-81553104D01*
X168631547Y-81550241D01*
X168636099Y-81550313D01*
X168652398Y-81550569D01*
X168652401Y-81550569D01*
X168659995Y-81550688D01*
X168813468Y-81515538D01*
X168954125Y-81444795D01*
X169011176Y-81396069D01*
X169068074Y-81347474D01*
X169068076Y-81347471D01*
X169073848Y-81342542D01*
X169165724Y-81214683D01*
X169224450Y-81068598D01*
X169246634Y-80912723D01*
X169246778Y-80899000D01*
X169227863Y-80742694D01*
X169210703Y-80697282D01*
X169174894Y-80602514D01*
X169174893Y-80602511D01*
X169172210Y-80595412D01*
X169083031Y-80465657D01*
X169036471Y-80424174D01*
X168971148Y-80365972D01*
X168971145Y-80365970D01*
X168965476Y-80360919D01*
X168826331Y-80287245D01*
X168809622Y-80283048D01*
X168680998Y-80250740D01*
X168680996Y-80250740D01*
X168673628Y-80248889D01*
X168666030Y-80248849D01*
X168666028Y-80248849D01*
X168598819Y-80248497D01*
X168516184Y-80248065D01*
X168508805Y-80249837D01*
X168508801Y-80249837D01*
X168370467Y-80283048D01*
X168370463Y-80283049D01*
X168363088Y-80284820D01*
X168223179Y-80357032D01*
X168217457Y-80362024D01*
X168217455Y-80362025D01*
X168110259Y-80455538D01*
X168110256Y-80455541D01*
X168104534Y-80460533D01*
X168100167Y-80466747D01*
X168020794Y-80579683D01*
X168014001Y-80589348D01*
X167956809Y-80736039D01*
X167955818Y-80743567D01*
X167938050Y-80878526D01*
X167909327Y-80943453D01*
X167902223Y-80951174D01*
X167599650Y-81253747D01*
X167588561Y-81263601D01*
X167569291Y-81278793D01*
X167569289Y-81278795D01*
X167561890Y-81284628D01*
X167556535Y-81292375D01*
X167556534Y-81292377D01*
X167528545Y-81332875D01*
X167526250Y-81336087D01*
X167491366Y-81383316D01*
X167488973Y-81390132D01*
X167484869Y-81396069D01*
X167468380Y-81448208D01*
X167467182Y-81451995D01*
X167465929Y-81455750D01*
X167446481Y-81511131D01*
X167446199Y-81518319D01*
X167446188Y-81518378D01*
X167444020Y-81525230D01*
X167443500Y-81531837D01*
X167443500Y-81584516D01*
X167443403Y-81589462D01*
X167441162Y-81646494D01*
X167443046Y-81653600D01*
X167443500Y-81661847D01*
X167443500Y-83421030D01*
X167423498Y-83489151D01*
X167412020Y-83504184D01*
X167407034Y-83508533D01*
X167377618Y-83550388D01*
X167337685Y-83607207D01*
X167316501Y-83637348D01*
X167259309Y-83784039D01*
X167254575Y-83820000D01*
X167245207Y-83891157D01*
X167238758Y-83940138D01*
X163410855Y-83940138D01*
X163397394Y-83904514D01*
X163397393Y-83904511D01*
X163394710Y-83897412D01*
X163305531Y-83767657D01*
X163222729Y-83693883D01*
X163193648Y-83667972D01*
X163193645Y-83667970D01*
X163187976Y-83662919D01*
X163048831Y-83589245D01*
X163041466Y-83587395D01*
X162903499Y-83552740D01*
X162903495Y-83552740D01*
X162896128Y-83550889D01*
X162888527Y-83550849D01*
X162888526Y-83550849D01*
X162852293Y-83550659D01*
X162784278Y-83530300D01*
X162763859Y-83513756D01*
X158729405Y-79479302D01*
X158695379Y-79416990D01*
X158692500Y-79390207D01*
X158692500Y-79138954D01*
X158712502Y-79070833D01*
X158721955Y-79058586D01*
X158724348Y-79056542D01*
X158735393Y-79041172D01*
X158760460Y-79006287D01*
X158816224Y-78928683D01*
X158874950Y-78782598D01*
X158897134Y-78626723D01*
X158897278Y-78613000D01*
X158878363Y-78456694D01*
X158822710Y-78309412D01*
X158733531Y-78179657D01*
X158727865Y-78174609D01*
X158723986Y-78170209D01*
X158693941Y-78105883D01*
X158692500Y-78086884D01*
X158692500Y-76966220D01*
X158693373Y-76951411D01*
X158696257Y-76927043D01*
X158697364Y-76917690D01*
X158695672Y-76908426D01*
X158695672Y-76908422D01*
X158686827Y-76859989D01*
X158686178Y-76856088D01*
X158678851Y-76807355D01*
X158678849Y-76807347D01*
X158677449Y-76798038D01*
X158674323Y-76791528D01*
X158673026Y-76784427D01*
X158665394Y-76769735D01*
X158645982Y-76732363D01*
X158644214Y-76728825D01*
X158622886Y-76684411D01*
X158618809Y-76675921D01*
X158613926Y-76670640D01*
X158613891Y-76670588D01*
X158610580Y-76664212D01*
X158606276Y-76659172D01*
X158569026Y-76621923D01*
X158565595Y-76618355D01*
X158533248Y-76583361D01*
X158533247Y-76583360D01*
X158526854Y-76576444D01*
X158520496Y-76572752D01*
X158514344Y-76567241D01*
X158272752Y-76325649D01*
X158262897Y-76314560D01*
X158262327Y-76313837D01*
X158241872Y-76287890D01*
X158234125Y-76282535D01*
X158234123Y-76282534D01*
X158193625Y-76254545D01*
X158190403Y-76252243D01*
X158150758Y-76222960D01*
X158150757Y-76222959D01*
X158143184Y-76217366D01*
X158136368Y-76214973D01*
X158130431Y-76210869D01*
X158121451Y-76208029D01*
X158121449Y-76208028D01*
X158099827Y-76201190D01*
X158074481Y-76193174D01*
X158070750Y-76191929D01*
X158024263Y-76175604D01*
X158024261Y-76175604D01*
X158015369Y-76172481D01*
X158008181Y-76172199D01*
X158008122Y-76172188D01*
X158001270Y-76170020D01*
X157994663Y-76169500D01*
X157941984Y-76169500D01*
X157937037Y-76169403D01*
X157880006Y-76167162D01*
X157872900Y-76169046D01*
X157864653Y-76169500D01*
X157498793Y-76169500D01*
X157430672Y-76149498D01*
X157409698Y-76132595D01*
X156743545Y-75466442D01*
X156709519Y-75404130D01*
X156707553Y-75392484D01*
X156706721Y-75385607D01*
X156691363Y-75258694D01*
X156684162Y-75239638D01*
X171654758Y-75239638D01*
X171672035Y-75396133D01*
X171726143Y-75543990D01*
X171730380Y-75550296D01*
X171730382Y-75550299D01*
X171757523Y-75590688D01*
X171813958Y-75674672D01*
X171819574Y-75679782D01*
X171921390Y-75772427D01*
X171930410Y-75780635D01*
X171937085Y-75784259D01*
X172062099Y-75852137D01*
X172062101Y-75852138D01*
X172068776Y-75855762D01*
X172076125Y-75857690D01*
X172213718Y-75893787D01*
X172213722Y-75893788D01*
X172221069Y-75895715D01*
X172272697Y-75896526D01*
X172340494Y-75917595D01*
X172359812Y-75933415D01*
X173682747Y-77256350D01*
X173692601Y-77267439D01*
X173707793Y-77286709D01*
X173713628Y-77294110D01*
X173721375Y-77299465D01*
X173721377Y-77299466D01*
X173761875Y-77327455D01*
X173765087Y-77329750D01*
X173812316Y-77364634D01*
X173819132Y-77367027D01*
X173825069Y-77371131D01*
X173834049Y-77373971D01*
X173834051Y-77373972D01*
X173854217Y-77380350D01*
X173881019Y-77388826D01*
X173884750Y-77390071D01*
X173931237Y-77406396D01*
X173931239Y-77406396D01*
X173940131Y-77409519D01*
X173947319Y-77409801D01*
X173947378Y-77409812D01*
X173954230Y-77411980D01*
X173960837Y-77412500D01*
X174013516Y-77412500D01*
X174018462Y-77412597D01*
X174075494Y-77414838D01*
X174082600Y-77412954D01*
X174090844Y-77412500D01*
X175699500Y-77412500D01*
X175767621Y-77432502D01*
X175814114Y-77486158D01*
X175825500Y-77538500D01*
X175825500Y-85583099D01*
X175805498Y-85651220D01*
X175751842Y-85697713D01*
X175707703Y-85707194D01*
X175707823Y-85708232D01*
X175700278Y-85709105D01*
X175692684Y-85709065D01*
X175685305Y-85710837D01*
X175685301Y-85710837D01*
X175546967Y-85744048D01*
X175546963Y-85744049D01*
X175539588Y-85745820D01*
X175399679Y-85818032D01*
X175393957Y-85823024D01*
X175393955Y-85823025D01*
X175286759Y-85916538D01*
X175286756Y-85916541D01*
X175281034Y-85921533D01*
X175242269Y-85976689D01*
X175195350Y-86043449D01*
X175190501Y-86050348D01*
X175133309Y-86197039D01*
X175129478Y-86226138D01*
X175118836Y-86306975D01*
X175112758Y-86353138D01*
X175130035Y-86509633D01*
X175184143Y-86657490D01*
X175188380Y-86663796D01*
X175188382Y-86663799D01*
X175207178Y-86691770D01*
X175271958Y-86788172D01*
X175388410Y-86894135D01*
X175395085Y-86897759D01*
X175520099Y-86965637D01*
X175520101Y-86965638D01*
X175526776Y-86969262D01*
X175534125Y-86971190D01*
X175671719Y-87007287D01*
X175671721Y-87007287D01*
X175679069Y-87009215D01*
X175762380Y-87010524D01*
X175828898Y-87011569D01*
X175828901Y-87011569D01*
X175836495Y-87011688D01*
X175989968Y-86976538D01*
X176130625Y-86905795D01*
X176200490Y-86846125D01*
X176244574Y-86808474D01*
X176244576Y-86808471D01*
X176250348Y-86803542D01*
X176342224Y-86675683D01*
X176400950Y-86529598D01*
X176422480Y-86378316D01*
X176451881Y-86313694D01*
X176458128Y-86306975D01*
X176570350Y-86194753D01*
X176581439Y-86184899D01*
X176600709Y-86169707D01*
X176600711Y-86169705D01*
X176608110Y-86163872D01*
X176641462Y-86115615D01*
X176643757Y-86112403D01*
X176673040Y-86072758D01*
X176673041Y-86072757D01*
X176678634Y-86065184D01*
X176681027Y-86058368D01*
X176685131Y-86052431D01*
X176702826Y-85996481D01*
X176704071Y-85992750D01*
X176720396Y-85946263D01*
X176720396Y-85946261D01*
X176723519Y-85937369D01*
X176723801Y-85930181D01*
X176723812Y-85930122D01*
X176725980Y-85923270D01*
X176726500Y-85916663D01*
X176726500Y-85863984D01*
X176726597Y-85859037D01*
X176728468Y-85811418D01*
X176728838Y-85802006D01*
X176726954Y-85794900D01*
X176726500Y-85786656D01*
X176726500Y-83812145D01*
X176746502Y-83744024D01*
X176800158Y-83697531D01*
X176870432Y-83687427D01*
X176884473Y-83690269D01*
X176941719Y-83705287D01*
X176941721Y-83705287D01*
X176949069Y-83707215D01*
X177032380Y-83708524D01*
X177098898Y-83709569D01*
X177098901Y-83709569D01*
X177106495Y-83709688D01*
X177259968Y-83674538D01*
X177400625Y-83603795D01*
X177406397Y-83598866D01*
X177406399Y-83598864D01*
X177462839Y-83550659D01*
X177476855Y-83538689D01*
X177541644Y-83509658D01*
X177558685Y-83508500D01*
X181470750Y-83508500D01*
X181538871Y-83528502D01*
X181555552Y-83541309D01*
X181560429Y-83545747D01*
X181589209Y-83584394D01*
X181614191Y-83636418D01*
X181619077Y-83641704D01*
X181619110Y-83641752D01*
X181622421Y-83648127D01*
X181626725Y-83653167D01*
X181663952Y-83690394D01*
X181667381Y-83693959D01*
X181706146Y-83735895D01*
X181712505Y-83739588D01*
X181718663Y-83745105D01*
X187362595Y-89389037D01*
X187396621Y-89451349D01*
X187399500Y-89478132D01*
X187399500Y-90065579D01*
X187379498Y-90133700D01*
X187356329Y-90160528D01*
X187325604Y-90187331D01*
X187288916Y-90239533D01*
X187236013Y-90314807D01*
X187228113Y-90326047D01*
X187166524Y-90484013D01*
X187165532Y-90491546D01*
X187165532Y-90491547D01*
X187149585Y-90612683D01*
X187144394Y-90652111D01*
X187162999Y-90820635D01*
X187191994Y-90899868D01*
X187217984Y-90970887D01*
X187221266Y-90979856D01*
X187225502Y-90986159D01*
X187225502Y-90986160D01*
X187234701Y-90999849D01*
X187315830Y-91120583D01*
X187321442Y-91125690D01*
X187321445Y-91125693D01*
X187435612Y-91229577D01*
X187435616Y-91229580D01*
X187441233Y-91234691D01*
X187447906Y-91238314D01*
X187447910Y-91238317D01*
X187583558Y-91311967D01*
X187583560Y-91311968D01*
X187590235Y-91315592D01*
X187597584Y-91317520D01*
X187746883Y-91356688D01*
X187746885Y-91356688D01*
X187754233Y-91358616D01*
X187840609Y-91359973D01*
X187916161Y-91361160D01*
X187916164Y-91361160D01*
X187923760Y-91361279D01*
X187931165Y-91359583D01*
X187931166Y-91359583D01*
X187991586Y-91345745D01*
X188089029Y-91323428D01*
X188240498Y-91247247D01*
X188369423Y-91137134D01*
X188468361Y-90999447D01*
X188478739Y-90973631D01*
X188528766Y-90849187D01*
X188528767Y-90849185D01*
X188531601Y-90842134D01*
X188545122Y-90747128D01*
X188554909Y-90678362D01*
X188554909Y-90678359D01*
X188555490Y-90674278D01*
X188555645Y-90659500D01*
X188553840Y-90644580D01*
X188550726Y-90618849D01*
X188535276Y-90491180D01*
X188475345Y-90332577D01*
X188451366Y-90297688D01*
X188383614Y-90199108D01*
X188383613Y-90199107D01*
X188379312Y-90192849D01*
X188342681Y-90160212D01*
X188305125Y-90099962D01*
X188300500Y-90066136D01*
X188300500Y-89273558D01*
X188301373Y-89258749D01*
X188304257Y-89234380D01*
X188305364Y-89225028D01*
X188303672Y-89215765D01*
X188303672Y-89215758D01*
X188294825Y-89167321D01*
X188294174Y-89163414D01*
X188286850Y-89114695D01*
X188286850Y-89114694D01*
X188285449Y-89105377D01*
X188282321Y-89098864D01*
X188281025Y-89091766D01*
X188253972Y-89039686D01*
X188252223Y-89036184D01*
X188230887Y-88991752D01*
X188230886Y-88991751D01*
X188226809Y-88983260D01*
X188221923Y-88977975D01*
X188221892Y-88977928D01*
X188218579Y-88971550D01*
X188214275Y-88966511D01*
X188177048Y-88929284D01*
X188173618Y-88925718D01*
X188141246Y-88890698D01*
X188134854Y-88883783D01*
X188128495Y-88880090D01*
X188122337Y-88874573D01*
X187282140Y-88034376D01*
X189004455Y-88034376D01*
X189005191Y-88041379D01*
X189005191Y-88041380D01*
X189022438Y-88205474D01*
X189023227Y-88212983D01*
X189025498Y-88219654D01*
X189076064Y-88368190D01*
X189081103Y-88382993D01*
X189084793Y-88388991D01*
X189084794Y-88388993D01*
X189095867Y-88406992D01*
X189175206Y-88535955D01*
X189180132Y-88540986D01*
X189180135Y-88540989D01*
X189207369Y-88568799D01*
X189300859Y-88664268D01*
X189306784Y-88668087D01*
X189306786Y-88668088D01*
X189335924Y-88686866D01*
X189451817Y-88761554D01*
X189458437Y-88763963D01*
X189458440Y-88763965D01*
X189613961Y-88820570D01*
X189613964Y-88820571D01*
X189620578Y-88822978D01*
X189647121Y-88826331D01*
X189755355Y-88840004D01*
X189755358Y-88840004D01*
X189759283Y-88840500D01*
X190292272Y-88840500D01*
X190360393Y-88860502D01*
X190406886Y-88914158D01*
X190416990Y-88984432D01*
X190389357Y-89046815D01*
X190337197Y-89109865D01*
X190337194Y-89109869D01*
X190332144Y-89115974D01*
X190261627Y-89265829D01*
X190260141Y-89273620D01*
X190244788Y-89354107D01*
X190230594Y-89428514D01*
X190240993Y-89593805D01*
X190243442Y-89601341D01*
X190243442Y-89601343D01*
X190279330Y-89711793D01*
X190292172Y-89751317D01*
X190380914Y-89891152D01*
X190386693Y-89896579D01*
X190386694Y-89896580D01*
X190471087Y-89975831D01*
X190501644Y-90004526D01*
X190646776Y-90084313D01*
X190654451Y-90086284D01*
X190654452Y-90086284D01*
X190799513Y-90123529D01*
X190799516Y-90123529D01*
X190807191Y-90125500D01*
X190931242Y-90125500D01*
X190978714Y-90119503D01*
X191046447Y-90110947D01*
X191046450Y-90110946D01*
X191054312Y-90109953D01*
X191061679Y-90107036D01*
X191061680Y-90107036D01*
X191200930Y-90051903D01*
X191200933Y-90051902D01*
X191208299Y-90048985D01*
X191214766Y-90044287D01*
X191335873Y-89956297D01*
X191342287Y-89951637D01*
X191447856Y-89824026D01*
X191518373Y-89674171D01*
X191533703Y-89593805D01*
X191547921Y-89519272D01*
X191547921Y-89519270D01*
X191549406Y-89511486D01*
X191539007Y-89346195D01*
X191512991Y-89266125D01*
X191490279Y-89196225D01*
X191490278Y-89196222D01*
X191487828Y-89188683D01*
X191399086Y-89048848D01*
X191387495Y-89037963D01*
X191281468Y-88938396D01*
X191245502Y-88877183D01*
X191248341Y-88806243D01*
X191289082Y-88748099D01*
X191300951Y-88739692D01*
X191404401Y-88675049D01*
X191410375Y-88671316D01*
X191513610Y-88568799D01*
X191532810Y-88549733D01*
X191532813Y-88549729D01*
X191537807Y-88544770D01*
X191634037Y-88393136D01*
X191666206Y-88302795D01*
X191691919Y-88230586D01*
X191691920Y-88230581D01*
X191694281Y-88223951D01*
X191695114Y-88216965D01*
X191695115Y-88216961D01*
X191713159Y-88065636D01*
X191715545Y-88045624D01*
X191714363Y-88034376D01*
X193434455Y-88034376D01*
X193435191Y-88041379D01*
X193435191Y-88041380D01*
X193452438Y-88205474D01*
X193453227Y-88212983D01*
X193455498Y-88219654D01*
X193506064Y-88368190D01*
X193511103Y-88382993D01*
X193514793Y-88388991D01*
X193514794Y-88388993D01*
X193525867Y-88406992D01*
X193605206Y-88535955D01*
X193610132Y-88540986D01*
X193610135Y-88540989D01*
X193637369Y-88568799D01*
X193730859Y-88664268D01*
X193736784Y-88668087D01*
X193736786Y-88668088D01*
X193765924Y-88686866D01*
X193881817Y-88761554D01*
X193888437Y-88763963D01*
X193888440Y-88763965D01*
X194043961Y-88820570D01*
X194043964Y-88820571D01*
X194050578Y-88822978D01*
X194077121Y-88826331D01*
X194185355Y-88840004D01*
X194185358Y-88840004D01*
X194189283Y-88840500D01*
X194885155Y-88840500D01*
X195018472Y-88825546D01*
X195025847Y-88822978D01*
X195108988Y-88794025D01*
X195188073Y-88766485D01*
X195195965Y-88761554D01*
X195334401Y-88675049D01*
X195340375Y-88671316D01*
X195443610Y-88568799D01*
X195462810Y-88549733D01*
X195462813Y-88549729D01*
X195467807Y-88544770D01*
X195564037Y-88393136D01*
X195596206Y-88302795D01*
X195621919Y-88230586D01*
X195621920Y-88230581D01*
X195624281Y-88223951D01*
X195625114Y-88216965D01*
X195625115Y-88216961D01*
X195643159Y-88065636D01*
X195645545Y-88045624D01*
X195636057Y-87955348D01*
X195627510Y-87874025D01*
X195627509Y-87874021D01*
X195626773Y-87867017D01*
X195599220Y-87786080D01*
X195571168Y-87703677D01*
X195571167Y-87703674D01*
X195568897Y-87697007D01*
X195541975Y-87653245D01*
X195509645Y-87600694D01*
X195474794Y-87544045D01*
X195469868Y-87539014D01*
X195469865Y-87539011D01*
X195409024Y-87476883D01*
X195349141Y-87415732D01*
X195339405Y-87409457D01*
X195204109Y-87322265D01*
X195198183Y-87318446D01*
X195191563Y-87316037D01*
X195191560Y-87316035D01*
X195036039Y-87259430D01*
X195036036Y-87259429D01*
X195029422Y-87257022D01*
X194972692Y-87249856D01*
X194894645Y-87239996D01*
X194894642Y-87239996D01*
X194890717Y-87239500D01*
X194194845Y-87239500D01*
X194061528Y-87254454D01*
X194054875Y-87256771D01*
X194054874Y-87256771D01*
X193986549Y-87280564D01*
X193891927Y-87313515D01*
X193885953Y-87317248D01*
X193885951Y-87317249D01*
X193877924Y-87322265D01*
X193739625Y-87408684D01*
X193694584Y-87453412D01*
X193617190Y-87530267D01*
X193617187Y-87530271D01*
X193612193Y-87535230D01*
X193515963Y-87686864D01*
X193509976Y-87703677D01*
X193458081Y-87849414D01*
X193458080Y-87849419D01*
X193455719Y-87856049D01*
X193454886Y-87863035D01*
X193454885Y-87863039D01*
X193446465Y-87933652D01*
X193434455Y-88034376D01*
X191714363Y-88034376D01*
X191706057Y-87955348D01*
X191697510Y-87874025D01*
X191697509Y-87874021D01*
X191696773Y-87867017D01*
X191669220Y-87786080D01*
X191641168Y-87703677D01*
X191641167Y-87703674D01*
X191638897Y-87697007D01*
X191611975Y-87653245D01*
X191579645Y-87600694D01*
X191544794Y-87544045D01*
X191539868Y-87539014D01*
X191539865Y-87539011D01*
X191479024Y-87476883D01*
X191419141Y-87415732D01*
X191409405Y-87409457D01*
X191274109Y-87322265D01*
X191268183Y-87318446D01*
X191261563Y-87316037D01*
X191261560Y-87316035D01*
X191106039Y-87259430D01*
X191106036Y-87259429D01*
X191099422Y-87257022D01*
X191042692Y-87249856D01*
X190964645Y-87239996D01*
X190964642Y-87239996D01*
X190960717Y-87239500D01*
X189764845Y-87239500D01*
X189631528Y-87254454D01*
X189624875Y-87256771D01*
X189624874Y-87256771D01*
X189556549Y-87280564D01*
X189461927Y-87313515D01*
X189455953Y-87317248D01*
X189455951Y-87317249D01*
X189447924Y-87322265D01*
X189309625Y-87408684D01*
X189264584Y-87453412D01*
X189187190Y-87530267D01*
X189187187Y-87530271D01*
X189182193Y-87535230D01*
X189085963Y-87686864D01*
X189079976Y-87703677D01*
X189028081Y-87849414D01*
X189028080Y-87849419D01*
X189025719Y-87856049D01*
X189024886Y-87863035D01*
X189024885Y-87863039D01*
X189016465Y-87933652D01*
X189004455Y-88034376D01*
X187282140Y-88034376D01*
X182640204Y-83392440D01*
X182606178Y-83330128D01*
X182612392Y-83256350D01*
X182623950Y-83227598D01*
X182638555Y-83124976D01*
X182645553Y-83075807D01*
X182645553Y-83075804D01*
X182646134Y-83071723D01*
X182646278Y-83058000D01*
X182627363Y-82901694D01*
X182571710Y-82754412D01*
X182482531Y-82624657D01*
X182418724Y-82567807D01*
X182370648Y-82524972D01*
X182370645Y-82524970D01*
X182364976Y-82519919D01*
X182351061Y-82512551D01*
X182232543Y-82449799D01*
X182232544Y-82449799D01*
X182225831Y-82446245D01*
X182209122Y-82442048D01*
X182080498Y-82409740D01*
X182080496Y-82409740D01*
X182073128Y-82407889D01*
X182065530Y-82407849D01*
X182065528Y-82407849D01*
X181998319Y-82407497D01*
X181915684Y-82407065D01*
X181908305Y-82408837D01*
X181908301Y-82408837D01*
X181769967Y-82442048D01*
X181769963Y-82442049D01*
X181762588Y-82443820D01*
X181622679Y-82516032D01*
X181616962Y-82521019D01*
X181616955Y-82521024D01*
X181553421Y-82576449D01*
X181488939Y-82606157D01*
X181470592Y-82607500D01*
X177558263Y-82607500D01*
X177490142Y-82587498D01*
X177474444Y-82575576D01*
X177417648Y-82524972D01*
X177417645Y-82524970D01*
X177411976Y-82519919D01*
X177398061Y-82512551D01*
X177279543Y-82449799D01*
X177279544Y-82449799D01*
X177272831Y-82446245D01*
X177256122Y-82442048D01*
X177127498Y-82409740D01*
X177127496Y-82409740D01*
X177120128Y-82407889D01*
X177112530Y-82407849D01*
X177112528Y-82407849D01*
X177045319Y-82407497D01*
X176962684Y-82407065D01*
X176955305Y-82408837D01*
X176955301Y-82408837D01*
X176881914Y-82426456D01*
X176811006Y-82422909D01*
X176753272Y-82381589D01*
X176727042Y-82315615D01*
X176726500Y-82303937D01*
X176726500Y-77028055D01*
X176727839Y-77016353D01*
X176727319Y-77016312D01*
X176728058Y-77006921D01*
X176730185Y-76997745D01*
X176726815Y-76950150D01*
X176726500Y-76941252D01*
X176726500Y-76928150D01*
X176724886Y-76917414D01*
X176723801Y-76907582D01*
X176721282Y-76872013D01*
X176720617Y-76862616D01*
X176717217Y-76853829D01*
X176715355Y-76845498D01*
X176712849Y-76837351D01*
X176711449Y-76828038D01*
X176691933Y-76787396D01*
X176688006Y-76778321D01*
X176675136Y-76745055D01*
X176671739Y-76736274D01*
X176665909Y-76728879D01*
X176661682Y-76721468D01*
X176656885Y-76714409D01*
X176652809Y-76705921D01*
X176622200Y-76672807D01*
X176615779Y-76665288D01*
X176593705Y-76637288D01*
X176593702Y-76637285D01*
X176587872Y-76629890D01*
X176580126Y-76624537D01*
X176573902Y-76618692D01*
X176567248Y-76613361D01*
X176560854Y-76606444D01*
X176521862Y-76583796D01*
X176513509Y-76578495D01*
X176484178Y-76558223D01*
X176484177Y-76558222D01*
X176476431Y-76552869D01*
X176467452Y-76550029D01*
X176459781Y-76546271D01*
X176451854Y-76543132D01*
X176443713Y-76538404D01*
X176434546Y-76536279D01*
X176434543Y-76536278D01*
X176399793Y-76528224D01*
X176390249Y-76525613D01*
X176354115Y-76514185D01*
X176354116Y-76514185D01*
X176347270Y-76512020D01*
X176340663Y-76511500D01*
X176338193Y-76511500D01*
X176337401Y-76511469D01*
X176330325Y-76510518D01*
X176330312Y-76510681D01*
X176320921Y-76509942D01*
X176311745Y-76507815D01*
X176302350Y-76508480D01*
X176302347Y-76508480D01*
X176264151Y-76511185D01*
X176255252Y-76511500D01*
X174264293Y-76511500D01*
X174196172Y-76491498D01*
X174175198Y-76474595D01*
X172998545Y-75297942D01*
X172964519Y-75235630D01*
X172962553Y-75223984D01*
X172955163Y-75162917D01*
X172946363Y-75090194D01*
X172929115Y-75044549D01*
X172893394Y-74950014D01*
X172893393Y-74950011D01*
X172890710Y-74942912D01*
X172801531Y-74813157D01*
X172747356Y-74764889D01*
X172689648Y-74713472D01*
X172689645Y-74713470D01*
X172683976Y-74708419D01*
X172544831Y-74634745D01*
X172528122Y-74630548D01*
X172399498Y-74598240D01*
X172399496Y-74598240D01*
X172392128Y-74596389D01*
X172384530Y-74596349D01*
X172384528Y-74596349D01*
X172317319Y-74595997D01*
X172234684Y-74595565D01*
X172227305Y-74597337D01*
X172227301Y-74597337D01*
X172088967Y-74630548D01*
X172088963Y-74630549D01*
X172081588Y-74632320D01*
X171941679Y-74704532D01*
X171935957Y-74709524D01*
X171935955Y-74709525D01*
X171828759Y-74803038D01*
X171828756Y-74803041D01*
X171823034Y-74808033D01*
X171793604Y-74849908D01*
X171749924Y-74912058D01*
X171732501Y-74936848D01*
X171675309Y-75083539D01*
X171671225Y-75114561D01*
X171655873Y-75231172D01*
X171654758Y-75239638D01*
X156684162Y-75239638D01*
X156655172Y-75162917D01*
X156638394Y-75118514D01*
X156638393Y-75118511D01*
X156635710Y-75111412D01*
X156546531Y-74981657D01*
X156481000Y-74923271D01*
X156434648Y-74881972D01*
X156434645Y-74881970D01*
X156428976Y-74876919D01*
X156289831Y-74803245D01*
X156261537Y-74796138D01*
X156144498Y-74766740D01*
X156144496Y-74766740D01*
X156137128Y-74764889D01*
X156129530Y-74764849D01*
X156129528Y-74764849D01*
X156062319Y-74764497D01*
X155979684Y-74764065D01*
X155972305Y-74765837D01*
X155972301Y-74765837D01*
X155833967Y-74799048D01*
X155833963Y-74799049D01*
X155826588Y-74800820D01*
X155686679Y-74873032D01*
X155680957Y-74878024D01*
X155680955Y-74878025D01*
X155629089Y-74923271D01*
X155575980Y-74947739D01*
X155564332Y-74981800D01*
X155481873Y-75099125D01*
X155481868Y-75099135D01*
X155477501Y-75105348D01*
X155420309Y-75252039D01*
X155417452Y-75273743D01*
X155401339Y-75396133D01*
X155399758Y-75408138D01*
X149093404Y-75408138D01*
X149069648Y-75386972D01*
X149069645Y-75386970D01*
X149063976Y-75381919D01*
X148924831Y-75308245D01*
X148866184Y-75293514D01*
X148779498Y-75271740D01*
X148779496Y-75271740D01*
X148772128Y-75269889D01*
X148764530Y-75269849D01*
X148764528Y-75269849D01*
X148697319Y-75269497D01*
X148614684Y-75269065D01*
X148607305Y-75270837D01*
X148607301Y-75270837D01*
X148468967Y-75304048D01*
X148468963Y-75304049D01*
X148461588Y-75305820D01*
X148321679Y-75378032D01*
X148315957Y-75383024D01*
X148315955Y-75383025D01*
X148208759Y-75476538D01*
X148208756Y-75476541D01*
X148203034Y-75481533D01*
X148198667Y-75487747D01*
X148131625Y-75583138D01*
X148112501Y-75610348D01*
X148055309Y-75757039D01*
X148051506Y-75785927D01*
X148036397Y-75900689D01*
X148034758Y-75913138D01*
X148052035Y-76069633D01*
X148106143Y-76217490D01*
X148145082Y-76275437D01*
X148166500Y-76345711D01*
X148166500Y-79622084D01*
X148146067Y-79686693D01*
X148147459Y-79687439D01*
X148143872Y-79694128D01*
X148139501Y-79700348D01*
X148136740Y-79707430D01*
X148136739Y-79707432D01*
X148121572Y-79746335D01*
X148082309Y-79847039D01*
X148081318Y-79854568D01*
X148062992Y-79993766D01*
X148061758Y-80003138D01*
X148079035Y-80159633D01*
X148133143Y-80307490D01*
X148137380Y-80313796D01*
X148137382Y-80313799D01*
X148153987Y-80338509D01*
X148220958Y-80438172D01*
X148337410Y-80544135D01*
X148389902Y-80572636D01*
X148426982Y-80592769D01*
X148477304Y-80642852D01*
X148492560Y-80712190D01*
X148467907Y-80778769D01*
X148411173Y-80821451D01*
X148366860Y-80829500D01*
X147459263Y-80829500D01*
X147391142Y-80809498D01*
X147375444Y-80797576D01*
X147318648Y-80746972D01*
X147318645Y-80746970D01*
X147312976Y-80741919D01*
X147173831Y-80668245D01*
X147164177Y-80665820D01*
X147028498Y-80631740D01*
X147028496Y-80631740D01*
X147021128Y-80629889D01*
X147013530Y-80629849D01*
X147013528Y-80629849D01*
X146946319Y-80629497D01*
X146863684Y-80629065D01*
X146856305Y-80630837D01*
X146856301Y-80630837D01*
X146795914Y-80645335D01*
X146725006Y-80641788D01*
X146667272Y-80600468D01*
X146641042Y-80534494D01*
X146640500Y-80522816D01*
X146640500Y-75954220D01*
X146641373Y-75939411D01*
X146644257Y-75915043D01*
X146645364Y-75905690D01*
X146643672Y-75896426D01*
X146643672Y-75896422D01*
X146634827Y-75847989D01*
X146634178Y-75844088D01*
X146626851Y-75795355D01*
X146626849Y-75795347D01*
X146625449Y-75786038D01*
X146622323Y-75779528D01*
X146621026Y-75772427D01*
X146607696Y-75746765D01*
X146593982Y-75720363D01*
X146592214Y-75716825D01*
X146570886Y-75672411D01*
X146566809Y-75663921D01*
X146561922Y-75658635D01*
X146561895Y-75658595D01*
X146558580Y-75652212D01*
X146554275Y-75647172D01*
X146517048Y-75609945D01*
X146513618Y-75606379D01*
X146511163Y-75603723D01*
X146474854Y-75564444D01*
X146468495Y-75560751D01*
X146462337Y-75555234D01*
X146032753Y-75125650D01*
X146022899Y-75114561D01*
X146007707Y-75095291D01*
X146007705Y-75095289D01*
X146001872Y-75087890D01*
X145994125Y-75082535D01*
X145994123Y-75082534D01*
X145953625Y-75054545D01*
X145950403Y-75052243D01*
X145949965Y-75051919D01*
X145903184Y-75017366D01*
X145896368Y-75014973D01*
X145890431Y-75010869D01*
X145881451Y-75008029D01*
X145881449Y-75008028D01*
X145861283Y-75001650D01*
X145834481Y-74993174D01*
X145830750Y-74991929D01*
X145784263Y-74975604D01*
X145784261Y-74975604D01*
X145775369Y-74972481D01*
X145768181Y-74972199D01*
X145768122Y-74972188D01*
X145761270Y-74970020D01*
X145754663Y-74969500D01*
X145701984Y-74969500D01*
X145697037Y-74969403D01*
X145640006Y-74967162D01*
X145632900Y-74969046D01*
X145624653Y-74969500D01*
X145030263Y-74969500D01*
X144962142Y-74949498D01*
X144946444Y-74937576D01*
X144889648Y-74886972D01*
X144889645Y-74886970D01*
X144883976Y-74881919D01*
X144867192Y-74873032D01*
X144758639Y-74815556D01*
X144744831Y-74808245D01*
X144696631Y-74796138D01*
X144599498Y-74771740D01*
X144599496Y-74771740D01*
X144592128Y-74769889D01*
X144584530Y-74769849D01*
X144584528Y-74769849D01*
X144517319Y-74769497D01*
X144434684Y-74769065D01*
X144427305Y-74770837D01*
X144427301Y-74770837D01*
X144288967Y-74804048D01*
X144288963Y-74804049D01*
X144281588Y-74805820D01*
X144252551Y-74820807D01*
X144158115Y-74869549D01*
X144141679Y-74878032D01*
X144135957Y-74883024D01*
X144135955Y-74883025D01*
X144028759Y-74976538D01*
X144028756Y-74976541D01*
X144023034Y-74981533D01*
X144014847Y-74993182D01*
X143940389Y-75099125D01*
X143932501Y-75110348D01*
X143875309Y-75257039D01*
X143872240Y-75280348D01*
X143855944Y-75404130D01*
X143854758Y-75413138D01*
X139438596Y-75413138D01*
X139429524Y-75389130D01*
X139393394Y-75293514D01*
X139393393Y-75293511D01*
X139390710Y-75286412D01*
X139301531Y-75156657D01*
X139236959Y-75099125D01*
X139189648Y-75056972D01*
X139189645Y-75056970D01*
X139183976Y-75051919D01*
X139044831Y-74978245D01*
X139022349Y-74972598D01*
X138899498Y-74941740D01*
X138899496Y-74941740D01*
X138892128Y-74939889D01*
X138884530Y-74939849D01*
X138884528Y-74939849D01*
X138817319Y-74939497D01*
X138734684Y-74939065D01*
X138727305Y-74940837D01*
X138727301Y-74940837D01*
X138588967Y-74974048D01*
X138588963Y-74974049D01*
X138581588Y-74975820D01*
X138441679Y-75048032D01*
X138435957Y-75053024D01*
X138435955Y-75053025D01*
X138328759Y-75146538D01*
X138328756Y-75146541D01*
X138323034Y-75151533D01*
X138318667Y-75157747D01*
X138238551Y-75271740D01*
X138232501Y-75280348D01*
X138175309Y-75427039D01*
X138168792Y-75476538D01*
X138156309Y-75571359D01*
X138154758Y-75583138D01*
X138172035Y-75739633D01*
X138226143Y-75887490D01*
X138230380Y-75893796D01*
X138230382Y-75893799D01*
X138264133Y-75944025D01*
X138313958Y-76018172D01*
X138319574Y-76023282D01*
X138411143Y-76106603D01*
X138430410Y-76124135D01*
X138477123Y-76149498D01*
X138562099Y-76195637D01*
X138562101Y-76195638D01*
X138568776Y-76199262D01*
X138576125Y-76201190D01*
X138713718Y-76237287D01*
X138713722Y-76237288D01*
X138721069Y-76239215D01*
X138772697Y-76240026D01*
X138840494Y-76261095D01*
X138859812Y-76276915D01*
X140702595Y-78119698D01*
X140736621Y-78182010D01*
X140739500Y-78208793D01*
X140739500Y-78895438D01*
X140719498Y-78963559D01*
X140665842Y-79010052D01*
X140595568Y-79020156D01*
X140530988Y-78990662D01*
X140501685Y-78953519D01*
X140484982Y-78921363D01*
X140483214Y-78917825D01*
X140461886Y-78873411D01*
X140457809Y-78864921D01*
X140452922Y-78859635D01*
X140452895Y-78859595D01*
X140449580Y-78853212D01*
X140445275Y-78848172D01*
X140408048Y-78810945D01*
X140404618Y-78807379D01*
X140372246Y-78772359D01*
X140365854Y-78765444D01*
X140359495Y-78761751D01*
X140353337Y-78756234D01*
X137048545Y-75451442D01*
X137014519Y-75389130D01*
X137012553Y-75377484D01*
X137012198Y-75374549D01*
X136996363Y-75243694D01*
X136965840Y-75162917D01*
X136943394Y-75103514D01*
X136943393Y-75103511D01*
X136940710Y-75096412D01*
X136851531Y-74966657D01*
X136790251Y-74912058D01*
X136739648Y-74866972D01*
X136739645Y-74866970D01*
X136733976Y-74861919D01*
X136594831Y-74788245D01*
X136529647Y-74771872D01*
X136449498Y-74751740D01*
X136449496Y-74751740D01*
X136442128Y-74749889D01*
X136434530Y-74749849D01*
X136434528Y-74749849D01*
X136367319Y-74749497D01*
X136284684Y-74749065D01*
X136277305Y-74750837D01*
X136277301Y-74750837D01*
X136138967Y-74784048D01*
X136138963Y-74784049D01*
X136131588Y-74785820D01*
X135991679Y-74858032D01*
X135985957Y-74863024D01*
X135985955Y-74863025D01*
X135878759Y-74956538D01*
X135878756Y-74956541D01*
X135873034Y-74961533D01*
X135854491Y-74987917D01*
X135787993Y-75082534D01*
X135782501Y-75090348D01*
X135725309Y-75237039D01*
X135720626Y-75272612D01*
X135706747Y-75378032D01*
X135704758Y-75393138D01*
X129736500Y-75393138D01*
X129736500Y-75328954D01*
X129756502Y-75260833D01*
X129765955Y-75248586D01*
X129768348Y-75246542D01*
X129779393Y-75231172D01*
X129840208Y-75146538D01*
X129860224Y-75118683D01*
X129865662Y-75105157D01*
X129890026Y-75044549D01*
X129918950Y-74972598D01*
X129928625Y-74904617D01*
X129940553Y-74820807D01*
X129940553Y-74820804D01*
X129941134Y-74816723D01*
X129941223Y-74808245D01*
X129941235Y-74807134D01*
X129941235Y-74807128D01*
X129941278Y-74803000D01*
X129939493Y-74788245D01*
X129929966Y-74709525D01*
X129922363Y-74646694D01*
X129903713Y-74597337D01*
X129869394Y-74506514D01*
X129869393Y-74506511D01*
X129866710Y-74499412D01*
X129862887Y-74493850D01*
X154649500Y-74493850D01*
X154650199Y-74498497D01*
X154650199Y-74498502D01*
X154656155Y-74538119D01*
X154664551Y-74593962D01*
X154696469Y-74660431D01*
X154717806Y-74704864D01*
X154723191Y-74716079D01*
X154729583Y-74722994D01*
X154808755Y-74808643D01*
X154808758Y-74808645D01*
X154815146Y-74815556D01*
X154932287Y-74883596D01*
X154946852Y-74886972D01*
X155055078Y-74912058D01*
X155055079Y-74912058D01*
X155064255Y-74914185D01*
X155073650Y-74913520D01*
X155073653Y-74913520D01*
X155150403Y-74908085D01*
X155199384Y-74904617D01*
X155208163Y-74901221D01*
X155208166Y-74901220D01*
X155316946Y-74859136D01*
X155316948Y-74859135D01*
X155325726Y-74855739D01*
X155333123Y-74849908D01*
X155383241Y-74810399D01*
X155432027Y-74790801D01*
X155442607Y-74756684D01*
X155503774Y-74668182D01*
X155509131Y-74660431D01*
X155549980Y-74531270D01*
X155550500Y-74524663D01*
X155550500Y-72476150D01*
X155544875Y-72438730D01*
X155536849Y-72385349D01*
X155536849Y-72385348D01*
X155535449Y-72376038D01*
X155476809Y-72253921D01*
X155419845Y-72192297D01*
X155391245Y-72161357D01*
X155391242Y-72161355D01*
X155384854Y-72154444D01*
X155267713Y-72086404D01*
X155174155Y-72064718D01*
X155144922Y-72057942D01*
X155144921Y-72057942D01*
X155135745Y-72055815D01*
X155126350Y-72056480D01*
X155126347Y-72056480D01*
X155049597Y-72061915D01*
X155000616Y-72065383D01*
X154991837Y-72068779D01*
X154991834Y-72068780D01*
X154883054Y-72110864D01*
X154883052Y-72110865D01*
X154874274Y-72114261D01*
X154767890Y-72198128D01*
X154762535Y-72205875D01*
X154762534Y-72205877D01*
X154696226Y-72301818D01*
X154690869Y-72309569D01*
X154650020Y-72438730D01*
X154649500Y-72445337D01*
X154649500Y-74493850D01*
X129862887Y-74493850D01*
X129777531Y-74369657D01*
X129730971Y-74328174D01*
X129665648Y-74269972D01*
X129665645Y-74269970D01*
X129659976Y-74264919D01*
X129520831Y-74191245D01*
X129504122Y-74187048D01*
X129375498Y-74154740D01*
X129375496Y-74154740D01*
X129368128Y-74152889D01*
X129360530Y-74152849D01*
X129360528Y-74152849D01*
X129293319Y-74152497D01*
X129210684Y-74152065D01*
X129203305Y-74153837D01*
X129203301Y-74153837D01*
X129064967Y-74187048D01*
X129064963Y-74187049D01*
X129057588Y-74188820D01*
X128917679Y-74261032D01*
X128911957Y-74266024D01*
X128911955Y-74266025D01*
X128804759Y-74359538D01*
X128804756Y-74359541D01*
X128799034Y-74364533D01*
X128708501Y-74493348D01*
X128651309Y-74640039D01*
X128650318Y-74647568D01*
X128632041Y-74786395D01*
X128630758Y-74796138D01*
X128648035Y-74952633D01*
X128702143Y-75100490D01*
X128706380Y-75106796D01*
X128706382Y-75106799D01*
X128736489Y-75151602D01*
X128789958Y-75231172D01*
X128795575Y-75236283D01*
X128800542Y-75242038D01*
X128799210Y-75243187D01*
X128831223Y-75295765D01*
X128835500Y-75328317D01*
X128835500Y-79738030D01*
X128815498Y-79806151D01*
X128804020Y-79821184D01*
X128799034Y-79825533D01*
X128784234Y-79846591D01*
X128753457Y-79890383D01*
X128708501Y-79954348D01*
X128651309Y-80101039D01*
X128630758Y-80257138D01*
X114070500Y-80257138D01*
X114070500Y-61626189D01*
X114090502Y-61558068D01*
X114144158Y-61511575D01*
X114196500Y-61500189D01*
X197383500Y-61500189D01*
X197451621Y-61520191D01*
G37*
%TD.AperFunction*%
%TA.AperFunction,Conductor*%
G36*
X148282328Y-101689502D02*
G01*
X148328821Y-101743158D01*
X148338925Y-101813432D01*
X148309431Y-101878012D01*
X148303302Y-101884595D01*
X147805302Y-102382595D01*
X147742990Y-102416621D01*
X147716207Y-102419500D01*
X146425793Y-102419500D01*
X146357672Y-102399498D01*
X146311179Y-102345842D01*
X146301075Y-102275568D01*
X146330569Y-102210988D01*
X146336698Y-102204405D01*
X146834698Y-101706405D01*
X146897010Y-101672379D01*
X146923793Y-101669500D01*
X148214207Y-101669500D01*
X148282328Y-101689502D01*
G37*
%TD.AperFunction*%
%TA.AperFunction,Conductor*%
G36*
X147403328Y-97625502D02*
G01*
X147424302Y-97642405D01*
X147993247Y-98211350D01*
X148003101Y-98222439D01*
X148018294Y-98241711D01*
X148018298Y-98241715D01*
X148024128Y-98249110D01*
X148031875Y-98254464D01*
X148031879Y-98254468D01*
X148072404Y-98282477D01*
X148075598Y-98284758D01*
X148122817Y-98319635D01*
X148129634Y-98322029D01*
X148135569Y-98326131D01*
X148144544Y-98328969D01*
X148144545Y-98328970D01*
X148157516Y-98333072D01*
X148191475Y-98343812D01*
X148195215Y-98345060D01*
X148241745Y-98361400D01*
X148241748Y-98361401D01*
X148250631Y-98364520D01*
X148257816Y-98364803D01*
X148257889Y-98364817D01*
X148264730Y-98366980D01*
X148271337Y-98367500D01*
X148324006Y-98367500D01*
X148328952Y-98367597D01*
X148385994Y-98369838D01*
X148393100Y-98367954D01*
X148401347Y-98367500D01*
X149277250Y-98367500D01*
X149345371Y-98387502D01*
X149362049Y-98400306D01*
X149417910Y-98451135D01*
X149470402Y-98479636D01*
X149507482Y-98499769D01*
X149557804Y-98549852D01*
X149573060Y-98619190D01*
X149548407Y-98685769D01*
X149491673Y-98728451D01*
X149447360Y-98736500D01*
X139303793Y-98736500D01*
X139235672Y-98716498D01*
X139214698Y-98699595D01*
X138489409Y-97974306D01*
X138455383Y-97911994D01*
X138460448Y-97841179D01*
X138502995Y-97784343D01*
X138525352Y-97772301D01*
X138524968Y-97771538D01*
X138658841Y-97704207D01*
X138665625Y-97700795D01*
X138671397Y-97695866D01*
X138671399Y-97695864D01*
X138733991Y-97642405D01*
X138741855Y-97635689D01*
X138806644Y-97606658D01*
X138823685Y-97605500D01*
X147335207Y-97605500D01*
X147403328Y-97625502D01*
G37*
%TD.AperFunction*%
%TD*%
M02*
