%TF.GenerationSoftware,KiCad,Pcbnew,(6.0.11)*%
%TF.CreationDate,2023-02-06T10:27:39-08:00*%
%TF.ProjectId,EV1,4556312e-6b69-4636-9164-5f7063625858,rev?*%
%TF.SameCoordinates,Original*%
%TF.FileFunction,Copper,L2,Bot*%
%TF.FilePolarity,Positive*%
%FSLAX46Y46*%
G04 Gerber Fmt 4.6, Leading zero omitted, Abs format (unit mm)*
G04 Created by KiCad (PCBNEW (6.0.11)) date 2023-02-06 10:27:39*
%MOMM*%
%LPD*%
G01*
G04 APERTURE LIST*
G04 Aperture macros list*
%AMRoundRect*
0 Rectangle with rounded corners*
0 $1 Rounding radius*
0 $2 $3 $4 $5 $6 $7 $8 $9 X,Y pos of 4 corners*
0 Add a 4 corners polygon primitive as box body*
4,1,4,$2,$3,$4,$5,$6,$7,$8,$9,$2,$3,0*
0 Add four circle primitives for the rounded corners*
1,1,$1+$1,$2,$3*
1,1,$1+$1,$4,$5*
1,1,$1+$1,$6,$7*
1,1,$1+$1,$8,$9*
0 Add four rect primitives between the rounded corners*
20,1,$1+$1,$2,$3,$4,$5,0*
20,1,$1+$1,$4,$5,$6,$7,0*
20,1,$1+$1,$6,$7,$8,$9,0*
20,1,$1+$1,$8,$9,$2,$3,0*%
G04 Aperture macros list end*
%TA.AperFunction,SMDPad,CuDef*%
%ADD10R,0.380000X1.000000*%
%TD*%
%TA.AperFunction,SMDPad,CuDef*%
%ADD11R,0.700000X1.150000*%
%TD*%
%TA.AperFunction,ComponentPad*%
%ADD12RoundRect,0.250000X-0.600000X-0.725000X0.600000X-0.725000X0.600000X0.725000X-0.600000X0.725000X0*%
%TD*%
%TA.AperFunction,ComponentPad*%
%ADD13O,1.700000X1.950000*%
%TD*%
G04 APERTURE END LIST*
D10*
%TO.P,P1,B1,GND*%
%TO.N,GND*%
X191363400Y-79417200D03*
%TO.P,P1,B2,TX2+*%
%TO.N,unconnected-(P1-PadB2)*%
X190863400Y-79417200D03*
%TO.P,P1,B3,TX2-*%
%TO.N,unconnected-(P1-PadB3)*%
X190363400Y-79417200D03*
%TO.P,P1,B4,VBUS*%
%TO.N,VBUS*%
X189863400Y-79417200D03*
%TO.P,P1,B5,VCONN*%
%TO.N,unconnected-(P1-PadB5)*%
X189363400Y-79417200D03*
%TO.P,P1,B8,SBU2*%
%TO.N,unconnected-(P1-PadB8)*%
X187863400Y-79417200D03*
%TO.P,P1,B9,VBUS*%
%TO.N,VBUS*%
X187363400Y-79417200D03*
%TO.P,P1,B10,RX1-*%
%TO.N,unconnected-(P1-PadB10)*%
X186863400Y-79417200D03*
%TO.P,P1,B11,RX1+*%
%TO.N,unconnected-(P1-PadB11)*%
X186363400Y-79417200D03*
%TO.P,P1,B12,GND*%
%TO.N,GND*%
X185863400Y-79417200D03*
D11*
%TO.P,P1,S1,SHIELD*%
%TO.N,unconnected-(P1-PadS1)*%
X192033400Y-80257200D03*
%TD*%
D12*
%TO.P,J7,1,Pin_1*%
%TO.N,+3.3V*%
X123838400Y-112217200D03*
D13*
%TO.P,J7,2,Pin_2*%
%TO.N,/IO_PC9*%
X126338400Y-112217200D03*
%TO.P,J7,3,Pin_3*%
%TO.N,/IO_PC8*%
X128838400Y-112217200D03*
%TO.P,J7,4,Pin_4*%
%TO.N,/IO_PC7*%
X131338400Y-112217200D03*
%TO.P,J7,5,Pin_5*%
%TO.N,/IO_PC6*%
X133838400Y-112217200D03*
%TO.P,J7,6,Pin_6*%
%TO.N,GND*%
X136338400Y-112217200D03*
%TD*%
D12*
%TO.P,J6,1,Pin_1*%
%TO.N,+3.3V*%
X148288400Y-109047200D03*
D13*
%TO.P,J6,2,Pin_2*%
%TO.N,/USART2_RX*%
X150788400Y-109047200D03*
%TO.P,J6,3,Pin_3*%
%TO.N,/USART2_TX*%
X153288400Y-109047200D03*
%TO.P,J6,4,Pin_4*%
%TO.N,GND*%
X155788400Y-109047200D03*
%TD*%
D12*
%TO.P,J5,1,Pin_1*%
%TO.N,+3.3V*%
X123788400Y-95867200D03*
D13*
%TO.P,J5,2,Pin_2*%
%TO.N,/RST_PA6*%
X126288400Y-95867200D03*
%TO.P,J5,3,Pin_3*%
%TO.N,/BL_PA4*%
X128788400Y-95867200D03*
%TO.P,J5,4,Pin_4*%
%TO.N,/CS_PA1*%
X131288400Y-95867200D03*
%TO.P,J5,5,Pin_5*%
%TO.N,/DC_PB0*%
X133788400Y-95867200D03*
%TO.P,J5,6,Pin_6*%
%TO.N,/MOSI_SPI*%
X136288400Y-95867200D03*
%TO.P,J5,7,Pin_7*%
%TO.N,/SCK_SPI*%
X138788400Y-95867200D03*
%TO.P,J5,8,Pin_8*%
%TO.N,GND*%
X141288400Y-95867200D03*
%TD*%
D12*
%TO.P,J4,1,Pin_1*%
%TO.N,+3.3V*%
X150738400Y-80717200D03*
D13*
%TO.P,J4,2,Pin_2*%
%TO.N,/BB_COLS_2*%
X153238400Y-80717200D03*
%TO.P,J4,3,Pin_3*%
%TO.N,/BB_COLS_3*%
X155738400Y-80717200D03*
%TO.P,J4,4,Pin_4*%
%TO.N,/BB_COLS_4*%
X158238400Y-80717200D03*
%TO.P,J4,5,Pin_5*%
%TO.N,/BB_COLS_5*%
X160738400Y-80717200D03*
%TO.P,J4,6,Pin_6*%
%TO.N,/BB_COLS_6*%
X163238400Y-80717200D03*
%TO.P,J4,7,Pin_7*%
%TO.N,GND*%
X165738400Y-80717200D03*
%TD*%
D12*
%TO.P,J3,1,Pin_1*%
%TO.N,+3.3V*%
X123788400Y-82317200D03*
D13*
%TO.P,J3,2,Pin_2*%
%TO.N,/BB_ROW_2*%
X126288400Y-82317200D03*
%TO.P,J3,3,Pin_3*%
%TO.N,/BB_ROW_3*%
X128788400Y-82317200D03*
%TO.P,J3,4,Pin_4*%
%TO.N,/BB_ROW_4*%
X131288400Y-82317200D03*
%TO.P,J3,5,Pin_5*%
%TO.N,/BB_ROW_5*%
X133788400Y-82317200D03*
%TO.P,J3,6,Pin_6*%
%TO.N,/BB_ROW_6*%
X136288400Y-82317200D03*
%TO.P,J3,7,Pin_7*%
%TO.N,/BB_ROW_7*%
X138788400Y-82317200D03*
%TO.P,J3,8,Pin_8*%
%TO.N,/BB_ROW_8*%
X141288400Y-82317200D03*
%TO.P,J3,9,Pin_9*%
%TO.N,GND*%
X143788400Y-82317200D03*
%TD*%
D12*
%TO.P,J2,1,Pin_1*%
%TO.N,+3.3V*%
X172738400Y-85117200D03*
D13*
%TO.P,J2,2,Pin_2*%
%TO.N,/USART_3_RX*%
X175238400Y-85117200D03*
%TO.P,J2,3,Pin_3*%
%TO.N,/USART_3_TX*%
X177738400Y-85117200D03*
%TO.P,J2,4,Pin_4*%
%TO.N,GND*%
X180238400Y-85117200D03*
%TD*%
D12*
%TO.P,J1,1,Pin_1*%
%TO.N,+3.3V*%
X148288400Y-98667200D03*
D13*
%TO.P,J1,2,Pin_2*%
%TO.N,/I2C_SCL*%
X150788400Y-98667200D03*
%TO.P,J1,3,Pin_3*%
%TO.N,/I2C_SDA*%
X153288400Y-98667200D03*
%TO.P,J1,4,Pin_4*%
%TO.N,GND*%
X155788400Y-98667200D03*
%TD*%
M02*
