%TF.GenerationSoftware,KiCad,Pcbnew,(6.0.11)*%
%TF.CreationDate,2023-02-06T10:27:39-08:00*%
%TF.ProjectId,EV1,4556312e-6b69-4636-9164-5f7063625858,rev?*%
%TF.SameCoordinates,Original*%
%TF.FileFunction,Copper,L1,Top*%
%TF.FilePolarity,Positive*%
%FSLAX46Y46*%
G04 Gerber Fmt 4.6, Leading zero omitted, Abs format (unit mm)*
G04 Created by KiCad (PCBNEW (6.0.11)) date 2023-02-06 10:27:39*
%MOMM*%
%LPD*%
G01*
G04 APERTURE LIST*
G04 Aperture macros list*
%AMRoundRect*
0 Rectangle with rounded corners*
0 $1 Rounding radius*
0 $2 $3 $4 $5 $6 $7 $8 $9 X,Y pos of 4 corners*
0 Add a 4 corners polygon primitive as box body*
4,1,4,$2,$3,$4,$5,$6,$7,$8,$9,$2,$3,0*
0 Add four circle primitives for the rounded corners*
1,1,$1+$1,$2,$3*
1,1,$1+$1,$4,$5*
1,1,$1+$1,$6,$7*
1,1,$1+$1,$8,$9*
0 Add four rect primitives between the rounded corners*
20,1,$1+$1,$2,$3,$4,$5,0*
20,1,$1+$1,$4,$5,$6,$7,0*
20,1,$1+$1,$6,$7,$8,$9,0*
20,1,$1+$1,$8,$9,$2,$3,0*%
G04 Aperture macros list end*
%TA.AperFunction,SMDPad,CuDef*%
%ADD10R,1.600000X1.500000*%
%TD*%
%TA.AperFunction,SMDPad,CuDef*%
%ADD11R,2.000000X1.500000*%
%TD*%
%TA.AperFunction,SMDPad,CuDef*%
%ADD12R,2.000000X3.800000*%
%TD*%
%TA.AperFunction,SMDPad,CuDef*%
%ADD13RoundRect,0.075000X-0.700000X-0.075000X0.700000X-0.075000X0.700000X0.075000X-0.700000X0.075000X0*%
%TD*%
%TA.AperFunction,SMDPad,CuDef*%
%ADD14RoundRect,0.075000X-0.075000X-0.700000X0.075000X-0.700000X0.075000X0.700000X-0.075000X0.700000X0*%
%TD*%
%TA.AperFunction,SMDPad,CuDef*%
%ADD15R,2.160000X1.120000*%
%TD*%
%TA.AperFunction,SMDPad,CuDef*%
%ADD16RoundRect,0.250000X-0.262500X-0.450000X0.262500X-0.450000X0.262500X0.450000X-0.262500X0.450000X0*%
%TD*%
%TA.AperFunction,SMDPad,CuDef*%
%ADD17R,0.380000X1.000000*%
%TD*%
%TA.AperFunction,SMDPad,CuDef*%
%ADD18R,0.700000X1.150000*%
%TD*%
%TA.AperFunction,ComponentPad*%
%ADD19RoundRect,0.250000X-0.600000X-0.725000X0.600000X-0.725000X0.600000X0.725000X-0.600000X0.725000X0*%
%TD*%
%TA.AperFunction,ComponentPad*%
%ADD20O,1.700000X1.950000*%
%TD*%
%TA.AperFunction,SMDPad,CuDef*%
%ADD21RoundRect,0.243750X-0.243750X-0.456250X0.243750X-0.456250X0.243750X0.456250X-0.243750X0.456250X0*%
%TD*%
%TA.AperFunction,SMDPad,CuDef*%
%ADD22RoundRect,0.250000X-0.250000X-0.475000X0.250000X-0.475000X0.250000X0.475000X-0.250000X0.475000X0*%
%TD*%
%TA.AperFunction,SMDPad,CuDef*%
%ADD23RoundRect,0.218750X-0.218750X-0.381250X0.218750X-0.381250X0.218750X0.381250X-0.218750X0.381250X0*%
%TD*%
G04 APERTURE END LIST*
D10*
%TO.P,Y1,1,1*%
%TO.N,/HSE_IN*%
X132818400Y-118597200D03*
%TO.P,Y1,2,2*%
%TO.N,GND*%
X135358400Y-118597200D03*
%TO.P,Y1,3,3*%
%TO.N,/HSE_OUT*%
X135358400Y-116397200D03*
%TO.P,Y1,4,4*%
%TO.N,GND*%
X132818400Y-116397200D03*
%TD*%
D11*
%TO.P,U2,1,GND*%
%TO.N,GND*%
X141638400Y-113527200D03*
D12*
%TO.P,U2,2,VO*%
%TO.N,+3.3V*%
X147938400Y-115827200D03*
D11*
X141638400Y-115827200D03*
%TO.P,U2,3,VI*%
%TO.N,VBUS*%
X141638400Y-118127200D03*
%TD*%
D13*
%TO.P,U1,1,VBAT*%
%TO.N,unconnected-(U1-Pad1)*%
X160863400Y-94417200D03*
%TO.P,U1,2,PC13*%
%TO.N,unconnected-(U1-Pad2)*%
X160863400Y-94917200D03*
%TO.P,U1,3,PC14*%
%TO.N,/BB_COLS_4*%
X160863400Y-95417200D03*
%TO.P,U1,4,PC15*%
%TO.N,/BB_COLS_5*%
X160863400Y-95917200D03*
%TO.P,U1,5,PH0*%
%TO.N,/HSE_IN*%
X160863400Y-96417200D03*
%TO.P,U1,6,PH1*%
%TO.N,/HSE_OUT*%
X160863400Y-96917200D03*
%TO.P,U1,7,NRST*%
%TO.N,Net-(SW2-Pad1)*%
X160863400Y-97417200D03*
%TO.P,U1,8,PC0*%
%TO.N,unconnected-(U1-Pad8)*%
X160863400Y-97917200D03*
%TO.P,U1,9,PC1*%
%TO.N,unconnected-(U1-Pad9)*%
X160863400Y-98417200D03*
%TO.P,U1,10,PC2*%
%TO.N,unconnected-(U1-Pad10)*%
X160863400Y-98917200D03*
%TO.P,U1,11,PC3*%
%TO.N,unconnected-(U1-Pad11)*%
X160863400Y-99417200D03*
%TO.P,U1,12,VSSA*%
%TO.N,GND*%
X160863400Y-99917200D03*
%TO.P,U1,13,VDDA*%
%TO.N,+3.3VA*%
X160863400Y-100417200D03*
%TO.P,U1,14,PA0*%
%TO.N,unconnected-(U1-Pad14)*%
X160863400Y-100917200D03*
%TO.P,U1,15,PA1*%
%TO.N,/CS_PA1*%
X160863400Y-101417200D03*
%TO.P,U1,16,PA2*%
%TO.N,/USART2_TX*%
X160863400Y-101917200D03*
D14*
%TO.P,U1,17,PA3*%
%TO.N,/USART2_RX*%
X162788400Y-103842200D03*
%TO.P,U1,18,VSS*%
%TO.N,GND*%
X163288400Y-103842200D03*
%TO.P,U1,19,VDD*%
%TO.N,+3.3V*%
X163788400Y-103842200D03*
%TO.P,U1,20,PA4*%
%TO.N,/BL_PA4*%
X164288400Y-103842200D03*
%TO.P,U1,21,PA5*%
%TO.N,/SCK_SPI*%
X164788400Y-103842200D03*
%TO.P,U1,22,PA6*%
%TO.N,/RST_PA6*%
X165288400Y-103842200D03*
%TO.P,U1,23,PA7*%
%TO.N,/MOSI_SPI*%
X165788400Y-103842200D03*
%TO.P,U1,24,PC4*%
%TO.N,unconnected-(U1-Pad24)*%
X166288400Y-103842200D03*
%TO.P,U1,25,PC5*%
%TO.N,unconnected-(U1-Pad25)*%
X166788400Y-103842200D03*
%TO.P,U1,26,PB0*%
%TO.N,/DC_PB0*%
X167288400Y-103842200D03*
%TO.P,U1,27,PB1*%
%TO.N,unconnected-(U1-Pad27)*%
X167788400Y-103842200D03*
%TO.P,U1,28,PB2*%
%TO.N,unconnected-(U1-Pad28)*%
X168288400Y-103842200D03*
%TO.P,U1,29,PB10*%
%TO.N,/USART_3_TX*%
X168788400Y-103842200D03*
%TO.P,U1,30,PB11*%
%TO.N,/USART_3_RX*%
X169288400Y-103842200D03*
%TO.P,U1,31,VCAP_1*%
%TO.N,unconnected-(U1-Pad31)*%
X169788400Y-103842200D03*
%TO.P,U1,32,VDD*%
%TO.N,+3.3V*%
X170288400Y-103842200D03*
D13*
%TO.P,U1,33,PB12*%
%TO.N,/BB_ROW_2*%
X172213400Y-101917200D03*
%TO.P,U1,34,PB13*%
%TO.N,/BB_ROW_3*%
X172213400Y-101417200D03*
%TO.P,U1,35,PB14*%
%TO.N,/BB_ROW_4*%
X172213400Y-100917200D03*
%TO.P,U1,36,PB15*%
%TO.N,/BB_ROW_5*%
X172213400Y-100417200D03*
%TO.P,U1,37,PC6*%
%TO.N,Net-(R3-Pad2)*%
X172213400Y-99917200D03*
%TO.P,U1,38,PC7*%
%TO.N,Net-(R4-Pad2)*%
X172213400Y-99417200D03*
%TO.P,U1,39,PC8*%
%TO.N,Net-(R5-Pad2)*%
X172213400Y-98917200D03*
%TO.P,U1,40,PC9*%
%TO.N,Net-(R6-Pad2)*%
X172213400Y-98417200D03*
%TO.P,U1,41,PA8*%
%TO.N,/BB_ROW_6*%
X172213400Y-97917200D03*
%TO.P,U1,42,PA9*%
%TO.N,/BB_ROW_7*%
X172213400Y-97417200D03*
%TO.P,U1,43,PA10*%
%TO.N,/BB_ROW_8*%
X172213400Y-96917200D03*
%TO.P,U1,44,PA11*%
%TO.N,/USB_D-*%
X172213400Y-96417200D03*
%TO.P,U1,45,PA12*%
%TO.N,/USB_D+*%
X172213400Y-95917200D03*
%TO.P,U1,46,PA13*%
%TO.N,unconnected-(U1-Pad46)*%
X172213400Y-95417200D03*
%TO.P,U1,47,VCAP_2*%
%TO.N,unconnected-(U1-Pad47)*%
X172213400Y-94917200D03*
%TO.P,U1,48,VDD*%
%TO.N,+3.3V*%
X172213400Y-94417200D03*
D14*
%TO.P,U1,49,PA14*%
%TO.N,unconnected-(U1-Pad49)*%
X170288400Y-92492200D03*
%TO.P,U1,50,PA15*%
%TO.N,unconnected-(U1-Pad50)*%
X169788400Y-92492200D03*
%TO.P,U1,51,PC10*%
%TO.N,unconnected-(U1-Pad51)*%
X169288400Y-92492200D03*
%TO.P,U1,52,PC11*%
%TO.N,unconnected-(U1-Pad52)*%
X168788400Y-92492200D03*
%TO.P,U1,53,PC12*%
%TO.N,unconnected-(U1-Pad53)*%
X168288400Y-92492200D03*
%TO.P,U1,54,PD2*%
%TO.N,unconnected-(U1-Pad54)*%
X167788400Y-92492200D03*
%TO.P,U1,55,PB3*%
%TO.N,unconnected-(U1-Pad55)*%
X167288400Y-92492200D03*
%TO.P,U1,56,PB4*%
%TO.N,unconnected-(U1-Pad56)*%
X166788400Y-92492200D03*
%TO.P,U1,57,PB5*%
%TO.N,/BB_COLS_6*%
X166288400Y-92492200D03*
%TO.P,U1,58,PB6*%
%TO.N,/I2C_SCL*%
X165788400Y-92492200D03*
%TO.P,U1,59,PB7*%
%TO.N,/I2C_SDA*%
X165288400Y-92492200D03*
%TO.P,U1,60,BOOT0*%
%TO.N,/BOOT0*%
X164788400Y-92492200D03*
%TO.P,U1,61,PB8*%
%TO.N,/BB_COLS_3*%
X164288400Y-92492200D03*
%TO.P,U1,62,PB9*%
%TO.N,/BB_COLS_2*%
X163788400Y-92492200D03*
%TO.P,U1,63,VSS*%
%TO.N,GND*%
X163288400Y-92492200D03*
%TO.P,U1,64,VDD*%
%TO.N,+3.3V*%
X162788400Y-92492200D03*
%TD*%
D15*
%TO.P,SW2,1,1*%
%TO.N,Net-(SW2-Pad1)*%
X122173400Y-117797200D03*
%TO.P,SW2,2,2*%
%TO.N,+3.3V*%
X128903400Y-117797200D03*
%TD*%
D16*
%TO.P,R10,1*%
%TO.N,GND*%
X160605900Y-109877200D03*
%TO.P,R10,2*%
%TO.N,Net-(P1-PadA7)*%
X162430900Y-109877200D03*
%TD*%
%TO.P,R9,1*%
%TO.N,GND*%
X179505900Y-89247200D03*
%TO.P,R9,2*%
%TO.N,Net-(P1-PadA6)*%
X181330900Y-89247200D03*
%TD*%
%TO.P,R8,1*%
%TO.N,+3.3V*%
X151005900Y-119197200D03*
%TO.P,R8,2*%
%TO.N,/I2C_SCL*%
X152830900Y-119197200D03*
%TD*%
%TO.P,R7,1*%
%TO.N,+3.3V*%
X179505900Y-92197200D03*
%TO.P,R7,2*%
%TO.N,/I2C_SDA*%
X181330900Y-92197200D03*
%TD*%
%TO.P,R6,1*%
%TO.N,/IO_PC9*%
X165015900Y-109877200D03*
%TO.P,R6,2*%
%TO.N,Net-(R6-Pad2)*%
X166840900Y-109877200D03*
%TD*%
%TO.P,R5,1*%
%TO.N,/IO_PC8*%
X165055900Y-106867200D03*
%TO.P,R5,2*%
%TO.N,Net-(R5-Pad2)*%
X166880900Y-106867200D03*
%TD*%
%TO.P,R4,1*%
%TO.N,/IO_PC7*%
X194755900Y-81877200D03*
%TO.P,R4,2*%
%TO.N,Net-(R4-Pad2)*%
X196580900Y-81877200D03*
%TD*%
%TO.P,R3,1*%
%TO.N,/IO_PC6*%
X175055900Y-95297200D03*
%TO.P,R3,2*%
%TO.N,Net-(R3-Pad2)*%
X176880900Y-95297200D03*
%TD*%
%TO.P,R2,1*%
%TO.N,/SW_BOOT0*%
X160605900Y-112827200D03*
%TO.P,R2,2*%
%TO.N,/BOOT0*%
X162430900Y-112827200D03*
%TD*%
%TO.P,R1,1*%
%TO.N,GND*%
X155455900Y-116187200D03*
%TO.P,R1,2*%
%TO.N,Net-(D1-Pad1)*%
X157280900Y-116187200D03*
%TD*%
D17*
%TO.P,P1,A1,GND*%
%TO.N,GND*%
X185863400Y-79417200D03*
%TO.P,P1,A2,TX1+*%
%TO.N,unconnected-(P1-PadA2)*%
X186363400Y-79417200D03*
%TO.P,P1,A3,TX1-*%
%TO.N,unconnected-(P1-PadA3)*%
X186863400Y-79417200D03*
%TO.P,P1,A4,VBUS*%
%TO.N,VBUS*%
X187363400Y-79417200D03*
%TO.P,P1,A5,CC*%
%TO.N,unconnected-(P1-PadA5)*%
X187863400Y-79417200D03*
%TO.P,P1,A6,D+*%
%TO.N,Net-(P1-PadA6)*%
X188363400Y-79417200D03*
%TO.P,P1,A7,D-*%
%TO.N,Net-(P1-PadA7)*%
X188863400Y-79417200D03*
%TO.P,P1,A8,SBU1*%
%TO.N,unconnected-(P1-PadA8)*%
X189363400Y-79417200D03*
%TO.P,P1,A9,VBUS*%
%TO.N,VBUS*%
X189863400Y-79417200D03*
%TO.P,P1,A10,RX2-*%
%TO.N,unconnected-(P1-PadA10)*%
X190363400Y-79417200D03*
%TO.P,P1,A11,RX2+*%
%TO.N,unconnected-(P1-PadA11)*%
X190863400Y-79417200D03*
%TO.P,P1,A12,GND*%
%TO.N,GND*%
X191363400Y-79417200D03*
D18*
%TO.P,P1,S1,SHIELD*%
%TO.N,unconnected-(P1-PadS1)*%
X185193400Y-80257200D03*
%TD*%
D19*
%TO.P,J7,1,Pin_1*%
%TO.N,+3.3V*%
X123838400Y-112217200D03*
D20*
%TO.P,J7,2,Pin_2*%
%TO.N,/IO_PC9*%
X126338400Y-112217200D03*
%TO.P,J7,3,Pin_3*%
%TO.N,/IO_PC8*%
X128838400Y-112217200D03*
%TO.P,J7,4,Pin_4*%
%TO.N,/IO_PC7*%
X131338400Y-112217200D03*
%TO.P,J7,5,Pin_5*%
%TO.N,/IO_PC6*%
X133838400Y-112217200D03*
%TO.P,J7,6,Pin_6*%
%TO.N,GND*%
X136338400Y-112217200D03*
%TD*%
D19*
%TO.P,J6,1,Pin_1*%
%TO.N,+3.3V*%
X148288400Y-109047200D03*
D20*
%TO.P,J6,2,Pin_2*%
%TO.N,/USART2_RX*%
X150788400Y-109047200D03*
%TO.P,J6,3,Pin_3*%
%TO.N,/USART2_TX*%
X153288400Y-109047200D03*
%TO.P,J6,4,Pin_4*%
%TO.N,GND*%
X155788400Y-109047200D03*
%TD*%
D19*
%TO.P,J5,1,Pin_1*%
%TO.N,+3.3V*%
X123788400Y-95867200D03*
D20*
%TO.P,J5,2,Pin_2*%
%TO.N,/RST_PA6*%
X126288400Y-95867200D03*
%TO.P,J5,3,Pin_3*%
%TO.N,/BL_PA4*%
X128788400Y-95867200D03*
%TO.P,J5,4,Pin_4*%
%TO.N,/CS_PA1*%
X131288400Y-95867200D03*
%TO.P,J5,5,Pin_5*%
%TO.N,/DC_PB0*%
X133788400Y-95867200D03*
%TO.P,J5,6,Pin_6*%
%TO.N,/MOSI_SPI*%
X136288400Y-95867200D03*
%TO.P,J5,7,Pin_7*%
%TO.N,/SCK_SPI*%
X138788400Y-95867200D03*
%TO.P,J5,8,Pin_8*%
%TO.N,GND*%
X141288400Y-95867200D03*
%TD*%
D19*
%TO.P,J4,1,Pin_1*%
%TO.N,+3.3V*%
X150738400Y-80717200D03*
D20*
%TO.P,J4,2,Pin_2*%
%TO.N,/BB_COLS_2*%
X153238400Y-80717200D03*
%TO.P,J4,3,Pin_3*%
%TO.N,/BB_COLS_3*%
X155738400Y-80717200D03*
%TO.P,J4,4,Pin_4*%
%TO.N,/BB_COLS_4*%
X158238400Y-80717200D03*
%TO.P,J4,5,Pin_5*%
%TO.N,/BB_COLS_5*%
X160738400Y-80717200D03*
%TO.P,J4,6,Pin_6*%
%TO.N,/BB_COLS_6*%
X163238400Y-80717200D03*
%TO.P,J4,7,Pin_7*%
%TO.N,GND*%
X165738400Y-80717200D03*
%TD*%
D19*
%TO.P,J3,1,Pin_1*%
%TO.N,+3.3V*%
X123788400Y-82317200D03*
D20*
%TO.P,J3,2,Pin_2*%
%TO.N,/BB_ROW_2*%
X126288400Y-82317200D03*
%TO.P,J3,3,Pin_3*%
%TO.N,/BB_ROW_3*%
X128788400Y-82317200D03*
%TO.P,J3,4,Pin_4*%
%TO.N,/BB_ROW_4*%
X131288400Y-82317200D03*
%TO.P,J3,5,Pin_5*%
%TO.N,/BB_ROW_5*%
X133788400Y-82317200D03*
%TO.P,J3,6,Pin_6*%
%TO.N,/BB_ROW_6*%
X136288400Y-82317200D03*
%TO.P,J3,7,Pin_7*%
%TO.N,/BB_ROW_7*%
X138788400Y-82317200D03*
%TO.P,J3,8,Pin_8*%
%TO.N,/BB_ROW_8*%
X141288400Y-82317200D03*
%TO.P,J3,9,Pin_9*%
%TO.N,GND*%
X143788400Y-82317200D03*
%TD*%
D19*
%TO.P,J2,1,Pin_1*%
%TO.N,+3.3V*%
X172738400Y-85117200D03*
D20*
%TO.P,J2,2,Pin_2*%
%TO.N,/USART_3_RX*%
X175238400Y-85117200D03*
%TO.P,J2,3,Pin_3*%
%TO.N,/USART_3_TX*%
X177738400Y-85117200D03*
%TO.P,J2,4,Pin_4*%
%TO.N,GND*%
X180238400Y-85117200D03*
%TD*%
D19*
%TO.P,J1,1,Pin_1*%
%TO.N,+3.3V*%
X148288400Y-98667200D03*
D20*
%TO.P,J1,2,Pin_2*%
%TO.N,/I2C_SCL*%
X150788400Y-98667200D03*
%TO.P,J1,3,Pin_3*%
%TO.N,/I2C_SDA*%
X153288400Y-98667200D03*
%TO.P,J1,4,Pin_4*%
%TO.N,GND*%
X155788400Y-98667200D03*
%TD*%
D21*
%TO.P,D1,1,K*%
%TO.N,Net-(D1-Pad1)*%
X174970900Y-89292200D03*
%TO.P,D1,2,A*%
%TO.N,+3.3V*%
X176845900Y-89292200D03*
%TD*%
D22*
%TO.P,C14,1*%
%TO.N,+3.3V*%
X155438400Y-113207200D03*
%TO.P,C14,2*%
%TO.N,GND*%
X157338400Y-113207200D03*
%TD*%
%TO.P,C13,1*%
%TO.N,+3.3V*%
X189488400Y-83367200D03*
%TO.P,C13,2*%
%TO.N,GND*%
X191388400Y-83367200D03*
%TD*%
%TO.P,C12,1*%
%TO.N,+3.3V*%
X170488400Y-89277200D03*
%TO.P,C12,2*%
%TO.N,GND*%
X172388400Y-89277200D03*
%TD*%
%TO.P,C11,1*%
%TO.N,+3.3V*%
X150988400Y-116217200D03*
%TO.P,C11,2*%
%TO.N,GND*%
X152888400Y-116217200D03*
%TD*%
%TO.P,C10,1*%
%TO.N,+3.3V*%
X141138400Y-108747200D03*
%TO.P,C10,2*%
%TO.N,GND*%
X143038400Y-108747200D03*
%TD*%
%TO.P,C9,1*%
%TO.N,+3.3VA*%
X185038400Y-83367200D03*
%TO.P,C9,2*%
%TO.N,GND*%
X186938400Y-83367200D03*
%TD*%
%TO.P,C8,1*%
%TO.N,+3.3VA*%
X175038400Y-92317200D03*
%TO.P,C8,2*%
%TO.N,GND*%
X176938400Y-92317200D03*
%TD*%
%TO.P,C4,1*%
%TO.N,/HSE_OUT*%
X185038400Y-86377200D03*
%TO.P,C4,2*%
%TO.N,GND*%
X186938400Y-86377200D03*
%TD*%
%TO.P,C3,1*%
%TO.N,/HSE_IN*%
X150988400Y-113207200D03*
%TO.P,C3,2*%
%TO.N,GND*%
X152888400Y-113207200D03*
%TD*%
%TO.P,C2,1*%
%TO.N,+3.3V*%
X194738400Y-78897200D03*
%TO.P,C2,2*%
%TO.N,GND*%
X196638400Y-78897200D03*
%TD*%
%TO.P,C1,1*%
%TO.N,VBUS*%
X160588400Y-106897200D03*
%TO.P,C1,2*%
%TO.N,GND*%
X162488400Y-106897200D03*
%TD*%
D23*
%TO.P,120R1,1*%
%TO.N,+3.3VA*%
X141075900Y-105867200D03*
%TO.P,120R1,2*%
%TO.N,+3.3V*%
X143200900Y-105867200D03*
%TD*%
M02*
