%TF.GenerationSoftware,KiCad,Pcbnew,(6.0.11)*%
%TF.CreationDate,2023-02-06T10:27:39-08:00*%
%TF.ProjectId,EV1,4556312e-6b69-4636-9164-5f7063625858,rev?*%
%TF.SameCoordinates,Original*%
%TF.FileFunction,Legend,Bot*%
%TF.FilePolarity,Positive*%
%FSLAX46Y46*%
G04 Gerber Fmt 4.6, Leading zero omitted, Abs format (unit mm)*
G04 Created by KiCad (PCBNEW (6.0.11)) date 2023-02-06 10:27:39*
%MOMM*%
%LPD*%
G01*
G04 APERTURE LIST*
G04 Aperture macros list*
%AMRoundRect*
0 Rectangle with rounded corners*
0 $1 Rounding radius*
0 $2 $3 $4 $5 $6 $7 $8 $9 X,Y pos of 4 corners*
0 Add a 4 corners polygon primitive as box body*
4,1,4,$2,$3,$4,$5,$6,$7,$8,$9,$2,$3,0*
0 Add four circle primitives for the rounded corners*
1,1,$1+$1,$2,$3*
1,1,$1+$1,$4,$5*
1,1,$1+$1,$6,$7*
1,1,$1+$1,$8,$9*
0 Add four rect primitives between the rounded corners*
20,1,$1+$1,$2,$3,$4,$5,0*
20,1,$1+$1,$4,$5,$6,$7,0*
20,1,$1+$1,$6,$7,$8,$9,0*
20,1,$1+$1,$8,$9,$2,$3,0*%
G04 Aperture macros list end*
%ADD10R,0.380000X1.000000*%
%ADD11R,0.700000X1.150000*%
%ADD12RoundRect,0.250000X-0.600000X-0.725000X0.600000X-0.725000X0.600000X0.725000X-0.600000X0.725000X0*%
%ADD13O,1.700000X1.950000*%
G04 APERTURE END LIST*
%LPC*%
D10*
%TO.C,P1*%
X191363400Y-79417200D03*
X190863400Y-79417200D03*
X190363400Y-79417200D03*
X189863400Y-79417200D03*
X189363400Y-79417200D03*
X187863400Y-79417200D03*
X187363400Y-79417200D03*
X186863400Y-79417200D03*
X186363400Y-79417200D03*
X185863400Y-79417200D03*
D11*
X192033400Y-80257200D03*
%TD*%
D12*
%TO.C,J7*%
X123838400Y-112217200D03*
D13*
X126338400Y-112217200D03*
X128838400Y-112217200D03*
X131338400Y-112217200D03*
X133838400Y-112217200D03*
X136338400Y-112217200D03*
%TD*%
D12*
%TO.C,J6*%
X148288400Y-109047200D03*
D13*
X150788400Y-109047200D03*
X153288400Y-109047200D03*
X155788400Y-109047200D03*
%TD*%
D12*
%TO.C,J5*%
X123788400Y-95867200D03*
D13*
X126288400Y-95867200D03*
X128788400Y-95867200D03*
X131288400Y-95867200D03*
X133788400Y-95867200D03*
X136288400Y-95867200D03*
X138788400Y-95867200D03*
X141288400Y-95867200D03*
%TD*%
D12*
%TO.C,J4*%
X150738400Y-80717200D03*
D13*
X153238400Y-80717200D03*
X155738400Y-80717200D03*
X158238400Y-80717200D03*
X160738400Y-80717200D03*
X163238400Y-80717200D03*
X165738400Y-80717200D03*
%TD*%
D12*
%TO.C,J3*%
X123788400Y-82317200D03*
D13*
X126288400Y-82317200D03*
X128788400Y-82317200D03*
X131288400Y-82317200D03*
X133788400Y-82317200D03*
X136288400Y-82317200D03*
X138788400Y-82317200D03*
X141288400Y-82317200D03*
X143788400Y-82317200D03*
%TD*%
D12*
%TO.C,J2*%
X172738400Y-85117200D03*
D13*
X175238400Y-85117200D03*
X177738400Y-85117200D03*
X180238400Y-85117200D03*
%TD*%
D12*
%TO.C,J1*%
X148288400Y-98667200D03*
D13*
X150788400Y-98667200D03*
X153288400Y-98667200D03*
X155788400Y-98667200D03*
%TD*%
M02*
