%TF.GenerationSoftware,KiCad,Pcbnew,7.0.5*%
%TF.CreationDate,2023-10-05T13:47:35-07:00*%
%TF.ProjectId,EV9.5 Board Design,4556392e-3520-4426-9f61-726420446573,EV9*%
%TF.SameCoordinates,Original*%
%TF.FileFunction,Copper,L1,Top*%
%TF.FilePolarity,Positive*%
%FSLAX46Y46*%
G04 Gerber Fmt 4.6, Leading zero omitted, Abs format (unit mm)*
G04 Created by KiCad (PCBNEW 7.0.5) date 2023-10-05 13:47:36*
%MOMM*%
%LPD*%
G01*
G04 APERTURE LIST*
G04 Aperture macros list*
%AMRoundRect*
0 Rectangle with rounded corners*
0 $1 Rounding radius*
0 $2 $3 $4 $5 $6 $7 $8 $9 X,Y pos of 4 corners*
0 Add a 4 corners polygon primitive as box body*
4,1,4,$2,$3,$4,$5,$6,$7,$8,$9,$2,$3,0*
0 Add four circle primitives for the rounded corners*
1,1,$1+$1,$2,$3*
1,1,$1+$1,$4,$5*
1,1,$1+$1,$6,$7*
1,1,$1+$1,$8,$9*
0 Add four rect primitives between the rounded corners*
20,1,$1+$1,$2,$3,$4,$5,0*
20,1,$1+$1,$4,$5,$6,$7,0*
20,1,$1+$1,$6,$7,$8,$9,0*
20,1,$1+$1,$8,$9,$2,$3,0*%
G04 Aperture macros list end*
%TA.AperFunction,SMDPad,CuDef*%
%ADD10RoundRect,0.135000X-0.135000X-0.185000X0.135000X-0.185000X0.135000X0.185000X-0.135000X0.185000X0*%
%TD*%
%TA.AperFunction,SMDPad,CuDef*%
%ADD11RoundRect,0.140000X-0.170000X0.140000X-0.170000X-0.140000X0.170000X-0.140000X0.170000X0.140000X0*%
%TD*%
%TA.AperFunction,SMDPad,CuDef*%
%ADD12R,1.422400X0.533400*%
%TD*%
%TA.AperFunction,SMDPad,CuDef*%
%ADD13RoundRect,0.135000X0.135000X0.185000X-0.135000X0.185000X-0.135000X-0.185000X0.135000X-0.185000X0*%
%TD*%
%TA.AperFunction,SMDPad,CuDef*%
%ADD14RoundRect,0.140000X-0.140000X-0.170000X0.140000X-0.170000X0.140000X0.170000X-0.140000X0.170000X0*%
%TD*%
%TA.AperFunction,SMDPad,CuDef*%
%ADD15R,0.600000X0.450000*%
%TD*%
%TA.AperFunction,SMDPad,CuDef*%
%ADD16RoundRect,0.075000X0.075000X-0.662500X0.075000X0.662500X-0.075000X0.662500X-0.075000X-0.662500X0*%
%TD*%
%TA.AperFunction,SMDPad,CuDef*%
%ADD17RoundRect,0.075000X0.662500X-0.075000X0.662500X0.075000X-0.662500X0.075000X-0.662500X-0.075000X0*%
%TD*%
%TA.AperFunction,SMDPad,CuDef*%
%ADD18RoundRect,0.140000X0.140000X0.170000X-0.140000X0.170000X-0.140000X-0.170000X0.140000X-0.170000X0*%
%TD*%
%TA.AperFunction,SMDPad,CuDef*%
%ADD19RoundRect,0.140000X0.170000X-0.140000X0.170000X0.140000X-0.170000X0.140000X-0.170000X-0.140000X0*%
%TD*%
%TA.AperFunction,SMDPad,CuDef*%
%ADD20RoundRect,0.250000X-0.475000X0.250000X-0.475000X-0.250000X0.475000X-0.250000X0.475000X0.250000X0*%
%TD*%
%TA.AperFunction,SMDPad,CuDef*%
%ADD21RoundRect,0.135000X-0.185000X0.135000X-0.185000X-0.135000X0.185000X-0.135000X0.185000X0.135000X0*%
%TD*%
%TA.AperFunction,SMDPad,CuDef*%
%ADD22RoundRect,0.250000X1.500000X-0.250000X1.500000X0.250000X-1.500000X0.250000X-1.500000X-0.250000X0*%
%TD*%
%TA.AperFunction,SMDPad,CuDef*%
%ADD23RoundRect,0.250001X1.449999X-0.499999X1.449999X0.499999X-1.449999X0.499999X-1.449999X-0.499999X0*%
%TD*%
%TA.AperFunction,SMDPad,CuDef*%
%ADD24R,0.400000X0.410000*%
%TD*%
%TA.AperFunction,SMDPad,CuDef*%
%ADD25R,0.400000X0.200000*%
%TD*%
%TA.AperFunction,SMDPad,CuDef*%
%ADD26RoundRect,0.075000X0.075000X0.700000X-0.075000X0.700000X-0.075000X-0.700000X0.075000X-0.700000X0*%
%TD*%
%TA.AperFunction,SMDPad,CuDef*%
%ADD27RoundRect,0.075000X0.700000X0.075000X-0.700000X0.075000X-0.700000X-0.075000X0.700000X-0.075000X0*%
%TD*%
%TA.AperFunction,SMDPad,CuDef*%
%ADD28R,0.500000X1.700000*%
%TD*%
%TA.AperFunction,SMDPad,CuDef*%
%ADD29R,1.200000X2.500000*%
%TD*%
%TA.AperFunction,SMDPad,CuDef*%
%ADD30RoundRect,0.218750X-0.218750X-0.256250X0.218750X-0.256250X0.218750X0.256250X-0.218750X0.256250X0*%
%TD*%
%TA.AperFunction,SMDPad,CuDef*%
%ADD31RoundRect,0.135000X0.185000X-0.135000X0.185000X0.135000X-0.185000X0.135000X-0.185000X-0.135000X0*%
%TD*%
%TA.AperFunction,ComponentPad*%
%ADD32R,1.700000X1.700000*%
%TD*%
%TA.AperFunction,ComponentPad*%
%ADD33O,1.700000X1.700000*%
%TD*%
%TA.AperFunction,SMDPad,CuDef*%
%ADD34R,1.120000X2.160000*%
%TD*%
%TA.AperFunction,SMDPad,CuDef*%
%ADD35RoundRect,0.250000X0.650000X-0.325000X0.650000X0.325000X-0.650000X0.325000X-0.650000X-0.325000X0*%
%TD*%
%TA.AperFunction,SMDPad,CuDef*%
%ADD36RoundRect,0.243750X0.456250X-0.243750X0.456250X0.243750X-0.456250X0.243750X-0.456250X-0.243750X0*%
%TD*%
%TA.AperFunction,SMDPad,CuDef*%
%ADD37RoundRect,0.250000X0.250000X1.500000X-0.250000X1.500000X-0.250000X-1.500000X0.250000X-1.500000X0*%
%TD*%
%TA.AperFunction,SMDPad,CuDef*%
%ADD38RoundRect,0.250001X0.499999X1.449999X-0.499999X1.449999X-0.499999X-1.449999X0.499999X-1.449999X0*%
%TD*%
%TA.AperFunction,SMDPad,CuDef*%
%ADD39RoundRect,0.007500X-0.372500X-0.117500X0.372500X-0.117500X0.372500X0.117500X-0.372500X0.117500X0*%
%TD*%
%TA.AperFunction,SMDPad,CuDef*%
%ADD40RoundRect,0.007500X0.117500X-0.372500X0.117500X0.372500X-0.117500X0.372500X-0.117500X-0.372500X0*%
%TD*%
%TA.AperFunction,SMDPad,CuDef*%
%ADD41R,3.650000X3.650000*%
%TD*%
%TA.AperFunction,SMDPad,CuDef*%
%ADD42RoundRect,0.250000X0.475000X-0.250000X0.475000X0.250000X-0.475000X0.250000X-0.475000X-0.250000X0*%
%TD*%
%TA.AperFunction,SMDPad,CuDef*%
%ADD43R,0.400000X0.600000*%
%TD*%
%TA.AperFunction,SMDPad,CuDef*%
%ADD44RoundRect,0.150000X0.150000X-0.825000X0.150000X0.825000X-0.150000X0.825000X-0.150000X-0.825000X0*%
%TD*%
%TA.AperFunction,SMDPad,CuDef*%
%ADD45R,1.500000X2.000000*%
%TD*%
%TA.AperFunction,SMDPad,CuDef*%
%ADD46R,3.800000X2.000000*%
%TD*%
%TA.AperFunction,SMDPad,CuDef*%
%ADD47R,1.500000X0.900000*%
%TD*%
%TA.AperFunction,SMDPad,CuDef*%
%ADD48R,0.900000X1.500000*%
%TD*%
%TA.AperFunction,ComponentPad*%
%ADD49C,0.500000*%
%TD*%
%TA.AperFunction,SMDPad,CuDef*%
%ADD50R,3.900000X3.900000*%
%TD*%
%TA.AperFunction,SMDPad,CuDef*%
%ADD51RoundRect,0.250000X-0.250000X-1.500000X0.250000X-1.500000X0.250000X1.500000X-0.250000X1.500000X0*%
%TD*%
%TA.AperFunction,SMDPad,CuDef*%
%ADD52RoundRect,0.250001X-0.499999X-1.449999X0.499999X-1.449999X0.499999X1.449999X-0.499999X1.449999X0*%
%TD*%
%TA.AperFunction,SMDPad,CuDef*%
%ADD53RoundRect,0.250000X-1.500000X0.250000X-1.500000X-0.250000X1.500000X-0.250000X1.500000X0.250000X0*%
%TD*%
%TA.AperFunction,SMDPad,CuDef*%
%ADD54RoundRect,0.250001X-1.449999X0.499999X-1.449999X-0.499999X1.449999X-0.499999X1.449999X0.499999X0*%
%TD*%
%TA.AperFunction,SMDPad,CuDef*%
%ADD55R,0.600000X1.450000*%
%TD*%
%TA.AperFunction,SMDPad,CuDef*%
%ADD56R,0.300000X1.450000*%
%TD*%
%TA.AperFunction,ComponentPad*%
%ADD57O,1.000000X2.100000*%
%TD*%
%TA.AperFunction,ComponentPad*%
%ADD58O,1.000000X1.600000*%
%TD*%
%TA.AperFunction,SMDPad,CuDef*%
%ADD59R,0.500000X0.375000*%
%TD*%
%TA.AperFunction,SMDPad,CuDef*%
%ADD60R,0.650000X0.300000*%
%TD*%
%TA.AperFunction,SMDPad,CuDef*%
%ADD61RoundRect,0.150000X-0.150000X0.512500X-0.150000X-0.512500X0.150000X-0.512500X0.150000X0.512500X0*%
%TD*%
%TA.AperFunction,SMDPad,CuDef*%
%ADD62R,1.400000X1.200000*%
%TD*%
%TA.AperFunction,ViaPad*%
%ADD63C,0.600000*%
%TD*%
%TA.AperFunction,ViaPad*%
%ADD64C,0.350000*%
%TD*%
%TA.AperFunction,ViaPad*%
%ADD65C,0.800000*%
%TD*%
%TA.AperFunction,Conductor*%
%ADD66C,0.127000*%
%TD*%
%TA.AperFunction,Conductor*%
%ADD67C,0.500000*%
%TD*%
%TA.AperFunction,Conductor*%
%ADD68C,0.200000*%
%TD*%
%TA.AperFunction,Conductor*%
%ADD69C,0.250000*%
%TD*%
G04 APERTURE END LIST*
D10*
%TO.P,R28,1*%
%TO.N,Net-(J10-Pin_4)*%
X125490000Y-124800000D03*
%TO.P,R28,2*%
%TO.N,/UI_DBG4*%
X126510000Y-124800000D03*
%TD*%
D11*
%TO.P,C13,2*%
%TO.N,GND*%
X145910000Y-111900000D03*
%TO.P,C13,1*%
%TO.N,+3.3V*%
X145910000Y-110940000D03*
%TD*%
D12*
%TO.P,CR1,1,E0*%
%TO.N,GND*%
X141606000Y-127795000D03*
%TO.P,CR1,2,E1*%
X141606000Y-129065000D03*
%TO.P,CR1,3,E2*%
X141606000Y-130335000D03*
%TO.P,CR1,4,VSS*%
X141606000Y-131605000D03*
%TO.P,CR1,5,SDA*%
%TO.N,/UI_SDA*%
X147194000Y-131605000D03*
%TO.P,CR1,6,SCL*%
%TO.N,/UI_SCL*%
X147194000Y-130335000D03*
%TO.P,CR1,7,\u002AWC*%
%TO.N,unconnected-(CR1-\u002AWC-Pad7)*%
X147194000Y-129065000D03*
%TO.P,CR1,8,VCC*%
%TO.N,+3.3V*%
X147194000Y-127795000D03*
%TD*%
D13*
%TO.P,R20,1*%
%TO.N,+3.3V*%
X181482000Y-74414000D03*
%TO.P,R20,2*%
%TO.N,/MGMT_NRST*%
X180462000Y-74414000D03*
%TD*%
D14*
%TO.P,C22,1*%
%TO.N,GND*%
X145800000Y-112870000D03*
%TO.P,C22,2*%
%TO.N,Net-(U1-VCAP_2)*%
X146760000Y-112870000D03*
%TD*%
D15*
%TO.P,D2,1,K*%
%TO.N,Net-(D10-K)*%
X132650000Y-119100000D03*
%TO.P,D2,2,A*%
%TO.N,+BATT*%
X134750000Y-119100000D03*
%TD*%
D16*
%TO.P,U5,1,VDD*%
%TO.N,+3.3V*%
X169787500Y-102287500D03*
%TO.P,U5,2,PC13*%
%TO.N,/BTN_RST*%
X170287500Y-102287500D03*
%TO.P,U5,3,PC14*%
%TO.N,/BTN_UI*%
X170787500Y-102287500D03*
%TO.P,U5,4,PC15*%
%TO.N,/BTN_NET*%
X171287500Y-102287500D03*
%TO.P,U5,5,PF0*%
%TO.N,/RCC_OSC_IN*%
X171787500Y-102287500D03*
%TO.P,U5,6,PF1*%
%TO.N,/RCC_OSC_OUT*%
X172287500Y-102287500D03*
%TO.P,U5,7,NRST*%
%TO.N,/MGMT_NRST*%
X172787500Y-102287500D03*
%TO.P,U5,8,VSSA*%
%TO.N,GND*%
X173287500Y-102287500D03*
%TO.P,U5,9,VDDA*%
%TO.N,+3.3V*%
X173787500Y-102287500D03*
%TO.P,U5,10,PA0*%
%TO.N,/UI_STAT*%
X174287500Y-102287500D03*
%TO.P,U5,11,PA1*%
%TO.N,/NET_STAT*%
X174787500Y-102287500D03*
%TO.P,U5,12,PA2*%
%TO.N,/UI_RX1_MGMT*%
X175287500Y-102287500D03*
D17*
%TO.P,U5,13,PA3*%
%TO.N,/UI_TX1_MGMT*%
X176700000Y-100875000D03*
%TO.P,U5,14,PA4*%
%TO.N,/LEDB_R*%
X176700000Y-100375000D03*
%TO.P,U5,15,PA5*%
%TO.N,unconnected-(U5-PA5-Pad15)*%
X176700000Y-99875000D03*
%TO.P,U5,16,PA6*%
%TO.N,/LEDA_R*%
X176700000Y-99375000D03*
%TO.P,U5,17,PA7*%
%TO.N,/LEDA_G*%
X176700000Y-98875000D03*
%TO.P,U5,18,PB0*%
%TO.N,/LEDA_B*%
X176700000Y-98375000D03*
%TO.P,U5,19,PB1*%
%TO.N,/USB_RTS*%
X176700000Y-97875000D03*
%TO.P,U5,20,PB2*%
%TO.N,unconnected-(U5-PB2-Pad20)*%
X176700000Y-97375000D03*
%TO.P,U5,21,PB10*%
%TO.N,/UI_STAT*%
X176700000Y-96875000D03*
%TO.P,U5,22,PB11*%
%TO.N,/NET_STAT*%
X176700000Y-96375000D03*
%TO.P,U5,23,VSS*%
%TO.N,GND*%
X176700000Y-95875000D03*
%TO.P,U5,24,VDD*%
%TO.N,+3.3V*%
X176700000Y-95375000D03*
D16*
%TO.P,U5,25,PB12*%
%TO.N,unconnected-(U5-PB12-Pad25)*%
X175287500Y-93962500D03*
%TO.P,U5,26,PB13*%
%TO.N,/USB_DTR*%
X174787500Y-93962500D03*
%TO.P,U5,27,PB14*%
%TO.N,/LEDB_G*%
X174287500Y-93962500D03*
%TO.P,U5,28,PB15*%
%TO.N,/LEDB_B*%
X173787500Y-93962500D03*
%TO.P,U5,29,PA8*%
%TO.N,/MCLK*%
X173287500Y-93962500D03*
%TO.P,U5,30,PA9*%
%TO.N,/USB_RX1_MGMT*%
X172787500Y-93962500D03*
%TO.P,U5,31,PA10*%
%TO.N,/USB_TX1_MGMT*%
X172287500Y-93962500D03*
%TO.P,U5,32,PA11*%
%TO.N,/MGMT_DBG7*%
X171787500Y-93962500D03*
%TO.P,U5,33,PA12*%
%TO.N,unconnected-(U5-PA12-Pad33)*%
X171287500Y-93962500D03*
%TO.P,U5,34,PA13*%
%TO.N,/MGMT_SWDIO*%
X170787500Y-93962500D03*
%TO.P,U5,35,PF6*%
%TO.N,GND*%
X170287500Y-93962500D03*
%TO.P,U5,36,PF7*%
%TO.N,+3.3V*%
X169787500Y-93962500D03*
D17*
%TO.P,U5,37,PA14*%
%TO.N,/MGMT_SWCLK*%
X168375000Y-95375000D03*
%TO.P,U5,38,PA15*%
%TO.N,/UI_RST*%
X168375000Y-95875000D03*
%TO.P,U5,39,PB3*%
%TO.N,/UI_BOOT*%
X168375000Y-96375000D03*
%TO.P,U5,40,PB4*%
%TO.N,/NET_RST*%
X168375000Y-96875000D03*
%TO.P,U5,41,PB5*%
%TO.N,/NET_BOOT*%
X168375000Y-97375000D03*
%TO.P,U5,42,PB6*%
%TO.N,/NET_RX0_MGMT*%
X168375000Y-97875000D03*
%TO.P,U5,43,PB7*%
%TO.N,/NET_TX0_MGMT*%
X168375000Y-98375000D03*
%TO.P,U5,44,BOOT0*%
%TO.N,/MGMT_BOOT*%
X168375000Y-98875000D03*
%TO.P,U5,45,PB8*%
%TO.N,/BOOT1*%
X168375000Y-99375000D03*
%TO.P,U5,46,PB9*%
%TO.N,unconnected-(U5-PB9-Pad46)*%
X168375000Y-99875000D03*
%TO.P,U5,47,VSS*%
%TO.N,GND*%
X168375000Y-100375000D03*
%TO.P,U5,48,VDD*%
%TO.N,+3.3V*%
X168375000Y-100875000D03*
%TD*%
D18*
%TO.P,C33,1*%
%TO.N,+3.3V*%
X149380000Y-126700000D03*
%TO.P,C33,2*%
%TO.N,GND*%
X148420000Y-126700000D03*
%TD*%
D19*
%TO.P,C14,1*%
%TO.N,+3.3V*%
X146770000Y-99530000D03*
%TO.P,C14,2*%
%TO.N,GND*%
X146770000Y-98570000D03*
%TD*%
D20*
%TO.P,C4,1*%
%TO.N,GND*%
X168737500Y-105725000D03*
%TO.P,C4,2*%
%TO.N,/RCC_OSC_IN*%
X168737500Y-107625000D03*
%TD*%
D19*
%TO.P,C3,1*%
%TO.N,+3.3VA*%
X168737500Y-112455000D03*
%TO.P,C3,2*%
%TO.N,GND*%
X168737500Y-111495000D03*
%TD*%
D21*
%TO.P,R3,1*%
%TO.N,GND*%
X149137500Y-134010000D03*
%TO.P,R3,2*%
%TO.N,Net-(J9-CC1)*%
X149137500Y-135030000D03*
%TD*%
D10*
%TO.P,R5,1*%
%TO.N,+3.3V*%
X163380000Y-101360000D03*
%TO.P,R5,2*%
%TO.N,/BOOT1*%
X164400000Y-101360000D03*
%TD*%
D13*
%TO.P,R10,1*%
%TO.N,GND*%
X181482000Y-72636000D03*
%TO.P,R10,2*%
%TO.N,/MGMT_BOOT*%
X180462000Y-72636000D03*
%TD*%
D19*
%TO.P,C19,1*%
%TO.N,+BATT*%
X137200000Y-117580000D03*
%TO.P,C19,2*%
%TO.N,GND*%
X137200000Y-116620000D03*
%TD*%
D21*
%TO.P,R38,1*%
%TO.N,/BATTERY_MON*%
X138980000Y-116590000D03*
%TO.P,R38,2*%
%TO.N,+BATT*%
X138980000Y-117610000D03*
%TD*%
D22*
%TO.P,J8,1,Pin_1*%
%TO.N,/MIC_P*%
X178437500Y-134325000D03*
%TO.P,J8,2,Pin_2*%
%TO.N,/MIC_N*%
X178437500Y-132325000D03*
%TO.P,J8,3,Pin_3*%
%TO.N,/IN_3*%
X178437500Y-130325000D03*
%TO.P,J8,4,Pin_4*%
%TO.N,GND*%
X178437500Y-128325000D03*
%TO.P,J8,5,Pin_5*%
%TO.N,/HP_L*%
X178437500Y-126325000D03*
%TO.P,J8,6,Pin_6*%
%TO.N,/HP_R*%
X178437500Y-124325000D03*
D23*
%TO.P,J8,MP*%
%TO.N,N/C*%
X184187500Y-136675000D03*
X184187500Y-121975000D03*
%TD*%
D24*
%TO.P,U13,1*%
%TO.N,GND*%
X136227500Y-131540000D03*
D25*
%TO.P,U13,2*%
X136227500Y-131035000D03*
%TO.P,U13,3*%
X136227500Y-130635000D03*
%TO.P,U13,4*%
X136227500Y-130232924D03*
%TO.P,U13,5*%
X136227500Y-129835000D03*
%TO.P,U13,6*%
%TO.N,/KB_ROW1*%
X136227500Y-129435000D03*
%TO.P,U13,7*%
%TO.N,/KB_COL1*%
X136227500Y-129035000D03*
%TO.P,U13,8*%
%TO.N,/KB_ROW2*%
X136227500Y-128635000D03*
%TO.P,U13,9*%
%TO.N,/KB_COL2*%
X136227500Y-128235000D03*
%TO.P,U13,10*%
%TO.N,/KB_COL3*%
X136227500Y-127835000D03*
%TO.P,U13,11*%
%TO.N,GND*%
X136227500Y-127435000D03*
%TO.P,U13,12*%
X136227500Y-127035000D03*
%TO.P,U13,13*%
X136227500Y-126635000D03*
D24*
%TO.P,U13,14*%
X136227500Y-126130000D03*
%TO.P,U13,15*%
X138107500Y-126130000D03*
D25*
%TO.P,U13,16*%
X138107500Y-126635000D03*
%TO.P,U13,17*%
%TO.N,/KB_COL4*%
X138107500Y-127035000D03*
%TO.P,U13,18*%
%TO.N,/KB_ROW3*%
X138107500Y-127435000D03*
%TO.P,U13,19*%
%TO.N,/KB_COL5*%
X138107500Y-127835000D03*
%TO.P,U13,20*%
%TO.N,/KB_ROW4*%
X138107500Y-128235000D03*
%TO.P,U13,21*%
%TO.N,/KB_ROW5*%
X138107500Y-128635000D03*
%TO.P,U13,22*%
%TO.N,/KB_ROW6*%
X138107500Y-129035000D03*
%TO.P,U13,23*%
%TO.N,/KB_LED*%
X138107500Y-129435000D03*
%TO.P,U13,24*%
X138107500Y-129835000D03*
%TO.P,U13,25*%
X138107500Y-130232924D03*
%TO.P,U13,26*%
X138107500Y-130635000D03*
%TO.P,U13,27*%
%TO.N,/KB_ROW7*%
X138107500Y-131035000D03*
D24*
%TO.P,U13,28*%
%TO.N,GND*%
X138107500Y-131540000D03*
%TD*%
D26*
%TO.P,U1,64,VDD*%
%TO.N,+3.3V*%
X155445000Y-111115000D03*
%TO.P,U1,63,VSS*%
%TO.N,GND*%
X154945000Y-111115000D03*
%TO.P,U1,62,PB9*%
%TO.N,/KB_COL1*%
X154445000Y-111115000D03*
%TO.P,U1,61,PB8*%
%TO.N,/KB_COL2*%
X153945000Y-111115000D03*
%TO.P,U1,60,BOOT0*%
%TO.N,/UI_BOOT*%
X153445000Y-111115000D03*
%TO.P,U1,59,PB7*%
%TO.N,/UI_SDA*%
X152945000Y-111115000D03*
%TO.P,U1,58,PB6*%
%TO.N,/UI_SCL*%
X152445000Y-111115000D03*
%TO.P,U1,57,PB5*%
%TO.N,/KB_COL5*%
X151945000Y-111115000D03*
%TO.P,U1,56,PB4*%
%TO.N,/KB_ROW7*%
X151445000Y-111115000D03*
%TO.P,U1,55,PB3*%
%TO.N,/KB_ROW6*%
X150945000Y-111115000D03*
%TO.P,U1,54,PD2*%
%TO.N,/UI_LED_B*%
X150445000Y-111115000D03*
%TO.P,U1,53,PC12*%
%TO.N,/I2S_DACDAT*%
X149945000Y-111115000D03*
%TO.P,U1,52,PC11*%
%TO.N,/I2S_ADCDAT*%
X149445000Y-111115000D03*
%TO.P,U1,51,PC10*%
%TO.N,/I2S_BCLK*%
X148945000Y-111115000D03*
%TO.P,U1,50,PA15*%
%TO.N,/DISP_BL*%
X148445000Y-111115000D03*
%TO.P,U1,49,PA14*%
%TO.N,/UI_SWDCLK*%
X147945000Y-111115000D03*
D27*
%TO.P,U1,48,VDD*%
%TO.N,+3.3V*%
X146020000Y-109190000D03*
%TO.P,U1,47,VCAP_2*%
%TO.N,Net-(U1-VCAP_2)*%
X146020000Y-108690000D03*
%TO.P,U1,46,PA13*%
%TO.N,/UI_SWDIO*%
X146020000Y-108190000D03*
%TO.P,U1,45,PA12*%
%TO.N,Net-(U1-PA12)*%
X146020000Y-107690000D03*
%TO.P,U1,44,PA11*%
%TO.N,unconnected-(U1-PA11-Pad44)*%
X146020000Y-107190000D03*
%TO.P,U1,43,PA10*%
%TO.N,/UI_RX1_MGMT*%
X146020000Y-106690000D03*
%TO.P,U1,42,PA9*%
%TO.N,/UI_TX1_MGMT*%
X146020000Y-106190000D03*
%TO.P,U1,41,PA8*%
%TO.N,/UI_STAT*%
X146020000Y-105690000D03*
%TO.P,U1,40,PC9*%
%TO.N,unconnected-(U1-PC9-Pad40)*%
X146020000Y-105190000D03*
%TO.P,U1,39,PC8*%
%TO.N,/KB_ROW5*%
X146020000Y-104690000D03*
%TO.P,U1,38,PC7*%
%TO.N,/UI_DBG4*%
X146020000Y-104190000D03*
%TO.P,U1,37,PC6*%
%TO.N,/UI_DBG3*%
X146020000Y-103690000D03*
%TO.P,U1,36,PB15*%
%TO.N,/KB_ROW4*%
X146020000Y-103190000D03*
%TO.P,U1,35,PB14*%
%TO.N,/KB_ROW3*%
X146020000Y-102690000D03*
%TO.P,U1,34,PB13*%
%TO.N,/KB_ROW2*%
X146020000Y-102190000D03*
%TO.P,U1,33,PB12*%
%TO.N,/KB_ROW1*%
X146020000Y-101690000D03*
D26*
%TO.P,U1,32,VDD*%
%TO.N,+3.3V*%
X147945000Y-99765000D03*
%TO.P,U1,31,VCAP_1*%
%TO.N,Net-(U1-VCAP_1)*%
X148445000Y-99765000D03*
%TO.P,U1,30,PB11*%
%TO.N,unconnected-(U1-PB11-Pad30)*%
X148945000Y-99765000D03*
%TO.P,U1,29,PB10*%
%TO.N,unconnected-(U1-PB10-Pad29)*%
X149445000Y-99765000D03*
%TO.P,U1,28,PB2*%
%TO.N,/BOOT1*%
X149945000Y-99765000D03*
%TO.P,U1,27,PB1*%
%TO.N,/KB_MIC*%
X150445000Y-99765000D03*
%TO.P,U1,26,PB0*%
%TO.N,/DISP_DC*%
X150945000Y-99765000D03*
%TO.P,U1,25,PC5*%
%TO.N,/UI_DBG2*%
X151445000Y-99765000D03*
%TO.P,U1,24,PC4*%
%TO.N,/UI_DBG1*%
X151945000Y-99765000D03*
%TO.P,U1,23,PA7*%
%TO.N,/DISP_SPI_MOSI*%
X152445000Y-99765000D03*
%TO.P,U1,22,PA6*%
%TO.N,/DISP_RSTR*%
X152945000Y-99765000D03*
%TO.P,U1,21,PA5*%
%TO.N,/DISP_SPI_SCK*%
X153445000Y-99765000D03*
%TO.P,U1,20,PA4*%
%TO.N,/I2S_DACLRC*%
X153945000Y-99765000D03*
%TO.P,U1,19,VDD*%
%TO.N,+3.3V*%
X154445000Y-99765000D03*
%TO.P,U1,18,VSS*%
%TO.N,GND*%
X154945000Y-99765000D03*
%TO.P,U1,17,PA3*%
%TO.N,/UI_RX1_NET*%
X155445000Y-99765000D03*
D27*
%TO.P,U1,16,PA2*%
%TO.N,/UI_TX1_NET*%
X157370000Y-101690000D03*
%TO.P,U1,15,PA1*%
%TO.N,/DISP_CS*%
X157370000Y-102190000D03*
%TO.P,U1,14,PA0*%
%TO.N,/BATTERY_MON*%
X157370000Y-102690000D03*
%TO.P,U1,13,VDDA*%
%TO.N,+3.3VA*%
X157370000Y-103190000D03*
%TO.P,U1,12,VSSA*%
%TO.N,GND*%
X157370000Y-103690000D03*
%TO.P,U1,11,PC3*%
%TO.N,unconnected-(U1-PC3-Pad11)*%
X157370000Y-104190000D03*
%TO.P,U1,10,PC2*%
%TO.N,unconnected-(U1-PC2-Pad10)*%
X157370000Y-104690000D03*
%TO.P,U1,9,PC1*%
%TO.N,/UI_LED_R*%
X157370000Y-105190000D03*
%TO.P,U1,8,PC0*%
%TO.N,/UI_LED_G*%
X157370000Y-105690000D03*
%TO.P,U1,7,NRST*%
%TO.N,/UI_RST*%
X157370000Y-106190000D03*
%TO.P,U1,6,PH1*%
%TO.N,unconnected-(U1-PH1-Pad6)*%
X157370000Y-106690000D03*
%TO.P,U1,5,PH0*%
%TO.N,/MCLK*%
X157370000Y-107190000D03*
%TO.P,U1,4,PC15*%
%TO.N,/KB_COL4*%
X157370000Y-107690000D03*
%TO.P,U1,3,PC14*%
%TO.N,/KB_COL3*%
X157370000Y-108190000D03*
%TO.P,U1,2,PC13*%
%TO.N,unconnected-(U1-PC13-Pad2)*%
X157370000Y-108690000D03*
%TO.P,U1,1,VBAT*%
%TO.N,unconnected-(U1-VBAT-Pad1)*%
X157370000Y-109190000D03*
%TD*%
D19*
%TO.P,C16,1*%
%TO.N,GND*%
X163037500Y-119505000D03*
%TO.P,C16,2*%
%TO.N,+3.3V*%
X163037500Y-118545000D03*
%TD*%
D28*
%TO.P,J13,1,Pin_1*%
%TO.N,/BTN_RST*%
X130850000Y-63590000D03*
%TO.P,J13,2,Pin_2*%
%TO.N,/BTN_UI*%
X129850000Y-63590000D03*
%TO.P,J13,3,Pin_3*%
%TO.N,/BTN_NET*%
X128850000Y-63590000D03*
%TO.P,J13,4,Pin_4*%
%TO.N,GND*%
X127850000Y-63590000D03*
D29*
%TO.P,J13,5*%
%TO.N,N/C*%
X131950000Y-60190000D03*
%TO.P,J13,6*%
X126750000Y-60190000D03*
%TD*%
D30*
%TO.P,120R1,1*%
%TO.N,+3.3VA*%
X161912500Y-103425000D03*
%TO.P,120R1,2*%
%TO.N,+3.3V*%
X163487500Y-103425000D03*
%TD*%
D31*
%TO.P,R17,1*%
%TO.N,/NET_LED_G*%
X154100000Y-64510000D03*
%TO.P,R17,2*%
%TO.N,Net-(D4-GK)*%
X154100000Y-63490000D03*
%TD*%
D21*
%TO.P,R13,1*%
%TO.N,Net-(D3-BK)*%
X140100000Y-63490000D03*
%TO.P,R13,2*%
%TO.N,/LEDB_B*%
X140100000Y-64510000D03*
%TD*%
D19*
%TO.P,C20,1*%
%TO.N,/VIN*%
X180750000Y-98010000D03*
%TO.P,C20,2*%
%TO.N,GND*%
X180750000Y-97050000D03*
%TD*%
D10*
%TO.P,R30,1*%
%TO.N,Net-(J10-Pin_5)*%
X125490000Y-126800000D03*
%TO.P,R30,2*%
%TO.N,/NET_DBG5*%
X126510000Y-126800000D03*
%TD*%
D13*
%TO.P,R4,1*%
%TO.N,/NET_RST*%
X142810000Y-66600000D03*
%TO.P,R4,2*%
%TO.N,GND*%
X141790000Y-66600000D03*
%TD*%
D21*
%TO.P,R39,1*%
%TO.N,GND*%
X140060000Y-116560000D03*
%TO.P,R39,2*%
%TO.N,/BATTERY_MON*%
X140060000Y-117580000D03*
%TD*%
D19*
%TO.P,C5,1*%
%TO.N,/VIN*%
X154787500Y-130555000D03*
%TO.P,C5,2*%
%TO.N,GND*%
X154787500Y-129595000D03*
%TD*%
D32*
%TO.P,J4,1,Pin_1*%
%TO.N,/DISP_BL*%
X183087500Y-79885000D03*
D33*
%TO.P,J4,2,Pin_2*%
%TO.N,/DISP_RSTR*%
X183087500Y-82425000D03*
%TO.P,J4,3,Pin_3*%
%TO.N,/DISP_DC*%
X183087500Y-84965000D03*
%TO.P,J4,4,Pin_4*%
%TO.N,/DISP_CS*%
X183087500Y-87505000D03*
%TO.P,J4,5,Pin_5*%
%TO.N,/DISP_SPI_SCK*%
X183087500Y-90045000D03*
%TO.P,J4,6,Pin_6*%
%TO.N,/DISP_SPI_MOSI*%
X183087500Y-92585000D03*
%TO.P,J4,7,Pin_7*%
%TO.N,GND*%
X183087500Y-95125000D03*
%TO.P,J4,8,Pin_8*%
%TO.N,/VIN*%
X183087500Y-97665000D03*
%TD*%
D11*
%TO.P,C8,1*%
%TO.N,+3.3VA*%
X159500000Y-102995000D03*
%TO.P,C8,2*%
%TO.N,GND*%
X159500000Y-103955000D03*
%TD*%
D21*
%TO.P,R12,1*%
%TO.N,Net-(D18-RK)*%
X148100000Y-63490000D03*
%TO.P,R12,2*%
%TO.N,/LEDA_R*%
X148100000Y-64510000D03*
%TD*%
%TO.P,R11,1*%
%TO.N,Net-(D18-GK)*%
X149100000Y-63490000D03*
%TO.P,R11,2*%
%TO.N,/LEDA_G*%
X149100000Y-64510000D03*
%TD*%
D11*
%TO.P,C21,1*%
%TO.N,GND*%
X148080000Y-97140000D03*
%TO.P,C21,2*%
%TO.N,Net-(U1-VCAP_1)*%
X148080000Y-98100000D03*
%TD*%
D34*
%TO.P,SW5,1,1*%
%TO.N,/MGMT_NRST*%
X158112000Y-58095000D03*
%TO.P,SW5,2,2*%
%TO.N,GND*%
X158112000Y-64825000D03*
%TD*%
D21*
%TO.P,R6,1*%
%TO.N,Net-(D18-BK)*%
X150100000Y-63490000D03*
%TO.P,R6,2*%
%TO.N,/LEDA_B*%
X150100000Y-64510000D03*
%TD*%
D31*
%TO.P,R16,1*%
%TO.N,/NET_LED_B*%
X155100000Y-64510000D03*
%TO.P,R16,2*%
%TO.N,Net-(D4-BK)*%
X155100000Y-63490000D03*
%TD*%
D22*
%TO.P,J2,1,Pin_1*%
%TO.N,/SPK_LN*%
X178437500Y-117125000D03*
%TO.P,J2,2,Pin_2*%
%TO.N,/SPK_LP*%
X178437500Y-115125000D03*
D23*
%TO.P,J2,MP*%
%TO.N,N/C*%
X184187500Y-119475000D03*
X184187500Y-112775000D03*
%TD*%
D20*
%TO.P,C2,1*%
%TO.N,+3.3V*%
X175300000Y-84750000D03*
%TO.P,C2,2*%
%TO.N,GND*%
X175300000Y-86650000D03*
%TD*%
D35*
%TO.P,C29,1*%
%TO.N,Net-(U6-HP_R)*%
X166437500Y-109180000D03*
%TO.P,C29,2*%
%TO.N,/HP_R*%
X166437500Y-106230000D03*
%TD*%
D14*
%TO.P,C27,1*%
%TO.N,/MIC_N*%
X161907500Y-117275000D03*
%TO.P,C27,2*%
%TO.N,Net-(U6-LINPUT1)*%
X162867500Y-117275000D03*
%TD*%
D11*
%TO.P,C10,1*%
%TO.N,+3.3V*%
X164800000Y-102995000D03*
%TO.P,C10,2*%
%TO.N,GND*%
X164800000Y-103955000D03*
%TD*%
D31*
%TO.P,R24,1*%
%TO.N,/UI_LED_G*%
X144100000Y-64510000D03*
%TO.P,R24,2*%
%TO.N,Net-(D5-GK)*%
X144100000Y-63490000D03*
%TD*%
D18*
%TO.P,C35,1*%
%TO.N,GND*%
X181452000Y-76192000D03*
%TO.P,C35,2*%
%TO.N,/MGMT_NRST*%
X180492000Y-76192000D03*
%TD*%
%TO.P,C12,2*%
%TO.N,GND*%
X155730000Y-113530000D03*
%TO.P,C12,1*%
%TO.N,+3.3V*%
X156690000Y-113530000D03*
%TD*%
D28*
%TO.P,J12,1,Pin_1*%
%TO.N,/UI_SWDIO*%
X173940000Y-130430000D03*
%TO.P,J12,2,Pin_2*%
%TO.N,/UI_SWDCLK*%
X172940000Y-130430000D03*
%TO.P,J12,3,Pin_3*%
%TO.N,GND*%
X171940000Y-130430000D03*
%TO.P,J12,4,Pin_4*%
%TO.N,+3.3V*%
X170940000Y-130430000D03*
D29*
%TO.P,J12,5*%
%TO.N,N/C*%
X175040000Y-127030000D03*
%TO.P,J12,6*%
X169840000Y-127030000D03*
%TD*%
D21*
%TO.P,R37,1*%
%TO.N,GND*%
X139800000Y-120790000D03*
%TO.P,R37,2*%
%TO.N,Net-(U12-PROG)*%
X139800000Y-121810000D03*
%TD*%
D31*
%TO.P,R18,1*%
%TO.N,/NET_LED_R*%
X153099500Y-64510000D03*
%TO.P,R18,2*%
%TO.N,Net-(D4-RK)*%
X153099500Y-63490000D03*
%TD*%
D21*
%TO.P,R2,1*%
%TO.N,GND*%
X152087500Y-134015000D03*
%TO.P,R2,2*%
%TO.N,Net-(J9-CC2)*%
X152087500Y-135035000D03*
%TD*%
D19*
%TO.P,C25,1*%
%TO.N,+3.3V*%
X177437500Y-94255000D03*
%TO.P,C25,2*%
%TO.N,GND*%
X177437500Y-93295000D03*
%TD*%
%TO.P,C1,1*%
%TO.N,VBUS*%
X147870000Y-134970000D03*
%TO.P,C1,2*%
%TO.N,GND*%
X147870000Y-134010000D03*
%TD*%
D31*
%TO.P,R32,1*%
%TO.N,GND*%
X149100000Y-88010000D03*
%TO.P,R32,2*%
%TO.N,Net-(U11-IO46)*%
X149100000Y-86990000D03*
%TD*%
D15*
%TO.P,D10,1,K*%
%TO.N,Net-(D10-K)*%
X132650000Y-121300000D03*
%TO.P,D10,2,A*%
%TO.N,VBUS*%
X134750000Y-121300000D03*
%TD*%
D21*
%TO.P,R8,1*%
%TO.N,+3.3V*%
X135627500Y-137625000D03*
%TO.P,R8,2*%
%TO.N,/UI_SCL*%
X135627500Y-138645000D03*
%TD*%
D36*
%TO.P,D11,1,K*%
%TO.N,Net-(D11-K)*%
X150238000Y-131993500D03*
%TO.P,D11,2,A*%
%TO.N,VBUS*%
X150238000Y-130118500D03*
%TD*%
D37*
%TO.P,J15,1,Pin_1*%
%TO.N,Net-(D10-K)*%
X172537500Y-64275000D03*
%TO.P,J15,2,Pin_2*%
%TO.N,Net-(J15-Pin_2)*%
X170537500Y-64275000D03*
D38*
%TO.P,J15,MP*%
%TO.N,N/C*%
X174887500Y-58525000D03*
X168187500Y-58525000D03*
%TD*%
D14*
%TO.P,C15,1*%
%TO.N,GND*%
X164507500Y-120075000D03*
%TO.P,C15,2*%
%TO.N,+3.3V*%
X165467500Y-120075000D03*
%TD*%
D21*
%TO.P,R15,1*%
%TO.N,Net-(D3-RK)*%
X138100000Y-63490000D03*
%TO.P,R15,2*%
%TO.N,/LEDB_R*%
X138100000Y-64510000D03*
%TD*%
D39*
%TO.P,U6,1,MICBIAS*%
%TO.N,Net-(U6-MICBIAS)*%
X164365000Y-114575000D03*
%TO.P,U6,2,LINPUT3*%
%TO.N,Net-(U6-LINPUT3)*%
X164365000Y-115075000D03*
%TO.P,U6,3,LINPUT2*%
%TO.N,Net-(U6-LINPUT2)*%
X164365000Y-115575000D03*
%TO.P,U6,4,LINPUT1*%
%TO.N,Net-(U6-LINPUT1)*%
X164365000Y-116075000D03*
%TO.P,U6,5,RINPUT1*%
%TO.N,unconnected-(U6-RINPUT1-Pad5)*%
X164365000Y-116575000D03*
%TO.P,U6,6,RINPUT2*%
%TO.N,unconnected-(U6-RINPUT2-Pad6)*%
X164365000Y-117075000D03*
%TO.P,U6,7,RINPUT3*%
%TO.N,unconnected-(U6-RINPUT3-Pad7)*%
X164365000Y-117575000D03*
%TO.P,U6,8,DCVDD*%
%TO.N,+3.3V*%
X164365000Y-118075000D03*
D40*
%TO.P,U6,9,DGND*%
%TO.N,GND*%
X165090000Y-118800000D03*
%TO.P,U6,10,DBVDD*%
%TO.N,+3.3V*%
X165590000Y-118800000D03*
%TO.P,U6,11,MCLK*%
%TO.N,/MCLK*%
X166090000Y-118800000D03*
%TO.P,U6,12,BCLK*%
%TO.N,/I2S_BCLK*%
X166590000Y-118800000D03*
%TO.P,U6,13,DACLRC*%
%TO.N,/I2S_DACLRC*%
X167090000Y-118800000D03*
%TO.P,U6,14,DACDAT*%
%TO.N,/I2S_DACDAT*%
X167590000Y-118800000D03*
%TO.P,U6,15,ADCLRC*%
%TO.N,unconnected-(U6-ADCLRC-Pad15)*%
X168090000Y-118800000D03*
%TO.P,U6,16,ADCDAT*%
%TO.N,/I2S_ADCDAT*%
X168590000Y-118800000D03*
D39*
%TO.P,U6,17,SCLK*%
%TO.N,/UI_SCL*%
X169315000Y-118075000D03*
%TO.P,U6,18,SDIN*%
%TO.N,/UI_SDA*%
X169315000Y-117575000D03*
%TO.P,U6,19,SPK_RN*%
%TO.N,unconnected-(U6-SPK_RN-Pad19)*%
X169315000Y-117075000D03*
%TO.P,U6,20,SPKGND2*%
%TO.N,unconnected-(U6-SPKGND2-Pad20)*%
X169315000Y-116575000D03*
%TO.P,U6,21,SPKVDD2*%
%TO.N,+3.3VA*%
X169315000Y-116075000D03*
%TO.P,U6,22,SPK_RP*%
%TO.N,unconnected-(U6-SPK_RP-Pad22)*%
X169315000Y-115575000D03*
%TO.P,U6,23,SPK_LN*%
%TO.N,/SPK_LN*%
X169315000Y-115075000D03*
%TO.P,U6,24,SPKGND1*%
%TO.N,unconnected-(U6-SPKGND1-Pad24)*%
X169315000Y-114575000D03*
D40*
%TO.P,U6,25,SPK_LP*%
%TO.N,/SPK_LP*%
X168590000Y-113850000D03*
%TO.P,U6,26,SPKVDD1*%
%TO.N,+3.3VA*%
X168090000Y-113850000D03*
%TO.P,U6,27,AMID*%
%TO.N,Net-(U6-AMID)*%
X167590000Y-113850000D03*
%TO.P,U6,28,AGND*%
%TO.N,unconnected-(U6-AGND-Pad28)*%
X167090000Y-113850000D03*
%TO.P,U6,29,HP_R*%
%TO.N,Net-(U6-HP_R)*%
X166590000Y-113850000D03*
%TO.P,U6,30,OUT3*%
%TO.N,unconnected-(U6-OUT3-Pad30)*%
X166090000Y-113850000D03*
%TO.P,U6,31,HP_L*%
%TO.N,Net-(U6-HP_L)*%
X165590000Y-113850000D03*
%TO.P,U6,32,AVDD*%
%TO.N,+3.3VA*%
X165090000Y-113850000D03*
D41*
%TO.P,U6,33,EP*%
%TO.N,unconnected-(U6-EP-Pad33)*%
X166840000Y-116325000D03*
%TD*%
D42*
%TO.P,C23,1*%
%TO.N,GND*%
X175187500Y-107075000D03*
%TO.P,C23,2*%
%TO.N,/RCC_OSC_OUT*%
X175187500Y-105175000D03*
%TD*%
D13*
%TO.P,R9,1*%
%TO.N,Net-(U6-MICBIAS)*%
X162897500Y-113075000D03*
%TO.P,R9,2*%
%TO.N,/MIC_P*%
X161877500Y-113075000D03*
%TD*%
D21*
%TO.P,R14,1*%
%TO.N,Net-(D3-GK)*%
X139100000Y-63490000D03*
%TO.P,R14,2*%
%TO.N,/LEDB_G*%
X139100000Y-64510000D03*
%TD*%
D35*
%TO.P,C30,1*%
%TO.N,Net-(U6-HP_L)*%
X164007500Y-109180000D03*
%TO.P,C30,2*%
%TO.N,/HP_L*%
X164007500Y-106230000D03*
%TD*%
D10*
%TO.P,R22,1*%
%TO.N,Net-(J10-Pin_1)*%
X125490000Y-118800000D03*
%TO.P,R22,2*%
%TO.N,/UI_DBG1*%
X126510000Y-118800000D03*
%TD*%
D34*
%TO.P,SW4,1,1*%
%TO.N,/MGMT_BOOT*%
X163700000Y-58095000D03*
%TO.P,SW4,2,2*%
%TO.N,+3.3V*%
X163700000Y-64825000D03*
%TD*%
D43*
%TO.P,D4,1,RK*%
%TO.N,Net-(D4-RK)*%
X153662500Y-61695000D03*
%TO.P,D4,2,A*%
%TO.N,+3.3V*%
X153662500Y-60295000D03*
%TO.P,D4,3,BK*%
%TO.N,Net-(D4-BK)*%
X154462500Y-60295000D03*
%TO.P,D4,4,GK*%
%TO.N,Net-(D4-GK)*%
X154462500Y-61695000D03*
%TD*%
D21*
%TO.P,R36,1*%
%TO.N,Net-(U12-STAT)*%
X139800000Y-118490000D03*
%TO.P,R36,2*%
%TO.N,Net-(D11-K)*%
X139800000Y-119510000D03*
%TD*%
D44*
%TO.P,U3,1,GND*%
%TO.N,GND*%
X151492500Y-126370000D03*
%TO.P,U3,2,TXD*%
%TO.N,/USB_TX1_MGMT*%
X152762500Y-126370000D03*
%TO.P,U3,3,RXD*%
%TO.N,/USB_RX1_MGMT*%
X154032500Y-126370000D03*
%TO.P,U3,4,V3*%
%TO.N,+3.3V*%
X155302500Y-126370000D03*
%TO.P,U3,5,UD+*%
%TO.N,/UD+*%
X156572500Y-126370000D03*
%TO.P,U3,6,UD-*%
%TO.N,/UD-*%
X157842500Y-126370000D03*
%TO.P,U3,7,NC*%
%TO.N,unconnected-(U3-NC-Pad7)*%
X159112500Y-126370000D03*
%TO.P,U3,8,NC*%
%TO.N,unconnected-(U3-NC-Pad8)*%
X160382500Y-126370000D03*
%TO.P,U3,9,~{CTS}*%
%TO.N,unconnected-(U3-~{CTS}-Pad9)*%
X160382500Y-121420000D03*
%TO.P,U3,10,~{DSR}*%
%TO.N,unconnected-(U3-~{DSR}-Pad10)*%
X159112500Y-121420000D03*
%TO.P,U3,11,~{RI}*%
%TO.N,unconnected-(U3-~{RI}-Pad11)*%
X157842500Y-121420000D03*
%TO.P,U3,12,~{DCD}*%
%TO.N,unconnected-(U3-~{DCD}-Pad12)*%
X156572500Y-121420000D03*
%TO.P,U3,13,~{DTR}*%
%TO.N,/USB_DTR*%
X155302500Y-121420000D03*
%TO.P,U3,14,~{RTS}*%
%TO.N,/USB_RTS*%
X154032500Y-121420000D03*
%TO.P,U3,15,R232*%
%TO.N,unconnected-(U3-R232-Pad15)*%
X152762500Y-121420000D03*
%TO.P,U3,16,VCC*%
%TO.N,+3.3V*%
X151492500Y-121420000D03*
%TD*%
D31*
%TO.P,R23,1*%
%TO.N,/UI_LED_B*%
X145100000Y-64510000D03*
%TO.P,R23,2*%
%TO.N,Net-(D5-BK)*%
X145100000Y-63490000D03*
%TD*%
D11*
%TO.P,C34,1*%
%TO.N,+3.3V*%
X168730000Y-92880000D03*
%TO.P,C34,2*%
%TO.N,GND*%
X168730000Y-93840000D03*
%TD*%
D28*
%TO.P,J7,1,Pin_1*%
%TO.N,+3.3V*%
X134637500Y-140395000D03*
%TO.P,J7,2,Pin_2*%
%TO.N,/UI_SCL*%
X135637500Y-140395000D03*
%TO.P,J7,3,Pin_3*%
%TO.N,/UI_SDA*%
X136637500Y-140395000D03*
%TO.P,J7,4,Pin_4*%
%TO.N,GND*%
X137637500Y-140395000D03*
D29*
%TO.P,J7,5*%
%TO.N,N/C*%
X133537500Y-143795000D03*
%TO.P,J7,6*%
X138737500Y-143795000D03*
%TD*%
D13*
%TO.P,R41,1*%
%TO.N,Net-(U1-PA12)*%
X137627500Y-132905000D03*
%TO.P,R41,2*%
%TO.N,/KB_LED*%
X136607500Y-132905000D03*
%TD*%
D10*
%TO.P,R27,1*%
%TO.N,Net-(J10-Pin_3)*%
X125490000Y-122800000D03*
%TO.P,R27,2*%
%TO.N,/UI_DBG3*%
X126510000Y-122800000D03*
%TD*%
D14*
%TO.P,C18,1*%
%TO.N,/MIC_P*%
X161907500Y-116225000D03*
%TO.P,C18,2*%
%TO.N,Net-(U6-LINPUT2)*%
X162867500Y-116225000D03*
%TD*%
%TO.P,C6,1*%
%TO.N,+3.3VA*%
X170497500Y-116405000D03*
%TO.P,C6,2*%
%TO.N,GND*%
X171457500Y-116405000D03*
%TD*%
D45*
%TO.P,U2,1,GND*%
%TO.N,GND*%
X168300000Y-88185000D03*
%TO.P,U2,2,VO*%
%TO.N,+3.3V*%
X170600000Y-88185000D03*
D46*
X170600000Y-81885000D03*
D45*
%TO.P,U2,3,VI*%
%TO.N,/VIN*%
X172900000Y-88185000D03*
%TD*%
D43*
%TO.P,D3,1,RK*%
%TO.N,Net-(D3-RK)*%
X138662500Y-61695000D03*
%TO.P,D3,2,A*%
%TO.N,+3.3V*%
X138662500Y-60295000D03*
%TO.P,D3,3,BK*%
%TO.N,Net-(D3-BK)*%
X139462500Y-60295000D03*
%TO.P,D3,4,GK*%
%TO.N,Net-(D3-GK)*%
X139462500Y-61695000D03*
%TD*%
D47*
%TO.P,U11,1,GND*%
%TO.N,GND*%
X146075000Y-67740000D03*
%TO.P,U11,2,3V3*%
%TO.N,+3.3V*%
X146075000Y-69010000D03*
%TO.P,U11,3,EN*%
%TO.N,/NET_RST*%
X146075000Y-70280000D03*
%TO.P,U11,4,IO4*%
%TO.N,unconnected-(U11-IO4-Pad4)*%
X146075000Y-71550000D03*
%TO.P,U11,5,IO5*%
%TO.N,/NET_LED_R*%
X146075000Y-72820000D03*
%TO.P,U11,6,IO6*%
%TO.N,/NET_LED_G*%
X146075000Y-74090000D03*
%TO.P,U11,7,IO7*%
%TO.N,/NET_LED_B*%
X146075000Y-75360000D03*
%TO.P,U11,8,IO15*%
%TO.N,unconnected-(U11-IO15-Pad8)*%
X146075000Y-76630000D03*
%TO.P,U11,9,IO16*%
%TO.N,unconnected-(U11-IO16-Pad9)*%
X146075000Y-77900000D03*
%TO.P,U11,10,IO17*%
%TO.N,/UI_RX1_NET*%
X146075000Y-79170000D03*
%TO.P,U11,11,IO18*%
%TO.N,/UI_TX1_NET*%
X146075000Y-80440000D03*
%TO.P,U11,12,IO8*%
%TO.N,unconnected-(U11-IO8-Pad12)*%
X146075000Y-81710000D03*
%TO.P,U11,13,IO19*%
%TO.N,unconnected-(U11-IO19-Pad13)*%
X146075000Y-82980000D03*
%TO.P,U11,14,IO20*%
%TO.N,unconnected-(U11-IO20-Pad14)*%
X146075000Y-84250000D03*
D48*
%TO.P,U11,15,IO3*%
%TO.N,unconnected-(U11-IO3-Pad15)*%
X147840000Y-85500000D03*
%TO.P,U11,16,IO46*%
%TO.N,Net-(U11-IO46)*%
X149110000Y-85500000D03*
%TO.P,U11,17,IO9*%
%TO.N,unconnected-(U11-IO9-Pad17)*%
X150380000Y-85500000D03*
%TO.P,U11,18,IO10*%
%TO.N,unconnected-(U11-IO10-Pad18)*%
X151650000Y-85500000D03*
%TO.P,U11,19,IO11*%
%TO.N,unconnected-(U11-IO11-Pad19)*%
X152920000Y-85500000D03*
%TO.P,U11,20,IO12*%
%TO.N,unconnected-(U11-IO12-Pad20)*%
X154190000Y-85500000D03*
%TO.P,U11,21,IO13*%
%TO.N,unconnected-(U11-IO13-Pad21)*%
X155460000Y-85500000D03*
%TO.P,U11,22,IO14*%
%TO.N,unconnected-(U11-IO14-Pad22)*%
X156730000Y-85500000D03*
%TO.P,U11,23,IO21*%
%TO.N,/NET_STAT*%
X158000000Y-85500000D03*
%TO.P,U11,24,IO47*%
%TO.N,unconnected-(U11-IO47-Pad24)*%
X159270000Y-85500000D03*
%TO.P,U11,25,IO48*%
%TO.N,unconnected-(U11-IO48-Pad25)*%
X160540000Y-85500000D03*
%TO.P,U11,26,IO45*%
%TO.N,unconnected-(U11-IO45-Pad26)*%
X161810000Y-85500000D03*
D47*
%TO.P,U11,27,IO0*%
%TO.N,/NET_BOOT*%
X163575000Y-84250000D03*
%TO.P,U11,28,IO35*%
%TO.N,/NET_DBG5*%
X163575000Y-82980000D03*
%TO.P,U11,29,IO36*%
%TO.N,/NET_DBG6*%
X163575000Y-81710000D03*
%TO.P,U11,30,IO37*%
%TO.N,unconnected-(U11-IO37-Pad30)*%
X163575000Y-80440000D03*
%TO.P,U11,31,IO38*%
%TO.N,unconnected-(U11-IO38-Pad31)*%
X163575000Y-79170000D03*
%TO.P,U11,32,IO39*%
%TO.N,unconnected-(U11-IO39-Pad32)*%
X163575000Y-77900000D03*
%TO.P,U11,33,IO40*%
%TO.N,unconnected-(U11-IO40-Pad33)*%
X163575000Y-76630000D03*
%TO.P,U11,34,IO41*%
%TO.N,unconnected-(U11-IO41-Pad34)*%
X163575000Y-75360000D03*
%TO.P,U11,35,IO42*%
%TO.N,unconnected-(U11-IO42-Pad35)*%
X163575000Y-74090000D03*
%TO.P,U11,36,RXD0*%
%TO.N,/NET_RX0_MGMT*%
X163575000Y-72820000D03*
%TO.P,U11,37,TXD0*%
%TO.N,/NET_TX0_MGMT*%
X163575000Y-71550000D03*
%TO.P,U11,38,IO2*%
%TO.N,unconnected-(U11-IO2-Pad38)*%
X163575000Y-70280000D03*
%TO.P,U11,39,IO1*%
%TO.N,unconnected-(U11-IO1-Pad39)*%
X163575000Y-69010000D03*
%TO.P,U11,40,GND*%
%TO.N,GND*%
X163575000Y-67740000D03*
D49*
%TO.P,U11,41*%
%TO.N,N/C*%
X151925000Y-74760000D03*
X151925000Y-76160000D03*
X152625000Y-74060000D03*
X152625000Y-75460000D03*
X152625000Y-76860000D03*
X153325000Y-74760000D03*
D50*
X153325000Y-75460000D03*
D49*
X153325000Y-76160000D03*
X154025000Y-74060000D03*
X154025000Y-75460000D03*
X154025000Y-76860000D03*
X154725000Y-74760000D03*
X154725000Y-76160000D03*
%TD*%
D14*
%TO.P,C17,1*%
%TO.N,/IN_3*%
X161907500Y-115175000D03*
%TO.P,C17,2*%
%TO.N,Net-(U6-LINPUT3)*%
X162867500Y-115175000D03*
%TD*%
D11*
%TO.P,C7,1*%
%TO.N,GND*%
X164537500Y-111495000D03*
%TO.P,C7,2*%
%TO.N,+3.3VA*%
X164537500Y-112455000D03*
%TD*%
D51*
%TO.P,J11,1,Pin_1*%
%TO.N,+3.3V*%
X160237500Y-137175000D03*
%TO.P,J11,2,Pin_2*%
%TO.N,/MGMT_BOOT*%
X162237500Y-137175000D03*
%TO.P,J11,3,Pin_3*%
%TO.N,/MGMT_NRST*%
X164237500Y-137175000D03*
%TO.P,J11,4,Pin_4*%
%TO.N,/MGMT_SWDIO*%
X166237500Y-137175000D03*
%TO.P,J11,5,Pin_5*%
%TO.N,/MGMT_SWCLK*%
X168237500Y-137175000D03*
%TO.P,J11,6,Pin_6*%
%TO.N,GND*%
X170237500Y-137175000D03*
D52*
%TO.P,J11,MP*%
%TO.N,N/C*%
X157887500Y-142925000D03*
X172587500Y-142925000D03*
%TD*%
D19*
%TO.P,C32,1*%
%TO.N,+3.3V*%
X152297500Y-129135000D03*
%TO.P,C32,2*%
%TO.N,GND*%
X152297500Y-128175000D03*
%TD*%
D53*
%TO.P,J10,1,Pin_1*%
%TO.N,Net-(J10-Pin_1)*%
X122350000Y-118800000D03*
%TO.P,J10,2,Pin_2*%
%TO.N,Net-(J10-Pin_2)*%
X122350000Y-120800000D03*
%TO.P,J10,3,Pin_3*%
%TO.N,Net-(J10-Pin_3)*%
X122350000Y-122800000D03*
%TO.P,J10,4,Pin_4*%
%TO.N,Net-(J10-Pin_4)*%
X122350000Y-124800000D03*
%TO.P,J10,5,Pin_5*%
%TO.N,Net-(J10-Pin_5)*%
X122350000Y-126800000D03*
%TO.P,J10,6,Pin_6*%
%TO.N,Net-(J10-Pin_6)*%
X122350000Y-128800000D03*
%TO.P,J10,7,Pin_7*%
%TO.N,Net-(J10-Pin_7)*%
X122350000Y-130800000D03*
%TO.P,J10,8,Pin_8*%
%TO.N,GND*%
X122350000Y-132800000D03*
D54*
%TO.P,J10,MP*%
%TO.N,N/C*%
X116600000Y-116450000D03*
X116600000Y-135150000D03*
%TD*%
D11*
%TO.P,C31,1*%
%TO.N,GND*%
X167687500Y-111495000D03*
%TO.P,C31,2*%
%TO.N,Net-(U6-AMID)*%
X167687500Y-112455000D03*
%TD*%
D28*
%TO.P,J6,1,Pin_1*%
%TO.N,/NET_TX0_MGMT*%
X166900000Y-130440000D03*
%TO.P,J6,2,Pin_2*%
%TO.N,/NET_RX0_MGMT*%
X165900000Y-130440000D03*
%TO.P,J6,3,Pin_3*%
%TO.N,GND*%
X164900000Y-130440000D03*
%TO.P,J6,4,Pin_4*%
%TO.N,+3.3V*%
X163900000Y-130440000D03*
D29*
%TO.P,J6,5*%
%TO.N,N/C*%
X168000000Y-127040000D03*
%TO.P,J6,6*%
X162800000Y-127040000D03*
%TD*%
D11*
%TO.P,C9,1*%
%TO.N,+3.3VA*%
X160600000Y-102995000D03*
%TO.P,C9,2*%
%TO.N,GND*%
X160600000Y-103955000D03*
%TD*%
%TO.P,C24,1*%
%TO.N,+3.3V*%
X168847500Y-103185000D03*
%TO.P,C24,2*%
%TO.N,GND*%
X168847500Y-104145000D03*
%TD*%
D38*
%TO.P,J1,MP*%
%TO.N,N/C*%
X142150000Y-117550000D03*
X148850000Y-117550000D03*
D37*
%TO.P,J1,2,Pin_2*%
%TO.N,+BATT*%
X144500000Y-123300000D03*
%TO.P,J1,1,Pin_1*%
%TO.N,GND*%
X146500000Y-123300000D03*
%TD*%
D55*
%TO.P,J9,A1,GND*%
%TO.N,GND*%
X147037500Y-139001000D03*
%TO.P,J9,A4,VBUS*%
%TO.N,VBUS*%
X147837500Y-139001000D03*
D56*
%TO.P,J9,A5,CC1*%
%TO.N,Net-(J9-CC1)*%
X149037500Y-139001000D03*
%TO.P,J9,A6,D+*%
%TO.N,/USB_D+*%
X150037500Y-139001000D03*
%TO.P,J9,A7,D-*%
%TO.N,/USB_D-*%
X150537500Y-139001000D03*
%TO.P,J9,A8,SBU1*%
%TO.N,unconnected-(J9-SBU1-PadA8)*%
X151537500Y-139001000D03*
D55*
%TO.P,J9,A9,VBUS*%
%TO.N,VBUS*%
X152737500Y-139001000D03*
%TO.P,J9,A12,GND*%
%TO.N,GND*%
X153537500Y-139001000D03*
%TO.P,J9,B1,GND*%
X153537500Y-139001000D03*
%TO.P,J9,B4,VBUS*%
%TO.N,VBUS*%
X152737500Y-139001000D03*
D56*
%TO.P,J9,B5,CC2*%
%TO.N,Net-(J9-CC2)*%
X152037500Y-139001000D03*
%TO.P,J9,B6,D+*%
%TO.N,/USB_D+*%
X151037500Y-139001000D03*
%TO.P,J9,B7,D-*%
%TO.N,/USB_D-*%
X149537500Y-139001000D03*
%TO.P,J9,B8,SBU2*%
%TO.N,unconnected-(J9-SBU2-PadB8)*%
X148537500Y-139001000D03*
D55*
%TO.P,J9,B9,VBUS*%
%TO.N,VBUS*%
X147837500Y-139001000D03*
%TO.P,J9,B12,GND*%
%TO.N,GND*%
X147037500Y-139001000D03*
D57*
%TO.P,J9,S1,SHIELD*%
%TO.N,unconnected-(J9-SHIELD-PadS1)*%
X145967500Y-139916000D03*
D58*
X145967500Y-144096000D03*
D57*
X154607500Y-139916000D03*
D58*
X154607500Y-144096000D03*
%TD*%
D43*
%TO.P,D5,1,RK*%
%TO.N,Net-(D5-RK)*%
X143662500Y-61695000D03*
%TO.P,D5,2,A*%
%TO.N,+3.3V*%
X143662500Y-60295000D03*
%TO.P,D5,3,BK*%
%TO.N,Net-(D5-BK)*%
X144462500Y-60295000D03*
%TO.P,D5,4,GK*%
%TO.N,Net-(D5-GK)*%
X144462500Y-61695000D03*
%TD*%
D10*
%TO.P,R29,1*%
%TO.N,Net-(J10-Pin_7)*%
X125477500Y-130800000D03*
%TO.P,R29,2*%
%TO.N,/MGMT_DBG7*%
X126497500Y-130800000D03*
%TD*%
%TO.P,R26,1*%
%TO.N,Net-(J10-Pin_2)*%
X125490000Y-120800000D03*
%TO.P,R26,2*%
%TO.N,/UI_DBG2*%
X126510000Y-120800000D03*
%TD*%
D14*
%TO.P,C11,1*%
%TO.N,+3.3V*%
X154020000Y-97775000D03*
%TO.P,C11,2*%
%TO.N,GND*%
X154980000Y-97775000D03*
%TD*%
D43*
%TO.P,D18,1,RK*%
%TO.N,Net-(D18-RK)*%
X148662500Y-61695000D03*
%TO.P,D18,2,A*%
%TO.N,+3.3V*%
X148662500Y-60295000D03*
%TO.P,D18,3,BK*%
%TO.N,Net-(D18-BK)*%
X149462500Y-60295000D03*
%TO.P,D18,4,GK*%
%TO.N,Net-(D18-GK)*%
X149462500Y-61695000D03*
%TD*%
D59*
%TO.P,U4,1,I/O1*%
%TO.N,/USB_D+*%
X157087500Y-129437500D03*
D60*
%TO.P,U4,2,GND*%
%TO.N,GND*%
X157012500Y-129975000D03*
D59*
%TO.P,U4,3,I/O2*%
%TO.N,/USB_D-*%
X157087500Y-130512500D03*
%TO.P,U4,4,I/O2*%
%TO.N,/UD-*%
X158787500Y-130512500D03*
D60*
%TO.P,U4,5,VBUS*%
%TO.N,VBUS*%
X158862500Y-129975000D03*
D59*
%TO.P,U4,6,I/O1*%
%TO.N,/UD+*%
X158787500Y-129437500D03*
%TD*%
D21*
%TO.P,R40,1*%
%TO.N,Net-(J15-Pin_2)*%
X170597500Y-67385000D03*
%TO.P,R40,2*%
%TO.N,/VIN*%
X170597500Y-68405000D03*
%TD*%
D10*
%TO.P,R31,1*%
%TO.N,Net-(J10-Pin_6)*%
X125490000Y-128800000D03*
%TO.P,R31,2*%
%TO.N,/NET_DBG6*%
X126510000Y-128800000D03*
%TD*%
D61*
%TO.P,U12,1,STAT*%
%TO.N,Net-(U12-STAT)*%
X138250000Y-119062500D03*
%TO.P,U12,2,VSS*%
%TO.N,GND*%
X137300000Y-119062500D03*
%TO.P,U12,3,VBAT*%
%TO.N,+BATT*%
X136350000Y-119062500D03*
%TO.P,U12,4,VDD*%
%TO.N,VBUS*%
X136350000Y-121337500D03*
%TO.P,U12,5,PROG*%
%TO.N,Net-(U12-PROG)*%
X138250000Y-121337500D03*
%TD*%
D18*
%TO.P,C28,1*%
%TO.N,Net-(U6-MICBIAS)*%
X162867500Y-114125000D03*
%TO.P,C28,2*%
%TO.N,GND*%
X161907500Y-114125000D03*
%TD*%
D21*
%TO.P,R7,1*%
%TO.N,+3.3V*%
X136737500Y-137665000D03*
%TO.P,R7,2*%
%TO.N,/UI_SDA*%
X136737500Y-138685000D03*
%TD*%
D19*
%TO.P,C26,1*%
%TO.N,+3.3V*%
X166840000Y-101550000D03*
%TO.P,C26,2*%
%TO.N,GND*%
X166840000Y-100590000D03*
%TD*%
D31*
%TO.P,R25,1*%
%TO.N,/UI_LED_R*%
X143084000Y-64510000D03*
%TO.P,R25,2*%
%TO.N,Net-(D5-RK)*%
X143084000Y-63490000D03*
%TD*%
D62*
%TO.P,Y1,1,1*%
%TO.N,/RCC_OSC_IN*%
X170887500Y-106975000D03*
%TO.P,Y1,2,2*%
%TO.N,GND*%
X173087500Y-106975000D03*
%TO.P,Y1,3,3*%
%TO.N,/RCC_OSC_OUT*%
X173087500Y-105275000D03*
%TO.P,Y1,4,4*%
%TO.N,GND*%
X170887500Y-105275000D03*
%TD*%
D63*
%TO.N,+BATT*%
X144500000Y-120700000D03*
X136200000Y-117100000D03*
%TO.N,GND*%
X146500000Y-120800000D03*
D64*
%TO.N,/UI_SWDIO*%
X149052869Y-115108394D03*
%TO.N,/UI_SDA*%
X145905559Y-131605559D03*
D63*
%TO.N,Net-(D10-K)*%
X173910000Y-65250000D03*
X132660000Y-139270000D03*
D64*
%TO.N,/UI_DBG4*%
X145092974Y-104227044D03*
%TO.N,/UI_DBG3*%
X145140000Y-103680000D03*
X145095541Y-113668944D03*
%TO.N,/UI_DBG4*%
X145643910Y-113633664D03*
%TO.N,Net-(U1-PA12)*%
X145040000Y-107720000D03*
X146220287Y-113595000D03*
X138280000Y-132910000D03*
X139039500Y-135951500D03*
%TO.N,/UI_SCL*%
X153679500Y-113180000D03*
%TO.N,/UI_STAT*%
X172732224Y-97630500D03*
X173608724Y-97631867D03*
X160289115Y-98304115D03*
X161560000Y-97938000D03*
X155745287Y-102805287D03*
%TO.N,/MGMT_BOOT*%
X179028417Y-97417261D03*
X178872000Y-93860000D03*
X165260000Y-134404500D03*
X178429000Y-75861713D03*
X170490092Y-100207932D03*
D63*
%TO.N,+3.3VA*%
X169637500Y-112375000D03*
X163607500Y-112245000D03*
X170487500Y-115435000D03*
X161688500Y-104725500D03*
D64*
%TO.N,+3.3V*%
X165075500Y-102300000D03*
X156610000Y-112670000D03*
D63*
X164716000Y-66806500D03*
D64*
X173352000Y-101175500D03*
X161495000Y-128065000D03*
D63*
X148237000Y-68375000D03*
X162137500Y-118575000D03*
D65*
X171574000Y-127925000D03*
D63*
X155492500Y-128050000D03*
X148637500Y-59665000D03*
D64*
X166446962Y-120075538D03*
X161700000Y-130190000D03*
X162294936Y-101214500D03*
D63*
X181480000Y-75282500D03*
D64*
X160237500Y-134425000D03*
D63*
X138627500Y-59345000D03*
D64*
X167870000Y-93260000D03*
X135727878Y-136838556D03*
D63*
X134637500Y-139115000D03*
X176737000Y-86837500D03*
X143637500Y-59465000D03*
X145768287Y-110070000D03*
X153637500Y-59505000D03*
D64*
X176137500Y-94125000D03*
X166837500Y-102275000D03*
D63*
X145920000Y-99050000D03*
D64*
X169937500Y-100975000D03*
D63*
X153600000Y-96900000D03*
D64*
X136757500Y-136799500D03*
D63*
%TO.N,VBUS*%
X153197500Y-135115000D03*
X148800000Y-133125000D03*
X134300000Y-122700000D03*
D64*
X159987500Y-130025000D03*
D63*
%TO.N,GND*%
X175700000Y-89795000D03*
D64*
X149921225Y-133974500D03*
D63*
X154737500Y-128835000D03*
X169649706Y-111417206D03*
X146617500Y-136495000D03*
X162027997Y-119574503D03*
X151570500Y-127985023D03*
X169635000Y-103875000D03*
X148200000Y-88010000D03*
X125738000Y-132793750D03*
X181267500Y-95125000D03*
D65*
X164716000Y-126992000D03*
D63*
X171457500Y-115335000D03*
D64*
X167880000Y-93930000D03*
D63*
X171427500Y-136495000D03*
D64*
X179157500Y-71366000D03*
D63*
X154871898Y-96928102D03*
D64*
X170270000Y-95130000D03*
D63*
X138272313Y-139748000D03*
X140800000Y-67387500D03*
D64*
X156525500Y-129975000D03*
D63*
X141500000Y-132700000D03*
X164600000Y-104900000D03*
D64*
X135772500Y-131540000D03*
D63*
X145170000Y-112000000D03*
X181480000Y-77208000D03*
D65*
X180464000Y-128262000D03*
D63*
X140600000Y-120700000D03*
X159500000Y-104900000D03*
D64*
X155680000Y-114300000D03*
D63*
X140800000Y-116563000D03*
D64*
X127124000Y-64254000D03*
D63*
X167087500Y-89785000D03*
X165938378Y-101141541D03*
X165986000Y-67599500D03*
X146900000Y-97725000D03*
X147500000Y-67500000D03*
X154037500Y-136245000D03*
X161087500Y-114095000D03*
X138100000Y-116600000D03*
X137300000Y-120010000D03*
D64*
X175288000Y-95875000D03*
D63*
X176887000Y-92448000D03*
X172291250Y-109071250D03*
X152887500Y-134038000D03*
X165077500Y-110575000D03*
%TO.N,/VIN*%
X168100000Y-85300000D03*
X153957500Y-130555000D03*
X169837500Y-68435000D03*
X179717500Y-99450000D03*
D64*
%TO.N,/UI_SDA*%
X140462000Y-139565000D03*
X153610000Y-112624500D03*
X153327000Y-117631830D03*
%TO.N,/UI_SCL*%
X140462000Y-140114503D03*
X148538000Y-128700000D03*
X153765000Y-119130000D03*
%TO.N,/MCLK*%
X166098551Y-119450538D03*
X161029141Y-111844115D03*
X164831735Y-98611500D03*
X173352000Y-95242000D03*
X160363000Y-108824500D03*
X156249542Y-106456047D03*
X161480098Y-95329277D03*
%TO.N,/MGMT_NRST*%
X172787500Y-100500500D03*
X179722000Y-74414000D03*
X175197500Y-115265000D03*
X163717500Y-132165500D03*
X179722000Y-70891500D03*
X164247500Y-135035000D03*
X159382000Y-59174000D03*
X165224000Y-59174000D03*
X178473000Y-76500000D03*
%TO.N,/IN_3*%
X154994000Y-118923000D03*
X142087500Y-137595000D03*
X160357787Y-118100000D03*
X161612000Y-115115000D03*
%TO.N,/NET_RST*%
X166032500Y-95370000D03*
X161035000Y-73000000D03*
X150583839Y-70183839D03*
X152715713Y-70215713D03*
%TO.N,/UI_RST*%
X164282232Y-98611500D03*
X158800000Y-106400000D03*
%TO.N,/MIC_P*%
X140997500Y-137795000D03*
X154968365Y-117779800D03*
%TO.N,/LEDA_R*%
X174156692Y-97590822D03*
X148013000Y-65100000D03*
%TO.N,/DISP_BL*%
X150548204Y-97651087D03*
X177813367Y-80065838D03*
X153494000Y-106535401D03*
X166700000Y-80077145D03*
%TO.N,/DISP_RSTR*%
X181527500Y-83275000D03*
X181527500Y-88755000D03*
X177764713Y-81735287D03*
X166700000Y-81750497D03*
%TO.N,/LEDA_G*%
X174706194Y-97589729D03*
X149262000Y-65100000D03*
%TO.N,/LEDA_B*%
X150100000Y-65100000D03*
X175331261Y-97595369D03*
%TO.N,/KB_COL3*%
X149559500Y-121104643D03*
X138800000Y-126307000D03*
X152889000Y-119800000D03*
X159159925Y-108217153D03*
%TO.N,/KB_COL4*%
X159000000Y-107691437D03*
X152562000Y-119259001D03*
%TO.N,/DISP_DC*%
X166700000Y-80626644D03*
X177796668Y-80615087D03*
%TO.N,/DISP_CS*%
X150182077Y-97241326D03*
X180447500Y-87305000D03*
X177759286Y-79519004D03*
X180437109Y-82512104D03*
X151070993Y-101179806D03*
X166700000Y-79500000D03*
%TO.N,/DISP_SPI_SCK*%
X166700000Y-82300000D03*
X177734779Y-82479257D03*
%TO.N,/DISP_SPI_MOSI*%
X181562911Y-90264103D03*
X177813193Y-81164341D03*
X180997500Y-88327000D03*
X166700000Y-81200994D03*
%TO.N,/NET_TX0_MGMT*%
X166832002Y-127300500D03*
X178438038Y-83989536D03*
X164830634Y-95382208D03*
X178392500Y-75126500D03*
X178065000Y-86000000D03*
X167850000Y-66170000D03*
X164900000Y-71500000D03*
X162438000Y-72743625D03*
%TO.N,/KB_MIC*%
X149793497Y-96852792D03*
D63*
X134857500Y-130145000D03*
D64*
%TO.N,/NET_RX0_MGMT*%
X167100000Y-98611500D03*
X165832002Y-127300500D03*
X178473000Y-84574000D03*
X169858336Y-98862323D03*
X164281276Y-95394775D03*
X178432000Y-85465000D03*
X162438000Y-73293128D03*
X164900000Y-72800000D03*
X167704963Y-67564463D03*
X177954500Y-74040000D03*
%TO.N,/KB_ROW5*%
X139338367Y-129196376D03*
X151208392Y-104762595D03*
%TO.N,/KB_ROW1*%
X134338500Y-126410414D03*
X149580000Y-101568500D03*
%TO.N,/KB_ROW2*%
X134993235Y-125394183D03*
X150139063Y-102020937D03*
%TO.N,/KB_ROW3*%
X150310000Y-102760000D03*
X139338232Y-127338232D03*
%TO.N,/MIC_N*%
X154994000Y-118373592D03*
X141543070Y-137669494D03*
%TO.N,/KB_ROW4*%
X150750000Y-103240000D03*
X139357658Y-128557659D03*
%TO.N,/KB_ROW6*%
X151695000Y-113764883D03*
X138902308Y-130200000D03*
%TO.N,/KB_ROW7*%
X137217500Y-130825000D03*
X152022000Y-114280000D03*
%TO.N,/LEDB_R*%
X158478724Y-92977000D03*
X154771873Y-93625025D03*
X175513000Y-99975500D03*
X138013000Y-65100000D03*
%TO.N,/LEDB_G*%
X155319389Y-93665912D03*
X139262000Y-65200000D03*
%TO.N,Net-(D11-K)*%
X138579500Y-134479500D03*
X140400000Y-119300000D03*
X147190000Y-135870500D03*
X151508000Y-132072000D03*
%TO.N,/LEDB_B*%
X155825500Y-93879932D03*
X140100000Y-65200000D03*
%TO.N,/SPK_LN*%
X176762000Y-117195000D03*
X173237500Y-115105000D03*
%TO.N,/SPK_LP*%
X176762000Y-115175000D03*
X173247500Y-114395000D03*
%TO.N,/HP_R*%
X168533334Y-109146500D03*
X176762000Y-124375000D03*
%TO.N,/HP_L*%
X167947500Y-109255000D03*
X176762000Y-126375000D03*
%TO.N,/KB_COL5*%
X150764000Y-118369744D03*
X139357658Y-127938232D03*
%TO.N,/KB_COL2*%
X149879287Y-119841287D03*
X135889344Y-125117500D03*
D63*
%TO.N,Net-(J15-Pin_2)*%
X169487500Y-65725000D03*
X171817500Y-67835000D03*
D64*
%TO.N,/BTN_RST*%
X169951773Y-100318227D03*
X165381153Y-98619980D03*
X162038463Y-95369830D03*
X131442000Y-64254000D03*
%TO.N,/BTN_UI*%
X166490792Y-98611500D03*
X170220000Y-99295000D03*
X162000000Y-73750497D03*
X163731808Y-95388692D03*
%TO.N,/BTN_NET*%
X165930655Y-98620082D03*
X129410000Y-61968000D03*
X163182486Y-95402752D03*
X170987213Y-99442787D03*
X130426000Y-61968000D03*
X162000000Y-74300000D03*
%TO.N,/KB_COL1*%
X150110000Y-117200000D03*
X134491860Y-125668536D03*
%TO.N,/UI_BOOT*%
X152541919Y-109905499D03*
X150762000Y-95900000D03*
X157938000Y-90427000D03*
X162587906Y-95377906D03*
%TO.N,/UI_DBG1*%
X127168000Y-118800000D03*
X151912000Y-98210000D03*
%TO.N,/UI_LED_B*%
X151992417Y-109905988D03*
X145100000Y-65100000D03*
X153932000Y-106080000D03*
X154808861Y-105833361D03*
%TO.N,/NET_STAT*%
X174725500Y-92515962D03*
X158000000Y-86700000D03*
X162560000Y-91970000D03*
X174622000Y-95242000D03*
%TO.N,/UI_LED_G*%
X156100000Y-104050000D03*
X144262000Y-65200000D03*
%TO.N,/UI_TX1_MGMT*%
X153494000Y-107633929D03*
X154845500Y-107034396D03*
X152237350Y-107721367D03*
X177010000Y-102120000D03*
%TO.N,/UI_RX1_MGMT*%
X153478110Y-107084656D03*
X176780000Y-101550000D03*
X154845500Y-106415607D03*
X151687848Y-107721868D03*
%TO.N,/NET_BOOT*%
X167098500Y-84868934D03*
X165380000Y-95370000D03*
X163575787Y-85124213D03*
%TO.N,/UI_LED_R*%
X159892747Y-97923530D03*
X158800000Y-105800000D03*
X143013000Y-65120000D03*
X163732729Y-98611500D03*
%TO.N,/UI_DBG2*%
X151362621Y-98198360D03*
X127200000Y-120800000D03*
%TO.N,/UI_DBG3*%
X127200000Y-122800000D03*
X131490000Y-117412839D03*
%TO.N,/UI_DBG4*%
X127200000Y-124800000D03*
X131330000Y-117990000D03*
%TO.N,/MGMT_DBG7*%
X127200000Y-130800000D03*
X147374933Y-95904933D03*
X162534935Y-92518931D03*
X166929713Y-91959713D03*
X158884993Y-89515007D03*
X171757500Y-92765000D03*
%TO.N,/NET_DBG5*%
X158014569Y-89882858D03*
X162400000Y-83000000D03*
X127200000Y-126800000D03*
X148619352Y-95920983D03*
%TO.N,/NET_DBG6*%
X127200000Y-128800000D03*
X148004190Y-95922909D03*
X158925279Y-90174720D03*
X162400000Y-81700000D03*
%TO.N,/MGMT_SWDIO*%
X176275500Y-88595000D03*
X180057500Y-90415000D03*
X170807500Y-92787000D03*
X166237500Y-134405000D03*
%TO.N,/MGMT_SWCLK*%
X176275500Y-87685745D03*
X181055237Y-90474389D03*
X167267500Y-134405000D03*
X169700000Y-92230500D03*
%TO.N,/I2S_DACLRC*%
X155578859Y-109295000D03*
X167192939Y-119538388D03*
X155662000Y-104400500D03*
X152413000Y-100852306D03*
%TO.N,/UI_SWDIO*%
X172660573Y-131870000D03*
X149058787Y-108091787D03*
X173920000Y-131870000D03*
%TO.N,/UI_TX1_NET*%
X155385218Y-102054778D03*
X156140000Y-101570000D03*
%TO.N,/BOOT1*%
X154028212Y-95300000D03*
X150300000Y-95500000D03*
%TO.N,/UI_RX1_NET*%
X155509403Y-100944932D03*
X154128152Y-102390380D03*
%TO.N,/I2S_BCLK*%
X154959979Y-109295000D03*
X166647709Y-119469995D03*
%TO.N,/I2S_ADCDAT*%
X168527500Y-119515000D03*
X156120000Y-109490000D03*
%TO.N,/I2S_DACDAT*%
X167741086Y-119499818D03*
X156399308Y-110443192D03*
%TO.N,/USB_TX1_MGMT*%
X152817500Y-124635000D03*
X172336000Y-92702000D03*
X176908000Y-91686000D03*
X159527500Y-123417000D03*
%TO.N,/USB_RX1_MGMT*%
X178683000Y-93210000D03*
X154097500Y-124765000D03*
X172972781Y-92789278D03*
X157486000Y-123757000D03*
%TD*%
D66*
%TO.N,/MIC_P*%
X160400000Y-115437500D02*
X160792500Y-115830000D01*
X160400000Y-116837552D02*
X160400000Y-115437500D01*
X159457752Y-117779800D02*
X160400000Y-116837552D01*
X154968365Y-117779800D02*
X159457752Y-117779800D01*
%TO.N,/LEDA_R*%
X175871332Y-99375000D02*
X176700000Y-99375000D01*
X174156692Y-97660360D02*
X175871332Y-99375000D01*
X174156692Y-97590822D02*
X174156692Y-97660360D01*
%TO.N,/UI_STAT*%
X155745287Y-102892265D02*
X155745287Y-102805287D01*
X152797552Y-105840000D02*
X155745287Y-102892265D01*
X146983500Y-105860000D02*
X152037419Y-105860000D01*
X146813500Y-105690000D02*
X146983500Y-105860000D01*
X152057419Y-105840000D02*
X152797552Y-105840000D01*
X146020000Y-105690000D02*
X146813500Y-105690000D01*
X152037419Y-105860000D02*
X152057419Y-105840000D01*
%TO.N,/BATTERY_MON*%
X156480000Y-102690000D02*
X157370000Y-102690000D01*
X155265661Y-103834339D02*
X155335661Y-103834339D01*
X152712610Y-107864942D02*
X152712610Y-106387390D01*
X152712610Y-106387390D02*
X155265661Y-103834339D01*
X149610133Y-108159867D02*
X152417685Y-108159867D01*
X155335661Y-103834339D02*
X156480000Y-102690000D01*
X147450000Y-110320000D02*
X149610133Y-108159867D01*
X152417685Y-108159867D02*
X152712610Y-107864942D01*
X147450000Y-113900000D02*
X147450000Y-110320000D01*
%TO.N,/DISP_SPI_MOSI*%
X152445000Y-99011289D02*
X152445000Y-99765000D01*
X152480000Y-98976289D02*
X152445000Y-99011289D01*
X152480000Y-97673396D02*
X152480000Y-98976289D01*
X152382500Y-97575896D02*
X152480000Y-97673396D01*
X152382500Y-94470075D02*
X152382500Y-97575896D01*
X154745575Y-92107000D02*
X152382500Y-94470075D01*
X157730552Y-92107000D02*
X154745575Y-92107000D01*
X157991552Y-91846000D02*
X157730552Y-92107000D01*
X159429104Y-91846000D02*
X157991552Y-91846000D01*
X165170000Y-88673956D02*
X165170000Y-89546000D01*
X165832500Y-88011456D02*
X165170000Y-88673956D01*
X161729104Y-89546000D02*
X159429104Y-91846000D01*
X166629370Y-81200994D02*
X165832500Y-81997864D01*
X165170000Y-89546000D02*
X161729104Y-89546000D01*
X166700000Y-81200994D02*
X166629370Y-81200994D01*
X165832500Y-81997864D02*
X165832500Y-88011456D01*
%TO.N,/DISP_DC*%
X150980000Y-99730000D02*
X150945000Y-99765000D01*
X150980000Y-98435872D02*
X150980000Y-99730000D01*
X150924121Y-98379993D02*
X150980000Y-98435872D01*
X150924121Y-97875879D02*
X150924121Y-98379993D01*
X152019000Y-94371127D02*
X152019000Y-96781000D01*
X154610127Y-91780000D02*
X152019000Y-94371127D01*
X157595104Y-91780000D02*
X154610127Y-91780000D01*
X152019000Y-96781000D02*
X150924121Y-97875879D01*
X157856104Y-91519000D02*
X157595104Y-91780000D01*
X159293656Y-91519000D02*
X157856104Y-91519000D01*
X164843000Y-89219000D02*
X161593656Y-89219000D01*
X166654217Y-80626644D02*
X165505500Y-81775361D01*
X165505500Y-81775361D02*
X165505500Y-87876008D01*
X165505500Y-87876008D02*
X164843000Y-88538508D01*
X164843000Y-88538508D02*
X164843000Y-89219000D01*
X166700000Y-80626644D02*
X166654217Y-80626644D01*
X161593656Y-89219000D02*
X159293656Y-91519000D01*
%TO.N,/DISP_BL*%
X166629366Y-80077145D02*
X166700000Y-80077145D01*
X165178500Y-87740560D02*
X165178500Y-81528011D01*
X165178500Y-81528011D02*
X166629366Y-80077145D01*
X164516000Y-88403060D02*
X165178500Y-87740560D01*
X164516000Y-88892000D02*
X164516000Y-88403060D01*
X161458208Y-88892000D02*
X164516000Y-88892000D01*
X157459656Y-91453000D02*
X157720656Y-91192000D01*
X159158208Y-91192000D02*
X161458208Y-88892000D01*
X151692000Y-94235679D02*
X154474679Y-91453000D01*
X151692000Y-96645552D02*
X151692000Y-94235679D01*
X157720656Y-91192000D02*
X159158208Y-91192000D01*
X150686465Y-97651087D02*
X151692000Y-96645552D01*
X154474679Y-91453000D02*
X157459656Y-91453000D01*
X150548204Y-97651087D02*
X150686465Y-97651087D01*
%TO.N,/DISP_CS*%
X166600000Y-79500000D02*
X166700000Y-79500000D01*
X164851500Y-81248500D02*
X166600000Y-79500000D01*
X164851500Y-87605112D02*
X164851500Y-81248500D01*
X163891612Y-88565000D02*
X164851500Y-87605112D01*
X161322760Y-88565000D02*
X163891612Y-88565000D01*
X159022760Y-90865000D02*
X161322760Y-88565000D01*
X157585208Y-90865000D02*
X159022760Y-90865000D01*
X154339231Y-91126000D02*
X157324208Y-91126000D01*
X157324208Y-91126000D02*
X157585208Y-90865000D01*
X151200000Y-94265231D02*
X154339231Y-91126000D01*
X150662517Y-97212587D02*
X151200000Y-96675104D01*
X150210816Y-97212587D02*
X150662517Y-97212587D01*
X151200000Y-96675104D02*
X151200000Y-94265231D01*
X150182077Y-97241326D02*
X150210816Y-97212587D01*
%TO.N,/BATTERY_MON*%
X140838500Y-118914698D02*
X140838500Y-118358500D01*
X143700000Y-119700000D02*
X141623802Y-119700000D01*
X145576989Y-117823011D02*
X143700000Y-119700000D01*
X145576989Y-115785459D02*
X145576989Y-117823011D01*
X140838500Y-118358500D02*
X140060000Y-117580000D01*
X147450000Y-113912448D02*
X145576989Y-115785459D01*
X141623802Y-119700000D02*
X140838500Y-118914698D01*
D67*
%TO.N,+BATT*%
X144500000Y-120700000D02*
X144500000Y-123300000D01*
X136870000Y-117770000D02*
X136200000Y-117100000D01*
X138100000Y-117770000D02*
X136870000Y-117770000D01*
X138820000Y-117770000D02*
X138100000Y-117770000D01*
X138100000Y-117770000D02*
X137010000Y-117770000D01*
D66*
%TO.N,Net-(U1-PA12)*%
X139130000Y-135861000D02*
X139039500Y-135951500D01*
X139130000Y-135840500D02*
X139130000Y-135861000D01*
X136330552Y-135840500D02*
X139130000Y-135840500D01*
X133170500Y-132680448D02*
X136330552Y-135840500D01*
X133170500Y-129367052D02*
X133170500Y-132680448D01*
X133468500Y-129069052D02*
X133170500Y-129367052D01*
X133468500Y-127085443D02*
X133468500Y-129069052D01*
X133736500Y-117943500D02*
X133736500Y-123686500D01*
X136221541Y-115458459D02*
X133736500Y-117943500D01*
X133246000Y-126862943D02*
X133468500Y-127085443D01*
X145441541Y-115458459D02*
X136221541Y-115458459D01*
X133246000Y-124177000D02*
X133246000Y-126862943D01*
X146220287Y-114679713D02*
X145441541Y-115458459D01*
X133736500Y-123686500D02*
X133246000Y-124177000D01*
X146220287Y-113595000D02*
X146220287Y-114679713D01*
D67*
%TO.N,GND*%
X146500000Y-123300000D02*
X146500000Y-120800000D01*
D66*
%TO.N,/KB_COL1*%
X150110000Y-119190000D02*
X150110000Y-117200000D01*
X149900000Y-119400000D02*
X150110000Y-119190000D01*
X149400000Y-120300000D02*
X149400000Y-119700441D01*
X149400000Y-119700441D02*
X149700441Y-119400000D01*
X150040000Y-120300000D02*
X149400000Y-120300000D01*
X154445000Y-115895000D02*
X150040000Y-120300000D01*
X154445000Y-111115000D02*
X154445000Y-115895000D01*
X149700441Y-119400000D02*
X149900000Y-119400000D01*
%TO.N,/KB_COL2*%
X149879287Y-119841287D02*
X150036265Y-119841287D01*
X154118000Y-115759552D02*
X154118000Y-112078500D01*
X154118000Y-112078500D02*
X153945000Y-111905500D01*
X150036265Y-119841287D02*
X154118000Y-115759552D01*
X153945000Y-111905500D02*
X153945000Y-111115000D01*
%TO.N,/KB_COL4*%
X138387500Y-127035000D02*
X138107500Y-127035000D01*
X138522500Y-126900000D02*
X138387500Y-127035000D01*
X145080652Y-126900000D02*
X138522500Y-126900000D01*
X145107652Y-126873000D02*
X145080652Y-126900000D01*
X147327000Y-126873000D02*
X145107652Y-126873000D01*
X149121500Y-125078500D02*
X147327000Y-126873000D01*
X149121500Y-120922510D02*
X149121500Y-125078500D01*
X150217275Y-120673000D02*
X149747990Y-120673000D01*
X149377867Y-120666143D02*
X149121500Y-120922510D01*
X152428001Y-119393000D02*
X151497275Y-119393000D01*
X149741133Y-120666143D02*
X149377867Y-120666143D01*
X152562000Y-119259001D02*
X152428001Y-119393000D01*
X151497275Y-119393000D02*
X150217275Y-120673000D01*
X149747990Y-120673000D02*
X149741133Y-120666143D01*
%TO.N,/KB_COL3*%
X152297057Y-119720000D02*
X152377057Y-119800000D01*
X151632723Y-119720000D02*
X152297057Y-119720000D01*
X150352723Y-121000000D02*
X151632723Y-119720000D01*
X149664143Y-121000000D02*
X150352723Y-121000000D01*
X152377057Y-119800000D02*
X152889000Y-119800000D01*
X149559500Y-121104643D02*
X149664143Y-121000000D01*
%TO.N,/UI_SWDIO*%
X148227000Y-125510552D02*
X148218776Y-125518776D01*
X147327000Y-120064552D02*
X148227000Y-120964552D01*
X147327000Y-115673000D02*
X147327000Y-120064552D01*
X149052869Y-115108394D02*
X147891606Y-115108394D01*
X148218776Y-125518776D02*
X147191552Y-126546000D01*
X148227000Y-120964552D02*
X148227000Y-125510552D01*
X147891606Y-115108394D02*
X147327000Y-115673000D01*
%TO.N,Net-(D11-K)*%
X140220000Y-119300000D02*
X140010000Y-119510000D01*
X140010000Y-119510000D02*
X139800000Y-119510000D01*
X140400000Y-119300000D02*
X140220000Y-119300000D01*
%TO.N,/KB_COL5*%
X151945000Y-112207448D02*
X151945000Y-111115000D01*
X152460000Y-112722448D02*
X151945000Y-112207448D01*
X152460000Y-116955104D02*
X152460000Y-112722448D01*
X151045360Y-118369744D02*
X152460000Y-116955104D01*
X150764000Y-118369744D02*
X151045360Y-118369744D01*
%TO.N,/UI_SDA*%
X169688252Y-117575000D02*
X169315000Y-117575000D01*
X170937500Y-118824248D02*
X169688252Y-117575000D01*
X170937500Y-120124948D02*
X170937500Y-118824248D01*
X170017448Y-121045000D02*
X170937500Y-120124948D01*
X162139948Y-121045000D02*
X170017448Y-121045000D01*
X160782948Y-119688000D02*
X162139948Y-121045000D01*
X153702867Y-119688000D02*
X160782948Y-119688000D01*
X153327000Y-119312133D02*
X153702867Y-119688000D01*
X153327000Y-117631830D02*
X153327000Y-119312133D01*
%TO.N,/UI_SWDCLK*%
X147000000Y-120200000D02*
X147000000Y-114862448D01*
X147900000Y-121100000D02*
X147000000Y-120200000D01*
X147900000Y-125375104D02*
X147900000Y-121100000D01*
X147945000Y-113917448D02*
X147945000Y-111115000D01*
X147056104Y-126219000D02*
X147900000Y-125375104D01*
X144836756Y-126219000D02*
X147056104Y-126219000D01*
X144809756Y-126246000D02*
X144836756Y-126219000D01*
X140208448Y-126246000D02*
X144809756Y-126246000D01*
X147000000Y-114862448D02*
X147945000Y-113917448D01*
X138969948Y-125007500D02*
X140208448Y-126246000D01*
X136206425Y-124352000D02*
X136861925Y-125007500D01*
X134725815Y-124352000D02*
X136206425Y-124352000D01*
X133573000Y-125504815D02*
X134725815Y-124352000D01*
X133573000Y-126727495D02*
X133573000Y-125504815D01*
X133795500Y-129204500D02*
X133795500Y-126949995D01*
X133497500Y-129502500D02*
X133795500Y-129204500D01*
X136466000Y-135513500D02*
X133497500Y-132545000D01*
X133795500Y-126949995D02*
X133573000Y-126727495D01*
X140633692Y-135513500D02*
X136466000Y-135513500D01*
X144577000Y-139456808D02*
X140633692Y-135513500D01*
X144577000Y-140843448D02*
X144577000Y-139456808D01*
X145530552Y-141797000D02*
X144577000Y-140843448D01*
X154945448Y-141797000D02*
X145530552Y-141797000D01*
X155716500Y-141025948D02*
X154945448Y-141797000D01*
X155716500Y-135671656D02*
X155716500Y-141025948D01*
X172484500Y-132985500D02*
X160911543Y-132985500D01*
X160856543Y-132930500D02*
X158457656Y-132930500D01*
X133497500Y-132545000D02*
X133497500Y-129502500D01*
X158457656Y-132930500D02*
X155716500Y-135671656D01*
X173100000Y-132370000D02*
X172484500Y-132985500D01*
X173100000Y-130590000D02*
X173100000Y-132370000D01*
X172940000Y-130430000D02*
X173100000Y-130590000D01*
X160911543Y-132985500D02*
X160856543Y-132930500D01*
X136861925Y-125007500D02*
X138969948Y-125007500D01*
D67*
%TO.N,GND*%
X139890000Y-120700000D02*
X139800000Y-120790000D01*
X140600000Y-120700000D02*
X139890000Y-120700000D01*
X140797000Y-116560000D02*
X140060000Y-116560000D01*
X140800000Y-116563000D02*
X140797000Y-116560000D01*
D66*
%TO.N,/UI_SDA*%
X145906118Y-131605000D02*
X145905559Y-131605559D01*
X147194000Y-131605000D02*
X145906118Y-131605000D01*
%TO.N,/UI_SCL*%
X147638500Y-130335000D02*
X147194000Y-130335000D01*
X148538000Y-129435500D02*
X147638500Y-130335000D01*
X148538000Y-128700000D02*
X148538000Y-129435500D01*
%TO.N,/UI_SWDIO*%
X161046991Y-132658500D02*
X172331500Y-132658500D01*
X160991991Y-132603500D02*
X161046991Y-132658500D01*
X158322208Y-132603500D02*
X160991991Y-132603500D01*
X172331500Y-132658500D02*
X172677500Y-132312500D01*
X155389500Y-135536208D02*
X158322208Y-132603500D01*
X154810000Y-141470000D02*
X155389500Y-140890500D01*
X144904000Y-140708000D02*
X145666000Y-141470000D01*
X144904000Y-139321360D02*
X144904000Y-140708000D01*
X140769140Y-135186500D02*
X144904000Y-139321360D01*
X136601448Y-135186500D02*
X140769140Y-135186500D01*
X172677500Y-131886927D02*
X172660573Y-131870000D01*
X133824500Y-132409552D02*
X136601448Y-135186500D01*
X145666000Y-141470000D02*
X154810000Y-141470000D01*
X133824500Y-129975500D02*
X133824500Y-132409552D01*
X134122500Y-129677500D02*
X133824500Y-129975500D01*
X155389500Y-140890500D02*
X155389500Y-135536208D01*
X134122500Y-126814547D02*
X134122500Y-129677500D01*
X133900000Y-126592047D02*
X134122500Y-126814547D01*
X133900000Y-125640263D02*
X133900000Y-126592047D01*
X134861263Y-124679000D02*
X133900000Y-125640263D01*
X136070977Y-124679000D02*
X134861263Y-124679000D01*
X136726477Y-125334500D02*
X136070977Y-124679000D01*
X138834500Y-125334500D02*
X136726477Y-125334500D01*
X140073000Y-126573000D02*
X138834500Y-125334500D01*
X144945204Y-126573000D02*
X140073000Y-126573000D01*
X172677500Y-132312500D02*
X172677500Y-131886927D01*
X147191552Y-126546000D02*
X144972204Y-126546000D01*
X144972204Y-126546000D02*
X144945204Y-126573000D01*
%TO.N,GND*%
X147920000Y-127200000D02*
X148420000Y-126700000D01*
X145243100Y-127200000D02*
X147920000Y-127200000D01*
X144643100Y-127800000D02*
X145243100Y-127200000D01*
X141611000Y-127800000D02*
X144643100Y-127800000D01*
X141606000Y-127795000D02*
X141611000Y-127800000D01*
%TO.N,+3.3V*%
X147194000Y-127795000D02*
X148285000Y-127795000D01*
X148285000Y-127795000D02*
X149380000Y-126700000D01*
D67*
X149537500Y-127800000D02*
X150437500Y-126900000D01*
X147199000Y-127800000D02*
X149537500Y-127800000D01*
X147194000Y-127795000D02*
X147199000Y-127800000D01*
%TO.N,GND*%
X141500000Y-132700000D02*
X141500000Y-127901000D01*
X141500000Y-127901000D02*
X141606000Y-127795000D01*
D66*
%TO.N,/UI_DBG4*%
X131532972Y-117990000D02*
X131330000Y-117990000D01*
X145306093Y-115131459D02*
X134391513Y-115131459D01*
X134391513Y-115131459D02*
X131532972Y-117990000D01*
X145643910Y-114793642D02*
X145306093Y-115131459D01*
X145643910Y-113633664D02*
X145643910Y-114793642D01*
%TO.N,/UI_DBG3*%
X134098380Y-114804459D02*
X131490000Y-117412839D01*
X145095541Y-114804459D02*
X134098380Y-114804459D01*
X145095541Y-113668944D02*
X145095541Y-114804459D01*
%TO.N,/UI_RX1_NET*%
X144970000Y-79170000D02*
X146075000Y-79170000D01*
X144970000Y-84872000D02*
X144970000Y-79170000D01*
X146773000Y-86675000D02*
X144970000Y-84872000D01*
X146773000Y-95280142D02*
X146773000Y-86675000D01*
X145173000Y-96880142D02*
X146773000Y-95280142D01*
X145029500Y-98681142D02*
X145173000Y-98537642D01*
X146726485Y-101130500D02*
X145029500Y-99433515D01*
X149868052Y-101130500D02*
X146726485Y-101130500D01*
X145173000Y-98537642D02*
X145173000Y-96880142D01*
X150682358Y-101944806D02*
X149868052Y-101130500D01*
X153682578Y-101944806D02*
X150682358Y-101944806D01*
X154128152Y-102390380D02*
X153682578Y-101944806D01*
X145029500Y-99433515D02*
X145029500Y-98681142D01*
%TO.N,/UI_TX1_NET*%
X147088500Y-80440000D02*
X146075000Y-80440000D01*
X147100000Y-80451500D02*
X147088500Y-80440000D01*
X147100000Y-95486302D02*
X147100000Y-80451500D01*
X145500000Y-97086302D02*
X147100000Y-95486302D01*
X145356500Y-99298067D02*
X145356500Y-98816590D01*
X145356500Y-98816590D02*
X145500000Y-98673090D01*
X145500000Y-98673090D02*
X145500000Y-97086302D01*
X150003500Y-100803500D02*
X146861933Y-100803500D01*
X150817806Y-101617806D02*
X150003500Y-100803500D01*
X146861933Y-100803500D02*
X145356500Y-99298067D01*
X154948246Y-101617806D02*
X150817806Y-101617806D01*
X155385218Y-102054778D02*
X154948246Y-101617806D01*
D67*
%TO.N,Net-(D10-K)*%
X173512500Y-65250000D02*
X172537500Y-64275000D01*
X173910000Y-65250000D02*
X173512500Y-65250000D01*
X132650000Y-139260000D02*
X132660000Y-139270000D01*
X132650000Y-121300000D02*
X132650000Y-139260000D01*
X132650000Y-119100000D02*
X132650000Y-121300000D01*
%TO.N,GND*%
X147474500Y-67525500D02*
X145987500Y-67525500D01*
D66*
%TO.N,/UI_SCL*%
X137874000Y-142281500D02*
X138817500Y-141338000D01*
X136284000Y-142281500D02*
X137874000Y-142281500D01*
X140350997Y-140003500D02*
X140462000Y-140114503D01*
X135657500Y-141655000D02*
X136284000Y-142281500D01*
X138817500Y-141338000D02*
X138817500Y-140003500D01*
X138817500Y-140003500D02*
X140350997Y-140003500D01*
X135657500Y-138675000D02*
X135657500Y-141655000D01*
X135627500Y-138645000D02*
X135657500Y-138675000D01*
D67*
%TO.N,+3.3V*%
X145768287Y-110798287D02*
X145910000Y-110940000D01*
X145768287Y-110070000D02*
X145768287Y-110798287D01*
D68*
X146020000Y-109818287D02*
X146020000Y-109190000D01*
X145768287Y-110070000D02*
X146020000Y-109818287D01*
D67*
%TO.N,GND*%
X145270000Y-111900000D02*
X145910000Y-111900000D01*
X145170000Y-112000000D02*
X145270000Y-111900000D01*
X145170000Y-112000000D02*
X145170000Y-112240000D01*
X145170000Y-112240000D02*
X145800000Y-112870000D01*
D68*
%TO.N,Net-(U1-VCAP_2)*%
X147095000Y-108959670D02*
X146825330Y-108690000D01*
X146825330Y-108690000D02*
X146020000Y-108690000D01*
X147095000Y-110160933D02*
X147095000Y-108959670D01*
X147080000Y-112550000D02*
X147080000Y-110175933D01*
X147080000Y-110175933D02*
X147095000Y-110160933D01*
X146760000Y-112870000D02*
X147080000Y-112550000D01*
D66*
%TO.N,/UI_DBG4*%
X145092974Y-104227044D02*
X145982956Y-104227044D01*
%TO.N,/UI_DBG3*%
X146010000Y-103680000D02*
X146020000Y-103690000D01*
X145140000Y-103680000D02*
X146010000Y-103680000D01*
%TO.N,Net-(U1-PA12)*%
X145990000Y-107720000D02*
X146020000Y-107690000D01*
X145040000Y-107720000D02*
X145990000Y-107720000D01*
%TO.N,/UI_SWDIO*%
X148960574Y-108190000D02*
X146020000Y-108190000D01*
X149058787Y-108091787D02*
X148960574Y-108190000D01*
%TO.N,/KB_ROW1*%
X146141500Y-101568500D02*
X146020000Y-101690000D01*
X149580000Y-101568500D02*
X146141500Y-101568500D01*
%TO.N,/KB_ROW2*%
X147773500Y-102321500D02*
X147642000Y-102190000D01*
X150139063Y-102020937D02*
X149838500Y-102321500D01*
X147642000Y-102190000D02*
X146020000Y-102190000D01*
X149838500Y-102321500D02*
X147773500Y-102321500D01*
%TO.N,/KB_ROW3*%
X146090000Y-102760000D02*
X146020000Y-102690000D01*
X150310000Y-102760000D02*
X146090000Y-102760000D01*
%TO.N,/KB_ROW4*%
X146070000Y-103240000D02*
X146020000Y-103190000D01*
X150750000Y-103240000D02*
X146070000Y-103240000D01*
%TO.N,/KB_ROW5*%
X151208392Y-104762595D02*
X146092595Y-104762595D01*
%TO.N,/UI_RX1_MGMT*%
X150655980Y-106690000D02*
X146020000Y-106690000D01*
X151687848Y-107721868D02*
X150655980Y-106690000D01*
%TO.N,/UI_TX1_MGMT*%
X152237350Y-107127350D02*
X151300000Y-106190000D01*
X152237350Y-107721367D02*
X152237350Y-107127350D01*
X151300000Y-106190000D02*
X146020000Y-106190000D01*
%TO.N,/DISP_BL*%
X153039610Y-106903023D02*
X153039610Y-108000390D01*
X153039610Y-108000390D02*
X152553133Y-108486867D01*
X152553133Y-108486867D02*
X150319422Y-108486867D01*
X150319422Y-108486867D02*
X148531500Y-110274789D01*
X153407232Y-106535401D02*
X153039610Y-106903023D01*
X148531500Y-110274789D02*
X148531500Y-111028500D01*
X153494000Y-106535401D02*
X153407232Y-106535401D01*
%TO.N,/UI_RX1_MGMT*%
X154176451Y-107084656D02*
X154845500Y-106415607D01*
X153478110Y-107084656D02*
X154176451Y-107084656D01*
%TO.N,/UI_TX1_MGMT*%
X154245967Y-107633929D02*
X154845500Y-107034396D01*
X153494000Y-107633929D02*
X154245967Y-107633929D01*
%TO.N,/UI_LED_B*%
X154562222Y-106080000D02*
X154808861Y-105833361D01*
X153932000Y-106080000D02*
X154562222Y-106080000D01*
%TO.N,/DISP_CS*%
X156139867Y-102190000D02*
X157370000Y-102190000D01*
X151181993Y-101290806D02*
X155240673Y-101290806D01*
X151070993Y-101179806D02*
X151181993Y-101290806D01*
X155240673Y-101290806D02*
X156139867Y-102190000D01*
%TO.N,Net-(U1-PA12)*%
X138275000Y-132905000D02*
X138280000Y-132910000D01*
X137627500Y-132905000D02*
X138275000Y-132905000D01*
%TO.N,/I2S_BCLK*%
X148945000Y-110361289D02*
X148945000Y-111115000D01*
X150492422Y-108813867D02*
X148945000Y-110361289D01*
X154478846Y-108813867D02*
X150492422Y-108813867D01*
X154959979Y-109295000D02*
X154478846Y-108813867D01*
%TO.N,/I2S_ADCDAT*%
X149445000Y-110361289D02*
X149445000Y-111115000D01*
X154185713Y-109140867D02*
X150665422Y-109140867D01*
X154778346Y-109733500D02*
X154185713Y-109140867D01*
X150665422Y-109140867D02*
X149445000Y-110361289D01*
X156120000Y-109490000D02*
X155876500Y-109733500D01*
X155876500Y-109733500D02*
X154778346Y-109733500D01*
%TO.N,/I2S_DACDAT*%
X149960000Y-111100000D02*
X149945000Y-111115000D01*
X149960000Y-110340000D02*
X149960000Y-111100000D01*
X150832133Y-109467867D02*
X149960000Y-110340000D01*
X156011948Y-110060500D02*
X154642898Y-110060500D01*
X154050265Y-109467867D02*
X150832133Y-109467867D01*
X156014282Y-110058166D02*
X156011948Y-110060500D01*
X154642898Y-110060500D02*
X154050265Y-109467867D01*
X156399308Y-110443192D02*
X156014282Y-110058166D01*
%TO.N,/KB_ROW6*%
X150945000Y-111868710D02*
X150945000Y-111115000D01*
X150970000Y-112310000D02*
X150970000Y-111843710D01*
X151695000Y-113035000D02*
X150970000Y-112310000D01*
X150970000Y-111843710D02*
X150945000Y-111868710D01*
X151695000Y-113764883D02*
X151695000Y-113035000D01*
%TO.N,/KB_ROW7*%
X152133000Y-112857896D02*
X151445000Y-112169896D01*
X152133000Y-114169000D02*
X152133000Y-112857896D01*
X151445000Y-112169896D02*
X151445000Y-111115000D01*
X152022000Y-114280000D02*
X152133000Y-114169000D01*
%TO.N,/UI_LED_B*%
X150900301Y-109905988D02*
X151992417Y-109905988D01*
X150445000Y-111115000D02*
X150445000Y-110361289D01*
X150445000Y-110361289D02*
X150900301Y-109905988D01*
%TO.N,/UI_BOOT*%
X152989210Y-109905499D02*
X153445000Y-110361289D01*
X153445000Y-110361289D02*
X153445000Y-111115000D01*
X152541919Y-109905499D02*
X152989210Y-109905499D01*
%TO.N,/UI_SCL*%
X152445000Y-112245000D02*
X152445000Y-111115000D01*
X153679500Y-113180000D02*
X153380000Y-113180000D01*
X153380000Y-113180000D02*
X152445000Y-112245000D01*
%TO.N,/UI_SDA*%
X152945000Y-111959500D02*
X152945000Y-111115000D01*
X153610000Y-112624500D02*
X152945000Y-111959500D01*
D67*
%TO.N,GND*%
X155680000Y-113580000D02*
X155680000Y-114300000D01*
X155730000Y-113530000D02*
X155680000Y-113580000D01*
D68*
X155730000Y-112705330D02*
X155730000Y-113530000D01*
X154945000Y-111920330D02*
X155730000Y-112705330D01*
X154945000Y-111115000D02*
X154945000Y-111920330D01*
%TO.N,+3.3V*%
X155445000Y-111505000D02*
X156610000Y-112670000D01*
X155445000Y-111115000D02*
X155445000Y-111505000D01*
D67*
X156690000Y-112750000D02*
X156610000Y-112670000D01*
X156690000Y-113530000D02*
X156690000Y-112750000D01*
D66*
%TO.N,/I2S_DACLRC*%
X155670000Y-109203859D02*
X155578859Y-109295000D01*
X155670000Y-104408500D02*
X155670000Y-109203859D01*
X155662000Y-104400500D02*
X155670000Y-104408500D01*
%TO.N,/UI_LED_G*%
X156100000Y-105173711D02*
X156616289Y-105690000D01*
X156100000Y-104050000D02*
X156100000Y-105173711D01*
X156616289Y-105690000D02*
X157370000Y-105690000D01*
%TO.N,/KB_COL3*%
X157397153Y-108217153D02*
X159159925Y-108217153D01*
X157370000Y-108190000D02*
X157397153Y-108217153D01*
%TO.N,/KB_COL4*%
X157371437Y-107691437D02*
X159000000Y-107691437D01*
X157370000Y-107690000D02*
X157371437Y-107691437D01*
D68*
%TO.N,GND*%
X159235000Y-103690000D02*
X159500000Y-103955000D01*
X157370000Y-103690000D02*
X159235000Y-103690000D01*
%TO.N,+3.3VA*%
X159305000Y-103190000D02*
X159500000Y-102995000D01*
X157370000Y-103190000D02*
X159305000Y-103190000D01*
D67*
%TO.N,+3.3V*%
X146400000Y-99530000D02*
X145920000Y-99050000D01*
X146770000Y-99530000D02*
X146400000Y-99530000D01*
D68*
X147005000Y-99765000D02*
X146770000Y-99530000D01*
X147945000Y-99765000D02*
X147005000Y-99765000D01*
%TO.N,Net-(U1-VCAP_1)*%
X148445000Y-98465000D02*
X148080000Y-98100000D01*
X148445000Y-99765000D02*
X148445000Y-98465000D01*
D67*
%TO.N,GND*%
X147485000Y-97140000D02*
X148080000Y-97140000D01*
X146900000Y-97725000D02*
X147485000Y-97140000D01*
X146900000Y-98440000D02*
X146770000Y-98570000D01*
X146900000Y-97725000D02*
X146900000Y-98440000D01*
D66*
%TO.N,/BOOT1*%
X149930000Y-99750000D02*
X149945000Y-99765000D01*
X149930000Y-98850000D02*
X149930000Y-99750000D01*
X149354997Y-98274997D02*
X149930000Y-98850000D01*
X149354997Y-96445003D02*
X149354997Y-98274997D01*
X150300000Y-95500000D02*
X149354997Y-96445003D01*
%TO.N,/KB_MIC*%
X150445000Y-98168016D02*
X150445000Y-99765000D01*
X149720000Y-96926289D02*
X149720000Y-97443016D01*
X149793497Y-96852792D02*
X149720000Y-96926289D01*
X149720000Y-97443016D02*
X150445000Y-98168016D01*
%TO.N,/UI_DBG2*%
X151445000Y-99011289D02*
X151445000Y-99765000D01*
X151362621Y-98198360D02*
X151362621Y-98928910D01*
X151362621Y-98928910D02*
X151445000Y-99011289D01*
%TO.N,/UI_DBG1*%
X151945000Y-98243000D02*
X151945000Y-99765000D01*
X151912000Y-98210000D02*
X151945000Y-98243000D01*
%TO.N,/DISP_RSTR*%
X152945000Y-97675948D02*
X152945000Y-99765000D01*
X152709500Y-97440448D02*
X152945000Y-97675948D01*
X152709500Y-94605523D02*
X152709500Y-97440448D01*
X154881023Y-92434000D02*
X152709500Y-94605523D01*
X157866000Y-92434000D02*
X154881023Y-92434000D01*
X158127000Y-92173000D02*
X157866000Y-92434000D01*
X165497000Y-89873000D02*
X161864552Y-89873000D01*
X165497000Y-88809404D02*
X165497000Y-89873000D01*
X159564552Y-92173000D02*
X158127000Y-92173000D01*
X166159500Y-88146904D02*
X165497000Y-88809404D01*
X166159500Y-82220368D02*
X166159500Y-88146904D01*
X166629371Y-81750497D02*
X166159500Y-82220368D01*
X161864552Y-89873000D02*
X159564552Y-92173000D01*
X166700000Y-81750497D02*
X166629371Y-81750497D01*
%TO.N,/I2S_DACLRC*%
X153945000Y-100518711D02*
X153945000Y-99765000D01*
X153611405Y-100852306D02*
X153945000Y-100518711D01*
X152413000Y-100852306D02*
X153611405Y-100852306D01*
%TO.N,/DISP_SPI_SCK*%
X153450000Y-99760000D02*
X153445000Y-99765000D01*
X153036500Y-97305000D02*
X153450000Y-97718500D01*
X155016471Y-92761000D02*
X153036500Y-94740971D01*
X158001448Y-92761000D02*
X155016471Y-92761000D01*
X153036500Y-94740971D02*
X153036500Y-97305000D01*
X158262448Y-92500000D02*
X158001448Y-92761000D01*
X165824000Y-88944852D02*
X165824000Y-90200000D01*
X165824000Y-90200000D02*
X162000000Y-90200000D01*
X162000000Y-90200000D02*
X159700000Y-92500000D01*
X153450000Y-97718500D02*
X153450000Y-99760000D01*
X166486500Y-88282352D02*
X165824000Y-88944852D01*
X159700000Y-92500000D02*
X158262448Y-92500000D01*
X166486500Y-82513500D02*
X166486500Y-88282352D01*
X166700000Y-82300000D02*
X166486500Y-82513500D01*
D68*
%TO.N,+3.3V*%
X154400000Y-99720000D02*
X154445000Y-99765000D01*
X154400000Y-98155000D02*
X154400000Y-99720000D01*
X153600000Y-97355000D02*
X154400000Y-98155000D01*
X153600000Y-96900000D02*
X153600000Y-97355000D01*
%TO.N,GND*%
X154945000Y-97001204D02*
X154871898Y-96928102D01*
X154945000Y-99765000D02*
X154945000Y-97001204D01*
D66*
%TO.N,/UI_RX1_NET*%
X155445000Y-100880529D02*
X155509403Y-100944932D01*
X155445000Y-99765000D02*
X155445000Y-100880529D01*
%TO.N,/UI_TX1_NET*%
X156140000Y-101570000D02*
X157250000Y-101570000D01*
X157250000Y-101570000D02*
X157370000Y-101690000D01*
%TO.N,/MCLK*%
X156616289Y-107190000D02*
X157370000Y-107190000D01*
X156249542Y-106823253D02*
X156616289Y-107190000D01*
X156249542Y-106456047D02*
X156249542Y-106823253D01*
%TO.N,/UI_LED_R*%
X158290000Y-105190000D02*
X157370000Y-105190000D01*
X158800000Y-105700000D02*
X158290000Y-105190000D01*
X158800000Y-105800000D02*
X158800000Y-105700000D01*
%TO.N,/UI_RST*%
X158333711Y-106400000D02*
X158123711Y-106190000D01*
X158800000Y-106400000D02*
X158333711Y-106400000D01*
X158123711Y-106190000D02*
X157370000Y-106190000D01*
%TO.N,/MGMT_DBG7*%
X153797439Y-89818000D02*
X156782416Y-89818000D01*
X157527416Y-89073000D02*
X158442986Y-89073000D01*
X148600000Y-95015439D02*
X153797439Y-89818000D01*
X156782416Y-89818000D02*
X157527416Y-89073000D01*
X158442986Y-89073000D02*
X158884993Y-89515007D01*
X148264427Y-95015439D02*
X148600000Y-95015439D01*
X147374933Y-95904933D02*
X148264427Y-95015439D01*
%TO.N,/NET_DBG6*%
X158194917Y-89444358D02*
X157618506Y-89444358D01*
X158925279Y-90174720D02*
X158194917Y-89444358D01*
X157618506Y-89444358D02*
X157131432Y-89931432D01*
X153932887Y-90145000D02*
X149788943Y-94288943D01*
X157131432Y-89931432D02*
X156917864Y-90145000D01*
X156917864Y-90145000D02*
X153932887Y-90145000D01*
%TO.N,/NET_DBG5*%
X157642454Y-89882858D02*
X158014569Y-89882858D01*
X157053312Y-90472000D02*
X157642454Y-89882858D01*
X154068335Y-90472000D02*
X157053312Y-90472000D01*
X148619352Y-95920983D02*
X154068335Y-90472000D01*
%TO.N,/BTN_RST*%
X162910269Y-96519000D02*
X162038463Y-95647194D01*
X163681656Y-96519000D02*
X162910269Y-96519000D01*
X162038463Y-95647194D02*
X162038463Y-95369830D01*
X165381153Y-98218497D02*
X163681656Y-96519000D01*
X165381153Y-98619980D02*
X165381153Y-98218497D01*
%TO.N,/MCLK*%
X161480098Y-95551277D02*
X161480098Y-95329277D01*
X162774821Y-96846000D02*
X161480098Y-95551277D01*
X163546208Y-96846000D02*
X162774821Y-96846000D01*
X164831735Y-98131527D02*
X163546208Y-96846000D01*
X164831735Y-98611500D02*
X164831735Y-98131527D01*
%TO.N,/UI_RST*%
X167479948Y-95875000D02*
X168375000Y-95875000D01*
X167154500Y-95549552D02*
X167479948Y-95875000D01*
X167154500Y-94919552D02*
X167154500Y-95549552D01*
X165442948Y-93208000D02*
X167154500Y-94919552D01*
X164295364Y-93208000D02*
X165442948Y-93208000D01*
X162639373Y-97173000D02*
X161041598Y-95575225D01*
X161298465Y-94890777D02*
X162612587Y-94890777D01*
X162612587Y-94890777D02*
X164295364Y-93208000D01*
X163410760Y-97173000D02*
X162639373Y-97173000D01*
X164282232Y-98044472D02*
X163410760Y-97173000D01*
X161041598Y-95575225D02*
X161041598Y-95147644D01*
X164282232Y-98611500D02*
X164282232Y-98044472D01*
X161041598Y-95147644D02*
X161298465Y-94890777D01*
%TO.N,/UI_LED_R*%
X163732729Y-97957417D02*
X163275312Y-97500000D01*
X160316277Y-97500000D02*
X159892747Y-97923530D01*
X163732729Y-98611500D02*
X163732729Y-97957417D01*
X163275312Y-97500000D02*
X160316277Y-97500000D01*
%TO.N,/BTN_NET*%
X163182486Y-95557382D02*
X163182486Y-95402752D01*
X165930655Y-98620082D02*
X165930655Y-98305551D01*
X165930655Y-98305551D02*
X163182486Y-95557382D01*
%TO.N,/BTN_UI*%
X163731808Y-95644256D02*
X163731808Y-95388692D01*
X166490792Y-98403240D02*
X163731808Y-95644256D01*
X166490792Y-98611500D02*
X166490792Y-98403240D01*
%TO.N,/NET_RX0_MGMT*%
X167100000Y-98550000D02*
X164281276Y-95731276D01*
X167100000Y-98611500D02*
X167100000Y-98550000D01*
X164281276Y-95731276D02*
X164281276Y-95394775D01*
%TO.N,/UI_STAT*%
X174287500Y-99409948D02*
X174287500Y-102287500D01*
X172732224Y-97630500D02*
X172732224Y-97854672D01*
X172732224Y-97854672D02*
X174287500Y-99409948D01*
%TO.N,/NET_STAT*%
X173170224Y-97813500D02*
X174787500Y-99430776D01*
X173974869Y-96548000D02*
X173170224Y-97352645D01*
X173170224Y-97352645D02*
X173170224Y-97813500D01*
X174622000Y-96548000D02*
X173974869Y-96548000D01*
X174622000Y-95829133D02*
X174622000Y-96548000D01*
X174787500Y-99430776D02*
X174787500Y-102287500D01*
%TO.N,/LEDB_R*%
X175912500Y-100375000D02*
X176700000Y-100375000D01*
X175513000Y-99975500D02*
X175912500Y-100375000D01*
%TO.N,/UI_STAT*%
X174110317Y-96875000D02*
X176700000Y-96875000D01*
X173608724Y-97631867D02*
X173608724Y-97376593D01*
X173608724Y-97376593D02*
X174110317Y-96875000D01*
%TO.N,/LEDA_G*%
X175975000Y-98875000D02*
X176700000Y-98875000D01*
X174706194Y-97606194D02*
X175975000Y-98875000D01*
X174706194Y-97589729D02*
X174706194Y-97606194D01*
%TO.N,/LEDA_B*%
X175983789Y-98375000D02*
X176700000Y-98375000D01*
X175699000Y-98090211D02*
X175983789Y-98375000D01*
X175690211Y-98090211D02*
X175699000Y-98090211D01*
X175331261Y-97595369D02*
X175331261Y-97731261D01*
X175331261Y-97731261D02*
X175690211Y-98090211D01*
%TO.N,/BTN_NET*%
X171287500Y-99743074D02*
X171287500Y-102287500D01*
X170987213Y-99442787D02*
X171287500Y-99743074D01*
%TO.N,/BTN_UI*%
X170787500Y-101525779D02*
X170787500Y-102287500D01*
X170928000Y-101385279D02*
X170787500Y-101525779D01*
X170928000Y-100003000D02*
X170928000Y-101385279D01*
X170220000Y-99295000D02*
X170928000Y-100003000D01*
%TO.N,/NET_RX0_MGMT*%
X169345000Y-97875000D02*
X168375000Y-97875000D01*
X169858336Y-98862323D02*
X169858336Y-98388336D01*
X169858336Y-98388336D02*
X169345000Y-97875000D01*
%TO.N,/MGMT_NRST*%
X172787500Y-100500500D02*
X172787500Y-102287500D01*
%TO.N,/MGMT_BOOT*%
X170490092Y-100207932D02*
X169157160Y-98875000D01*
X169157160Y-98875000D02*
X168375000Y-98875000D01*
%TO.N,/BTN_RST*%
X170287500Y-101563331D02*
X170287500Y-102287500D01*
X170601000Y-100967454D02*
X170601000Y-101249831D01*
X170601000Y-101249831D02*
X170287500Y-101563331D01*
X169951773Y-100318227D02*
X170601000Y-100967454D01*
%TO.N,/LEDB_B*%
X173787500Y-92265000D02*
X173787500Y-93962500D01*
X173315000Y-91792500D02*
X173787500Y-92265000D01*
X164159916Y-92881000D02*
X167091448Y-92881000D01*
X156508568Y-94563000D02*
X162477916Y-94563000D01*
X162477916Y-94563000D02*
X164159916Y-92881000D01*
X155825500Y-93879932D02*
X156508568Y-94563000D01*
X167091448Y-92881000D02*
X168179948Y-91792500D01*
X168179948Y-91792500D02*
X173315000Y-91792500D01*
%TO.N,/LEDB_G*%
X174287500Y-92302552D02*
X174287500Y-93962500D01*
X173450448Y-91465500D02*
X174287500Y-92302552D01*
X166962000Y-92548000D02*
X168044500Y-91465500D01*
X164030468Y-92548000D02*
X166962000Y-92548000D01*
X168044500Y-91465500D02*
X173450448Y-91465500D01*
X156801701Y-94236000D02*
X162342468Y-94236000D01*
X156007133Y-93441432D02*
X156801701Y-94236000D01*
X155543869Y-93441432D02*
X156007133Y-93441432D01*
X162342468Y-94236000D02*
X164030468Y-92548000D01*
X155319389Y-93665912D02*
X155543869Y-93441432D01*
%TO.N,/UI_STAT*%
X161548000Y-97950000D02*
X161560000Y-97938000D01*
X160643230Y-97950000D02*
X161548000Y-97950000D01*
X160289115Y-98304115D02*
X160643230Y-97950000D01*
%TO.N,/MGMT_BOOT*%
X179028417Y-94016417D02*
X178872000Y-93860000D01*
X179028417Y-97417261D02*
X179028417Y-94016417D01*
%TO.N,/USB_DTR*%
X155487500Y-124195000D02*
X155487500Y-121455000D01*
X173266844Y-122353000D02*
X162271896Y-122353000D01*
X174757500Y-120862344D02*
X173266844Y-122353000D01*
X174757500Y-114485000D02*
X174757500Y-120862344D01*
X160429896Y-124195000D02*
X155487500Y-124195000D01*
X179154000Y-110088500D02*
X174757500Y-114485000D01*
X179154000Y-99216590D02*
X179154000Y-110088500D01*
X179476500Y-98894090D02*
X179154000Y-99216590D01*
X179476500Y-93360198D02*
X179476500Y-98894090D01*
X177363802Y-91247500D02*
X179476500Y-93360198D01*
X176726367Y-91247500D02*
X177363802Y-91247500D01*
X162271896Y-122353000D02*
X160429896Y-124195000D01*
X176323500Y-91650367D02*
X176726367Y-91247500D01*
X176323500Y-92522962D02*
X176323500Y-91650367D01*
X175072289Y-92961500D02*
X175884962Y-92961500D01*
X174787500Y-93246289D02*
X175072289Y-92961500D01*
X175884962Y-92961500D02*
X176323500Y-92522962D01*
X174787500Y-93962500D02*
X174787500Y-93246289D01*
D67*
%TO.N,/VIN*%
X182747500Y-98005000D02*
X183087500Y-97665000D01*
X179717500Y-99450000D02*
X181162500Y-98005000D01*
X181162500Y-98005000D02*
X182747500Y-98005000D01*
X173325000Y-90625000D02*
X172900000Y-90200000D01*
X177467500Y-90625000D02*
X173325000Y-90625000D01*
X179990000Y-93147500D02*
X177467500Y-90625000D01*
X179990000Y-99177500D02*
X179990000Y-93147500D01*
X179717500Y-99450000D02*
X179990000Y-99177500D01*
%TO.N,GND*%
X181237500Y-96562500D02*
X180750000Y-97050000D01*
X181237500Y-95125000D02*
X181237500Y-96562500D01*
D66*
%TO.N,/USB_RX1_MGMT*%
X157584000Y-123855000D02*
X157486000Y-123757000D01*
X174430500Y-120726896D02*
X173131396Y-122026000D01*
X174430500Y-113586896D02*
X174430500Y-120726896D01*
X173131396Y-122026000D02*
X162136448Y-122026000D01*
X178434000Y-109583396D02*
X174430500Y-113586896D01*
X178434000Y-93459000D02*
X178434000Y-109583396D01*
X178683000Y-93210000D02*
X178434000Y-93459000D01*
X162136448Y-122026000D02*
X160307448Y-123855000D01*
X160307448Y-123855000D02*
X157584000Y-123855000D01*
%TO.N,/USB_TX1_MGMT*%
X177339854Y-91686000D02*
X176908000Y-91686000D01*
X178107000Y-92453146D02*
X177339854Y-91686000D01*
X178107000Y-109447948D02*
X178107000Y-92453146D01*
X174103500Y-120591448D02*
X174103500Y-113451448D01*
X172995948Y-121699000D02*
X174103500Y-120591448D01*
X160283000Y-123417000D02*
X162001000Y-121699000D01*
X174103500Y-113451448D02*
X178107000Y-109447948D01*
X159527500Y-123417000D02*
X160283000Y-123417000D01*
X162001000Y-121699000D02*
X172995948Y-121699000D01*
%TO.N,/USB_RTS*%
X177780000Y-97875000D02*
X176700000Y-97875000D01*
X177780000Y-109312500D02*
X177780000Y-97875000D01*
X162004500Y-121372000D02*
X172860500Y-121372000D01*
X172860500Y-121372000D02*
X173776500Y-120456000D01*
X173776500Y-120456000D02*
X173776500Y-113316000D01*
X160647500Y-120015000D02*
X162004500Y-121372000D01*
X155147723Y-120015000D02*
X160647500Y-120015000D01*
X154032500Y-121130223D02*
X155147723Y-120015000D01*
X154032500Y-121420000D02*
X154032500Y-121130223D01*
X173776500Y-113316000D02*
X177780000Y-109312500D01*
%TO.N,/MGMT_BOOT*%
X165214500Y-134450000D02*
X165260000Y-134404500D01*
X162240000Y-134450000D02*
X165214500Y-134450000D01*
X162240000Y-136422367D02*
X162240000Y-134450000D01*
X162237500Y-136424867D02*
X162240000Y-136422367D01*
X162237500Y-137175000D02*
X162237500Y-136424867D01*
X178719500Y-68787052D02*
X175311000Y-65378552D01*
X178831000Y-74779500D02*
X178719500Y-74668000D01*
X178719500Y-72636000D02*
X180462000Y-72636000D01*
X166139000Y-60946500D02*
X163700000Y-58507500D01*
X178831000Y-75459713D02*
X178831000Y-74779500D01*
X175311000Y-65378552D02*
X175311000Y-64572301D01*
X163700000Y-58507500D02*
X163700000Y-58095000D01*
X171685199Y-60946500D02*
X166139000Y-60946500D01*
X175311000Y-64572301D02*
X171685199Y-60946500D01*
X178719500Y-74668000D02*
X178719500Y-72636000D01*
X178719500Y-72636000D02*
X178719500Y-68787052D01*
X178429000Y-75861713D02*
X178831000Y-75459713D01*
%TO.N,/MGMT_DBG7*%
X166668426Y-92221000D02*
X166929713Y-91959713D01*
X163895020Y-92221000D02*
X166668426Y-92221000D01*
X162534935Y-92518931D02*
X163597089Y-92518931D01*
X163597089Y-92518931D02*
X163895020Y-92221000D01*
%TO.N,/NET_STAT*%
X167131500Y-91138500D02*
X173585896Y-91138500D01*
X166376000Y-91894000D02*
X167131500Y-91138500D01*
X174725500Y-92278104D02*
X174725500Y-92515962D01*
X162560000Y-91970000D02*
X162636000Y-91894000D01*
X173585896Y-91138500D02*
X174725500Y-92278104D01*
X162636000Y-91894000D02*
X166376000Y-91894000D01*
%TO.N,+3.3VA*%
X168737500Y-112405000D02*
X168090000Y-113052500D01*
D68*
X161482500Y-102995000D02*
X161912500Y-103425000D01*
D67*
X169607500Y-112405000D02*
X169637500Y-112375000D01*
D66*
X169315000Y-116075000D02*
X170457500Y-116075000D01*
X170457500Y-116075000D02*
X170507500Y-116125000D01*
D67*
X161912500Y-104501500D02*
X161912500Y-103425000D01*
D66*
X168090000Y-113052500D02*
X168090000Y-113850000D01*
X165090000Y-113850000D02*
X165090000Y-113007500D01*
X165090000Y-113007500D02*
X164537500Y-112455000D01*
D67*
X168737500Y-112405000D02*
X169607500Y-112405000D01*
X170497500Y-116405000D02*
X170507500Y-116395000D01*
D68*
X159500000Y-102995000D02*
X161482500Y-102995000D01*
D67*
X170487500Y-115435000D02*
X170487500Y-116395000D01*
X170507500Y-116395000D02*
X170507500Y-116125000D01*
X163817500Y-112455000D02*
X164537500Y-112455000D01*
X170487500Y-116395000D02*
X170497500Y-116405000D01*
X161688500Y-104725500D02*
X161912500Y-104501500D01*
D68*
%TO.N,+3.3V*%
X168640000Y-92970000D02*
X168730000Y-92880000D01*
D66*
X163895000Y-118545000D02*
X164365000Y-118075000D01*
D67*
X163700000Y-65790500D02*
X164716000Y-66806500D01*
X161700000Y-130190000D02*
X161495000Y-129985000D01*
X155492500Y-128050000D02*
X155417000Y-127974500D01*
X150437500Y-128065000D02*
X150437500Y-126900000D01*
D68*
X168375000Y-100875000D02*
X169837500Y-100875000D01*
D67*
X170500000Y-87347500D02*
X170250000Y-87597500D01*
D68*
X168937500Y-103195000D02*
X168937500Y-103137500D01*
D69*
X181482000Y-75280500D02*
X181482000Y-74414000D01*
D68*
X173352000Y-101175500D02*
X173443330Y-101175500D01*
D67*
X155417000Y-127974500D02*
X154385418Y-127974500D01*
D68*
X164800000Y-102575500D02*
X164800000Y-102995000D01*
D66*
X135727878Y-136838556D02*
X135727878Y-137524622D01*
D67*
X161495000Y-129985000D02*
X161495000Y-128065000D01*
X170940000Y-130430000D02*
X170940000Y-128559000D01*
X176737000Y-85337000D02*
X176737000Y-86837500D01*
X165468038Y-120075538D02*
X165467500Y-120075000D01*
D68*
X168730000Y-92880000D02*
X169050000Y-92880000D01*
X177437500Y-94637500D02*
X176700000Y-95375000D01*
D66*
X162294936Y-101214500D02*
X162440436Y-101360000D01*
D68*
X168937500Y-103137500D02*
X169787500Y-102287500D01*
D67*
X176180000Y-84780000D02*
X176737000Y-85337000D01*
X153304918Y-129055000D02*
X151427500Y-129055000D01*
X166446962Y-120075538D02*
X165468038Y-120075538D01*
D68*
X169787500Y-101125000D02*
X169937500Y-100975000D01*
D67*
X138627500Y-60260000D02*
X138662500Y-60295000D01*
D68*
X167845000Y-101405000D02*
X168375000Y-100875000D01*
X168160000Y-92970000D02*
X168640000Y-92970000D01*
X166837500Y-101405000D02*
X167845000Y-101405000D01*
D66*
X165590000Y-119952500D02*
X165467500Y-120075000D01*
D67*
X150437500Y-122385000D02*
X151382500Y-121440000D01*
D66*
X165590000Y-118800000D02*
X165590000Y-119952500D01*
X135727878Y-137524622D02*
X135627500Y-137625000D01*
D68*
X173443330Y-101175500D02*
X173787500Y-101519670D01*
D67*
X147602000Y-69010000D02*
X148237000Y-68375000D01*
D66*
X163037500Y-118545000D02*
X163895000Y-118545000D01*
D67*
X161950000Y-130440000D02*
X161700000Y-130190000D01*
D68*
X166837500Y-102275000D02*
X166837500Y-101405000D01*
D67*
X153637500Y-59505000D02*
X153637500Y-60270000D01*
X146075000Y-69010000D02*
X147602000Y-69010000D01*
X155302500Y-126590000D02*
X155302500Y-127860000D01*
X154385418Y-127974500D02*
X153304918Y-129055000D01*
D68*
X169837500Y-100875000D02*
X169937500Y-100975000D01*
D67*
X163700000Y-64825000D02*
X163700000Y-65790500D01*
D68*
X167870000Y-93260000D02*
X168160000Y-92970000D01*
D67*
X155507500Y-128065000D02*
X155492500Y-128050000D01*
D68*
X164800000Y-102995000D02*
X164605000Y-102995000D01*
D67*
X151382500Y-121440000D02*
X151492500Y-121440000D01*
D66*
X136757500Y-136799500D02*
X136757500Y-137645000D01*
D68*
X164175000Y-103425000D02*
X163487500Y-103425000D01*
D67*
X173655000Y-84780000D02*
X176180000Y-84780000D01*
X163037500Y-118545000D02*
X162167500Y-118545000D01*
X162167500Y-118545000D02*
X162137500Y-118575000D01*
D66*
X136757500Y-137645000D02*
X136737500Y-137665000D01*
D67*
X143647500Y-60280000D02*
X143662500Y-60295000D01*
X170250000Y-88185000D02*
X173655000Y-84780000D01*
X170250000Y-87597500D02*
X170250000Y-88185000D01*
D68*
X176700000Y-94687500D02*
X176137500Y-94125000D01*
X173787500Y-101519670D02*
X173787500Y-102287500D01*
X169050000Y-92880000D02*
X169787500Y-93617500D01*
X176700000Y-95375000D02*
X176700000Y-94687500D01*
X169787500Y-102287500D02*
X169787500Y-101125000D01*
D67*
X138627500Y-59345000D02*
X138627500Y-60260000D01*
X150437500Y-126900000D02*
X150437500Y-122385000D01*
X153637500Y-60270000D02*
X153662500Y-60295000D01*
D68*
X177437500Y-94255000D02*
X177437500Y-94637500D01*
X165075500Y-102300000D02*
X164800000Y-102575500D01*
D67*
X170940000Y-128559000D02*
X171574000Y-127925000D01*
X160237500Y-134425000D02*
X160237500Y-137175000D01*
X170500000Y-82997500D02*
X170500000Y-87347500D01*
X148637500Y-59665000D02*
X148637500Y-60270000D01*
X134637500Y-140075000D02*
X134637500Y-139115000D01*
D66*
X162440436Y-101360000D02*
X163380000Y-101360000D01*
D67*
X155302500Y-127860000D02*
X155507500Y-128065000D01*
D68*
X169787500Y-93617500D02*
X169787500Y-93962500D01*
D67*
X143647500Y-59455000D02*
X143647500Y-60280000D01*
X151427500Y-129055000D02*
X150437500Y-128065000D01*
D68*
X164605000Y-102995000D02*
X164175000Y-103425000D01*
D67*
X169387500Y-81885000D02*
X170500000Y-82997500D01*
X163900000Y-130440000D02*
X161950000Y-130440000D01*
%TO.N,VBUS*%
X147837500Y-139001000D02*
X147837500Y-135002500D01*
X136312500Y-121300000D02*
X136350000Y-121337500D01*
X134987500Y-122700000D02*
X136350000Y-121337500D01*
X147685614Y-134970000D02*
X147870000Y-134970000D01*
X152737500Y-135575000D02*
X153187500Y-135125000D01*
X148800000Y-131556500D02*
X150238000Y-130118500D01*
X147110000Y-133625614D02*
X147110000Y-134394386D01*
X134750000Y-121300000D02*
X136312500Y-121300000D01*
D68*
X159937500Y-129975000D02*
X159987500Y-130025000D01*
D67*
X134300000Y-122700000D02*
X134987500Y-122700000D01*
X147837500Y-135002500D02*
X147870000Y-134970000D01*
X152737500Y-139001000D02*
X152737500Y-135575000D01*
X148800000Y-133125000D02*
X148800000Y-131556500D01*
X147110000Y-134394386D02*
X147685614Y-134970000D01*
D68*
X158862500Y-129975000D02*
X159937500Y-129975000D01*
D67*
X148800000Y-133125000D02*
X147610614Y-133125000D01*
X147610614Y-133125000D02*
X147110000Y-133625614D01*
D66*
%TO.N,GND*%
X136691000Y-129645000D02*
X136501000Y-129835000D01*
D67*
X163037500Y-119505000D02*
X162207003Y-119505000D01*
X180232500Y-128730000D02*
X180587500Y-128375000D01*
X166840000Y-100590000D02*
X166655614Y-100590000D01*
D68*
X170287500Y-95112500D02*
X170270000Y-95130000D01*
D66*
X136227500Y-130635000D02*
X136227500Y-131035000D01*
D68*
X170287500Y-93962500D02*
X170287500Y-95112500D01*
D69*
X181452000Y-77180000D02*
X181480000Y-77208000D01*
D67*
X160600000Y-103955000D02*
X159500000Y-103955000D01*
D68*
X181482000Y-72636000D02*
X181480000Y-72636000D01*
X157012500Y-129975000D02*
X156487500Y-129975000D01*
D66*
X165090000Y-118800000D02*
X164642500Y-118800000D01*
D67*
X153537500Y-136775000D02*
X153537500Y-139001000D01*
D66*
X136227500Y-127435000D02*
X136654500Y-127435000D01*
D67*
X172640000Y-128730000D02*
X180232500Y-128730000D01*
X163037500Y-119505000D02*
X163937500Y-119505000D01*
D66*
X136691000Y-127471500D02*
X136691000Y-129645000D01*
D69*
X181452000Y-76192000D02*
X181452000Y-77180000D01*
D67*
X180537500Y-128325000D02*
X180587500Y-128375000D01*
D66*
X136227500Y-126915000D02*
X136217500Y-126925000D01*
X138107500Y-131540000D02*
X136227500Y-131540000D01*
D67*
X141790000Y-66600000D02*
X141587500Y-66600000D01*
X177437500Y-92998500D02*
X177437500Y-93295000D01*
X138100000Y-116600000D02*
X138080000Y-116620000D01*
D68*
X167880000Y-93930000D02*
X168640000Y-93930000D01*
D66*
X164642500Y-118800000D02*
X163937500Y-119505000D01*
D68*
X166840000Y-100590000D02*
X166837500Y-100587500D01*
D67*
X159022500Y-64825000D02*
X158112000Y-64825000D01*
D66*
X136501000Y-129835000D02*
X136227500Y-129835000D01*
X136227500Y-126130000D02*
X136227500Y-126635000D01*
D67*
X164537500Y-111115000D02*
X165077500Y-110575000D01*
D68*
X167687500Y-111495000D02*
X168737500Y-111495000D01*
D67*
X165942500Y-67556000D02*
X163759000Y-67556000D01*
D66*
X136654500Y-127435000D02*
X136691000Y-127471500D01*
X136227500Y-127035000D02*
X136227500Y-127435000D01*
X176700000Y-95875000D02*
X175288000Y-95875000D01*
D67*
X169635000Y-103875000D02*
X168737500Y-104772500D01*
D68*
X168640000Y-93930000D02*
X168730000Y-93840000D01*
X174387500Y-104275000D02*
X176287500Y-104275000D01*
D67*
X152087500Y-134015000D02*
X152864500Y-134015000D01*
X138080000Y-116620000D02*
X137200000Y-116620000D01*
X165986000Y-67599500D02*
X165942500Y-67556000D01*
X154037500Y-136275000D02*
X153537500Y-136775000D01*
X169635000Y-103875000D02*
X170887500Y-105127500D01*
X168737500Y-104772500D02*
X168737500Y-105725000D01*
X146617500Y-138581000D02*
X147037500Y-139001000D01*
D66*
X136217500Y-127025000D02*
X136227500Y-127035000D01*
D67*
X146617500Y-136495000D02*
X146617500Y-138581000D01*
X175300000Y-86650000D02*
X175300000Y-89395000D01*
X164600000Y-104900000D02*
X164600000Y-104155000D01*
X169355000Y-104155000D02*
X168937500Y-104155000D01*
X161907500Y-114125000D02*
X161087500Y-114125000D01*
X162207003Y-119505000D02*
X162137500Y-119574503D01*
D66*
X136227500Y-126635000D02*
X136227500Y-126915000D01*
X147905500Y-133974500D02*
X149921225Y-133974500D01*
D68*
X167055000Y-100375000D02*
X166840000Y-100590000D01*
X168737500Y-111495000D02*
X169571912Y-111495000D01*
D67*
X170887500Y-105127500D02*
X170887500Y-105275000D01*
D66*
X136227500Y-126130000D02*
X138107500Y-126130000D01*
D67*
X137300000Y-119062500D02*
X137300000Y-120010000D01*
D66*
X136217500Y-126925000D02*
X136217500Y-127025000D01*
X147870000Y-134010000D02*
X147905500Y-133974500D01*
D67*
X163937500Y-119505000D02*
X164507500Y-120075000D01*
X125731750Y-132800000D02*
X125738000Y-132793750D01*
X173087500Y-108275000D02*
X173087500Y-106975000D01*
D68*
X180210000Y-71366000D02*
X179157500Y-71366000D01*
D67*
X169635000Y-103875000D02*
X169355000Y-104155000D01*
X164900000Y-130440000D02*
X164900000Y-127176000D01*
X176887000Y-92448000D02*
X177437500Y-92998500D01*
X141587500Y-66600000D02*
X140800000Y-67387500D01*
D66*
X127788000Y-63590000D02*
X127124000Y-64254000D01*
X136227500Y-130232924D02*
X136227500Y-130635000D01*
D67*
X147500000Y-67500000D02*
X147474500Y-67525500D01*
X173087500Y-106975000D02*
X174987500Y-106975000D01*
X167087500Y-89397500D02*
X167087500Y-89785000D01*
X161937500Y-67740000D02*
X159022500Y-64825000D01*
X151492500Y-127907023D02*
X151492500Y-126370000D01*
X166655614Y-100590000D02*
X166104073Y-101141541D01*
D66*
X138107500Y-126130000D02*
X138107500Y-126635000D01*
D67*
X151570500Y-127985023D02*
X151492500Y-127907023D01*
X172291250Y-109071250D02*
X173087500Y-108275000D01*
D66*
X138272313Y-139748000D02*
X138272313Y-139760187D01*
D67*
X166104073Y-101141541D02*
X165938378Y-101141541D01*
X154787500Y-128874500D02*
X154737500Y-128824500D01*
D68*
X168375000Y-100375000D02*
X167055000Y-100375000D01*
D67*
X168300000Y-88185000D02*
X167087500Y-89397500D01*
D66*
X136227500Y-129835000D02*
X136227500Y-130232924D01*
D67*
X164900000Y-127176000D02*
X164716000Y-126992000D01*
X159500000Y-104900000D02*
X159500000Y-103955000D01*
X170737500Y-137175000D02*
X171417500Y-136495000D01*
D68*
X173287500Y-102287500D02*
X173287500Y-103175000D01*
D66*
X127850000Y-63590000D02*
X127788000Y-63590000D01*
D67*
X154787500Y-129595000D02*
X154787500Y-128874500D01*
X122350000Y-132800000D02*
X125731750Y-132800000D01*
X152864500Y-134015000D02*
X152887500Y-134038000D01*
X178437500Y-128325000D02*
X180537500Y-128325000D01*
D66*
X151570500Y-127985023D02*
X151760477Y-128175000D01*
D67*
X171940000Y-130430000D02*
X171940000Y-129430000D01*
D66*
X138272313Y-139760187D02*
X137637500Y-140395000D01*
D68*
X176287500Y-104275000D02*
X176287500Y-105975000D01*
D67*
X163759000Y-67556000D02*
X163575000Y-67740000D01*
X175300000Y-89395000D02*
X175700000Y-89795000D01*
D68*
X173287500Y-103175000D02*
X174387500Y-104275000D01*
D67*
X148200000Y-88010000D02*
X149100000Y-88010000D01*
X170237500Y-137175000D02*
X170737500Y-137175000D01*
X164537500Y-111495000D02*
X164537500Y-111115000D01*
D68*
X181480000Y-72636000D02*
X180210000Y-71366000D01*
D67*
X171940000Y-129430000D02*
X172640000Y-128730000D01*
X171457500Y-115335000D02*
X171457500Y-116405000D01*
D66*
X135772500Y-131540000D02*
X136227500Y-131540000D01*
X136227500Y-131035000D02*
X136227500Y-131540000D01*
D68*
X176287500Y-105975000D02*
X175187500Y-107075000D01*
D67*
X163575000Y-67740000D02*
X161937500Y-67740000D01*
D66*
X151760477Y-128175000D02*
X152297500Y-128175000D01*
D67*
X164600000Y-104155000D02*
X164800000Y-103955000D01*
%TO.N,+BATT*%
X137010000Y-117770000D02*
X136350000Y-118430000D01*
X136312500Y-119100000D02*
X136350000Y-119062500D01*
X138980000Y-117610000D02*
X138820000Y-117770000D01*
X136350000Y-118430000D02*
X136350000Y-119062500D01*
X134750000Y-119100000D02*
X136312500Y-119100000D01*
D69*
%TO.N,/RCC_OSC_IN*%
X171787500Y-102287500D02*
X171787500Y-104225000D01*
X171137500Y-106975000D02*
X170887500Y-106975000D01*
X171912500Y-106200000D02*
X171137500Y-106975000D01*
X170887500Y-106975000D02*
X169387500Y-106975000D01*
X171912500Y-104350000D02*
X171912500Y-106200000D01*
X171787500Y-104225000D02*
X171912500Y-104350000D01*
X169387500Y-106975000D02*
X168737500Y-107625000D01*
D67*
%TO.N,/VIN*%
X167000000Y-86400000D02*
X168100000Y-85300000D01*
X172900000Y-90200000D02*
X172475000Y-90625000D01*
D66*
X154787500Y-130555000D02*
X153957500Y-130555000D01*
D67*
X172475000Y-90625000D02*
X166400000Y-90625000D01*
X166337500Y-89157550D02*
X167000000Y-88495050D01*
X172900000Y-88185000D02*
X172900000Y-90200000D01*
X170597500Y-68405000D02*
X169867500Y-68405000D01*
X166400000Y-90625000D02*
X166337500Y-90562500D01*
X169867500Y-68405000D02*
X169837500Y-68435000D01*
X166337500Y-90562500D02*
X166337500Y-89157550D01*
X167000000Y-88495050D02*
X167000000Y-86400000D01*
D66*
%TO.N,/UI_SDA*%
X137201000Y-139541500D02*
X137557500Y-139185000D01*
X136657500Y-140105000D02*
X137201000Y-139561500D01*
X136737500Y-139285000D02*
X136657500Y-139365000D01*
X137201000Y-139561500D02*
X137201000Y-139541500D01*
X137557500Y-139185000D02*
X140082000Y-139185000D01*
X136657500Y-139365000D02*
X136657500Y-140105000D01*
X140082000Y-139185000D02*
X140462000Y-139565000D01*
X136737500Y-138685000D02*
X136737500Y-139285000D01*
%TO.N,Net-(U6-LINPUT3)*%
X162967500Y-115075000D02*
X162867500Y-115175000D01*
X164365000Y-115075000D02*
X162967500Y-115075000D01*
%TO.N,/UI_SCL*%
X162275396Y-120718000D02*
X169882000Y-120718000D01*
X153996000Y-119361000D02*
X160918396Y-119361000D01*
X153765000Y-119130000D02*
X153996000Y-119361000D01*
X169882000Y-120718000D02*
X170610500Y-119989500D01*
X169725804Y-118075000D02*
X169315000Y-118075000D01*
X170610500Y-119989500D02*
X170610500Y-118959696D01*
X170610500Y-118959696D02*
X169725804Y-118075000D01*
X160918396Y-119361000D02*
X162275396Y-120718000D01*
%TO.N,Net-(U6-LINPUT2)*%
X163237500Y-116225000D02*
X163887500Y-115575000D01*
X162867500Y-116225000D02*
X163237500Y-116225000D01*
X163887500Y-115575000D02*
X164365000Y-115575000D01*
%TO.N,/USB_D+*%
X156087500Y-131347228D02*
X154059728Y-133375000D01*
X151000000Y-137914000D02*
X150238000Y-137914000D01*
X156087500Y-129575000D02*
X156087500Y-131347228D01*
X150238000Y-137914000D02*
X150037500Y-138114500D01*
X151843936Y-133375000D02*
X151037500Y-134181436D01*
X151037500Y-134181436D02*
X151037500Y-137951500D01*
X154059728Y-133375000D02*
X151843936Y-133375000D01*
X151037500Y-139001000D02*
X151037500Y-137951500D01*
X151037500Y-137951500D02*
X151000000Y-137914000D01*
X156225000Y-129437500D02*
X156087500Y-129575000D01*
X157087500Y-129437500D02*
X156225000Y-129437500D01*
X150037500Y-138114500D02*
X150037500Y-139001000D01*
%TO.N,/USB_D-*%
X149537500Y-137598500D02*
X149537500Y-139001000D01*
X150240500Y-140200000D02*
X150537500Y-139903000D01*
X150537500Y-134218988D02*
X150537500Y-136598500D01*
X157087500Y-130512500D02*
X157500000Y-130512500D01*
X153937500Y-133025000D02*
X151731488Y-133025000D01*
X157807500Y-130205000D02*
X157807500Y-128875000D01*
X150537500Y-136598500D02*
X149537500Y-137598500D01*
X157807500Y-128875000D02*
X156325052Y-128875000D01*
X156325052Y-128875000D02*
X155760500Y-129439552D01*
X150537500Y-139903000D02*
X150537500Y-139001000D01*
X149730000Y-140200000D02*
X150240500Y-140200000D01*
X155760500Y-129439552D02*
X155760500Y-131202000D01*
X151731488Y-133025000D02*
X150537500Y-134218988D01*
X157500000Y-130512500D02*
X157807500Y-130205000D01*
X155760500Y-131202000D02*
X153937500Y-133025000D01*
X149537500Y-140007500D02*
X149730000Y-140200000D01*
X149537500Y-139001000D02*
X149537500Y-140007500D01*
%TO.N,Net-(U6-LINPUT1)*%
X163021500Y-117275000D02*
X162867500Y-117275000D01*
X164365000Y-116075000D02*
X163991748Y-116075000D01*
X163721500Y-116345248D02*
X163721500Y-116575000D01*
X163991748Y-116075000D02*
X163721500Y-116345248D01*
X163721500Y-116575000D02*
X163021500Y-117275000D01*
%TO.N,Net-(U6-MICBIAS)*%
X162947500Y-113075000D02*
X162947500Y-114045000D01*
X162947500Y-114045000D02*
X162867500Y-114125000D01*
X164365000Y-114575000D02*
X163317500Y-114575000D01*
X163317500Y-114575000D02*
X162867500Y-114125000D01*
%TO.N,Net-(U6-HP_R)*%
X166590000Y-113850000D02*
X166587500Y-113847500D01*
X166587500Y-109330000D02*
X166437500Y-109180000D01*
X166587500Y-113847500D02*
X166587500Y-109330000D01*
%TO.N,/MCLK*%
X166098551Y-119450538D02*
X166098551Y-118808551D01*
X166098551Y-118808551D02*
X166090000Y-118800000D01*
X173352000Y-95242000D02*
X173287500Y-95177500D01*
D69*
X166090000Y-119260226D02*
X166090000Y-118800000D01*
D66*
X160363000Y-108824500D02*
X161029141Y-109490641D01*
X173287500Y-95177500D02*
X173287500Y-93962500D01*
X161029141Y-109490641D02*
X161029141Y-111844115D01*
D69*
%TO.N,/RCC_OSC_OUT*%
X172587500Y-104775000D02*
X173087500Y-105275000D01*
X172287500Y-102287500D02*
X172287500Y-103875000D01*
X173087500Y-105275000D02*
X174787500Y-105275000D01*
X172587500Y-104175000D02*
X172587500Y-104775000D01*
X172287500Y-103875000D02*
X172587500Y-104175000D01*
X174787500Y-105275000D02*
X175137500Y-104925000D01*
D66*
%TO.N,/MGMT_NRST*%
X178473000Y-76500000D02*
X179158000Y-75815000D01*
X167194948Y-60619500D02*
X171820647Y-60619500D01*
X175084500Y-115378000D02*
X175197500Y-115265000D01*
X164237500Y-137175000D02*
X164237500Y-135045000D01*
X168900000Y-131500000D02*
X168900000Y-125690000D01*
X179158000Y-74978000D02*
X179158000Y-75815000D01*
X179722000Y-74414000D02*
X180462000Y-74414000D01*
X163717500Y-132165500D02*
X163722000Y-132170000D01*
X159382000Y-59174000D02*
X158303000Y-58095000D01*
X175638000Y-65243104D02*
X179377000Y-68982104D01*
X171910000Y-122680000D02*
X173402292Y-122680000D01*
X179158000Y-75815000D02*
X180115000Y-75815000D01*
X158303000Y-58095000D02*
X158112000Y-58095000D01*
X175638000Y-64436853D02*
X175638000Y-65243104D01*
X163722000Y-132170000D02*
X168230000Y-132170000D01*
X171820647Y-60619500D02*
X175638000Y-64436853D01*
X165224000Y-59174000D02*
X165749448Y-59174000D01*
X174707500Y-121374792D02*
X174707708Y-121374792D01*
X179722000Y-74414000D02*
X179158000Y-74978000D01*
X179377000Y-70546500D02*
X179722000Y-70891500D01*
X168230000Y-132170000D02*
X168900000Y-131500000D01*
X164237500Y-135045000D02*
X164247500Y-135035000D01*
X173402292Y-122680000D02*
X174707500Y-121374792D01*
X175084500Y-120998000D02*
X175084500Y-115378000D01*
X180115000Y-75815000D02*
X180492000Y-76192000D01*
X179377000Y-68982104D02*
X179377000Y-70546500D01*
X165749448Y-59174000D02*
X167194948Y-60619500D01*
X174707708Y-121374792D02*
X175084500Y-120998000D01*
X168900000Y-125690000D02*
X171910000Y-122680000D01*
%TO.N,/IN_3*%
X145395104Y-142124000D02*
X144250000Y-140978896D01*
X174530552Y-133312500D02*
X160776095Y-133312500D01*
X156043500Y-141161396D02*
X155080896Y-142124000D01*
X142095000Y-137595000D02*
X142087500Y-137595000D01*
X160077000Y-118923000D02*
X154994000Y-118923000D01*
X160357787Y-118642213D02*
X160077000Y-118923000D01*
X155080896Y-142124000D02*
X145395104Y-142124000D01*
X178437500Y-130325000D02*
X177518052Y-130325000D01*
X156043500Y-135807104D02*
X156043500Y-141161396D01*
X158593104Y-133257500D02*
X156043500Y-135807104D01*
X161672000Y-115175000D02*
X161907500Y-115175000D01*
X161612000Y-115115000D02*
X161672000Y-115175000D01*
X160357787Y-118100000D02*
X160357787Y-118642213D01*
X160721095Y-133257500D02*
X158593104Y-133257500D01*
X160776095Y-133312500D02*
X160721095Y-133257500D01*
X177518052Y-130325000D02*
X174530552Y-133312500D01*
X144250000Y-139750000D02*
X142095000Y-137595000D01*
X144250000Y-140978896D02*
X144250000Y-139750000D01*
%TO.N,Net-(U6-HP_L)*%
X164832500Y-109180000D02*
X164007500Y-109180000D01*
X165274000Y-109621500D02*
X164832500Y-109180000D01*
X165274000Y-109717699D02*
X165274000Y-109621500D01*
X165667500Y-113772500D02*
X165667500Y-110018500D01*
X165590000Y-113850000D02*
X165667500Y-113772500D01*
X165574801Y-110018500D02*
X165274000Y-109717699D01*
X165667500Y-110018500D02*
X165574801Y-110018500D01*
%TO.N,/NET_RST*%
X167537500Y-96875000D02*
X168375000Y-96875000D01*
X152800000Y-70300000D02*
X159746000Y-70300000D01*
X159746000Y-70300000D02*
X161146000Y-71700000D01*
X149000000Y-68203090D02*
X147596910Y-66800000D01*
X150583839Y-70183839D02*
X149000000Y-68600000D01*
X147596910Y-66800000D02*
X143010000Y-66800000D01*
X152715713Y-70215713D02*
X152800000Y-70300000D01*
X150583839Y-70183839D02*
X150487678Y-70280000D01*
X149000000Y-68600000D02*
X149000000Y-68203090D01*
X161146000Y-71700000D02*
X161146000Y-72889000D01*
X143010000Y-66800000D02*
X142810000Y-66600000D01*
X161146000Y-72889000D02*
X161035000Y-73000000D01*
X150487678Y-70280000D02*
X146075000Y-70280000D01*
X166032500Y-95370000D02*
X167537500Y-96875000D01*
%TO.N,/MIC_P*%
X156697500Y-136078000D02*
X156697500Y-141432292D01*
X161187500Y-116225000D02*
X161907500Y-116225000D01*
X178437500Y-134325000D02*
X177518052Y-134325000D01*
X143596000Y-141249792D02*
X143596000Y-140393500D01*
X177518052Y-134325000D02*
X177159552Y-133966500D01*
X156697500Y-141432292D02*
X155351792Y-142778000D01*
X145124208Y-142778000D02*
X143596000Y-141249792D01*
X155351792Y-142778000D02*
X145124208Y-142778000D01*
X160505199Y-133966500D02*
X160450199Y-133911500D01*
X160357500Y-113735000D02*
X160357500Y-115395000D01*
X160450199Y-133911500D02*
X158864000Y-133911500D01*
X177159552Y-133966500D02*
X160505199Y-133966500D01*
X161877500Y-113075000D02*
X161017500Y-113075000D01*
X160357500Y-115395000D02*
X160792500Y-115830000D01*
X158864000Y-133911500D02*
X156697500Y-136078000D01*
X143596000Y-140393500D02*
X140997500Y-137795000D01*
X160792500Y-115830000D02*
X161187500Y-116225000D01*
X161017500Y-113075000D02*
X160357500Y-113735000D01*
%TO.N,/LEDA_R*%
X148100000Y-64510000D02*
X148100000Y-65013000D01*
X148100000Y-65013000D02*
X148013000Y-65100000D01*
%TO.N,Net-(U6-AMID)*%
X167701500Y-112419000D02*
X167701500Y-113738500D01*
X167701500Y-113738500D02*
X167590000Y-113850000D01*
%TO.N,/DISP_BL*%
X180212396Y-82950104D02*
X180982396Y-82950104D01*
X181447500Y-82485000D02*
X181447500Y-80525000D01*
X180982396Y-82950104D02*
X181447500Y-82485000D01*
X177813367Y-80065838D02*
X177867552Y-80065838D01*
X181447500Y-80525000D02*
X182087500Y-79885000D01*
X179478948Y-81677234D02*
X179478948Y-82216656D01*
X182087500Y-79885000D02*
X183087500Y-79885000D01*
X177867552Y-80065838D02*
X179478948Y-81677234D01*
X179478948Y-82216656D02*
X180212396Y-82950104D01*
%TO.N,/DISP_RSTR*%
X182237500Y-83275000D02*
X183087500Y-82425000D01*
X180284500Y-88765000D02*
X181517500Y-88765000D01*
X181527500Y-83275000D02*
X182237500Y-83275000D01*
X177764713Y-81735287D02*
X177764713Y-81889765D01*
X179294500Y-83419552D02*
X179294500Y-87775000D01*
X181517500Y-88765000D02*
X181527500Y-88755000D01*
X179294500Y-87775000D02*
X180284500Y-88765000D01*
X177764713Y-81889765D02*
X179294500Y-83419552D01*
%TO.N,/LEDA_G*%
X149262000Y-65100000D02*
X149262000Y-64672000D01*
X149262000Y-64672000D02*
X149100000Y-64510000D01*
%TO.N,/BATTERY_MON*%
X138980000Y-116590000D02*
X139970000Y-117580000D01*
X139970000Y-117580000D02*
X140060000Y-117580000D01*
%TO.N,Net-(D3-RK)*%
X138662500Y-61695000D02*
X138662500Y-62927500D01*
X138662500Y-62927500D02*
X138100000Y-63490000D01*
%TO.N,/LEDA_B*%
X150100000Y-65100000D02*
X150100000Y-64510000D01*
%TO.N,Net-(D3-BK)*%
X140125000Y-60957500D02*
X139462500Y-60295000D01*
X140125000Y-63465000D02*
X140125000Y-60957500D01*
X140100000Y-63490000D02*
X140125000Y-63465000D01*
%TO.N,/KB_COL3*%
X138571000Y-126418000D02*
X138571000Y-125661500D01*
X135764000Y-127798500D02*
X135800500Y-127835000D01*
X138800000Y-126307000D02*
X138911000Y-126418000D01*
X138911000Y-126418000D02*
X138571000Y-126418000D01*
X138571000Y-125661500D02*
X135764000Y-125661500D01*
X135800500Y-127835000D02*
X136227500Y-127835000D01*
X135764000Y-125661500D02*
X135764000Y-127798500D01*
%TO.N,Net-(D3-GK)*%
X139462500Y-63127500D02*
X139100000Y-63490000D01*
X139462500Y-61695000D02*
X139462500Y-63127500D01*
%TO.N,Net-(D4-RK)*%
X153662500Y-62927000D02*
X153662500Y-61695000D01*
X153099500Y-63490000D02*
X153662500Y-62927000D01*
%TO.N,/DISP_DC*%
X180578500Y-84965000D02*
X183087500Y-84965000D01*
X179948500Y-84335000D02*
X180578500Y-84965000D01*
X179151948Y-82352104D02*
X179948500Y-83148656D01*
X179948500Y-83148656D02*
X179948500Y-84335000D01*
X177884072Y-80615087D02*
X179151948Y-81882963D01*
X179151948Y-81882963D02*
X179151948Y-82352104D01*
X177796668Y-80615087D02*
X177884072Y-80615087D01*
%TO.N,/DISP_CS*%
X177759286Y-79519004D02*
X177886666Y-79519004D01*
X179805948Y-82081208D02*
X180236844Y-82512104D01*
X180647500Y-87505000D02*
X183087500Y-87505000D01*
X177886666Y-79519004D02*
X179805948Y-81438286D01*
X179805948Y-81438286D02*
X179805948Y-82081208D01*
X180447500Y-87305000D02*
X180647500Y-87505000D01*
X180236844Y-82512104D02*
X180437109Y-82512104D01*
%TO.N,/DISP_SPI_SCK*%
X182787500Y-89745000D02*
X183087500Y-90045000D01*
X177734779Y-82479257D02*
X178967500Y-83711978D01*
X178967500Y-83711978D02*
X178967500Y-87910448D01*
X180802052Y-89745000D02*
X182787500Y-89745000D01*
X178967500Y-87910448D02*
X180802052Y-89745000D01*
%TO.N,/DISP_SPI_MOSI*%
X179621500Y-87639552D02*
X180308948Y-88327000D01*
X179621500Y-83284104D02*
X179621500Y-87639552D01*
X181562911Y-91060411D02*
X183087500Y-92585000D01*
X178824948Y-82487552D02*
X179621500Y-83284104D01*
X177844341Y-81164341D02*
X178824948Y-82144948D01*
X178824948Y-82144948D02*
X178824948Y-82487552D01*
X177813193Y-81164341D02*
X177844341Y-81164341D01*
X181562911Y-90264103D02*
X181562911Y-91060411D01*
X180308948Y-88327000D02*
X180997500Y-88327000D01*
%TO.N,/NET_TX0_MGMT*%
X163118000Y-71550000D02*
X163575000Y-71550000D01*
X167585000Y-98375000D02*
X168375000Y-98375000D01*
X162438000Y-72230000D02*
X163118000Y-71550000D01*
X177993500Y-84433367D02*
X178291367Y-84135500D01*
X178291367Y-84135500D02*
X178432000Y-84135500D01*
X178432000Y-83995574D02*
X178438038Y-83989536D01*
X178392500Y-75126500D02*
X178392500Y-68922500D01*
X178432000Y-84135500D02*
X178432000Y-83995574D01*
X162438000Y-72743625D02*
X162438000Y-72230000D01*
X167850000Y-66417500D02*
X167850000Y-66170000D01*
X164850000Y-71550000D02*
X164900000Y-71500000D01*
X163575000Y-71550000D02*
X164850000Y-71550000D01*
X167877500Y-66445000D02*
X167850000Y-66417500D01*
X178392500Y-68922500D02*
X175915000Y-66445000D01*
X178065000Y-86000000D02*
X177993500Y-85928500D01*
X177993500Y-85928500D02*
X177993500Y-84433367D01*
X164830634Y-95382208D02*
X164830634Y-95620634D01*
D68*
X166900000Y-127368498D02*
X166900000Y-130440000D01*
X166832002Y-127300500D02*
X166900000Y-127368498D01*
D66*
X164830634Y-95620634D02*
X167585000Y-98375000D01*
X175915000Y-66445000D02*
X167877500Y-66445000D01*
%TO.N,Net-(D4-BK)*%
X155087500Y-63477500D02*
X155100000Y-63490000D01*
X155087500Y-60875000D02*
X155087500Y-63477500D01*
X154507500Y-60295000D02*
X155087500Y-60875000D01*
X154462500Y-60295000D02*
X154507500Y-60295000D01*
%TO.N,/NET_RX0_MGMT*%
X178432000Y-85465000D02*
X178432000Y-84615000D01*
X175779552Y-66772000D02*
X168497426Y-66772000D01*
X177954500Y-68946948D02*
X175779552Y-66772000D01*
X162438000Y-73293128D02*
X163101872Y-73293128D01*
D68*
X165832002Y-127300500D02*
X165900000Y-127368498D01*
D66*
X163575000Y-72820000D02*
X164880000Y-72820000D01*
D68*
X165900000Y-127368498D02*
X165900000Y-130440000D01*
D66*
X164880000Y-72820000D02*
X164900000Y-72800000D01*
X178432000Y-84615000D02*
X178473000Y-84574000D01*
X177954500Y-74040000D02*
X177954500Y-68946948D01*
X163101872Y-73293128D02*
X163575000Y-72820000D01*
X168497426Y-66772000D02*
X167704963Y-67564463D01*
%TO.N,Net-(D4-GK)*%
X154462500Y-63127500D02*
X154100000Y-63490000D01*
X154462500Y-61695000D02*
X154462500Y-63127500D01*
%TO.N,/KB_ROW5*%
X139338367Y-129196376D02*
X139229308Y-129196376D01*
X138762188Y-128635000D02*
X138107500Y-128635000D01*
X139229308Y-129102120D02*
X138762188Y-128635000D01*
X139229308Y-129196376D02*
X139229308Y-129102120D01*
%TO.N,/KB_ROW1*%
X135530708Y-129415000D02*
X136207500Y-129415000D01*
X136207500Y-129415000D02*
X136227500Y-129435000D01*
X134449500Y-128333792D02*
X135530708Y-129415000D01*
X134449500Y-126521414D02*
X134449500Y-128333792D01*
X134338500Y-126410414D02*
X134449500Y-126521414D01*
%TO.N,/KB_ROW2*%
X135103500Y-128062896D02*
X135675604Y-128635000D01*
X135103500Y-125940448D02*
X135103500Y-128062896D01*
X135093500Y-125930448D02*
X135103500Y-125940448D01*
X134993235Y-125394183D02*
X135093500Y-125494448D01*
X135675604Y-128635000D02*
X136227500Y-128635000D01*
X135093500Y-125494448D02*
X135093500Y-125930448D01*
%TO.N,/KB_ROW3*%
X138449948Y-127435000D02*
X138107500Y-127435000D01*
X139338232Y-127338232D02*
X138546716Y-127338232D01*
X138546716Y-127338232D02*
X138449948Y-127435000D01*
%TO.N,/MIC_N*%
X156370500Y-141296844D02*
X155216344Y-142451000D01*
X143923000Y-140049424D02*
X141543070Y-137669494D01*
X175980500Y-132325000D02*
X174666000Y-133639500D01*
X160500000Y-117200000D02*
X161582500Y-117200000D01*
X158728552Y-133584500D02*
X156370500Y-135942552D01*
X161582500Y-117200000D02*
X161587500Y-117195000D01*
X145259656Y-142451000D02*
X143923000Y-141114344D01*
X143923000Y-141114344D02*
X143923000Y-140049424D01*
X174666000Y-133639500D02*
X160640647Y-133639500D01*
X159326408Y-118373592D02*
X160500000Y-117200000D01*
X160640647Y-133639500D02*
X160585647Y-133584500D01*
X155216344Y-142451000D02*
X145259656Y-142451000D01*
X154994000Y-118373592D02*
X159326408Y-118373592D01*
X156370500Y-135942552D02*
X156370500Y-141296844D01*
X178437500Y-132325000D02*
X175980500Y-132325000D01*
X160585647Y-133584500D02*
X158728552Y-133584500D01*
%TO.N,Net-(D5-RK)*%
X143084000Y-63490000D02*
X143662500Y-62911500D01*
X143662500Y-62911500D02*
X143662500Y-61695000D01*
%TO.N,/KB_ROW4*%
X139004999Y-128205000D02*
X138137500Y-128205000D01*
X138137500Y-128205000D02*
X138107500Y-128235000D01*
X139357658Y-128557659D02*
X139004999Y-128205000D01*
%TO.N,Net-(D5-BK)*%
X145100000Y-63490000D02*
X145087500Y-63477500D01*
X144462500Y-60300000D02*
X144462500Y-60295000D01*
X145087500Y-60925000D02*
X144462500Y-60300000D01*
X145087500Y-63477500D02*
X145087500Y-60925000D01*
%TO.N,/KB_ROW6*%
X138902308Y-130200000D02*
X138902308Y-129237568D01*
X138699740Y-129035000D02*
X138107500Y-129035000D01*
X138902308Y-129237568D02*
X138699740Y-129035000D01*
%TO.N,/KB_ROW7*%
X137217500Y-130825000D02*
X137547500Y-130825000D01*
X137547500Y-130825000D02*
X137777500Y-131055000D01*
X138087500Y-131055000D02*
X138107500Y-131035000D01*
X137777500Y-131055000D02*
X138087500Y-131055000D01*
D68*
%TO.N,/UD-*%
X160827500Y-129696396D02*
X160827500Y-130605000D01*
X159617500Y-130825000D02*
X159305000Y-130512500D01*
X157842500Y-126370000D02*
X157842500Y-126711396D01*
X157842500Y-126711396D02*
X160827500Y-129696396D01*
X160827500Y-130605000D02*
X160607500Y-130825000D01*
X159305000Y-130512500D02*
X158787500Y-130512500D01*
X160607500Y-130825000D02*
X159617500Y-130825000D01*
%TO.N,/UD+*%
X158787500Y-129437500D02*
X158787500Y-128926396D01*
X156572500Y-126711396D02*
X156572500Y-126370000D01*
X158787500Y-128926396D02*
X156572500Y-126711396D01*
D66*
%TO.N,/LEDB_R*%
X155151919Y-93088000D02*
X158367724Y-93088000D01*
X158367724Y-93088000D02*
X158478724Y-92977000D01*
X154771873Y-93625025D02*
X154771873Y-93468046D01*
X154771873Y-93468046D02*
X155151919Y-93088000D01*
X138013000Y-64597000D02*
X138100000Y-64510000D01*
X138013000Y-65100000D02*
X138013000Y-64597000D01*
%TO.N,/LEDB_G*%
X139262000Y-64672000D02*
X139100000Y-64510000D01*
X139262000Y-65200000D02*
X139262000Y-64672000D01*
%TO.N,Net-(D5-GK)*%
X144462500Y-63127500D02*
X144100000Y-63490000D01*
X144462500Y-61695000D02*
X144462500Y-63127500D01*
%TO.N,Net-(D11-K)*%
X151508000Y-132072000D02*
X150316500Y-132072000D01*
X145666000Y-135882000D02*
X147178500Y-135882000D01*
X147178500Y-135882000D02*
X147190000Y-135870500D01*
X138959500Y-134859500D02*
X140904588Y-134859500D01*
X141927088Y-135882000D02*
X145666000Y-135882000D01*
X140904588Y-134859500D02*
X141927088Y-135882000D01*
X150316500Y-132072000D02*
X150238000Y-131993500D01*
X138579500Y-134479500D02*
X138959500Y-134859500D01*
%TO.N,Net-(D18-RK)*%
X148662500Y-61695000D02*
X148662500Y-62927500D01*
X148662500Y-62927500D02*
X148100000Y-63490000D01*
%TO.N,Net-(D18-BK)*%
X150087500Y-63477500D02*
X150100000Y-63490000D01*
X150087500Y-60920000D02*
X150087500Y-63477500D01*
X149462500Y-60295000D02*
X150087500Y-60920000D01*
%TO.N,Net-(D18-GK)*%
X149100000Y-63490000D02*
X149462500Y-63127500D01*
X149462500Y-63127500D02*
X149462500Y-61695000D01*
%TO.N,Net-(J9-CC1)*%
X149037500Y-135130000D02*
X149137500Y-135030000D01*
X149137500Y-135185000D02*
X149137500Y-135030000D01*
X149037500Y-139001000D02*
X149037500Y-135130000D01*
%TO.N,Net-(J9-CC2)*%
X152037500Y-135085000D02*
X152087500Y-135035000D01*
X152037500Y-139001000D02*
X152037500Y-135085000D01*
%TO.N,Net-(J10-Pin_1)*%
X122350000Y-118800000D02*
X125490000Y-118800000D01*
%TO.N,Net-(J10-Pin_2)*%
X122350000Y-120800000D02*
X125390000Y-120800000D01*
X125390000Y-120800000D02*
X125490000Y-120700000D01*
%TO.N,/LEDB_B*%
X140100000Y-65200000D02*
X140100000Y-64510000D01*
%TO.N,Net-(J10-Pin_3)*%
X122350000Y-122800000D02*
X125490000Y-122800000D01*
%TO.N,Net-(J10-Pin_4)*%
X122350000Y-124800000D02*
X125490000Y-124800000D01*
%TO.N,Net-(J10-Pin_5)*%
X122350000Y-126800000D02*
X125490000Y-126800000D01*
%TO.N,Net-(J10-Pin_6)*%
X122350000Y-128800000D02*
X125490000Y-128800000D01*
%TO.N,Net-(J10-Pin_7)*%
X122350000Y-130800000D02*
X125477500Y-130800000D01*
%TO.N,/SPK_LN*%
X169761301Y-115075000D02*
X170281301Y-114555000D01*
X172687500Y-114555000D02*
X173237500Y-115105000D01*
X169315000Y-115075000D02*
X169761301Y-115075000D01*
X178367500Y-117195000D02*
X178437500Y-117125000D01*
X170281301Y-114555000D02*
X172687500Y-114555000D01*
X176762000Y-117195000D02*
X178367500Y-117195000D01*
%TO.N,/SPK_LP*%
X170320500Y-114228000D02*
X169942500Y-113850000D01*
X173080500Y-114228000D02*
X170320500Y-114228000D01*
X173247500Y-114395000D02*
X173080500Y-114228000D01*
X169942500Y-113850000D02*
X168590000Y-113850000D01*
X178437500Y-115125000D02*
X176812000Y-115125000D01*
X176812000Y-115125000D02*
X176762000Y-115175000D01*
%TO.N,/HP_R*%
X176762000Y-124375000D02*
X178387500Y-124375000D01*
X178387500Y-124375000D02*
X178437500Y-124325000D01*
X166437500Y-106785000D02*
X168533334Y-108880834D01*
X176812000Y-124325000D02*
X176762000Y-124375000D01*
X166437500Y-106230000D02*
X166437500Y-106785000D01*
X168533334Y-108880834D02*
X168533334Y-109146500D01*
%TO.N,/HP_L*%
X164007500Y-106230000D02*
X164846000Y-107068500D01*
X176762000Y-126375000D02*
X178387500Y-126375000D01*
X178387500Y-126375000D02*
X178437500Y-126325000D01*
X168021276Y-108831224D02*
X168021276Y-109181224D01*
X166258552Y-107068500D02*
X168021276Y-108831224D01*
X164846000Y-107068500D02*
X166258552Y-107068500D01*
X168021276Y-109181224D02*
X167947500Y-109255000D01*
%TO.N,/KB_COL5*%
X139357658Y-127938232D02*
X139254426Y-127835000D01*
X139254426Y-127835000D02*
X138107500Y-127835000D01*
%TO.N,/KB_COL2*%
X135430500Y-125419552D02*
X135430500Y-127927448D01*
X135732552Y-125117500D02*
X135430500Y-125419552D01*
X135430500Y-127927448D02*
X135738052Y-128235000D01*
X135889344Y-125117500D02*
X135732552Y-125117500D01*
X135738052Y-128235000D02*
X136227500Y-128235000D01*
D67*
%TO.N,Net-(J15-Pin_2)*%
X171817500Y-67835000D02*
X171367500Y-67385000D01*
X170537500Y-64275000D02*
X170537500Y-64675000D01*
X170537500Y-64675000D02*
X169487500Y-65725000D01*
X171367500Y-67385000D02*
X170597500Y-67385000D01*
D66*
%TO.N,Net-(U11-IO46)*%
X149135000Y-85525000D02*
X149135000Y-86905000D01*
%TO.N,/BTN_RST*%
X131442000Y-64182000D02*
X130850000Y-63590000D01*
X131442000Y-64254000D02*
X131442000Y-64182000D01*
%TO.N,/BTN_UI*%
X154506000Y-58163500D02*
X130098500Y-58163500D01*
X162000000Y-68700000D02*
X159773000Y-66473000D01*
X130098500Y-58163500D02*
X129850000Y-58412000D01*
X157593000Y-66473000D02*
X156915000Y-65795000D01*
X162000000Y-73750497D02*
X162000000Y-68700000D01*
X156915000Y-65795000D02*
X156915000Y-60572500D01*
X156915000Y-60572500D02*
X154506000Y-58163500D01*
X129850000Y-58412000D02*
X129850000Y-63590000D01*
X159773000Y-66473000D02*
X157593000Y-66473000D01*
%TO.N,/BTN_NET*%
X161473000Y-73873000D02*
X161473000Y-68635448D01*
X130177000Y-61719000D02*
X130426000Y-61968000D01*
X157457552Y-66800000D02*
X156588000Y-65930448D01*
X161473000Y-68635448D02*
X159637552Y-66800000D01*
X130177000Y-58661000D02*
X130177000Y-61719000D01*
X159637552Y-66800000D02*
X157457552Y-66800000D01*
X129410000Y-61968000D02*
X128850000Y-62528000D01*
X161900000Y-74300000D02*
X161473000Y-73873000D01*
X154370552Y-58490500D02*
X130347500Y-58490500D01*
X156588000Y-60707948D02*
X154370552Y-58490500D01*
X156588000Y-65930448D02*
X156588000Y-60707948D01*
X130347500Y-58490500D02*
X130177000Y-58661000D01*
X162000000Y-74300000D02*
X161900000Y-74300000D01*
X128850000Y-62528000D02*
X128850000Y-63590000D01*
%TO.N,/KB_COL1*%
X134776500Y-128198344D02*
X135613156Y-129035000D01*
X135613156Y-129035000D02*
X136227500Y-129035000D01*
X134776500Y-126075896D02*
X134776500Y-128198344D01*
X134491860Y-125791256D02*
X134776500Y-126075896D01*
X134491860Y-125668536D02*
X134491860Y-125791256D01*
%TO.N,Net-(U12-STAT)*%
X139227500Y-119062500D02*
X139800000Y-118490000D01*
X138250000Y-119062500D02*
X139227500Y-119062500D01*
%TO.N,Net-(U12-PROG)*%
X139327500Y-121337500D02*
X139800000Y-121810000D01*
X138250000Y-121337500D02*
X139327500Y-121337500D01*
%TO.N,/UI_BOOT*%
X150873000Y-94129783D02*
X150873000Y-95789000D01*
X157827000Y-90538000D02*
X157449760Y-90538000D01*
X166827500Y-95685000D02*
X167517500Y-96375000D01*
X162587906Y-95377906D02*
X164430812Y-93535000D01*
X154203783Y-90799000D02*
X150873000Y-94129783D01*
X165307500Y-93535000D02*
X166827500Y-95055000D01*
X167517500Y-96375000D02*
X168375000Y-96375000D01*
X150873000Y-95789000D02*
X150762000Y-95900000D01*
X157449760Y-90538000D02*
X157188760Y-90799000D01*
X164430812Y-93535000D02*
X165307500Y-93535000D01*
X157188760Y-90799000D02*
X154203783Y-90799000D01*
X157938000Y-90427000D02*
X157827000Y-90538000D01*
X166827500Y-95055000D02*
X166827500Y-95685000D01*
%TO.N,/NET_LED_B*%
X155100000Y-64510000D02*
X155100000Y-67212000D01*
X146952000Y-75360000D02*
X146075000Y-75360000D01*
X155100000Y-67212000D02*
X146952000Y-75360000D01*
%TO.N,/NET_LED_G*%
X154100000Y-64510000D02*
X154100000Y-67749552D01*
X154100000Y-67749552D02*
X147759552Y-74090000D01*
X147759552Y-74090000D02*
X146075000Y-74090000D01*
%TO.N,/NET_LED_R*%
X146075000Y-72820000D02*
X148567104Y-72820000D01*
X148567104Y-72820000D02*
X153099500Y-68287604D01*
X153099500Y-68287604D02*
X153099500Y-64510000D01*
%TO.N,/UI_DBG1*%
X127168000Y-118800000D02*
X126510000Y-118800000D01*
%TO.N,/UI_LED_B*%
X145100000Y-65100000D02*
X145100000Y-64510000D01*
%TO.N,/NET_STAT*%
X174622000Y-95829133D02*
X174622000Y-95242000D01*
X158000000Y-86700000D02*
X158000000Y-85500000D01*
X175167867Y-96375000D02*
X174622000Y-95829133D01*
X176700000Y-96375000D02*
X175167867Y-96375000D01*
%TO.N,/UI_LED_G*%
X144262000Y-65200000D02*
X144262000Y-64672000D01*
X144262000Y-64672000D02*
X144100000Y-64510000D01*
%TO.N,/UI_TX1_MGMT*%
X176700000Y-100875000D02*
X176875000Y-100875000D01*
X177230000Y-101230000D02*
X177230000Y-101900000D01*
X177230000Y-101900000D02*
X177010000Y-102120000D01*
X176875000Y-100875000D02*
X177230000Y-101230000D01*
%TO.N,/UI_RX1_MGMT*%
X176042500Y-102287500D02*
X175287500Y-102287500D01*
X176780000Y-101550000D02*
X176042500Y-102287500D01*
%TO.N,/NET_BOOT*%
X167375000Y-97375000D02*
X168375000Y-97375000D01*
X163575787Y-85124213D02*
X163575787Y-84250787D01*
X163575787Y-84250787D02*
X163575000Y-84250000D01*
X165380000Y-95380000D02*
X167375000Y-97375000D01*
X165380000Y-95370000D02*
X165380000Y-95380000D01*
%TO.N,/UI_LED_R*%
X143013000Y-65120000D02*
X143013000Y-64581000D01*
X143013000Y-64581000D02*
X143084000Y-64510000D01*
%TO.N,/UI_DBG2*%
X127200000Y-120800000D02*
X126510000Y-120800000D01*
%TO.N,/UI_DBG3*%
X126510000Y-122800000D02*
X127200000Y-122800000D01*
%TO.N,/UI_DBG4*%
X126510000Y-124800000D02*
X127200000Y-124800000D01*
%TO.N,/MGMT_DBG7*%
X171757500Y-92765000D02*
X171757500Y-93932500D01*
X171757500Y-93932500D02*
X171787500Y-93962500D01*
X126497500Y-130800000D02*
X127200000Y-130800000D01*
%TO.N,/NET_DBG5*%
X126510000Y-126800000D02*
X127200000Y-126800000D01*
X163575000Y-82980000D02*
X162420000Y-82980000D01*
X162420000Y-82980000D02*
X162400000Y-83000000D01*
%TO.N,/NET_DBG6*%
X148657093Y-95420793D02*
X149788943Y-94288943D01*
X148377660Y-95420793D02*
X148657093Y-95420793D01*
X148004190Y-95922909D02*
X148004190Y-95794263D01*
X126510000Y-128800000D02*
X127200000Y-128800000D01*
X162410000Y-81710000D02*
X162400000Y-81700000D01*
X148004190Y-95794263D02*
X148377660Y-95420793D01*
X163575000Y-81710000D02*
X162410000Y-81710000D01*
%TO.N,/MGMT_SWDIO*%
X178557500Y-88595000D02*
X180057500Y-90095000D01*
X170807500Y-92787000D02*
X170807500Y-93942500D01*
X176275500Y-88595000D02*
X178557500Y-88595000D01*
X180057500Y-90095000D02*
X180057500Y-90415000D01*
X170807500Y-93942500D02*
X170787500Y-93962500D01*
X166237500Y-137175000D02*
X166237500Y-134405000D01*
%TO.N,/MGMT_SWCLK*%
X176275500Y-87685745D02*
X178266593Y-87685745D01*
X167240000Y-94240000D02*
X168375000Y-95375000D01*
X169589000Y-92119500D02*
X168315396Y-92119500D01*
X168315396Y-92119500D02*
X167240000Y-93194896D01*
X167267500Y-136205000D02*
X168237500Y-137175000D01*
X167267500Y-134405000D02*
X167267500Y-136205000D01*
X178266593Y-87685745D02*
X181055237Y-90474389D01*
X169700000Y-92230500D02*
X169589000Y-92119500D01*
X167240000Y-93194896D02*
X167240000Y-94240000D01*
%TO.N,/I2S_DACLRC*%
X167090000Y-118800000D02*
X167090000Y-119435449D01*
X167090000Y-119435449D02*
X167192939Y-119538388D01*
%TO.N,/UI_SWDIO*%
X173920000Y-131870000D02*
X173940000Y-131850000D01*
X173940000Y-131850000D02*
X173940000Y-130430000D01*
%TO.N,/BOOT1*%
X162126000Y-100776000D02*
X156650000Y-95300000D01*
X167658789Y-99375000D02*
X167083789Y-99950000D01*
X164400000Y-101360000D02*
X163816500Y-100776500D01*
X162476569Y-100776000D02*
X162126000Y-100776000D01*
X166184948Y-99950000D02*
X164774948Y-101360000D01*
X162477069Y-100776500D02*
X162476569Y-100776000D01*
X156650000Y-95300000D02*
X154040000Y-95300000D01*
X167083789Y-99950000D02*
X166184948Y-99950000D01*
X163816500Y-100776500D02*
X162477069Y-100776500D01*
X164774948Y-101360000D02*
X164400000Y-101360000D01*
X168375000Y-99375000D02*
X167658789Y-99375000D01*
%TO.N,/I2S_BCLK*%
X166590000Y-119412286D02*
X166647709Y-119469995D01*
X166590000Y-118800000D02*
X166590000Y-119412286D01*
%TO.N,/I2S_ADCDAT*%
X168590000Y-118800000D02*
X168590000Y-119452500D01*
X168590000Y-119452500D02*
X168527500Y-119515000D01*
%TO.N,/I2S_DACDAT*%
X167590000Y-119348732D02*
X167741086Y-119499818D01*
X167590000Y-118800000D02*
X167590000Y-119348732D01*
%TO.N,/USB_TX1_MGMT*%
X152762500Y-124690000D02*
X152817500Y-124635000D01*
X172336000Y-92702000D02*
X172336000Y-93914000D01*
X152762500Y-126370000D02*
X152762500Y-124690000D01*
X172336000Y-93914000D02*
X172287500Y-93962500D01*
%TO.N,/USB_RX1_MGMT*%
X172787500Y-93962500D02*
X172787500Y-92974559D01*
X154097500Y-126305000D02*
X154032500Y-126370000D01*
X154097500Y-124765000D02*
X154097500Y-126305000D01*
X172787500Y-92974559D02*
X172972781Y-92789278D01*
%TO.N,/KB_LED*%
X138344500Y-132235000D02*
X137277500Y-132235000D01*
X138107500Y-129435000D02*
X138107500Y-129835000D01*
X137277500Y-132235000D02*
X136607500Y-132905000D01*
X138534500Y-130635000D02*
X138571000Y-130671500D01*
X138571000Y-130671500D02*
X138571000Y-132008500D01*
X138107500Y-129835000D02*
X138107500Y-130232924D01*
X138107500Y-130232924D02*
X138107500Y-130635000D01*
X138107500Y-130635000D02*
X138534500Y-130635000D01*
X138571000Y-132008500D02*
X138344500Y-132235000D01*
%TD*%
%TA.AperFunction,Conductor*%
%TO.N,+3.3V*%
G36*
X177246272Y-69218331D02*
G01*
X177292773Y-69271980D01*
X177304168Y-69324149D01*
X177310943Y-73786138D01*
X177302756Y-73831008D01*
X177285986Y-73875227D01*
X177285985Y-73875230D01*
X177265980Y-74039996D01*
X177265980Y-74040003D01*
X177285985Y-74204769D01*
X177303529Y-74251029D01*
X177311716Y-74295517D01*
X177318768Y-78939221D01*
X177298869Y-79007372D01*
X177276324Y-79033722D01*
X177243924Y-79062427D01*
X177243919Y-79062432D01*
X177149633Y-79199029D01*
X177090771Y-79354232D01*
X177070766Y-79519000D01*
X177070766Y-79519007D01*
X177090772Y-79683776D01*
X177142088Y-79819085D01*
X177147542Y-79889871D01*
X177146615Y-79893917D01*
X177144853Y-79901065D01*
X177124847Y-80065834D01*
X177124847Y-80065841D01*
X177144852Y-80230609D01*
X177161220Y-80273765D01*
X177166674Y-80344552D01*
X177161220Y-80363126D01*
X177128155Y-80450310D01*
X177128153Y-80450317D01*
X177108148Y-80615083D01*
X177108148Y-80615090D01*
X177128153Y-80779858D01*
X177161134Y-80866819D01*
X177166588Y-80937606D01*
X177161134Y-80956179D01*
X177144679Y-80999566D01*
X177144679Y-80999568D01*
X177124673Y-81164337D01*
X177124673Y-81164344D01*
X177144679Y-81329113D01*
X177149270Y-81341219D01*
X177154724Y-81412005D01*
X177149270Y-81430580D01*
X177096198Y-81570515D01*
X177076193Y-81735283D01*
X177076193Y-81735290D01*
X177096198Y-81900058D01*
X177146456Y-82032574D01*
X177151910Y-82103361D01*
X177132344Y-82148825D01*
X177125127Y-82159281D01*
X177125126Y-82159282D01*
X177066264Y-82314485D01*
X177046259Y-82479253D01*
X177046259Y-82479260D01*
X177066264Y-82644028D01*
X177125126Y-82799231D01*
X177219412Y-82935827D01*
X177219415Y-82935831D01*
X177282618Y-82991824D01*
X177320344Y-83051968D01*
X177325065Y-83085945D01*
X177325735Y-83526805D01*
X177305836Y-83594956D01*
X177252251Y-83641530D01*
X177199447Y-83652996D01*
X172578924Y-83642433D01*
X172510849Y-83622275D01*
X172464479Y-83568513D01*
X172454536Y-83498216D01*
X172484176Y-83433703D01*
X172543990Y-83395456D01*
X172565744Y-83391155D01*
X172609093Y-83386494D01*
X172745964Y-83335444D01*
X172745965Y-83335444D01*
X172862904Y-83247904D01*
X172950444Y-83130965D01*
X172950444Y-83130964D01*
X173001494Y-82994093D01*
X173007999Y-82933597D01*
X173008000Y-82933585D01*
X173008000Y-82139000D01*
X168192000Y-82139000D01*
X168192000Y-82933597D01*
X168198505Y-82994093D01*
X168249555Y-83130964D01*
X168249555Y-83130965D01*
X168337095Y-83247904D01*
X168454033Y-83335443D01*
X168598096Y-83389176D01*
X168654931Y-83431723D01*
X168679742Y-83498243D01*
X168664651Y-83567617D01*
X168614448Y-83617820D01*
X168553775Y-83633232D01*
X167264498Y-83630284D01*
X167196423Y-83610126D01*
X167150053Y-83556364D01*
X167138792Y-83505507D01*
X167138721Y-83498216D01*
X167132797Y-82887654D01*
X167152137Y-82819345D01*
X167175233Y-82792126D01*
X167215365Y-82756573D01*
X167309654Y-82619971D01*
X167368513Y-82464774D01*
X167368513Y-82464773D01*
X167368514Y-82464771D01*
X167388520Y-82300003D01*
X167388520Y-82299996D01*
X167368514Y-82135228D01*
X167343748Y-82069928D01*
X167338294Y-81999142D01*
X167343747Y-81980571D01*
X167368513Y-81915271D01*
X167376895Y-81846242D01*
X167388520Y-81750500D01*
X167388520Y-81750493D01*
X167374011Y-81631000D01*
X168192000Y-81631000D01*
X170346000Y-81631000D01*
X170346000Y-80377000D01*
X170854000Y-80377000D01*
X170854000Y-81631000D01*
X173008000Y-81631000D01*
X173008000Y-80836414D01*
X173007999Y-80836402D01*
X173001494Y-80775906D01*
X172950444Y-80639035D01*
X172950444Y-80639034D01*
X172862904Y-80522095D01*
X172745965Y-80434555D01*
X172609093Y-80383505D01*
X172548597Y-80377000D01*
X170854000Y-80377000D01*
X170346000Y-80377000D01*
X168651402Y-80377000D01*
X168590906Y-80383505D01*
X168454035Y-80434555D01*
X168454034Y-80434555D01*
X168337095Y-80522095D01*
X168249555Y-80639034D01*
X168249555Y-80639035D01*
X168198505Y-80775906D01*
X168192000Y-80836402D01*
X168192000Y-81631000D01*
X167374011Y-81631000D01*
X167368514Y-81585725D01*
X167343748Y-81520425D01*
X167338294Y-81449639D01*
X167343747Y-81431068D01*
X167368513Y-81365768D01*
X167371494Y-81341219D01*
X167388520Y-81200997D01*
X167388520Y-81200990D01*
X167368514Y-81036227D01*
X167368514Y-81036226D01*
X167368513Y-81036224D01*
X167368513Y-81036220D01*
X167339035Y-80958497D01*
X167333582Y-80887714D01*
X167339032Y-80869150D01*
X167368513Y-80791418D01*
X167369917Y-80779858D01*
X167388520Y-80626647D01*
X167388520Y-80626640D01*
X167368514Y-80461874D01*
X167368513Y-80461872D01*
X167368513Y-80461870D01*
X167343748Y-80396573D01*
X167338295Y-80325789D01*
X167343750Y-80307211D01*
X167368513Y-80241920D01*
X167368514Y-80241915D01*
X167388520Y-80077148D01*
X167388520Y-80077141D01*
X167368514Y-79912378D01*
X167368513Y-79912374D01*
X167368513Y-79912371D01*
X167338505Y-79833250D01*
X167333052Y-79762467D01*
X167338507Y-79743890D01*
X167361305Y-79683778D01*
X167368513Y-79664774D01*
X167388520Y-79500000D01*
X167370821Y-79354232D01*
X167368514Y-79335228D01*
X167316861Y-79199033D01*
X167309654Y-79180029D01*
X167309652Y-79180027D01*
X167309652Y-79180025D01*
X167215367Y-79043429D01*
X167174667Y-79007372D01*
X167136356Y-78973431D01*
X167098632Y-78913289D01*
X167093918Y-78880356D01*
X167001233Y-69327122D01*
X167020573Y-69258813D01*
X167073775Y-69211802D01*
X167127204Y-69199902D01*
X169553032Y-69199525D01*
X169594663Y-69206595D01*
X169656453Y-69228217D01*
X169837500Y-69248616D01*
X170018547Y-69228217D01*
X170080595Y-69206505D01*
X170122176Y-69199437D01*
X177178149Y-69198340D01*
X177246272Y-69218331D01*
G37*
%TD.AperFunction*%
%TD*%
M02*
