%TF.GenerationSoftware,KiCad,Pcbnew,7.0.5*%
%TF.CreationDate,2023-10-05T13:47:36-07:00*%
%TF.ProjectId,EV9.5 Board Design,4556392e-3520-4426-9f61-726420446573,EV9*%
%TF.SameCoordinates,Original*%
%TF.FileFunction,Soldermask,Top*%
%TF.FilePolarity,Negative*%
%FSLAX46Y46*%
G04 Gerber Fmt 4.6, Leading zero omitted, Abs format (unit mm)*
G04 Created by KiCad (PCBNEW 7.0.5) date 2023-10-05 13:47:36*
%MOMM*%
%LPD*%
G01*
G04 APERTURE LIST*
G04 Aperture macros list*
%AMRoundRect*
0 Rectangle with rounded corners*
0 $1 Rounding radius*
0 $2 $3 $4 $5 $6 $7 $8 $9 X,Y pos of 4 corners*
0 Add a 4 corners polygon primitive as box body*
4,1,4,$2,$3,$4,$5,$6,$7,$8,$9,$2,$3,0*
0 Add four circle primitives for the rounded corners*
1,1,$1+$1,$2,$3*
1,1,$1+$1,$4,$5*
1,1,$1+$1,$6,$7*
1,1,$1+$1,$8,$9*
0 Add four rect primitives between the rounded corners*
20,1,$1+$1,$2,$3,$4,$5,0*
20,1,$1+$1,$4,$5,$6,$7,0*
20,1,$1+$1,$6,$7,$8,$9,0*
20,1,$1+$1,$8,$9,$2,$3,0*%
G04 Aperture macros list end*
%ADD10RoundRect,0.135000X-0.135000X-0.185000X0.135000X-0.185000X0.135000X0.185000X-0.135000X0.185000X0*%
%ADD11RoundRect,0.140000X-0.170000X0.140000X-0.170000X-0.140000X0.170000X-0.140000X0.170000X0.140000X0*%
%ADD12R,1.422400X0.533400*%
%ADD13RoundRect,0.135000X0.135000X0.185000X-0.135000X0.185000X-0.135000X-0.185000X0.135000X-0.185000X0*%
%ADD14RoundRect,0.140000X-0.140000X-0.170000X0.140000X-0.170000X0.140000X0.170000X-0.140000X0.170000X0*%
%ADD15R,0.600000X0.450000*%
%ADD16RoundRect,0.075000X0.075000X-0.662500X0.075000X0.662500X-0.075000X0.662500X-0.075000X-0.662500X0*%
%ADD17RoundRect,0.075000X0.662500X-0.075000X0.662500X0.075000X-0.662500X0.075000X-0.662500X-0.075000X0*%
%ADD18RoundRect,0.140000X0.140000X0.170000X-0.140000X0.170000X-0.140000X-0.170000X0.140000X-0.170000X0*%
%ADD19RoundRect,0.140000X0.170000X-0.140000X0.170000X0.140000X-0.170000X0.140000X-0.170000X-0.140000X0*%
%ADD20RoundRect,0.250000X-0.475000X0.250000X-0.475000X-0.250000X0.475000X-0.250000X0.475000X0.250000X0*%
%ADD21RoundRect,0.135000X-0.185000X0.135000X-0.185000X-0.135000X0.185000X-0.135000X0.185000X0.135000X0*%
%ADD22RoundRect,0.250000X1.500000X-0.250000X1.500000X0.250000X-1.500000X0.250000X-1.500000X-0.250000X0*%
%ADD23RoundRect,0.250001X1.449999X-0.499999X1.449999X0.499999X-1.449999X0.499999X-1.449999X-0.499999X0*%
%ADD24R,0.400000X0.410000*%
%ADD25R,0.400000X0.200000*%
%ADD26RoundRect,0.075000X0.075000X0.700000X-0.075000X0.700000X-0.075000X-0.700000X0.075000X-0.700000X0*%
%ADD27RoundRect,0.075000X0.700000X0.075000X-0.700000X0.075000X-0.700000X-0.075000X0.700000X-0.075000X0*%
%ADD28R,0.500000X1.700000*%
%ADD29R,1.200000X2.500000*%
%ADD30RoundRect,0.218750X-0.218750X-0.256250X0.218750X-0.256250X0.218750X0.256250X-0.218750X0.256250X0*%
%ADD31RoundRect,0.135000X0.185000X-0.135000X0.185000X0.135000X-0.185000X0.135000X-0.185000X-0.135000X0*%
%ADD32C,2.100000*%
%ADD33R,1.700000X1.700000*%
%ADD34O,1.700000X1.700000*%
%ADD35R,1.120000X2.160000*%
%ADD36RoundRect,0.250000X0.650000X-0.325000X0.650000X0.325000X-0.650000X0.325000X-0.650000X-0.325000X0*%
%ADD37RoundRect,0.243750X0.456250X-0.243750X0.456250X0.243750X-0.456250X0.243750X-0.456250X-0.243750X0*%
%ADD38RoundRect,0.250000X0.250000X1.500000X-0.250000X1.500000X-0.250000X-1.500000X0.250000X-1.500000X0*%
%ADD39RoundRect,0.250001X0.499999X1.449999X-0.499999X1.449999X-0.499999X-1.449999X0.499999X-1.449999X0*%
%ADD40RoundRect,0.007500X-0.372500X-0.117500X0.372500X-0.117500X0.372500X0.117500X-0.372500X0.117500X0*%
%ADD41RoundRect,0.007500X0.117500X-0.372500X0.117500X0.372500X-0.117500X0.372500X-0.117500X-0.372500X0*%
%ADD42R,3.650000X3.650000*%
%ADD43RoundRect,0.250000X0.475000X-0.250000X0.475000X0.250000X-0.475000X0.250000X-0.475000X-0.250000X0*%
%ADD44R,0.400000X0.600000*%
%ADD45RoundRect,0.150000X0.150000X-0.825000X0.150000X0.825000X-0.150000X0.825000X-0.150000X-0.825000X0*%
%ADD46R,1.500000X2.000000*%
%ADD47R,3.800000X2.000000*%
%ADD48R,1.500000X0.900000*%
%ADD49R,0.900000X1.500000*%
%ADD50RoundRect,0.250000X-0.250000X-1.500000X0.250000X-1.500000X0.250000X1.500000X-0.250000X1.500000X0*%
%ADD51RoundRect,0.250001X-0.499999X-1.449999X0.499999X-1.449999X0.499999X1.449999X-0.499999X1.449999X0*%
%ADD52RoundRect,0.250000X-1.500000X0.250000X-1.500000X-0.250000X1.500000X-0.250000X1.500000X0.250000X0*%
%ADD53RoundRect,0.250001X-1.449999X0.499999X-1.449999X-0.499999X1.449999X-0.499999X1.449999X0.499999X0*%
%ADD54C,0.650000*%
%ADD55R,0.600000X1.450000*%
%ADD56R,0.300000X1.450000*%
%ADD57O,1.000000X2.100000*%
%ADD58O,1.000000X1.600000*%
%ADD59R,0.500000X0.375000*%
%ADD60R,0.650000X0.300000*%
%ADD61RoundRect,0.150000X-0.150000X0.512500X-0.150000X-0.512500X0.150000X-0.512500X0.150000X0.512500X0*%
%ADD62R,1.400000X1.200000*%
G04 APERTURE END LIST*
D10*
%TO.C,R28*%
X125490000Y-124800000D03*
X126510000Y-124800000D03*
%TD*%
D11*
%TO.C,C13*%
X145910000Y-111900000D03*
X145910000Y-110940000D03*
%TD*%
D12*
%TO.C,CR1*%
X141606000Y-127795000D03*
X141606000Y-129065000D03*
X141606000Y-130335000D03*
X141606000Y-131605000D03*
X147194000Y-131605000D03*
X147194000Y-130335000D03*
X147194000Y-129065000D03*
X147194000Y-127795000D03*
%TD*%
D13*
%TO.C,R20*%
X181482000Y-74414000D03*
X180462000Y-74414000D03*
%TD*%
D14*
%TO.C,C22*%
X145800000Y-112870000D03*
X146760000Y-112870000D03*
%TD*%
D15*
%TO.C,D2*%
X132650000Y-119100000D03*
X134750000Y-119100000D03*
%TD*%
D16*
%TO.C,U5*%
X169787500Y-102287500D03*
X170287500Y-102287500D03*
X170787500Y-102287500D03*
X171287500Y-102287500D03*
X171787500Y-102287500D03*
X172287500Y-102287500D03*
X172787500Y-102287500D03*
X173287500Y-102287500D03*
X173787500Y-102287500D03*
X174287500Y-102287500D03*
X174787500Y-102287500D03*
X175287500Y-102287500D03*
D17*
X176700000Y-100875000D03*
X176700000Y-100375000D03*
X176700000Y-99875000D03*
X176700000Y-99375000D03*
X176700000Y-98875000D03*
X176700000Y-98375000D03*
X176700000Y-97875000D03*
X176700000Y-97375000D03*
X176700000Y-96875000D03*
X176700000Y-96375000D03*
X176700000Y-95875000D03*
X176700000Y-95375000D03*
D16*
X175287500Y-93962500D03*
X174787500Y-93962500D03*
X174287500Y-93962500D03*
X173787500Y-93962500D03*
X173287500Y-93962500D03*
X172787500Y-93962500D03*
X172287500Y-93962500D03*
X171787500Y-93962500D03*
X171287500Y-93962500D03*
X170787500Y-93962500D03*
X170287500Y-93962500D03*
X169787500Y-93962500D03*
D17*
X168375000Y-95375000D03*
X168375000Y-95875000D03*
X168375000Y-96375000D03*
X168375000Y-96875000D03*
X168375000Y-97375000D03*
X168375000Y-97875000D03*
X168375000Y-98375000D03*
X168375000Y-98875000D03*
X168375000Y-99375000D03*
X168375000Y-99875000D03*
X168375000Y-100375000D03*
X168375000Y-100875000D03*
%TD*%
D18*
%TO.C,C33*%
X149380000Y-126700000D03*
X148420000Y-126700000D03*
%TD*%
D19*
%TO.C,C14*%
X146770000Y-99530000D03*
X146770000Y-98570000D03*
%TD*%
D20*
%TO.C,C4*%
X168737500Y-105725000D03*
X168737500Y-107625000D03*
%TD*%
D19*
%TO.C,C3*%
X168737500Y-112455000D03*
X168737500Y-111495000D03*
%TD*%
D21*
%TO.C,R3*%
X149137500Y-134010000D03*
X149137500Y-135030000D03*
%TD*%
D10*
%TO.C,R5*%
X163380000Y-101360000D03*
X164400000Y-101360000D03*
%TD*%
D13*
%TO.C,R10*%
X181482000Y-72636000D03*
X180462000Y-72636000D03*
%TD*%
D19*
%TO.C,C19*%
X137200000Y-117580000D03*
X137200000Y-116620000D03*
%TD*%
D21*
%TO.C,R38*%
X138980000Y-116590000D03*
X138980000Y-117610000D03*
%TD*%
D22*
%TO.C,J8*%
X178437500Y-134325000D03*
X178437500Y-132325000D03*
X178437500Y-130325000D03*
X178437500Y-128325000D03*
X178437500Y-126325000D03*
X178437500Y-124325000D03*
D23*
X184187500Y-136675000D03*
X184187500Y-121975000D03*
%TD*%
D24*
%TO.C,U13*%
X136227500Y-131540000D03*
D25*
X136227500Y-131035000D03*
X136227500Y-130635000D03*
X136227500Y-130232924D03*
X136227500Y-129835000D03*
X136227500Y-129435000D03*
X136227500Y-129035000D03*
X136227500Y-128635000D03*
X136227500Y-128235000D03*
X136227500Y-127835000D03*
X136227500Y-127435000D03*
X136227500Y-127035000D03*
X136227500Y-126635000D03*
D24*
X136227500Y-126130000D03*
X138107500Y-126130000D03*
D25*
X138107500Y-126635000D03*
X138107500Y-127035000D03*
X138107500Y-127435000D03*
X138107500Y-127835000D03*
X138107500Y-128235000D03*
X138107500Y-128635000D03*
X138107500Y-129035000D03*
X138107500Y-129435000D03*
X138107500Y-129835000D03*
X138107500Y-130232924D03*
X138107500Y-130635000D03*
X138107500Y-131035000D03*
D24*
X138107500Y-131540000D03*
%TD*%
D26*
%TO.C,U1*%
X155445000Y-111115000D03*
X154945000Y-111115000D03*
X154445000Y-111115000D03*
X153945000Y-111115000D03*
X153445000Y-111115000D03*
X152945000Y-111115000D03*
X152445000Y-111115000D03*
X151945000Y-111115000D03*
X151445000Y-111115000D03*
X150945000Y-111115000D03*
X150445000Y-111115000D03*
X149945000Y-111115000D03*
X149445000Y-111115000D03*
X148945000Y-111115000D03*
X148445000Y-111115000D03*
X147945000Y-111115000D03*
D27*
X146020000Y-109190000D03*
X146020000Y-108690000D03*
X146020000Y-108190000D03*
X146020000Y-107690000D03*
X146020000Y-107190000D03*
X146020000Y-106690000D03*
X146020000Y-106190000D03*
X146020000Y-105690000D03*
X146020000Y-105190000D03*
X146020000Y-104690000D03*
X146020000Y-104190000D03*
X146020000Y-103690000D03*
X146020000Y-103190000D03*
X146020000Y-102690000D03*
X146020000Y-102190000D03*
X146020000Y-101690000D03*
D26*
X147945000Y-99765000D03*
X148445000Y-99765000D03*
X148945000Y-99765000D03*
X149445000Y-99765000D03*
X149945000Y-99765000D03*
X150445000Y-99765000D03*
X150945000Y-99765000D03*
X151445000Y-99765000D03*
X151945000Y-99765000D03*
X152445000Y-99765000D03*
X152945000Y-99765000D03*
X153445000Y-99765000D03*
X153945000Y-99765000D03*
X154445000Y-99765000D03*
X154945000Y-99765000D03*
X155445000Y-99765000D03*
D27*
X157370000Y-101690000D03*
X157370000Y-102190000D03*
X157370000Y-102690000D03*
X157370000Y-103190000D03*
X157370000Y-103690000D03*
X157370000Y-104190000D03*
X157370000Y-104690000D03*
X157370000Y-105190000D03*
X157370000Y-105690000D03*
X157370000Y-106190000D03*
X157370000Y-106690000D03*
X157370000Y-107190000D03*
X157370000Y-107690000D03*
X157370000Y-108190000D03*
X157370000Y-108690000D03*
X157370000Y-109190000D03*
%TD*%
D19*
%TO.C,C16*%
X163037500Y-119505000D03*
X163037500Y-118545000D03*
%TD*%
D28*
%TO.C,J13*%
X130850000Y-63590000D03*
X129850000Y-63590000D03*
X128850000Y-63590000D03*
X127850000Y-63590000D03*
D29*
X131950000Y-60190000D03*
X126750000Y-60190000D03*
%TD*%
D30*
%TO.C,120R1*%
X161912500Y-103425000D03*
X163487500Y-103425000D03*
%TD*%
D31*
%TO.C,R17*%
X154100000Y-64510000D03*
X154100000Y-63490000D03*
%TD*%
D21*
%TO.C,R13*%
X140100000Y-63490000D03*
X140100000Y-64510000D03*
%TD*%
D19*
%TO.C,C20*%
X180750000Y-98010000D03*
X180750000Y-97050000D03*
%TD*%
D10*
%TO.C,R30*%
X125490000Y-126800000D03*
X126510000Y-126800000D03*
%TD*%
D13*
%TO.C,R4*%
X142810000Y-66600000D03*
X141790000Y-66600000D03*
%TD*%
D32*
%TO.C,REF\u002A\u002A*%
X176937500Y-140345000D03*
%TD*%
D21*
%TO.C,R39*%
X140060000Y-116560000D03*
X140060000Y-117580000D03*
%TD*%
D19*
%TO.C,C5*%
X154787500Y-130555000D03*
X154787500Y-129595000D03*
%TD*%
D33*
%TO.C,J4*%
X183087500Y-79885000D03*
D34*
X183087500Y-82425000D03*
X183087500Y-84965000D03*
X183087500Y-87505000D03*
X183087500Y-90045000D03*
X183087500Y-92585000D03*
X183087500Y-95125000D03*
X183087500Y-97665000D03*
%TD*%
D11*
%TO.C,C8*%
X159500000Y-102995000D03*
X159500000Y-103955000D03*
%TD*%
D21*
%TO.C,R12*%
X148100000Y-63490000D03*
X148100000Y-64510000D03*
%TD*%
%TO.C,R11*%
X149100000Y-63490000D03*
X149100000Y-64510000D03*
%TD*%
D11*
%TO.C,C21*%
X148080000Y-97140000D03*
X148080000Y-98100000D03*
%TD*%
D35*
%TO.C,SW5*%
X158112000Y-58095000D03*
X158112000Y-64825000D03*
%TD*%
D21*
%TO.C,R6*%
X150100000Y-63490000D03*
X150100000Y-64510000D03*
%TD*%
D31*
%TO.C,R16*%
X155100000Y-64510000D03*
X155100000Y-63490000D03*
%TD*%
D22*
%TO.C,J2*%
X178437500Y-117125000D03*
X178437500Y-115125000D03*
D23*
X184187500Y-119475000D03*
X184187500Y-112775000D03*
%TD*%
D32*
%TO.C,REF\u002A\u002A*%
X183087500Y-107925000D03*
%TD*%
D20*
%TO.C,C2*%
X175300000Y-84750000D03*
X175300000Y-86650000D03*
%TD*%
D36*
%TO.C,C29*%
X166437500Y-109180000D03*
X166437500Y-106230000D03*
%TD*%
D14*
%TO.C,C27*%
X161907500Y-117275000D03*
X162867500Y-117275000D03*
%TD*%
D11*
%TO.C,C10*%
X164800000Y-102995000D03*
X164800000Y-103955000D03*
%TD*%
D31*
%TO.C,R24*%
X144100000Y-64510000D03*
X144100000Y-63490000D03*
%TD*%
D18*
%TO.C,C35*%
X181452000Y-76192000D03*
X180492000Y-76192000D03*
%TD*%
%TO.C,C12*%
X155730000Y-113530000D03*
X156690000Y-113530000D03*
%TD*%
D28*
%TO.C,J12*%
X173940000Y-130430000D03*
X172940000Y-130430000D03*
X171940000Y-130430000D03*
X170940000Y-130430000D03*
D29*
X175040000Y-127030000D03*
X169840000Y-127030000D03*
%TD*%
D21*
%TO.C,R37*%
X139800000Y-120790000D03*
X139800000Y-121810000D03*
%TD*%
D31*
%TO.C,R18*%
X153099500Y-64510000D03*
X153099500Y-63490000D03*
%TD*%
D21*
%TO.C,R2*%
X152087500Y-134015000D03*
X152087500Y-135035000D03*
%TD*%
D19*
%TO.C,C25*%
X177437500Y-94255000D03*
X177437500Y-93295000D03*
%TD*%
%TO.C,C1*%
X147870000Y-134970000D03*
X147870000Y-134010000D03*
%TD*%
D31*
%TO.C,R32*%
X149100000Y-88010000D03*
X149100000Y-86990000D03*
%TD*%
D15*
%TO.C,D10*%
X132650000Y-121300000D03*
X134750000Y-121300000D03*
%TD*%
D21*
%TO.C,R8*%
X135627500Y-137625000D03*
X135627500Y-138645000D03*
%TD*%
D37*
%TO.C,D11*%
X150238000Y-131993500D03*
X150238000Y-130118500D03*
%TD*%
D38*
%TO.C,J15*%
X172537500Y-64275000D03*
X170537500Y-64275000D03*
D39*
X174887500Y-58525000D03*
X168187500Y-58525000D03*
%TD*%
D14*
%TO.C,C15*%
X164507500Y-120075000D03*
X165467500Y-120075000D03*
%TD*%
D21*
%TO.C,R15*%
X138100000Y-63490000D03*
X138100000Y-64510000D03*
%TD*%
D40*
%TO.C,U6*%
X164365000Y-114575000D03*
X164365000Y-115075000D03*
X164365000Y-115575000D03*
X164365000Y-116075000D03*
X164365000Y-116575000D03*
X164365000Y-117075000D03*
X164365000Y-117575000D03*
X164365000Y-118075000D03*
D41*
X165090000Y-118800000D03*
X165590000Y-118800000D03*
X166090000Y-118800000D03*
X166590000Y-118800000D03*
X167090000Y-118800000D03*
X167590000Y-118800000D03*
X168090000Y-118800000D03*
X168590000Y-118800000D03*
D40*
X169315000Y-118075000D03*
X169315000Y-117575000D03*
X169315000Y-117075000D03*
X169315000Y-116575000D03*
X169315000Y-116075000D03*
X169315000Y-115575000D03*
X169315000Y-115075000D03*
X169315000Y-114575000D03*
D41*
X168590000Y-113850000D03*
X168090000Y-113850000D03*
X167590000Y-113850000D03*
X167090000Y-113850000D03*
X166590000Y-113850000D03*
X166090000Y-113850000D03*
X165590000Y-113850000D03*
X165090000Y-113850000D03*
D42*
X166840000Y-116325000D03*
%TD*%
D43*
%TO.C,C23*%
X175187500Y-107075000D03*
X175187500Y-105175000D03*
%TD*%
D13*
%TO.C,R9*%
X162897500Y-113075000D03*
X161877500Y-113075000D03*
%TD*%
D21*
%TO.C,R14*%
X139100000Y-63490000D03*
X139100000Y-64510000D03*
%TD*%
D36*
%TO.C,C30*%
X164007500Y-109180000D03*
X164007500Y-106230000D03*
%TD*%
D10*
%TO.C,R22*%
X125490000Y-118800000D03*
X126510000Y-118800000D03*
%TD*%
D35*
%TO.C,SW4*%
X163700000Y-58095000D03*
X163700000Y-64825000D03*
%TD*%
D44*
%TO.C,D4*%
X153662500Y-61695000D03*
X153662500Y-60295000D03*
X154462500Y-60295000D03*
X154462500Y-61695000D03*
%TD*%
D32*
%TO.C,REF\u002A\u002A*%
X117587500Y-69625000D03*
%TD*%
D21*
%TO.C,R36*%
X139800000Y-118490000D03*
X139800000Y-119510000D03*
%TD*%
D45*
%TO.C,U3*%
X151492500Y-126370000D03*
X152762500Y-126370000D03*
X154032500Y-126370000D03*
X155302500Y-126370000D03*
X156572500Y-126370000D03*
X157842500Y-126370000D03*
X159112500Y-126370000D03*
X160382500Y-126370000D03*
X160382500Y-121420000D03*
X159112500Y-121420000D03*
X157842500Y-121420000D03*
X156572500Y-121420000D03*
X155302500Y-121420000D03*
X154032500Y-121420000D03*
X152762500Y-121420000D03*
X151492500Y-121420000D03*
%TD*%
D31*
%TO.C,R23*%
X145100000Y-64510000D03*
X145100000Y-63490000D03*
%TD*%
D11*
%TO.C,C34*%
X168730000Y-92880000D03*
X168730000Y-93840000D03*
%TD*%
D28*
%TO.C,J7*%
X134637500Y-140395000D03*
X135637500Y-140395000D03*
X136637500Y-140395000D03*
X137637500Y-140395000D03*
D29*
X133537500Y-143795000D03*
X138737500Y-143795000D03*
%TD*%
D13*
%TO.C,R41*%
X137627500Y-132905000D03*
X136607500Y-132905000D03*
%TD*%
D10*
%TO.C,R27*%
X125490000Y-122800000D03*
X126510000Y-122800000D03*
%TD*%
D14*
%TO.C,C18*%
X161907500Y-116225000D03*
X162867500Y-116225000D03*
%TD*%
%TO.C,C6*%
X170497500Y-116405000D03*
X171457500Y-116405000D03*
%TD*%
D46*
%TO.C,U2*%
X168300000Y-88185000D03*
X170600000Y-88185000D03*
D47*
X170600000Y-81885000D03*
D46*
X172900000Y-88185000D03*
%TD*%
D44*
%TO.C,D3*%
X138662500Y-61695000D03*
X138662500Y-60295000D03*
X139462500Y-60295000D03*
X139462500Y-61695000D03*
%TD*%
D48*
%TO.C,U11*%
X146075000Y-67740000D03*
X146075000Y-69010000D03*
X146075000Y-70280000D03*
X146075000Y-71550000D03*
X146075000Y-72820000D03*
X146075000Y-74090000D03*
X146075000Y-75360000D03*
X146075000Y-76630000D03*
X146075000Y-77900000D03*
X146075000Y-79170000D03*
X146075000Y-80440000D03*
X146075000Y-81710000D03*
X146075000Y-82980000D03*
X146075000Y-84250000D03*
D49*
X147840000Y-85500000D03*
X149110000Y-85500000D03*
X150380000Y-85500000D03*
X151650000Y-85500000D03*
X152920000Y-85500000D03*
X154190000Y-85500000D03*
X155460000Y-85500000D03*
X156730000Y-85500000D03*
X158000000Y-85500000D03*
X159270000Y-85500000D03*
X160540000Y-85500000D03*
X161810000Y-85500000D03*
D48*
X163575000Y-84250000D03*
X163575000Y-82980000D03*
X163575000Y-81710000D03*
X163575000Y-80440000D03*
X163575000Y-79170000D03*
X163575000Y-77900000D03*
X163575000Y-76630000D03*
X163575000Y-75360000D03*
X163575000Y-74090000D03*
X163575000Y-72820000D03*
X163575000Y-71550000D03*
X163575000Y-70280000D03*
X163575000Y-69010000D03*
X163575000Y-67740000D03*
%TD*%
D14*
%TO.C,C17*%
X161907500Y-115175000D03*
X162867500Y-115175000D03*
%TD*%
D11*
%TO.C,C7*%
X164537500Y-111495000D03*
X164537500Y-112455000D03*
%TD*%
D50*
%TO.C,J11*%
X160237500Y-137175000D03*
X162237500Y-137175000D03*
X164237500Y-137175000D03*
X166237500Y-137175000D03*
X168237500Y-137175000D03*
X170237500Y-137175000D03*
D51*
X157887500Y-142925000D03*
X172587500Y-142925000D03*
%TD*%
D19*
%TO.C,C32*%
X152297500Y-129135000D03*
X152297500Y-128175000D03*
%TD*%
D52*
%TO.C,J10*%
X122350000Y-118800000D03*
X122350000Y-120800000D03*
X122350000Y-122800000D03*
X122350000Y-124800000D03*
X122350000Y-126800000D03*
X122350000Y-128800000D03*
X122350000Y-130800000D03*
X122350000Y-132800000D03*
D53*
X116600000Y-116450000D03*
X116600000Y-135150000D03*
%TD*%
D11*
%TO.C,C31*%
X167687500Y-111495000D03*
X167687500Y-112455000D03*
%TD*%
D28*
%TO.C,J6*%
X166900000Y-130440000D03*
X165900000Y-130440000D03*
X164900000Y-130440000D03*
X163900000Y-130440000D03*
D29*
X168000000Y-127040000D03*
X162800000Y-127040000D03*
%TD*%
D32*
%TO.C,REF\u002A\u002A*%
X183120000Y-69625000D03*
%TD*%
D11*
%TO.C,C9*%
X160600000Y-102995000D03*
X160600000Y-103955000D03*
%TD*%
%TO.C,C24*%
X168847500Y-103185000D03*
X168847500Y-104145000D03*
%TD*%
D39*
%TO.C,J1*%
X142150000Y-117550000D03*
X148850000Y-117550000D03*
D38*
X144500000Y-123300000D03*
X146500000Y-123300000D03*
%TD*%
D32*
%TO.C,REF\u002A\u002A*%
X123637500Y-140345000D03*
%TD*%
D54*
%TO.C,J9*%
X147397500Y-140446000D03*
X153177500Y-140446000D03*
D55*
X147037500Y-139001000D03*
X147837500Y-139001000D03*
D56*
X149037500Y-139001000D03*
X150037500Y-139001000D03*
X150537500Y-139001000D03*
X151537500Y-139001000D03*
D55*
X152737500Y-139001000D03*
X153537500Y-139001000D03*
X153537500Y-139001000D03*
X152737500Y-139001000D03*
D56*
X152037500Y-139001000D03*
X151037500Y-139001000D03*
X149537500Y-139001000D03*
X148537500Y-139001000D03*
D55*
X147837500Y-139001000D03*
X147037500Y-139001000D03*
D57*
X145967500Y-139916000D03*
D58*
X145967500Y-144096000D03*
D57*
X154607500Y-139916000D03*
D58*
X154607500Y-144096000D03*
%TD*%
D44*
%TO.C,D5*%
X143662500Y-61695000D03*
X143662500Y-60295000D03*
X144462500Y-60295000D03*
X144462500Y-61695000D03*
%TD*%
D10*
%TO.C,R29*%
X125477500Y-130800000D03*
X126497500Y-130800000D03*
%TD*%
%TO.C,R26*%
X125490000Y-120800000D03*
X126510000Y-120800000D03*
%TD*%
D14*
%TO.C,C11*%
X154020000Y-97775000D03*
X154980000Y-97775000D03*
%TD*%
D44*
%TO.C,D18*%
X148662500Y-61695000D03*
X148662500Y-60295000D03*
X149462500Y-60295000D03*
X149462500Y-61695000D03*
%TD*%
D59*
%TO.C,U4*%
X157087500Y-129437500D03*
D60*
X157012500Y-129975000D03*
D59*
X157087500Y-130512500D03*
X158787500Y-130512500D03*
D60*
X158862500Y-129975000D03*
D59*
X158787500Y-129437500D03*
%TD*%
D21*
%TO.C,R40*%
X170597500Y-67385000D03*
X170597500Y-68405000D03*
%TD*%
D10*
%TO.C,R31*%
X125490000Y-128800000D03*
X126510000Y-128800000D03*
%TD*%
D61*
%TO.C,U12*%
X138250000Y-119062500D03*
X137300000Y-119062500D03*
X136350000Y-119062500D03*
X136350000Y-121337500D03*
X138250000Y-121337500D03*
%TD*%
D18*
%TO.C,C28*%
X162867500Y-114125000D03*
X161907500Y-114125000D03*
%TD*%
D21*
%TO.C,R7*%
X136737500Y-137665000D03*
X136737500Y-138685000D03*
%TD*%
D19*
%TO.C,C26*%
X166840000Y-101550000D03*
X166840000Y-100590000D03*
%TD*%
D31*
%TO.C,R25*%
X143084000Y-64510000D03*
X143084000Y-63490000D03*
%TD*%
D62*
%TO.C,Y1*%
X170887500Y-106975000D03*
X173087500Y-106975000D03*
X173087500Y-105275000D03*
X170887500Y-105275000D03*
%TD*%
M02*
