M48
; DRILL file {KiCad 7.0.5} date Thu Oct  5 13:47:36 2023
; FORMAT={-:-/ absolute / inch / decimal}
; #@! TF.CreationDate,2023-10-05T13:47:36-07:00
; #@! TF.GenerationSoftware,Kicad,Pcbnew,7.0.5
; #@! TF.FileFunction,Plated,1,4,PTH
FMAT,2
INCH
; #@! TA.AperFunction,Plated,PTH,ViaDrill
T1C0.0079
; #@! TA.AperFunction,Plated,PTH,ComponentDrill
T2C0.0079
; #@! TA.AperFunction,Plated,PTH,ViaDrill
T3C0.0118
; #@! TA.AperFunction,Plated,PTH,ViaDrill
T4C0.0157
; #@! TA.AperFunction,Plated,PTH,ComponentDrill
T5C0.0236
; #@! TA.AperFunction,Plated,PTH,ComponentDrill
T6C0.0394
%
G90
G05
T1
X5.0049Y-2.5297
X5.0066Y-4.6772
X5.0079Y-4.7559
X5.0079Y-4.8346
X5.0079Y-4.9134
X5.0079Y-4.9921
X5.0079Y-5.0709
X5.0079Y-5.1496
X5.0949Y-2.4397
X5.1349Y-2.4397
X5.1705Y-4.6453
X5.1749Y-2.5297
X5.1768Y-4.6226
X5.2889Y-4.9768
X5.295Y-4.9476
X5.3147Y-4.9368
X5.3436Y-5.3873
X5.3454Y-5.1787
X5.35Y-4.9259
X5.3842Y-5.3858
X5.4023Y-5.1506
X5.4336Y-2.563
X5.4441Y-5.2327
X5.4559Y-5.2945
X5.4646Y-4.9727
X5.4686Y-5.126
X5.474Y-5.3524
X5.4828Y-2.5669
X5.4858Y-5.0133
X5.4858Y-5.0865
X5.4865Y-5.0369
X5.4865Y-5.0613
X5.5157Y-2.5669
X5.5276Y-4.6969
X5.53Y-5.4947
X5.53Y-5.5163
X5.5511Y-5.425
X5.5726Y-5.4201
X5.594Y-5.4171
X5.6304Y-2.5638
X5.6796Y-2.5669
X5.7102Y-4.2409
X5.7123Y-4.1034
X5.7124Y-4.4752
X5.7126Y-2.563
X5.7142Y-4.0819
X5.734Y-4.4738
X5.7443Y-5.1813
X5.7567Y-4.4722
X5.7949Y-5.3492
X5.8022Y-3.7758
X5.8269Y-3.7765
X5.8273Y-2.563
X5.848Y-5.0669
X5.8512Y-3.7764
X5.8682Y-4.5318
X5.8685Y-4.2556
X5.8765Y-2.563
X5.8882Y-4.7679
X5.889Y-3.9988
X5.8974Y-3.8131
X5.9008Y-4.7182
X5.9024Y-5.2746
X5.9094Y-2.563
X5.9098Y-4.6142
X5.911Y-4.0166
X5.9127Y-3.8284
X5.9173Y-3.7598
X5.9177Y-4.0457
X5.9271Y-3.8445
X5.9285Y-2.7631
X5.935Y-4.0646
X5.9355Y-3.7756
X5.9356Y-4.6602
X5.9477Y-3.9835
X5.9531Y-4.1245
X5.9592Y-3.8661
X5.9649Y-5.1997
X5.972Y-4.241
X5.9722Y-4.4789
X5.9808Y-3.8665
X5.984Y-4.327
X5.9851Y-4.4992
X5.9936Y-4.241
X6.0005Y-3.9706
X6.0056Y-4.327
X6.0064Y-4.6952
X6.0124Y-2.7644
X6.0164Y-4.9069
X6.0193Y-4.7165
X6.0365Y-4.6312
X6.0424Y-4.2159
X6.0431Y-4.1943
X6.0431Y-4.2376
X6.0476Y-4.434
X6.0504Y-4.4559
X6.0537Y-4.6902
X6.0603Y-4.1764
X6.0641Y-3.752
X6.0668Y-4.912
X6.068Y-4.0311
X6.0934Y-3.686
X6.0948Y-4.1667
X6.0963Y-4.1896
X6.0963Y-4.214
X6.1008Y-4.303
X6.1011Y-4.637
X6.1021Y-4.6604
X6.1021Y-4.682
X6.1149Y-3.6876
X6.1175Y-4.0179
X6.1224Y-3.9742
X6.1252Y-4.303
X6.1284Y-4.1103
X6.1291Y-4.5
X6.1317Y-4.0475
X6.1349Y-3.6961
X6.1457Y-4.0965
X6.1465Y-4.3106
X6.1472Y-3.9988
X6.1516Y-4.1912
X6.1575Y-4.3482
X6.1624Y-5.1171
X6.1657Y-4.4358
X6.2002Y-4.8723
X6.218Y-3.5601
X6.2205Y-3.4134
X6.221Y-3.5387
X6.2393Y-3.6605
X6.252Y-4.1654
X6.252Y-4.189
X6.2553Y-3.5242
X6.2569Y-3.5502
X6.2598Y-4.2398
X6.2661Y-4.2605
X6.2749Y-2.3297
X6.2806Y-4.8589
X6.295Y-3.8553
X6.2987Y-5.1191
X6.3086Y-5.2923
X6.3106Y-3.8702
X6.3133Y-4.6496
X6.3135Y-4.2844
X6.3397Y-4.4033
X6.34Y-2.874
X6.3575Y-3.7531
X6.3581Y-5.0419
X6.3606Y-3.8558
X6.3627Y-4.5321
X6.3661Y-5.1256
X6.378Y-2.9036
X6.378Y-2.9252
X6.3795Y-3.7547
X6.3896Y-3.9848
X6.3937Y-3.2165
X6.3937Y-3.2677
X6.3952Y-2.8639
X6.3952Y-2.8856
X6.399Y-3.6425
X6.4Y-3.6209
X6.4011Y-3.755
X6.4245Y-3.756
X6.44Y-3.3513
X6.4456Y-5.2034
X6.4461Y-3.7555
X6.4462Y-3.8823
X6.4664Y-5.3163
X6.4678Y-3.7557
X6.4678Y-3.8823
X6.4894Y-3.7552
X6.4894Y-3.8823
X6.4921Y-2.815
X6.4921Y-2.8661
X6.499Y-4.0276
X6.5049Y-2.3297
X6.5063Y-5.2915
X6.511Y-3.7547
X6.5111Y-3.8827
X6.5288Y-5.0118
X6.5327Y-3.8827
X6.5367Y-3.7547
X6.5393Y-4.7028
X6.5448Y-5.2915
X6.553Y-4.7274
X6.5548Y-3.8823
X6.5609Y-4.7035
X6.563Y-3.1299
X6.563Y-3.1526
X6.563Y-3.1743
X6.563Y-3.1969
X6.563Y-3.2185
X6.563Y-3.2402
X6.5682Y-5.0118
X6.5684Y-4.0266
X6.572Y-3.6205
X6.5787Y-3.3413
X6.5787Y-3.8823
X6.5824Y-4.7062
X6.5853Y-5.2915
X6.6026Y-2.66
X6.604Y-4.7047
X6.6083Y-2.6051
X6.6091Y-3.6717
X6.6094Y-3.698
X6.6121Y-4.3014
X6.6349Y-4.7053
X6.6352Y-4.2971
X6.6811Y-3.6311
X6.6873Y-3.8922
X6.6905Y-3.9754
X6.691Y-3.9495
X6.7016Y-3.9093
X6.7035Y-3.7453
X6.7122Y-3.9452
X6.7247Y-3.653
X6.7318Y-3.9151
X6.7621Y-3.6522
X6.7849Y-3.6497
X6.7977Y-5.1917
X6.8005Y-3.8437
X6.8027Y-3.9567
X6.81Y-3.6531
X6.8204Y-4.5317
X6.8208Y-4.5037
X6.8249Y-3.7497
X6.8249Y-3.9833
X6.835Y-3.8438
X6.8472Y-5.1917
X6.8566Y-3.8422
X6.8749Y-3.7497
X6.8782Y-3.8421
X6.879Y-3.6424
X6.8975Y-4.538
X6.9011Y-3.7746
X6.9028Y-3.8423
X6.91Y-3.936
X6.9345Y-3.7057
X6.94Y-3.4522
X6.94Y-3.488
X6.9591Y-4.5344
X6.9591Y-4.614
X6.9591Y-4.8967
X6.9591Y-4.9754
X6.9598Y-3.998
X6.9649Y-3.6097
X6.9689Y-4.0205
X6.9974Y-3.2472
X6.9984Y-3.1307
X6.9986Y-3.2179
X6.9999Y-3.1738
X7.0005Y-3.1954
X7.0005Y-3.1522
X7.0061Y-2.915
X7.0104Y-3.3858
X7.0233Y-2.9577
X7.0248Y-2.9867
X7.0249Y-3.3648
X7.0251Y-3.3067
X7.0265Y-3.0118
X7.0265Y-3.3297
X7.0348Y-3.6697
X7.0422Y-3.6953
X7.0484Y-3.8353
X7.0534Y-2.8097
X7.0757Y-2.791
X7.0757Y-2.9297
X7.0889Y-3.5596
X7.1038Y-3.2485
X7.1042Y-3.4372
X7.1259Y-3.4774
X7.1282Y-3.562
X7.1468Y-3.2785
X7.1468Y-3.4943
X7.1481Y-3.5537
T2
X5.9813Y-2.9433
X5.9813Y-2.9984
X6.0089Y-2.9157
X6.0089Y-2.9709
X6.0089Y-3.026
X6.0364Y-2.9433
X6.0364Y-2.9984
X6.064Y-2.9157
X6.064Y-2.9709
X6.064Y-3.026
X6.0915Y-2.9433
X6.0915Y-2.9984
T3
X4.9503Y-5.2281
X5.2228Y-5.4831
X5.2874Y-4.8307
X5.3007Y-5.477
X5.3094Y-5.1238
X5.3622Y-4.6102
X5.4055Y-4.7248
X5.437Y-4.5906
X5.4438Y-5.5019
X5.4578Y-2.3364
X5.5354Y-4.752
X5.5433Y-2.6531
X5.5433Y-4.5891
X5.5709Y-5.2244
X5.655Y-2.3411
X5.689Y-4.752
X5.7154Y-4.4094
X5.7389Y-4.3335
X5.7449Y-3.8996
X5.7677Y-4.7559
X5.7723Y-5.3738
X5.7835Y-3.8474
X5.8071Y-2.6575
X5.8346Y-3.465
X5.8361Y-2.6919
X5.8519Y-2.349
X5.8583Y-5.2411
X5.9673Y-5.0388
X6.0192Y-5.2771
X6.0314Y-5.3195
X6.0472Y-3.815
X6.0487Y-2.3427
X6.0613Y-5.14
X6.0645Y-5.364
X6.092Y-5.0722
X6.0973Y-3.8161
X6.1218Y-5.0413
X6.2795Y-4.1299
X6.342Y-4.4919
X6.3657Y-4.1231
X6.3791Y-4.7077
X6.3834Y-4.6683
X6.4412Y-4.4191
X6.4803Y-4.1299
X6.4849Y-2.6302
X6.4991Y-4.3533
X6.533Y-3.982
X6.5349Y-2.6614
X6.5782Y-3.5348
X6.6181Y-3.3583
X6.6727Y-2.5876
X6.6785Y-4.0896
X6.6786Y-4.4242
X6.6791Y-4.3865
X6.6865Y-2.6943
X6.7121Y-4.5447
X6.7491Y-5.3738
X6.7503Y-4.5407
X6.7645Y-2.6707
X6.7831Y-4.2941
X6.8469Y-2.5689
X6.9173Y-3.5352
X6.9581Y-3.4188
X6.9641Y-3.6397
X7.0755Y-3.9154
X7.1365Y-3.7451
X7.1449Y-2.9639
X7.1449Y-3.0397
T4
X6.4849Y-4.9997
X6.7549Y-5.0364
X7.1049Y-5.0497
T6
X7.2082Y-3.1451
X7.2082Y-3.2451
X7.2082Y-3.3451
X7.2082Y-3.4451
X7.2082Y-3.5451
X7.2082Y-3.6451
X7.2082Y-3.7451
X7.2082Y-3.8451
T5
G00X5.7468Y-5.4869
M15
G01X5.7468Y-5.5302
M16
G05
G00X5.7468Y-5.6613
M15
G01X5.7468Y-5.6849
M16
G05
G00X6.0869Y-5.4869
M15
G01X6.0869Y-5.5302
M16
G05
G00X6.0869Y-5.6613
M15
G01X6.0869Y-5.6849
M16
G05
T0
M30
