%TF.GenerationSoftware,KiCad,Pcbnew,7.0.5*%
%TF.CreationDate,2023-10-05T13:47:36-07:00*%
%TF.ProjectId,EV9.5 Board Design,4556392e-3520-4426-9f61-726420446573,EV9*%
%TF.SameCoordinates,Original*%
%TF.FileFunction,Copper,L4,Bot*%
%TF.FilePolarity,Positive*%
%FSLAX46Y46*%
G04 Gerber Fmt 4.6, Leading zero omitted, Abs format (unit mm)*
G04 Created by KiCad (PCBNEW 7.0.5) date 2023-10-05 13:47:36*
%MOMM*%
%LPD*%
G01*
G04 APERTURE LIST*
%TA.AperFunction,ComponentPad*%
%ADD10R,1.700000X1.700000*%
%TD*%
%TA.AperFunction,ComponentPad*%
%ADD11O,1.700000X1.700000*%
%TD*%
%TA.AperFunction,ComponentPad*%
%ADD12C,0.500000*%
%TD*%
%TA.AperFunction,ComponentPad*%
%ADD13O,1.000000X2.100000*%
%TD*%
%TA.AperFunction,ComponentPad*%
%ADD14O,1.000000X1.600000*%
%TD*%
%TA.AperFunction,ViaPad*%
%ADD15C,0.600000*%
%TD*%
%TA.AperFunction,ViaPad*%
%ADD16C,0.350000*%
%TD*%
%TA.AperFunction,ViaPad*%
%ADD17C,0.800000*%
%TD*%
%TA.AperFunction,Conductor*%
%ADD18C,0.127000*%
%TD*%
%TA.AperFunction,Conductor*%
%ADD19C,0.500000*%
%TD*%
G04 APERTURE END LIST*
D10*
%TO.P,J4,1,Pin_1*%
%TO.N,/DISP_BL*%
X183087500Y-79885000D03*
D11*
%TO.P,J4,2,Pin_2*%
%TO.N,/DISP_RSTR*%
X183087500Y-82425000D03*
%TO.P,J4,3,Pin_3*%
%TO.N,/DISP_DC*%
X183087500Y-84965000D03*
%TO.P,J4,4,Pin_4*%
%TO.N,/DISP_CS*%
X183087500Y-87505000D03*
%TO.P,J4,5,Pin_5*%
%TO.N,/DISP_SPI_SCK*%
X183087500Y-90045000D03*
%TO.P,J4,6,Pin_6*%
%TO.N,/DISP_SPI_MOSI*%
X183087500Y-92585000D03*
%TO.P,J4,7,Pin_7*%
%TO.N,GND*%
X183087500Y-95125000D03*
%TO.P,J4,8,Pin_8*%
%TO.N,/VIN*%
X183087500Y-97665000D03*
%TD*%
D12*
%TO.P,U11,41*%
%TO.N,N/C*%
X151925000Y-74760000D03*
X151925000Y-76160000D03*
X152625000Y-74060000D03*
X152625000Y-75460000D03*
X152625000Y-76860000D03*
X153325000Y-74760000D03*
X153325000Y-76160000D03*
X154025000Y-74060000D03*
X154025000Y-75460000D03*
X154025000Y-76860000D03*
X154725000Y-74760000D03*
X154725000Y-76160000D03*
%TD*%
D13*
%TO.P,J9,S1,SHIELD*%
%TO.N,unconnected-(J9-SHIELD-PadS1)*%
X145967500Y-139916000D03*
D14*
X145967500Y-144096000D03*
D13*
X154607500Y-139916000D03*
D14*
X154607500Y-144096000D03*
%TD*%
D15*
%TO.N,+BATT*%
X144500000Y-120700000D03*
X136200000Y-117100000D03*
%TO.N,GND*%
X146500000Y-120800000D03*
D16*
%TO.N,/UI_SWDIO*%
X149052869Y-115108394D03*
%TO.N,/UI_SDA*%
X145905559Y-131605559D03*
D15*
%TO.N,Net-(D10-K)*%
X173910000Y-65250000D03*
X132660000Y-139270000D03*
D16*
%TO.N,/UI_DBG4*%
X145092974Y-104227044D03*
%TO.N,/UI_DBG3*%
X145140000Y-103680000D03*
X145095541Y-113668944D03*
%TO.N,/UI_DBG4*%
X145643910Y-113633664D03*
%TO.N,Net-(U1-PA12)*%
X145040000Y-107720000D03*
X146220287Y-113595000D03*
X138280000Y-132910000D03*
X139039500Y-135951500D03*
%TO.N,/UI_SCL*%
X153679500Y-113180000D03*
%TO.N,/UI_STAT*%
X172732224Y-97630500D03*
X173608724Y-97631867D03*
X160289115Y-98304115D03*
X161560000Y-97938000D03*
X155745287Y-102805287D03*
%TO.N,/MGMT_BOOT*%
X179028417Y-97417261D03*
X178872000Y-93860000D03*
X165260000Y-134404500D03*
X178429000Y-75861713D03*
X170490092Y-100207932D03*
D15*
%TO.N,+3.3VA*%
X169637500Y-112375000D03*
X163607500Y-112245000D03*
X170487500Y-115435000D03*
X161688500Y-104725500D03*
D16*
%TO.N,+3.3V*%
X165075500Y-102300000D03*
X156610000Y-112670000D03*
D15*
X164716000Y-66806500D03*
D16*
X173352000Y-101175500D03*
X161495000Y-128065000D03*
D15*
X148237000Y-68375000D03*
X162137500Y-118575000D03*
D17*
X171574000Y-127925000D03*
D15*
X155492500Y-128050000D03*
X148637500Y-59665000D03*
D16*
X166446962Y-120075538D03*
X161700000Y-130190000D03*
X162294936Y-101214500D03*
D15*
X181480000Y-75282500D03*
D16*
X160237500Y-134425000D03*
D15*
X138627500Y-59345000D03*
D16*
X167870000Y-93260000D03*
X135727878Y-136838556D03*
D15*
X134637500Y-139115000D03*
X176737000Y-86837500D03*
X143637500Y-59465000D03*
X145768287Y-110070000D03*
X153637500Y-59505000D03*
D16*
X176137500Y-94125000D03*
X166837500Y-102275000D03*
D15*
X145920000Y-99050000D03*
D16*
X169937500Y-100975000D03*
D15*
X153600000Y-96900000D03*
D16*
X136757500Y-136799500D03*
D15*
%TO.N,VBUS*%
X153197500Y-135115000D03*
X148800000Y-133125000D03*
X134300000Y-122700000D03*
D16*
X159987500Y-130025000D03*
D15*
%TO.N,GND*%
X175700000Y-89795000D03*
D16*
X149921225Y-133974500D03*
D15*
X154737500Y-128835000D03*
X169649706Y-111417206D03*
X146617500Y-136495000D03*
X162027997Y-119574503D03*
X151570500Y-127985023D03*
X169635000Y-103875000D03*
X148200000Y-88010000D03*
X125738000Y-132793750D03*
X181267500Y-95125000D03*
D17*
X164716000Y-126992000D03*
D15*
X171457500Y-115335000D03*
D16*
X167880000Y-93930000D03*
D15*
X171427500Y-136495000D03*
D16*
X179157500Y-71366000D03*
D15*
X154871898Y-96928102D03*
D16*
X170270000Y-95130000D03*
D15*
X138272313Y-139748000D03*
X140800000Y-67387500D03*
D16*
X156525500Y-129975000D03*
D15*
X141500000Y-132700000D03*
X164600000Y-104900000D03*
D16*
X135772500Y-131540000D03*
D15*
X145170000Y-112000000D03*
X181480000Y-77208000D03*
D17*
X180464000Y-128262000D03*
D15*
X140600000Y-120700000D03*
X159500000Y-104900000D03*
D16*
X155680000Y-114300000D03*
D15*
X140800000Y-116563000D03*
D16*
X127124000Y-64254000D03*
D15*
X167087500Y-89785000D03*
X165938378Y-101141541D03*
X165986000Y-67599500D03*
X146900000Y-97725000D03*
X147500000Y-67500000D03*
X154037500Y-136245000D03*
X161087500Y-114095000D03*
X138100000Y-116600000D03*
X137300000Y-120010000D03*
D16*
X175288000Y-95875000D03*
D15*
X176887000Y-92448000D03*
X172291250Y-109071250D03*
X152887500Y-134038000D03*
X165077500Y-110575000D03*
%TO.N,/VIN*%
X168100000Y-85300000D03*
X153957500Y-130555000D03*
X169837500Y-68435000D03*
X179717500Y-99450000D03*
D16*
%TO.N,/UI_SDA*%
X140462000Y-139565000D03*
X153610000Y-112624500D03*
X153327000Y-117631830D03*
%TO.N,/UI_SCL*%
X140462000Y-140114503D03*
X148538000Y-128700000D03*
X153765000Y-119130000D03*
%TO.N,/MCLK*%
X166098551Y-119450538D03*
X161029141Y-111844115D03*
X164831735Y-98611500D03*
X173352000Y-95242000D03*
X160363000Y-108824500D03*
X156249542Y-106456047D03*
X161480098Y-95329277D03*
%TO.N,/MGMT_NRST*%
X172787500Y-100500500D03*
X179722000Y-74414000D03*
X175197500Y-115265000D03*
X163717500Y-132165500D03*
X179722000Y-70891500D03*
X164247500Y-135035000D03*
X159382000Y-59174000D03*
X165224000Y-59174000D03*
X178473000Y-76500000D03*
%TO.N,/IN_3*%
X154994000Y-118923000D03*
X142087500Y-137595000D03*
X160357787Y-118100000D03*
X161612000Y-115115000D03*
%TO.N,/NET_RST*%
X166032500Y-95370000D03*
X161035000Y-73000000D03*
X150583839Y-70183839D03*
X152715713Y-70215713D03*
%TO.N,/UI_RST*%
X164282232Y-98611500D03*
X158800000Y-106400000D03*
%TO.N,/MIC_P*%
X140997500Y-137795000D03*
X154968365Y-117779800D03*
%TO.N,/LEDA_R*%
X174156692Y-97590822D03*
X148013000Y-65100000D03*
%TO.N,/DISP_BL*%
X150548204Y-97651087D03*
X177813367Y-80065838D03*
X153494000Y-106535401D03*
X166700000Y-80077145D03*
%TO.N,/DISP_RSTR*%
X181527500Y-83275000D03*
X181527500Y-88755000D03*
X177764713Y-81735287D03*
X166700000Y-81750497D03*
%TO.N,/LEDA_G*%
X174706194Y-97589729D03*
X149262000Y-65100000D03*
%TO.N,/LEDA_B*%
X150100000Y-65100000D03*
X175331261Y-97595369D03*
%TO.N,/KB_COL3*%
X149559500Y-121104643D03*
X138800000Y-126307000D03*
X152889000Y-119800000D03*
X159159925Y-108217153D03*
%TO.N,/KB_COL4*%
X159000000Y-107691437D03*
X152562000Y-119259001D03*
%TO.N,/DISP_DC*%
X166700000Y-80626644D03*
X177796668Y-80615087D03*
%TO.N,/DISP_CS*%
X150182077Y-97241326D03*
X180447500Y-87305000D03*
X177759286Y-79519004D03*
X180437109Y-82512104D03*
X151070993Y-101179806D03*
X166700000Y-79500000D03*
%TO.N,/DISP_SPI_SCK*%
X166700000Y-82300000D03*
X177734779Y-82479257D03*
%TO.N,/DISP_SPI_MOSI*%
X181562911Y-90264103D03*
X177813193Y-81164341D03*
X180997500Y-88327000D03*
X166700000Y-81200994D03*
%TO.N,/NET_TX0_MGMT*%
X166832002Y-127300500D03*
X178438038Y-83989536D03*
X164830634Y-95382208D03*
X178392500Y-75126500D03*
X178065000Y-86000000D03*
X167850000Y-66170000D03*
X164900000Y-71500000D03*
X162438000Y-72743625D03*
%TO.N,/KB_MIC*%
X149793497Y-96852792D03*
D15*
X134857500Y-130145000D03*
D16*
%TO.N,/NET_RX0_MGMT*%
X167100000Y-98611500D03*
X165832002Y-127300500D03*
X178473000Y-84574000D03*
X169858336Y-98862323D03*
X164281276Y-95394775D03*
X178432000Y-85465000D03*
X162438000Y-73293128D03*
X164900000Y-72800000D03*
X167704963Y-67564463D03*
X177954500Y-74040000D03*
%TO.N,/KB_ROW5*%
X139338367Y-129196376D03*
X151208392Y-104762595D03*
%TO.N,/KB_ROW1*%
X134338500Y-126410414D03*
X149580000Y-101568500D03*
%TO.N,/KB_ROW2*%
X134993235Y-125394183D03*
X150139063Y-102020937D03*
%TO.N,/KB_ROW3*%
X150310000Y-102760000D03*
X139338232Y-127338232D03*
%TO.N,/MIC_N*%
X154994000Y-118373592D03*
X141543070Y-137669494D03*
%TO.N,/KB_ROW4*%
X150750000Y-103240000D03*
X139357658Y-128557659D03*
%TO.N,/KB_ROW6*%
X151695000Y-113764883D03*
X138902308Y-130200000D03*
%TO.N,/KB_ROW7*%
X137217500Y-130825000D03*
X152022000Y-114280000D03*
%TO.N,/LEDB_R*%
X158478724Y-92977000D03*
X154771873Y-93625025D03*
X175513000Y-99975500D03*
X138013000Y-65100000D03*
%TO.N,/LEDB_G*%
X155319389Y-93665912D03*
X139262000Y-65200000D03*
%TO.N,Net-(D11-K)*%
X138579500Y-134479500D03*
X140400000Y-119300000D03*
X147190000Y-135870500D03*
X151508000Y-132072000D03*
%TO.N,/LEDB_B*%
X155825500Y-93879932D03*
X140100000Y-65200000D03*
%TO.N,/SPK_LN*%
X176762000Y-117195000D03*
X173237500Y-115105000D03*
%TO.N,/SPK_LP*%
X176762000Y-115175000D03*
X173247500Y-114395000D03*
%TO.N,/HP_R*%
X168533334Y-109146500D03*
X176762000Y-124375000D03*
%TO.N,/HP_L*%
X167947500Y-109255000D03*
X176762000Y-126375000D03*
%TO.N,/KB_COL5*%
X150764000Y-118369744D03*
X139357658Y-127938232D03*
%TO.N,/KB_COL2*%
X149879287Y-119841287D03*
X135889344Y-125117500D03*
D15*
%TO.N,Net-(J15-Pin_2)*%
X169487500Y-65725000D03*
X171817500Y-67835000D03*
D16*
%TO.N,/BTN_RST*%
X169951773Y-100318227D03*
X165381153Y-98619980D03*
X162038463Y-95369830D03*
X131442000Y-64254000D03*
%TO.N,/BTN_UI*%
X166490792Y-98611500D03*
X170220000Y-99295000D03*
X162000000Y-73750497D03*
X163731808Y-95388692D03*
%TO.N,/BTN_NET*%
X165930655Y-98620082D03*
X129410000Y-61968000D03*
X163182486Y-95402752D03*
X170987213Y-99442787D03*
X130426000Y-61968000D03*
X162000000Y-74300000D03*
%TO.N,/KB_COL1*%
X150110000Y-117200000D03*
X134491860Y-125668536D03*
%TO.N,/UI_BOOT*%
X152541919Y-109905499D03*
X150762000Y-95900000D03*
X157938000Y-90427000D03*
X162587906Y-95377906D03*
%TO.N,/UI_DBG1*%
X127168000Y-118800000D03*
X151912000Y-98210000D03*
%TO.N,/UI_LED_B*%
X151992417Y-109905988D03*
X145100000Y-65100000D03*
X153932000Y-106080000D03*
X154808861Y-105833361D03*
%TO.N,/NET_STAT*%
X174725500Y-92515962D03*
X158000000Y-86700000D03*
X162560000Y-91970000D03*
X174622000Y-95242000D03*
%TO.N,/UI_LED_G*%
X156100000Y-104050000D03*
X144262000Y-65200000D03*
%TO.N,/UI_TX1_MGMT*%
X153494000Y-107633929D03*
X154845500Y-107034396D03*
X152237350Y-107721367D03*
X177010000Y-102120000D03*
%TO.N,/UI_RX1_MGMT*%
X153478110Y-107084656D03*
X176780000Y-101550000D03*
X154845500Y-106415607D03*
X151687848Y-107721868D03*
%TO.N,/NET_BOOT*%
X167098500Y-84868934D03*
X165380000Y-95370000D03*
X163575787Y-85124213D03*
%TO.N,/UI_LED_R*%
X159892747Y-97923530D03*
X158800000Y-105800000D03*
X143013000Y-65120000D03*
X163732729Y-98611500D03*
%TO.N,/UI_DBG2*%
X151362621Y-98198360D03*
X127200000Y-120800000D03*
%TO.N,/UI_DBG3*%
X127200000Y-122800000D03*
X131490000Y-117412839D03*
%TO.N,/UI_DBG4*%
X127200000Y-124800000D03*
X131330000Y-117990000D03*
%TO.N,/MGMT_DBG7*%
X127200000Y-130800000D03*
X147374933Y-95904933D03*
X162534935Y-92518931D03*
X166929713Y-91959713D03*
X158884993Y-89515007D03*
X171757500Y-92765000D03*
%TO.N,/NET_DBG5*%
X158014569Y-89882858D03*
X162400000Y-83000000D03*
X127200000Y-126800000D03*
X148619352Y-95920983D03*
%TO.N,/NET_DBG6*%
X127200000Y-128800000D03*
X148004190Y-95922909D03*
X158925279Y-90174720D03*
X162400000Y-81700000D03*
%TO.N,/MGMT_SWDIO*%
X176275500Y-88595000D03*
X180057500Y-90415000D03*
X170807500Y-92787000D03*
X166237500Y-134405000D03*
%TO.N,/MGMT_SWCLK*%
X176275500Y-87685745D03*
X181055237Y-90474389D03*
X167267500Y-134405000D03*
X169700000Y-92230500D03*
%TO.N,/I2S_DACLRC*%
X155578859Y-109295000D03*
X167192939Y-119538388D03*
X155662000Y-104400500D03*
X152413000Y-100852306D03*
%TO.N,/UI_SWDIO*%
X172660573Y-131870000D03*
X149058787Y-108091787D03*
X173920000Y-131870000D03*
%TO.N,/UI_TX1_NET*%
X155385218Y-102054778D03*
X156140000Y-101570000D03*
%TO.N,/BOOT1*%
X154028212Y-95300000D03*
X150300000Y-95500000D03*
%TO.N,/UI_RX1_NET*%
X155509403Y-100944932D03*
X154128152Y-102390380D03*
%TO.N,/I2S_BCLK*%
X154959979Y-109295000D03*
X166647709Y-119469995D03*
%TO.N,/I2S_ADCDAT*%
X168527500Y-119515000D03*
X156120000Y-109490000D03*
%TO.N,/I2S_DACDAT*%
X167741086Y-119499818D03*
X156399308Y-110443192D03*
%TO.N,/USB_TX1_MGMT*%
X152817500Y-124635000D03*
X172336000Y-92702000D03*
X176908000Y-91686000D03*
X159527500Y-123417000D03*
%TO.N,/USB_RX1_MGMT*%
X178683000Y-93210000D03*
X154097500Y-124765000D03*
X172972781Y-92789278D03*
X157486000Y-123757000D03*
%TD*%
D18*
%TO.N,/LEDA_R*%
X148778500Y-65865500D02*
X148013000Y-65100000D01*
X150540604Y-65865500D02*
X148778500Y-65865500D01*
X156519000Y-71843896D02*
X150540604Y-65865500D01*
X156519000Y-91104889D02*
X156519000Y-71843896D01*
X157386224Y-93498620D02*
X157386224Y-91972113D01*
X173792500Y-97192500D02*
X161080104Y-97192500D01*
X157386224Y-91972113D02*
X156519000Y-91104889D01*
X174156692Y-97556692D02*
X173792500Y-97192500D01*
X161080104Y-97192500D02*
X157386224Y-93498620D01*
X174156692Y-97590822D02*
X174156692Y-97556692D01*
%TO.N,/DISP_BL*%
X150548204Y-100038204D02*
X150548204Y-97651087D01*
X151638520Y-101128520D02*
X150548204Y-100038204D01*
X151638520Y-102938520D02*
X151638520Y-101128520D01*
X153494000Y-104794000D02*
X151638520Y-102938520D01*
X153494000Y-106535401D02*
X153494000Y-104794000D01*
%TO.N,/I2S_DACLRC*%
X152413000Y-102770552D02*
X152413000Y-100852306D01*
X154042948Y-104400500D02*
X152413000Y-102770552D01*
X155662000Y-104400500D02*
X154042948Y-104400500D01*
%TO.N,/UI_BOOT*%
X151974500Y-100625500D02*
X152350000Y-100250000D01*
X152350000Y-97488000D02*
X150762000Y-95900000D01*
X151974500Y-102794500D02*
X151974500Y-100625500D01*
X152350000Y-100250000D02*
X152350000Y-97488000D01*
X154370000Y-108077418D02*
X154370000Y-105190000D01*
X152541919Y-109905499D02*
X154370000Y-108077418D01*
X154370000Y-105190000D02*
X151974500Y-102794500D01*
%TO.N,/KB_COL2*%
X135906844Y-125100000D02*
X135889344Y-125117500D01*
X139555444Y-126373000D02*
X138282444Y-125100000D01*
X144373000Y-126373000D02*
X139555444Y-126373000D01*
X138282444Y-125100000D02*
X135906844Y-125100000D01*
X144373000Y-125578649D02*
X144373000Y-126373000D01*
X149540000Y-120180574D02*
X149540000Y-120411649D01*
X149879287Y-119841287D02*
X149540000Y-120180574D01*
X149540000Y-120411649D02*
X144373000Y-125578649D01*
%TO.N,/KB_COL3*%
X139193000Y-126700000D02*
X138800000Y-126307000D01*
X144700000Y-126700000D02*
X139193000Y-126700000D01*
X144700000Y-125871782D02*
X144700000Y-126700000D01*
X149467139Y-121104643D02*
X144700000Y-125871782D01*
X149559500Y-121104643D02*
X149467139Y-121104643D01*
%TO.N,/UI_SWDIO*%
X149258000Y-108291000D02*
X149058787Y-108091787D01*
X149100000Y-114900000D02*
X149258000Y-114742000D01*
X149258000Y-114742000D02*
X149258000Y-108291000D01*
X149052869Y-115108394D02*
X149100000Y-115061263D01*
X149100000Y-115061263D02*
X149100000Y-114900000D01*
%TO.N,Net-(D11-K)*%
X137984000Y-135075000D02*
X138579500Y-134479500D01*
X135037500Y-135075000D02*
X137984000Y-135075000D01*
X133303500Y-133341000D02*
X135037500Y-135075000D01*
X133303500Y-125076441D02*
X133303500Y-133341000D01*
X135087941Y-123292000D02*
X133303500Y-125076441D01*
X138786684Y-121116406D02*
X138786684Y-123292000D01*
X140400000Y-119300000D02*
X140466590Y-119366590D01*
X138786684Y-123292000D02*
X135087941Y-123292000D01*
X140466590Y-119366590D02*
X140466590Y-119436500D01*
X140466590Y-119436500D02*
X138786684Y-121116406D01*
%TO.N,/KB_COL1*%
X134491860Y-125275425D02*
X134491860Y-125668536D01*
X138380340Y-124273000D02*
X135494285Y-124273000D01*
X139826340Y-125719000D02*
X138380340Y-124273000D01*
X143719000Y-125307753D02*
X143719000Y-125719000D01*
X149573000Y-118664552D02*
X148794500Y-119443052D01*
X148794500Y-119443052D02*
X148794500Y-120232253D01*
X149573000Y-118016971D02*
X149573000Y-118664552D01*
X150110000Y-117479971D02*
X149573000Y-118016971D01*
X148794500Y-120232253D02*
X143719000Y-125307753D01*
X135494285Y-124273000D02*
X134491860Y-125275425D01*
X150110000Y-117200000D02*
X150110000Y-117479971D01*
X143719000Y-125719000D02*
X139826340Y-125719000D01*
%TO.N,/KB_ROW2*%
X135787418Y-124600000D02*
X134993235Y-125394183D01*
X138244892Y-124600000D02*
X135787418Y-124600000D01*
X139690892Y-126046000D02*
X138244892Y-124600000D01*
X144046000Y-126046000D02*
X139690892Y-126046000D01*
X144046000Y-125443201D02*
X144046000Y-126046000D01*
X149121500Y-120367701D02*
X144046000Y-125443201D01*
X149121500Y-119578500D02*
X149121500Y-120367701D01*
X149900000Y-118800000D02*
X149121500Y-119578500D01*
X149900000Y-118152419D02*
X149900000Y-118800000D01*
X149871500Y-104970732D02*
X150268348Y-105367580D01*
X150268348Y-105367580D02*
X150268348Y-114996273D01*
X149871500Y-102578367D02*
X149871500Y-104970732D01*
X150548000Y-115275925D02*
X150548000Y-117504419D01*
X150128367Y-102321500D02*
X149871500Y-102578367D01*
X150548000Y-117504419D02*
X149900000Y-118152419D01*
X150268348Y-114996273D02*
X150548000Y-115275925D01*
X150128367Y-102031633D02*
X150128367Y-102321500D01*
X150139063Y-102020937D02*
X150128367Y-102031633D01*
%TO.N,/KB_ROW3*%
X145138000Y-127338232D02*
X139338232Y-127338232D01*
X145138000Y-126144992D02*
X145138000Y-127338232D01*
X150400000Y-120882992D02*
X145138000Y-126144992D01*
X150400000Y-119245133D02*
X150400000Y-120882992D01*
X150595348Y-114860825D02*
X150875000Y-115140477D01*
X150300000Y-118214867D02*
X150300000Y-119145133D01*
X150300000Y-119145133D02*
X150400000Y-119245133D01*
X150595348Y-105232132D02*
X150595348Y-114860825D01*
X150875000Y-117639867D02*
X150300000Y-118214867D01*
X150310000Y-104946784D02*
X150595348Y-105232132D01*
X150875000Y-115140477D02*
X150875000Y-117639867D01*
X150310000Y-102760000D02*
X150310000Y-104946784D01*
%TO.N,/KB_COL5*%
X145465000Y-126280440D02*
X145465000Y-127938232D01*
X150815500Y-120929940D02*
X145465000Y-126280440D01*
X145465000Y-127938232D02*
X139357658Y-127938232D01*
X150815500Y-118421244D02*
X150815500Y-120929940D01*
X150764000Y-118369744D02*
X150815500Y-118421244D01*
%TO.N,/KB_ROW4*%
X145792000Y-128557659D02*
X139357658Y-128557659D01*
X145792000Y-126415888D02*
X145792000Y-128557659D01*
X151202000Y-119906478D02*
X151202000Y-121005888D01*
X151142500Y-118671024D02*
X151142500Y-119846978D01*
X151202000Y-115005029D02*
X151202000Y-118611524D01*
X150922348Y-114725377D02*
X151202000Y-115005029D01*
X151202000Y-118611524D02*
X151142500Y-118671024D01*
X150750000Y-104924336D02*
X150922348Y-105096684D01*
X150922348Y-105096684D02*
X150922348Y-114725377D01*
X150750000Y-103240000D02*
X150750000Y-104924336D01*
X151202000Y-121005888D02*
X145792000Y-126415888D01*
X151142500Y-119846978D02*
X151202000Y-119906478D01*
%TO.N,/KB_ROW5*%
X146792000Y-128520656D02*
X146116280Y-129196376D01*
X146792000Y-125878336D02*
X146792000Y-128520656D01*
X151529000Y-121141336D02*
X146792000Y-125878336D01*
X151469500Y-119711530D02*
X151529000Y-119771030D01*
X151469500Y-118806472D02*
X151469500Y-119711530D01*
X146116280Y-129196376D02*
X139338367Y-129196376D01*
X151249348Y-114589929D02*
X151529000Y-114869581D01*
X151529000Y-119771030D02*
X151529000Y-121141336D01*
X151529000Y-114869581D02*
X151529000Y-118746972D01*
X151529000Y-118746972D02*
X151469500Y-118806472D01*
X151249348Y-104803551D02*
X151249348Y-114589929D01*
X151208392Y-104762595D02*
X151249348Y-104803551D01*
%TO.N,/KB_ROW6*%
X139087312Y-130385004D02*
X138902308Y-130200000D01*
X147119000Y-128656104D02*
X145390100Y-130385004D01*
X147119000Y-126013784D02*
X147119000Y-128656104D01*
X151796500Y-119576082D02*
X151856000Y-119635582D01*
X151856000Y-121276784D02*
X147119000Y-126013784D01*
X151856000Y-118882420D02*
X151796500Y-118941920D01*
X151583500Y-114461633D02*
X151856000Y-114734133D01*
X145390100Y-130385004D02*
X139087312Y-130385004D01*
X151695000Y-113986867D02*
X151583500Y-114098367D01*
X151583500Y-114098367D02*
X151583500Y-114461633D01*
X151856000Y-114734133D02*
X151856000Y-118882420D01*
X151695000Y-113764883D02*
X151695000Y-113986867D01*
X151856000Y-119635582D02*
X151856000Y-121276784D01*
X151796500Y-118941920D02*
X151796500Y-119576082D01*
%TO.N,/KB_ROW7*%
X145412552Y-130825000D02*
X137217500Y-130825000D01*
X147446000Y-128791552D02*
X145412552Y-130825000D01*
X152183000Y-121412232D02*
X147446000Y-126149232D01*
X152183000Y-119017868D02*
X152123500Y-119077368D01*
X152183000Y-119500134D02*
X152183000Y-121412232D01*
X152183000Y-114441000D02*
X152183000Y-119017868D01*
X152123500Y-119077368D02*
X152123500Y-119440634D01*
X147446000Y-126149232D02*
X147446000Y-128791552D01*
X152022000Y-114280000D02*
X152183000Y-114441000D01*
X152123500Y-119440634D02*
X152183000Y-119500134D01*
%TO.N,/KB_COL4*%
X159366541Y-107691437D02*
X159000000Y-107691437D01*
X159597500Y-107922396D02*
X159366541Y-107691437D01*
X159597500Y-108540053D02*
X159597500Y-107922396D01*
X159364552Y-108773000D02*
X159597500Y-108540053D01*
X157165367Y-108773000D02*
X159364552Y-108773000D01*
X154546844Y-108520000D02*
X156912367Y-108520000D01*
X152510000Y-110556844D02*
X154546844Y-108520000D01*
X152510000Y-119207001D02*
X152510000Y-110556844D01*
X156912367Y-108520000D02*
X157165367Y-108773000D01*
X152562000Y-119259001D02*
X152510000Y-119207001D01*
%TO.N,/KB_COL3*%
X158905583Y-108217153D02*
X159159925Y-108217153D01*
X158561500Y-107873070D02*
X158905583Y-108217153D01*
X158561500Y-107475000D02*
X158561500Y-107873070D01*
X158800000Y-107236500D02*
X158561500Y-107475000D01*
X159924500Y-107786948D02*
X159374052Y-107236500D01*
X159924500Y-108675501D02*
X159924500Y-107786948D01*
X159500000Y-109100000D02*
X159924500Y-108675501D01*
X154778346Y-108856500D02*
X156786419Y-108856500D01*
X156786419Y-108856500D02*
X157029919Y-109100000D01*
X159374052Y-107236500D02*
X158800000Y-107236500D01*
X157029919Y-109100000D02*
X159500000Y-109100000D01*
X152837000Y-110797846D02*
X154778346Y-108856500D01*
X153000000Y-118724867D02*
X152837000Y-118561867D01*
X152837000Y-118561867D02*
X152837000Y-110797846D01*
X152889000Y-119800000D02*
X153000000Y-119689000D01*
X153000000Y-119689000D02*
X153000000Y-118724867D01*
%TO.N,/UI_SDA*%
X148100000Y-129411118D02*
X145905559Y-131605559D01*
X148100000Y-126420128D02*
X148100000Y-129411118D01*
X153327000Y-121193128D02*
X148100000Y-126420128D01*
X153327000Y-117631830D02*
X153327000Y-121193128D01*
X153190000Y-116306198D02*
X153241500Y-116254698D01*
X153241500Y-116254698D02*
X153241500Y-112993000D01*
X153190000Y-117494830D02*
X153190000Y-116306198D01*
X153327000Y-117631830D02*
X153190000Y-117494830D01*
X153241500Y-112993000D02*
X153610000Y-112624500D01*
%TO.N,/KB_ROW1*%
X134207500Y-126279414D02*
X134338500Y-126410414D01*
X134207500Y-126004309D02*
X134207500Y-126279414D01*
X134053360Y-125850169D02*
X134207500Y-126004309D01*
X134053360Y-125251477D02*
X134053360Y-125850169D01*
X135358837Y-123946000D02*
X134053360Y-125251477D01*
X138515788Y-123946000D02*
X135358837Y-123946000D01*
X139961788Y-125392000D02*
X138515788Y-123946000D01*
X143392000Y-125392000D02*
X139961788Y-125392000D01*
X149912000Y-116350448D02*
X148425578Y-117836870D01*
X148425578Y-117836870D02*
X148425578Y-120138727D01*
X148425578Y-120138727D02*
X143392000Y-125172305D01*
X149912000Y-105473680D02*
X149912000Y-116350448D01*
X149544500Y-105106180D02*
X149912000Y-105473680D01*
X143392000Y-125172305D02*
X143392000Y-125392000D01*
X149580000Y-101568500D02*
X149544500Y-101604000D01*
X149544500Y-101604000D02*
X149544500Y-105106180D01*
%TO.N,/KB_MIC*%
X133630500Y-128918000D02*
X134857500Y-130145000D01*
X133630500Y-125211889D02*
X133630500Y-128918000D01*
X135223389Y-123619000D02*
X133630500Y-125211889D01*
X144482857Y-123619000D02*
X135223389Y-123619000D01*
X148098578Y-120003279D02*
X144482857Y-123619000D01*
X149585000Y-116215000D02*
X148098578Y-117701422D01*
X149585000Y-105609128D02*
X149585000Y-116215000D01*
X149720000Y-100808367D02*
X149141500Y-101386867D01*
X149141500Y-101386867D02*
X149141500Y-105165628D01*
X149141500Y-105165628D02*
X149585000Y-105609128D01*
X149720000Y-96926289D02*
X149720000Y-100808367D01*
X148098578Y-117701422D02*
X148098578Y-120003279D01*
X149793497Y-96852792D02*
X149720000Y-96926289D01*
%TO.N,/UI_SDA*%
X145905559Y-131605559D02*
X140232000Y-137279118D01*
%TO.N,/NET_DBG6*%
X127200000Y-128770000D02*
X127200000Y-128800000D01*
X131173000Y-124797000D02*
X127200000Y-128770000D01*
X131173000Y-119324552D02*
X131173000Y-124797000D01*
X134824552Y-115673000D02*
X131173000Y-119324552D01*
X140887345Y-115673000D02*
X134824552Y-115673000D01*
X140890845Y-115669500D02*
X140887345Y-115673000D01*
X147528052Y-115669500D02*
X140890845Y-115669500D01*
X148293287Y-114904265D02*
X147528052Y-115669500D01*
X148293287Y-101310184D02*
X148293287Y-114904265D01*
X149066000Y-100537471D02*
X148293287Y-101310184D01*
X146936433Y-95723300D02*
X146936433Y-96086566D01*
X149066000Y-98216133D02*
X149066000Y-100537471D01*
X148004190Y-95804190D02*
X147649000Y-95449000D01*
X147210733Y-95449000D02*
X146936433Y-95723300D01*
X146936433Y-96086566D02*
X149066000Y-98216133D01*
X148004190Y-95922909D02*
X148004190Y-95804190D01*
X147649000Y-95449000D02*
X147210733Y-95449000D01*
%TO.N,/UI_DBG4*%
X146401920Y-114033500D02*
X146658287Y-113777133D01*
X146658287Y-113777133D02*
X146658287Y-104358287D01*
X146038654Y-114033500D02*
X146401920Y-114033500D01*
X146527044Y-104227044D02*
X145092974Y-104227044D01*
X145781787Y-113776633D02*
X146038654Y-114033500D01*
X145781787Y-113771541D02*
X145781787Y-113776633D01*
X145643910Y-113633664D02*
X145781787Y-113771541D01*
X146658287Y-104358287D02*
X146527044Y-104227044D01*
%TO.N,Net-(U1-PA12)*%
X146220000Y-107720000D02*
X145040000Y-107720000D01*
X146331287Y-107831287D02*
X146220000Y-107720000D01*
X146331287Y-113484000D02*
X146331287Y-107831287D01*
X146220287Y-113595000D02*
X146331287Y-113484000D01*
%TO.N,/UI_DBG3*%
X146815287Y-103680000D02*
X145140000Y-103680000D01*
X146985287Y-103850000D02*
X146815287Y-103680000D01*
X146985287Y-114361500D02*
X146985287Y-103850000D01*
X145751613Y-114361500D02*
X146985287Y-114361500D01*
X145205410Y-113815297D02*
X145751613Y-114361500D01*
X145205410Y-113778813D02*
X145205410Y-113815297D01*
X145095541Y-113668944D02*
X145205410Y-113778813D01*
%TO.N,/UI_DBG1*%
X131275500Y-114692000D02*
X127167500Y-118800000D01*
X140481001Y-114692000D02*
X131275500Y-114692000D01*
X140484501Y-114688500D02*
X140481001Y-114692000D01*
X147121708Y-114688500D02*
X140484501Y-114688500D01*
X147312287Y-114497921D02*
X147121708Y-114688500D01*
X147312287Y-100903840D02*
X147312287Y-114497921D01*
X148085000Y-100131128D02*
X147312287Y-100903840D01*
X148085000Y-99377448D02*
X148085000Y-100131128D01*
X147323052Y-98615500D02*
X148085000Y-99377448D01*
X146531142Y-98615500D02*
X147323052Y-98615500D01*
X145955433Y-95316956D02*
X145955433Y-98039791D01*
X146804390Y-94468000D02*
X145955433Y-95316956D01*
X148647867Y-94468000D02*
X146804390Y-94468000D01*
X145955433Y-98039791D02*
X146531142Y-98615500D01*
X150738052Y-96338500D02*
X150518367Y-96338500D01*
X151912000Y-97512448D02*
X150738052Y-96338500D01*
X150518367Y-96338500D02*
X148647867Y-94468000D01*
X151912000Y-98210000D02*
X151912000Y-97512448D01*
%TO.N,/UI_DBG2*%
X132981000Y-115019000D02*
X127200000Y-120800000D01*
X140616449Y-115019000D02*
X132981000Y-115019000D01*
X140619949Y-115015500D02*
X140616449Y-115019000D01*
X147639287Y-114633369D02*
X147257156Y-115015500D01*
X147639287Y-101039288D02*
X147639287Y-114633369D01*
X148412000Y-100266575D02*
X147639287Y-101039288D01*
X147257156Y-115015500D02*
X140619949Y-115015500D01*
X148412000Y-99242000D02*
X148412000Y-100266575D01*
X147458500Y-98288500D02*
X148412000Y-99242000D01*
X146282433Y-95452404D02*
X146282433Y-97904343D01*
X146939837Y-94795000D02*
X146282433Y-95452404D01*
X146282433Y-97904343D02*
X146666590Y-98288500D01*
X146666590Y-98288500D02*
X147458500Y-98288500D01*
X148355132Y-94795000D02*
X146939837Y-94795000D01*
X151362621Y-97802489D02*
X148355132Y-94795000D01*
X151362621Y-98198360D02*
X151362621Y-97802489D01*
%TO.N,/NET_DBG5*%
X130846000Y-123154000D02*
X127200000Y-126800000D01*
X130846000Y-119189104D02*
X130846000Y-123154000D01*
X134689104Y-115346000D02*
X130846000Y-119189104D01*
X140751897Y-115346000D02*
X134689104Y-115346000D01*
X140755397Y-115342500D02*
X140751897Y-115346000D01*
X147392604Y-115342500D02*
X140755397Y-115342500D01*
X147966287Y-114768817D02*
X147392604Y-115342500D01*
X147966287Y-101174736D02*
X147966287Y-114768817D01*
X148739000Y-98524344D02*
X148739000Y-100402023D01*
X147075285Y-95122000D02*
X146609433Y-95587852D01*
X147822707Y-95122000D02*
X147075285Y-95122000D01*
X148619352Y-95918645D02*
X147822707Y-95122000D01*
X146609433Y-95587852D02*
X146609433Y-96394777D01*
X146609433Y-96394777D02*
X148739000Y-98524344D01*
X148619352Y-95920983D02*
X148619352Y-95918645D01*
X148739000Y-100402023D02*
X147966287Y-101174736D01*
%TO.N,/MGMT_DBG7*%
X131500000Y-119460000D02*
X131500000Y-126500000D01*
X134960000Y-116000000D02*
X131500000Y-119460000D01*
X141022793Y-116000000D02*
X134960000Y-116000000D01*
X148620287Y-115039713D02*
X147663500Y-115996500D01*
X147663500Y-115996500D02*
X141026293Y-115996500D01*
X141026293Y-115996500D02*
X141022793Y-116000000D01*
X149393000Y-100672919D02*
X148620287Y-101445632D01*
X149393000Y-97993000D02*
X149393000Y-100672919D01*
X147374933Y-95974933D02*
X149393000Y-97993000D01*
X131500000Y-126500000D02*
X127200000Y-130800000D01*
X148620287Y-101445632D02*
X148620287Y-115039713D01*
X147374933Y-95904933D02*
X147374933Y-95974933D01*
%TO.N,/UI_RX1_MGMT*%
X153423140Y-107084656D02*
X153478110Y-107084656D01*
X152078584Y-107260000D02*
X153247796Y-107260000D01*
X151687848Y-107721868D02*
X151687848Y-107650736D01*
X151687848Y-107650736D02*
X152078584Y-107260000D01*
X153247796Y-107260000D02*
X153423140Y-107084656D01*
%TO.N,/UI_TX1_MGMT*%
X152237350Y-107721367D02*
X153406562Y-107721367D01*
X153406562Y-107721367D02*
X153494000Y-107633929D01*
%TO.N,/UI_LED_B*%
X151992417Y-109834868D02*
X151992417Y-109905988D01*
X153932000Y-106080000D02*
X153932000Y-107895285D01*
X153932000Y-107895285D02*
X151992417Y-109834868D01*
%TO.N,/UI_TX1_MGMT*%
X176347552Y-102120000D02*
X177010000Y-102120000D01*
X171986000Y-98396000D02*
X172623552Y-98396000D01*
X171763500Y-98173500D02*
X171986000Y-98396000D01*
X172623552Y-98396000D02*
X176347552Y-102120000D01*
X155811042Y-105913054D02*
X163550596Y-98173500D01*
X163550596Y-98173500D02*
X171763500Y-98173500D01*
X155811042Y-106068958D02*
X155811042Y-105913054D01*
X154845604Y-107034396D02*
X155811042Y-106068958D01*
X154845500Y-107034396D02*
X154845604Y-107034396D01*
%TO.N,/UI_RX1_MGMT*%
X176240000Y-101550000D02*
X176780000Y-101550000D01*
X171898948Y-97846500D02*
X172121448Y-98069000D01*
X163415148Y-97846500D02*
X171898948Y-97846500D01*
X172121448Y-98069000D02*
X172759000Y-98069000D01*
X154846041Y-106415607D02*
X163415148Y-97846500D01*
X172759000Y-98069000D02*
X176240000Y-101550000D01*
X154845500Y-106415607D02*
X154846041Y-106415607D01*
%TO.N,/UI_LED_B*%
X146192500Y-66192500D02*
X145100000Y-65100000D01*
X156192000Y-71979344D02*
X150405156Y-66192500D01*
X156192000Y-91240337D02*
X156192000Y-71979344D01*
X157059224Y-92107561D02*
X156192000Y-91240337D01*
X157059224Y-93634068D02*
X157059224Y-92107561D01*
X154808861Y-105833361D02*
X154965839Y-105833361D01*
X154965839Y-105833361D02*
X161090000Y-99709200D01*
X161090000Y-99709200D02*
X161090000Y-97664844D01*
X161090000Y-97664844D02*
X157059224Y-93634068D01*
X150405156Y-66192500D02*
X146192500Y-66192500D01*
%TO.N,/DISP_CS*%
X150080000Y-100188813D02*
X150080000Y-97343403D01*
X151070993Y-101179806D02*
X150080000Y-100188813D01*
X150080000Y-97343403D02*
X150182077Y-97241326D01*
%TO.N,Net-(U1-PA12)*%
X138280000Y-132910000D02*
X139039500Y-133669500D01*
X139039500Y-133669500D02*
X139039500Y-135951500D01*
%TO.N,/UI_DBG3*%
X127250000Y-122800000D02*
X127200000Y-122800000D01*
X130192000Y-119858000D02*
X127250000Y-122800000D01*
X130192000Y-118507867D02*
X130192000Y-119858000D01*
X131287028Y-117412839D02*
X130192000Y-118507867D01*
X131490000Y-117412839D02*
X131287028Y-117412839D01*
%TO.N,/UI_SCL*%
X153679500Y-116333250D02*
X153765000Y-116418750D01*
X153679500Y-113180000D02*
X153679500Y-116333250D01*
X153765000Y-116418750D02*
X153765000Y-119130000D01*
%TO.N,/UI_LED_G*%
X145581500Y-66519500D02*
X144262000Y-65200000D01*
X150269708Y-66519500D02*
X145581500Y-66519500D01*
X155865000Y-72114792D02*
X150269708Y-66519500D01*
X155865000Y-91375785D02*
X155865000Y-72114792D01*
X156732224Y-92243009D02*
X155865000Y-91375785D01*
X156732224Y-93769516D02*
X156732224Y-92243009D01*
X160763000Y-97800292D02*
X156732224Y-93769516D01*
X156100000Y-104050000D02*
X156100000Y-103112656D01*
X156100000Y-103112656D02*
X160763000Y-98449656D01*
X160763000Y-98449656D02*
X160763000Y-97800292D01*
%TO.N,/I2S_BCLK*%
X166647709Y-115612761D02*
X166647709Y-119469995D01*
X164226000Y-113191052D02*
X166647709Y-115612761D01*
X164226000Y-111993500D02*
X164226000Y-113191052D01*
X163805547Y-111573047D02*
X164226000Y-111993500D01*
X161377500Y-111573047D02*
X163805547Y-111573047D01*
X161155000Y-111350547D02*
X161377500Y-111573047D01*
X155860547Y-111350547D02*
X161155000Y-111350547D01*
X154959979Y-109295000D02*
X154959979Y-110449979D01*
X154959979Y-110449979D02*
X155860547Y-111350547D01*
%TO.N,/I2S_DACLRC*%
X167192939Y-115695543D02*
X167192939Y-119538388D01*
X164553000Y-113055604D02*
X167192939Y-115695543D01*
X164553000Y-111858052D02*
X164553000Y-113055604D01*
X163940995Y-111246047D02*
X164553000Y-111858052D01*
X161512948Y-111246047D02*
X163940995Y-111246047D01*
X161290448Y-111023547D02*
X161512948Y-111246047D01*
X155578859Y-110528859D02*
X156073547Y-111023547D01*
X155578859Y-109295000D02*
X155578859Y-110528859D01*
X156073547Y-111023547D02*
X161290448Y-111023547D01*
%TO.N,/I2S_ADCDAT*%
X168527500Y-119320113D02*
X168527500Y-119515000D01*
X167876534Y-118669147D02*
X168527500Y-119320113D01*
X167876534Y-115454242D02*
X167876534Y-118669147D01*
X165228172Y-112805880D02*
X167876534Y-115454242D01*
X165228172Y-111608328D02*
X165228172Y-112805880D01*
X164211891Y-110592047D02*
X165228172Y-111608328D01*
X161802948Y-110592047D02*
X164211891Y-110592047D01*
X161580448Y-110369547D02*
X161802948Y-110592047D01*
X156999547Y-110369547D02*
X161580448Y-110369547D01*
X156120000Y-109490000D02*
X156999547Y-110369547D01*
%TO.N,/UI_RX1_NET*%
X155509403Y-101009129D02*
X154128152Y-102390380D01*
X155509403Y-100944932D02*
X155509403Y-101009129D01*
%TO.N,/UI_STAT*%
X160190104Y-98403126D02*
X160289115Y-98304115D01*
X160190104Y-98560104D02*
X160190104Y-98403126D01*
X155944921Y-102805287D02*
X160190104Y-98560104D01*
X155745287Y-102805287D02*
X155944921Y-102805287D01*
%TO.N,/UI_TX1_NET*%
X155385218Y-102054778D02*
X155869996Y-101570000D01*
X155869996Y-101570000D02*
X156140000Y-101570000D01*
%TO.N,/MCLK*%
X157479500Y-106909500D02*
X158283000Y-106909500D01*
X157026047Y-106456047D02*
X157479500Y-106909500D01*
X156249542Y-106456047D02*
X157026047Y-106456047D01*
%TO.N,/UI_LED_R*%
X158800000Y-104803090D02*
X158800000Y-105800000D01*
X159791693Y-104336500D02*
X159266590Y-104336500D01*
X159266590Y-104336500D02*
X158800000Y-104803090D01*
X163740000Y-100388193D02*
X159791693Y-104336500D01*
X163740000Y-98618771D02*
X163740000Y-100388193D01*
X163732729Y-98611500D02*
X163740000Y-98618771D01*
%TO.N,/UI_RST*%
X159040052Y-106400000D02*
X158800000Y-106400000D01*
X160773000Y-103817641D02*
X160773000Y-104667052D01*
X160773000Y-104667052D02*
X159040052Y-106400000D01*
X164282232Y-100308409D02*
X160773000Y-103817641D01*
X164282232Y-98611500D02*
X164282232Y-100308409D01*
%TO.N,/I2S_DACDAT*%
X167741086Y-118996147D02*
X167741086Y-119499818D01*
X167519939Y-118775000D02*
X167741086Y-118996147D01*
X164901172Y-111743776D02*
X164901172Y-112941328D01*
X164901172Y-112941328D02*
X167519939Y-115560095D01*
X164076443Y-110919047D02*
X164901172Y-111743776D01*
X161667500Y-110919047D02*
X164076443Y-110919047D01*
X161445000Y-110696547D02*
X161667500Y-110919047D01*
X156652663Y-110696547D02*
X161445000Y-110696547D01*
X156399308Y-110443192D02*
X156652663Y-110696547D01*
X167519939Y-115560095D02*
X167519939Y-118775000D01*
%TO.N,/MCLK*%
X161100000Y-104802500D02*
X158993000Y-106909500D01*
X158993000Y-106909500D02*
X158283000Y-106909500D01*
X161100000Y-103953089D02*
X161100000Y-104802500D01*
X164831735Y-100221354D02*
X161100000Y-103953089D01*
X164831735Y-98611500D02*
X164831735Y-100221354D01*
%TO.N,/BTN_RST*%
X165492155Y-98801715D02*
X167008667Y-100318227D01*
X165492155Y-98730982D02*
X165492155Y-98801715D01*
X167008667Y-100318227D02*
X169951773Y-100318227D01*
X165381153Y-98619980D02*
X165492155Y-98730982D01*
%TO.N,/BTN_NET*%
X170697000Y-99733000D02*
X170987213Y-99442787D01*
X169895209Y-99853000D02*
X170015209Y-99733000D01*
X170015209Y-99733000D02*
X170697000Y-99733000D01*
X166052292Y-98793133D02*
X167112159Y-99853000D01*
X165930655Y-98620082D02*
X166052292Y-98741719D01*
X167112159Y-99853000D02*
X169895209Y-99853000D01*
X166052292Y-98741719D02*
X166052292Y-98793133D01*
%TO.N,/BTN_UI*%
X169926419Y-99295000D02*
X170220000Y-99295000D01*
X167394367Y-99526000D02*
X169695419Y-99526000D01*
X166661500Y-98793133D02*
X167394367Y-99526000D01*
X166490792Y-98611500D02*
X166661500Y-98782208D01*
X166661500Y-98782208D02*
X166661500Y-98793133D01*
X169695419Y-99526000D02*
X169926419Y-99295000D01*
%TO.N,/NET_RX0_MGMT*%
X169521659Y-99199000D02*
X169858336Y-98862323D01*
X167100000Y-98611500D02*
X167687500Y-99199000D01*
X167687500Y-99199000D02*
X169521659Y-99199000D01*
%TO.N,/UI_STAT*%
X172145396Y-97630500D02*
X172034396Y-97519500D01*
X172034396Y-97519500D02*
X162155604Y-97519500D01*
X162155604Y-97519500D02*
X161737104Y-97938000D01*
X173607357Y-97630500D02*
X172145396Y-97630500D01*
X161737104Y-97938000D02*
X161560000Y-97938000D01*
X173608724Y-97631867D02*
X173607357Y-97630500D01*
%TO.N,/LEDB_R*%
X158478724Y-93203776D02*
X158478724Y-92977000D01*
X161486448Y-96211500D02*
X158478724Y-93203776D01*
X175769261Y-97366761D02*
X174614000Y-96211500D01*
X175769261Y-99719239D02*
X175769261Y-97366761D01*
X174614000Y-96211500D02*
X161486448Y-96211500D01*
X175513000Y-99975500D02*
X175769261Y-99719239D01*
%TO.N,/LEDA_G*%
X149700500Y-65538500D02*
X149262000Y-65100000D01*
X150676052Y-65538500D02*
X149700500Y-65538500D01*
X157713224Y-91836665D02*
X156846000Y-90969441D01*
X156846000Y-71708448D02*
X150676052Y-65538500D01*
X161215552Y-96865500D02*
X157713224Y-93363172D01*
X156846000Y-90969441D02*
X156846000Y-71708448D01*
X174706194Y-97432750D02*
X174138944Y-96865500D01*
X174706194Y-97589729D02*
X174706194Y-97432750D01*
X174138944Y-96865500D02*
X161215552Y-96865500D01*
X157713224Y-93363172D02*
X157713224Y-91836665D01*
%TO.N,/LEDA_B*%
X150700000Y-65100000D02*
X150100000Y-65100000D01*
X157173000Y-71573000D02*
X150700000Y-65100000D01*
X157173000Y-90833993D02*
X157173000Y-71573000D01*
X158040224Y-91701217D02*
X157173000Y-90833993D01*
X158040224Y-93227724D02*
X158040224Y-91701217D01*
X174274392Y-96538500D02*
X161351000Y-96538500D01*
X175331261Y-97595369D02*
X174274392Y-96538500D01*
X161351000Y-96538500D02*
X158040224Y-93227724D01*
%TO.N,/MGMT_BOOT*%
X177602156Y-102558500D02*
X177602156Y-95681194D01*
X176134687Y-102558500D02*
X177602156Y-102558500D01*
X173636187Y-100060000D02*
X176134687Y-102558500D01*
X170490092Y-100207932D02*
X170638024Y-100060000D01*
X170638024Y-100060000D02*
X173636187Y-100060000D01*
X177602156Y-95681194D02*
X178881675Y-94401675D01*
%TO.N,/MGMT_NRST*%
X177439000Y-107117902D02*
X177439000Y-113023500D01*
X172787500Y-102466402D02*
X177439000Y-107117902D01*
X172787500Y-100500500D02*
X172787500Y-102466402D01*
X178573000Y-76600000D02*
X178473000Y-76500000D01*
X178867000Y-76600000D02*
X178573000Y-76600000D01*
X178867000Y-82569448D02*
X178867000Y-76600000D01*
X177627000Y-83809448D02*
X178867000Y-82569448D01*
X177627000Y-89864552D02*
X177627000Y-83809448D01*
X179692000Y-91929552D02*
X177627000Y-89864552D01*
X179692000Y-94053798D02*
X179692000Y-91929552D01*
X177929156Y-95816642D02*
X179692000Y-94053798D01*
X177439000Y-113023500D02*
X175197500Y-115265000D01*
X177766000Y-102885500D02*
X177766000Y-102857104D01*
X177766000Y-102857104D02*
X177929156Y-102693948D01*
X175999239Y-102885500D02*
X177766000Y-102885500D01*
X173614239Y-100500500D02*
X175999239Y-102885500D01*
X172787500Y-100500500D02*
X173614239Y-100500500D01*
X177929156Y-102693948D02*
X177929156Y-95816642D01*
%TO.N,/UI_LED_R*%
X150134260Y-66846500D02*
X144739500Y-66846500D01*
X155538000Y-72250240D02*
X150134260Y-66846500D01*
X155538000Y-91511233D02*
X155538000Y-72250240D01*
X156405224Y-93904964D02*
X156405224Y-92378457D01*
X159892747Y-97392487D02*
X156405224Y-93904964D01*
X156405224Y-92378457D02*
X155538000Y-91511233D01*
X144739500Y-66846500D02*
X143013000Y-65120000D01*
X159892747Y-97923530D02*
X159892747Y-97392487D01*
%TO.N,/MGMT_BOOT*%
X176369344Y-130308000D02*
X179028417Y-127648927D01*
X169714367Y-130308000D02*
X176369344Y-130308000D01*
X179028417Y-127648927D02*
X179028417Y-97417261D01*
X165260000Y-134404500D02*
X165617867Y-134404500D01*
X165617867Y-134404500D02*
X169714367Y-130308000D01*
%TO.N,/MGMT_SWCLK*%
X167267500Y-133837448D02*
X167267500Y-134405000D01*
X170142948Y-130962000D02*
X167267500Y-133837448D01*
X176640240Y-130962000D02*
X170142948Y-130962000D01*
X179728000Y-127874240D02*
X176640240Y-130962000D01*
X179728000Y-100772000D02*
X179728000Y-127874240D01*
X180734500Y-99765500D02*
X179728000Y-100772000D01*
X180704000Y-94891590D02*
X180704000Y-95358410D01*
X181000000Y-90529626D02*
X181000000Y-94595590D01*
X180734500Y-95388910D02*
X180734500Y-99765500D01*
X181055237Y-90474389D02*
X181000000Y-90529626D01*
X181000000Y-94595590D02*
X180704000Y-94891590D01*
X180704000Y-95358410D02*
X180734500Y-95388910D01*
%TO.N,/MGMT_SWDIO*%
X180673000Y-91030500D02*
X180057500Y-90415000D01*
X180673000Y-94460142D02*
X180673000Y-91030500D01*
X180377000Y-94756142D02*
X180673000Y-94460142D01*
X180377000Y-95493858D02*
X180377000Y-94756142D01*
X180407500Y-95524358D02*
X180377000Y-95493858D01*
X180407500Y-99630052D02*
X180407500Y-95524358D01*
X179401000Y-100636552D02*
X180407500Y-99630052D01*
X179401000Y-127738792D02*
X179401000Y-100636552D01*
X176504792Y-130635000D02*
X179401000Y-127738792D01*
X166237500Y-134405000D02*
X170007500Y-130635000D01*
X170007500Y-130635000D02*
X176504792Y-130635000D01*
%TO.N,/NET_TX0_MGMT*%
X166806292Y-127326210D02*
X166832002Y-127300500D01*
X166806292Y-129373792D02*
X166806292Y-127326210D01*
X167086500Y-129654000D02*
X166806292Y-129373792D01*
X178256156Y-127496292D02*
X176098448Y-129654000D01*
X180019000Y-94189246D02*
X178256156Y-95952090D01*
X180019000Y-91794104D02*
X180019000Y-94189246D01*
X178256156Y-95952090D02*
X178256156Y-127496292D01*
X177954000Y-89729104D02*
X180019000Y-91794104D01*
X177954000Y-86111000D02*
X177954000Y-89729104D01*
X176098448Y-129654000D02*
X167086500Y-129654000D01*
X178065000Y-86000000D02*
X177954000Y-86111000D01*
%TO.N,/NET_RX0_MGMT*%
X165806790Y-127325712D02*
X165832002Y-127300500D01*
X165806790Y-129374290D02*
X165806790Y-127325712D01*
X166413500Y-129981000D02*
X165806790Y-129374290D01*
X176233896Y-129981000D02*
X166413500Y-129981000D01*
X178583156Y-127631740D02*
X176233896Y-129981000D01*
X180346000Y-91323633D02*
X180346000Y-94324694D01*
X180346000Y-94324694D02*
X178583156Y-96087538D01*
X178583156Y-96087538D02*
X178583156Y-127631740D01*
X178281000Y-86404133D02*
X178281000Y-89258633D01*
X178503500Y-85536500D02*
X178503500Y-86181633D01*
X178503500Y-86181633D02*
X178281000Y-86404133D01*
X178281000Y-89258633D02*
X180346000Y-91323633D01*
X178432000Y-85465000D02*
X178503500Y-85536500D01*
%TO.N,/MGMT_BOOT*%
X178872000Y-94392000D02*
X178881675Y-94401675D01*
X178872000Y-93860000D02*
X178872000Y-94392000D01*
X179365000Y-93918350D02*
X178881675Y-94401675D01*
X179365000Y-92065000D02*
X179365000Y-93918350D01*
X178251867Y-82722133D02*
X177300000Y-83674000D01*
X178000000Y-76290713D02*
X178000000Y-79139585D01*
X178251867Y-79391452D02*
X178251867Y-82722133D01*
X177300000Y-90000000D02*
X179365000Y-92065000D01*
X178429000Y-75861713D02*
X178000000Y-76290713D01*
X177300000Y-83674000D02*
X177300000Y-90000000D01*
X178000000Y-79139585D02*
X178251867Y-79391452D01*
%TO.N,/NET_DBG5*%
X164838000Y-85005500D02*
X162832500Y-83000000D01*
X162832500Y-83000000D02*
X162400000Y-83000000D01*
X164070500Y-89230402D02*
X164838000Y-88462902D01*
X164838000Y-88462902D02*
X164838000Y-85005500D01*
X164070500Y-92521948D02*
X164070500Y-89230402D01*
X161416142Y-93284431D02*
X163308017Y-93284431D01*
X163308017Y-93284431D02*
X164070500Y-92521948D01*
X158014569Y-89882858D02*
X161416142Y-93284431D01*
%TO.N,/NET_DBG6*%
X161961500Y-82138500D02*
X162400000Y-81700000D01*
X161961500Y-83181633D02*
X161961500Y-82138500D01*
X162354867Y-83575000D02*
X161961500Y-83181633D01*
X162646000Y-83575000D02*
X162354867Y-83575000D01*
X164511000Y-85440000D02*
X162646000Y-83575000D01*
X164511000Y-88327454D02*
X164511000Y-85440000D01*
X163743500Y-92386500D02*
X163743500Y-89094954D01*
X163743500Y-89094954D02*
X164511000Y-88327454D01*
X163172569Y-92957431D02*
X163743500Y-92386500D01*
X158974720Y-90174720D02*
X161757431Y-92957431D01*
X161757431Y-92957431D02*
X163172569Y-92957431D01*
X158925279Y-90174720D02*
X158974720Y-90174720D01*
%TO.N,/MGMT_DBG7*%
X162534935Y-92518931D02*
X161888917Y-92518931D01*
X161888917Y-92518931D02*
X158884993Y-89515007D01*
%TO.N,/NET_STAT*%
X157827000Y-86873000D02*
X158000000Y-86700000D01*
X157827000Y-87837588D02*
X157827000Y-86873000D01*
X161959412Y-91970000D02*
X157827000Y-87837588D01*
X162560000Y-91970000D02*
X161959412Y-91970000D01*
%TO.N,/UI_SDA*%
X140500000Y-138380081D02*
X140500000Y-139527000D01*
X140232000Y-137279118D02*
X140232000Y-138112081D01*
X140232000Y-138112081D02*
X140500000Y-138380081D01*
X140500000Y-139527000D02*
X140462000Y-139565000D01*
%TO.N,/UI_SCL*%
X140559000Y-137976633D02*
X140900500Y-138318133D01*
X140900500Y-138318133D02*
X140900500Y-139746633D01*
X153876000Y-121106576D02*
X149699500Y-125283075D01*
X148819000Y-128700000D02*
X148819000Y-129310983D01*
X148819000Y-129310983D02*
X140559000Y-137570983D01*
X140559000Y-137570983D02*
X140559000Y-137976633D01*
X140900500Y-139746633D02*
X140532630Y-140114503D01*
X148538000Y-128700000D02*
X148819000Y-128700000D01*
X153876000Y-119241000D02*
X153876000Y-121106576D01*
X140532630Y-140114503D02*
X140462000Y-140114503D01*
X149699500Y-125283075D02*
X149699500Y-127819500D01*
X153765000Y-119130000D02*
X153876000Y-119241000D01*
X149699500Y-127819500D02*
X148819000Y-128700000D01*
%TO.N,/MCLK*%
X170169500Y-95884500D02*
X170812000Y-95242000D01*
X162204995Y-111900047D02*
X166098551Y-115793603D01*
X170812000Y-95242000D02*
X173352000Y-95242000D01*
X161621896Y-95884500D02*
X170169500Y-95884500D01*
X161480098Y-95742702D02*
X161621896Y-95884500D01*
X166098551Y-115793603D02*
X166098551Y-119450538D01*
X160363000Y-107763000D02*
X159509500Y-106909500D01*
X160363000Y-108824500D02*
X160363000Y-107763000D01*
X161480098Y-95329277D02*
X161480098Y-95742702D01*
X159509500Y-106909500D02*
X158283000Y-106909500D01*
X161029141Y-111844115D02*
X161085073Y-111900047D01*
X161085073Y-111900047D02*
X162204995Y-111900047D01*
%TO.N,/MGMT_NRST*%
X165224000Y-59174000D02*
X159382000Y-59174000D01*
X179722000Y-74414000D02*
X179722000Y-70891500D01*
X163717500Y-134505000D02*
X164247500Y-135035000D01*
X163717500Y-132165500D02*
X163717500Y-134505000D01*
%TO.N,/IN_3*%
X161612000Y-116845787D02*
X161612000Y-115115000D01*
X154970000Y-121399919D02*
X150680500Y-125689419D01*
X150680500Y-129002000D02*
X142087500Y-137595000D01*
X160357787Y-118100000D02*
X161612000Y-116845787D01*
X150680500Y-125689419D02*
X150680500Y-129002000D01*
X154970000Y-118947000D02*
X154970000Y-121399919D01*
X154994000Y-118923000D02*
X154970000Y-118947000D01*
%TO.N,/NET_RST*%
X152715713Y-70215713D02*
X150615713Y-70215713D01*
X165500000Y-82300000D02*
X167536500Y-84336500D01*
X161729875Y-72305125D02*
X163205125Y-72305125D01*
X167536500Y-84336500D02*
X167536500Y-85120795D01*
X167536500Y-85120795D02*
X166800000Y-85857295D01*
X165500000Y-74610208D02*
X165500000Y-82300000D01*
X163205125Y-72305125D02*
X164640000Y-73740000D01*
X161035000Y-73000000D02*
X161729875Y-72305125D01*
X164638000Y-73748208D02*
X165500000Y-74610208D01*
X166032500Y-90043090D02*
X166032500Y-95370000D01*
X150615713Y-70215713D02*
X150583839Y-70183839D01*
X166800000Y-85857295D02*
X166800000Y-89275590D01*
X166800000Y-89275590D02*
X166032500Y-90043090D01*
%TO.N,/MIC_P*%
X154661344Y-117779800D02*
X154203000Y-118238144D01*
X150026500Y-125418523D02*
X150026500Y-128565931D01*
X154968365Y-117779800D02*
X154661344Y-117779800D01*
X154203000Y-121242023D02*
X150026500Y-125418523D01*
X150026500Y-128565931D02*
X140997500Y-137594931D01*
X140997500Y-137594931D02*
X140997500Y-137795000D01*
X154203000Y-118238144D02*
X154203000Y-121242023D01*
%TO.N,/DISP_BL*%
X166700000Y-80077145D02*
X167173063Y-80077145D01*
X167173063Y-80077145D02*
X168458208Y-78792000D01*
X177655838Y-80065838D02*
X177813367Y-80065838D01*
X168458208Y-78792000D02*
X176382000Y-78792000D01*
X176382000Y-78792000D02*
X177655838Y-80065838D01*
%TO.N,/DISP_RSTR*%
X166700000Y-81750497D02*
X166887055Y-81750497D01*
X168864552Y-79773000D02*
X175733000Y-79773000D01*
X175733000Y-79773000D02*
X177695287Y-81735287D01*
X181527500Y-88755000D02*
X181527500Y-83275000D01*
X177695287Y-81735287D02*
X177764713Y-81735287D01*
X166887055Y-81750497D02*
X168864552Y-79773000D01*
%TO.N,/DISP_DC*%
X167086012Y-80626644D02*
X168593656Y-79119000D01*
X177735087Y-80615087D02*
X177796668Y-80615087D01*
X168593656Y-79119000D02*
X176239000Y-79119000D01*
X176239000Y-79119000D02*
X177735087Y-80615087D01*
X166700000Y-80626644D02*
X167086012Y-80626644D01*
%TO.N,/DISP_CS*%
X180437109Y-82512104D02*
X180437109Y-87294609D01*
X168322760Y-78465000D02*
X176705282Y-78465000D01*
X167287760Y-79500000D02*
X168322760Y-78465000D01*
X180437109Y-87294609D02*
X180447500Y-87305000D01*
X176705282Y-78465000D02*
X177759286Y-79519004D01*
X166700000Y-79500000D02*
X167287760Y-79500000D01*
%TO.N,/DISP_SPI_SCK*%
X166800000Y-82300000D02*
X169000000Y-80100000D01*
X175430000Y-80100000D02*
X177734779Y-82404779D01*
X177734779Y-82404779D02*
X177734779Y-82479257D01*
X169000000Y-80100000D02*
X175430000Y-80100000D01*
X166700000Y-82300000D02*
X166800000Y-82300000D01*
%TO.N,/DISP_SPI_MOSI*%
X180997500Y-88327000D02*
X180997500Y-89698692D01*
X177704341Y-81164341D02*
X177813193Y-81164341D01*
X166700000Y-81200994D02*
X166974110Y-81200994D01*
X166974110Y-81200994D02*
X168729104Y-79446000D01*
X175986000Y-79446000D02*
X177704341Y-81164341D01*
X168729104Y-79446000D02*
X175986000Y-79446000D01*
X180997500Y-89698692D02*
X181562911Y-90264103D01*
%TO.N,/NET_TX0_MGMT*%
X165173000Y-74745656D02*
X163227344Y-72800000D01*
X164900000Y-71500000D02*
X165737552Y-71500000D01*
X164830634Y-95299233D02*
X165378500Y-94751367D01*
X179375000Y-76109000D02*
X178392500Y-75126500D01*
X166146000Y-89004694D02*
X166146000Y-83808448D01*
X165378500Y-89772194D02*
X166146000Y-89004694D01*
X179375000Y-83052574D02*
X179375000Y-76109000D01*
X167266463Y-66753537D02*
X167850000Y-66170000D01*
X162494375Y-72800000D02*
X162438000Y-72743625D01*
X165173000Y-82835448D02*
X165173000Y-74745656D01*
X163227344Y-72800000D02*
X162494375Y-72800000D01*
X164830634Y-95382208D02*
X164830634Y-95299233D01*
X167266463Y-69971089D02*
X167266463Y-66753537D01*
X165737552Y-71500000D02*
X167266463Y-69971089D01*
X165378500Y-94751367D02*
X165378500Y-89772194D01*
X178438038Y-83989536D02*
X179375000Y-83052574D01*
X166146000Y-83808448D02*
X165173000Y-82835448D01*
%TO.N,/NET_RX0_MGMT*%
X162544872Y-73400000D02*
X162438000Y-73293128D01*
X164846000Y-82970896D02*
X164846000Y-74881104D01*
X165051500Y-89636746D02*
X165819000Y-88869246D01*
X179702000Y-75787500D02*
X177954500Y-74040000D01*
X164281276Y-95228724D02*
X165051500Y-94458500D01*
X178473000Y-84574000D02*
X179702000Y-83345000D01*
X167704963Y-69995037D02*
X164900000Y-72800000D01*
X164846000Y-74881104D02*
X163364896Y-73400000D01*
X165819000Y-83943896D02*
X164846000Y-82970896D01*
X179702000Y-83345000D02*
X179702000Y-75787500D01*
X165819000Y-88869246D02*
X165819000Y-83943896D01*
X167704963Y-67564463D02*
X167704963Y-69995037D01*
X163364896Y-73400000D02*
X162544872Y-73400000D01*
X165051500Y-94458500D02*
X165051500Y-89636746D01*
X164281276Y-95394775D02*
X164281276Y-95228724D01*
%TO.N,/MIC_N*%
X150353500Y-128708867D02*
X141543070Y-137519297D01*
X154994000Y-118373592D02*
X154530000Y-118373592D01*
X141543070Y-137519297D02*
X141543070Y-137669494D01*
X154530000Y-118373592D02*
X154530000Y-121377471D01*
X150353500Y-125553971D02*
X150353500Y-128708867D01*
X154530000Y-121377471D02*
X150353500Y-125553971D01*
%TO.N,/LEDB_R*%
X144175471Y-67827500D02*
X142574971Y-66227000D01*
X139140000Y-66227000D02*
X138013000Y-65100000D01*
X154771873Y-93625025D02*
X154771873Y-92132450D01*
X150446000Y-77870896D02*
X150446000Y-73570896D01*
X154557000Y-91917577D02*
X154557000Y-81981896D01*
X142574971Y-66227000D02*
X139140000Y-66227000D01*
X150446000Y-73570896D02*
X144702604Y-67827500D01*
X154771873Y-92132450D02*
X154557000Y-91917577D01*
X154557000Y-81981896D02*
X150446000Y-77870896D01*
X144702604Y-67827500D02*
X144175471Y-67827500D01*
%TO.N,/LEDB_G*%
X144838052Y-67500500D02*
X144310919Y-67500500D01*
X155319389Y-92217518D02*
X154884000Y-91782129D01*
X155319389Y-93665912D02*
X155319389Y-92217518D01*
X142710419Y-65900000D02*
X139962000Y-65900000D01*
X144310919Y-67500500D02*
X142710419Y-65900000D01*
X154884000Y-81846448D02*
X150773000Y-77735448D01*
X139962000Y-65900000D02*
X139262000Y-65200000D01*
X150773000Y-77735448D02*
X150773000Y-73435448D01*
X154884000Y-91782129D02*
X154884000Y-81846448D01*
X150773000Y-73435448D02*
X144838052Y-67500500D01*
%TO.N,Net-(D11-K)*%
X150988500Y-132072000D02*
X151508000Y-132072000D01*
X147190000Y-135870500D02*
X150988500Y-132072000D01*
%TO.N,/LEDB_B*%
X142472867Y-65200000D02*
X140100000Y-65200000D01*
X151100000Y-73300000D02*
X144973500Y-67173500D01*
X144446367Y-67173500D02*
X142472867Y-65200000D01*
X155825500Y-93879932D02*
X155936500Y-93768932D01*
X151100000Y-77600000D02*
X151100000Y-73300000D01*
X155211000Y-81711000D02*
X151100000Y-77600000D01*
X155211000Y-91646681D02*
X155211000Y-81711000D01*
X155936500Y-92372181D02*
X155211000Y-91646681D01*
X144973500Y-67173500D02*
X144446367Y-67173500D01*
X155936500Y-93768932D02*
X155936500Y-92372181D01*
%TO.N,/SPK_LN*%
X173237500Y-115105000D02*
X175327500Y-117195000D01*
X175327500Y-117195000D02*
X176762000Y-117195000D01*
%TO.N,/SPK_LP*%
X173247500Y-114405000D02*
X173247500Y-114395000D01*
X176762000Y-115175000D02*
X176082000Y-115855000D01*
X174697500Y-115855000D02*
X173247500Y-114405000D01*
X176082000Y-115855000D02*
X174697500Y-115855000D01*
%TO.N,/HP_R*%
X171004896Y-109257500D02*
X168447500Y-109257500D01*
X172767500Y-111020104D02*
X171004896Y-109257500D01*
X173477500Y-124375000D02*
X172767500Y-123665000D01*
X176762000Y-124375000D02*
X173477500Y-124375000D01*
X168447500Y-109257500D02*
X168447500Y-109232334D01*
X172767500Y-123665000D02*
X172767500Y-111020104D01*
X168447500Y-109232334D02*
X168533334Y-109146500D01*
%TO.N,/HP_L*%
X170869448Y-109584500D02*
X172440500Y-111155552D01*
X168277000Y-109584500D02*
X170869448Y-109584500D01*
X167947500Y-109255000D02*
X168277000Y-109584500D01*
X172440500Y-111155552D02*
X172440500Y-125278000D01*
X173537500Y-126375000D02*
X176762000Y-126375000D01*
X172440500Y-125278000D02*
X173537500Y-126375000D01*
D19*
%TO.N,Net-(J15-Pin_2)*%
X171817500Y-67835000D02*
X169707500Y-65725000D01*
X169707500Y-65725000D02*
X169487500Y-65725000D01*
D18*
%TO.N,/BTN_RST*%
X157500000Y-90698545D02*
X157500000Y-65000000D01*
X155500000Y-63000000D02*
X132696000Y-63000000D01*
X162038463Y-95369830D02*
X162038463Y-95237008D01*
X162038463Y-95237008D02*
X157500000Y-90698545D01*
X132696000Y-63000000D02*
X131442000Y-64254000D01*
X157500000Y-65000000D02*
X155500000Y-63000000D01*
%TO.N,/BTN_UI*%
X164724500Y-89501298D02*
X165492000Y-88733798D01*
X163731808Y-95278192D02*
X164724500Y-94285500D01*
X164519000Y-75016552D02*
X163252945Y-73750497D01*
X163731808Y-95388692D02*
X163731808Y-95278192D01*
X164519000Y-83106344D02*
X164519000Y-75016552D01*
X163252945Y-73750497D02*
X162000000Y-73750497D01*
X164724500Y-94285500D02*
X164724500Y-89501298D01*
X165492000Y-84079344D02*
X164519000Y-83106344D01*
X165492000Y-88733798D02*
X165492000Y-84079344D01*
%TO.N,/BTN_NET*%
X163182486Y-95402752D02*
X163182486Y-95317881D01*
X165165000Y-84214792D02*
X164192000Y-83241792D01*
X164192000Y-83241792D02*
X164192000Y-75152000D01*
X164397500Y-94102867D02*
X164397500Y-89365850D01*
X165165000Y-88598350D02*
X165165000Y-84214792D01*
X164397500Y-89365850D02*
X165165000Y-88598350D01*
X163340000Y-74300000D02*
X162000000Y-74300000D01*
X163182486Y-95317881D02*
X164397500Y-94102867D01*
X164192000Y-75152000D02*
X163340000Y-74300000D01*
X130426000Y-61968000D02*
X129410000Y-61968000D01*
%TO.N,/UI_BOOT*%
X162587906Y-95377906D02*
X162587906Y-95003813D01*
X162587906Y-95003813D02*
X158011093Y-90427000D01*
X158011093Y-90427000D02*
X157938000Y-90427000D01*
%TO.N,/NET_STAT*%
X174622000Y-92619462D02*
X174725500Y-92515962D01*
X174622000Y-95242000D02*
X174622000Y-92619462D01*
%TO.N,/NET_BOOT*%
X165705500Y-89907642D02*
X166473000Y-89140142D01*
X165705500Y-95044500D02*
X165705500Y-89907642D01*
X166473000Y-85494434D02*
X167098500Y-84868934D01*
X166473000Y-89140142D02*
X166473000Y-85494434D01*
X165380000Y-95370000D02*
X165705500Y-95044500D01*
%TO.N,/UI_DBG4*%
X131330000Y-117990000D02*
X130519000Y-118801000D01*
X130519000Y-121481000D02*
X127200000Y-124800000D01*
X130519000Y-118801000D02*
X130519000Y-121481000D01*
%TO.N,/MGMT_DBG7*%
X169627500Y-93225000D02*
X171297500Y-93225000D01*
X166929713Y-91959713D02*
X168362213Y-91959713D01*
X168362213Y-91959713D02*
X169627500Y-93225000D01*
X171297500Y-93225000D02*
X171757500Y-92765000D01*
%TO.N,/MGMT_SWDIO*%
X176275500Y-88595000D02*
X174179169Y-88595000D01*
X170807500Y-91966669D02*
X170807500Y-92787000D01*
X174179169Y-88595000D02*
X170807500Y-91966669D01*
%TO.N,/MGMT_SWCLK*%
X174625976Y-87685745D02*
X170081221Y-92230500D01*
X170081221Y-92230500D02*
X169700000Y-92230500D01*
X176275500Y-87685745D02*
X174625976Y-87685745D01*
%TO.N,/UI_SWDIO*%
X172660573Y-131870000D02*
X173920000Y-131870000D01*
%TO.N,/BOOT1*%
X150300000Y-95500000D02*
X150900000Y-94900000D01*
X153628212Y-94900000D02*
X154028212Y-95300000D01*
X150900000Y-94900000D02*
X153628212Y-94900000D01*
%TO.N,/USB_TX1_MGMT*%
X176908000Y-91686000D02*
X173456633Y-91686000D01*
X158936941Y-122826441D02*
X154626059Y-122826441D01*
X154626059Y-122826441D02*
X152817500Y-124635000D01*
X159527500Y-123417000D02*
X158936941Y-122826441D01*
X173456633Y-91686000D02*
X172440633Y-92702000D01*
X172440633Y-92702000D02*
X172336000Y-92702000D01*
%TO.N,/USB_RX1_MGMT*%
X175655090Y-92013000D02*
X173749059Y-92013000D01*
X156478000Y-124765000D02*
X154097500Y-124765000D01*
X178683000Y-93210000D02*
X176852090Y-93210000D01*
X176852090Y-93210000D02*
X175655090Y-92013000D01*
X173749059Y-92013000D02*
X172972781Y-92789278D01*
X157486000Y-123757000D02*
X156478000Y-124765000D01*
%TD*%
M02*
