ISO-10303-21;
HEADER;
FILE_DESCRIPTION(('FreeCAD Model'),'2;1');
FILE_NAME('Open CASCADE Shape Model','2026-09-03T14:18:40',(''),(''),
  'Open CASCADE STEP processor 7.9','FreeCAD','Unknown');
FILE_SCHEMA(('AUTOMOTIVE_DESIGN { 1 0 10303 214 1 1 1 1 }'));
ENDSEC;
DATA;
#1 = APPLICATION_PROTOCOL_DEFINITION('international standard',
  'automotive_design',2000,#2);
#2 = APPLICATION_CONTEXT(
  'core data for automotive mechanical design processes');
#3 = SHAPE_DEFINITION_REPRESENTATION(#4,#10);
#4 = PRODUCT_DEFINITION_SHAPE('','',#5);
#5 = PRODUCT_DEFINITION('design','',#6,#9);
#6 = PRODUCT_DEFINITION_FORMATION('','',#7);
#7 = PRODUCT('side-button','side-button','',(#8));
#8 = PRODUCT_CONTEXT('',#2,'mechanical');
#9 = PRODUCT_DEFINITION_CONTEXT('part definition',#2,'design');
#10 = ADVANCED_BREP_SHAPE_REPRESENTATION('',(#11,#15),#771);
#11 = AXIS2_PLACEMENT_3D('',#12,#13,#14);
#12 = CARTESIAN_POINT('',(0.,0.,0.));
#13 = DIRECTION('',(0.,0.,1.));
#14 = DIRECTION('',(1.,0.,-0.));
#15 = MANIFOLD_SOLID_BREP('',#16);
#16 = CLOSED_SHELL('',(#17,#57,#88,#121,#211,#235,#260,#284,#340,#358,
    #382,#406,#430,#447,#510,#534,#558,#607,#625,#643,#661,#679,#691,
    #708,#725,#742,#759));
#17 = ADVANCED_FACE('',(#18),#52,.F.);
#18 = FACE_BOUND('',#19,.F.);
#19 = EDGE_LOOP('',(#20,#30,#38,#46));
#20 = ORIENTED_EDGE('',*,*,#21,.T.);
#21 = EDGE_CURVE('',#22,#24,#26,.T.);
#22 = VERTEX_POINT('',#23);
#23 = CARTESIAN_POINT('',(1.,-18.53,13.6));
#24 = VERTEX_POINT('',#25);
#25 = CARTESIAN_POINT('',(3.6,-18.53,13.6));
#26 = LINE('',#27,#28);
#27 = CARTESIAN_POINT('',(1.,-18.53,13.6));
#28 = VECTOR('',#29,1.);
#29 = DIRECTION('',(1.,0.,0.));
#30 = ORIENTED_EDGE('',*,*,#31,.T.);
#31 = EDGE_CURVE('',#24,#32,#34,.T.);
#32 = VERTEX_POINT('',#33);
#33 = CARTESIAN_POINT('',(3.6,-18.53,3.9));
#34 = LINE('',#35,#36);
#35 = CARTESIAN_POINT('',(3.6,-18.53,13.6));
#36 = VECTOR('',#37,1.);
#37 = DIRECTION('',(0.,0.,-1.));
#38 = ORIENTED_EDGE('',*,*,#39,.F.);
#39 = EDGE_CURVE('',#40,#32,#42,.T.);
#40 = VERTEX_POINT('',#41);
#41 = CARTESIAN_POINT('',(1.,-18.53,3.9));
#42 = LINE('',#43,#44);
#43 = CARTESIAN_POINT('',(1.,-18.53,3.9));
#44 = VECTOR('',#45,1.);
#45 = DIRECTION('',(1.,0.,0.));
#46 = ORIENTED_EDGE('',*,*,#47,.F.);
#47 = EDGE_CURVE('',#22,#40,#48,.T.);
#48 = LINE('',#49,#50);
#49 = CARTESIAN_POINT('',(1.,-18.53,14.1));
#50 = VECTOR('',#51,1.);
#51 = DIRECTION('',(0.,0.,-1.));
#52 = PLANE('',#53);
#53 = AXIS2_PLACEMENT_3D('',#54,#55,#56);
#54 = CARTESIAN_POINT('',(1.,-18.53,14.1));
#55 = DIRECTION('',(0.,1.,0.));
#56 = DIRECTION('',(0.,0.,-1.));
#57 = ADVANCED_FACE('',(#58),#83,.T.);
#58 = FACE_BOUND('',#59,.T.);
#59 = EDGE_LOOP('',(#60,#61,#69,#77));
#60 = ORIENTED_EDGE('',*,*,#21,.T.);
#61 = ORIENTED_EDGE('',*,*,#62,.T.);
#62 = EDGE_CURVE('',#24,#63,#65,.T.);
#63 = VERTEX_POINT('',#64);
#64 = CARTESIAN_POINT('',(3.6,-18.03,14.1));
#65 = LINE('',#66,#67);
#66 = CARTESIAN_POINT('',(3.6,-18.53,13.6));
#67 = VECTOR('',#68,1.);
#68 = DIRECTION('',(0.,0.707106781187,0.707106781187));
#69 = ORIENTED_EDGE('',*,*,#70,.F.);
#70 = EDGE_CURVE('',#71,#63,#73,.T.);
#71 = VERTEX_POINT('',#72);
#72 = CARTESIAN_POINT('',(1.,-18.03,14.1));
#73 = LINE('',#74,#75);
#74 = CARTESIAN_POINT('',(1.,-18.03,14.1));
#75 = VECTOR('',#76,1.);
#76 = DIRECTION('',(1.,0.,0.));
#77 = ORIENTED_EDGE('',*,*,#78,.F.);
#78 = EDGE_CURVE('',#22,#71,#79,.T.);
#79 = LINE('',#80,#81);
#80 = CARTESIAN_POINT('',(1.,-19.08,13.05));
#81 = VECTOR('',#82,1.);
#82 = DIRECTION('',(0.,0.707106781187,0.707106781187));
#83 = PLANE('',#84);
#84 = AXIS2_PLACEMENT_3D('',#85,#86,#87);
#85 = CARTESIAN_POINT('',(1.,-18.28,13.85));
#86 = DIRECTION('',(0.,-0.707106781187,0.707106781187));
#87 = DIRECTION('',(1.,0.,0.));
#88 = ADVANCED_FACE('',(#89),#116,.T.);
#89 = FACE_BOUND('',#90,.F.);
#90 = EDGE_LOOP('',(#91,#100,#108,#115));
#91 = ORIENTED_EDGE('',*,*,#92,.T.);
#92 = EDGE_CURVE('',#24,#93,#95,.T.);
#93 = VERTEX_POINT('',#94);
#94 = CARTESIAN_POINT('',(4.,-18.13,13.434314575051));
#95 = ELLIPSE('',#96,0.432956880117,0.4);
#96 = AXIS2_PLACEMENT_3D('',#97,#98,#99);
#97 = CARTESIAN_POINT('',(3.6,-18.13,13.434314575051));
#98 = DIRECTION('',(0.,0.382683432365,0.923879532511));
#99 = DIRECTION('',(0.,0.923879532511,-0.382683432365));
#100 = ORIENTED_EDGE('',*,*,#101,.T.);
#101 = EDGE_CURVE('',#93,#102,#104,.T.);
#102 = VERTEX_POINT('',#103);
#103 = CARTESIAN_POINT('',(4.,-18.13,4.065685424949));
#104 = LINE('',#105,#106);
#105 = CARTESIAN_POINT('',(4.,-18.13,13.6));
#106 = VECTOR('',#107,1.);
#107 = DIRECTION('',(0.,0.,-1.));
#108 = ORIENTED_EDGE('',*,*,#109,.F.);
#109 = EDGE_CURVE('',#32,#102,#110,.T.);
#110 = ELLIPSE('',#111,0.432956880117,0.4);
#111 = AXIS2_PLACEMENT_3D('',#112,#113,#114);
#112 = CARTESIAN_POINT('',(3.6,-18.13,4.065685424949));
#113 = DIRECTION('',(0.,-0.382683432365,0.923879532511));
#114 = DIRECTION('',(0.,-0.923879532511,-0.382683432365));
#115 = ORIENTED_EDGE('',*,*,#31,.F.);
#116 = CYLINDRICAL_SURFACE('',#117,0.4);
#117 = AXIS2_PLACEMENT_3D('',#118,#119,#120);
#118 = CARTESIAN_POINT('',(3.6,-18.13,13.6));
#119 = DIRECTION('',(0.,0.,-1.));
#120 = DIRECTION('',(0.,-1.,0.));
#121 = ADVANCED_FACE('',(#122,#172),#206,.T.);
#122 = FACE_BOUND('',#123,.T.);
#123 = EDGE_LOOP('',(#124,#125,#126,#134,#142,#150,#158,#166));
#124 = ORIENTED_EDGE('',*,*,#47,.F.);
#125 = ORIENTED_EDGE('',*,*,#78,.T.);
#126 = ORIENTED_EDGE('',*,*,#127,.F.);
#127 = EDGE_CURVE('',#128,#71,#130,.T.);
#128 = VERTEX_POINT('',#129);
#129 = CARTESIAN_POINT('',(1.,-14.73,14.1));
#130 = LINE('',#131,#132);
#131 = CARTESIAN_POINT('',(1.,-14.23,14.1));
#132 = VECTOR('',#133,1.);
#133 = DIRECTION('',(0.,-1.,0.));
#134 = ORIENTED_EDGE('',*,*,#135,.F.);
#135 = EDGE_CURVE('',#136,#128,#138,.T.);
#136 = VERTEX_POINT('',#137);
#137 = CARTESIAN_POINT('',(1.,-14.23,13.6));
#138 = LINE('',#139,#140);
#139 = CARTESIAN_POINT('',(1.,-13.68,13.05));
#140 = VECTOR('',#141,1.);
#141 = DIRECTION('',(0.,-0.707106781187,0.707106781187));
#142 = ORIENTED_EDGE('',*,*,#143,.F.);
#143 = EDGE_CURVE('',#144,#136,#146,.T.);
#144 = VERTEX_POINT('',#145);
#145 = CARTESIAN_POINT('',(1.,-14.23,3.9));
#146 = LINE('',#147,#148);
#147 = CARTESIAN_POINT('',(1.,-14.23,3.4));
#148 = VECTOR('',#149,1.);
#149 = DIRECTION('',(0.,0.,1.));
#150 = ORIENTED_EDGE('',*,*,#151,.F.);
#151 = EDGE_CURVE('',#152,#144,#154,.T.);
#152 = VERTEX_POINT('',#153);
#153 = CARTESIAN_POINT('',(1.,-14.73,3.4));
#154 = LINE('',#155,#156);
#155 = CARTESIAN_POINT('',(1.,-13.68,4.45));
#156 = VECTOR('',#157,1.);
#157 = DIRECTION('',(0.,0.707106781187,0.707106781187));
#158 = ORIENTED_EDGE('',*,*,#159,.F.);
#159 = EDGE_CURVE('',#160,#152,#162,.T.);
#160 = VERTEX_POINT('',#161);
#161 = CARTESIAN_POINT('',(1.,-18.03,3.4));
#162 = LINE('',#163,#164);
#163 = CARTESIAN_POINT('',(1.,-18.53,3.4));
#164 = VECTOR('',#165,1.);
#165 = DIRECTION('',(0.,1.,0.));
#166 = ORIENTED_EDGE('',*,*,#167,.F.);
#167 = EDGE_CURVE('',#40,#160,#168,.T.);
#168 = LINE('',#169,#170);
#169 = CARTESIAN_POINT('',(1.,-19.08,4.45));
#170 = VECTOR('',#171,1.);
#171 = DIRECTION('',(0.,0.707106781187,-0.707106781187));
#172 = FACE_BOUND('',#173,.T.);
#173 = EDGE_LOOP('',(#174,#184,#192,#200));
#174 = ORIENTED_EDGE('',*,*,#175,.T.);
#175 = EDGE_CURVE('',#176,#178,#180,.T.);
#176 = VERTEX_POINT('',#177);
#177 = CARTESIAN_POINT('',(1.,-19.53,16.2));
#178 = VERTEX_POINT('',#179);
#179 = CARTESIAN_POINT('',(1.,-19.53,1.3));
#180 = LINE('',#181,#182);
#181 = CARTESIAN_POINT('',(1.,-19.53,16.2));
#182 = VECTOR('',#183,1.);
#183 = DIRECTION('',(0.,0.,-1.));
#184 = ORIENTED_EDGE('',*,*,#185,.T.);
#185 = EDGE_CURVE('',#178,#186,#188,.T.);
#186 = VERTEX_POINT('',#187);
#187 = CARTESIAN_POINT('',(1.,-13.23,1.3));
#188 = LINE('',#189,#190);
#189 = CARTESIAN_POINT('',(1.,-19.53,1.3));
#190 = VECTOR('',#191,1.);
#191 = DIRECTION('',(0.,1.,0.));
#192 = ORIENTED_EDGE('',*,*,#193,.T.);
#193 = EDGE_CURVE('',#186,#194,#196,.T.);
#194 = VERTEX_POINT('',#195);
#195 = CARTESIAN_POINT('',(1.,-13.23,16.2));
#196 = LINE('',#197,#198);
#197 = CARTESIAN_POINT('',(1.,-13.23,1.3));
#198 = VECTOR('',#199,1.);
#199 = DIRECTION('',(0.,0.,1.));
#200 = ORIENTED_EDGE('',*,*,#201,.T.);
#201 = EDGE_CURVE('',#194,#176,#202,.T.);
#202 = LINE('',#203,#204);
#203 = CARTESIAN_POINT('',(1.,-13.23,16.2));
#204 = VECTOR('',#205,1.);
#205 = DIRECTION('',(0.,-1.,0.));
#206 = PLANE('',#207);
#207 = AXIS2_PLACEMENT_3D('',#208,#209,#210);
#208 = CARTESIAN_POINT('',(1.,-16.38,8.75));
#209 = DIRECTION('',(1.,0.,0.));
#210 = DIRECTION('',(0.,0.,1.));
#211 = ADVANCED_FACE('',(#212),#230,.T.);
#212 = FACE_BOUND('',#213,.F.);
#213 = EDGE_LOOP('',(#214,#215,#223,#229));
#214 = ORIENTED_EDGE('',*,*,#39,.T.);
#215 = ORIENTED_EDGE('',*,*,#216,.T.);
#216 = EDGE_CURVE('',#32,#217,#219,.T.);
#217 = VERTEX_POINT('',#218);
#218 = CARTESIAN_POINT('',(3.6,-18.03,3.4));
#219 = LINE('',#220,#221);
#220 = CARTESIAN_POINT('',(3.6,-18.53,3.9));
#221 = VECTOR('',#222,1.);
#222 = DIRECTION('',(0.,0.707106781187,-0.707106781187));
#223 = ORIENTED_EDGE('',*,*,#224,.F.);
#224 = EDGE_CURVE('',#160,#217,#225,.T.);
#225 = LINE('',#226,#227);
#226 = CARTESIAN_POINT('',(1.,-18.03,3.4));
#227 = VECTOR('',#228,1.);
#228 = DIRECTION('',(1.,0.,0.));
#229 = ORIENTED_EDGE('',*,*,#167,.F.);
#230 = PLANE('',#231);
#231 = AXIS2_PLACEMENT_3D('',#232,#233,#234);
#232 = CARTESIAN_POINT('',(1.,-18.28,3.65));
#233 = DIRECTION('',(0.,-0.707106781187,-0.707106781187));
#234 = DIRECTION('',(-1.,-0.,-0.));
#235 = ADVANCED_FACE('',(#236),#255,.T.);
#236 = FACE_BOUND('',#237,.T.);
#237 = EDGE_LOOP('',(#238,#239,#247,#254));
#238 = ORIENTED_EDGE('',*,*,#92,.T.);
#239 = ORIENTED_EDGE('',*,*,#240,.T.);
#240 = EDGE_CURVE('',#93,#241,#243,.T.);
#241 = VERTEX_POINT('',#242);
#242 = CARTESIAN_POINT('',(4.,-17.86431457505,13.7));
#243 = LINE('',#244,#245);
#244 = CARTESIAN_POINT('',(4.,-18.24715728752,13.317157287525));
#245 = VECTOR('',#246,1.);
#246 = DIRECTION('',(0.,0.707106781187,0.707106781187));
#247 = ORIENTED_EDGE('',*,*,#248,.F.);
#248 = EDGE_CURVE('',#63,#241,#249,.T.);
#249 = ELLIPSE('',#250,0.432956880117,0.4);
#250 = AXIS2_PLACEMENT_3D('',#251,#252,#253);
#251 = CARTESIAN_POINT('',(3.6,-17.86431457505,13.7));
#252 = DIRECTION('',(-0.,0.923879532511,0.382683432365));
#253 = DIRECTION('',(0.,-0.382683432365,0.923879532511));
#254 = ORIENTED_EDGE('',*,*,#62,.F.);
#255 = CYLINDRICAL_SURFACE('',#256,0.4);
#256 = AXIS2_PLACEMENT_3D('',#257,#258,#259);
#257 = CARTESIAN_POINT('',(3.6,-18.24715728752,13.317157287525));
#258 = DIRECTION('',(0.,0.707106781187,0.707106781187));
#259 = DIRECTION('',(0.,-0.707106781187,0.707106781187));
#260 = ADVANCED_FACE('',(#261),#279,.F.);
#261 = FACE_BOUND('',#262,.F.);
#262 = EDGE_LOOP('',(#263,#271,#277,#278));
#263 = ORIENTED_EDGE('',*,*,#264,.T.);
#264 = EDGE_CURVE('',#128,#265,#267,.T.);
#265 = VERTEX_POINT('',#266);
#266 = CARTESIAN_POINT('',(3.6,-14.73,14.1));
#267 = LINE('',#268,#269);
#268 = CARTESIAN_POINT('',(1.,-14.73,14.1));
#269 = VECTOR('',#270,1.);
#270 = DIRECTION('',(1.,0.,0.));
#271 = ORIENTED_EDGE('',*,*,#272,.T.);
#272 = EDGE_CURVE('',#265,#63,#273,.T.);
#273 = LINE('',#274,#275);
#274 = CARTESIAN_POINT('',(3.6,-14.73,14.1));
#275 = VECTOR('',#276,1.);
#276 = DIRECTION('',(0.,-1.,0.));
#277 = ORIENTED_EDGE('',*,*,#70,.F.);
#278 = ORIENTED_EDGE('',*,*,#127,.F.);
#279 = PLANE('',#280);
#280 = AXIS2_PLACEMENT_3D('',#281,#282,#283);
#281 = CARTESIAN_POINT('',(1.,-14.23,14.1));
#282 = DIRECTION('',(0.,0.,-1.));
#283 = DIRECTION('',(0.,-1.,0.));
#284 = ADVANCED_FACE('',(#285),#335,.T.);
#285 = FACE_BOUND('',#286,.T.);
#286 = EDGE_LOOP('',(#287,#288,#296,#304,#312,#320,#328,#334));
#287 = ORIENTED_EDGE('',*,*,#101,.T.);
#288 = ORIENTED_EDGE('',*,*,#289,.T.);
#289 = EDGE_CURVE('',#102,#290,#292,.T.);
#290 = VERTEX_POINT('',#291);
#291 = CARTESIAN_POINT('',(4.,-17.86431457505,3.8));
#292 = LINE('',#293,#294);
#293 = CARTESIAN_POINT('',(4.,-18.24715728752,4.182842712475));
#294 = VECTOR('',#295,1.);
#295 = DIRECTION('',(0.,0.707106781187,-0.707106781187));
#296 = ORIENTED_EDGE('',*,*,#297,.T.);
#297 = EDGE_CURVE('',#290,#298,#300,.T.);
#298 = VERTEX_POINT('',#299);
#299 = CARTESIAN_POINT('',(4.,-14.89568542494,3.8));
#300 = LINE('',#301,#302);
#301 = CARTESIAN_POINT('',(4.,-18.03,3.8));
#302 = VECTOR('',#303,1.);
#303 = DIRECTION('',(0.,1.,0.));
#304 = ORIENTED_EDGE('',*,*,#305,.T.);
#305 = EDGE_CURVE('',#298,#306,#308,.T.);
#306 = VERTEX_POINT('',#307);
#307 = CARTESIAN_POINT('',(4.,-14.63,4.065685424949));
#308 = LINE('',#309,#310);
#309 = CARTESIAN_POINT('',(4.,-15.01284271247,3.682842712475));
#310 = VECTOR('',#311,1.);
#311 = DIRECTION('',(0.,0.707106781187,0.707106781187));
#312 = ORIENTED_EDGE('',*,*,#313,.T.);
#313 = EDGE_CURVE('',#306,#314,#316,.T.);
#314 = VERTEX_POINT('',#315);
#315 = CARTESIAN_POINT('',(4.,-14.63,13.434314575051));
#316 = LINE('',#317,#318);
#317 = CARTESIAN_POINT('',(4.,-14.63,3.9));
#318 = VECTOR('',#319,1.);
#319 = DIRECTION('',(0.,0.,1.));
#320 = ORIENTED_EDGE('',*,*,#321,.T.);
#321 = EDGE_CURVE('',#314,#322,#324,.T.);
#322 = VERTEX_POINT('',#323);
#323 = CARTESIAN_POINT('',(4.,-14.89568542494,13.7));
#324 = LINE('',#325,#326);
#325 = CARTESIAN_POINT('',(4.,-14.51284271247,13.317157287525));
#326 = VECTOR('',#327,1.);
#327 = DIRECTION('',(0.,-0.707106781187,0.707106781187));
#328 = ORIENTED_EDGE('',*,*,#329,.T.);
#329 = EDGE_CURVE('',#322,#241,#330,.T.);
#330 = LINE('',#331,#332);
#331 = CARTESIAN_POINT('',(4.,-14.73,13.7));
#332 = VECTOR('',#333,1.);
#333 = DIRECTION('',(0.,-1.,0.));
#334 = ORIENTED_EDGE('',*,*,#240,.F.);
#335 = PLANE('',#336);
#336 = AXIS2_PLACEMENT_3D('',#337,#338,#339);
#337 = CARTESIAN_POINT('',(4.,-16.38,8.75));
#338 = DIRECTION('',(1.,0.,0.));
#339 = DIRECTION('',(0.,0.,1.));
#340 = ADVANCED_FACE('',(#341),#353,.T.);
#341 = FACE_BOUND('',#342,.F.);
#342 = EDGE_LOOP('',(#343,#344,#345,#352));
#343 = ORIENTED_EDGE('',*,*,#109,.T.);
#344 = ORIENTED_EDGE('',*,*,#289,.T.);
#345 = ORIENTED_EDGE('',*,*,#346,.F.);
#346 = EDGE_CURVE('',#217,#290,#347,.T.);
#347 = ELLIPSE('',#348,0.432956880117,0.4);
#348 = AXIS2_PLACEMENT_3D('',#349,#350,#351);
#349 = CARTESIAN_POINT('',(3.6,-17.86431457505,3.8));
#350 = DIRECTION('',(0.,-0.923879532511,0.382683432365));
#351 = DIRECTION('',(0.,-0.382683432365,-0.923879532511));
#352 = ORIENTED_EDGE('',*,*,#216,.F.);
#353 = CYLINDRICAL_SURFACE('',#354,0.4);
#354 = AXIS2_PLACEMENT_3D('',#355,#356,#357);
#355 = CARTESIAN_POINT('',(3.6,-18.24715728752,4.182842712475));
#356 = DIRECTION('',(0.,0.707106781187,-0.707106781187));
#357 = DIRECTION('',(0.,-0.707106781187,-0.707106781187));
#358 = ADVANCED_FACE('',(#359),#377,.F.);
#359 = FACE_BOUND('',#360,.F.);
#360 = EDGE_LOOP('',(#361,#362,#370,#376));
#361 = ORIENTED_EDGE('',*,*,#224,.T.);
#362 = ORIENTED_EDGE('',*,*,#363,.T.);
#363 = EDGE_CURVE('',#217,#364,#366,.T.);
#364 = VERTEX_POINT('',#365);
#365 = CARTESIAN_POINT('',(3.6,-14.73,3.4));
#366 = LINE('',#367,#368);
#367 = CARTESIAN_POINT('',(3.6,-18.03,3.4));
#368 = VECTOR('',#369,1.);
#369 = DIRECTION('',(0.,1.,0.));
#370 = ORIENTED_EDGE('',*,*,#371,.F.);
#371 = EDGE_CURVE('',#152,#364,#372,.T.);
#372 = LINE('',#373,#374);
#373 = CARTESIAN_POINT('',(1.,-14.73,3.4));
#374 = VECTOR('',#375,1.);
#375 = DIRECTION('',(1.,0.,0.));
#376 = ORIENTED_EDGE('',*,*,#159,.F.);
#377 = PLANE('',#378);
#378 = AXIS2_PLACEMENT_3D('',#379,#380,#381);
#379 = CARTESIAN_POINT('',(1.,-18.53,3.4));
#380 = DIRECTION('',(0.,0.,1.));
#381 = DIRECTION('',(0.,1.,0.));
#382 = ADVANCED_FACE('',(#383),#401,.T.);
#383 = FACE_BOUND('',#384,.F.);
#384 = EDGE_LOOP('',(#385,#393,#399,#400));
#385 = ORIENTED_EDGE('',*,*,#386,.T.);
#386 = EDGE_CURVE('',#136,#387,#389,.T.);
#387 = VERTEX_POINT('',#388);
#388 = CARTESIAN_POINT('',(3.6,-14.23,13.6));
#389 = LINE('',#390,#391);
#390 = CARTESIAN_POINT('',(1.,-14.23,13.6));
#391 = VECTOR('',#392,1.);
#392 = DIRECTION('',(1.,0.,0.));
#393 = ORIENTED_EDGE('',*,*,#394,.T.);
#394 = EDGE_CURVE('',#387,#265,#395,.T.);
#395 = LINE('',#396,#397);
#396 = CARTESIAN_POINT('',(3.6,-14.23,13.6));
#397 = VECTOR('',#398,1.);
#398 = DIRECTION('',(0.,-0.707106781187,0.707106781187));
#399 = ORIENTED_EDGE('',*,*,#264,.F.);
#400 = ORIENTED_EDGE('',*,*,#135,.F.);
#401 = PLANE('',#402);
#402 = AXIS2_PLACEMENT_3D('',#403,#404,#405);
#403 = CARTESIAN_POINT('',(1.,-14.48,13.85));
#404 = DIRECTION('',(0.,0.707106781187,0.707106781187));
#405 = DIRECTION('',(-1.,-0.,-0.));
#406 = ADVANCED_FACE('',(#407),#425,.T.);
#407 = FACE_BOUND('',#408,.F.);
#408 = EDGE_LOOP('',(#409,#410,#418,#424));
#409 = ORIENTED_EDGE('',*,*,#371,.T.);
#410 = ORIENTED_EDGE('',*,*,#411,.T.);
#411 = EDGE_CURVE('',#364,#412,#414,.T.);
#412 = VERTEX_POINT('',#413);
#413 = CARTESIAN_POINT('',(3.6,-14.23,3.9));
#414 = LINE('',#415,#416);
#415 = CARTESIAN_POINT('',(3.6,-14.73,3.4));
#416 = VECTOR('',#417,1.);
#417 = DIRECTION('',(0.,0.707106781187,0.707106781187));
#418 = ORIENTED_EDGE('',*,*,#419,.F.);
#419 = EDGE_CURVE('',#144,#412,#420,.T.);
#420 = LINE('',#421,#422);
#421 = CARTESIAN_POINT('',(1.,-14.23,3.9));
#422 = VECTOR('',#423,1.);
#423 = DIRECTION('',(1.,0.,0.));
#424 = ORIENTED_EDGE('',*,*,#151,.F.);
#425 = PLANE('',#426);
#426 = AXIS2_PLACEMENT_3D('',#427,#428,#429);
#427 = CARTESIAN_POINT('',(1.,-14.48,3.65));
#428 = DIRECTION('',(0.,0.707106781187,-0.707106781187));
#429 = DIRECTION('',(-1.,-0.,-0.));
#430 = ADVANCED_FACE('',(#431),#442,.F.);
#431 = FACE_BOUND('',#432,.F.);
#432 = EDGE_LOOP('',(#433,#434,#440,#441));
#433 = ORIENTED_EDGE('',*,*,#419,.T.);
#434 = ORIENTED_EDGE('',*,*,#435,.T.);
#435 = EDGE_CURVE('',#412,#387,#436,.T.);
#436 = LINE('',#437,#438);
#437 = CARTESIAN_POINT('',(3.6,-14.23,3.9));
#438 = VECTOR('',#439,1.);
#439 = DIRECTION('',(0.,0.,1.));
#440 = ORIENTED_EDGE('',*,*,#386,.F.);
#441 = ORIENTED_EDGE('',*,*,#143,.F.);
#442 = PLANE('',#443);
#443 = AXIS2_PLACEMENT_3D('',#444,#445,#446);
#444 = CARTESIAN_POINT('',(1.,-14.23,3.4));
#445 = DIRECTION('',(0.,-1.,0.));
#446 = DIRECTION('',(0.,0.,1.));
#447 = ADVANCED_FACE('',(#448),#505,.F.);
#448 = FACE_BOUND('',#449,.F.);
#449 = EDGE_LOOP('',(#450,#460,#466,#467,#475,#483,#491,#499));
#450 = ORIENTED_EDGE('',*,*,#451,.F.);
#451 = EDGE_CURVE('',#452,#454,#456,.T.);
#452 = VERTEX_POINT('',#453);
#453 = CARTESIAN_POINT('',(0.,-19.53,16.2));
#454 = VERTEX_POINT('',#455);
#455 = CARTESIAN_POINT('',(0.,-19.53,14.));
#456 = LINE('',#457,#458);
#457 = CARTESIAN_POINT('',(0.,-19.53,16.2));
#458 = VECTOR('',#459,1.);
#459 = DIRECTION('',(0.,0.,-1.));
#460 = ORIENTED_EDGE('',*,*,#461,.T.);
#461 = EDGE_CURVE('',#452,#176,#462,.T.);
#462 = LINE('',#463,#464);
#463 = CARTESIAN_POINT('',(0.,-19.53,16.2));
#464 = VECTOR('',#465,1.);
#465 = DIRECTION('',(1.,0.,0.));
#466 = ORIENTED_EDGE('',*,*,#175,.T.);
#467 = ORIENTED_EDGE('',*,*,#468,.F.);
#468 = EDGE_CURVE('',#469,#178,#471,.T.);
#469 = VERTEX_POINT('',#470);
#470 = CARTESIAN_POINT('',(0.,-19.53,1.3));
#471 = LINE('',#472,#473);
#472 = CARTESIAN_POINT('',(0.,-19.53,1.3));
#473 = VECTOR('',#474,1.);
#474 = DIRECTION('',(1.,0.,0.));
#475 = ORIENTED_EDGE('',*,*,#476,.F.);
#476 = EDGE_CURVE('',#477,#469,#479,.T.);
#477 = VERTEX_POINT('',#478);
#478 = CARTESIAN_POINT('',(0.,-19.53,12.));
#479 = LINE('',#480,#481);
#480 = CARTESIAN_POINT('',(0.,-19.53,16.2));
#481 = VECTOR('',#482,1.);
#482 = DIRECTION('',(0.,0.,-1.));
#483 = ORIENTED_EDGE('',*,*,#484,.T.);
#484 = EDGE_CURVE('',#477,#485,#487,.T.);
#485 = VERTEX_POINT('',#486);
#486 = CARTESIAN_POINT('',(0.4,-19.53,12.));
#487 = LINE('',#488,#489);
#488 = CARTESIAN_POINT('',(0.,-19.53,12.));
#489 = VECTOR('',#490,1.);
#490 = DIRECTION('',(1.,0.,0.));
#491 = ORIENTED_EDGE('',*,*,#492,.F.);
#492 = EDGE_CURVE('',#493,#485,#495,.T.);
#493 = VERTEX_POINT('',#494);
#494 = CARTESIAN_POINT('',(0.4,-19.53,14.));
#495 = LINE('',#496,#497);
#496 = CARTESIAN_POINT('',(0.4,-19.53,14.));
#497 = VECTOR('',#498,1.);
#498 = DIRECTION('',(0.,0.,-1.));
#499 = ORIENTED_EDGE('',*,*,#500,.F.);
#500 = EDGE_CURVE('',#454,#493,#501,.T.);
#501 = LINE('',#502,#503);
#502 = CARTESIAN_POINT('',(0.,-19.53,14.));
#503 = VECTOR('',#504,1.);
#504 = DIRECTION('',(1.,0.,0.));
#505 = PLANE('',#506);
#506 = AXIS2_PLACEMENT_3D('',#507,#508,#509);
#507 = CARTESIAN_POINT('',(0.,-19.53,16.2));
#508 = DIRECTION('',(0.,1.,0.));
#509 = DIRECTION('',(0.,0.,-1.));
#510 = ADVANCED_FACE('',(#511),#529,.F.);
#511 = FACE_BOUND('',#512,.F.);
#512 = EDGE_LOOP('',(#513,#521,#522,#523));
#513 = ORIENTED_EDGE('',*,*,#514,.T.);
#514 = EDGE_CURVE('',#515,#194,#517,.T.);
#515 = VERTEX_POINT('',#516);
#516 = CARTESIAN_POINT('',(0.,-13.23,16.2));
#517 = LINE('',#518,#519);
#518 = CARTESIAN_POINT('',(0.,-13.23,16.2));
#519 = VECTOR('',#520,1.);
#520 = DIRECTION('',(1.,0.,0.));
#521 = ORIENTED_EDGE('',*,*,#201,.T.);
#522 = ORIENTED_EDGE('',*,*,#461,.F.);
#523 = ORIENTED_EDGE('',*,*,#524,.F.);
#524 = EDGE_CURVE('',#515,#452,#525,.T.);
#525 = LINE('',#526,#527);
#526 = CARTESIAN_POINT('',(0.,-13.23,16.2));
#527 = VECTOR('',#528,1.);
#528 = DIRECTION('',(0.,-1.,0.));
#529 = PLANE('',#530);
#530 = AXIS2_PLACEMENT_3D('',#531,#532,#533);
#531 = CARTESIAN_POINT('',(0.,-13.23,16.2));
#532 = DIRECTION('',(0.,0.,-1.));
#533 = DIRECTION('',(0.,-1.,0.));
#534 = ADVANCED_FACE('',(#535),#553,.F.);
#535 = FACE_BOUND('',#536,.F.);
#536 = EDGE_LOOP('',(#537,#538,#539,#547));
#537 = ORIENTED_EDGE('',*,*,#468,.T.);
#538 = ORIENTED_EDGE('',*,*,#185,.T.);
#539 = ORIENTED_EDGE('',*,*,#540,.F.);
#540 = EDGE_CURVE('',#541,#186,#543,.T.);
#541 = VERTEX_POINT('',#542);
#542 = CARTESIAN_POINT('',(0.,-13.23,1.3));
#543 = LINE('',#544,#545);
#544 = CARTESIAN_POINT('',(0.,-13.23,1.3));
#545 = VECTOR('',#546,1.);
#546 = DIRECTION('',(1.,0.,0.));
#547 = ORIENTED_EDGE('',*,*,#548,.F.);
#548 = EDGE_CURVE('',#469,#541,#549,.T.);
#549 = LINE('',#550,#551);
#550 = CARTESIAN_POINT('',(0.,-19.53,1.3));
#551 = VECTOR('',#552,1.);
#552 = DIRECTION('',(0.,1.,0.));
#553 = PLANE('',#554);
#554 = AXIS2_PLACEMENT_3D('',#555,#556,#557);
#555 = CARTESIAN_POINT('',(0.,-19.53,1.3));
#556 = DIRECTION('',(0.,0.,1.));
#557 = DIRECTION('',(0.,1.,0.));
#558 = ADVANCED_FACE('',(#559),#602,.F.);
#559 = FACE_BOUND('',#560,.F.);
#560 = EDGE_LOOP('',(#561,#569,#570,#571,#572,#580,#588,#596));
#561 = ORIENTED_EDGE('',*,*,#562,.F.);
#562 = EDGE_CURVE('',#541,#563,#565,.T.);
#563 = VERTEX_POINT('',#564);
#564 = CARTESIAN_POINT('',(0.,-13.23,12.));
#565 = LINE('',#566,#567);
#566 = CARTESIAN_POINT('',(0.,-13.23,1.3));
#567 = VECTOR('',#568,1.);
#568 = DIRECTION('',(0.,0.,1.));
#569 = ORIENTED_EDGE('',*,*,#540,.T.);
#570 = ORIENTED_EDGE('',*,*,#193,.T.);
#571 = ORIENTED_EDGE('',*,*,#514,.F.);
#572 = ORIENTED_EDGE('',*,*,#573,.F.);
#573 = EDGE_CURVE('',#574,#515,#576,.T.);
#574 = VERTEX_POINT('',#575);
#575 = CARTESIAN_POINT('',(0.,-13.23,14.));
#576 = LINE('',#577,#578);
#577 = CARTESIAN_POINT('',(0.,-13.23,1.3));
#578 = VECTOR('',#579,1.);
#579 = DIRECTION('',(0.,0.,1.));
#580 = ORIENTED_EDGE('',*,*,#581,.T.);
#581 = EDGE_CURVE('',#574,#582,#584,.T.);
#582 = VERTEX_POINT('',#583);
#583 = CARTESIAN_POINT('',(0.4,-13.23,14.));
#584 = LINE('',#585,#586);
#585 = CARTESIAN_POINT('',(0.,-13.23,14.));
#586 = VECTOR('',#587,1.);
#587 = DIRECTION('',(1.,0.,0.));
#588 = ORIENTED_EDGE('',*,*,#589,.F.);
#589 = EDGE_CURVE('',#590,#582,#592,.T.);
#590 = VERTEX_POINT('',#591);
#591 = CARTESIAN_POINT('',(0.4,-13.23,12.));
#592 = LINE('',#593,#594);
#593 = CARTESIAN_POINT('',(0.4,-13.23,12.));
#594 = VECTOR('',#595,1.);
#595 = DIRECTION('',(0.,0.,1.));
#596 = ORIENTED_EDGE('',*,*,#597,.F.);
#597 = EDGE_CURVE('',#563,#590,#598,.T.);
#598 = LINE('',#599,#600);
#599 = CARTESIAN_POINT('',(0.,-13.23,12.));
#600 = VECTOR('',#601,1.);
#601 = DIRECTION('',(1.,0.,0.));
#602 = PLANE('',#603);
#603 = AXIS2_PLACEMENT_3D('',#604,#605,#606);
#604 = CARTESIAN_POINT('',(0.,-13.23,1.3));
#605 = DIRECTION('',(0.,-1.,0.));
#606 = DIRECTION('',(0.,0.,1.));
#607 = ADVANCED_FACE('',(#608),#620,.T.);
#608 = FACE_BOUND('',#609,.F.);
#609 = EDGE_LOOP('',(#610,#617,#618,#619));
#610 = ORIENTED_EDGE('',*,*,#611,.T.);
#611 = EDGE_CURVE('',#265,#322,#612,.T.);
#612 = ELLIPSE('',#613,0.432956880117,0.4);
#613 = AXIS2_PLACEMENT_3D('',#614,#615,#616);
#614 = CARTESIAN_POINT('',(3.6,-14.89568542494,13.7));
#615 = DIRECTION('',(0.,0.923879532511,-0.382683432365));
#616 = DIRECTION('',(0.,-0.382683432365,-0.923879532511));
#617 = ORIENTED_EDGE('',*,*,#329,.T.);
#618 = ORIENTED_EDGE('',*,*,#248,.F.);
#619 = ORIENTED_EDGE('',*,*,#272,.F.);
#620 = CYLINDRICAL_SURFACE('',#621,0.4);
#621 = AXIS2_PLACEMENT_3D('',#622,#623,#624);
#622 = CARTESIAN_POINT('',(3.6,-14.73,13.7));
#623 = DIRECTION('',(0.,-1.,0.));
#624 = DIRECTION('',(0.,0.,1.));
#625 = ADVANCED_FACE('',(#626),#638,.T.);
#626 = FACE_BOUND('',#627,.F.);
#627 = EDGE_LOOP('',(#628,#629,#630,#637));
#628 = ORIENTED_EDGE('',*,*,#346,.T.);
#629 = ORIENTED_EDGE('',*,*,#297,.T.);
#630 = ORIENTED_EDGE('',*,*,#631,.F.);
#631 = EDGE_CURVE('',#364,#298,#632,.T.);
#632 = ELLIPSE('',#633,0.432956880117,0.4);
#633 = AXIS2_PLACEMENT_3D('',#634,#635,#636);
#634 = CARTESIAN_POINT('',(3.6,-14.89568542494,3.8));
#635 = DIRECTION('',(0.,-0.923879532511,-0.382683432365));
#636 = DIRECTION('',(0.,0.382683432365,-0.923879532511));
#637 = ORIENTED_EDGE('',*,*,#363,.F.);
#638 = CYLINDRICAL_SURFACE('',#639,0.4);
#639 = AXIS2_PLACEMENT_3D('',#640,#641,#642);
#640 = CARTESIAN_POINT('',(3.6,-18.03,3.8));
#641 = DIRECTION('',(0.,1.,0.));
#642 = DIRECTION('',(0.,0.,-1.));
#643 = ADVANCED_FACE('',(#644),#656,.T.);
#644 = FACE_BOUND('',#645,.F.);
#645 = EDGE_LOOP('',(#646,#653,#654,#655));
#646 = ORIENTED_EDGE('',*,*,#647,.T.);
#647 = EDGE_CURVE('',#387,#314,#648,.T.);
#648 = ELLIPSE('',#649,0.432956880117,0.4);
#649 = AXIS2_PLACEMENT_3D('',#650,#651,#652);
#650 = CARTESIAN_POINT('',(3.6,-14.63,13.434314575051));
#651 = DIRECTION('',(0.,0.382683432365,-0.923879532511));
#652 = DIRECTION('',(0.,-0.923879532511,-0.382683432365));
#653 = ORIENTED_EDGE('',*,*,#321,.T.);
#654 = ORIENTED_EDGE('',*,*,#611,.F.);
#655 = ORIENTED_EDGE('',*,*,#394,.F.);
#656 = CYLINDRICAL_SURFACE('',#657,0.4);
#657 = AXIS2_PLACEMENT_3D('',#658,#659,#660);
#658 = CARTESIAN_POINT('',(3.6,-14.51284271247,13.317157287525));
#659 = DIRECTION('',(0.,-0.707106781187,0.707106781187));
#660 = DIRECTION('',(0.,0.707106781187,0.707106781187));
#661 = ADVANCED_FACE('',(#662),#674,.T.);
#662 = FACE_BOUND('',#663,.F.);
#663 = EDGE_LOOP('',(#664,#665,#666,#673));
#664 = ORIENTED_EDGE('',*,*,#631,.T.);
#665 = ORIENTED_EDGE('',*,*,#305,.T.);
#666 = ORIENTED_EDGE('',*,*,#667,.F.);
#667 = EDGE_CURVE('',#412,#306,#668,.T.);
#668 = ELLIPSE('',#669,0.432956880117,0.4);
#669 = AXIS2_PLACEMENT_3D('',#670,#671,#672);
#670 = CARTESIAN_POINT('',(3.6,-14.63,4.065685424949));
#671 = DIRECTION('',(0.,-0.382683432365,-0.923879532511));
#672 = DIRECTION('',(0.,0.923879532511,-0.382683432365));
#673 = ORIENTED_EDGE('',*,*,#411,.F.);
#674 = CYLINDRICAL_SURFACE('',#675,0.4);
#675 = AXIS2_PLACEMENT_3D('',#676,#677,#678);
#676 = CARTESIAN_POINT('',(3.6,-15.01284271247,3.682842712475));
#677 = DIRECTION('',(0.,0.707106781187,0.707106781187));
#678 = DIRECTION('',(0.,0.707106781187,-0.707106781187));
#679 = ADVANCED_FACE('',(#680),#686,.T.);
#680 = FACE_BOUND('',#681,.F.);
#681 = EDGE_LOOP('',(#682,#683,#684,#685));
#682 = ORIENTED_EDGE('',*,*,#667,.T.);
#683 = ORIENTED_EDGE('',*,*,#313,.T.);
#684 = ORIENTED_EDGE('',*,*,#647,.F.);
#685 = ORIENTED_EDGE('',*,*,#435,.F.);
#686 = CYLINDRICAL_SURFACE('',#687,0.4);
#687 = AXIS2_PLACEMENT_3D('',#688,#689,#690);
#688 = CARTESIAN_POINT('',(3.6,-14.63,3.9));
#689 = DIRECTION('',(0.,0.,1.));
#690 = DIRECTION('',(0.,1.,0.));
#691 = ADVANCED_FACE('',(#692),#703,.F.);
#692 = FACE_BOUND('',#693,.F.);
#693 = EDGE_LOOP('',(#694,#695,#696,#702));
#694 = ORIENTED_EDGE('',*,*,#524,.T.);
#695 = ORIENTED_EDGE('',*,*,#451,.T.);
#696 = ORIENTED_EDGE('',*,*,#697,.F.);
#697 = EDGE_CURVE('',#574,#454,#698,.T.);
#698 = LINE('',#699,#700);
#699 = CARTESIAN_POINT('',(0.,-13.23,14.));
#700 = VECTOR('',#701,1.);
#701 = DIRECTION('',(0.,-1.,0.));
#702 = ORIENTED_EDGE('',*,*,#573,.T.);
#703 = PLANE('',#704);
#704 = AXIS2_PLACEMENT_3D('',#705,#706,#707);
#705 = CARTESIAN_POINT('',(0.,-16.38,8.75));
#706 = DIRECTION('',(1.,0.,0.));
#707 = DIRECTION('',(0.,0.,1.));
#708 = ADVANCED_FACE('',(#709),#720,.T.);
#709 = FACE_BOUND('',#710,.T.);
#710 = EDGE_LOOP('',(#711,#712,#718,#719));
#711 = ORIENTED_EDGE('',*,*,#581,.T.);
#712 = ORIENTED_EDGE('',*,*,#713,.T.);
#713 = EDGE_CURVE('',#582,#493,#714,.T.);
#714 = LINE('',#715,#716);
#715 = CARTESIAN_POINT('',(0.4,-13.23,14.));
#716 = VECTOR('',#717,1.);
#717 = DIRECTION('',(0.,-1.,0.));
#718 = ORIENTED_EDGE('',*,*,#500,.F.);
#719 = ORIENTED_EDGE('',*,*,#697,.F.);
#720 = PLANE('',#721);
#721 = AXIS2_PLACEMENT_3D('',#722,#723,#724);
#722 = CARTESIAN_POINT('',(0.,-13.23,14.));
#723 = DIRECTION('',(0.,0.,-1.));
#724 = DIRECTION('',(0.,-1.,0.));
#725 = ADVANCED_FACE('',(#726),#737,.F.);
#726 = FACE_BOUND('',#727,.F.);
#727 = EDGE_LOOP('',(#728,#729,#735,#736));
#728 = ORIENTED_EDGE('',*,*,#492,.T.);
#729 = ORIENTED_EDGE('',*,*,#730,.T.);
#730 = EDGE_CURVE('',#485,#590,#731,.T.);
#731 = LINE('',#732,#733);
#732 = CARTESIAN_POINT('',(0.4,-19.53,12.));
#733 = VECTOR('',#734,1.);
#734 = DIRECTION('',(0.,1.,0.));
#735 = ORIENTED_EDGE('',*,*,#589,.T.);
#736 = ORIENTED_EDGE('',*,*,#713,.T.);
#737 = PLANE('',#738);
#738 = AXIS2_PLACEMENT_3D('',#739,#740,#741);
#739 = CARTESIAN_POINT('',(0.4,-16.38,13.));
#740 = DIRECTION('',(1.,0.,0.));
#741 = DIRECTION('',(0.,0.,1.));
#742 = ADVANCED_FACE('',(#743),#754,.T.);
#743 = FACE_BOUND('',#744,.T.);
#744 = EDGE_LOOP('',(#745,#746,#747,#748));
#745 = ORIENTED_EDGE('',*,*,#484,.T.);
#746 = ORIENTED_EDGE('',*,*,#730,.T.);
#747 = ORIENTED_EDGE('',*,*,#597,.F.);
#748 = ORIENTED_EDGE('',*,*,#749,.F.);
#749 = EDGE_CURVE('',#477,#563,#750,.T.);
#750 = LINE('',#751,#752);
#751 = CARTESIAN_POINT('',(0.,-19.53,12.));
#752 = VECTOR('',#753,1.);
#753 = DIRECTION('',(0.,1.,0.));
#754 = PLANE('',#755);
#755 = AXIS2_PLACEMENT_3D('',#756,#757,#758);
#756 = CARTESIAN_POINT('',(0.,-19.53,12.));
#757 = DIRECTION('',(0.,0.,1.));
#758 = DIRECTION('',(0.,1.,0.));
#759 = ADVANCED_FACE('',(#760),#766,.F.);
#760 = FACE_BOUND('',#761,.F.);
#761 = EDGE_LOOP('',(#762,#763,#764,#765));
#762 = ORIENTED_EDGE('',*,*,#749,.F.);
#763 = ORIENTED_EDGE('',*,*,#476,.T.);
#764 = ORIENTED_EDGE('',*,*,#548,.T.);
#765 = ORIENTED_EDGE('',*,*,#562,.T.);
#766 = PLANE('',#767);
#767 = AXIS2_PLACEMENT_3D('',#768,#769,#770);
#768 = CARTESIAN_POINT('',(0.,-16.38,8.75));
#769 = DIRECTION('',(1.,0.,0.));
#770 = DIRECTION('',(0.,0.,1.));
#771 = ( GEOMETRIC_REPRESENTATION_CONTEXT(3) 
GLOBAL_UNCERTAINTY_ASSIGNED_CONTEXT((#775)) GLOBAL_UNIT_ASSIGNED_CONTEXT
((#772,#773,#774)) REPRESENTATION_CONTEXT('Context #1',
  '3D Context with UNIT and UNCERTAINTY') );
#772 = ( LENGTH_UNIT() NAMED_UNIT(*) SI_UNIT(.MILLI.,.METRE.) );
#773 = ( NAMED_UNIT(*) PLANE_ANGLE_UNIT() SI_UNIT($,.RADIAN.) );
#774 = ( NAMED_UNIT(*) SI_UNIT($,.STERADIAN.) SOLID_ANGLE_UNIT() );
#775 = UNCERTAINTY_MEASURE_WITH_UNIT(LENGTH_MEASURE(1.E-05),#772,
  'distance_accuracy_value','confusion accuracy');
#776 = PRODUCT_RELATED_PRODUCT_CATEGORY('part',$,(#7));
#777 = MECHANICAL_DESIGN_GEOMETRIC_PRESENTATION_REPRESENTATION('',(#778)
  ,#771);
#778 = STYLED_ITEM('color',(#779),#15);
#779 = PRESENTATION_STYLE_ASSIGNMENT((#780,#786));
#780 = SURFACE_STYLE_USAGE(.BOTH.,#781);
#781 = SURFACE_SIDE_STYLE('',(#782));
#782 = SURFACE_STYLE_FILL_AREA(#783);
#783 = FILL_AREA_STYLE('',(#784));
#784 = FILL_AREA_STYLE_COLOUR('',#785);
#785 = COLOUR_RGB('',0.447058818107,0.474509808674,0.501960817233);
#786 = CURVE_STYLE('',#787,POSITIVE_LENGTH_MEASURE(0.1),#788);
#787 = DRAUGHTING_PRE_DEFINED_CURVE_FONT('continuous');
#788 = COLOUR_RGB('',9.803921802644E-02,9.803921802644E-02,
  9.803921802644E-02);
ENDSEC;
END-ISO-10303-21;
