%TF.GenerationSoftware,KiCad,Pcbnew,(6.0.11)*%
%TF.CreationDate,2023-04-23T13:39:53-07:00*%
%TF.ProjectId,EV6 Board Design,45563620-426f-4617-9264-204465736967,rev?*%
%TF.SameCoordinates,Original*%
%TF.FileFunction,Legend,Bot*%
%TF.FilePolarity,Positive*%
%FSLAX46Y46*%
G04 Gerber Fmt 4.6, Leading zero omitted, Abs format (unit mm)*
G04 Created by KiCad (PCBNEW (6.0.11)) date 2023-04-23 13:39:53*
%MOMM*%
%LPD*%
G01*
G04 APERTURE LIST*
%ADD10C,3.200000*%
%ADD11C,2.100000*%
%ADD12R,1.700000X1.700000*%
%ADD13O,1.700000X1.700000*%
%ADD14C,0.650000*%
%ADD15O,1.000000X2.100000*%
%ADD16O,1.000000X1.600000*%
%ADD17C,0.350000*%
%ADD18C,0.600000*%
G04 APERTURE END LIST*
%LPC*%
D10*
%TO.C,REF\u002A\u002A*%
X206750000Y-120600000D03*
%TD*%
%TO.C,REF\u002A\u002A*%
X206750000Y-82300000D03*
%TD*%
D11*
%TO.C,REF\u002A\u002A*%
X266100000Y-153020000D03*
%TD*%
D12*
%TO.C,J4*%
X272250000Y-92560000D03*
D13*
X272250000Y-95100000D03*
X272250000Y-97640000D03*
X272250000Y-100180000D03*
X272250000Y-102720000D03*
X272250000Y-105260000D03*
X272250000Y-107800000D03*
X272250000Y-110340000D03*
%TD*%
D10*
%TO.C,REF\u002A\u002A*%
X272250000Y-120600000D03*
%TD*%
%TO.C,REF\u002A\u002A*%
X272250000Y-82300000D03*
%TD*%
D11*
%TO.C,REF\u002A\u002A*%
X212800000Y-153020000D03*
%TD*%
D14*
%TO.C,J9*%
X236560000Y-151200000D03*
X242340000Y-151200000D03*
D15*
X243770000Y-150670000D03*
X235130000Y-150670000D03*
D16*
X243770000Y-154850000D03*
X235130000Y-154850000D03*
%TD*%
D17*
X261840000Y-141470000D03*
X263320000Y-141500000D03*
D18*
X254555000Y-80655000D03*
X209290000Y-70400000D03*
X213380000Y-71700000D03*
X221350000Y-77730000D03*
X237550000Y-100840000D03*
X230100000Y-83050000D03*
X231940000Y-81050000D03*
X235209500Y-80200500D03*
X227790000Y-72020000D03*
X232800000Y-72140000D03*
X237800000Y-72340000D03*
X242800000Y-72180000D03*
X260980000Y-80510000D03*
X258650000Y-78400000D03*
X259000000Y-81110000D03*
X265300000Y-98700000D03*
X255863000Y-97887000D03*
X256250000Y-102460000D03*
X263310000Y-102470000D03*
X266525500Y-105050000D03*
X270430000Y-107800000D03*
X268880000Y-111320000D03*
X262000000Y-121200000D03*
X259650000Y-116550000D03*
X255100878Y-113816541D03*
X252950000Y-117500000D03*
X250150000Y-117300000D03*
X247750000Y-117700000D03*
X243300000Y-109350000D03*
X242200000Y-109550000D03*
X233800000Y-112120000D03*
X234750000Y-110400000D03*
X213380000Y-113120000D03*
X228960000Y-110850000D03*
X225250000Y-110820000D03*
X227100000Y-116150000D03*
X224800000Y-114050000D03*
X224015000Y-112735000D03*
X222690000Y-115390000D03*
X223750000Y-119000000D03*
X233600000Y-123850000D03*
X232606611Y-123960377D03*
X251190497Y-132249503D03*
X251300000Y-131250000D03*
X250250000Y-126770000D03*
X252775000Y-124925000D03*
X254240000Y-123250000D03*
X258812206Y-124092206D03*
X258800000Y-125050000D03*
X259650000Y-128110000D03*
X260620000Y-128010000D03*
X240733000Y-140660023D03*
X244655000Y-140725000D03*
X243900000Y-141510000D03*
X243120000Y-143230000D03*
X214450000Y-143380000D03*
X205250000Y-151680000D03*
X208320000Y-151660000D03*
X217000000Y-151610000D03*
X220050000Y-151730000D03*
X227434813Y-152423000D03*
X223800000Y-151790000D03*
X234125688Y-144574312D03*
X235635000Y-145785000D03*
X235780000Y-149170000D03*
X242050000Y-146713000D03*
X242360000Y-147790000D03*
X243200000Y-148920000D03*
X260590000Y-149170000D03*
D17*
X270690000Y-95950000D03*
X270690000Y-101430000D03*
X269610000Y-99980000D03*
X269599609Y-95187104D03*
X270725411Y-102939103D03*
X270160000Y-101002000D03*
X238586331Y-108245758D03*
X238360000Y-113912000D03*
X238780000Y-108760000D03*
X239118801Y-114801199D03*
X251130000Y-97660000D03*
X247203563Y-119146500D03*
X248900000Y-114650000D03*
X229030000Y-121230000D03*
X227174713Y-129914713D03*
X252950000Y-114900000D03*
X244550000Y-125450000D03*
X262679913Y-113643530D03*
X251740000Y-140740000D03*
X255609462Y-132750538D03*
X251900000Y-142549500D03*
X264280000Y-122270000D03*
X249400000Y-147100000D03*
X224890378Y-149513556D03*
X265300000Y-106800000D03*
X256000000Y-114950000D03*
X259100000Y-113650000D03*
X225920000Y-149474500D03*
X249150000Y-142700000D03*
X239083725Y-146649500D03*
X253940000Y-111940000D03*
X221650000Y-130500000D03*
X245688000Y-142650000D03*
X224935000Y-144215000D03*
X242750000Y-126300000D03*
X254600000Y-70550000D03*
X264450500Y-108550000D03*
X269750000Y-141050000D03*
X229624500Y-152240000D03*
X240050000Y-125950000D03*
X234970000Y-133990000D03*
X229624500Y-152789503D03*
X235730000Y-132030000D03*
X239910562Y-126538104D03*
X227742000Y-147154500D03*
X227860000Y-115160000D03*
X239406188Y-151306188D03*
X237800000Y-151550000D03*
X255261051Y-132125538D03*
X247530000Y-124464047D03*
X249372000Y-110805504D03*
X262466003Y-108448500D03*
X247548500Y-121120000D03*
X244080403Y-118991217D03*
X249373725Y-106991851D03*
X206250000Y-151890000D03*
X234424500Y-106308000D03*
X207708220Y-151944041D03*
X234927130Y-106635000D03*
X251460000Y-152560000D03*
X251730000Y-112653000D03*
X261980000Y-112930000D03*
X264360000Y-127940000D03*
X264280000Y-121180000D03*
X252880000Y-143150000D03*
X253410000Y-147710000D03*
X244150000Y-129670000D03*
X231250000Y-150270000D03*
X249520287Y-129259713D03*
X250774500Y-127790000D03*
X255195000Y-108045000D03*
X253330000Y-137900000D03*
X235180000Y-82960000D03*
X249478331Y-121910000D03*
X260660000Y-138490000D03*
X230160000Y-150470000D03*
X244156500Y-128470000D03*
X222400000Y-87150000D03*
X262249964Y-110250036D03*
X223450000Y-87150000D03*
X263249397Y-110261821D03*
X224500000Y-87150000D03*
X264268261Y-110315885D03*
X230420170Y-133115000D03*
X226147000Y-137400000D03*
X233912670Y-133231671D03*
X246345000Y-120845000D03*
X246670000Y-120350000D03*
X234382573Y-132761769D03*
X237339388Y-113641212D03*
X218010000Y-155120000D03*
X236790000Y-113630000D03*
X219020000Y-155070000D03*
X249590000Y-84220000D03*
X255968792Y-137679969D03*
X266270552Y-96540411D03*
X253473500Y-107746500D03*
X267160000Y-83285763D03*
X266331312Y-98180351D03*
X237679713Y-108570287D03*
X254969290Y-137680604D03*
X267270000Y-96530000D03*
X252266750Y-107786750D03*
X267330000Y-98140000D03*
X249570000Y-85390000D03*
X266722000Y-82847763D03*
X237060000Y-108570000D03*
X229144626Y-137108384D03*
X223501000Y-139085414D03*
X230800000Y-114300000D03*
X224028265Y-137315620D03*
X232200000Y-114650000D03*
X231041676Y-115961775D03*
X227473000Y-137397000D03*
X244156500Y-129110000D03*
X230705570Y-150344494D03*
X231500000Y-116850000D03*
X228525200Y-137108384D03*
X234848560Y-126749350D03*
X229684820Y-137209102D03*
X226380000Y-143500000D03*
X235032928Y-127267000D03*
X247641224Y-105652000D03*
X243159164Y-107323319D03*
X263439628Y-111830912D03*
X216203414Y-87103046D03*
X244149583Y-107457756D03*
X217200692Y-87169691D03*
X244605068Y-106554932D03*
X218200000Y-87150000D03*
X265924500Y-129870000D03*
X262400000Y-127780000D03*
X265924500Y-127850000D03*
X262410000Y-127070000D03*
X257695834Y-121821500D03*
X265924500Y-137050000D03*
X257110000Y-121930000D03*
X265924500Y-139050000D03*
X231731500Y-128747000D03*
X227981659Y-137189108D03*
X230200000Y-131687000D03*
X225027000Y-137354767D03*
X259059238Y-112651329D03*
X207745000Y-77415000D03*
X214550000Y-76840000D03*
X252990000Y-112480000D03*
X249919030Y-107059622D03*
X252390000Y-111200000D03*
X259990000Y-111200000D03*
X249130000Y-84870000D03*
X252157938Y-106957938D03*
X251247563Y-111200000D03*
X250795000Y-107115000D03*
X261040000Y-111890000D03*
X248580641Y-84857458D03*
X245600000Y-70920000D03*
X249180000Y-77960000D03*
X229155000Y-132239000D03*
X223593000Y-138281470D03*
X238728000Y-121835000D03*
X261916500Y-108448500D03*
X261040500Y-108448500D03*
X246011901Y-125340547D03*
X263465523Y-116194477D03*
X234930000Y-118350000D03*
X240540000Y-122641000D03*
X239330937Y-107289063D03*
X261290000Y-138740000D03*
X245520000Y-124920000D03*
X241900000Y-103150500D03*
X250356664Y-106615782D03*
X227800000Y-87100000D03*
X232200000Y-88200000D03*
X228799503Y-87100000D03*
X232100000Y-86900000D03*
X229650000Y-86437000D03*
X232090000Y-86010000D03*
X235280000Y-120380000D03*
X227710000Y-145560000D03*
X216330000Y-129360000D03*
X239800000Y-111100000D03*
X238300000Y-122790000D03*
X221198509Y-87150000D03*
X239055000Y-118880000D03*
X220354063Y-79575500D03*
X241350500Y-118815000D03*
X245590000Y-99400000D03*
X263888000Y-105190962D03*
X261469096Y-105418881D03*
X250901109Y-102127000D03*
X220199006Y-87150000D03*
X243700000Y-115450000D03*
X219350000Y-79570000D03*
X254362000Y-97190000D03*
X254473000Y-107973000D03*
X253970000Y-137660000D03*
X255238000Y-97230000D03*
X244612104Y-111350000D03*
X219199503Y-87150000D03*
X218300000Y-79575500D03*
X247567728Y-118592272D03*
X246314023Y-111285977D03*
X239250497Y-111100000D03*
X216320000Y-131290000D03*
X216340000Y-133310000D03*
X217206500Y-116460000D03*
X216450000Y-135410000D03*
X217533500Y-117620000D03*
X216360000Y-141240000D03*
X251400500Y-102454000D03*
X232073935Y-108562000D03*
X256514062Y-104784062D03*
X260920000Y-105440000D03*
X232371783Y-98543990D03*
X233030000Y-107908000D03*
X250040000Y-95750000D03*
X216360000Y-137400000D03*
X233148897Y-99321104D03*
X249850000Y-94500000D03*
X216320000Y-139350000D03*
X232760340Y-98932547D03*
X232528897Y-108235000D03*
X246880000Y-108720000D03*
X266430000Y-115530000D03*
X264170000Y-101360000D03*
X269220000Y-103090000D03*
X259970000Y-105462000D03*
X255400000Y-147080000D03*
X264147794Y-100360745D03*
X270217737Y-103149389D03*
X256430000Y-147080000D03*
X258940644Y-105430644D03*
X246880000Y-108170497D03*
X266420000Y-114480000D03*
X243500000Y-121291000D03*
X256355439Y-132213388D03*
X241540000Y-114850000D03*
X241575500Y-113527306D03*
X235880000Y-115120000D03*
X235890000Y-113770000D03*
X235270000Y-114668000D03*
X235240713Y-113761287D03*
X242824500Y-121291000D03*
X255810209Y-132144995D03*
X257690000Y-132190000D03*
X244075500Y-120972000D03*
X256903586Y-132174818D03*
X245561808Y-123118192D03*
X241980000Y-137310000D03*
X248690000Y-136092000D03*
X243260000Y-137440000D03*
X246648500Y-136432000D03*
M02*
