M48
; DRILL file {KiCad (6.0.11)} date Sun Apr 23 13:39:53 2023
; FORMAT={-:-/ absolute / inch / decimal}
; #@! TF.CreationDate,2023-04-23T13:39:53-07:00
; #@! TF.GenerationSoftware,Kicad,Pcbnew,(6.0.11)
; #@! TF.FileFunction,Plated,1,4,PTH
FMAT,2
INCH
; #@! TA.AperFunction,Plated,PTH,ViaDrill
T1C0.0079
; #@! TA.AperFunction,Plated,PTH,ComponentDrill
T2C0.0079
; #@! TA.AperFunction,Plated,PTH,ViaDrill
T3C0.0118
; #@! TA.AperFunction,Plated,PTH,ComponentDrill
T4C0.0236
; #@! TA.AperFunction,Plated,PTH,ComponentDrill
T5C0.0394
%
G90
G05
T1
X8.1201Y-5.9799
X8.1775Y-5.982
X8.1789Y-3.0478
X8.4469Y-3.0252
X8.5119Y-3.4293
X8.5165Y-5.1689
X8.5165Y-5.4862
X8.5169Y-5.0929
X8.5173Y-5.2484
X8.5181Y-5.4094
X8.5181Y-5.5606
X8.5217Y-5.3311
X8.5512Y-3.4319
X8.5514Y-4.585
X8.5643Y-4.6307
X8.5831Y-6.1071
X8.5906Y-3.4311
X8.5945Y-3.1329
X8.6228Y-6.1051
X8.6299Y-3.4311
X8.6358Y-3.1327
X8.6693Y-3.4311
X8.6754Y-3.1329
X8.7086Y-3.4311
X8.7264Y-5.1378
X8.7559Y-3.4311
X8.7972Y-3.4311
X8.7993Y-5.4758
X8.8029Y-5.4442
X8.82Y-5.4061
X8.8386Y-3.4311
X8.854Y-5.8864
X8.8557Y-5.6778
X8.8593Y-5.4077
X8.8945Y-5.8848
X8.9034Y-5.4094
X8.9126Y-5.6496
X8.9439Y-5.1148
X8.9556Y-5.4093
X8.965Y-5.7307
X8.9662Y-5.7935
X8.9685Y-3.4291
X8.9709Y-4.5339
X8.9757Y-5.4011
X8.9971Y-5.398
X9.0079Y-3.4291
X9.0169Y-4.7728
X9.0214Y-5.398
X9.0219Y-5.2063
X9.0403Y-5.9937
X9.0403Y-6.0153
X9.0413Y-3.403
X9.0427Y-5.4019
X9.0614Y-5.924
X9.063Y-5.1845
X9.0717Y-5.2407
X9.0829Y-5.9191
X9.0866Y-4.5
X9.0961Y-4.5654
X9.1043Y-5.9161
X9.1142Y-4.6004
X9.1233Y-5.0688
X9.1368Y-4.2741
X9.1374Y-3.3862
X9.1378Y-3.4213
X9.1417Y-3.4724
X9.1417Y-4.5138
X9.1485Y-3.8797
X9.1547Y-4.2612
X9.1638Y-3.895
X9.1744Y-4.2483
X9.1791Y-3.9103
X9.2092Y-5.2453
X9.2277Y-5.2268
X9.2293Y-4.1854
X9.246Y-4.9901
X9.2491Y-4.1982
X9.2492Y-4.6594
X9.2508Y-5.2752
X9.2533Y-5.0105
X9.2591Y-3.2661
X9.2614Y-4.4788
X9.2626Y-4.5145
X9.263Y-4.7394
X9.2807Y-5.198
X9.2866Y-4.5323
X9.287Y-4.4791
X9.3224Y-4.4736
X9.3331Y-4.2744
X9.3441Y-4.4741
X9.3575Y-4.2744
X9.3622Y-5.9665
X9.3819Y-4.8343
X9.3843Y-4.4847
X9.3932Y-4.2616
X9.3987Y-4.7967
X9.4008Y-4.2819
X9.4116Y-4.6803
X9.4127Y-5.7736
X9.4141Y-4.5197
X9.4193Y-4.374
X9.4225Y-4.224
X9.4254Y-5.9569
X9.4409Y-4.374
X9.4453Y-4.9818
X9.4508Y-4.9587
X9.4701Y-4.8284
X9.502Y-4.6778
X9.5094Y-4.5217
X9.5108Y-4.4696
X9.5236Y-4.061
X9.5268Y-5.4059
X9.5571Y-4.9724
X9.56Y-4.7752
X9.5732Y-4.2253
X9.5772Y-5.411
X9.5866Y-4.7752
X9.5945Y-4.5453
X9.6093Y-4.7627
X9.6095Y-4.6847
X9.6122Y-4.2306
X9.6122Y-5.1051
X9.6125Y-5.0579
X9.6125Y-5.0831
X9.628Y-4.939
X9.6301Y-4.1951
X9.6304Y-4.3839
X9.6661Y-4.9181
X9.6678Y-4.8472
X9.6689Y-3.9134
X9.6693Y-2.7921
X9.6728Y-5.6161
X9.6855Y-4.9347
X9.6974Y-4.3813
X9.6986Y-4.7577
X9.7106Y-5.3713
X9.7114Y-4.7382
X9.7197Y-4.2587
X9.7197Y-4.2803
X9.7324Y-4.6908
X9.7453Y-4.9002
X9.746Y-4.7685
X9.7468Y-4.669
X9.7497Y-4.1595
X9.7866Y-3.3408
X9.7909Y-5.358
X9.7992Y-4.5138
X9.8083Y-3.3413
X9.8091Y-5.6181
X9.8102Y-3.0693
X9.8178Y-4.3624
X9.8179Y-4.2123
X9.8189Y-5.7913
X9.822Y-4.7996
X9.8236Y-5.089
X9.8256Y-3.3618
X9.8264Y-3.3157
X9.8366Y-3.7205
X9.8393Y-4.2149
X9.8441Y-3.7697
X9.8566Y-4.1975
X9.873Y-5.0311
X9.8738Y-4.2171
X9.878Y-4.0207
X9.887Y-3.8449
X9.8916Y-4.378
X9.8977Y-4.0336
X9.9Y-6.0063
X9.9106Y-4.4352
X9.911Y-5.5409
X9.9173Y-5.6122
X9.9275Y-4.2109
X9.9318Y-4.2436
X9.9366Y-4.378
X9.9559Y-5.6358
X9.9587Y-4.5236
X9.9602Y-4.4283
X9.9736Y-5.4291
X9.9768Y-5.8154
X9.9793Y-4.242
X9.9976Y-4.4071
X9.9988Y-5.4197
X10.0143Y-3.8264
X10.0186Y-4.2509
X10.0236Y-2.7776
X10.0382Y-5.4205
X10.047Y-4.2537
X10.0487Y-3.828
X10.0496Y-5.2018
X10.0551Y-5.7906
X10.0634Y-5.2264
X10.0713Y-5.2026
X10.0775Y-5.4205
X10.0787Y-4.5256
X10.0927Y-5.2053
X10.0957Y-5.7906
X10.099Y-4.1254
X10.1143Y-5.2037
X10.1224Y-4.8004
X10.1453Y-5.2043
X10.1455Y-4.7961
X10.1945Y-4.1508
X10.1992Y-4.4351
X10.2008Y-4.4744
X10.235Y-4.152
X10.2358Y-4.378
X10.2622Y-5.4524
X10.2724Y-4.1512
X10.2772Y-4.4051
X10.2772Y-4.2696
X10.287Y-5.4622
X10.2941Y-4.1503
X10.3087Y-5.5697
X10.3117Y-4.2696
X10.3142Y-4.4461
X10.3248Y-4.3406
X10.3307Y-5.0307
X10.3311Y-5.0028
X10.3333Y-4.2696
X10.3417Y-4.4742
X10.3641Y-4.341
X10.3669Y-5.5709
X10.3716Y-4.4028
X10.3727Y-4.5746
X10.3893Y-4.1414
X10.3995Y-3.9512
X10.4004Y-3.9906
X10.4043Y-4.3431
X10.4047Y-4.7709
X10.4047Y-4.8138
X10.4079Y-5.037
X10.4114Y-4.2736
X10.4449Y-4.2047
X10.4695Y-5.0335
X10.4695Y-5.113
X10.4695Y-5.3957
X10.4695Y-5.4744
X10.4831Y-3.8008
X10.4855Y-3.8654
X10.489Y-4.5071
X10.4894Y-4.5484
X10.5009Y-3.2617
X10.5181Y-3.279
X10.5224Y-3.8004
X10.5248Y-3.8638
X10.5992Y-4.0587
X10.6142Y-3.7475
X10.6146Y-3.9362
X10.6201Y-5.5531
X10.6362Y-3.9765
X10.6385Y-4.061
X10.6571Y-3.7776
X10.6571Y-3.9933
X10.6585Y-4.0527
T2
X9.4291Y-3.4443
X9.4291Y-3.4994
X9.4567Y-3.4167
X9.4567Y-3.4719
X9.4567Y-3.527
X9.4843Y-3.4443
X9.4843Y-3.4994
X9.5118Y-3.4167
X9.5118Y-3.4719
X9.5118Y-3.527
X9.5394Y-3.4443
X9.5394Y-3.4994
T3
X8.0807Y-5.9717
X8.2016Y-5.9709
X8.2398Y-2.7717
X8.4008Y-2.8228
X8.4008Y-4.4535
X8.4429Y-5.6449
X8.5433Y-5.9689
X8.6634Y-5.9736
X8.7146Y-3.0602
X8.7673Y-4.5429
X8.8091Y-4.685
X8.811Y-5.976
X8.8195Y-4.4384
X8.8504Y-4.4902
X8.8681Y-4.363
X8.9409Y-4.5728
X8.9541Y-6.0009
X8.9681Y-2.8354
X9.0142Y-4.3642
X9.0591Y-3.2697
X9.1315Y-3.1909
X9.1577Y-4.8803
X9.1654Y-2.8402
X9.1969Y-4.876
X9.2047Y-4.4142
X9.2175Y-5.6919
X9.2421Y-4.3465
X9.2602Y-3.1575
X9.277Y-5.7396
X9.2827Y-5.8728
X9.3524Y-3.9701
X9.3622Y-2.848
X9.4777Y-5.5378
X9.5295Y-5.7761
X9.5354Y-4.313
X9.5417Y-5.8185
X9.5591Y-2.8417
X9.5717Y-5.639
X9.5748Y-5.863
X9.5787Y-4.3051
X9.6024Y-5.5713
X9.6321Y-5.5404
X9.7539Y-4.6339
X9.8484Y-4.6181
X9.8524Y-4.9909
X9.8894Y-5.2067
X9.8937Y-5.1673
X9.9518Y-4.9183
X9.9587Y-4.626
X10.0094Y-4.8524
X10.0219Y-3.1754
X10.0433Y-4.481
X10.0733Y-3.8538
X10.0886Y-4.0339
X10.1831Y-3.0866
X10.189Y-4.9232
X10.1895Y-4.8855
X10.1969Y-3.1933
X10.2224Y-4.5886
X10.2224Y-5.0437
X10.2594Y-5.8728
X10.2606Y-5.0398
X10.2748Y-3.1697
X10.315Y-4.7717
X10.3665Y-4.0343
X10.4449Y-3.8858
X10.4931Y-4.1358
X10.5858Y-4.3827
X10.6469Y-4.2441
T5
X10.7185Y-3.6441
X10.7185Y-3.7441
X10.7185Y-3.8441
X10.7185Y-3.9441
X10.7185Y-4.0441
X10.7185Y-4.1441
X10.7185Y-4.2441
X10.7185Y-4.3441
T4
G00X9.2571Y-5.9102
M15
G01X9.2571Y-5.9535
M16
G05
G00X9.2571Y-6.0846
M15
G01X9.2571Y-6.1083
M16
G05
G00X9.5972Y-5.9102
M15
G01X9.5972Y-5.9535
M16
G05
G00X9.5972Y-6.0846
M15
G01X9.5972Y-6.1083
M16
G05
T0
M30
