%TF.GenerationSoftware,KiCad,Pcbnew,(6.0.11)*%
%TF.CreationDate,2023-04-23T13:39:53-07:00*%
%TF.ProjectId,EV6 Board Design,45563620-426f-4617-9264-204465736967,rev?*%
%TF.SameCoordinates,Original*%
%TF.FileFunction,Copper,L1,Top*%
%TF.FilePolarity,Positive*%
%FSLAX46Y46*%
G04 Gerber Fmt 4.6, Leading zero omitted, Abs format (unit mm)*
G04 Created by KiCad (PCBNEW (6.0.11)) date 2023-04-23 13:39:53*
%MOMM*%
%LPD*%
G01*
G04 APERTURE LIST*
G04 Aperture macros list*
%AMRoundRect*
0 Rectangle with rounded corners*
0 $1 Rounding radius*
0 $2 $3 $4 $5 $6 $7 $8 $9 X,Y pos of 4 corners*
0 Add a 4 corners polygon primitive as box body*
4,1,4,$2,$3,$4,$5,$6,$7,$8,$9,$2,$3,0*
0 Add four circle primitives for the rounded corners*
1,1,$1+$1,$2,$3*
1,1,$1+$1,$4,$5*
1,1,$1+$1,$6,$7*
1,1,$1+$1,$8,$9*
0 Add four rect primitives between the rounded corners*
20,1,$1+$1,$2,$3,$4,$5,0*
20,1,$1+$1,$4,$5,$6,$7,0*
20,1,$1+$1,$6,$7,$8,$9,0*
20,1,$1+$1,$8,$9,$2,$3,0*%
G04 Aperture macros list end*
%TA.AperFunction,SMDPad,CuDef*%
%ADD10R,0.500000X1.700000*%
%TD*%
%TA.AperFunction,SMDPad,CuDef*%
%ADD11R,1.200000X2.500000*%
%TD*%
%TA.AperFunction,SMDPad,CuDef*%
%ADD12RoundRect,0.135000X-0.135000X-0.185000X0.135000X-0.185000X0.135000X0.185000X-0.135000X0.185000X0*%
%TD*%
%TA.AperFunction,SMDPad,CuDef*%
%ADD13RoundRect,0.140000X0.140000X0.170000X-0.140000X0.170000X-0.140000X-0.170000X0.140000X-0.170000X0*%
%TD*%
%TA.AperFunction,SMDPad,CuDef*%
%ADD14R,1.422400X0.533400*%
%TD*%
%TA.AperFunction,SMDPad,CuDef*%
%ADD15RoundRect,0.140000X-0.140000X-0.170000X0.140000X-0.170000X0.140000X0.170000X-0.140000X0.170000X0*%
%TD*%
%TA.AperFunction,SMDPad,CuDef*%
%ADD16R,0.600000X0.450000*%
%TD*%
%TA.AperFunction,SMDPad,CuDef*%
%ADD17RoundRect,0.075000X0.075000X-0.662500X0.075000X0.662500X-0.075000X0.662500X-0.075000X-0.662500X0*%
%TD*%
%TA.AperFunction,SMDPad,CuDef*%
%ADD18RoundRect,0.075000X0.662500X-0.075000X0.662500X0.075000X-0.662500X0.075000X-0.662500X-0.075000X0*%
%TD*%
%TA.AperFunction,SMDPad,CuDef*%
%ADD19RoundRect,0.140000X0.170000X-0.140000X0.170000X0.140000X-0.170000X0.140000X-0.170000X-0.140000X0*%
%TD*%
%TA.AperFunction,SMDPad,CuDef*%
%ADD20RoundRect,0.250000X-0.475000X0.250000X-0.475000X-0.250000X0.475000X-0.250000X0.475000X0.250000X0*%
%TD*%
%TA.AperFunction,SMDPad,CuDef*%
%ADD21RoundRect,0.135000X-0.185000X0.135000X-0.185000X-0.135000X0.185000X-0.135000X0.185000X0.135000X0*%
%TD*%
%TA.AperFunction,SMDPad,CuDef*%
%ADD22RoundRect,0.140000X-0.170000X0.140000X-0.170000X-0.140000X0.170000X-0.140000X0.170000X0.140000X0*%
%TD*%
%TA.AperFunction,SMDPad,CuDef*%
%ADD23RoundRect,0.250000X1.500000X-0.250000X1.500000X0.250000X-1.500000X0.250000X-1.500000X-0.250000X0*%
%TD*%
%TA.AperFunction,SMDPad,CuDef*%
%ADD24RoundRect,0.250001X1.449999X-0.499999X1.449999X0.499999X-1.449999X0.499999X-1.449999X-0.499999X0*%
%TD*%
%TA.AperFunction,SMDPad,CuDef*%
%ADD25R,0.400000X0.410000*%
%TD*%
%TA.AperFunction,SMDPad,CuDef*%
%ADD26R,0.400000X0.200000*%
%TD*%
%TA.AperFunction,SMDPad,CuDef*%
%ADD27RoundRect,0.075000X0.700000X0.075000X-0.700000X0.075000X-0.700000X-0.075000X0.700000X-0.075000X0*%
%TD*%
%TA.AperFunction,SMDPad,CuDef*%
%ADD28RoundRect,0.075000X0.075000X0.700000X-0.075000X0.700000X-0.075000X-0.700000X0.075000X-0.700000X0*%
%TD*%
%TA.AperFunction,SMDPad,CuDef*%
%ADD29RoundRect,0.135000X0.185000X-0.135000X0.185000X0.135000X-0.185000X0.135000X-0.185000X-0.135000X0*%
%TD*%
%TA.AperFunction,SMDPad,CuDef*%
%ADD30RoundRect,0.218750X-0.218750X-0.256250X0.218750X-0.256250X0.218750X0.256250X-0.218750X0.256250X0*%
%TD*%
%TA.AperFunction,SMDPad,CuDef*%
%ADD31RoundRect,0.135000X0.135000X0.185000X-0.135000X0.185000X-0.135000X-0.185000X0.135000X-0.185000X0*%
%TD*%
%TA.AperFunction,ComponentPad*%
%ADD32R,1.700000X1.700000*%
%TD*%
%TA.AperFunction,ComponentPad*%
%ADD33O,1.700000X1.700000*%
%TD*%
%TA.AperFunction,SMDPad,CuDef*%
%ADD34RoundRect,0.250000X0.650000X-0.325000X0.650000X0.325000X-0.650000X0.325000X-0.650000X-0.325000X0*%
%TD*%
%TA.AperFunction,SMDPad,CuDef*%
%ADD35RoundRect,0.243750X0.456250X-0.243750X0.456250X0.243750X-0.456250X0.243750X-0.456250X-0.243750X0*%
%TD*%
%TA.AperFunction,SMDPad,CuDef*%
%ADD36RoundRect,0.250000X0.250000X1.500000X-0.250000X1.500000X-0.250000X-1.500000X0.250000X-1.500000X0*%
%TD*%
%TA.AperFunction,SMDPad,CuDef*%
%ADD37RoundRect,0.250001X0.499999X1.449999X-0.499999X1.449999X-0.499999X-1.449999X0.499999X-1.449999X0*%
%TD*%
%TA.AperFunction,SMDPad,CuDef*%
%ADD38R,1.120000X2.160000*%
%TD*%
%TA.AperFunction,SMDPad,CuDef*%
%ADD39RoundRect,0.007500X-0.372500X-0.117500X0.372500X-0.117500X0.372500X0.117500X-0.372500X0.117500X0*%
%TD*%
%TA.AperFunction,SMDPad,CuDef*%
%ADD40RoundRect,0.007500X0.117500X-0.372500X0.117500X0.372500X-0.117500X0.372500X-0.117500X-0.372500X0*%
%TD*%
%TA.AperFunction,SMDPad,CuDef*%
%ADD41R,3.650000X3.650000*%
%TD*%
%TA.AperFunction,SMDPad,CuDef*%
%ADD42RoundRect,0.250000X0.475000X-0.250000X0.475000X0.250000X-0.475000X0.250000X-0.475000X-0.250000X0*%
%TD*%
%TA.AperFunction,SMDPad,CuDef*%
%ADD43R,0.400000X0.600000*%
%TD*%
%TA.AperFunction,SMDPad,CuDef*%
%ADD44RoundRect,0.150000X0.150000X-0.825000X0.150000X0.825000X-0.150000X0.825000X-0.150000X-0.825000X0*%
%TD*%
%TA.AperFunction,SMDPad,CuDef*%
%ADD45R,1.500000X2.000000*%
%TD*%
%TA.AperFunction,SMDPad,CuDef*%
%ADD46R,3.800000X2.000000*%
%TD*%
%TA.AperFunction,SMDPad,CuDef*%
%ADD47R,1.500000X0.900000*%
%TD*%
%TA.AperFunction,SMDPad,CuDef*%
%ADD48R,0.900000X1.500000*%
%TD*%
%TA.AperFunction,ComponentPad*%
%ADD49C,0.500000*%
%TD*%
%TA.AperFunction,SMDPad,CuDef*%
%ADD50R,3.900000X3.900000*%
%TD*%
%TA.AperFunction,SMDPad,CuDef*%
%ADD51RoundRect,0.250000X-0.250000X-1.500000X0.250000X-1.500000X0.250000X1.500000X-0.250000X1.500000X0*%
%TD*%
%TA.AperFunction,SMDPad,CuDef*%
%ADD52RoundRect,0.250001X-0.499999X-1.449999X0.499999X-1.449999X0.499999X1.449999X-0.499999X1.449999X0*%
%TD*%
%TA.AperFunction,SMDPad,CuDef*%
%ADD53RoundRect,0.250000X-1.500000X0.250000X-1.500000X-0.250000X1.500000X-0.250000X1.500000X0.250000X0*%
%TD*%
%TA.AperFunction,SMDPad,CuDef*%
%ADD54RoundRect,0.250001X-1.449999X0.499999X-1.449999X-0.499999X1.449999X-0.499999X1.449999X0.499999X0*%
%TD*%
%TA.AperFunction,SMDPad,CuDef*%
%ADD55R,0.600000X1.450000*%
%TD*%
%TA.AperFunction,SMDPad,CuDef*%
%ADD56R,0.300000X1.450000*%
%TD*%
%TA.AperFunction,ComponentPad*%
%ADD57O,1.000000X2.100000*%
%TD*%
%TA.AperFunction,ComponentPad*%
%ADD58O,1.000000X1.600000*%
%TD*%
%TA.AperFunction,SMDPad,CuDef*%
%ADD59R,0.500000X0.375000*%
%TD*%
%TA.AperFunction,SMDPad,CuDef*%
%ADD60R,0.650000X0.300000*%
%TD*%
%TA.AperFunction,SMDPad,CuDef*%
%ADD61RoundRect,0.150000X-0.150000X0.512500X-0.150000X-0.512500X0.150000X-0.512500X0.150000X0.512500X0*%
%TD*%
%TA.AperFunction,SMDPad,CuDef*%
%ADD62R,1.400000X1.200000*%
%TD*%
%TA.AperFunction,ViaPad*%
%ADD63C,0.350000*%
%TD*%
%TA.AperFunction,ViaPad*%
%ADD64C,0.600000*%
%TD*%
%TA.AperFunction,Conductor*%
%ADD65C,0.127000*%
%TD*%
%TA.AperFunction,Conductor*%
%ADD66C,0.500000*%
%TD*%
%TA.AperFunction,Conductor*%
%ADD67C,0.200000*%
%TD*%
%TA.AperFunction,Conductor*%
%ADD68C,0.250000*%
%TD*%
G04 APERTURE END LIST*
D10*
%TO.P,J14,1,Pin_1*%
%TO.N,+3.3V*%
X221400000Y-76180000D03*
%TO.P,J14,2,Pin_2*%
%TO.N,Net-(J14-Pad2)*%
X220400000Y-76180000D03*
%TO.P,J14,3,Pin_3*%
%TO.N,Net-(J14-Pad3)*%
X219400000Y-76180000D03*
%TO.P,J14,4,Pin_4*%
%TO.N,Net-(J14-Pad4)*%
X218400000Y-76180000D03*
D11*
%TO.P,J14,5*%
%TO.N,N/C*%
X222500000Y-72780000D03*
%TO.P,J14,6*%
X217300000Y-72780000D03*
%TD*%
D10*
%TO.P,J13,1,Pin_1*%
%TO.N,/BTN_RST*%
X214530000Y-76200000D03*
%TO.P,J13,2,Pin_2*%
%TO.N,/BTN_UI*%
X213530000Y-76200000D03*
%TO.P,J13,3,Pin_3*%
%TO.N,/BTN_NET*%
X212530000Y-76200000D03*
%TO.P,J13,4,Pin_4*%
%TO.N,GND*%
X211530000Y-76200000D03*
D11*
%TO.P,J13,5*%
%TO.N,N/C*%
X215630000Y-72800000D03*
%TO.P,J13,6*%
X210430000Y-72800000D03*
%TD*%
D10*
%TO.P,J12,1,Pin_1*%
%TO.N,/UI_SWDIO*%
X263330000Y-139990000D03*
%TO.P,J12,2,Pin_2*%
%TO.N,/UI_SWDCLK*%
X262330000Y-139990000D03*
%TO.P,J12,3,Pin_3*%
%TO.N,/UI_BOOT*%
X261330000Y-139990000D03*
%TO.P,J12,4,Pin_4*%
%TO.N,/UI_RST*%
X260330000Y-139990000D03*
D11*
%TO.P,J12,5*%
%TO.N,N/C*%
X264430000Y-136590000D03*
%TO.P,J12,6*%
X259230000Y-136590000D03*
%TD*%
D10*
%TO.P,J7,1,Pin_1*%
%TO.N,+3.3V*%
X223800000Y-153070000D03*
%TO.P,J7,2,Pin_2*%
%TO.N,/UI_SCL*%
X224800000Y-153070000D03*
%TO.P,J7,3,Pin_3*%
%TO.N,/UI_SDA*%
X225800000Y-153070000D03*
%TO.P,J7,4,Pin_4*%
%TO.N,GND*%
X226800000Y-153070000D03*
D11*
%TO.P,J7,5*%
%TO.N,N/C*%
X222700000Y-156470000D03*
%TO.P,J7,6*%
X227900000Y-156470000D03*
%TD*%
D10*
%TO.P,J6,1,Pin_1*%
%TO.N,/NET_TX0_MGMT*%
X256370000Y-139960000D03*
%TO.P,J6,2,Pin_2*%
%TO.N,/NET_RX0_MGMT*%
X255370000Y-139960000D03*
%TO.P,J6,3,Pin_3*%
%TO.N,/NET_BOOT*%
X254370000Y-139960000D03*
%TO.P,J6,4,Pin_4*%
%TO.N,/NET_RST*%
X253370000Y-139960000D03*
D11*
%TO.P,J6,5*%
%TO.N,N/C*%
X257470000Y-136560000D03*
%TO.P,J6,6*%
X252270000Y-136560000D03*
%TD*%
D10*
%TO.P,J5,1,Pin_1*%
%TO.N,+3.3V*%
X216920000Y-153100000D03*
%TO.P,J5,2,Pin_2*%
%TO.N,/UI_TX3*%
X217920000Y-153100000D03*
%TO.P,J5,3,Pin_3*%
%TO.N,/UI_RX3*%
X218920000Y-153100000D03*
%TO.P,J5,4,Pin_4*%
%TO.N,GND*%
X219920000Y-153100000D03*
D11*
%TO.P,J5,5*%
%TO.N,N/C*%
X215820000Y-156500000D03*
%TO.P,J5,6*%
X221020000Y-156500000D03*
%TD*%
D10*
%TO.P,J3,1,Pin_1*%
%TO.N,+3.3V*%
X205290000Y-153050000D03*
%TO.P,J3,2,Pin_2*%
%TO.N,/NET_SDA*%
X206290000Y-153050000D03*
%TO.P,J3,3,Pin_3*%
%TO.N,/NET_SCL*%
X207290000Y-153050000D03*
%TO.P,J3,4,Pin_4*%
%TO.N,GND*%
X208290000Y-153050000D03*
D11*
%TO.P,J3,5*%
%TO.N,N/C*%
X204190000Y-156450000D03*
%TO.P,J3,6*%
X209390000Y-156450000D03*
%TD*%
D12*
%TO.P,R28,1*%
%TO.N,Net-(J10-Pad4)*%
X214740000Y-135400000D03*
%TO.P,R28,2*%
%TO.N,/UI_DBG4*%
X215760000Y-135400000D03*
%TD*%
D13*
%TO.P,C13,1*%
%TO.N,+3.3V*%
X233630000Y-122900000D03*
%TO.P,C13,2*%
%TO.N,GND*%
X232670000Y-122900000D03*
%TD*%
D14*
%TO.P,CR1,1,E0*%
%TO.N,GND*%
X223056000Y-126645000D03*
%TO.P,CR1,2,E1*%
X223056000Y-127915000D03*
%TO.P,CR1,3,E2*%
X223056000Y-129185000D03*
%TO.P,CR1,4,VSS*%
X223056000Y-130455000D03*
%TO.P,CR1,5,SDA*%
%TO.N,/UI_SDA*%
X228644000Y-130455000D03*
%TO.P,CR1,6,SCL*%
%TO.N,/UI_SCL*%
X228644000Y-129185000D03*
%TO.P,CR1,7,\u002AWC*%
%TO.N,unconnected-(CR1-Pad7)*%
X228644000Y-127915000D03*
%TO.P,CR1,8,VCC*%
%TO.N,+3.3V*%
X228644000Y-126645000D03*
%TD*%
D15*
%TO.P,C22,1*%
%TO.N,GND*%
X231320000Y-121700000D03*
%TO.P,C22,2*%
%TO.N,Net-(C22-Pad2)*%
X232280000Y-121700000D03*
%TD*%
D16*
%TO.P,D2,1,K*%
%TO.N,Net-(D10-Pad1)*%
X219500000Y-113610000D03*
%TO.P,D2,2,A*%
%TO.N,+BATT*%
X221600000Y-113610000D03*
%TD*%
D17*
%TO.P,U5,1,VDD*%
%TO.N,+3.3V*%
X258950000Y-114962500D03*
%TO.P,U5,2,PC13*%
%TO.N,/BTN_RST*%
X259450000Y-114962500D03*
%TO.P,U5,3,PC14*%
%TO.N,/BTN_UI*%
X259950000Y-114962500D03*
%TO.P,U5,4,PC15*%
%TO.N,/BTN_NET*%
X260450000Y-114962500D03*
%TO.P,U5,5,PF0*%
%TO.N,/RCC_OSC_IN*%
X260950000Y-114962500D03*
%TO.P,U5,6,PF1*%
%TO.N,/RCC_OSC_OUT*%
X261450000Y-114962500D03*
%TO.P,U5,7,NRST*%
%TO.N,/MGMT_NRST*%
X261950000Y-114962500D03*
%TO.P,U5,8,VSSA*%
%TO.N,GND*%
X262450000Y-114962500D03*
%TO.P,U5,9,VDDA*%
%TO.N,+3.3V*%
X262950000Y-114962500D03*
%TO.P,U5,10,PA0*%
%TO.N,/UI_STAT*%
X263450000Y-114962500D03*
%TO.P,U5,11,PA1*%
%TO.N,/NET_STAT*%
X263950000Y-114962500D03*
%TO.P,U5,12,PA2*%
%TO.N,/UI_TX2_MGMT*%
X264450000Y-114962500D03*
D18*
%TO.P,U5,13,PA3*%
%TO.N,/UI_RX2_MGMT*%
X265862500Y-113550000D03*
%TO.P,U5,14,PA4*%
%TO.N,/LEDB_R*%
X265862500Y-113050000D03*
%TO.P,U5,15,PA5*%
%TO.N,unconnected-(U5-Pad15)*%
X265862500Y-112550000D03*
%TO.P,U5,16,PA6*%
%TO.N,/LEDA_R*%
X265862500Y-112050000D03*
%TO.P,U5,17,PA7*%
%TO.N,/LEDA_G*%
X265862500Y-111550000D03*
%TO.P,U5,18,PB0*%
%TO.N,/LEDA_B*%
X265862500Y-111050000D03*
%TO.P,U5,19,PB1*%
%TO.N,/USB_RTS*%
X265862500Y-110550000D03*
%TO.P,U5,20,PB2*%
%TO.N,unconnected-(U5-Pad20)*%
X265862500Y-110050000D03*
%TO.P,U5,21,PB10*%
%TO.N,/USB_TX1_MGMT*%
X265862500Y-109550000D03*
%TO.P,U5,22,PB11*%
%TO.N,/USB_RX1_MGMT*%
X265862500Y-109050000D03*
%TO.P,U5,23,VSS*%
%TO.N,GND*%
X265862500Y-108550000D03*
%TO.P,U5,24,VDD*%
%TO.N,+3.3V*%
X265862500Y-108050000D03*
D17*
%TO.P,U5,25,PB12*%
%TO.N,unconnected-(U5-Pad25)*%
X264450000Y-106637500D03*
%TO.P,U5,26,PB13*%
%TO.N,/USB_DTR*%
X263950000Y-106637500D03*
%TO.P,U5,27,PB14*%
%TO.N,/LEDB_G*%
X263450000Y-106637500D03*
%TO.P,U5,28,PB15*%
%TO.N,/LEDB_B*%
X262950000Y-106637500D03*
%TO.P,U5,29,PA8*%
%TO.N,/MCLK*%
X262450000Y-106637500D03*
%TO.P,U5,30,PA9*%
%TO.N,/UI_STAT*%
X261950000Y-106637500D03*
%TO.P,U5,31,PA10*%
%TO.N,/NET_STAT*%
X261450000Y-106637500D03*
%TO.P,U5,32,PA11*%
%TO.N,/MGMT_DBG7*%
X260950000Y-106637500D03*
%TO.P,U5,33,PA12*%
%TO.N,unconnected-(U5-Pad33)*%
X260450000Y-106637500D03*
%TO.P,U5,34,PA13*%
%TO.N,/MGMT_SWDIO*%
X259950000Y-106637500D03*
%TO.P,U5,35,PF6*%
%TO.N,unconnected-(U5-Pad35)*%
X259450000Y-106637500D03*
%TO.P,U5,36,PF7*%
%TO.N,unconnected-(U5-Pad36)*%
X258950000Y-106637500D03*
D18*
%TO.P,U5,37,PA14*%
%TO.N,/MGMT_SWCLK*%
X257537500Y-108050000D03*
%TO.P,U5,38,PA15*%
%TO.N,/UI_RST*%
X257537500Y-108550000D03*
%TO.P,U5,39,PB3*%
%TO.N,/UI_BOOT*%
X257537500Y-109050000D03*
%TO.P,U5,40,PB4*%
%TO.N,/NET_RST*%
X257537500Y-109550000D03*
%TO.P,U5,41,PB5*%
%TO.N,/NET_BOOT*%
X257537500Y-110050000D03*
%TO.P,U5,42,PB6*%
%TO.N,/NET_TX0_MGMT*%
X257537500Y-110550000D03*
%TO.P,U5,43,PB7*%
%TO.N,/NET_RX0_MGMT*%
X257537500Y-111050000D03*
%TO.P,U5,44,BOOT0*%
%TO.N,/MGMT_BOOT*%
X257537500Y-111550000D03*
%TO.P,U5,45,PB8*%
%TO.N,unconnected-(U5-Pad45)*%
X257537500Y-112050000D03*
%TO.P,U5,46,PB9*%
%TO.N,unconnected-(U5-Pad46)*%
X257537500Y-112550000D03*
%TO.P,U5,47,VSS*%
%TO.N,GND*%
X257537500Y-113050000D03*
%TO.P,U5,48,VDD*%
%TO.N,+3.3V*%
X257537500Y-113550000D03*
%TD*%
D13*
%TO.P,C33,1*%
%TO.N,+3.3V*%
X227450000Y-125110000D03*
%TO.P,C33,2*%
%TO.N,GND*%
X226490000Y-125110000D03*
%TD*%
D19*
%TO.P,C14,1*%
%TO.N,+3.3V*%
X234800000Y-112180000D03*
%TO.P,C14,2*%
%TO.N,GND*%
X234800000Y-111220000D03*
%TD*%
D20*
%TO.P,C4,1*%
%TO.N,GND*%
X257900000Y-118400000D03*
%TO.P,C4,2*%
%TO.N,/RCC_OSC_IN*%
X257900000Y-120300000D03*
%TD*%
D19*
%TO.P,C3,1*%
%TO.N,+3.3VA*%
X257900000Y-125130000D03*
%TO.P,C3,2*%
%TO.N,GND*%
X257900000Y-124170000D03*
%TD*%
D21*
%TO.P,R3,1*%
%TO.N,GND*%
X238300000Y-146840000D03*
%TO.P,R3,2*%
%TO.N,Net-(J9-PadA5)*%
X238300000Y-147860000D03*
%TD*%
D22*
%TO.P,C2,1*%
%TO.N,+3.3V*%
X262940000Y-98730000D03*
%TO.P,C2,2*%
%TO.N,GND*%
X262940000Y-99690000D03*
%TD*%
D19*
%TO.P,C19,1*%
%TO.N,+BATT*%
X225250000Y-112560000D03*
%TO.P,C19,2*%
%TO.N,GND*%
X225250000Y-111600000D03*
%TD*%
D21*
%TO.P,R38,1*%
%TO.N,/BATTERY_MON*%
X227750000Y-111600000D03*
%TO.P,R38,2*%
%TO.N,+BATT*%
X227750000Y-112620000D03*
%TD*%
D23*
%TO.P,J8,1,Pin_1*%
%TO.N,/MIC_P*%
X267600000Y-147000000D03*
%TO.P,J8,2,Pin_2*%
%TO.N,/MIC_N*%
X267600000Y-145000000D03*
%TO.P,J8,3,Pin_3*%
%TO.N,/IN_3*%
X267600000Y-143000000D03*
%TO.P,J8,4,Pin_4*%
%TO.N,GND*%
X267600000Y-141000000D03*
%TO.P,J8,5,Pin_5*%
%TO.N,/HP_L*%
X267600000Y-139000000D03*
%TO.P,J8,6,Pin_6*%
%TO.N,/HP_R*%
X267600000Y-137000000D03*
D24*
%TO.P,J8,MP*%
%TO.N,N/C*%
X273350000Y-149350000D03*
X273350000Y-134650000D03*
%TD*%
D25*
%TO.P,U13,1*%
%TO.N,GND*%
X225390000Y-144215000D03*
D26*
%TO.P,U13,2*%
X225390000Y-143710000D03*
%TO.P,U13,3*%
X225390000Y-143310000D03*
%TO.P,U13,4*%
X225390000Y-142907924D03*
%TO.P,U13,5*%
X225390000Y-142510000D03*
%TO.P,U13,6*%
%TO.N,/KB_ROW1*%
X225390000Y-142110000D03*
%TO.P,U13,7*%
%TO.N,/KB_COL1*%
X225390000Y-141710000D03*
%TO.P,U13,8*%
%TO.N,/KB_ROW2*%
X225390000Y-141310000D03*
%TO.P,U13,9*%
%TO.N,/KB_COL2*%
X225390000Y-140910000D03*
%TO.P,U13,10*%
%TO.N,/KB_COL3*%
X225390000Y-140510000D03*
%TO.P,U13,11*%
%TO.N,GND*%
X225390000Y-140110000D03*
%TO.P,U13,12*%
X225390000Y-139710000D03*
%TO.P,U13,13*%
X225390000Y-139310000D03*
D25*
%TO.P,U13,14*%
X225390000Y-138805000D03*
%TO.P,U13,15*%
X227270000Y-138805000D03*
D26*
%TO.P,U13,16*%
X227270000Y-139310000D03*
%TO.P,U13,17*%
%TO.N,/KB_COL4*%
X227270000Y-139710000D03*
%TO.P,U13,18*%
%TO.N,/KB_ROW3*%
X227270000Y-140110000D03*
%TO.P,U13,19*%
%TO.N,/KB_COL5*%
X227270000Y-140510000D03*
%TO.P,U13,20*%
%TO.N,/KB_ROW4*%
X227270000Y-140910000D03*
%TO.P,U13,21*%
%TO.N,/KB_ROW5*%
X227270000Y-141310000D03*
%TO.P,U13,22*%
%TO.N,/KB_ROW6*%
X227270000Y-141710000D03*
%TO.P,U13,23*%
%TO.N,/KB_LED*%
X227270000Y-142110000D03*
%TO.P,U13,24*%
X227270000Y-142510000D03*
%TO.P,U13,25*%
X227270000Y-142907924D03*
%TO.P,U13,26*%
X227270000Y-143310000D03*
%TO.P,U13,27*%
%TO.N,/KB_ROW7*%
X227270000Y-143710000D03*
D25*
%TO.P,U13,28*%
%TO.N,GND*%
X227270000Y-144215000D03*
%TD*%
D27*
%TO.P,U1,1,VBAT*%
%TO.N,unconnected-(U1-Pad1)*%
X245225000Y-121850000D03*
%TO.P,U1,2,PC13*%
%TO.N,unconnected-(U1-Pad2)*%
X245225000Y-121350000D03*
%TO.P,U1,3,PC14*%
%TO.N,/KB_COL3*%
X245225000Y-120850000D03*
%TO.P,U1,4,PC15*%
%TO.N,/KB_COL4*%
X245225000Y-120350000D03*
%TO.P,U1,5,PH0*%
%TO.N,/MCLK*%
X245225000Y-119850000D03*
%TO.P,U1,6,PH1*%
%TO.N,unconnected-(U1-Pad6)*%
X245225000Y-119350000D03*
%TO.P,U1,7,NRST*%
%TO.N,/UI_RST*%
X245225000Y-118850000D03*
%TO.P,U1,8,PC0*%
%TO.N,/UI_LED_G*%
X245225000Y-118350000D03*
%TO.P,U1,9,PC1*%
%TO.N,/UI_LED_R*%
X245225000Y-117850000D03*
%TO.P,U1,10,PC2*%
%TO.N,unconnected-(U1-Pad10)*%
X245225000Y-117350000D03*
%TO.P,U1,11,PC3*%
%TO.N,unconnected-(U1-Pad11)*%
X245225000Y-116850000D03*
%TO.P,U1,12,VSSA*%
%TO.N,GND*%
X245225000Y-116350000D03*
%TO.P,U1,13,VDDA*%
%TO.N,+3.3VA*%
X245225000Y-115850000D03*
%TO.P,U1,14,PA0*%
%TO.N,/BATTERY_MON*%
X245225000Y-115350000D03*
%TO.P,U1,15,PA1*%
%TO.N,/DISP_CS*%
X245225000Y-114850000D03*
%TO.P,U1,16,PA2*%
%TO.N,/UI_TX2_MGMT*%
X245225000Y-114350000D03*
D28*
%TO.P,U1,17,PA3*%
%TO.N,/UI_RX2_MGMT*%
X243300000Y-112425000D03*
%TO.P,U1,18,VSS*%
%TO.N,GND*%
X242800000Y-112425000D03*
%TO.P,U1,19,VDD*%
%TO.N,+3.3V*%
X242300000Y-112425000D03*
%TO.P,U1,20,PA4*%
%TO.N,/I2S_DACLRC*%
X241800000Y-112425000D03*
%TO.P,U1,21,PA5*%
%TO.N,/DISP_SPI_SCK*%
X241300000Y-112425000D03*
%TO.P,U1,22,PA6*%
%TO.N,/DISP_RSTR*%
X240800000Y-112425000D03*
%TO.P,U1,23,PA7*%
%TO.N,/DISP_SPI_MOSI*%
X240300000Y-112425000D03*
%TO.P,U1,24,PC4*%
%TO.N,/UI_DBG1*%
X239800000Y-112425000D03*
%TO.P,U1,25,PC5*%
%TO.N,/UI_DBG2*%
X239300000Y-112425000D03*
%TO.P,U1,26,PB0*%
%TO.N,/DISP_DC*%
X238800000Y-112425000D03*
%TO.P,U1,27,PB1*%
%TO.N,/KB_MIC*%
X238300000Y-112425000D03*
%TO.P,U1,28,PB2*%
%TO.N,/KB_ROW5*%
X237800000Y-112425000D03*
%TO.P,U1,29,PB10*%
%TO.N,/UI_TX3*%
X237300000Y-112425000D03*
%TO.P,U1,30,PB11*%
%TO.N,/UI_RX3*%
X236800000Y-112425000D03*
%TO.P,U1,31,VCAP_1*%
%TO.N,Net-(C21-Pad2)*%
X236300000Y-112425000D03*
%TO.P,U1,32,VDD*%
%TO.N,+3.3V*%
X235800000Y-112425000D03*
D27*
%TO.P,U1,33,PB12*%
%TO.N,/KB_ROW1*%
X233875000Y-114350000D03*
%TO.P,U1,34,PB13*%
%TO.N,/KB_ROW2*%
X233875000Y-114850000D03*
%TO.P,U1,35,PB14*%
%TO.N,/KB_ROW3*%
X233875000Y-115350000D03*
%TO.P,U1,36,PB15*%
%TO.N,/KB_ROW4*%
X233875000Y-115850000D03*
%TO.P,U1,37,PC6*%
%TO.N,/UI_DBG3*%
X233875000Y-116350000D03*
%TO.P,U1,38,PC7*%
%TO.N,/UI_DBG4*%
X233875000Y-116850000D03*
%TO.P,U1,39,PC8*%
%TO.N,unconnected-(U1-Pad39)*%
X233875000Y-117350000D03*
%TO.P,U1,40,PC9*%
%TO.N,unconnected-(U1-Pad40)*%
X233875000Y-117850000D03*
%TO.P,U1,41,PA8*%
%TO.N,/UI_STAT*%
X233875000Y-118350000D03*
%TO.P,U1,42,PA9*%
%TO.N,/UI_TX1_NET*%
X233875000Y-118850000D03*
%TO.P,U1,43,PA10*%
%TO.N,/UI_RX1_NET*%
X233875000Y-119350000D03*
%TO.P,U1,44,PA11*%
%TO.N,unconnected-(U1-Pad44)*%
X233875000Y-119850000D03*
%TO.P,U1,45,PA12*%
%TO.N,Net-(R41-Pad1)*%
X233875000Y-120350000D03*
%TO.P,U1,46,PA13*%
%TO.N,/UI_SWDIO*%
X233875000Y-120850000D03*
%TO.P,U1,47,VCAP_2*%
%TO.N,Net-(C22-Pad2)*%
X233875000Y-121350000D03*
%TO.P,U1,48,VDD*%
%TO.N,+3.3V*%
X233875000Y-121850000D03*
D28*
%TO.P,U1,49,PA14*%
%TO.N,/UI_SWDCLK*%
X235800000Y-123775000D03*
%TO.P,U1,50,PA15*%
%TO.N,/DISP_BL*%
X236300000Y-123775000D03*
%TO.P,U1,51,PC10*%
%TO.N,/I2S_BCLK*%
X236800000Y-123775000D03*
%TO.P,U1,52,PC11*%
%TO.N,/I2S_ADCDAT*%
X237300000Y-123775000D03*
%TO.P,U1,53,PC12*%
%TO.N,/I2S_DACDAT*%
X237800000Y-123775000D03*
%TO.P,U1,54,PD2*%
%TO.N,/UI_LED_B*%
X238300000Y-123775000D03*
%TO.P,U1,55,PB3*%
%TO.N,/KB_ROW6*%
X238800000Y-123775000D03*
%TO.P,U1,56,PB4*%
%TO.N,/KB_ROW7*%
X239300000Y-123775000D03*
%TO.P,U1,57,PB5*%
%TO.N,/KB_COL5*%
X239800000Y-123775000D03*
%TO.P,U1,58,PB6*%
%TO.N,/UI_SCL*%
X240300000Y-123775000D03*
%TO.P,U1,59,PB7*%
%TO.N,/UI_SDA*%
X240800000Y-123775000D03*
%TO.P,U1,60,BOOT0*%
%TO.N,/UI_BOOT*%
X241300000Y-123775000D03*
%TO.P,U1,61,PB8*%
%TO.N,/KB_COL2*%
X241800000Y-123775000D03*
%TO.P,U1,62,PB9*%
%TO.N,/KB_COL1*%
X242300000Y-123775000D03*
%TO.P,U1,63,VSS*%
%TO.N,GND*%
X242800000Y-123775000D03*
%TO.P,U1,64,VDD*%
%TO.N,+3.3V*%
X243300000Y-123775000D03*
%TD*%
D29*
%TO.P,R5,1*%
%TO.N,/UI_RST*%
X248840000Y-121910000D03*
%TO.P,R5,2*%
%TO.N,GND*%
X248840000Y-120890000D03*
%TD*%
D19*
%TO.P,C16,1*%
%TO.N,GND*%
X252200000Y-132180000D03*
%TO.P,C16,2*%
%TO.N,+3.3V*%
X252200000Y-131220000D03*
%TD*%
D30*
%TO.P,120R1,1*%
%TO.N,+3.3VA*%
X250112500Y-116100000D03*
%TO.P,120R1,2*%
%TO.N,+3.3V*%
X251687500Y-116100000D03*
%TD*%
D29*
%TO.P,R17,1*%
%TO.N,/NET_LED_G*%
X226750000Y-86210000D03*
%TO.P,R17,2*%
%TO.N,Net-(D4-Pad4)*%
X226750000Y-85190000D03*
%TD*%
D21*
%TO.P,R13,1*%
%TO.N,Net-(D3-Pad3)*%
X217850000Y-85190000D03*
%TO.P,R13,2*%
%TO.N,/LEDB_B*%
X217850000Y-86210000D03*
%TD*%
D19*
%TO.P,C20,1*%
%TO.N,/VIN*%
X269750000Y-110680000D03*
%TO.P,C20,2*%
%TO.N,GND*%
X269750000Y-109720000D03*
%TD*%
D12*
%TO.P,R30,1*%
%TO.N,Net-(J10-Pad5)*%
X214640000Y-137400000D03*
%TO.P,R30,2*%
%TO.N,/NET_DBG5*%
X215660000Y-137400000D03*
%TD*%
D31*
%TO.P,R4,1*%
%TO.N,/NET_RST*%
X232070000Y-83000000D03*
%TO.P,R4,2*%
%TO.N,GND*%
X231050000Y-83000000D03*
%TD*%
D21*
%TO.P,R39,1*%
%TO.N,GND*%
X229100000Y-111590000D03*
%TO.P,R39,2*%
%TO.N,/BATTERY_MON*%
X229100000Y-112610000D03*
%TD*%
%TO.P,R21,1*%
%TO.N,+3.3V*%
X207270000Y-150190000D03*
%TO.P,R21,2*%
%TO.N,/NET_SCL*%
X207270000Y-151210000D03*
%TD*%
D19*
%TO.P,C5,1*%
%TO.N,/VIN*%
X243950000Y-143230000D03*
%TO.P,C5,2*%
%TO.N,GND*%
X243950000Y-142270000D03*
%TD*%
D32*
%TO.P,J4,1,Pin_1*%
%TO.N,/DISP_BL*%
X272250000Y-92560000D03*
D33*
%TO.P,J4,2,Pin_2*%
%TO.N,/DISP_RSTR*%
X272250000Y-95100000D03*
%TO.P,J4,3,Pin_3*%
%TO.N,/DISP_DC*%
X272250000Y-97640000D03*
%TO.P,J4,4,Pin_4*%
%TO.N,/DISP_CS*%
X272250000Y-100180000D03*
%TO.P,J4,5,Pin_5*%
%TO.N,/DISP_SPI_SCK*%
X272250000Y-102720000D03*
%TO.P,J4,6,Pin_6*%
%TO.N,/DISP_SPI_MOSI*%
X272250000Y-105260000D03*
%TO.P,J4,7,Pin_7*%
%TO.N,GND*%
X272250000Y-107800000D03*
%TO.P,J4,8,Pin_8*%
%TO.N,/VIN*%
X272250000Y-110340000D03*
%TD*%
D22*
%TO.P,C8,1*%
%TO.N,+3.3VA*%
X247750000Y-115670000D03*
%TO.P,C8,2*%
%TO.N,GND*%
X247750000Y-116630000D03*
%TD*%
D21*
%TO.P,R12,1*%
%TO.N,Net-(D18-Pad1)*%
X222400000Y-85190000D03*
%TO.P,R12,2*%
%TO.N,/LEDA_R*%
X222400000Y-86210000D03*
%TD*%
%TO.P,R11,1*%
%TO.N,Net-(D18-Pad4)*%
X223450000Y-85190000D03*
%TO.P,R11,2*%
%TO.N,/LEDA_G*%
X223450000Y-86210000D03*
%TD*%
D22*
%TO.P,C21,1*%
%TO.N,GND*%
X235850000Y-109820000D03*
%TO.P,C21,2*%
%TO.N,Net-(C21-Pad2)*%
X235850000Y-110780000D03*
%TD*%
D21*
%TO.P,R6,1*%
%TO.N,Net-(D18-Pad3)*%
X224500000Y-85190000D03*
%TO.P,R6,2*%
%TO.N,/LEDA_B*%
X224500000Y-86210000D03*
%TD*%
D29*
%TO.P,R16,1*%
%TO.N,/NET_LED_B*%
X227800000Y-86210000D03*
%TO.P,R16,2*%
%TO.N,Net-(D4-Pad3)*%
X227800000Y-85190000D03*
%TD*%
D23*
%TO.P,J2,1,Pin_1*%
%TO.N,/SPK_LN*%
X267600000Y-129800000D03*
%TO.P,J2,2,Pin_2*%
%TO.N,/SPK_LP*%
X267600000Y-127800000D03*
D24*
%TO.P,J2,MP*%
%TO.N,N/C*%
X273350000Y-132150000D03*
X273350000Y-125450000D03*
%TD*%
D21*
%TO.P,R35,1*%
%TO.N,Net-(J14-Pad4)*%
X218310000Y-77790000D03*
%TO.P,R35,2*%
%TO.N,/UI_LED_R*%
X218310000Y-78810000D03*
%TD*%
D34*
%TO.P,C29,1*%
%TO.N,Net-(C29-Pad1)*%
X255600000Y-121855000D03*
%TO.P,C29,2*%
%TO.N,/HP_R*%
X255600000Y-118905000D03*
%TD*%
D15*
%TO.P,C27,1*%
%TO.N,/MIC_N*%
X251070000Y-129950000D03*
%TO.P,C27,2*%
%TO.N,Net-(C27-Pad2)*%
X252030000Y-129950000D03*
%TD*%
D22*
%TO.P,C10,1*%
%TO.N,+3.3V*%
X252950000Y-115670000D03*
%TO.P,C10,2*%
%TO.N,GND*%
X252950000Y-116630000D03*
%TD*%
D29*
%TO.P,R24,1*%
%TO.N,/UI_LED_G*%
X220100000Y-86210000D03*
%TO.P,R24,2*%
%TO.N,Net-(D5-Pad4)*%
X220100000Y-85190000D03*
%TD*%
D12*
%TO.P,R19,1*%
%TO.N,GND*%
X254890000Y-111880000D03*
%TO.P,R19,2*%
%TO.N,/MGMT_BOOT*%
X255910000Y-111880000D03*
%TD*%
D29*
%TO.P,R1,1*%
%TO.N,+3.3V*%
X263300000Y-122250000D03*
%TO.P,R1,2*%
%TO.N,/MGMT_NRST*%
X263300000Y-121230000D03*
%TD*%
D13*
%TO.P,C12,1*%
%TO.N,+3.3V*%
X243730000Y-125500000D03*
%TO.P,C12,2*%
%TO.N,GND*%
X242770000Y-125500000D03*
%TD*%
D21*
%TO.P,R37,1*%
%TO.N,GND*%
X227100000Y-117040000D03*
%TO.P,R37,2*%
%TO.N,Net-(R37-Pad2)*%
X227100000Y-118060000D03*
%TD*%
D29*
%TO.P,R18,1*%
%TO.N,/NET_LED_R*%
X225700000Y-86210000D03*
%TO.P,R18,2*%
%TO.N,Net-(D4-Pad1)*%
X225700000Y-85190000D03*
%TD*%
D21*
%TO.P,R2,1*%
%TO.N,GND*%
X241250000Y-146690000D03*
%TO.P,R2,2*%
%TO.N,Net-(J9-PadB5)*%
X241250000Y-147710000D03*
%TD*%
D19*
%TO.P,C25,1*%
%TO.N,+3.3V*%
X266600000Y-106930000D03*
%TO.P,C25,2*%
%TO.N,GND*%
X266600000Y-105970000D03*
%TD*%
%TO.P,C1,1*%
%TO.N,VBUS*%
X237050000Y-147830000D03*
%TO.P,C1,2*%
%TO.N,GND*%
X237050000Y-146870000D03*
%TD*%
D29*
%TO.P,R32,1*%
%TO.N,GND*%
X236650000Y-100710000D03*
%TO.P,R32,2*%
%TO.N,Net-(R32-Pad2)*%
X236650000Y-99690000D03*
%TD*%
D16*
%TO.P,D10,1,K*%
%TO.N,Net-(D10-Pad1)*%
X219500000Y-116540000D03*
%TO.P,D10,2,A*%
%TO.N,VBUS*%
X221600000Y-116540000D03*
%TD*%
D21*
%TO.P,R8,1*%
%TO.N,+3.3V*%
X224790000Y-150300000D03*
%TO.P,R8,2*%
%TO.N,/UI_SCL*%
X224790000Y-151320000D03*
%TD*%
D35*
%TO.P,D11,1,K*%
%TO.N,Net-(D11-Pad1)*%
X233160000Y-147677500D03*
%TO.P,D11,2,A*%
%TO.N,VBUS*%
X233160000Y-145802500D03*
%TD*%
D36*
%TO.P,J15,1,Pin_1*%
%TO.N,Net-(D10-Pad1)*%
X261700000Y-76950000D03*
%TO.P,J15,2,Pin_2*%
%TO.N,Net-(J15-Pad2)*%
X259700000Y-76950000D03*
D37*
%TO.P,J15,MP*%
%TO.N,N/C*%
X257350000Y-71200000D03*
X264050000Y-71200000D03*
%TD*%
D15*
%TO.P,C15,1*%
%TO.N,GND*%
X253670000Y-132750000D03*
%TO.P,C15,2*%
%TO.N,+3.3V*%
X254630000Y-132750000D03*
%TD*%
D38*
%TO.P,SW3,1,1*%
%TO.N,/BTN_NET*%
X247850000Y-77265000D03*
%TO.P,SW3,2,2*%
%TO.N,GND*%
X247850000Y-70535000D03*
%TD*%
D21*
%TO.P,R15,1*%
%TO.N,Net-(D3-Pad1)*%
X215800000Y-85190000D03*
%TO.P,R15,2*%
%TO.N,/LEDB_R*%
X215800000Y-86210000D03*
%TD*%
D39*
%TO.P,U6,1,MICBIAS*%
%TO.N,Net-(C28-Pad1)*%
X253527500Y-127250000D03*
%TO.P,U6,2,LINPUT3*%
%TO.N,Net-(C17-Pad2)*%
X253527500Y-127750000D03*
%TO.P,U6,3,LINPUT2*%
%TO.N,Net-(C18-Pad2)*%
X253527500Y-128250000D03*
%TO.P,U6,4,LINPUT1*%
%TO.N,Net-(C27-Pad2)*%
X253527500Y-128750000D03*
%TO.P,U6,5,RINPUT1*%
%TO.N,unconnected-(U6-Pad5)*%
X253527500Y-129250000D03*
%TO.P,U6,6,RINPUT2*%
%TO.N,unconnected-(U6-Pad6)*%
X253527500Y-129750000D03*
%TO.P,U6,7,RINPUT3*%
%TO.N,unconnected-(U6-Pad7)*%
X253527500Y-130250000D03*
%TO.P,U6,8,DCVDD*%
%TO.N,+3.3V*%
X253527500Y-130750000D03*
D40*
%TO.P,U6,9,DGND*%
%TO.N,GND*%
X254252500Y-131475000D03*
%TO.P,U6,10,DBVDD*%
%TO.N,+3.3V*%
X254752500Y-131475000D03*
%TO.P,U6,11,MCLK*%
%TO.N,/MCLK*%
X255252500Y-131475000D03*
%TO.P,U6,12,BCLK*%
%TO.N,/I2S_BCLK*%
X255752500Y-131475000D03*
%TO.P,U6,13,DACLRC*%
%TO.N,/I2S_DACLRC*%
X256252500Y-131475000D03*
%TO.P,U6,14,DACDAT*%
%TO.N,/I2S_DACDAT*%
X256752500Y-131475000D03*
%TO.P,U6,15,ADCLRC*%
%TO.N,unconnected-(U6-Pad15)*%
X257252500Y-131475000D03*
%TO.P,U6,16,ADCDAT*%
%TO.N,/I2S_ADCDAT*%
X257752500Y-131475000D03*
D39*
%TO.P,U6,17,SCLK*%
%TO.N,/UI_SCL*%
X258477500Y-130750000D03*
%TO.P,U6,18,SDIN*%
%TO.N,/UI_SDA*%
X258477500Y-130250000D03*
%TO.P,U6,19,SPK_RN*%
%TO.N,unconnected-(U6-Pad19)*%
X258477500Y-129750000D03*
%TO.P,U6,20,SPKGND2*%
%TO.N,unconnected-(U6-Pad20)*%
X258477500Y-129250000D03*
%TO.P,U6,21,SPKVDD2*%
%TO.N,+3.3VA*%
X258477500Y-128750000D03*
%TO.P,U6,22,SPK_RP*%
%TO.N,unconnected-(U6-Pad22)*%
X258477500Y-128250000D03*
%TO.P,U6,23,SPK_LN*%
%TO.N,/SPK_LN*%
X258477500Y-127750000D03*
%TO.P,U6,24,SPKGND1*%
%TO.N,unconnected-(U6-Pad24)*%
X258477500Y-127250000D03*
D40*
%TO.P,U6,25,SPK_LP*%
%TO.N,/SPK_LP*%
X257752500Y-126525000D03*
%TO.P,U6,26,SPKVDD1*%
%TO.N,+3.3VA*%
X257252500Y-126525000D03*
%TO.P,U6,27,AMID*%
%TO.N,Net-(C31-Pad2)*%
X256752500Y-126525000D03*
%TO.P,U6,28,AGND*%
%TO.N,unconnected-(U6-Pad28)*%
X256252500Y-126525000D03*
%TO.P,U6,29,HP_R*%
%TO.N,Net-(C29-Pad1)*%
X255752500Y-126525000D03*
%TO.P,U6,30,OUT3*%
%TO.N,unconnected-(U6-Pad30)*%
X255252500Y-126525000D03*
%TO.P,U6,31,HP_L*%
%TO.N,Net-(C30-Pad1)*%
X254752500Y-126525000D03*
%TO.P,U6,32,AVDD*%
%TO.N,+3.3VA*%
X254252500Y-126525000D03*
D41*
%TO.P,U6,33,EP*%
%TO.N,unconnected-(U6-Pad33)*%
X256002500Y-129000000D03*
%TD*%
D42*
%TO.P,C23,1*%
%TO.N,GND*%
X264350000Y-119750000D03*
%TO.P,C23,2*%
%TO.N,/RCC_OSC_OUT*%
X264350000Y-117850000D03*
%TD*%
D31*
%TO.P,R9,1*%
%TO.N,Net-(C28-Pad1)*%
X252060000Y-125750000D03*
%TO.P,R9,2*%
%TO.N,/MIC_P*%
X251040000Y-125750000D03*
%TD*%
D21*
%TO.P,R14,1*%
%TO.N,Net-(D3-Pad4)*%
X216825000Y-85190000D03*
%TO.P,R14,2*%
%TO.N,/LEDB_G*%
X216825000Y-86210000D03*
%TD*%
D34*
%TO.P,C30,1*%
%TO.N,Net-(C30-Pad1)*%
X253170000Y-121855000D03*
%TO.P,C30,2*%
%TO.N,/HP_L*%
X253170000Y-118905000D03*
%TD*%
D12*
%TO.P,R22,1*%
%TO.N,Net-(J10-Pad1)*%
X214640000Y-129350000D03*
%TO.P,R22,2*%
%TO.N,/UI_DBG1*%
X215660000Y-129350000D03*
%TD*%
D43*
%TO.P,D4,1,RK*%
%TO.N,Net-(D4-Pad1)*%
X242825000Y-74370000D03*
%TO.P,D4,2,A*%
%TO.N,+3.3V*%
X242825000Y-72970000D03*
%TO.P,D4,3,BK*%
%TO.N,Net-(D4-Pad3)*%
X243625000Y-72970000D03*
%TO.P,D4,4,GK*%
%TO.N,Net-(D4-Pad4)*%
X243625000Y-74370000D03*
%TD*%
D21*
%TO.P,R36,1*%
%TO.N,Net-(R36-Pad1)*%
X227150000Y-114110000D03*
%TO.P,R36,2*%
%TO.N,Net-(D11-Pad1)*%
X227150000Y-115130000D03*
%TD*%
%TO.P,R34,1*%
%TO.N,Net-(J14-Pad3)*%
X219380000Y-77800000D03*
%TO.P,R34,2*%
%TO.N,/UI_LED_G*%
X219380000Y-78820000D03*
%TD*%
D38*
%TO.P,SW1,1,1*%
%TO.N,/BTN_RST*%
X206230000Y-77415000D03*
%TO.P,SW1,2,2*%
%TO.N,GND*%
X206230000Y-70685000D03*
%TD*%
D44*
%TO.P,U3,1,GND*%
%TO.N,GND*%
X240655000Y-139045000D03*
%TO.P,U3,2,TXD*%
%TO.N,/USB_TX1_MGMT*%
X241925000Y-139045000D03*
%TO.P,U3,3,RXD*%
%TO.N,/USB_RX1_MGMT*%
X243195000Y-139045000D03*
%TO.P,U3,4,V3*%
%TO.N,+3.3V*%
X244465000Y-139045000D03*
%TO.P,U3,5,UD+*%
%TO.N,/UD+*%
X245735000Y-139045000D03*
%TO.P,U3,6,UD-*%
%TO.N,/UD-*%
X247005000Y-139045000D03*
%TO.P,U3,7,NC*%
%TO.N,unconnected-(U3-Pad7)*%
X248275000Y-139045000D03*
%TO.P,U3,8,NC*%
%TO.N,unconnected-(U3-Pad8)*%
X249545000Y-139045000D03*
%TO.P,U3,9,~{CTS}*%
%TO.N,unconnected-(U3-Pad9)*%
X249545000Y-134095000D03*
%TO.P,U3,10,~{DSR}*%
%TO.N,unconnected-(U3-Pad10)*%
X248275000Y-134095000D03*
%TO.P,U3,11,~{RI}*%
%TO.N,unconnected-(U3-Pad11)*%
X247005000Y-134095000D03*
%TO.P,U3,12,~{DCD}*%
%TO.N,unconnected-(U3-Pad12)*%
X245735000Y-134095000D03*
%TO.P,U3,13,~{DTR}*%
%TO.N,/USB_DTR*%
X244465000Y-134095000D03*
%TO.P,U3,14,~{RTS}*%
%TO.N,/USB_RTS*%
X243195000Y-134095000D03*
%TO.P,U3,15,R232*%
%TO.N,unconnected-(U3-Pad15)*%
X241925000Y-134095000D03*
%TO.P,U3,16,VCC*%
%TO.N,+3.3V*%
X240655000Y-134095000D03*
%TD*%
D29*
%TO.P,R23,1*%
%TO.N,/UI_LED_B*%
X221150000Y-86210000D03*
%TO.P,R23,2*%
%TO.N,Net-(D5-Pad3)*%
X221150000Y-85190000D03*
%TD*%
D31*
%TO.P,R41,1*%
%TO.N,Net-(R41-Pad1)*%
X226790000Y-145580000D03*
%TO.P,R41,2*%
%TO.N,/KB_LED*%
X225770000Y-145580000D03*
%TD*%
D38*
%TO.P,SW2,1,1*%
%TO.N,/BTN_UI*%
X253100000Y-77215000D03*
%TO.P,SW2,2,2*%
%TO.N,GND*%
X253100000Y-70485000D03*
%TD*%
D12*
%TO.P,R27,1*%
%TO.N,Net-(J10-Pad3)*%
X214640000Y-133300000D03*
%TO.P,R27,2*%
%TO.N,/UI_DBG3*%
X215660000Y-133300000D03*
%TD*%
D15*
%TO.P,C18,1*%
%TO.N,/MIC_P*%
X251070000Y-128900000D03*
%TO.P,C18,2*%
%TO.N,Net-(C18-Pad2)*%
X252030000Y-128900000D03*
%TD*%
%TO.P,C6,1*%
%TO.N,+3.3VA*%
X259660000Y-129080000D03*
%TO.P,C6,2*%
%TO.N,GND*%
X260620000Y-129080000D03*
%TD*%
D45*
%TO.P,U2,1,GND*%
%TO.N,GND*%
X256250000Y-100860000D03*
D46*
%TO.P,U2,2,VO*%
%TO.N,+3.3V*%
X258550000Y-94560000D03*
D45*
X258550000Y-100860000D03*
%TO.P,U2,3,VI*%
%TO.N,/VIN*%
X260850000Y-100860000D03*
%TD*%
D43*
%TO.P,D3,1,RK*%
%TO.N,Net-(D3-Pad1)*%
X227825000Y-74370000D03*
%TO.P,D3,2,A*%
%TO.N,+3.3V*%
X227825000Y-72970000D03*
%TO.P,D3,3,BK*%
%TO.N,Net-(D3-Pad3)*%
X228625000Y-72970000D03*
%TO.P,D3,4,GK*%
%TO.N,Net-(D3-Pad4)*%
X228625000Y-74370000D03*
%TD*%
D47*
%TO.P,U11,1,GND*%
%TO.N,GND*%
X233650000Y-80465000D03*
%TO.P,U11,2,3V3*%
%TO.N,+3.3V*%
X233650000Y-81735000D03*
%TO.P,U11,3,EN*%
%TO.N,/NET_RST*%
X233650000Y-83005000D03*
%TO.P,U11,4,IO4*%
%TO.N,unconnected-(U11-Pad4)*%
X233650000Y-84275000D03*
%TO.P,U11,5,IO5*%
%TO.N,/NET_LED_R*%
X233650000Y-85545000D03*
%TO.P,U11,6,IO6*%
%TO.N,/NET_LED_G*%
X233650000Y-86815000D03*
%TO.P,U11,7,IO7*%
%TO.N,/NET_LED_B*%
X233650000Y-88085000D03*
%TO.P,U11,8,IO15*%
%TO.N,unconnected-(U11-Pad8)*%
X233650000Y-89355000D03*
%TO.P,U11,9,IO16*%
%TO.N,unconnected-(U11-Pad9)*%
X233650000Y-90625000D03*
%TO.P,U11,10,IO17*%
%TO.N,/UI_RX1_NET*%
X233650000Y-91895000D03*
%TO.P,U11,11,IO18*%
%TO.N,/UI_TX1_NET*%
X233650000Y-93165000D03*
%TO.P,U11,12,IO8*%
%TO.N,unconnected-(U11-Pad12)*%
X233650000Y-94435000D03*
%TO.P,U11,13,IO19*%
%TO.N,unconnected-(U11-Pad13)*%
X233650000Y-95705000D03*
%TO.P,U11,14,IO20*%
%TO.N,unconnected-(U11-Pad14)*%
X233650000Y-96975000D03*
D48*
%TO.P,U11,15,IO3*%
%TO.N,unconnected-(U11-Pad15)*%
X235415000Y-98225000D03*
%TO.P,U11,16,IO46*%
%TO.N,Net-(R32-Pad2)*%
X236685000Y-98225000D03*
%TO.P,U11,17,IO9*%
%TO.N,unconnected-(U11-Pad17)*%
X237955000Y-98225000D03*
%TO.P,U11,18,IO10*%
%TO.N,unconnected-(U11-Pad18)*%
X239225000Y-98225000D03*
%TO.P,U11,19,IO11*%
%TO.N,unconnected-(U11-Pad19)*%
X240495000Y-98225000D03*
%TO.P,U11,20,IO12*%
%TO.N,unconnected-(U11-Pad20)*%
X241765000Y-98225000D03*
%TO.P,U11,21,IO13*%
%TO.N,unconnected-(U11-Pad21)*%
X243035000Y-98225000D03*
%TO.P,U11,22,IO14*%
%TO.N,unconnected-(U11-Pad22)*%
X244305000Y-98225000D03*
%TO.P,U11,23,IO21*%
%TO.N,/NET_STAT*%
X245575000Y-98225000D03*
%TO.P,U11,24,IO47*%
%TO.N,/NET_SDA*%
X246845000Y-98225000D03*
%TO.P,U11,25,IO48*%
%TO.N,/NET_SCL*%
X248115000Y-98225000D03*
%TO.P,U11,26,IO45*%
%TO.N,unconnected-(U11-Pad26)*%
X249385000Y-98225000D03*
D47*
%TO.P,U11,27,IO0*%
%TO.N,/NET_BOOT*%
X251150000Y-96975000D03*
%TO.P,U11,28,IO35*%
%TO.N,/NET_DBG5*%
X251150000Y-95705000D03*
%TO.P,U11,29,IO36*%
%TO.N,/NET_DBG6*%
X251150000Y-94435000D03*
%TO.P,U11,30,IO37*%
%TO.N,unconnected-(U11-Pad30)*%
X251150000Y-93165000D03*
%TO.P,U11,31,IO38*%
%TO.N,unconnected-(U11-Pad31)*%
X251150000Y-91895000D03*
%TO.P,U11,32,IO39*%
%TO.N,unconnected-(U11-Pad32)*%
X251150000Y-90625000D03*
%TO.P,U11,33,IO40*%
%TO.N,unconnected-(U11-Pad33)*%
X251150000Y-89355000D03*
%TO.P,U11,34,IO41*%
%TO.N,unconnected-(U11-Pad34)*%
X251150000Y-88085000D03*
%TO.P,U11,35,IO42*%
%TO.N,unconnected-(U11-Pad35)*%
X251150000Y-86815000D03*
%TO.P,U11,36,RXD0*%
%TO.N,/NET_RX0_MGMT*%
X251150000Y-85545000D03*
%TO.P,U11,37,TXD0*%
%TO.N,/NET_TX0_MGMT*%
X251150000Y-84275000D03*
%TO.P,U11,38,IO2*%
%TO.N,unconnected-(U11-Pad38)*%
X251150000Y-83005000D03*
%TO.P,U11,39,IO1*%
%TO.N,unconnected-(U11-Pad39)*%
X251150000Y-81735000D03*
%TO.P,U11,40,GND*%
%TO.N,GND*%
X251150000Y-80465000D03*
D49*
%TO.P,U11,41*%
%TO.N,N/C*%
X241600000Y-88185000D03*
X242300000Y-87485000D03*
X240900000Y-88885000D03*
X240200000Y-86785000D03*
X241600000Y-86785000D03*
X239500000Y-88885000D03*
D50*
X240900000Y-88185000D03*
D49*
X242300000Y-88885000D03*
X241600000Y-89585000D03*
X239500000Y-87485000D03*
X240900000Y-87485000D03*
X240200000Y-88185000D03*
X240200000Y-89585000D03*
%TD*%
D15*
%TO.P,C17,1*%
%TO.N,/IN_3*%
X251070000Y-127850000D03*
%TO.P,C17,2*%
%TO.N,Net-(C17-Pad2)*%
X252030000Y-127850000D03*
%TD*%
D22*
%TO.P,C7,1*%
%TO.N,GND*%
X253700000Y-124170000D03*
%TO.P,C7,2*%
%TO.N,+3.3VA*%
X253700000Y-125130000D03*
%TD*%
D51*
%TO.P,J11,1,Pin_1*%
%TO.N,+3.3V*%
X249400000Y-149850000D03*
%TO.P,J11,2,Pin_2*%
%TO.N,/MGMT_BOOT*%
X251400000Y-149850000D03*
%TO.P,J11,3,Pin_3*%
%TO.N,/MGMT_NRST*%
X253400000Y-149850000D03*
%TO.P,J11,4,Pin_4*%
%TO.N,/MGMT_SWDIO*%
X255400000Y-149850000D03*
%TO.P,J11,5,Pin_5*%
%TO.N,/MGMT_SWCLK*%
X257400000Y-149850000D03*
%TO.P,J11,6,Pin_6*%
%TO.N,GND*%
X259400000Y-149850000D03*
D52*
%TO.P,J11,MP*%
%TO.N,N/C*%
X261750000Y-155600000D03*
X247050000Y-155600000D03*
%TD*%
D19*
%TO.P,C32,1*%
%TO.N,+3.3V*%
X241460000Y-141810000D03*
%TO.P,C32,2*%
%TO.N,GND*%
X241460000Y-140850000D03*
%TD*%
D53*
%TO.P,J10,1,Pin_1*%
%TO.N,Net-(J10-Pad1)*%
X211570000Y-129330000D03*
%TO.P,J10,2,Pin_2*%
%TO.N,Net-(J10-Pad2)*%
X211570000Y-131330000D03*
%TO.P,J10,3,Pin_3*%
%TO.N,Net-(J10-Pad3)*%
X211570000Y-133330000D03*
%TO.P,J10,4,Pin_4*%
%TO.N,Net-(J10-Pad4)*%
X211570000Y-135330000D03*
%TO.P,J10,5,Pin_5*%
%TO.N,Net-(J10-Pad5)*%
X211570000Y-137330000D03*
%TO.P,J10,6,Pin_6*%
%TO.N,Net-(J10-Pad6)*%
X211570000Y-139330000D03*
%TO.P,J10,7,Pin_7*%
%TO.N,Net-(J10-Pad7)*%
X211570000Y-141330000D03*
%TO.P,J10,8,Pin_8*%
%TO.N,GND*%
X211570000Y-143330000D03*
D54*
%TO.P,J10,MP*%
%TO.N,N/C*%
X205820000Y-126980000D03*
X205820000Y-145680000D03*
%TD*%
D22*
%TO.P,C31,1*%
%TO.N,GND*%
X256850000Y-124170000D03*
%TO.P,C31,2*%
%TO.N,Net-(C31-Pad2)*%
X256850000Y-125130000D03*
%TD*%
%TO.P,C9,1*%
%TO.N,+3.3VA*%
X248850000Y-115670000D03*
%TO.P,C9,2*%
%TO.N,GND*%
X248850000Y-116630000D03*
%TD*%
%TO.P,C24,1*%
%TO.N,+3.3V*%
X258010000Y-115860000D03*
%TO.P,C24,2*%
%TO.N,GND*%
X258010000Y-116820000D03*
%TD*%
D36*
%TO.P,J1,1,Pin_1*%
%TO.N,+BATT*%
X227860000Y-98630000D03*
%TO.P,J1,2,Pin_2*%
%TO.N,GND*%
X225860000Y-98630000D03*
D37*
%TO.P,J1,MP*%
%TO.N,N/C*%
X223510000Y-92880000D03*
X230210000Y-92880000D03*
%TD*%
D55*
%TO.P,J9,A1,GND*%
%TO.N,GND*%
X236200000Y-149755000D03*
%TO.P,J9,A4,VBUS*%
%TO.N,VBUS*%
X237000000Y-149755000D03*
D56*
%TO.P,J9,A5,CC1*%
%TO.N,Net-(J9-PadA5)*%
X238200000Y-149755000D03*
%TO.P,J9,A6,D+*%
%TO.N,/USB_D+*%
X239200000Y-149755000D03*
%TO.P,J9,A7,D-*%
%TO.N,/USB_D-*%
X239700000Y-149755000D03*
%TO.P,J9,A8,SBU1*%
%TO.N,unconnected-(J9-PadA8)*%
X240700000Y-149755000D03*
D55*
%TO.P,J9,A9,VBUS*%
%TO.N,VBUS*%
X241900000Y-149755000D03*
%TO.P,J9,A12,GND*%
%TO.N,GND*%
X242700000Y-149755000D03*
%TO.P,J9,B1,GND*%
X242700000Y-149755000D03*
%TO.P,J9,B4,VBUS*%
%TO.N,VBUS*%
X241900000Y-149755000D03*
D56*
%TO.P,J9,B5,CC2*%
%TO.N,Net-(J9-PadB5)*%
X241200000Y-149755000D03*
%TO.P,J9,B6,D+*%
%TO.N,/USB_D+*%
X240200000Y-149755000D03*
%TO.P,J9,B7,D-*%
%TO.N,/USB_D-*%
X238700000Y-149755000D03*
%TO.P,J9,B8,SBU2*%
%TO.N,unconnected-(J9-PadB8)*%
X237700000Y-149755000D03*
D55*
%TO.P,J9,B9,VBUS*%
%TO.N,VBUS*%
X237000000Y-149755000D03*
%TO.P,J9,B12,GND*%
%TO.N,GND*%
X236200000Y-149755000D03*
D57*
%TO.P,J9,S1,SHIELD*%
%TO.N,unconnected-(J9-PadS1)*%
X243770000Y-150670000D03*
X235130000Y-150670000D03*
D58*
X243770000Y-154850000D03*
X235130000Y-154850000D03*
%TD*%
D43*
%TO.P,D5,1,RK*%
%TO.N,Net-(D5-Pad1)*%
X232825000Y-74370000D03*
%TO.P,D5,2,A*%
%TO.N,+3.3V*%
X232825000Y-72970000D03*
%TO.P,D5,3,BK*%
%TO.N,Net-(D5-Pad3)*%
X233625000Y-72970000D03*
%TO.P,D5,4,GK*%
%TO.N,Net-(D5-Pad4)*%
X233625000Y-74370000D03*
%TD*%
D12*
%TO.P,R29,1*%
%TO.N,Net-(J10-Pad7)*%
X214640000Y-141250000D03*
%TO.P,R29,2*%
%TO.N,/MGMT_DBG7*%
X215660000Y-141250000D03*
%TD*%
%TO.P,R26,1*%
%TO.N,Net-(J10-Pad2)*%
X214640000Y-131300000D03*
%TO.P,R26,2*%
%TO.N,/UI_DBG2*%
X215660000Y-131300000D03*
%TD*%
D15*
%TO.P,C11,1*%
%TO.N,+3.3V*%
X242120000Y-110450000D03*
%TO.P,C11,2*%
%TO.N,GND*%
X243080000Y-110450000D03*
%TD*%
D43*
%TO.P,D18,1,RK*%
%TO.N,Net-(D18-Pad1)*%
X237825000Y-74370000D03*
%TO.P,D18,2,A*%
%TO.N,+3.3V*%
X237825000Y-72970000D03*
%TO.P,D18,3,BK*%
%TO.N,Net-(D18-Pad3)*%
X238625000Y-72970000D03*
%TO.P,D18,4,GK*%
%TO.N,Net-(D18-Pad4)*%
X238625000Y-74370000D03*
%TD*%
D59*
%TO.P,U4,1,I/O1*%
%TO.N,/USB_D+*%
X246250000Y-142112500D03*
D60*
%TO.P,U4,2,GND*%
%TO.N,GND*%
X246175000Y-142650000D03*
D59*
%TO.P,U4,3,I/O2*%
%TO.N,/USB_D-*%
X246250000Y-143187500D03*
%TO.P,U4,4,I/O2*%
%TO.N,/UD-*%
X247950000Y-143187500D03*
D60*
%TO.P,U4,5,VBUS*%
%TO.N,VBUS*%
X248025000Y-142650000D03*
D59*
%TO.P,U4,6,I/O1*%
%TO.N,/UD+*%
X247950000Y-142112500D03*
%TD*%
D21*
%TO.P,R33,1*%
%TO.N,Net-(J14-Pad2)*%
X220470000Y-77790000D03*
%TO.P,R33,2*%
%TO.N,/UI_LED_B*%
X220470000Y-78810000D03*
%TD*%
%TO.P,R40,1*%
%TO.N,Net-(J15-Pad2)*%
X259760000Y-80060000D03*
%TO.P,R40,2*%
%TO.N,/VIN*%
X259760000Y-81080000D03*
%TD*%
D12*
%TO.P,R31,1*%
%TO.N,Net-(J10-Pad6)*%
X214640000Y-139350000D03*
%TO.P,R31,2*%
%TO.N,/NET_DBG6*%
X215660000Y-139350000D03*
%TD*%
D21*
%TO.P,R20,1*%
%TO.N,+3.3V*%
X206260000Y-150200000D03*
%TO.P,R20,2*%
%TO.N,/NET_SDA*%
X206260000Y-151220000D03*
%TD*%
D61*
%TO.P,U12,1,STAT*%
%TO.N,Net-(R36-Pad1)*%
X225650000Y-115412500D03*
%TO.P,U12,2,VSS*%
%TO.N,GND*%
X224700000Y-115412500D03*
%TO.P,U12,3,VBAT*%
%TO.N,+BATT*%
X223750000Y-115412500D03*
%TO.P,U12,4,VDD*%
%TO.N,VBUS*%
X223750000Y-117687500D03*
%TO.P,U12,5,PROG*%
%TO.N,Net-(R37-Pad2)*%
X225650000Y-117687500D03*
%TD*%
D13*
%TO.P,C28,1*%
%TO.N,Net-(C28-Pad1)*%
X252030000Y-126800000D03*
%TO.P,C28,2*%
%TO.N,GND*%
X251070000Y-126800000D03*
%TD*%
D21*
%TO.P,R7,1*%
%TO.N,+3.3V*%
X225900000Y-150340000D03*
%TO.P,R7,2*%
%TO.N,/UI_SDA*%
X225900000Y-151360000D03*
%TD*%
D19*
%TO.P,C26,1*%
%TO.N,+3.3V*%
X256000000Y-114080000D03*
%TO.P,C26,2*%
%TO.N,GND*%
X256000000Y-113120000D03*
%TD*%
D29*
%TO.P,R25,1*%
%TO.N,/UI_LED_R*%
X219050000Y-86210000D03*
%TO.P,R25,2*%
%TO.N,Net-(D5-Pad1)*%
X219050000Y-85190000D03*
%TD*%
D62*
%TO.P,Y1,1,1*%
%TO.N,/RCC_OSC_IN*%
X260050000Y-119650000D03*
%TO.P,Y1,2,2*%
%TO.N,GND*%
X262250000Y-119650000D03*
%TO.P,Y1,3,3*%
%TO.N,/RCC_OSC_OUT*%
X262250000Y-117950000D03*
%TO.P,Y1,4,4*%
%TO.N,GND*%
X260050000Y-117950000D03*
%TD*%
D63*
%TO.N,/UI_SWDIO*%
X261840000Y-141470000D03*
X263320000Y-141500000D03*
D64*
%TO.N,GND*%
X254555000Y-80655000D03*
X209290000Y-70400000D03*
%TO.N,Net-(D10-Pad1)*%
X213380000Y-71700000D03*
%TO.N,+3.3V*%
X221350000Y-77730000D03*
%TO.N,GND*%
X237550000Y-100840000D03*
X230100000Y-83050000D03*
%TO.N,+3.3V*%
X231940000Y-81050000D03*
%TO.N,GND*%
X235209500Y-80200500D03*
%TO.N,+3.3V*%
X227790000Y-72020000D03*
X232800000Y-72140000D03*
X237800000Y-72340000D03*
X242800000Y-72180000D03*
%TO.N,Net-(J15-Pad2)*%
X260980000Y-80510000D03*
X258650000Y-78400000D03*
%TO.N,/VIN*%
X259000000Y-81110000D03*
%TO.N,+3.3V*%
X265300000Y-98700000D03*
%TO.N,/VIN*%
X255863000Y-97887000D03*
%TO.N,GND*%
X256250000Y-102460000D03*
X263310000Y-102470000D03*
X266525500Y-105050000D03*
X270430000Y-107800000D03*
%TO.N,/VIN*%
X268880000Y-111320000D03*
%TO.N,GND*%
X262000000Y-121200000D03*
X259650000Y-116550000D03*
X255100878Y-113816541D03*
X252950000Y-117500000D03*
%TO.N,+3.3VA*%
X250150000Y-117300000D03*
%TO.N,GND*%
X247750000Y-117700000D03*
X243300000Y-109350000D03*
%TO.N,+3.3V*%
X242200000Y-109550000D03*
X233800000Y-112120000D03*
%TO.N,GND*%
X234750000Y-110400000D03*
%TO.N,Net-(D10-Pad1)*%
X213380000Y-113120000D03*
%TO.N,GND*%
X228960000Y-110850000D03*
X225250000Y-110820000D03*
X227100000Y-116150000D03*
X224800000Y-114050000D03*
%TO.N,+BATT*%
X224015000Y-112735000D03*
X222690000Y-115390000D03*
%TO.N,VBUS*%
X223750000Y-119000000D03*
%TO.N,+3.3V*%
X233600000Y-123850000D03*
%TO.N,GND*%
X232606611Y-123960377D03*
X251190497Y-132249503D03*
%TO.N,+3.3V*%
X251300000Y-131250000D03*
%TO.N,GND*%
X250250000Y-126770000D03*
%TO.N,+3.3VA*%
X252775000Y-124925000D03*
%TO.N,GND*%
X254240000Y-123250000D03*
X258812206Y-124092206D03*
%TO.N,+3.3VA*%
X258800000Y-125050000D03*
X259650000Y-128110000D03*
%TO.N,GND*%
X260620000Y-128010000D03*
X240733000Y-140660023D03*
%TO.N,+3.3V*%
X244655000Y-140725000D03*
%TO.N,GND*%
X243900000Y-141510000D03*
%TO.N,/VIN*%
X243120000Y-143230000D03*
%TO.N,GND*%
X214450000Y-143380000D03*
%TO.N,+3.3V*%
X205250000Y-151680000D03*
%TO.N,GND*%
X208320000Y-151660000D03*
%TO.N,+3.3V*%
X217000000Y-151610000D03*
%TO.N,GND*%
X220050000Y-151730000D03*
X227434813Y-152423000D03*
%TO.N,+3.3V*%
X223800000Y-151790000D03*
%TO.N,VBUS*%
X234125688Y-144574312D03*
X235635000Y-145785000D03*
%TO.N,GND*%
X235780000Y-149170000D03*
X242050000Y-146713000D03*
%TO.N,VBUS*%
X242360000Y-147790000D03*
%TO.N,GND*%
X243200000Y-148920000D03*
X260590000Y-149170000D03*
D63*
%TO.N,/DISP_RSTR*%
X270690000Y-95950000D03*
X270690000Y-101430000D03*
%TO.N,/DISP_CS*%
X269610000Y-99980000D03*
X269599609Y-95187104D03*
%TO.N,/DISP_SPI_MOSI*%
X270725411Y-102939103D03*
X270160000Y-101002000D03*
%TO.N,/DISP_CS*%
X238586331Y-108245758D03*
X238360000Y-113912000D03*
%TO.N,/DISP_BL*%
X238780000Y-108760000D03*
X239118801Y-114801199D03*
%TO.N,/NET_BOOT*%
X251130000Y-97660000D03*
%TO.N,/UI_RST*%
X247203563Y-119146500D03*
X248900000Y-114650000D03*
%TO.N,/UI_SWDIO*%
X229030000Y-121230000D03*
X227174713Y-129914713D03*
%TO.N,+3.3V*%
X252950000Y-114900000D03*
X244550000Y-125450000D03*
X262679913Y-113643530D03*
X251740000Y-140740000D03*
X255609462Y-132750538D03*
X251900000Y-142549500D03*
X264280000Y-122270000D03*
X249400000Y-147100000D03*
X224890378Y-149513556D03*
X265300000Y-106800000D03*
X256000000Y-114950000D03*
X259100000Y-113650000D03*
X225920000Y-149474500D03*
%TO.N,VBUS*%
X249150000Y-142700000D03*
%TO.N,GND*%
X239083725Y-146649500D03*
X253940000Y-111940000D03*
X221650000Y-130500000D03*
X245688000Y-142650000D03*
X224935000Y-144215000D03*
X242750000Y-126300000D03*
X254600000Y-70550000D03*
X264450500Y-108550000D03*
X269750000Y-141050000D03*
%TO.N,/UI_SDA*%
X229624500Y-152240000D03*
X240050000Y-125950000D03*
X234970000Y-133990000D03*
%TO.N,/UI_SCL*%
X229624500Y-152789503D03*
X235730000Y-132030000D03*
X239910562Y-126538104D03*
%TO.N,Net-(D11-Pad1)*%
X227742000Y-147154500D03*
X227860000Y-115160000D03*
%TO.N,/USB_D-*%
X239406188Y-151306188D03*
X237800000Y-151550000D03*
%TO.N,/MCLK*%
X255261051Y-132125538D03*
X247530000Y-124464047D03*
X249372000Y-110805504D03*
X262466003Y-108448500D03*
X247548500Y-121120000D03*
X244080403Y-118991217D03*
X249373725Y-106991851D03*
%TO.N,/NET_SDA*%
X206250000Y-151890000D03*
X234424500Y-106308000D03*
%TO.N,/NET_SCL*%
X207708220Y-151944041D03*
X234927130Y-106635000D03*
%TO.N,/MGMT_BOOT*%
X251460000Y-152560000D03*
X251730000Y-112653000D03*
%TO.N,/MGMT_NRST*%
X261980000Y-112930000D03*
X264360000Y-127940000D03*
X264280000Y-121180000D03*
X252880000Y-143150000D03*
X253410000Y-147710000D03*
%TO.N,/IN_3*%
X244150000Y-129670000D03*
X231250000Y-150270000D03*
X249520287Y-129259713D03*
X250774500Y-127790000D03*
%TO.N,/NET_RST*%
X255195000Y-108045000D03*
X253330000Y-137900000D03*
X235180000Y-82960000D03*
%TO.N,/UI_RST*%
X249478331Y-121910000D03*
X260660000Y-138490000D03*
%TO.N,/MIC_P*%
X230160000Y-150470000D03*
X244156500Y-128470000D03*
%TO.N,/LEDA_R*%
X222400000Y-87150000D03*
X262249964Y-110250036D03*
%TO.N,/LEDA_G*%
X223450000Y-87150000D03*
X263249397Y-110261821D03*
%TO.N,/LEDA_B*%
X224500000Y-87150000D03*
X264268261Y-110315885D03*
%TO.N,/KB_COL3*%
X230420170Y-133115000D03*
X226147000Y-137400000D03*
X233912670Y-133231671D03*
X246345000Y-120845000D03*
%TO.N,/KB_COL4*%
X246670000Y-120350000D03*
X234382573Y-132761769D03*
%TO.N,/UI_TX3*%
X237339388Y-113641212D03*
X218010000Y-155120000D03*
%TO.N,/UI_RX3*%
X236790000Y-113630000D03*
X219020000Y-155070000D03*
%TO.N,/NET_TX0_MGMT*%
X249590000Y-84220000D03*
X255968792Y-137679969D03*
X266270552Y-96540411D03*
X253473500Y-107746500D03*
X267160000Y-83285763D03*
X266331312Y-98180351D03*
%TO.N,/KB_MIC*%
X237679713Y-108570287D03*
%TO.N,/NET_RX0_MGMT*%
X254969290Y-137680604D03*
X267270000Y-96530000D03*
X252266750Y-107786750D03*
X267330000Y-98140000D03*
X249570000Y-85390000D03*
X266722000Y-82847763D03*
%TO.N,/KB_ROW5*%
X237060000Y-108570000D03*
X229144626Y-137108384D03*
%TO.N,/KB_ROW1*%
X223501000Y-139085414D03*
X230800000Y-114300000D03*
%TO.N,/KB_ROW2*%
X224028265Y-137315620D03*
X232200000Y-114650000D03*
%TO.N,/KB_ROW3*%
X231041676Y-115961775D03*
X227473000Y-137397000D03*
%TO.N,/MIC_N*%
X244156500Y-129110000D03*
X230705570Y-150344494D03*
%TO.N,/KB_ROW4*%
X231500000Y-116850000D03*
X228525200Y-137108384D03*
%TO.N,/KB_ROW6*%
X234848560Y-126749350D03*
X229684820Y-137209102D03*
%TO.N,/KB_ROW7*%
X226380000Y-143500000D03*
X235032928Y-127267000D03*
%TO.N,/LEDB_R*%
X247641224Y-105652000D03*
X243159164Y-107323319D03*
X263439628Y-111830912D03*
X216203414Y-87103046D03*
%TO.N,/LEDB_G*%
X244149583Y-107457756D03*
X217200692Y-87169691D03*
%TO.N,/LEDB_B*%
X244605068Y-106554932D03*
X218200000Y-87150000D03*
%TO.N,/SPK_LN*%
X265924500Y-129870000D03*
X262400000Y-127780000D03*
%TO.N,/SPK_LP*%
X265924500Y-127850000D03*
X262410000Y-127070000D03*
%TO.N,/HP_R*%
X257695834Y-121821500D03*
X265924500Y-137050000D03*
%TO.N,/HP_L*%
X257110000Y-121930000D03*
X265924500Y-139050000D03*
%TO.N,/KB_COL5*%
X231731500Y-128747000D03*
X227981659Y-137189108D03*
%TO.N,/KB_COL2*%
X230200000Y-131687000D03*
X225027000Y-137354767D03*
%TO.N,/BTN_RST*%
X259059238Y-112651329D03*
X207745000Y-77415000D03*
X214550000Y-76840000D03*
X252990000Y-112480000D03*
X249919030Y-107059622D03*
%TO.N,/BTN_UI*%
X252390000Y-111200000D03*
X259990000Y-111200000D03*
X249130000Y-84870000D03*
X252157938Y-106957938D03*
%TO.N,/BTN_NET*%
X251247563Y-111200000D03*
X250795000Y-107115000D03*
X261040000Y-111890000D03*
X248580641Y-84857458D03*
X245600000Y-70920000D03*
X249180000Y-77960000D03*
%TO.N,/KB_COL1*%
X229155000Y-132239000D03*
X223593000Y-138281470D03*
%TO.N,/UI_STAT*%
X238728000Y-121835000D03*
X261916500Y-108448500D03*
X261040500Y-108448500D03*
X246011901Y-125340547D03*
X263465523Y-116194477D03*
X234930000Y-118350000D03*
%TO.N,/UI_BOOT*%
X240540000Y-122641000D03*
X239330937Y-107289063D03*
X261290000Y-138740000D03*
X245520000Y-124920000D03*
X241900000Y-103150500D03*
X250356664Y-106615782D03*
%TO.N,/NET_LED_B*%
X227800000Y-87100000D03*
X232200000Y-88200000D03*
%TO.N,/NET_LED_G*%
X228799503Y-87100000D03*
X232100000Y-86900000D03*
%TO.N,/NET_LED_R*%
X229650000Y-86437000D03*
X232090000Y-86010000D03*
%TO.N,Net-(R41-Pad1)*%
X235280000Y-120380000D03*
X227710000Y-145560000D03*
%TO.N,/UI_DBG1*%
X216330000Y-129360000D03*
X239800000Y-111100000D03*
%TO.N,/UI_LED_B*%
X238300000Y-122790000D03*
X221198509Y-87150000D03*
X239055000Y-118880000D03*
X220354063Y-79575500D03*
X241350500Y-118815000D03*
%TO.N,/NET_STAT*%
X245590000Y-99400000D03*
X263888000Y-105190962D03*
X261469096Y-105418881D03*
X250901109Y-102127000D03*
%TO.N,/UI_LED_G*%
X220199006Y-87150000D03*
X243700000Y-115450000D03*
X219350000Y-79570000D03*
%TO.N,/NET_BOOT*%
X254362000Y-97190000D03*
X254473000Y-107973000D03*
X253970000Y-137660000D03*
X255238000Y-97230000D03*
%TO.N,/UI_LED_R*%
X244612104Y-111350000D03*
X219199503Y-87150000D03*
X218300000Y-79575500D03*
X247567728Y-118592272D03*
X246314023Y-111285977D03*
%TO.N,/UI_DBG2*%
X239250497Y-111100000D03*
X216320000Y-131290000D03*
%TO.N,/UI_DBG3*%
X216340000Y-133310000D03*
X217206500Y-116460000D03*
%TO.N,/UI_DBG4*%
X216450000Y-135410000D03*
X217533500Y-117620000D03*
%TO.N,/MGMT_DBG7*%
X216360000Y-141240000D03*
X251400500Y-102454000D03*
X232073935Y-108562000D03*
X256514062Y-104784062D03*
X260920000Y-105440000D03*
X232371783Y-98543990D03*
%TO.N,/NET_DBG5*%
X233030000Y-107908000D03*
X250040000Y-95750000D03*
X216360000Y-137400000D03*
X233148897Y-99321104D03*
%TO.N,/NET_DBG6*%
X249850000Y-94500000D03*
X216320000Y-139350000D03*
X232760340Y-98932547D03*
X232528897Y-108235000D03*
%TO.N,/UI_TX2_MGMT*%
X246880000Y-108720000D03*
X266430000Y-115530000D03*
%TO.N,/MGMT_SWDIO*%
X264170000Y-101360000D03*
X269220000Y-103090000D03*
X259970000Y-105462000D03*
X255400000Y-147080000D03*
%TO.N,/MGMT_SWCLK*%
X264147794Y-100360745D03*
X270217737Y-103149389D03*
X256430000Y-147080000D03*
X258940644Y-105430644D03*
%TO.N,/UI_RX2_MGMT*%
X246880000Y-108170497D03*
X266420000Y-114480000D03*
%TO.N,/I2S_DACLRC*%
X243500000Y-121291000D03*
X256355439Y-132213388D03*
X241540000Y-114850000D03*
X241575500Y-113527306D03*
%TO.N,/UI_TX1_NET*%
X235880000Y-115120000D03*
X235890000Y-113770000D03*
%TO.N,/UI_RX1_NET*%
X235270000Y-114668000D03*
X235240713Y-113761287D03*
%TO.N,/I2S_BCLK*%
X242824500Y-121291000D03*
X255810209Y-132144995D03*
%TO.N,/I2S_ADCDAT*%
X257690000Y-132190000D03*
X244075500Y-120972000D03*
%TO.N,/I2S_DACDAT*%
X256903586Y-132174818D03*
X245561808Y-123118192D03*
%TO.N,/USB_TX1_MGMT*%
X241980000Y-137310000D03*
X248690000Y-136092000D03*
%TO.N,/USB_RX1_MGMT*%
X243260000Y-137440000D03*
X246648500Y-136432000D03*
%TD*%
D65*
%TO.N,/UI_SWDIO*%
X263330000Y-141490000D02*
X263330000Y-139990000D01*
X263320000Y-141500000D02*
X263330000Y-141490000D01*
X261840000Y-141740208D02*
X261840000Y-141470000D01*
X261815104Y-141765104D02*
X261840000Y-141740208D01*
X261383000Y-142197208D02*
X261815104Y-141765104D01*
%TO.N,/UI_SWDCLK*%
X262330000Y-141712656D02*
X262330000Y-139990000D01*
X258437156Y-145605500D02*
X262330000Y-141712656D01*
X247620156Y-145605500D02*
X258437156Y-145605500D01*
X244879000Y-148346656D02*
X247620156Y-145605500D01*
X244879000Y-156043656D02*
X244879000Y-148346656D01*
X244433656Y-156489000D02*
X244879000Y-156043656D01*
X232579000Y-156489000D02*
X244433656Y-156489000D01*
X231688500Y-155598500D02*
X232579000Y-156489000D01*
X231688500Y-150080808D02*
X231688500Y-155598500D01*
X229796192Y-148188500D02*
X231688500Y-150080808D01*
X225628500Y-148188500D02*
X229796192Y-148188500D01*
X222660000Y-137497552D02*
X222660000Y-145220000D01*
X226736213Y-133421339D02*
X222660000Y-137497552D01*
X226736213Y-129733080D02*
X226736213Y-133421339D01*
X222660000Y-145220000D02*
X225628500Y-148188500D01*
X235800000Y-123775000D02*
X235800000Y-124040000D01*
X235800000Y-124040000D02*
X231185200Y-128654800D01*
X231185200Y-128654800D02*
X227814493Y-128654800D01*
X227814493Y-128654800D02*
X226736213Y-129733080D01*
%TO.N,/UI_BOOT*%
X261290000Y-138740000D02*
X261290000Y-139950000D01*
%TO.N,/UI_RST*%
X260291500Y-138858500D02*
X260291500Y-139990000D01*
X260660000Y-138490000D02*
X260291500Y-138858500D01*
%TO.N,/MGMT_NRST*%
X255710000Y-143150000D02*
X252880000Y-143150000D01*
X258340000Y-140520000D02*
X255710000Y-143150000D01*
X258340000Y-139900000D02*
X258340000Y-140520000D01*
X260350000Y-137890000D02*
X258340000Y-139900000D01*
X261341000Y-134996000D02*
X260350000Y-135987000D01*
X262923792Y-134996000D02*
X261341000Y-134996000D01*
X263870000Y-134049792D02*
X262923792Y-134996000D01*
X263870208Y-134049792D02*
X263870000Y-134049792D01*
X260350000Y-135987000D02*
X260350000Y-137890000D01*
X264247000Y-128053000D02*
X264247000Y-133673000D01*
X264247000Y-133673000D02*
X263870208Y-134049792D01*
X264360000Y-127940000D02*
X264247000Y-128053000D01*
%TO.N,/NET_RST*%
X253370000Y-139410000D02*
X253370000Y-139960000D01*
X253330000Y-137900000D02*
X253330000Y-139370000D01*
X253330000Y-139370000D02*
X253370000Y-139410000D01*
%TO.N,/NET_BOOT*%
X253960000Y-137670000D02*
X253960000Y-139550000D01*
X253970000Y-137660000D02*
X253960000Y-137670000D01*
X253960000Y-139550000D02*
X254370000Y-139960000D01*
%TO.N,/NET_RX0_MGMT*%
X254960000Y-137689894D02*
X254960000Y-139550000D01*
X254960000Y-139550000D02*
X255370000Y-139960000D01*
X254969290Y-137680604D02*
X254960000Y-137689894D01*
%TO.N,/NET_TX0_MGMT*%
X255960000Y-139550000D02*
X256370000Y-139960000D01*
X255960000Y-137688761D02*
X255960000Y-139550000D01*
X255968792Y-137679969D02*
X255960000Y-137688761D01*
%TO.N,/UI_RX3*%
X218920000Y-153930000D02*
X219020000Y-154030000D01*
X218920000Y-153100000D02*
X218920000Y-153930000D01*
%TO.N,/UI_TX3*%
X218020000Y-153200000D02*
X217920000Y-153100000D01*
X218020000Y-154030000D02*
X218020000Y-153200000D01*
D66*
%TO.N,+3.3V*%
X217000000Y-153020000D02*
X216920000Y-153100000D01*
X217000000Y-151610000D02*
X217000000Y-153020000D01*
%TO.N,GND*%
X220050000Y-152970000D02*
X219920000Y-153100000D01*
X220050000Y-151730000D02*
X220050000Y-152970000D01*
D65*
%TO.N,+3.3V*%
X205290000Y-151720000D02*
X205290000Y-153050000D01*
X205250000Y-151680000D02*
X205290000Y-151720000D01*
%TO.N,GND*%
X208290000Y-151690000D02*
X208290000Y-153050000D01*
X208320000Y-151660000D02*
X208290000Y-151690000D01*
%TO.N,+3.3V*%
X206340000Y-150280000D02*
X206260000Y-150200000D01*
X207250000Y-150280000D02*
X206340000Y-150280000D01*
X205250000Y-151210000D02*
X205250000Y-151680000D01*
X206260000Y-150200000D02*
X205250000Y-151210000D01*
%TO.N,/NET_SDA*%
X206250000Y-151890000D02*
X206250000Y-151230000D01*
X206250000Y-151230000D02*
X206260000Y-151220000D01*
X206250000Y-153010000D02*
X206290000Y-153050000D01*
X206250000Y-151890000D02*
X206250000Y-153010000D01*
%TO.N,/NET_SCL*%
X207708220Y-152631780D02*
X207290000Y-153050000D01*
X207708220Y-151944041D02*
X207708220Y-152631780D01*
X207250000Y-151485821D02*
X207708220Y-151944041D01*
X207250000Y-151300000D02*
X207250000Y-151485821D01*
%TO.N,GND*%
X227434813Y-152435187D02*
X226800000Y-153070000D01*
X227434813Y-152423000D02*
X227434813Y-152435187D01*
D66*
%TO.N,+3.3V*%
X223800000Y-152750000D02*
X223800000Y-151790000D01*
D65*
%TO.N,/UI_SDA*%
X225820000Y-152040000D02*
X225820000Y-152780000D01*
X225900000Y-151960000D02*
X225820000Y-152040000D01*
X225900000Y-151360000D02*
X225900000Y-151960000D01*
%TO.N,/UI_SCL*%
X229513497Y-152678500D02*
X229624500Y-152789503D01*
X229225000Y-152678500D02*
X229513497Y-152678500D01*
X227980000Y-152563500D02*
X229110000Y-152563500D01*
X227980000Y-154950000D02*
X227980000Y-152563500D01*
X225620000Y-155130000D02*
X227800000Y-155130000D01*
X224820000Y-154330000D02*
X225620000Y-155130000D01*
X229110000Y-152563500D02*
X229225000Y-152678500D01*
X224790000Y-151320000D02*
X224820000Y-151350000D01*
X224820000Y-151350000D02*
X224820000Y-154330000D01*
X227800000Y-155130000D02*
X227980000Y-154950000D01*
%TO.N,+3.3V*%
X224890378Y-150199622D02*
X224790000Y-150300000D01*
X224890378Y-149513556D02*
X224890378Y-150199622D01*
X225920000Y-150320000D02*
X225900000Y-150340000D01*
X225920000Y-149474500D02*
X225920000Y-150320000D01*
X221400000Y-77680000D02*
X221350000Y-77730000D01*
X221400000Y-76180000D02*
X221400000Y-77680000D01*
%TO.N,/UI_LED_R*%
X218310000Y-79565500D02*
X218300000Y-79575500D01*
X218310000Y-78810000D02*
X218310000Y-79565500D01*
%TO.N,/UI_LED_G*%
X219380000Y-79540000D02*
X219350000Y-79570000D01*
X219380000Y-78820000D02*
X219380000Y-79540000D01*
%TO.N,/UI_LED_B*%
X220470000Y-79459563D02*
X220354063Y-79575500D01*
X220470000Y-78810000D02*
X220470000Y-79459563D01*
%TO.N,Net-(J14-Pad2)*%
X220400000Y-77720000D02*
X220470000Y-77790000D01*
X220400000Y-76180000D02*
X220400000Y-77720000D01*
%TO.N,Net-(J14-Pad3)*%
X219400000Y-77763000D02*
X219380000Y-77783000D01*
X219400000Y-76180000D02*
X219400000Y-77763000D01*
%TO.N,Net-(J14-Pad4)*%
X218400000Y-77700000D02*
X218310000Y-77790000D01*
X218400000Y-76180000D02*
X218400000Y-77700000D01*
%TO.N,/UI_LED_B*%
X220400000Y-79529563D02*
X220354063Y-79575500D01*
D66*
%TO.N,GND*%
X211630000Y-70480000D02*
X211550000Y-70400000D01*
X211630000Y-76100000D02*
X211630000Y-70480000D01*
X211530000Y-76200000D02*
X211630000Y-76100000D01*
D65*
%TO.N,/BTN_UI*%
X213550000Y-72460000D02*
X213550000Y-76180000D01*
X213550000Y-76180000D02*
X213530000Y-76200000D01*
X245720000Y-72890000D02*
X243600500Y-70770500D01*
X243600500Y-70770500D02*
X215239500Y-70770500D01*
X215239500Y-70770500D02*
X213550000Y-72460000D01*
X249630000Y-72890000D02*
X245720000Y-72890000D01*
X253100000Y-76360000D02*
X249630000Y-72890000D01*
X253100000Y-77215000D02*
X253100000Y-76360000D01*
%TO.N,/BTN_NET*%
X212550000Y-76180000D02*
X212530000Y-76200000D01*
X214150302Y-69743500D02*
X212550000Y-71343802D01*
X245540000Y-70920000D02*
X244363500Y-69743500D01*
X212550000Y-71343802D02*
X212550000Y-76180000D01*
X245600000Y-70920000D02*
X245540000Y-70920000D01*
X244363500Y-69743500D02*
X214150302Y-69743500D01*
D66*
%TO.N,Net-(D10-Pad1)*%
X261700000Y-75710000D02*
X261700000Y-76950000D01*
X259610000Y-73620000D02*
X261700000Y-75710000D01*
X257560000Y-73620000D02*
X259610000Y-73620000D01*
X257540000Y-73640000D02*
X257560000Y-73620000D01*
X249842698Y-72376500D02*
X251106198Y-73640000D01*
X251106198Y-73640000D02*
X257540000Y-73640000D01*
X243813198Y-70257000D02*
X245932698Y-72376500D01*
X214823000Y-70257000D02*
X243813198Y-70257000D01*
X245932698Y-72376500D02*
X249842698Y-72376500D01*
X213380000Y-71700000D02*
X214823000Y-70257000D01*
%TO.N,GND*%
X212720000Y-69230000D02*
X211550000Y-70400000D01*
X244576198Y-69230000D02*
X212720000Y-69230000D01*
X254310000Y-70260000D02*
X245606198Y-70260000D01*
X245606198Y-70260000D02*
X244576198Y-69230000D01*
X254600000Y-70550000D02*
X254310000Y-70260000D01*
D65*
%TO.N,/USB_DTR*%
X249592396Y-136870000D02*
X244650000Y-136870000D01*
X250954000Y-135508396D02*
X249592396Y-136870000D01*
X250954000Y-135179000D02*
X250954000Y-135508396D01*
X251143000Y-134990000D02*
X250954000Y-135179000D01*
X260884552Y-134990000D02*
X251143000Y-134990000D01*
X261205552Y-134669000D02*
X260884552Y-134990000D01*
X244650000Y-136870000D02*
X244650000Y-134130000D01*
X263920000Y-133537344D02*
X262788344Y-134669000D01*
X263920000Y-127160000D02*
X263920000Y-133537344D01*
X268236500Y-108370000D02*
X268236500Y-122843500D01*
X268386500Y-108220000D02*
X268236500Y-108370000D01*
X268386500Y-105782698D02*
X268386500Y-108220000D01*
X266597302Y-103993500D02*
X268386500Y-105782698D01*
X262788344Y-134669000D02*
X261205552Y-134669000D01*
X265877789Y-103993500D02*
X266597302Y-103993500D01*
X263950000Y-106637500D02*
X263950000Y-105921289D01*
X263950000Y-105921289D02*
X265877789Y-103993500D01*
X268236500Y-122843500D02*
X263920000Y-127160000D01*
%TO.N,/USB_RX1_MGMT*%
X263593000Y-126261896D02*
X267784000Y-122070896D01*
X262670896Y-134324000D02*
X263593000Y-133401896D01*
X266578711Y-109050000D02*
X265862500Y-109050000D01*
X260571000Y-134663000D02*
X260910000Y-134324000D01*
X250627000Y-135372948D02*
X250627000Y-135043552D01*
X267784000Y-122070896D02*
X267784000Y-110255289D01*
X246746500Y-136530000D02*
X249469948Y-136530000D01*
X250627000Y-135043552D02*
X251007552Y-134663000D01*
X267784000Y-110255289D02*
X266578711Y-109050000D01*
X251007552Y-134663000D02*
X260571000Y-134663000D01*
X246648500Y-136432000D02*
X246746500Y-136530000D01*
X263593000Y-133401896D02*
X263593000Y-126261896D01*
X249469948Y-136530000D02*
X250627000Y-135372948D01*
X260910000Y-134324000D02*
X262670896Y-134324000D01*
%TO.N,/USB_TX1_MGMT*%
X250878104Y-134330000D02*
X252660000Y-134330000D01*
X250300000Y-134908104D02*
X250878104Y-134330000D01*
X250300000Y-135237500D02*
X250300000Y-134908104D01*
X249445500Y-136092000D02*
X250300000Y-135237500D01*
X248690000Y-136092000D02*
X249445500Y-136092000D01*
%TO.N,/USB_RTS*%
X267130000Y-110550000D02*
X265862500Y-110550000D01*
X267130000Y-121800000D02*
X267130000Y-110550000D01*
X262939000Y-125991000D02*
X267130000Y-121800000D01*
X262939000Y-133131000D02*
X262939000Y-125991000D01*
X262400000Y-133670000D02*
X262939000Y-133131000D01*
X260634552Y-133670000D02*
X262400000Y-133670000D01*
X260295552Y-134009000D02*
X260634552Y-133670000D01*
X255705831Y-134009000D02*
X260295552Y-134009000D01*
X255699831Y-134003000D02*
X255705831Y-134009000D01*
X249810000Y-132690000D02*
X251123000Y-134003000D01*
X243195000Y-133805223D02*
X244310223Y-132690000D01*
X251123000Y-134003000D02*
X255699831Y-134003000D01*
X243215000Y-134115000D02*
X243195000Y-134095000D01*
X243195000Y-134095000D02*
X243195000Y-133805223D01*
X244310223Y-132690000D02*
X249810000Y-132690000D01*
%TO.N,/UI_STAT*%
X239513000Y-122620000D02*
X238728000Y-121835000D01*
X240943659Y-122202500D02*
X239930500Y-122202500D01*
X243624159Y-122383000D02*
X241124159Y-122383000D01*
X241124159Y-122383000D02*
X240943659Y-122202500D01*
X239930500Y-122202500D02*
X239513000Y-122620000D01*
X246011901Y-125340547D02*
X246011901Y-124770742D01*
X246011901Y-124770742D02*
X243624159Y-122383000D01*
D66*
%TO.N,VBUS*%
X234174312Y-144574312D02*
X234424312Y-144574312D01*
X234424312Y-144574312D02*
X235635000Y-145785000D01*
X233160000Y-145588624D02*
X234174312Y-144574312D01*
X233160000Y-145802500D02*
X233160000Y-145588624D01*
%TO.N,+3.3VA*%
X252980000Y-125130000D02*
X253700000Y-125130000D01*
X252775000Y-124925000D02*
X252980000Y-125130000D01*
%TO.N,/VIN*%
X269110000Y-111320000D02*
X269750000Y-110680000D01*
%TO.N,GND*%
X229100000Y-110990000D02*
X228960000Y-110850000D01*
X229100000Y-111590000D02*
X229100000Y-110990000D01*
X251465000Y-80150000D02*
X251150000Y-80465000D01*
X254540000Y-80670000D02*
X254020000Y-80150000D01*
X254020000Y-80150000D02*
X251465000Y-80150000D01*
X209290000Y-70400000D02*
X206515000Y-70400000D01*
%TO.N,Net-(J15-Pad2)*%
X260530000Y-80060000D02*
X259760000Y-80060000D01*
X260980000Y-80510000D02*
X260530000Y-80060000D01*
%TO.N,GND*%
X262940000Y-102100000D02*
X262940000Y-99690000D01*
X263230000Y-102390000D02*
X262940000Y-102100000D01*
X225250000Y-110820000D02*
X225250000Y-108050000D01*
%TO.N,+BATT*%
X222690000Y-115390000D02*
X222650000Y-115350000D01*
D65*
%TO.N,/MIC_P*%
X249520000Y-128070000D02*
X249955000Y-128505000D01*
X249520000Y-126410000D02*
X249520000Y-128070000D01*
X250180000Y-125750000D02*
X249520000Y-126410000D01*
X251040000Y-125750000D02*
X250180000Y-125750000D01*
D66*
%TO.N,+3.3VA*%
X252770000Y-124920000D02*
X252775000Y-124925000D01*
%TO.N,GND*%
X253700000Y-123790000D02*
X254240000Y-123250000D01*
X253700000Y-124170000D02*
X253700000Y-123790000D01*
D65*
%TO.N,Net-(C30-Pad1)*%
X253995000Y-121855000D02*
X253170000Y-121855000D01*
X254436500Y-122392699D02*
X254436500Y-122296500D01*
X254830000Y-126447500D02*
X254830000Y-122693500D01*
X254737301Y-122693500D02*
X254436500Y-122392699D01*
X254436500Y-122296500D02*
X253995000Y-121855000D01*
X254752500Y-126525000D02*
X254830000Y-126447500D01*
X254830000Y-122693500D02*
X254737301Y-122693500D01*
D66*
%TO.N,GND*%
X260620000Y-128010000D02*
X260620000Y-129080000D01*
%TO.N,+3.3VA*%
X259650000Y-129070000D02*
X259660000Y-129080000D01*
X259650000Y-128110000D02*
X259650000Y-129070000D01*
X259670000Y-129070000D02*
X259670000Y-128800000D01*
X259660000Y-129080000D02*
X259670000Y-129070000D01*
%TO.N,GND*%
X240733000Y-140660023D02*
X240655000Y-140582023D01*
D65*
X240922977Y-140850000D02*
X241460000Y-140850000D01*
D66*
X240655000Y-140582023D02*
X240655000Y-139045000D01*
D65*
X240733000Y-140660023D02*
X240922977Y-140850000D01*
D66*
%TO.N,+3.3V*%
X244655000Y-140725000D02*
X244579500Y-140649500D01*
D65*
%TO.N,/UI_SDA*%
X229244500Y-151860000D02*
X229624500Y-152240000D01*
X226720000Y-151860000D02*
X229244500Y-151860000D01*
X226363500Y-152216500D02*
X226720000Y-151860000D01*
X225820000Y-152780000D02*
X226363500Y-152236500D01*
X226363500Y-152236500D02*
X226363500Y-152216500D01*
D66*
%TO.N,VBUS*%
X235635000Y-145785000D02*
X235650000Y-145800000D01*
D65*
%TO.N,/UI_SWDIO*%
X227174713Y-133445287D02*
X227174713Y-129914713D01*
X222987000Y-137633000D02*
X227174713Y-133445287D01*
X222987000Y-145084552D02*
X222987000Y-137633000D01*
X225763948Y-147861500D02*
X222987000Y-145084552D01*
X229931640Y-147861500D02*
X225763948Y-147861500D01*
X232015500Y-155463052D02*
X232015500Y-149945360D01*
X232714448Y-156162000D02*
X232015500Y-155463052D01*
X244552000Y-148211208D02*
X244552000Y-155908208D01*
X258301708Y-145278500D02*
X247484708Y-145278500D01*
X232015500Y-149945360D02*
X229931640Y-147861500D01*
X261383000Y-142197208D02*
X258301708Y-145278500D01*
X244552000Y-155908208D02*
X244298208Y-156162000D01*
%TO.N,/UI_BOOT*%
X261272000Y-139970000D02*
X261383000Y-140081000D01*
%TO.N,/UI_SWDIO*%
X247484708Y-145278500D02*
X244552000Y-148211208D01*
X244298208Y-156162000D02*
X232714448Y-156162000D01*
%TO.N,/KB_COL4*%
X227550000Y-139710000D02*
X227270000Y-139710000D01*
X227840000Y-139420000D02*
X227550000Y-139710000D01*
X227840000Y-138546500D02*
X227840000Y-139420000D01*
X227034500Y-135880537D02*
X227034500Y-137741000D01*
X230238537Y-132676500D02*
X227034500Y-135880537D01*
X234297804Y-132677000D02*
X230602303Y-132677000D01*
X230602303Y-132677000D02*
X230601803Y-132676500D01*
X230601803Y-132676500D02*
X230238537Y-132676500D01*
X234382573Y-132761769D02*
X234297804Y-132677000D01*
X227034500Y-137741000D02*
X227840000Y-138546500D01*
%TO.N,/NET_LED_R*%
X232555000Y-85545000D02*
X233650000Y-85545000D01*
X232090000Y-86010000D02*
X232555000Y-85545000D01*
%TO.N,GND*%
X253805000Y-131475000D02*
X253100000Y-132180000D01*
X254252500Y-131475000D02*
X253805000Y-131475000D01*
D66*
%TO.N,+3.3V*%
X242800000Y-72945000D02*
X242825000Y-72970000D01*
X242800000Y-72180000D02*
X242800000Y-72945000D01*
D65*
%TO.N,/HP_R*%
X267550000Y-137050000D02*
X267600000Y-137000000D01*
X265924500Y-137050000D02*
X267550000Y-137050000D01*
D67*
%TO.N,/UD+*%
X245735000Y-139386396D02*
X245735000Y-139045000D01*
X247950000Y-141601396D02*
X245735000Y-139386396D01*
X247950000Y-142112500D02*
X247950000Y-141601396D01*
%TO.N,/UD-*%
X248467500Y-143187500D02*
X247950000Y-143187500D01*
X249770000Y-143500000D02*
X248780000Y-143500000D01*
X248780000Y-143500000D02*
X248467500Y-143187500D01*
X249990000Y-143280000D02*
X249770000Y-143500000D01*
X247005000Y-139386396D02*
X249990000Y-142371396D01*
X247005000Y-139045000D02*
X247005000Y-139386396D01*
X249990000Y-142371396D02*
X249990000Y-143280000D01*
D65*
%TO.N,/LEDA_R*%
X264596340Y-112050000D02*
X265862500Y-112050000D01*
X263471661Y-110925321D02*
X264596340Y-112050000D01*
X262925249Y-110925321D02*
X263471661Y-110925321D01*
X262249964Y-110250036D02*
X262925249Y-110925321D01*
D66*
%TO.N,+3.3V*%
X227790000Y-72935000D02*
X227825000Y-72970000D01*
X227790000Y-72020000D02*
X227790000Y-72935000D01*
X232810000Y-72955000D02*
X232825000Y-72970000D01*
X232810000Y-72130000D02*
X232810000Y-72955000D01*
X237800000Y-72340000D02*
X237800000Y-72945000D01*
D65*
%TO.N,/DISP_SPI_SCK*%
X271950000Y-102420000D02*
X272250000Y-102720000D01*
X269964552Y-102420000D02*
X271950000Y-102420000D01*
X268130000Y-96230000D02*
X268130000Y-100585448D01*
X268130000Y-100585448D02*
X269964552Y-102420000D01*
X264800000Y-92900000D02*
X268130000Y-96230000D01*
X256370000Y-92900000D02*
X264800000Y-92900000D01*
X253923500Y-100066500D02*
X253923500Y-95346500D01*
X253923500Y-95346500D02*
X256370000Y-92900000D01*
X252540000Y-101450000D02*
X253923500Y-100066500D01*
X248977136Y-101450000D02*
X252540000Y-101450000D01*
X245715971Y-103899000D02*
X246528136Y-103899000D01*
X246528136Y-103899000D02*
X248977136Y-101450000D01*
X241300000Y-108314971D02*
X245715971Y-103899000D01*
X241300000Y-112425000D02*
X241300000Y-108314971D01*
%TO.N,/DISP_RSTR*%
X271400000Y-95950000D02*
X272250000Y-95100000D01*
X270680000Y-101440000D02*
X270690000Y-101430000D01*
X270690000Y-95950000D02*
X271400000Y-95950000D01*
X269447000Y-101440000D02*
X270680000Y-101440000D01*
%TO.N,/DISP_CS*%
X269610000Y-99980000D02*
X269810000Y-100180000D01*
X267716120Y-93503880D02*
X269399344Y-95187104D01*
X269399344Y-95187104D02*
X269599609Y-95187104D01*
X269810000Y-100180000D02*
X272250000Y-100180000D01*
%TO.N,/DISP_BL*%
X270144896Y-95625104D02*
X270610000Y-95160000D01*
X270610000Y-93200000D02*
X271250000Y-92560000D01*
X269374896Y-95625104D02*
X270144896Y-95625104D01*
X265341792Y-91592000D02*
X269374896Y-95625104D01*
X255828208Y-91592000D02*
X265341792Y-91592000D01*
X251998208Y-100142000D02*
X252615500Y-99524708D01*
X248435344Y-100142000D02*
X251998208Y-100142000D01*
X252615500Y-94804708D02*
X255828208Y-91592000D01*
X271250000Y-92560000D02*
X272250000Y-92560000D01*
X245986344Y-102591000D02*
X248435344Y-100142000D01*
X245174179Y-102591000D02*
X245986344Y-102591000D01*
X239005179Y-108760000D02*
X245174179Y-102591000D01*
X252615500Y-99524708D02*
X252615500Y-94804708D01*
X238780000Y-108760000D02*
X239005179Y-108760000D01*
X270610000Y-95160000D02*
X270610000Y-93200000D01*
%TO.N,/DISP_DC*%
X269741000Y-97640000D02*
X272250000Y-97640000D01*
X269111000Y-97010000D02*
X269741000Y-97640000D01*
X265206344Y-91919000D02*
X269111000Y-95823656D01*
X255963656Y-91919000D02*
X265206344Y-91919000D01*
X252942500Y-94940156D02*
X255963656Y-91919000D01*
X248570792Y-100469000D02*
X252133656Y-100469000D01*
X269111000Y-95823656D02*
X269111000Y-97010000D01*
X252133656Y-100469000D02*
X252942500Y-99660156D01*
X252942500Y-99660156D02*
X252942500Y-94940156D01*
X246121792Y-102918000D02*
X248570792Y-100469000D01*
X245309627Y-102918000D02*
X246121792Y-102918000D01*
X238800000Y-109427627D02*
X245309627Y-102918000D01*
X238800000Y-112425000D02*
X238800000Y-109427627D01*
%TO.N,/DISP_SPI_MOSI*%
X270725411Y-103735411D02*
X272250000Y-105260000D01*
X270725411Y-102939103D02*
X270725411Y-103735411D01*
X269471448Y-101002000D02*
X270160000Y-101002000D01*
X269149724Y-100680276D02*
X269471448Y-101002000D01*
X268784000Y-100314552D02*
X269149724Y-100680276D01*
X268784000Y-95959104D02*
X268784000Y-96230000D01*
X268784000Y-96230000D02*
X268784000Y-100314552D01*
X267987448Y-95162552D02*
X268784000Y-95959104D01*
%TO.N,/DISP_RSTR*%
X268457000Y-100450000D02*
X269447000Y-101440000D01*
X268457000Y-96094552D02*
X268457000Y-100450000D01*
X264935448Y-92573000D02*
X268457000Y-96094552D01*
X256234552Y-92573000D02*
X264935448Y-92573000D01*
X253596500Y-95211052D02*
X256234552Y-92573000D01*
X253596500Y-99931052D02*
X253596500Y-95211052D01*
X252404552Y-101123000D02*
X253596500Y-99931052D01*
X248841688Y-101123000D02*
X252404552Y-101123000D01*
X246392688Y-103572000D02*
X248841688Y-101123000D01*
X240973000Y-108179523D02*
X245580523Y-103572000D01*
X240973000Y-111260000D02*
X240973000Y-108179523D01*
X245580523Y-103572000D02*
X246392688Y-103572000D01*
X240800000Y-111433000D02*
X240973000Y-111260000D01*
X240800000Y-112425000D02*
X240800000Y-111433000D01*
%TO.N,/DISP_SPI_MOSI*%
X265070896Y-92246000D02*
X267987448Y-95162552D01*
X256099104Y-92246000D02*
X265070896Y-92246000D01*
X253269500Y-95075604D02*
X256099104Y-92246000D01*
X253269500Y-99795604D02*
X253269500Y-95075604D01*
X252269104Y-100796000D02*
X253269500Y-99795604D01*
X248706240Y-100796000D02*
X252269104Y-100796000D01*
X245445075Y-103245000D02*
X246257240Y-103245000D01*
X240646000Y-111080000D02*
X240646000Y-108044075D01*
X240646000Y-108044075D02*
X245445075Y-103245000D01*
X240300000Y-111426000D02*
X240646000Y-111080000D01*
X246257240Y-103245000D02*
X248706240Y-100796000D01*
X240300000Y-112425000D02*
X240300000Y-111426000D01*
%TO.N,/DISP_CS*%
X265477240Y-91265000D02*
X267716120Y-93503880D01*
X255692760Y-91265000D02*
X265477240Y-91265000D01*
X251862760Y-99815000D02*
X252288500Y-99389260D01*
X252288500Y-94669260D02*
X255692760Y-91265000D01*
X248299896Y-99815000D02*
X251862760Y-99815000D01*
X252288500Y-99389260D02*
X252288500Y-94669260D01*
X245038731Y-102264000D02*
X245850896Y-102264000D01*
X245850896Y-102264000D02*
X248299896Y-99815000D01*
X239056973Y-108245758D02*
X245038731Y-102264000D01*
X238586331Y-108245758D02*
X239056973Y-108245758D01*
%TO.N,/KB_MIC*%
X238300000Y-109190574D02*
X238300000Y-112425000D01*
X237679713Y-108570287D02*
X238300000Y-109190574D01*
%TO.N,/DISP_CS*%
X244402448Y-114850000D02*
X243575448Y-114023000D01*
X245225000Y-114850000D02*
X244402448Y-114850000D01*
X243575448Y-114023000D02*
X238360000Y-114023000D01*
X238360000Y-114023000D02*
X238360000Y-113912000D01*
%TO.N,/BATTERY_MON*%
X236192581Y-114350000D02*
X236072081Y-114229500D01*
X234483000Y-113623000D02*
X230113000Y-113623000D01*
X243440000Y-114350000D02*
X236192581Y-114350000D01*
X236072081Y-114229500D02*
X235089500Y-114229500D01*
X244440000Y-115350000D02*
X243440000Y-114350000D01*
X235089500Y-114229500D02*
X234483000Y-113623000D01*
X230113000Y-113623000D02*
X229100000Y-112610000D01*
X245225000Y-115350000D02*
X244440000Y-115350000D01*
%TO.N,/DISP_BL*%
X236300000Y-122255523D02*
X236300000Y-123775000D01*
X239118801Y-114801199D02*
X238728801Y-114801199D01*
X238360000Y-115170000D02*
X238360000Y-120195523D01*
X238728801Y-114801199D02*
X238360000Y-115170000D01*
X238360000Y-120195523D02*
X236300000Y-122255523D01*
%TO.N,/I2S_DACLRC*%
X243500000Y-120344367D02*
X243500000Y-121291000D01*
X241540000Y-114850000D02*
X241540000Y-118384367D01*
X241540000Y-118384367D02*
X243500000Y-120344367D01*
X241800000Y-113302806D02*
X241800000Y-112425000D01*
X241575500Y-113527306D02*
X241800000Y-113302806D01*
%TO.N,/UI_BOOT*%
X239890000Y-106730000D02*
X239890000Y-105160500D01*
X239330937Y-107289063D02*
X239890000Y-106730000D01*
X239890000Y-105160500D02*
X241900000Y-103150500D01*
%TO.N,/NET_BOOT*%
X251150000Y-97640000D02*
X251130000Y-97660000D01*
X251150000Y-96975000D02*
X251150000Y-97640000D01*
D66*
%TO.N,/VIN*%
X259030000Y-81080000D02*
X259000000Y-81110000D01*
X259760000Y-81080000D02*
X259030000Y-81080000D01*
D65*
%TO.N,/LEDB_R*%
X244314419Y-105763000D02*
X243159164Y-106918255D01*
X247530224Y-105763000D02*
X244314419Y-105763000D01*
X243159164Y-106918255D02*
X243159164Y-107323319D01*
X247641224Y-105652000D02*
X247530224Y-105763000D01*
%TO.N,/LEDB_G*%
X263450000Y-104977552D02*
X263450000Y-106637500D01*
X262765448Y-104293000D02*
X263450000Y-104977552D01*
X249586500Y-105223000D02*
X256694552Y-105223000D01*
X256694552Y-105223000D02*
X257624552Y-104293000D01*
X244449867Y-106090000D02*
X248719500Y-106090000D01*
X248719500Y-106090000D02*
X249586500Y-105223000D01*
X243941568Y-106598299D02*
X244449867Y-106090000D01*
X243941568Y-107249741D02*
X243941568Y-106598299D01*
X257624552Y-104293000D02*
X262765448Y-104293000D01*
X244149583Y-107457756D02*
X243941568Y-107249741D01*
%TO.N,/UI_LED_R*%
X247567728Y-118592272D02*
X246825456Y-117850000D01*
X246825456Y-117850000D02*
X245225000Y-117850000D01*
%TO.N,/UI_RST*%
X249857396Y-105877000D02*
X248880000Y-106854396D01*
X248880000Y-114630000D02*
X248900000Y-114650000D01*
X248880000Y-106854396D02*
X248880000Y-112270000D01*
X250577000Y-105877000D02*
X249857396Y-105877000D01*
X248880000Y-112270000D02*
X248880000Y-114630000D01*
X254599448Y-105877000D02*
X250577000Y-105877000D01*
%TO.N,/MCLK*%
X249396496Y-110830000D02*
X249372000Y-110805504D01*
X249483000Y-107101126D02*
X249483000Y-110830000D01*
X249483000Y-110830000D02*
X249396496Y-110830000D01*
X249373725Y-106991851D02*
X249483000Y-107101126D01*
%TO.N,/BTN_RST*%
X250750000Y-111990000D02*
X252500000Y-111990000D01*
X252500000Y-111990000D02*
X252990000Y-112480000D01*
X249810000Y-111050000D02*
X250750000Y-111990000D01*
X249919030Y-107059622D02*
X249810000Y-107168652D01*
X249810000Y-107168652D02*
X249810000Y-111050000D01*
%TO.N,/UI_BOOT*%
X256680000Y-109050000D02*
X257537500Y-109050000D01*
X254470000Y-106210000D02*
X255990000Y-107730000D01*
X250356664Y-106615782D02*
X250762446Y-106210000D01*
X250762446Y-106210000D02*
X254470000Y-106210000D01*
X255990000Y-107730000D02*
X255990000Y-108360000D01*
X255990000Y-108360000D02*
X256680000Y-109050000D01*
%TO.N,/UI_RST*%
X255931224Y-107208776D02*
X254599448Y-105877000D01*
X256317000Y-107594552D02*
X255931224Y-107208776D01*
X256317000Y-108224552D02*
X256317000Y-107594552D01*
X256642448Y-108550000D02*
X256317000Y-108224552D01*
X257537500Y-108550000D02*
X256642448Y-108550000D01*
%TO.N,/UI_SWDIO*%
X229410000Y-120850000D02*
X233875000Y-120850000D01*
X229030000Y-121230000D02*
X229410000Y-120850000D01*
%TO.N,Net-(D11-Pad1)*%
X232637000Y-147154500D02*
X233160000Y-147677500D01*
X227742000Y-147154500D02*
X232637000Y-147154500D01*
%TO.N,+3.3VA*%
X257900000Y-125080000D02*
X257252500Y-125727500D01*
D66*
X250150000Y-116137500D02*
X250112500Y-116100000D01*
D67*
X248850000Y-115670000D02*
X249682500Y-115670000D01*
D66*
X258770000Y-125080000D02*
X258800000Y-125050000D01*
D67*
X245225000Y-115850000D02*
X247570000Y-115850000D01*
X247750000Y-115670000D02*
X248850000Y-115670000D01*
D65*
X258477500Y-128750000D02*
X259620000Y-128750000D01*
X259620000Y-128750000D02*
X259670000Y-128800000D01*
D66*
X250150000Y-117300000D02*
X250150000Y-116137500D01*
D67*
X249682500Y-115670000D02*
X250112500Y-116100000D01*
D65*
X257252500Y-125727500D02*
X257252500Y-126525000D01*
X254252500Y-126525000D02*
X254252500Y-125682500D01*
X254252500Y-125682500D02*
X253700000Y-125130000D01*
D66*
X257900000Y-125080000D02*
X258770000Y-125080000D01*
D67*
X247570000Y-115850000D02*
X247750000Y-115670000D01*
D65*
%TO.N,+3.3V*%
X253057500Y-131220000D02*
X253527500Y-130750000D01*
D66*
X265280000Y-98730000D02*
X265300000Y-98750000D01*
D67*
X257537500Y-113550000D02*
X259000000Y-113550000D01*
X258100000Y-115870000D02*
X258100000Y-115812500D01*
D66*
X244579500Y-140649500D02*
X243547918Y-140649500D01*
X262940000Y-98730000D02*
X265280000Y-98730000D01*
D65*
X263300000Y-122250000D02*
X264260000Y-122250000D01*
D67*
X242120000Y-109630000D02*
X242200000Y-109550000D01*
D66*
X234800000Y-112180000D02*
X233830000Y-112180000D01*
X254630538Y-132750538D02*
X254630000Y-132750000D01*
D67*
X242120000Y-110450000D02*
X242120000Y-111270000D01*
D65*
X228644000Y-126304000D02*
X227450000Y-125110000D01*
D66*
X243730000Y-125500000D02*
X244500000Y-125500000D01*
D67*
X266600000Y-107312500D02*
X265862500Y-108050000D01*
D66*
X260430000Y-98730000D02*
X262940000Y-98730000D01*
D67*
X258100000Y-115812500D02*
X258950000Y-114962500D01*
D66*
X242467418Y-141730000D02*
X240590000Y-141730000D01*
X255609462Y-132750538D02*
X254630538Y-132750538D01*
D67*
X242120000Y-110450000D02*
X242120000Y-109630000D01*
D66*
X251740000Y-140740000D02*
X251740000Y-142389500D01*
D67*
X258950000Y-113800000D02*
X259100000Y-113650000D01*
X257007500Y-114080000D02*
X257537500Y-113550000D01*
X256000000Y-114080000D02*
X257007500Y-114080000D01*
X242120000Y-111270000D02*
X242300000Y-111450000D01*
D66*
X251740000Y-142389500D02*
X251900000Y-142549500D01*
D65*
X254752500Y-132627500D02*
X254630000Y-132750000D01*
D66*
X232635000Y-81735000D02*
X231950000Y-81050000D01*
X239600000Y-135060000D02*
X240545000Y-134115000D01*
D65*
X254752500Y-131475000D02*
X254752500Y-132627500D01*
X233600000Y-123905319D02*
X233600000Y-123850000D01*
X252200000Y-131220000D02*
X253057500Y-131220000D01*
D67*
X256000000Y-114950000D02*
X256000000Y-114080000D01*
X233630000Y-122095000D02*
X233875000Y-121850000D01*
D66*
X244465000Y-139265000D02*
X244465000Y-140535000D01*
X243547918Y-140649500D02*
X242467418Y-141730000D01*
D67*
X259000000Y-113550000D02*
X259100000Y-113650000D01*
X262679913Y-113779913D02*
X262950000Y-114050000D01*
D66*
X258550000Y-100860000D02*
X258550000Y-100610000D01*
D67*
X243300000Y-123775000D02*
X243300000Y-125070000D01*
D66*
X258550000Y-94560000D02*
X258550000Y-100860000D01*
X244670000Y-140740000D02*
X244655000Y-140725000D01*
D67*
X252520000Y-116100000D02*
X252950000Y-115670000D01*
D66*
X240545000Y-134115000D02*
X240655000Y-134115000D01*
X252200000Y-131220000D02*
X251330000Y-131220000D01*
X251330000Y-131220000D02*
X251300000Y-131250000D01*
X233630000Y-122900000D02*
X233630000Y-123820000D01*
D65*
X228644000Y-126645000D02*
X228644000Y-126304000D01*
D67*
X251687500Y-116100000D02*
X252520000Y-116100000D01*
X265862500Y-107362500D02*
X265300000Y-106800000D01*
D65*
X230860319Y-126645000D02*
X233600000Y-123905319D01*
X264260000Y-122250000D02*
X264280000Y-122270000D01*
D67*
X265862500Y-108050000D02*
X265862500Y-107362500D01*
D66*
X233830000Y-112180000D02*
X233800000Y-112150000D01*
D67*
X258950000Y-114962500D02*
X258950000Y-113800000D01*
X252950000Y-115670000D02*
X252950000Y-114900000D01*
D66*
X233650000Y-81735000D02*
X232635000Y-81735000D01*
X239600000Y-140740000D02*
X239600000Y-135060000D01*
D67*
X235045000Y-112425000D02*
X234800000Y-112180000D01*
X266600000Y-106930000D02*
X266600000Y-107312500D01*
X233630000Y-122900000D02*
X233630000Y-122095000D01*
D65*
X228644000Y-126645000D02*
X230860319Y-126645000D01*
D66*
X249400000Y-147100000D02*
X249400000Y-149850000D01*
X244500000Y-125500000D02*
X244550000Y-125450000D01*
X233630000Y-123820000D02*
X233600000Y-123850000D01*
X244465000Y-140535000D02*
X244670000Y-140740000D01*
D67*
X243300000Y-125070000D02*
X243730000Y-125500000D01*
X262950000Y-114050000D02*
X262950000Y-114962500D01*
X262679913Y-113643530D02*
X262679913Y-113779913D01*
D66*
X240590000Y-141730000D02*
X239600000Y-140740000D01*
D67*
X242300000Y-111450000D02*
X242300000Y-112425000D01*
X235800000Y-112425000D02*
X235045000Y-112425000D01*
D66*
X258550000Y-100610000D02*
X260430000Y-98730000D01*
%TO.N,VBUS*%
X241950000Y-148200000D02*
X241950000Y-149050000D01*
X237000000Y-149755000D02*
X237000000Y-147880000D01*
D67*
X249100000Y-142650000D02*
X249150000Y-142700000D01*
D66*
X222602500Y-116540000D02*
X223750000Y-117687500D01*
X223750000Y-117687500D02*
X223750000Y-119000000D01*
X235650000Y-147150000D02*
X236330000Y-147830000D01*
X221600000Y-116540000D02*
X222602500Y-116540000D01*
D67*
X248025000Y-142650000D02*
X249100000Y-142650000D01*
D66*
X236330000Y-147830000D02*
X237050000Y-147830000D01*
X237000000Y-147880000D02*
X237050000Y-147830000D01*
X235650000Y-147150000D02*
X235650000Y-145800000D01*
X242350000Y-147800000D02*
X241950000Y-148200000D01*
%TO.N,GND*%
X242700000Y-149450000D02*
X243200000Y-148950000D01*
D65*
X225853500Y-142320000D02*
X225663500Y-142510000D01*
D66*
X252200000Y-132180000D02*
X251369503Y-132180000D01*
D65*
X254000000Y-111880000D02*
X253940000Y-111940000D01*
D66*
X235850000Y-109820000D02*
X235330000Y-109820000D01*
X236830000Y-100840000D02*
X236650000Y-100660000D01*
D65*
X237050000Y-146870000D02*
X238270000Y-146870000D01*
D66*
X209310000Y-70400000D02*
X209290000Y-70400000D01*
D65*
X225390000Y-143310000D02*
X225390000Y-143710000D01*
D66*
X242770000Y-126280000D02*
X242750000Y-126300000D01*
X256250000Y-100860000D02*
X256250000Y-102460000D01*
X231050000Y-83000000D02*
X230150000Y-83000000D01*
D67*
X246175000Y-142650000D02*
X245650000Y-142650000D01*
D66*
X230150000Y-83000000D02*
X230100000Y-83050000D01*
D65*
X225390000Y-140110000D02*
X225817000Y-140110000D01*
X245225000Y-116350000D02*
X247470000Y-116350000D01*
D66*
X262250000Y-119650000D02*
X262250000Y-120950000D01*
X252200000Y-132180000D02*
X253100000Y-132180000D01*
D65*
X225853500Y-140146500D02*
X225853500Y-142320000D01*
D66*
X269700000Y-141000000D02*
X269750000Y-141050000D01*
D65*
X225390000Y-139590000D02*
X225380000Y-139600000D01*
X227270000Y-144215000D02*
X225390000Y-144215000D01*
D66*
X224700000Y-114150000D02*
X224750000Y-114100000D01*
X234800000Y-111220000D02*
X234800000Y-110450000D01*
X233650000Y-80465000D02*
X234885500Y-80465000D01*
D65*
X236200000Y-149755000D02*
X236200000Y-149590000D01*
X225663500Y-142510000D02*
X225390000Y-142510000D01*
D66*
X206515000Y-70400000D02*
X206230000Y-70685000D01*
D65*
X225390000Y-138805000D02*
X225390000Y-139310000D01*
D66*
X232606611Y-123960377D02*
X231320000Y-122673766D01*
D67*
X257900000Y-124170000D02*
X258734412Y-124170000D01*
D66*
X234800000Y-110450000D02*
X234750000Y-110400000D01*
D67*
X243080000Y-110870000D02*
X242800000Y-111150000D01*
D65*
X225817000Y-140110000D02*
X225853500Y-140146500D01*
X225390000Y-139710000D02*
X225390000Y-140110000D01*
X265862500Y-108550000D02*
X264450500Y-108550000D01*
D66*
X242700000Y-149755000D02*
X242700000Y-149450000D01*
D67*
X263550000Y-116950000D02*
X265450000Y-116950000D01*
D66*
X241250000Y-146690000D02*
X242027000Y-146690000D01*
X225250000Y-108050000D02*
X226200000Y-107100000D01*
D65*
X248840000Y-120890000D02*
X248840000Y-118790000D01*
D66*
X227100000Y-117040000D02*
X227100000Y-116150000D01*
D65*
X223056000Y-129185000D02*
X223056000Y-130455000D01*
D66*
X270400000Y-109070000D02*
X269750000Y-109720000D01*
X231320000Y-122673766D02*
X231320000Y-121700000D01*
X257900000Y-118400000D02*
X257900000Y-118300000D01*
D67*
X256070000Y-113050000D02*
X256000000Y-113120000D01*
D65*
X225380000Y-139700000D02*
X225390000Y-139710000D01*
D66*
X223056000Y-130455000D02*
X221695000Y-130455000D01*
X251070000Y-126800000D02*
X250250000Y-126800000D01*
X266600000Y-105124500D02*
X266525500Y-105050000D01*
X251369503Y-132180000D02*
X251300000Y-132249503D01*
X224700000Y-115412500D02*
X224700000Y-114150000D01*
D65*
X238270000Y-146870000D02*
X238300000Y-146840000D01*
D66*
X260050000Y-116950000D02*
X259650000Y-116550000D01*
X243080000Y-110450000D02*
X243080000Y-109570000D01*
D65*
X225390000Y-139310000D02*
X225390000Y-139590000D01*
D67*
X242800000Y-111150000D02*
X242800000Y-112425000D01*
D65*
X224955000Y-126645000D02*
X223056000Y-126645000D01*
D67*
X242800000Y-123775000D02*
X242800000Y-125470000D01*
X257537500Y-113050000D02*
X256070000Y-113050000D01*
D65*
X225390000Y-138805000D02*
X227270000Y-138805000D01*
X225380000Y-139600000D02*
X225380000Y-139700000D01*
D66*
X247750000Y-117700000D02*
X247750000Y-116630000D01*
X253100000Y-132180000D02*
X253670000Y-132750000D01*
X211570000Y-143330000D02*
X214410000Y-143330000D01*
D67*
X242800000Y-125470000D02*
X242770000Y-125500000D01*
D66*
X248850000Y-116630000D02*
X247750000Y-116630000D01*
D65*
X247470000Y-116350000D02*
X247750000Y-116630000D01*
X236200000Y-149590000D02*
X235780000Y-149170000D01*
D66*
X232606611Y-123960377D02*
X232606611Y-122963389D01*
X221695000Y-130455000D02*
X221650000Y-130500000D01*
X214410000Y-143330000D02*
X214450000Y-143370000D01*
X255797419Y-113120000D02*
X255100878Y-113816541D01*
D65*
X223056000Y-126645000D02*
X223056000Y-127915000D01*
D66*
X257900000Y-118300000D02*
X259650000Y-116550000D01*
X226200000Y-107100000D02*
X226200000Y-98970000D01*
D65*
X225390000Y-142907924D02*
X225390000Y-143310000D01*
D67*
X243080000Y-110450000D02*
X243080000Y-110870000D01*
D66*
X234885500Y-80465000D02*
X235150000Y-80200500D01*
X262250000Y-119650000D02*
X264150000Y-119650000D01*
X258100000Y-116830000D02*
X259370000Y-116830000D01*
X226200000Y-98970000D02*
X225860000Y-98630000D01*
D65*
X227270000Y-138805000D02*
X227270000Y-139310000D01*
D66*
X270400000Y-107800000D02*
X270400000Y-109070000D01*
X243950000Y-141549500D02*
X243900000Y-141499500D01*
X225250000Y-110850000D02*
X225250000Y-111600000D01*
D65*
X225390000Y-142510000D02*
X225390000Y-142907924D01*
D66*
X259900000Y-149850000D02*
X260580000Y-149170000D01*
X237550000Y-100840000D02*
X236830000Y-100840000D01*
D67*
X262450000Y-114962500D02*
X262450000Y-115850000D01*
D66*
X243950000Y-142270000D02*
X243950000Y-141549500D01*
D65*
X238893225Y-146840000D02*
X239083725Y-146649500D01*
D66*
X242027000Y-146690000D02*
X242050000Y-146713000D01*
X267600000Y-141000000D02*
X269700000Y-141000000D01*
D65*
X223056000Y-127915000D02*
X223056000Y-129185000D01*
D67*
X265450000Y-116950000D02*
X265450000Y-118650000D01*
D66*
X262250000Y-120950000D02*
X262050000Y-121150000D01*
D67*
X262450000Y-115850000D02*
X263550000Y-116950000D01*
D66*
X243080000Y-109570000D02*
X243300000Y-109350000D01*
X252950000Y-117500000D02*
X252950000Y-116630000D01*
X266600000Y-105970000D02*
X266600000Y-105124500D01*
D65*
X238300000Y-146840000D02*
X238893225Y-146840000D01*
D66*
X242770000Y-125500000D02*
X242770000Y-126280000D01*
X260050000Y-117950000D02*
X260050000Y-116950000D01*
D65*
X254890000Y-111880000D02*
X254000000Y-111880000D01*
X248840000Y-118790000D02*
X247750000Y-117700000D01*
D66*
X259400000Y-149850000D02*
X259900000Y-149850000D01*
X256000000Y-113120000D02*
X255797419Y-113120000D01*
X225250000Y-110850000D02*
X225250000Y-110820000D01*
D65*
X226490000Y-125110000D02*
X224955000Y-126645000D01*
D66*
X259370000Y-116830000D02*
X259650000Y-116550000D01*
X232606611Y-122963389D02*
X232670000Y-122900000D01*
D67*
X256850000Y-124170000D02*
X257900000Y-124170000D01*
D66*
X235330000Y-109820000D02*
X234750000Y-110400000D01*
D65*
X224935000Y-144215000D02*
X225390000Y-144215000D01*
X225390000Y-143710000D02*
X225390000Y-144215000D01*
D67*
X265450000Y-118650000D02*
X264350000Y-119750000D01*
D66*
X211550000Y-70400000D02*
X209310000Y-70400000D01*
%TO.N,+BATT*%
X227690000Y-112560000D02*
X227750000Y-112620000D01*
X226450000Y-111540000D02*
X226450000Y-112560000D01*
X227860000Y-99190000D02*
X227860000Y-107340000D01*
X222712500Y-115412500D02*
X222690000Y-115390000D01*
X227860000Y-107340000D02*
X226500000Y-108700000D01*
X224190000Y-112560000D02*
X224015000Y-112735000D01*
X226500000Y-108700000D02*
X226500000Y-111490000D01*
X223750000Y-115412500D02*
X222712500Y-115412500D01*
X225250000Y-112560000D02*
X226450000Y-112560000D01*
X221600000Y-114300000D02*
X222650000Y-115350000D01*
X225250000Y-112560000D02*
X224190000Y-112560000D01*
X228200000Y-98850000D02*
X227860000Y-99190000D01*
X221600000Y-113610000D02*
X221600000Y-114300000D01*
X226500000Y-111490000D02*
X226450000Y-111540000D01*
X226450000Y-112560000D02*
X227690000Y-112560000D01*
D68*
%TO.N,/RCC_OSC_IN*%
X260950000Y-114962500D02*
X260950000Y-116900000D01*
X260300000Y-119650000D02*
X260050000Y-119650000D01*
X261075000Y-118875000D02*
X260300000Y-119650000D01*
X260050000Y-119650000D02*
X258550000Y-119650000D01*
X261075000Y-117025000D02*
X261075000Y-118875000D01*
X260950000Y-116900000D02*
X261075000Y-117025000D01*
X258550000Y-119650000D02*
X257900000Y-120300000D01*
D66*
%TO.N,/VIN*%
X260850000Y-100860000D02*
X260850000Y-102230000D01*
D65*
X243950000Y-143230000D02*
X243120000Y-143230000D01*
D66*
X271910000Y-110680000D02*
X272250000Y-110340000D01*
X254720000Y-99200000D02*
X255863000Y-98057000D01*
X254950000Y-103300000D02*
X254720000Y-103070000D01*
X254720000Y-103070000D02*
X254720000Y-99200000D01*
X261180000Y-103300000D02*
X266630000Y-103300000D01*
X260850000Y-102970000D02*
X261180000Y-103300000D01*
X260850000Y-102230000D02*
X259780000Y-103300000D01*
X269750000Y-110680000D02*
X271910000Y-110680000D01*
X259780000Y-103300000D02*
X254950000Y-103300000D01*
X266630000Y-103300000D02*
X268900000Y-105570000D01*
X268900000Y-105570000D02*
X268900000Y-111300000D01*
X260850000Y-100860000D02*
X260850000Y-102970000D01*
D65*
%TO.N,/UI_SDA*%
X239920000Y-125950000D02*
X239649355Y-125679355D01*
X240800000Y-123775000D02*
X240800000Y-124528711D01*
X251258448Y-133676000D02*
X249945448Y-132363000D01*
X249945448Y-132363000D02*
X249440000Y-132363000D01*
X228644000Y-130455000D02*
X229607000Y-130455000D01*
X247850000Y-132363000D02*
X241240000Y-132363000D01*
X260100000Y-131499248D02*
X260100000Y-133680000D01*
X260100000Y-133680000D02*
X260098000Y-133682000D01*
X260098000Y-133682000D02*
X259960000Y-133682000D01*
X240050000Y-125950000D02*
X239920000Y-125950000D01*
X240800000Y-124528711D02*
X239649355Y-125679355D01*
X259954000Y-133676000D02*
X251258448Y-133676000D01*
X233489448Y-130673000D02*
X236250448Y-127912000D01*
X236250448Y-127912000D02*
X237300000Y-127912000D01*
X258850752Y-130250000D02*
X260100000Y-131499248D01*
X241240000Y-132363000D02*
X236087000Y-132363000D01*
X235880000Y-132570000D02*
X235880000Y-133080000D01*
X236087000Y-132363000D02*
X235880000Y-132570000D01*
X249440000Y-132363000D02*
X247850000Y-132363000D01*
X229825000Y-130673000D02*
X233489448Y-130673000D01*
X258477500Y-130250000D02*
X258850752Y-130250000D01*
X259960000Y-133682000D02*
X259954000Y-133676000D01*
X237416711Y-127912000D02*
X237250000Y-127912000D01*
X239649355Y-125679355D02*
X237416711Y-127912000D01*
X229607000Y-130455000D02*
X229825000Y-130673000D01*
X235880000Y-133080000D02*
X234970000Y-133990000D01*
%TO.N,/UI_SCL*%
X251393896Y-133349000D02*
X250080896Y-132036000D01*
X239910562Y-126538104D02*
X239253055Y-126538104D01*
X236385896Y-128239000D02*
X233454896Y-131170000D01*
X250080896Y-132036000D02*
X247714552Y-132036000D01*
X259773000Y-131634696D02*
X259773000Y-132820000D01*
X227669300Y-130985200D02*
X227669300Y-129924800D01*
X237552159Y-128239000D02*
X236385896Y-128239000D01*
X239253055Y-126538104D02*
X237552159Y-128239000D01*
X259771000Y-133349000D02*
X259180000Y-133349000D01*
X247714552Y-132036000D02*
X235736000Y-132036000D01*
X228644000Y-129185000D02*
X234515000Y-129185000D01*
X227669300Y-129924800D02*
X228409100Y-129185000D01*
X259773000Y-133347000D02*
X259771000Y-133349000D01*
X233454896Y-131170000D02*
X227854100Y-131170000D01*
X259180000Y-133349000D02*
X251393896Y-133349000D01*
X258477500Y-130750000D02*
X258888304Y-130750000D01*
X227854100Y-131170000D02*
X227669300Y-130985200D01*
X235736000Y-132036000D02*
X235730000Y-132030000D01*
X259773000Y-132820000D02*
X259773000Y-133347000D01*
X240300000Y-124528711D02*
X240300000Y-123775000D01*
X258888304Y-130750000D02*
X259773000Y-131634696D01*
X234515000Y-129185000D02*
X236115000Y-127585000D01*
X228409100Y-129185000D02*
X228644000Y-129185000D01*
X236115000Y-127585000D02*
X237243711Y-127585000D01*
X237243711Y-127585000D02*
X240300000Y-124528711D01*
%TO.N,Net-(D11-Pad1)*%
X227150000Y-115130000D02*
X227830000Y-115130000D01*
X227830000Y-115130000D02*
X227860000Y-115160000D01*
%TO.N,Net-(J9-PadA5)*%
X238300000Y-147860000D02*
X238200000Y-147960000D01*
X238200000Y-147960000D02*
X238200000Y-149755000D01*
%TO.N,/USB_D+*%
X240200000Y-149755000D02*
X240200000Y-151450000D01*
X243222228Y-146050000D02*
X245250000Y-144022228D01*
X245387500Y-142112500D02*
X246250000Y-142112500D01*
X240200000Y-151450000D02*
X239600000Y-152050000D01*
X240200000Y-146856436D02*
X241006436Y-146050000D01*
X245250000Y-144022228D02*
X245250000Y-142250000D01*
X238550000Y-151200000D02*
X239200000Y-150550000D01*
X239200000Y-150550000D02*
X239200000Y-149755000D01*
X245250000Y-142250000D02*
X245387500Y-142112500D01*
X239600000Y-152050000D02*
X238550000Y-152050000D01*
X241006436Y-146050000D02*
X243222228Y-146050000D01*
X238550000Y-152050000D02*
X238550000Y-151200000D01*
X240200000Y-149755000D02*
X240200000Y-146856436D01*
%TO.N,/USB_D-*%
X238356500Y-150743500D02*
X238544052Y-150743500D01*
X239700000Y-151012376D02*
X239406188Y-151306188D01*
X239700000Y-149755000D02*
X239700000Y-151012376D01*
X237800000Y-151300000D02*
X238356500Y-150743500D01*
X239700000Y-149755000D02*
X239700000Y-146893988D01*
X238700000Y-150587552D02*
X238700000Y-149755000D01*
X240893988Y-145700000D02*
X243100000Y-145700000D01*
X246970000Y-142880000D02*
X246662500Y-143187500D01*
X237800000Y-151550000D02*
X237800000Y-151300000D01*
X239700000Y-146893988D02*
X240893988Y-145700000D01*
X245487552Y-141550000D02*
X246970000Y-141550000D01*
X238544052Y-150743500D02*
X238700000Y-150587552D01*
X243100000Y-145700000D02*
X244923000Y-143877000D01*
X244923000Y-143877000D02*
X244923000Y-142114552D01*
X246662500Y-143187500D02*
X246250000Y-143187500D01*
X244923000Y-142114552D02*
X245487552Y-141550000D01*
X246970000Y-141550000D02*
X246970000Y-142880000D01*
%TO.N,Net-(J9-PadB5)*%
X241250000Y-147710000D02*
X241200000Y-147760000D01*
X241200000Y-147760000D02*
X241200000Y-149755000D01*
%TO.N,/MCLK*%
X244186500Y-118991217D02*
X244186500Y-119565211D01*
X244186500Y-119565211D02*
X244471289Y-119850000D01*
X247530000Y-124464047D02*
X247548500Y-124445547D01*
X255261051Y-132125538D02*
X255261051Y-131483551D01*
X255261051Y-131483551D02*
X255252500Y-131475000D01*
X262450000Y-108432497D02*
X262466003Y-108448500D01*
X244080403Y-118991217D02*
X244186500Y-118991217D01*
D68*
X255252500Y-131935226D02*
X255252500Y-131475000D01*
D65*
X244471289Y-119850000D02*
X245225000Y-119850000D01*
X247548500Y-124445547D02*
X247548500Y-121120000D01*
X262450000Y-106637500D02*
X262450000Y-108432497D01*
D68*
%TO.N,/RCC_OSC_OUT*%
X261750000Y-117450000D02*
X262250000Y-117950000D01*
X261450000Y-114962500D02*
X261450000Y-116550000D01*
X262250000Y-117950000D02*
X263950000Y-117950000D01*
X261750000Y-116850000D02*
X261750000Y-117450000D01*
X261450000Y-116550000D02*
X261750000Y-116850000D01*
X263950000Y-117950000D02*
X264300000Y-117600000D01*
D65*
%TO.N,/NET_SDA*%
X246845000Y-100345000D02*
X246845000Y-98225000D01*
X239122500Y-101610000D02*
X245580000Y-101610000D01*
X245580000Y-101610000D02*
X246845000Y-100345000D01*
X234424500Y-106308000D02*
X239122500Y-101610000D01*
%TO.N,/NET_SCL*%
X239102474Y-102092474D02*
X235467474Y-105727474D01*
X242260000Y-101937000D02*
X239257948Y-101937000D01*
X235467474Y-105727474D02*
X234927130Y-106267818D01*
X234927130Y-106267818D02*
X234927130Y-106635000D01*
X248115000Y-98225000D02*
X248115000Y-99537448D01*
X245715448Y-101937000D02*
X242260000Y-101937000D01*
X248115000Y-99537448D02*
X245715448Y-101937000D01*
X239257948Y-101937000D02*
X239102474Y-102092474D01*
%TO.N,/MGMT_BOOT*%
X252200000Y-113250000D02*
X251730000Y-112780000D01*
X254410000Y-113100000D02*
X254260000Y-113250000D01*
X254260000Y-113250000D02*
X252200000Y-113250000D01*
X257537500Y-111550000D02*
X256240000Y-111550000D01*
X256240000Y-111550000D02*
X255910000Y-111880000D01*
X254906500Y-112603500D02*
X254410000Y-113100000D01*
X255186500Y-112603500D02*
X254906500Y-112603500D01*
X251460000Y-149910000D02*
X251400000Y-149850000D01*
X251460000Y-152560000D02*
X251460000Y-149910000D01*
X251730000Y-112780000D02*
X251730000Y-112653000D01*
X255910000Y-111880000D02*
X255186500Y-112603500D01*
%TO.N,/MGMT_NRST*%
X263350000Y-121180000D02*
X263300000Y-121230000D01*
X253400000Y-149850000D02*
X253400000Y-147720000D01*
X261950000Y-114962500D02*
X261950000Y-112960000D01*
X264280000Y-121180000D02*
X263350000Y-121180000D01*
X253400000Y-147720000D02*
X253410000Y-147710000D01*
X261950000Y-112960000D02*
X261980000Y-112930000D01*
%TO.N,/IN_3*%
X244569104Y-156816000D02*
X242180000Y-156816000D01*
X256570000Y-145987500D02*
X256515000Y-145932500D01*
X261505104Y-143000000D02*
X258517604Y-145987500D01*
X242180000Y-156816000D02*
X231806000Y-156816000D01*
X244216633Y-129670000D02*
X244762633Y-129124000D01*
X247755604Y-145932500D02*
X246519052Y-147169052D01*
X267600000Y-143000000D02*
X261505104Y-143000000D01*
X231330000Y-156340000D02*
X231250000Y-156260000D01*
X245206000Y-148753000D02*
X245206000Y-156179104D01*
X245206000Y-156179104D02*
X244569104Y-156816000D01*
X255150000Y-145932500D02*
X247755604Y-145932500D01*
X249384574Y-129124000D02*
X249520287Y-129259713D01*
X245206000Y-148482104D02*
X245206000Y-148753000D01*
X250834500Y-127850000D02*
X251070000Y-127850000D01*
X250774500Y-127790000D02*
X250834500Y-127850000D01*
X245240000Y-129124000D02*
X249384574Y-129124000D01*
X231806000Y-156816000D02*
X231330000Y-156340000D01*
X231250000Y-156260000D02*
X231250000Y-150270000D01*
X246519052Y-147169052D02*
X245206000Y-148482104D01*
X244150000Y-129670000D02*
X244216633Y-129670000D01*
X244762633Y-129124000D02*
X245240000Y-129124000D01*
X258517604Y-145987500D02*
X256570000Y-145987500D01*
X256515000Y-145932500D02*
X255150000Y-145932500D01*
%TO.N,Net-(C17-Pad2)*%
X252130000Y-127750000D02*
X252030000Y-127850000D01*
X253527500Y-127750000D02*
X252130000Y-127750000D01*
%TO.N,/NET_RST*%
X256700000Y-109550000D02*
X257537500Y-109550000D01*
X232070000Y-83000000D02*
X232075000Y-83005000D01*
X232070000Y-83000000D02*
X235140000Y-83000000D01*
X235140000Y-83000000D02*
X235180000Y-82960000D01*
X232075000Y-83005000D02*
X233650000Y-83005000D01*
X255195000Y-108045000D02*
X256700000Y-109550000D01*
%TO.N,/UI_RST*%
X245225000Y-118850000D02*
X246887126Y-118850000D01*
X246887126Y-118850000D02*
X248256500Y-120219374D01*
X248256500Y-121326500D02*
X248840000Y-121910000D01*
X248256500Y-120219374D02*
X248256500Y-121326500D01*
X249478331Y-121910000D02*
X248840000Y-121910000D01*
%TO.N,/MIC_P*%
X250350000Y-128900000D02*
X251070000Y-128900000D01*
X248026500Y-146586500D02*
X245860000Y-148753000D01*
X267600000Y-147000000D02*
X266680552Y-147000000D01*
X249667699Y-146641500D02*
X249612699Y-146586500D01*
X245860000Y-156450000D02*
X244840000Y-157470000D01*
X231535104Y-157470000D02*
X231343552Y-157278448D01*
X258788500Y-146641500D02*
X249667699Y-146641500D01*
X230596000Y-156530896D02*
X230596000Y-155100000D01*
X244156500Y-128470000D02*
X249920000Y-128470000D01*
X244840000Y-157470000D02*
X234130000Y-157470000D01*
X261776000Y-143654000D02*
X258788500Y-146641500D01*
X249612699Y-146586500D02*
X248026500Y-146586500D01*
X230596000Y-155100000D02*
X230596000Y-151310000D01*
X249920000Y-128470000D02*
X249955000Y-128505000D01*
X266680552Y-147000000D02*
X263334552Y-143654000D01*
X263334552Y-143654000D02*
X261776000Y-143654000D01*
X249955000Y-128505000D02*
X250350000Y-128900000D01*
X231343552Y-157278448D02*
X230596000Y-156530896D01*
X234130000Y-157470000D02*
X231535104Y-157470000D01*
X230596000Y-150906000D02*
X230160000Y-150470000D01*
X230596000Y-151310000D02*
X230596000Y-150906000D01*
X245860000Y-148753000D02*
X245860000Y-156450000D01*
%TO.N,/LEDA_R*%
X222400000Y-86210000D02*
X222400000Y-87150000D01*
D66*
%TO.N,Net-(D10-Pad1)*%
X213380000Y-113120000D02*
X213870000Y-113610000D01*
X219500000Y-113610000D02*
X219500000Y-116540000D01*
X213870000Y-113610000D02*
X219500000Y-113610000D01*
D65*
%TO.N,/LEDA_G*%
X263270609Y-110261821D02*
X264558788Y-111550000D01*
X223450000Y-86210000D02*
X223450000Y-87150000D01*
X264558788Y-111550000D02*
X265862500Y-111550000D01*
X263249397Y-110261821D02*
X263270609Y-110261821D01*
%TO.N,Net-(R32-Pad2)*%
X236685000Y-98225000D02*
X236685000Y-99605000D01*
X236685000Y-99605000D02*
X236650000Y-99640000D01*
%TO.N,Net-(R36-Pad1)*%
X225650000Y-115412500D02*
X226952500Y-114110000D01*
X226952500Y-114110000D02*
X227150000Y-114110000D01*
%TO.N,/BATTERY_MON*%
X227750000Y-111600000D02*
X228090000Y-111600000D01*
X228090000Y-111600000D02*
X229100000Y-112610000D01*
%TO.N,Net-(C18-Pad2)*%
X252400000Y-128900000D02*
X253050000Y-128250000D01*
X252030000Y-128900000D02*
X252400000Y-128900000D01*
X253050000Y-128250000D02*
X253527500Y-128250000D01*
%TO.N,/LEDA_B*%
X224500000Y-86210000D02*
X224500000Y-87150000D01*
X265146289Y-111050000D02*
X265862500Y-111050000D01*
X264842596Y-110315885D02*
X264861500Y-110334789D01*
X264861500Y-110765211D02*
X265146289Y-111050000D01*
X264861500Y-110334789D02*
X264861500Y-110765211D01*
X264268261Y-110315885D02*
X264842596Y-110315885D01*
%TO.N,/KB_COL3*%
X225317000Y-138230000D02*
X224920000Y-138230000D01*
X246345000Y-120845000D02*
X246340000Y-120850000D01*
X230420170Y-133115000D02*
X230531170Y-133004000D01*
X224963000Y-140510000D02*
X225390000Y-140510000D01*
X224920000Y-138230000D02*
X224920000Y-140467000D01*
X230531170Y-133004000D02*
X233684999Y-133004000D01*
X246340000Y-120850000D02*
X245225000Y-120850000D01*
X233684999Y-133004000D02*
X233912670Y-133231671D01*
X224920000Y-140467000D02*
X224963000Y-140510000D01*
X226147000Y-137400000D02*
X225317000Y-138230000D01*
%TO.N,/KB_COL4*%
X246670000Y-120350000D02*
X245225000Y-120350000D01*
%TO.N,/UI_TX3*%
X237339388Y-113641212D02*
X237339388Y-112464388D01*
X237339388Y-112464388D02*
X237300000Y-112425000D01*
X218020000Y-154030000D02*
X218020000Y-155110000D01*
X218020000Y-155110000D02*
X218010000Y-155120000D01*
%TO.N,/UI_RX3*%
X236800000Y-112425000D02*
X236800000Y-113620000D01*
X236800000Y-113620000D02*
X236790000Y-113630000D01*
X219020000Y-155070000D02*
X219020000Y-154030000D01*
%TO.N,/NET_TX0_MGMT*%
X253473500Y-108403500D02*
X255620000Y-110550000D01*
X257040000Y-79120000D02*
X251940000Y-84220000D01*
X263850000Y-79120000D02*
X257040000Y-79120000D01*
X266331312Y-98180351D02*
X266270552Y-98119591D01*
X255620000Y-110550000D02*
X257537500Y-110550000D01*
X253473500Y-107746500D02*
X253473500Y-108403500D01*
X249645000Y-84275000D02*
X249590000Y-84220000D01*
X251150000Y-84275000D02*
X249645000Y-84275000D01*
X251940000Y-84220000D02*
X249590000Y-84220000D01*
X266270552Y-98119591D02*
X266270552Y-96540411D01*
X267160000Y-83285763D02*
X267160000Y-82430000D01*
X267160000Y-82430000D02*
X263850000Y-79120000D01*
%TO.N,/NET_RX0_MGMT*%
X267330000Y-96590000D02*
X267270000Y-96530000D01*
X257705000Y-79447000D02*
X251762000Y-85390000D01*
X251762000Y-85390000D02*
X249570000Y-85390000D01*
X252266750Y-108660250D02*
X254656500Y-111050000D01*
X251150000Y-85545000D02*
X249725000Y-85545000D01*
X267330000Y-98140000D02*
X267330000Y-96590000D01*
X263714552Y-79447000D02*
X257705000Y-79447000D01*
X266722000Y-82847763D02*
X266722000Y-82454448D01*
X254656500Y-111050000D02*
X257537500Y-111050000D01*
X266722000Y-82454448D02*
X263714552Y-79447000D01*
X249725000Y-85545000D02*
X249570000Y-85390000D01*
X252266750Y-107786750D02*
X252266750Y-108660250D01*
%TO.N,Net-(J10-Pad1)*%
X211570000Y-129330000D02*
X214620000Y-129330000D01*
X214620000Y-129330000D02*
X214640000Y-129350000D01*
%TO.N,/KB_ROW5*%
X227799792Y-141310000D02*
X227270000Y-141310000D01*
X229144626Y-137108384D02*
X229198000Y-137161758D01*
X229198000Y-137161758D02*
X229198000Y-139911792D01*
X237800000Y-109310000D02*
X237800000Y-112425000D01*
X229198000Y-139911792D02*
X227799792Y-141310000D01*
X237060000Y-108570000D02*
X237800000Y-109310000D01*
%TO.N,/KB_ROW1*%
X224693208Y-142090000D02*
X225370000Y-142090000D01*
X230800000Y-114300000D02*
X231150000Y-113950000D01*
X225370000Y-142090000D02*
X225390000Y-142110000D01*
X233475000Y-113950000D02*
X233875000Y-114350000D01*
X223612000Y-141008792D02*
X224693208Y-142090000D01*
X231150000Y-113950000D02*
X233475000Y-113950000D01*
X223612000Y-139196414D02*
X223612000Y-141008792D01*
X223501000Y-139085414D02*
X223612000Y-139196414D01*
%TO.N,/KB_ROW2*%
X224838104Y-141310000D02*
X225390000Y-141310000D01*
X224256000Y-137543355D02*
X224256000Y-138605448D01*
X224266000Y-138615448D02*
X224266000Y-140737896D01*
X224028265Y-137315620D02*
X224256000Y-137543355D01*
X232400000Y-114850000D02*
X232200000Y-114650000D01*
X224266000Y-140737896D02*
X224838104Y-141310000D01*
X233875000Y-114850000D02*
X232400000Y-114850000D01*
X224256000Y-138605448D02*
X224266000Y-138615448D01*
%TO.N,/KB_ROW3*%
X231653451Y-115350000D02*
X233875000Y-115350000D01*
X228217000Y-139505448D02*
X227612448Y-140110000D01*
X228217000Y-138141000D02*
X228217000Y-139505448D01*
X231041676Y-115961775D02*
X231653451Y-115350000D01*
X227473000Y-137397000D02*
X228217000Y-138141000D01*
X227612448Y-140110000D02*
X227270000Y-140110000D01*
%TO.N,/MIC_N*%
X249677000Y-128797000D02*
X250750000Y-129870000D01*
X261640552Y-143327000D02*
X258653052Y-146314500D01*
X244156500Y-129110000D02*
X244469500Y-128797000D01*
X230923000Y-151770000D02*
X230923000Y-150561924D01*
X230923000Y-155050000D02*
X230923000Y-151770000D01*
X230923000Y-156395448D02*
X230923000Y-155050000D01*
X244469500Y-128797000D02*
X249677000Y-128797000D01*
X230923000Y-150561924D02*
X230705570Y-150344494D01*
X258653052Y-146314500D02*
X256380000Y-146314500D01*
X256380000Y-146314500D02*
X256325000Y-146259500D01*
X267600000Y-145000000D02*
X265143000Y-145000000D01*
X245533000Y-156314552D02*
X244704552Y-157143000D01*
X244704552Y-157143000D02*
X235010000Y-157143000D01*
X235010000Y-157143000D02*
X231670552Y-157143000D01*
X265143000Y-145000000D02*
X263470000Y-143327000D01*
X231670552Y-157143000D02*
X230923000Y-156395448D01*
X256325000Y-146259500D02*
X247891052Y-146259500D01*
X247891052Y-146259500D02*
X245533000Y-148617552D01*
X245533000Y-148617552D02*
X245533000Y-156314552D01*
X263470000Y-143327000D02*
X261640552Y-143327000D01*
%TO.N,Net-(J10-Pad2)*%
X211570000Y-131330000D02*
X214610000Y-131330000D01*
X214610000Y-131330000D02*
X214640000Y-131300000D01*
%TO.N,/KB_ROW4*%
X227300000Y-140880000D02*
X227270000Y-140910000D01*
X232500000Y-115850000D02*
X233875000Y-115850000D01*
X228871000Y-139776344D02*
X227767344Y-140880000D01*
X228525200Y-137108384D02*
X228871000Y-137454184D01*
X228871000Y-137454184D02*
X228871000Y-139776344D01*
X231500000Y-116850000D02*
X232500000Y-115850000D01*
X227767344Y-140880000D02*
X227300000Y-140880000D01*
%TO.N,/KB_ROW6*%
X238800000Y-124528711D02*
X238800000Y-123775000D01*
X229684820Y-137209102D02*
X229525000Y-137368922D01*
X229525000Y-140047240D02*
X227862240Y-141710000D01*
X229525000Y-137368922D02*
X229525000Y-140047240D01*
X234993910Y-126604000D02*
X236724711Y-126604000D01*
X227862240Y-141710000D02*
X227270000Y-141710000D01*
X236724711Y-126604000D02*
X238800000Y-124528711D01*
X234848560Y-126749350D02*
X234993910Y-126604000D01*
%TO.N,/KB_ROW7*%
X226380000Y-143500000D02*
X226710000Y-143500000D01*
X239300000Y-123775000D02*
X239300000Y-124528711D01*
X226710000Y-143500000D02*
X226940000Y-143730000D01*
X235368928Y-126931000D02*
X235032928Y-127267000D01*
X236897711Y-126931000D02*
X235700000Y-126931000D01*
X227250000Y-143730000D02*
X227270000Y-143710000D01*
X239300000Y-124528711D02*
X236897711Y-126931000D01*
X226940000Y-143730000D02*
X227250000Y-143730000D01*
X235700000Y-126931000D02*
X235368928Y-126931000D01*
%TO.N,/LEDB_R*%
X264658716Y-113050000D02*
X265862500Y-113050000D01*
X215800000Y-86210000D02*
X215800000Y-86699632D01*
X263439628Y-111830912D02*
X264658716Y-113050000D01*
X215800000Y-86699632D02*
X216203414Y-87103046D01*
%TO.N,/LEDB_G*%
X216825000Y-86210000D02*
X216825000Y-86793999D01*
X216825000Y-86793999D02*
X217200692Y-87169691D01*
%TO.N,Net-(C27-Pad2)*%
X252184000Y-129950000D02*
X252030000Y-129950000D01*
X253527500Y-128750000D02*
X253154248Y-128750000D01*
X252884000Y-129020248D02*
X252884000Y-129250000D01*
X253154248Y-128750000D02*
X252884000Y-129020248D01*
X252884000Y-129250000D02*
X252184000Y-129950000D01*
%TO.N,/LEDB_B*%
X256830000Y-105550000D02*
X257760000Y-104620000D01*
X217850000Y-86210000D02*
X217850000Y-86800000D01*
X257760000Y-104620000D02*
X262630000Y-104620000D01*
X244605068Y-106554932D02*
X248717016Y-106554932D01*
X248717016Y-106554932D02*
X249721948Y-105550000D01*
X217850000Y-86800000D02*
X218200000Y-87150000D01*
X262630000Y-104620000D02*
X262950000Y-104940000D01*
X262950000Y-104940000D02*
X262950000Y-106637500D01*
X249721948Y-105550000D02*
X256830000Y-105550000D01*
%TO.N,Net-(J10-Pad3)*%
X211570000Y-133330000D02*
X211600000Y-133300000D01*
X211600000Y-133300000D02*
X214640000Y-133300000D01*
%TO.N,Net-(J10-Pad4)*%
X214670000Y-135330000D02*
X214740000Y-135400000D01*
X211570000Y-135330000D02*
X214670000Y-135330000D01*
%TO.N,/SPK_LN*%
X258923801Y-127750000D02*
X259443801Y-127230000D01*
X261850000Y-127230000D02*
X262400000Y-127780000D01*
X258477500Y-127750000D02*
X258923801Y-127750000D01*
X267530000Y-129870000D02*
X267600000Y-129800000D01*
X259443801Y-127230000D02*
X259920000Y-127230000D01*
X265924500Y-129870000D02*
X267530000Y-129870000D01*
X259920000Y-127230000D02*
X261850000Y-127230000D01*
%TO.N,/SPK_LP*%
X259483000Y-126903000D02*
X259105000Y-126525000D01*
X262243000Y-126903000D02*
X259483000Y-126903000D01*
X262410000Y-127070000D02*
X262243000Y-126903000D01*
X259105000Y-126525000D02*
X257752500Y-126525000D01*
X267600000Y-127800000D02*
X265974500Y-127800000D01*
X265974500Y-127800000D02*
X265924500Y-127850000D01*
%TO.N,/HP_R*%
X255600000Y-119460000D02*
X257695834Y-121555834D01*
X265974500Y-137000000D02*
X265924500Y-137050000D01*
X255600000Y-118905000D02*
X255600000Y-119460000D01*
X257695834Y-121555834D02*
X257695834Y-121821500D01*
%TO.N,/HP_L*%
X253170000Y-118905000D02*
X254008500Y-119743500D01*
X265924500Y-139050000D02*
X267550000Y-139050000D01*
X267550000Y-139050000D02*
X267600000Y-139000000D01*
X257183776Y-121506224D02*
X257183776Y-121856224D01*
X255421052Y-119743500D02*
X257183776Y-121506224D01*
X254008500Y-119743500D02*
X255421052Y-119743500D01*
X257183776Y-121856224D02*
X257110000Y-121930000D01*
%TO.N,Net-(J10-Pad5)*%
X214570000Y-137330000D02*
X214640000Y-137400000D01*
X211570000Y-137330000D02*
X214570000Y-137330000D01*
%TO.N,/KB_COL5*%
X239800000Y-124528711D02*
X237070711Y-127258000D01*
X228544000Y-137751449D02*
X228544000Y-139640896D01*
X227674896Y-140510000D02*
X227270000Y-140510000D01*
X237070711Y-127258000D02*
X236762263Y-127258000D01*
X231842500Y-128858000D02*
X234379552Y-128858000D01*
X231731500Y-128747000D02*
X231842500Y-128858000D01*
X227981659Y-137189108D02*
X228544000Y-137751449D01*
X228544000Y-139640896D02*
X227674896Y-140510000D01*
X239800000Y-123775000D02*
X239800000Y-124528711D01*
X235979552Y-127258000D02*
X236750000Y-127258000D01*
X234379552Y-128858000D02*
X235979552Y-127258000D01*
%TO.N,/KB_COL2*%
X224593000Y-140602448D02*
X224900552Y-140910000D01*
X230200000Y-131687000D02*
X230536000Y-132023000D01*
X224593000Y-138480000D02*
X224593000Y-140602448D01*
X230536000Y-132023000D02*
X233064344Y-132023000D01*
X224900552Y-140910000D02*
X225390000Y-140910000D01*
X241800000Y-125270000D02*
X241800000Y-123775000D01*
X236521344Y-128566000D02*
X238504000Y-128566000D01*
X233064344Y-132023000D02*
X236521344Y-128566000D01*
X238504000Y-128566000D02*
X241800000Y-125270000D01*
X225027000Y-137354767D02*
X224583000Y-137798767D01*
X224583000Y-138470000D02*
X224593000Y-138480000D01*
X224583000Y-137798767D02*
X224583000Y-138470000D01*
%TO.N,Net-(J10-Pad6)*%
X214620000Y-139330000D02*
X214640000Y-139350000D01*
X211570000Y-139330000D02*
X214620000Y-139330000D01*
%TO.N,Net-(J10-Pad7)*%
X211570000Y-141330000D02*
X214560000Y-141330000D01*
X214560000Y-141330000D02*
X214640000Y-141250000D01*
%TO.N,/BTN_RST*%
X259450000Y-114238331D02*
X259763500Y-113924831D01*
X214550000Y-76840000D02*
X214550000Y-75630000D01*
X207745000Y-77415000D02*
X206230000Y-77415000D01*
X259763500Y-113924831D02*
X259763500Y-113355591D01*
X259450000Y-114962500D02*
X259450000Y-114238331D01*
X259763500Y-113355591D02*
X259059238Y-112651329D01*
%TO.N,/BTN_UI*%
X253100000Y-78630000D02*
X253100000Y-77215000D01*
X251166500Y-107948669D02*
X251555169Y-107560000D01*
X249130000Y-84870000D02*
X249130000Y-84059867D01*
X249880000Y-79630000D02*
X250530000Y-78980000D01*
X252750000Y-78980000D02*
X253100000Y-78630000D01*
X251166500Y-109976500D02*
X251166500Y-107948669D01*
X259990000Y-111200000D02*
X260090500Y-111300500D01*
X259950000Y-114200779D02*
X259950000Y-114962500D01*
X260090500Y-114060279D02*
X259950000Y-114200779D01*
X260090500Y-111300500D02*
X260090500Y-114060279D01*
X249130000Y-84059867D02*
X249880000Y-83309867D01*
X252390000Y-111200000D02*
X251166500Y-109976500D01*
X251555876Y-107560000D02*
X252157938Y-106957938D01*
X251555169Y-107560000D02*
X251555876Y-107560000D01*
X250530000Y-78980000D02*
X252750000Y-78980000D01*
X249880000Y-83309867D02*
X249880000Y-79630000D01*
%TO.N,/BTN_NET*%
X260450000Y-112480000D02*
X260450000Y-114962500D01*
X251247563Y-111200000D02*
X251000000Y-111200000D01*
X249180000Y-77960000D02*
X248545000Y-77960000D01*
X249553000Y-83174419D02*
X249553000Y-78333000D01*
X261040000Y-111890000D02*
X260450000Y-112480000D01*
X248580641Y-84146778D02*
X249553000Y-83174419D01*
X249553000Y-78333000D02*
X249180000Y-77960000D01*
X248545000Y-77960000D02*
X247850000Y-77265000D01*
X251000000Y-111200000D02*
X250795000Y-110995000D01*
X248580641Y-84857458D02*
X248580641Y-84146778D01*
X250795000Y-110995000D02*
X250795000Y-107115000D01*
%TO.N,/KB_COL1*%
X236656792Y-128893000D02*
X238639448Y-128893000D01*
X223593000Y-138281470D02*
X223593000Y-138404896D01*
X229266000Y-132350000D02*
X233199792Y-132350000D01*
X242127000Y-125262365D02*
X242300000Y-125089365D01*
X242127000Y-125405448D02*
X242127000Y-125262365D01*
X224775656Y-141710000D02*
X225390000Y-141710000D01*
X233199792Y-132350000D02*
X236656792Y-128893000D01*
X242300000Y-125089365D02*
X242300000Y-123775000D01*
X238639448Y-128893000D02*
X242127000Y-125405448D01*
X223939000Y-140873344D02*
X224775656Y-141710000D01*
X223593000Y-138404896D02*
X223939000Y-138750896D01*
X223939000Y-138750896D02*
X223939000Y-140873344D01*
X229155000Y-132239000D02*
X229266000Y-132350000D01*
%TO.N,Net-(R37-Pad2)*%
X225650000Y-117687500D02*
X226727500Y-117687500D01*
X226727500Y-117687500D02*
X227100000Y-118060000D01*
D67*
%TO.N,Net-(C21-Pad2)*%
X235850000Y-111050000D02*
X236300000Y-111500000D01*
X236300000Y-111500000D02*
X236300000Y-112425000D01*
X235850000Y-110780000D02*
X235850000Y-111050000D01*
%TO.N,Net-(C22-Pad2)*%
X232280000Y-121700000D02*
X232550000Y-121700000D01*
X232900000Y-121350000D02*
X233875000Y-121350000D01*
X232550000Y-121700000D02*
X232900000Y-121350000D01*
D65*
%TO.N,/UI_STAT*%
X233875000Y-118350000D02*
X234930000Y-118350000D01*
X261916500Y-108448500D02*
X261916500Y-106671000D01*
X263450000Y-113242448D02*
X261151500Y-110943948D01*
X263450000Y-116178954D02*
X263465523Y-116194477D01*
X261916500Y-106671000D02*
X261950000Y-106637500D01*
X261151500Y-110130000D02*
X261151500Y-108559500D01*
X263450000Y-114962500D02*
X263450000Y-116178954D01*
X261151500Y-110943948D02*
X261151500Y-110130000D01*
X261151500Y-108559500D02*
X261040500Y-108448500D01*
X263450000Y-114962500D02*
X263450000Y-113242448D01*
D66*
%TO.N,Net-(J15-Pad2)*%
X259700000Y-76950000D02*
X259700000Y-77350000D01*
X259700000Y-77350000D02*
X258650000Y-78400000D01*
D65*
%TO.N,/UI_BOOT*%
X241300000Y-123021289D02*
X241300000Y-123775000D01*
X243713500Y-122934789D02*
X243713500Y-123243500D01*
X243488711Y-122710000D02*
X243713500Y-122934789D01*
X243713500Y-123243500D02*
X245390000Y-124920000D01*
X240540000Y-122641000D02*
X240609000Y-122710000D01*
X240609000Y-122710000D02*
X243488711Y-122710000D01*
X245390000Y-124920000D02*
X245520000Y-124920000D01*
X240540000Y-122641000D02*
X240919711Y-122641000D01*
X240919711Y-122641000D02*
X241300000Y-123021289D01*
%TO.N,/NET_LED_B*%
X232315000Y-88085000D02*
X233650000Y-88085000D01*
X227800000Y-86210000D02*
X227800000Y-87100000D01*
X232200000Y-88200000D02*
X232315000Y-88085000D01*
%TO.N,/NET_LED_G*%
X226750000Y-86988331D02*
X227525169Y-87763500D01*
X232100000Y-86900000D02*
X232185000Y-86815000D01*
X226750000Y-86210000D02*
X226750000Y-86988331D01*
X232185000Y-86815000D02*
X233650000Y-86815000D01*
X228136003Y-87763500D02*
X228799503Y-87100000D01*
X227525169Y-87763500D02*
X228136003Y-87763500D01*
%TO.N,/NET_LED_R*%
X228800000Y-88000000D02*
X228837834Y-88000000D01*
X225700000Y-86210000D02*
X225700000Y-86400779D01*
X228700000Y-88100000D02*
X228800000Y-88000000D01*
X229650000Y-87187834D02*
X229650000Y-86437000D01*
X227399221Y-88100000D02*
X228700000Y-88100000D01*
X225700000Y-86400779D02*
X227399221Y-88100000D01*
X228837834Y-88000000D02*
X229650000Y-87187834D01*
%TO.N,Net-(C28-Pad1)*%
X252110000Y-125750000D02*
X252110000Y-126720000D01*
X252110000Y-126720000D02*
X252030000Y-126800000D01*
X253527500Y-127250000D02*
X252480000Y-127250000D01*
X252480000Y-127250000D02*
X252030000Y-126800000D01*
%TO.N,Net-(C29-Pad1)*%
X255752500Y-126525000D02*
X255750000Y-126522500D01*
X255750000Y-122005000D02*
X255600000Y-121855000D01*
X255750000Y-126522500D02*
X255750000Y-122005000D01*
%TO.N,Net-(R41-Pad1)*%
X233875000Y-120350000D02*
X235250000Y-120350000D01*
X226790000Y-145580000D02*
X227690000Y-145580000D01*
X227690000Y-145580000D02*
X227710000Y-145560000D01*
X235250000Y-120350000D02*
X235280000Y-120380000D01*
%TO.N,/UI_DBG1*%
X239800000Y-111100000D02*
X239800000Y-112425000D01*
X215660000Y-129350000D02*
X216320000Y-129350000D01*
X216320000Y-129350000D02*
X216330000Y-129360000D01*
%TO.N,/UI_LED_B*%
X241285500Y-118880000D02*
X241350500Y-118815000D01*
X238300000Y-123775000D02*
X238300000Y-122790000D01*
X221150000Y-87101491D02*
X221198509Y-87150000D01*
X239055000Y-118880000D02*
X241285500Y-118880000D01*
X221150000Y-86210000D02*
X221150000Y-87101491D01*
%TO.N,/NET_STAT*%
X251012609Y-102015500D02*
X251582133Y-102015500D01*
X256113996Y-104563995D02*
X256711991Y-103966000D01*
X261450000Y-106637500D02*
X261478500Y-106666000D01*
X261478500Y-110808500D02*
X264040000Y-113370000D01*
X256108991Y-104569000D02*
X256113996Y-104563995D01*
X251839000Y-102380000D02*
X251839000Y-104559000D01*
X261478500Y-106666000D02*
X261478500Y-110808500D01*
X262900896Y-103966000D02*
X263637448Y-104702552D01*
X263637448Y-104702552D02*
X263888000Y-104953104D01*
X251839000Y-102272367D02*
X251839000Y-102380000D01*
X251839000Y-104559000D02*
X251849000Y-104569000D01*
X261469096Y-105418881D02*
X261469096Y-106618404D01*
X261469096Y-106618404D02*
X261450000Y-106637500D01*
X251582133Y-102015500D02*
X251839000Y-102272367D01*
X245575000Y-99385000D02*
X245590000Y-99400000D01*
X258440000Y-103966000D02*
X262900896Y-103966000D01*
X245575000Y-98225000D02*
X245575000Y-99385000D01*
X263950000Y-114210000D02*
X263950000Y-114962500D01*
X250901109Y-102127000D02*
X251012609Y-102015500D01*
X263888000Y-104953104D02*
X263888000Y-105190962D01*
X256711991Y-103966000D02*
X258440000Y-103966000D01*
X254060000Y-104569000D02*
X256108991Y-104569000D01*
X264040000Y-113370000D02*
X264040000Y-114120000D01*
X264040000Y-114120000D02*
X263950000Y-114210000D01*
X251849000Y-104569000D02*
X254060000Y-104569000D01*
%TO.N,/UI_LED_G*%
X243700000Y-118400000D02*
X245175000Y-118400000D01*
X220100000Y-86210000D02*
X220100000Y-87050994D01*
X220100000Y-87050994D02*
X220199006Y-87150000D01*
X245175000Y-118400000D02*
X245225000Y-118350000D01*
X243700000Y-115450000D02*
X243700000Y-118400000D01*
%TO.N,/NET_BOOT*%
X254473000Y-107973000D02*
X254473000Y-108651331D01*
X254473000Y-108651331D02*
X255871669Y-110050000D01*
X255871669Y-110050000D02*
X257537500Y-110050000D01*
%TO.N,/UI_LED_R*%
X219050000Y-86210000D02*
X219050000Y-87000497D01*
X219050000Y-87000497D02*
X219199503Y-87150000D01*
X244612104Y-111350000D02*
X244676127Y-111285977D01*
X244676127Y-111285977D02*
X246314023Y-111285977D01*
%TO.N,Net-(C31-Pad2)*%
X256864000Y-125094000D02*
X256864000Y-126413500D01*
X256864000Y-126413500D02*
X256752500Y-126525000D01*
%TO.N,/UI_DBG2*%
X239300000Y-111149503D02*
X239250497Y-111100000D01*
X216310000Y-131300000D02*
X216320000Y-131290000D01*
X239300000Y-112425000D02*
X239300000Y-111149503D01*
X215660000Y-131300000D02*
X216310000Y-131300000D01*
%TO.N,/UI_DBG3*%
X216330000Y-133300000D02*
X216340000Y-133310000D01*
X215660000Y-133300000D02*
X216330000Y-133300000D01*
X217206500Y-116460000D02*
X220536500Y-119790000D01*
X233121289Y-116350000D02*
X233875000Y-116350000D01*
X229681289Y-119790000D02*
X233121289Y-116350000D01*
X220536500Y-119790000D02*
X229681289Y-119790000D01*
%TO.N,/UI_DBG4*%
X217533500Y-117620000D02*
X217904052Y-117620000D01*
X229816737Y-120117000D02*
X233083737Y-116850000D01*
X215760000Y-135400000D02*
X216440000Y-135400000D01*
X220401052Y-120117000D02*
X229816737Y-120117000D01*
X216440000Y-135400000D02*
X216450000Y-135410000D01*
X217904052Y-117620000D02*
X220401052Y-120117000D01*
X233083737Y-116850000D02*
X233875000Y-116850000D01*
%TO.N,/MGMT_DBG7*%
X215660000Y-141250000D02*
X216350000Y-141250000D01*
X251390000Y-102464500D02*
X251400500Y-102454000D01*
X256402124Y-104896000D02*
X251656000Y-104896000D01*
X251656000Y-104896000D02*
X251390000Y-104630000D01*
X232371783Y-98700971D02*
X232371783Y-98543990D01*
X216350000Y-141250000D02*
X216360000Y-141240000D01*
X251390000Y-104630000D02*
X251390000Y-102464500D01*
X260920000Y-105440000D02*
X260920000Y-106607500D01*
X232073935Y-108562000D02*
X232073935Y-98998819D01*
X232073935Y-98998819D02*
X232371783Y-98700971D01*
X260920000Y-106607500D02*
X260950000Y-106637500D01*
X256514062Y-104784062D02*
X256402124Y-104896000D01*
%TO.N,/NET_DBG5*%
X232727935Y-99742066D02*
X233148897Y-99321104D01*
X233030000Y-107337552D02*
X232727935Y-107035487D01*
X215660000Y-137400000D02*
X216360000Y-137400000D01*
X251105000Y-95750000D02*
X251150000Y-95705000D01*
X250040000Y-95750000D02*
X251105000Y-95750000D01*
X233030000Y-107908000D02*
X233030000Y-107337552D01*
X232727935Y-107035487D02*
X232727935Y-99742066D01*
%TO.N,/NET_DBG6*%
X249915000Y-94435000D02*
X251150000Y-94435000D01*
X249850000Y-94500000D02*
X249915000Y-94435000D01*
X232400935Y-99291952D02*
X232760340Y-98932547D01*
X215660000Y-139350000D02*
X216320000Y-139350000D01*
X232400935Y-107170935D02*
X232400935Y-99291952D01*
X232528897Y-108235000D02*
X232580000Y-108183897D01*
X232580000Y-107350000D02*
X232400935Y-107170935D01*
X232580000Y-108183897D02*
X232580000Y-107350000D01*
%TO.N,/UI_TX2_MGMT*%
X265862500Y-114962500D02*
X264450000Y-114962500D01*
X246262448Y-108720000D02*
X246880000Y-108720000D01*
X243713500Y-111268948D02*
X244641224Y-110341224D01*
X266430000Y-115530000D02*
X265862500Y-114962500D01*
X243713500Y-111990000D02*
X243713500Y-111268948D01*
X243713500Y-112838500D02*
X243713500Y-111990000D01*
X244641224Y-110341224D02*
X246262448Y-108720000D01*
X245225000Y-114350000D02*
X243713500Y-112838500D01*
%TO.N,/MGMT_SWDIO*%
X269220000Y-103090000D02*
X269220000Y-102770000D01*
X269220000Y-102770000D02*
X267720000Y-101270000D01*
X259970000Y-105462000D02*
X259970000Y-106617500D01*
X264260000Y-101270000D02*
X264170000Y-101360000D01*
X259970000Y-106617500D02*
X259950000Y-106637500D01*
X267720000Y-101270000D02*
X264260000Y-101270000D01*
X255400000Y-149850000D02*
X255400000Y-147080000D01*
%TO.N,/MGMT_SWCLK*%
X264147794Y-100360745D02*
X267429093Y-100360745D01*
X256430000Y-148880000D02*
X257400000Y-149850000D01*
X267429093Y-100360745D02*
X270217737Y-103149389D01*
X258940644Y-105430644D02*
X257537500Y-106833789D01*
X256430000Y-147080000D02*
X256430000Y-148880000D01*
X257537500Y-106833789D02*
X257537500Y-108050000D01*
%TO.N,/UI_RX2_MGMT*%
X243300000Y-111220000D02*
X243300000Y-112425000D01*
X265862500Y-113922500D02*
X266420000Y-114480000D01*
X265862500Y-113550000D02*
X265862500Y-113922500D01*
X246349503Y-108170497D02*
X243300000Y-111220000D01*
X246880000Y-108170497D02*
X246349503Y-108170497D01*
%TO.N,/I2S_DACLRC*%
X256252500Y-131475000D02*
X256252500Y-132110449D01*
X256252500Y-132110449D02*
X256355439Y-132213388D01*
%TO.N,/UI_TX1_NET*%
X231635435Y-108241500D02*
X231635435Y-108730000D01*
X231746935Y-108130000D02*
X231635435Y-108241500D01*
X233193000Y-93165000D02*
X231890000Y-94468000D01*
X234999000Y-112969000D02*
X232199000Y-112969000D01*
X235442787Y-113322787D02*
X235352787Y-113322787D01*
X231890000Y-98720306D02*
X231746935Y-98863371D01*
X235880000Y-118020133D02*
X235880000Y-116250000D01*
X235890000Y-113770000D02*
X235442787Y-113322787D01*
X232199000Y-112969000D02*
X231635435Y-112405435D01*
X235050133Y-118850000D02*
X235880000Y-118020133D01*
X235880000Y-115120000D02*
X235880000Y-116310000D01*
X235352787Y-113322787D02*
X234999000Y-112969000D01*
X231635435Y-112405435D02*
X231635435Y-108690000D01*
X233650000Y-93165000D02*
X233193000Y-93165000D01*
X233875000Y-118850000D02*
X235050133Y-118850000D01*
X231746935Y-98863371D02*
X231746935Y-108130000D01*
X231890000Y-94468000D02*
X231890000Y-98720306D01*
%TO.N,/UI_RX1_NET*%
X232773000Y-91895000D02*
X231563000Y-93105000D01*
X235083735Y-113761287D02*
X235240713Y-113761287D01*
X233650000Y-91895000D02*
X232773000Y-91895000D01*
X234618448Y-113296000D02*
X235083735Y-113761287D01*
X232063552Y-113296000D02*
X234618448Y-113296000D01*
X231419935Y-98703065D02*
X231419935Y-107994552D01*
X236318500Y-118044081D02*
X235012581Y-119350000D01*
X235012581Y-119350000D02*
X233875000Y-119350000D01*
X235270000Y-114668000D02*
X236048133Y-114668000D01*
X236318500Y-114938367D02*
X236318500Y-118044081D01*
X231563000Y-98560000D02*
X231419935Y-98703065D01*
X231419935Y-107994552D02*
X231308435Y-108106052D01*
X236048133Y-114668000D02*
X236318500Y-114938367D01*
X231308435Y-112540883D02*
X232063552Y-113296000D01*
X231563000Y-93105000D02*
X231563000Y-98560000D01*
X231308435Y-108106052D02*
X231308435Y-112540883D01*
%TO.N,/I2S_BCLK*%
X236800000Y-122217971D02*
X236800000Y-123775000D01*
X240586510Y-120742500D02*
X238275471Y-120742500D01*
X255752500Y-132087286D02*
X255810209Y-132144995D01*
X242644500Y-121111000D02*
X240955010Y-121111000D01*
X255752500Y-131475000D02*
X255752500Y-132087286D01*
X240955010Y-121111000D02*
X240586510Y-120742500D01*
X238275471Y-120742500D02*
X236800000Y-122217971D01*
X242824500Y-121291000D02*
X242644500Y-121111000D01*
%TO.N,/I2S_ADCDAT*%
X240930062Y-121548500D02*
X240451062Y-121069500D01*
X237300000Y-122180419D02*
X237300000Y-123775000D01*
X241214555Y-121548500D02*
X240930062Y-121548500D01*
X240451062Y-121069500D02*
X238410919Y-121069500D01*
X257752500Y-131475000D02*
X257752500Y-132127500D01*
X241395055Y-121729000D02*
X241214555Y-121548500D01*
X243751000Y-121729000D02*
X241395055Y-121729000D01*
X244075500Y-121404500D02*
X243751000Y-121729000D01*
X244075500Y-120972000D02*
X244075500Y-121404500D01*
X257752500Y-132127500D02*
X257690000Y-132190000D01*
X238410919Y-121069500D02*
X237300000Y-122180419D01*
%TO.N,/I2S_DACDAT*%
X240315614Y-121396500D02*
X238546367Y-121396500D01*
X243759607Y-122056000D02*
X241259607Y-122056000D01*
X237800000Y-122142867D02*
X237800000Y-123775000D01*
X241079107Y-121875500D02*
X240794614Y-121875500D01*
X241259607Y-122056000D02*
X241079107Y-121875500D01*
X256752500Y-132023732D02*
X256903586Y-132174818D01*
X245561808Y-123118192D02*
X244821799Y-123118192D01*
X244821799Y-123118192D02*
X243759607Y-122056000D01*
X238546367Y-121396500D02*
X237800000Y-122142867D01*
X256752500Y-131475000D02*
X256752500Y-132023732D01*
X240794614Y-121875500D02*
X240315614Y-121396500D01*
%TO.N,/USB_TX1_MGMT*%
X260770000Y-133997000D02*
X260431000Y-134336000D01*
X260431000Y-134336000D02*
X252639000Y-134336000D01*
X241925000Y-137365000D02*
X241980000Y-137310000D01*
X241925000Y-139045000D02*
X241925000Y-137365000D01*
X262535448Y-133997000D02*
X260770000Y-133997000D01*
X263266000Y-133266448D02*
X262535448Y-133997000D01*
X266578711Y-109550000D02*
X266983000Y-109954289D01*
X266983000Y-109954289D02*
X266996737Y-109954289D01*
X267457000Y-110414552D02*
X267457000Y-121935448D01*
X267457000Y-121935448D02*
X263266000Y-126126448D01*
X263266000Y-126126448D02*
X263266000Y-133266448D01*
X265862500Y-109550000D02*
X266578711Y-109550000D01*
X266996737Y-109954289D02*
X267457000Y-110414552D01*
%TO.N,/USB_RX1_MGMT*%
X243260000Y-138980000D02*
X243195000Y-139045000D01*
X243260000Y-137440000D02*
X243260000Y-138980000D01*
%TO.N,Net-(D3-Pad1)*%
X225641552Y-75196000D02*
X227825000Y-75196000D01*
X215800000Y-85190000D02*
X215800000Y-85037552D01*
X227825000Y-75196000D02*
X227825000Y-74370000D01*
X215800000Y-85037552D02*
X225641552Y-75196000D01*
%TO.N,Net-(D3-Pad3)*%
X229250000Y-73595000D02*
X228625000Y-72970000D01*
X229250000Y-75850000D02*
X229250000Y-73595000D01*
X225912448Y-75850000D02*
X229250000Y-75850000D01*
X217850000Y-83912448D02*
X225912448Y-75850000D01*
X217850000Y-85190000D02*
X217850000Y-83912448D01*
%TO.N,Net-(D3-Pad4)*%
X228625000Y-74370000D02*
X228625000Y-75523000D01*
X228625000Y-75523000D02*
X225777000Y-75523000D01*
X216825000Y-84475000D02*
X216825000Y-85190000D01*
X225777000Y-75523000D02*
X216825000Y-84475000D01*
%TO.N,Net-(D4-Pad1)*%
X232629104Y-78146000D02*
X242825000Y-78146000D01*
X225700000Y-85075104D02*
X232629104Y-78146000D01*
X242825000Y-78146000D02*
X242825000Y-74370000D01*
X225700000Y-85190000D02*
X225700000Y-85075104D01*
%TO.N,Net-(D4-Pad3)*%
X227800000Y-83900000D02*
X232900000Y-78800000D01*
X243670000Y-72970000D02*
X243625000Y-72970000D01*
X232900000Y-78800000D02*
X244250000Y-78800000D01*
X244250000Y-78800000D02*
X244250000Y-73550000D01*
X227800000Y-85190000D02*
X227800000Y-83900000D01*
X244250000Y-73550000D02*
X243670000Y-72970000D01*
%TO.N,Net-(D4-Pad4)*%
X243650000Y-78473000D02*
X232764552Y-78473000D01*
X243625000Y-74370000D02*
X243650000Y-74395000D01*
X243650000Y-74395000D02*
X243650000Y-78473000D01*
X226750000Y-85190000D02*
X226750000Y-84487552D01*
X226750000Y-84487552D02*
X230700000Y-80537552D01*
X232764552Y-78473000D02*
X230668776Y-80568776D01*
%TO.N,Net-(D5-Pad1)*%
X232825000Y-76184000D02*
X228056000Y-76184000D01*
X228056000Y-76184000D02*
X219050000Y-85190000D01*
X232825000Y-74370000D02*
X232825000Y-76184000D01*
%TO.N,Net-(D18-Pad1)*%
X227900000Y-79675104D02*
X230410104Y-77165000D01*
X227900000Y-79690000D02*
X227900000Y-79675104D01*
X222400000Y-85190000D02*
X227900000Y-79690000D01*
X230410104Y-77165000D02*
X237825000Y-77165000D01*
X237825000Y-77165000D02*
X237825000Y-74370000D01*
%TO.N,Net-(D18-Pad3)*%
X224500000Y-85190000D02*
X224500000Y-84014896D01*
X239250000Y-73595000D02*
X238625000Y-72970000D01*
X224500000Y-84014896D02*
X229300000Y-79214896D01*
X230681000Y-77819000D02*
X239250000Y-77819000D01*
X239250000Y-77819000D02*
X239250000Y-73595000D01*
X229300000Y-79214896D02*
X229300000Y-79200000D01*
X229300000Y-79200000D02*
X230681000Y-77819000D01*
%TO.N,Net-(D18-Pad4)*%
X228700000Y-79352448D02*
X223450000Y-84602448D01*
X223450000Y-84602448D02*
X223450000Y-85190000D01*
X238650000Y-77492000D02*
X230545552Y-77492000D01*
X238650000Y-74395000D02*
X238650000Y-77492000D01*
X238625000Y-74370000D02*
X238650000Y-74395000D01*
X230545552Y-77492000D02*
X228700000Y-79337552D01*
X228700000Y-79337552D02*
X228700000Y-79352448D01*
%TO.N,Net-(D5-Pad3)*%
X233625000Y-72975000D02*
X234250000Y-73600000D01*
X221150000Y-84014896D02*
X221150000Y-85190000D01*
X234250000Y-73600000D02*
X234250000Y-76838000D01*
X233625000Y-72970000D02*
X233625000Y-72975000D01*
X234250000Y-76838000D02*
X228326896Y-76838000D01*
X228326896Y-76838000D02*
X221150000Y-84014896D01*
%TO.N,Net-(D5-Pad4)*%
X220100000Y-85190000D02*
X220100000Y-84602448D01*
X220100000Y-84602448D02*
X228191448Y-76511000D01*
X228191448Y-76511000D02*
X233650000Y-76511000D01*
X233650000Y-76511000D02*
X233650000Y-74395000D01*
X233650000Y-74395000D02*
X233625000Y-74370000D01*
%TO.N,/KB_LED*%
X227507000Y-144910000D02*
X226440000Y-144910000D01*
X227270000Y-142110000D02*
X227270000Y-142510000D01*
X226440000Y-144910000D02*
X225770000Y-145580000D01*
X227697000Y-143310000D02*
X227733500Y-143346500D01*
X227733500Y-143346500D02*
X227733500Y-144683500D01*
X227270000Y-142510000D02*
X227270000Y-142907924D01*
X227270000Y-142907924D02*
X227270000Y-143310000D01*
X227270000Y-143310000D02*
X227697000Y-143310000D01*
X227733500Y-144683500D02*
X227507000Y-144910000D01*
%TD*%
M02*
