%TF.GenerationSoftware,KiCad,Pcbnew,(6.0.11)*%
%TF.CreationDate,2023-04-23T13:39:53-07:00*%
%TF.ProjectId,EV6 Board Design,45563620-426f-4617-9264-204465736967,rev?*%
%TF.SameCoordinates,Original*%
%TF.FileFunction,Legend,Top*%
%TF.FilePolarity,Positive*%
%FSLAX46Y46*%
G04 Gerber Fmt 4.6, Leading zero omitted, Abs format (unit mm)*
G04 Created by KiCad (PCBNEW (6.0.11)) date 2023-04-23 13:39:53*
%MOMM*%
%LPD*%
G01*
G04 APERTURE LIST*
G04 Aperture macros list*
%AMRoundRect*
0 Rectangle with rounded corners*
0 $1 Rounding radius*
0 $2 $3 $4 $5 $6 $7 $8 $9 X,Y pos of 4 corners*
0 Add a 4 corners polygon primitive as box body*
4,1,4,$2,$3,$4,$5,$6,$7,$8,$9,$2,$3,0*
0 Add four circle primitives for the rounded corners*
1,1,$1+$1,$2,$3*
1,1,$1+$1,$4,$5*
1,1,$1+$1,$6,$7*
1,1,$1+$1,$8,$9*
0 Add four rect primitives between the rounded corners*
20,1,$1+$1,$2,$3,$4,$5,0*
20,1,$1+$1,$4,$5,$6,$7,0*
20,1,$1+$1,$6,$7,$8,$9,0*
20,1,$1+$1,$8,$9,$2,$3,0*%
G04 Aperture macros list end*
%ADD10C,0.300000*%
%ADD11C,0.900000*%
%ADD12C,0.120000*%
%ADD13C,0.152400*%
%ADD14C,0.127000*%
%ADD15C,0.200000*%
%ADD16R,0.500000X1.700000*%
%ADD17R,1.200000X2.500000*%
%ADD18C,3.200000*%
%ADD19RoundRect,0.135000X-0.135000X-0.185000X0.135000X-0.185000X0.135000X0.185000X-0.135000X0.185000X0*%
%ADD20RoundRect,0.140000X0.140000X0.170000X-0.140000X0.170000X-0.140000X-0.170000X0.140000X-0.170000X0*%
%ADD21R,1.422400X0.533400*%
%ADD22RoundRect,0.140000X-0.140000X-0.170000X0.140000X-0.170000X0.140000X0.170000X-0.140000X0.170000X0*%
%ADD23R,0.600000X0.450000*%
%ADD24RoundRect,0.075000X0.075000X-0.662500X0.075000X0.662500X-0.075000X0.662500X-0.075000X-0.662500X0*%
%ADD25RoundRect,0.075000X0.662500X-0.075000X0.662500X0.075000X-0.662500X0.075000X-0.662500X-0.075000X0*%
%ADD26RoundRect,0.140000X0.170000X-0.140000X0.170000X0.140000X-0.170000X0.140000X-0.170000X-0.140000X0*%
%ADD27RoundRect,0.250000X-0.475000X0.250000X-0.475000X-0.250000X0.475000X-0.250000X0.475000X0.250000X0*%
%ADD28RoundRect,0.135000X-0.185000X0.135000X-0.185000X-0.135000X0.185000X-0.135000X0.185000X0.135000X0*%
%ADD29RoundRect,0.140000X-0.170000X0.140000X-0.170000X-0.140000X0.170000X-0.140000X0.170000X0.140000X0*%
%ADD30RoundRect,0.250000X1.500000X-0.250000X1.500000X0.250000X-1.500000X0.250000X-1.500000X-0.250000X0*%
%ADD31RoundRect,0.250001X1.449999X-0.499999X1.449999X0.499999X-1.449999X0.499999X-1.449999X-0.499999X0*%
%ADD32R,0.400000X0.410000*%
%ADD33R,0.400000X0.200000*%
%ADD34RoundRect,0.075000X0.700000X0.075000X-0.700000X0.075000X-0.700000X-0.075000X0.700000X-0.075000X0*%
%ADD35RoundRect,0.075000X0.075000X0.700000X-0.075000X0.700000X-0.075000X-0.700000X0.075000X-0.700000X0*%
%ADD36RoundRect,0.135000X0.185000X-0.135000X0.185000X0.135000X-0.185000X0.135000X-0.185000X-0.135000X0*%
%ADD37RoundRect,0.218750X-0.218750X-0.256250X0.218750X-0.256250X0.218750X0.256250X-0.218750X0.256250X0*%
%ADD38RoundRect,0.135000X0.135000X0.185000X-0.135000X0.185000X-0.135000X-0.185000X0.135000X-0.185000X0*%
%ADD39C,2.100000*%
%ADD40R,1.700000X1.700000*%
%ADD41O,1.700000X1.700000*%
%ADD42RoundRect,0.250000X0.650000X-0.325000X0.650000X0.325000X-0.650000X0.325000X-0.650000X-0.325000X0*%
%ADD43RoundRect,0.243750X0.456250X-0.243750X0.456250X0.243750X-0.456250X0.243750X-0.456250X-0.243750X0*%
%ADD44RoundRect,0.250000X0.250000X1.500000X-0.250000X1.500000X-0.250000X-1.500000X0.250000X-1.500000X0*%
%ADD45RoundRect,0.250001X0.499999X1.449999X-0.499999X1.449999X-0.499999X-1.449999X0.499999X-1.449999X0*%
%ADD46R,1.120000X2.160000*%
%ADD47RoundRect,0.007500X-0.372500X-0.117500X0.372500X-0.117500X0.372500X0.117500X-0.372500X0.117500X0*%
%ADD48RoundRect,0.007500X0.117500X-0.372500X0.117500X0.372500X-0.117500X0.372500X-0.117500X-0.372500X0*%
%ADD49R,3.650000X3.650000*%
%ADD50RoundRect,0.250000X0.475000X-0.250000X0.475000X0.250000X-0.475000X0.250000X-0.475000X-0.250000X0*%
%ADD51R,0.400000X0.600000*%
%ADD52RoundRect,0.150000X0.150000X-0.825000X0.150000X0.825000X-0.150000X0.825000X-0.150000X-0.825000X0*%
%ADD53R,1.500000X2.000000*%
%ADD54R,3.800000X2.000000*%
%ADD55R,1.500000X0.900000*%
%ADD56R,0.900000X1.500000*%
%ADD57RoundRect,0.250000X-0.250000X-1.500000X0.250000X-1.500000X0.250000X1.500000X-0.250000X1.500000X0*%
%ADD58RoundRect,0.250001X-0.499999X-1.449999X0.499999X-1.449999X0.499999X1.449999X-0.499999X1.449999X0*%
%ADD59RoundRect,0.250000X-1.500000X0.250000X-1.500000X-0.250000X1.500000X-0.250000X1.500000X0.250000X0*%
%ADD60RoundRect,0.250001X-1.449999X0.499999X-1.449999X-0.499999X1.449999X-0.499999X1.449999X0.499999X0*%
%ADD61C,0.650000*%
%ADD62R,0.600000X1.450000*%
%ADD63R,0.300000X1.450000*%
%ADD64O,1.000000X2.100000*%
%ADD65O,1.000000X1.600000*%
%ADD66R,0.500000X0.375000*%
%ADD67R,0.650000X0.300000*%
%ADD68RoundRect,0.150000X-0.150000X0.512500X-0.150000X-0.512500X0.150000X-0.512500X0.150000X0.512500X0*%
%ADD69R,1.400000X1.200000*%
%ADD70C,0.350000*%
%ADD71C,0.600000*%
G04 APERTURE END LIST*
D10*
X206842857Y-88354761D02*
X206842857Y-89021428D01*
X205795238Y-89307142D02*
X205795238Y-88354761D01*
X207795238Y-88354761D01*
X207795238Y-89307142D01*
X207795238Y-89878571D02*
X205795238Y-90545238D01*
X207795238Y-91211904D01*
X207795238Y-92735714D02*
X207795238Y-92354761D01*
X207700000Y-92164285D01*
X207604761Y-92069047D01*
X207319047Y-91878571D01*
X206938095Y-91783333D01*
X206176190Y-91783333D01*
X205985714Y-91878571D01*
X205890476Y-91973809D01*
X205795238Y-92164285D01*
X205795238Y-92545238D01*
X205890476Y-92735714D01*
X205985714Y-92830952D01*
X206176190Y-92926190D01*
X206652380Y-92926190D01*
X206842857Y-92830952D01*
X206938095Y-92735714D01*
X207033333Y-92545238D01*
X207033333Y-92164285D01*
X206938095Y-91973809D01*
X206842857Y-91878571D01*
X206652380Y-91783333D01*
X206557142Y-95307142D02*
X206557142Y-96830952D01*
X206842857Y-99973809D02*
X206842857Y-99307142D01*
X205795238Y-99307142D02*
X207795238Y-99307142D01*
X207795238Y-100259523D01*
X205795238Y-101021428D02*
X207795238Y-101021428D01*
X205795238Y-101973809D02*
X207795238Y-101973809D01*
X205795238Y-103116666D01*
X207795238Y-103116666D01*
X205795238Y-104069047D02*
X207795238Y-104069047D01*
X205795238Y-105211904D01*
X207795238Y-105211904D01*
X206842857Y-108354761D02*
X206747619Y-108640476D01*
X206652380Y-108735714D01*
X206461904Y-108830952D01*
X206176190Y-108830952D01*
X205985714Y-108735714D01*
X205890476Y-108640476D01*
X205795238Y-108450000D01*
X205795238Y-107688095D01*
X207795238Y-107688095D01*
X207795238Y-108354761D01*
X207700000Y-108545238D01*
X207604761Y-108640476D01*
X207414285Y-108735714D01*
X207223809Y-108735714D01*
X207033333Y-108640476D01*
X206938095Y-108545238D01*
X206842857Y-108354761D01*
X206842857Y-107688095D01*
X206842857Y-109688095D02*
X206842857Y-110354761D01*
X205795238Y-110640476D02*
X205795238Y-109688095D01*
X207795238Y-109688095D01*
X207795238Y-110640476D01*
X205795238Y-112640476D02*
X206747619Y-111973809D01*
X205795238Y-111497619D02*
X207795238Y-111497619D01*
X207795238Y-112259523D01*
X207700000Y-112450000D01*
X207604761Y-112545238D01*
X207414285Y-112640476D01*
X207128571Y-112640476D01*
X206938095Y-112545238D01*
X206842857Y-112450000D01*
X206747619Y-112259523D01*
X206747619Y-111497619D01*
X207700000Y-114545238D02*
X207795238Y-114354761D01*
X207795238Y-114069047D01*
X207700000Y-113783333D01*
X207509523Y-113592857D01*
X207319047Y-113497619D01*
X206938095Y-113402380D01*
X206652380Y-113402380D01*
X206271428Y-113497619D01*
X206080952Y-113592857D01*
X205890476Y-113783333D01*
X205795238Y-114069047D01*
X205795238Y-114259523D01*
X205890476Y-114545238D01*
X205985714Y-114640476D01*
X206652380Y-114640476D01*
X206652380Y-114259523D01*
D11*
X53261190Y-164486904D02*
X56118333Y-164486904D01*
X54689761Y-169486904D02*
X54689761Y-164486904D01*
X58737380Y-164486904D02*
X59689761Y-164486904D01*
X60165952Y-164725000D01*
X60642142Y-165201190D01*
X60880238Y-166153571D01*
X60880238Y-167820238D01*
X60642142Y-168772619D01*
X60165952Y-169248809D01*
X59689761Y-169486904D01*
X58737380Y-169486904D01*
X58261190Y-169248809D01*
X57785000Y-168772619D01*
X57546904Y-167820238D01*
X57546904Y-166153571D01*
X57785000Y-165201190D01*
X58261190Y-164725000D01*
X58737380Y-164486904D01*
X63023095Y-169486904D02*
X63023095Y-164486904D01*
X64927857Y-164486904D01*
X65404047Y-164725000D01*
X65642142Y-164963095D01*
X65880238Y-165439285D01*
X65880238Y-166153571D01*
X65642142Y-166629761D01*
X65404047Y-166867857D01*
X64927857Y-167105952D01*
X63023095Y-167105952D01*
X92308809Y-171391666D02*
X92070714Y-171153571D01*
X91594523Y-170439285D01*
X91356428Y-169963095D01*
X91118333Y-169248809D01*
X90880238Y-168058333D01*
X90880238Y-167105952D01*
X91118333Y-165915476D01*
X91356428Y-165201190D01*
X91594523Y-164725000D01*
X92070714Y-164010714D01*
X92308809Y-163772619D01*
X95880238Y-166867857D02*
X94213571Y-166867857D01*
X94213571Y-169486904D02*
X94213571Y-164486904D01*
X96594523Y-164486904D01*
X98499285Y-169010714D02*
X98737380Y-169248809D01*
X98499285Y-169486904D01*
X98261190Y-169248809D01*
X98499285Y-169010714D01*
X98499285Y-169486904D01*
X103737380Y-169010714D02*
X103499285Y-169248809D01*
X102785000Y-169486904D01*
X102308809Y-169486904D01*
X101594523Y-169248809D01*
X101118333Y-168772619D01*
X100880238Y-168296428D01*
X100642142Y-167344047D01*
X100642142Y-166629761D01*
X100880238Y-165677380D01*
X101118333Y-165201190D01*
X101594523Y-164725000D01*
X102308809Y-164486904D01*
X102785000Y-164486904D01*
X103499285Y-164725000D01*
X103737380Y-164963095D01*
X105880238Y-164486904D02*
X105880238Y-168534523D01*
X106118333Y-169010714D01*
X106356428Y-169248809D01*
X106832619Y-169486904D01*
X107785000Y-169486904D01*
X108261190Y-169248809D01*
X108499285Y-169010714D01*
X108737380Y-168534523D01*
X108737380Y-164486904D01*
X110642142Y-171391666D02*
X110880238Y-171153571D01*
X111356428Y-170439285D01*
X111594523Y-169963095D01*
X111832619Y-169248809D01*
X112070714Y-168058333D01*
X112070714Y-167105952D01*
X111832619Y-165915476D01*
X111594523Y-165201190D01*
X111356428Y-164725000D01*
X110880238Y-164010714D01*
X110642142Y-163772619D01*
X129689761Y-169486904D02*
X129689761Y-164486904D01*
X129689761Y-166867857D02*
X132546904Y-166867857D01*
X132546904Y-169486904D02*
X132546904Y-164486904D01*
X134927857Y-169486904D02*
X134927857Y-164486904D01*
X139927857Y-164725000D02*
X139451666Y-164486904D01*
X138737380Y-164486904D01*
X138023095Y-164725000D01*
X137546904Y-165201190D01*
X137308809Y-165677380D01*
X137070714Y-166629761D01*
X137070714Y-167344047D01*
X137308809Y-168296428D01*
X137546904Y-168772619D01*
X138023095Y-169248809D01*
X138737380Y-169486904D01*
X139213571Y-169486904D01*
X139927857Y-169248809D01*
X140165952Y-169010714D01*
X140165952Y-167344047D01*
X139213571Y-167344047D01*
X142308809Y-169486904D02*
X142308809Y-164486904D01*
X142308809Y-166867857D02*
X145165952Y-166867857D01*
X145165952Y-169486904D02*
X145165952Y-164486904D01*
X151118333Y-169248809D02*
X151832619Y-169486904D01*
X153023095Y-169486904D01*
X153499285Y-169248809D01*
X153737380Y-169010714D01*
X153975476Y-168534523D01*
X153975476Y-168058333D01*
X153737380Y-167582142D01*
X153499285Y-167344047D01*
X153023095Y-167105952D01*
X152070714Y-166867857D01*
X151594523Y-166629761D01*
X151356428Y-166391666D01*
X151118333Y-165915476D01*
X151118333Y-165439285D01*
X151356428Y-164963095D01*
X151594523Y-164725000D01*
X152070714Y-164486904D01*
X153261190Y-164486904D01*
X153975476Y-164725000D01*
X156118333Y-169486904D02*
X156118333Y-164486904D01*
X158023095Y-164486904D01*
X158499285Y-164725000D01*
X158737380Y-164963095D01*
X158975476Y-165439285D01*
X158975476Y-166153571D01*
X158737380Y-166629761D01*
X158499285Y-166867857D01*
X158023095Y-167105952D01*
X156118333Y-167105952D01*
X161118333Y-166867857D02*
X162784999Y-166867857D01*
X163499285Y-169486904D02*
X161118333Y-169486904D01*
X161118333Y-164486904D01*
X163499285Y-164486904D01*
X165642142Y-166867857D02*
X167308809Y-166867857D01*
X168023095Y-169486904D02*
X165642142Y-169486904D01*
X165642142Y-164486904D01*
X168023095Y-164486904D01*
X170165952Y-169486904D02*
X170165952Y-164486904D01*
X171356428Y-164486904D01*
X172070714Y-164725000D01*
X172546904Y-165201190D01*
X172784999Y-165677380D01*
X173023095Y-166629761D01*
X173023095Y-167344047D01*
X172784999Y-168296428D01*
X172546904Y-168772619D01*
X172070714Y-169248809D01*
X171356428Y-169486904D01*
X170165952Y-169486904D01*
X53737380Y-177298809D02*
X54451666Y-177536904D01*
X55642142Y-177536904D01*
X56118333Y-177298809D01*
X56356428Y-177060714D01*
X56594523Y-176584523D01*
X56594523Y-176108333D01*
X56356428Y-175632142D01*
X56118333Y-175394047D01*
X55642142Y-175155952D01*
X54689761Y-174917857D01*
X54213571Y-174679761D01*
X53975476Y-174441666D01*
X53737380Y-173965476D01*
X53737380Y-173489285D01*
X53975476Y-173013095D01*
X54213571Y-172775000D01*
X54689761Y-172536904D01*
X55880238Y-172536904D01*
X56594523Y-172775000D01*
X58737380Y-174917857D02*
X60404047Y-174917857D01*
X61118333Y-177536904D02*
X58737380Y-177536904D01*
X58737380Y-172536904D01*
X61118333Y-172536904D01*
X66118333Y-177060714D02*
X65880238Y-177298809D01*
X65165952Y-177536904D01*
X64689761Y-177536904D01*
X63975476Y-177298809D01*
X63499285Y-176822619D01*
X63261190Y-176346428D01*
X63023095Y-175394047D01*
X63023095Y-174679761D01*
X63261190Y-173727380D01*
X63499285Y-173251190D01*
X63975476Y-172775000D01*
X64689761Y-172536904D01*
X65165952Y-172536904D01*
X65880238Y-172775000D01*
X66118333Y-173013095D01*
X69213571Y-172536904D02*
X70165952Y-172536904D01*
X70642142Y-172775000D01*
X71118333Y-173251190D01*
X71356428Y-174203571D01*
X71356428Y-175870238D01*
X71118333Y-176822619D01*
X70642142Y-177298809D01*
X70165952Y-177536904D01*
X69213571Y-177536904D01*
X68737380Y-177298809D01*
X68261190Y-176822619D01*
X68023095Y-175870238D01*
X68023095Y-174203571D01*
X68261190Y-173251190D01*
X68737380Y-172775000D01*
X69213571Y-172536904D01*
X73499285Y-177536904D02*
X73499285Y-172536904D01*
X76356428Y-177536904D01*
X76356428Y-172536904D01*
X78737380Y-177536904D02*
X78737380Y-172536904D01*
X79927857Y-172536904D01*
X80642142Y-172775000D01*
X81118333Y-173251190D01*
X81356428Y-173727380D01*
X81594523Y-174679761D01*
X81594523Y-175394047D01*
X81356428Y-176346428D01*
X81118333Y-176822619D01*
X80642142Y-177298809D01*
X79927857Y-177536904D01*
X78737380Y-177536904D01*
X92785000Y-179441666D02*
X92546904Y-179203571D01*
X92070714Y-178489285D01*
X91832619Y-178013095D01*
X91594523Y-177298809D01*
X91356428Y-176108333D01*
X91356428Y-175155952D01*
X91594523Y-173965476D01*
X91832619Y-173251190D01*
X92070714Y-172775000D01*
X92546904Y-172060714D01*
X92785000Y-171822619D01*
X94689761Y-177536904D02*
X94689761Y-172536904D01*
X97070714Y-177536904D02*
X97070714Y-172536904D01*
X99927857Y-177536904D01*
X99927857Y-172536904D01*
X104927857Y-177536904D02*
X102070714Y-177536904D01*
X103499285Y-177536904D02*
X103499285Y-172536904D01*
X103023095Y-173251190D01*
X102546904Y-173727380D01*
X102070714Y-173965476D01*
X107070714Y-177060714D02*
X107308809Y-177298809D01*
X107070714Y-177536904D01*
X106832619Y-177298809D01*
X107070714Y-177060714D01*
X107070714Y-177536904D01*
X112308809Y-177060714D02*
X112070714Y-177298809D01*
X111356428Y-177536904D01*
X110880238Y-177536904D01*
X110165952Y-177298809D01*
X109689761Y-176822619D01*
X109451666Y-176346428D01*
X109213571Y-175394047D01*
X109213571Y-174679761D01*
X109451666Y-173727380D01*
X109689761Y-173251190D01*
X110165952Y-172775000D01*
X110880238Y-172536904D01*
X111356428Y-172536904D01*
X112070714Y-172775000D01*
X112308809Y-173013095D01*
X114451666Y-172536904D02*
X114451666Y-176584523D01*
X114689761Y-177060714D01*
X114927857Y-177298809D01*
X115404047Y-177536904D01*
X116356428Y-177536904D01*
X116832619Y-177298809D01*
X117070714Y-177060714D01*
X117308809Y-176584523D01*
X117308809Y-172536904D01*
X119213571Y-179441666D02*
X119451666Y-179203571D01*
X119927857Y-178489285D01*
X120165952Y-178013095D01*
X120404047Y-177298809D01*
X120642142Y-176108333D01*
X120642142Y-175155952D01*
X120404047Y-173965476D01*
X120165952Y-173251190D01*
X119927857Y-172775000D01*
X119451666Y-172060714D01*
X119213571Y-171822619D01*
X133261190Y-172775000D02*
X132784999Y-172536904D01*
X132070714Y-172536904D01*
X131356428Y-172775000D01*
X130880238Y-173251190D01*
X130642142Y-173727380D01*
X130404047Y-174679761D01*
X130404047Y-175394047D01*
X130642142Y-176346428D01*
X130880238Y-176822619D01*
X131356428Y-177298809D01*
X132070714Y-177536904D01*
X132546904Y-177536904D01*
X133261190Y-177298809D01*
X133499285Y-177060714D01*
X133499285Y-175394047D01*
X132546904Y-175394047D01*
X135642142Y-177536904D02*
X135642142Y-172536904D01*
X138499285Y-177536904D01*
X138499285Y-172536904D01*
X140880238Y-177536904D02*
X140880238Y-172536904D01*
X142070714Y-172536904D01*
X142785000Y-172775000D01*
X143261190Y-173251190D01*
X143499285Y-173727380D01*
X143737380Y-174679761D01*
X143737380Y-175394047D01*
X143499285Y-176346428D01*
X143261190Y-176822619D01*
X142785000Y-177298809D01*
X142070714Y-177536904D01*
X140880238Y-177536904D01*
X53261190Y-180586904D02*
X56118333Y-180586904D01*
X54689761Y-185586904D02*
X54689761Y-180586904D01*
X57785000Y-185586904D02*
X57785000Y-180586904D01*
X57785000Y-182967857D02*
X60642142Y-182967857D01*
X60642142Y-185586904D02*
X60642142Y-180586904D01*
X63023095Y-185586904D02*
X63023095Y-180586904D01*
X68261190Y-185586904D02*
X66594523Y-183205952D01*
X65404047Y-185586904D02*
X65404047Y-180586904D01*
X67308809Y-180586904D01*
X67785000Y-180825000D01*
X68023095Y-181063095D01*
X68261190Y-181539285D01*
X68261190Y-182253571D01*
X68023095Y-182729761D01*
X67785000Y-182967857D01*
X67308809Y-183205952D01*
X65404047Y-183205952D01*
X70404047Y-185586904D02*
X70404047Y-180586904D01*
X71594523Y-180586904D01*
X72308809Y-180825000D01*
X72785000Y-181301190D01*
X73023095Y-181777380D01*
X73261190Y-182729761D01*
X73261190Y-183444047D01*
X73023095Y-184396428D01*
X72785000Y-184872619D01*
X72308809Y-185348809D01*
X71594523Y-185586904D01*
X70404047Y-185586904D01*
X92070714Y-187491666D02*
X91832619Y-187253571D01*
X91356428Y-186539285D01*
X91118333Y-186063095D01*
X90880238Y-185348809D01*
X90642142Y-184158333D01*
X90642142Y-183205952D01*
X90880238Y-182015476D01*
X91118333Y-181301190D01*
X91356428Y-180825000D01*
X91832619Y-180110714D01*
X92070714Y-179872619D01*
X93975476Y-185586904D02*
X93975476Y-180586904D01*
X96356428Y-185586904D02*
X96356428Y-180586904D01*
X99213571Y-185586904D01*
X99213571Y-180586904D01*
X101356428Y-181063095D02*
X101594523Y-180825000D01*
X102070714Y-180586904D01*
X103261190Y-180586904D01*
X103737380Y-180825000D01*
X103975476Y-181063095D01*
X104213571Y-181539285D01*
X104213571Y-182015476D01*
X103975476Y-182729761D01*
X101118333Y-185586904D01*
X104213571Y-185586904D01*
X106356428Y-185110714D02*
X106594523Y-185348809D01*
X106356428Y-185586904D01*
X106118333Y-185348809D01*
X106356428Y-185110714D01*
X106356428Y-185586904D01*
X111594523Y-185110714D02*
X111356428Y-185348809D01*
X110642142Y-185586904D01*
X110165952Y-185586904D01*
X109451666Y-185348809D01*
X108975476Y-184872619D01*
X108737380Y-184396428D01*
X108499285Y-183444047D01*
X108499285Y-182729761D01*
X108737380Y-181777380D01*
X108975476Y-181301190D01*
X109451666Y-180825000D01*
X110165952Y-180586904D01*
X110642142Y-180586904D01*
X111356428Y-180825000D01*
X111594523Y-181063095D01*
X113737380Y-180586904D02*
X113737380Y-184634523D01*
X113975476Y-185110714D01*
X114213571Y-185348809D01*
X114689761Y-185586904D01*
X115642142Y-185586904D01*
X116118333Y-185348809D01*
X116356428Y-185110714D01*
X116594523Y-184634523D01*
X116594523Y-180586904D01*
X118499285Y-187491666D02*
X118737380Y-187253571D01*
X119213571Y-186539285D01*
X119451666Y-186063095D01*
X119689761Y-185348809D01*
X119927857Y-184158333D01*
X119927857Y-183205952D01*
X119689761Y-182015476D01*
X119451666Y-181301190D01*
X119213571Y-180825000D01*
X118737380Y-180110714D01*
X118499285Y-179872619D01*
X129927857Y-185586904D02*
X129927857Y-180586904D01*
X131832619Y-180586904D01*
X132308809Y-180825000D01*
X132546904Y-181063095D01*
X132784999Y-181539285D01*
X132784999Y-182253571D01*
X132546904Y-182729761D01*
X132308809Y-182967857D01*
X131832619Y-183205952D01*
X129927857Y-183205952D01*
X135880238Y-180586904D02*
X136832619Y-180586904D01*
X137308809Y-180825000D01*
X137785000Y-181301190D01*
X138023095Y-182253571D01*
X138023095Y-183920238D01*
X137785000Y-184872619D01*
X137308809Y-185348809D01*
X136832619Y-185586904D01*
X135880238Y-185586904D01*
X135404047Y-185348809D01*
X134927857Y-184872619D01*
X134689761Y-183920238D01*
X134689761Y-182253571D01*
X134927857Y-181301190D01*
X135404047Y-180825000D01*
X135880238Y-180586904D01*
X139689761Y-180586904D02*
X140880238Y-185586904D01*
X141832619Y-182015476D01*
X142785000Y-185586904D01*
X143975476Y-180586904D01*
X145880238Y-182967857D02*
X147546904Y-182967857D01*
X148261190Y-185586904D02*
X145880238Y-185586904D01*
X145880238Y-180586904D01*
X148261190Y-180586904D01*
X153261190Y-185586904D02*
X151594523Y-183205952D01*
X150404047Y-185586904D02*
X150404047Y-180586904D01*
X152308809Y-180586904D01*
X152785000Y-180825000D01*
X153023095Y-181063095D01*
X153261190Y-181539285D01*
X153261190Y-182253571D01*
X153023095Y-182729761D01*
X152785000Y-182967857D01*
X152308809Y-183205952D01*
X150404047Y-183205952D01*
X55642142Y-191017857D02*
X56356428Y-191255952D01*
X56594523Y-191494047D01*
X56832619Y-191970238D01*
X56832619Y-192684523D01*
X56594523Y-193160714D01*
X56356428Y-193398809D01*
X55880238Y-193636904D01*
X53975476Y-193636904D01*
X53975476Y-188636904D01*
X55642142Y-188636904D01*
X56118333Y-188875000D01*
X56356428Y-189113095D01*
X56594523Y-189589285D01*
X56594523Y-190065476D01*
X56356428Y-190541666D01*
X56118333Y-190779761D01*
X55642142Y-191017857D01*
X53975476Y-191017857D01*
X59927857Y-188636904D02*
X60880238Y-188636904D01*
X61356428Y-188875000D01*
X61832619Y-189351190D01*
X62070714Y-190303571D01*
X62070714Y-191970238D01*
X61832619Y-192922619D01*
X61356428Y-193398809D01*
X60880238Y-193636904D01*
X59927857Y-193636904D01*
X59451666Y-193398809D01*
X58975476Y-192922619D01*
X58737380Y-191970238D01*
X58737380Y-190303571D01*
X58975476Y-189351190D01*
X59451666Y-188875000D01*
X59927857Y-188636904D01*
X63499285Y-188636904D02*
X66356428Y-188636904D01*
X64927857Y-193636904D02*
X64927857Y-188636904D01*
X67308809Y-188636904D02*
X70165952Y-188636904D01*
X68737380Y-193636904D02*
X68737380Y-188636904D01*
X72785000Y-188636904D02*
X73737380Y-188636904D01*
X74213571Y-188875000D01*
X74689761Y-189351190D01*
X74927857Y-190303571D01*
X74927857Y-191970238D01*
X74689761Y-192922619D01*
X74213571Y-193398809D01*
X73737380Y-193636904D01*
X72785000Y-193636904D01*
X72308809Y-193398809D01*
X71832619Y-192922619D01*
X71594523Y-191970238D01*
X71594523Y-190303571D01*
X71832619Y-189351190D01*
X72308809Y-188875000D01*
X72785000Y-188636904D01*
X77070714Y-193636904D02*
X77070714Y-188636904D01*
X78737380Y-192208333D01*
X80404047Y-188636904D01*
X80404047Y-193636904D01*
X91832619Y-195541666D02*
X91594523Y-195303571D01*
X91118333Y-194589285D01*
X90880238Y-194113095D01*
X90642142Y-193398809D01*
X90404047Y-192208333D01*
X90404047Y-191255952D01*
X90642142Y-190065476D01*
X90880238Y-189351190D01*
X91118333Y-188875000D01*
X91594523Y-188160714D01*
X91832619Y-187922619D01*
X95404047Y-191017857D02*
X96118333Y-191255952D01*
X96356428Y-191494047D01*
X96594523Y-191970238D01*
X96594523Y-192684523D01*
X96356428Y-193160714D01*
X96118333Y-193398809D01*
X95642142Y-193636904D01*
X93737380Y-193636904D01*
X93737380Y-188636904D01*
X95404047Y-188636904D01*
X95880238Y-188875000D01*
X96118333Y-189113095D01*
X96356428Y-189589285D01*
X96356428Y-190065476D01*
X96118333Y-190541666D01*
X95880238Y-190779761D01*
X95404047Y-191017857D01*
X93737380Y-191017857D01*
X98737380Y-193160714D02*
X98975476Y-193398809D01*
X98737380Y-193636904D01*
X98499285Y-193398809D01*
X98737380Y-193160714D01*
X98737380Y-193636904D01*
X103975476Y-193160714D02*
X103737380Y-193398809D01*
X103023095Y-193636904D01*
X102546904Y-193636904D01*
X101832619Y-193398809D01*
X101356428Y-192922619D01*
X101118333Y-192446428D01*
X100880238Y-191494047D01*
X100880238Y-190779761D01*
X101118333Y-189827380D01*
X101356428Y-189351190D01*
X101832619Y-188875000D01*
X102546904Y-188636904D01*
X103023095Y-188636904D01*
X103737380Y-188875000D01*
X103975476Y-189113095D01*
X106118333Y-188636904D02*
X106118333Y-192684523D01*
X106356428Y-193160714D01*
X106594523Y-193398809D01*
X107070714Y-193636904D01*
X108023095Y-193636904D01*
X108499285Y-193398809D01*
X108737380Y-193160714D01*
X108975476Y-192684523D01*
X108975476Y-188636904D01*
X110880238Y-195541666D02*
X111118333Y-195303571D01*
X111594523Y-194589285D01*
X111832619Y-194113095D01*
X112070714Y-193398809D01*
X112308809Y-192208333D01*
X112308809Y-191255952D01*
X112070714Y-190065476D01*
X111832619Y-189351190D01*
X111594523Y-188875000D01*
X111118333Y-188160714D01*
X110880238Y-187922619D01*
X132308809Y-193636904D02*
X129927857Y-193636904D01*
X129927857Y-188636904D01*
X134927857Y-188636904D02*
X135880238Y-188636904D01*
X136356428Y-188875000D01*
X136832619Y-189351190D01*
X137070714Y-190303571D01*
X137070714Y-191970238D01*
X136832619Y-192922619D01*
X136356428Y-193398809D01*
X135880238Y-193636904D01*
X134927857Y-193636904D01*
X134451666Y-193398809D01*
X133975476Y-192922619D01*
X133737380Y-191970238D01*
X133737380Y-190303571D01*
X133975476Y-189351190D01*
X134451666Y-188875000D01*
X134927857Y-188636904D01*
X138737380Y-188636904D02*
X139927857Y-193636904D01*
X140880238Y-190065476D01*
X141832619Y-193636904D01*
X143023095Y-188636904D01*
X148499285Y-193398809D02*
X149213571Y-193636904D01*
X150404047Y-193636904D01*
X150880238Y-193398809D01*
X151118333Y-193160714D01*
X151356428Y-192684523D01*
X151356428Y-192208333D01*
X151118333Y-191732142D01*
X150880238Y-191494047D01*
X150404047Y-191255952D01*
X149451666Y-191017857D01*
X148975476Y-190779761D01*
X148737380Y-190541666D01*
X148499285Y-190065476D01*
X148499285Y-189589285D01*
X148737380Y-189113095D01*
X148975476Y-188875000D01*
X149451666Y-188636904D01*
X150642142Y-188636904D01*
X151356428Y-188875000D01*
X153499285Y-193636904D02*
X153499285Y-188636904D01*
X155404047Y-188636904D01*
X155880238Y-188875000D01*
X156118333Y-189113095D01*
X156356428Y-189589285D01*
X156356428Y-190303571D01*
X156118333Y-190779761D01*
X155880238Y-191017857D01*
X155404047Y-191255952D01*
X153499285Y-191255952D01*
X158499285Y-191017857D02*
X160165952Y-191017857D01*
X160880238Y-193636904D02*
X158499285Y-193636904D01*
X158499285Y-188636904D01*
X160880238Y-188636904D01*
X163023095Y-191017857D02*
X164689761Y-191017857D01*
X165404047Y-193636904D02*
X163023095Y-193636904D01*
X163023095Y-188636904D01*
X165404047Y-188636904D01*
X167546904Y-193636904D02*
X167546904Y-188636904D01*
X168737380Y-188636904D01*
X169451666Y-188875000D01*
X169927857Y-189351190D01*
X170165952Y-189827380D01*
X170404047Y-190779761D01*
X170404047Y-191494047D01*
X170165952Y-192446428D01*
X169927857Y-192922619D01*
X169451666Y-193398809D01*
X168737380Y-193636904D01*
X167546904Y-193636904D01*
%TO.C,J14*%
D12*
X223000000Y-75780000D02*
X222200000Y-75780000D01*
X222200000Y-76280000D01*
X217600000Y-76280000D01*
X217600000Y-75780000D01*
X216800000Y-75780000D01*
X216800000Y-71780000D01*
X223000000Y-71780000D01*
X223000000Y-75780000D01*
%TO.C,J13*%
X216130000Y-75800000D02*
X215330000Y-75800000D01*
X215330000Y-76300000D01*
X210730000Y-76300000D01*
X210730000Y-75800000D01*
X209930000Y-75800000D01*
X209930000Y-71800000D01*
X216130000Y-71800000D01*
X216130000Y-75800000D01*
%TO.C,J12*%
X264930000Y-139590000D02*
X264130000Y-139590000D01*
X264130000Y-140090000D01*
X259530000Y-140090000D01*
X259530000Y-139590000D01*
X258730000Y-139590000D01*
X258730000Y-135590000D01*
X264930000Y-135590000D01*
X264930000Y-139590000D01*
%TO.C,J7*%
X227600000Y-153470000D02*
X228400000Y-153470000D01*
X228400000Y-157470000D01*
X222200000Y-157470000D01*
X222200000Y-153470000D01*
X223000000Y-153470000D01*
X223000000Y-152970000D01*
X227600000Y-152970000D01*
X227600000Y-153470000D01*
%TO.C,J6*%
X257970000Y-139560000D02*
X257170000Y-139560000D01*
X257170000Y-140060000D01*
X252570000Y-140060000D01*
X252570000Y-139560000D01*
X251770000Y-139560000D01*
X251770000Y-135560000D01*
X257970000Y-135560000D01*
X257970000Y-139560000D01*
%TO.C,J5*%
X220720000Y-153500000D02*
X221520000Y-153500000D01*
X221520000Y-157500000D01*
X215320000Y-157500000D01*
X215320000Y-153500000D01*
X216120000Y-153500000D01*
X216120000Y-153000000D01*
X220720000Y-153000000D01*
X220720000Y-153500000D01*
%TO.C,J3*%
X209090000Y-153450000D02*
X209890000Y-153450000D01*
X209890000Y-157450000D01*
X203690000Y-157450000D01*
X203690000Y-153450000D01*
X204490000Y-153450000D01*
X204490000Y-152950000D01*
X209090000Y-152950000D01*
X209090000Y-153450000D01*
%TO.C,R28*%
X215096359Y-135020000D02*
X215403641Y-135020000D01*
X215096359Y-135780000D02*
X215403641Y-135780000D01*
%TO.C,C13*%
X233257836Y-122540000D02*
X233042164Y-122540000D01*
X233257836Y-123260000D02*
X233042164Y-123260000D01*
D13*
%TO.C,CR1*%
X225545200Y-125984600D02*
X223868800Y-125984600D01*
X227831200Y-125984600D02*
X226154800Y-125984600D01*
X223868800Y-131115400D02*
X227831200Y-131115400D01*
X226154800Y-125984600D02*
X225545200Y-125984600D01*
X225545200Y-125984600D02*
G75*
G03*
X226154800Y-125984600I304800J0D01*
G01*
D12*
%TO.C,C22*%
X231692164Y-122060000D02*
X231907836Y-122060000D01*
X231692164Y-121340000D02*
X231907836Y-121340000D01*
%TO.C,D2*%
X219050000Y-112760000D02*
X221600000Y-112760000D01*
X219050000Y-114460000D02*
X221600000Y-114460000D01*
X219050000Y-112760000D02*
X219050000Y-114460000D01*
%TO.C,U5*%
X258090000Y-113960000D02*
X258090000Y-114410000D01*
X265310000Y-107640000D02*
X265310000Y-107190000D01*
X258540000Y-114410000D02*
X258540000Y-115700000D01*
X258090000Y-107190000D02*
X258540000Y-107190000D01*
X265310000Y-114410000D02*
X264860000Y-114410000D01*
X258090000Y-107640000D02*
X258090000Y-107190000D01*
X258090000Y-114410000D02*
X258540000Y-114410000D01*
X265310000Y-113960000D02*
X265310000Y-114410000D01*
X265310000Y-107190000D02*
X264860000Y-107190000D01*
%TO.C,C33*%
X227077836Y-124750000D02*
X226862164Y-124750000D01*
X227077836Y-125470000D02*
X226862164Y-125470000D01*
%TO.C,C14*%
X235160000Y-111807836D02*
X235160000Y-111592164D01*
X234440000Y-111807836D02*
X234440000Y-111592164D01*
%TO.C,C4*%
X257165000Y-119088748D02*
X257165000Y-119611252D01*
X258635000Y-119088748D02*
X258635000Y-119611252D01*
%TO.C,C3*%
X258260000Y-124757836D02*
X258260000Y-124542164D01*
X257540000Y-124757836D02*
X257540000Y-124542164D01*
%TO.C,R3*%
X237920000Y-147196359D02*
X237920000Y-147503641D01*
X238680000Y-147196359D02*
X238680000Y-147503641D01*
%TO.C,C2*%
X262580000Y-99102164D02*
X262580000Y-99317836D01*
X263300000Y-99102164D02*
X263300000Y-99317836D01*
%TO.C,C19*%
X224890000Y-112187836D02*
X224890000Y-111972164D01*
X225610000Y-112187836D02*
X225610000Y-111972164D01*
%TO.C,R38*%
X228130000Y-111956359D02*
X228130000Y-112263641D01*
X227370000Y-111956359D02*
X227370000Y-112263641D01*
%TO.C,J8*%
X268740000Y-134960000D02*
X268740000Y-136240000D01*
X267140000Y-149040000D02*
X268740000Y-149040000D01*
X268740000Y-147760000D02*
X265850000Y-147760000D01*
X267140000Y-150060000D02*
X267140000Y-149040000D01*
X271390000Y-150060000D02*
X267140000Y-150060000D01*
X271390000Y-133940000D02*
X267140000Y-133940000D01*
X268740000Y-149040000D02*
X268740000Y-147760000D01*
X274960000Y-148340000D02*
X274960000Y-135660000D01*
X267140000Y-134960000D02*
X268740000Y-134960000D01*
X267140000Y-133940000D02*
X267140000Y-134960000D01*
%TO.C,U13*%
X225130000Y-144480000D02*
X227530000Y-144480000D01*
X227530000Y-144480000D02*
X227530000Y-138540000D01*
X227530000Y-138540000D02*
X225130000Y-138540000D01*
X225130000Y-138540000D02*
X225130000Y-144480000D01*
%TO.C,U1*%
X234440000Y-112990000D02*
X234440000Y-113940000D01*
X243710000Y-123210000D02*
X244660000Y-123210000D01*
X243710000Y-112990000D02*
X244660000Y-112990000D01*
X234440000Y-123210000D02*
X234440000Y-122260000D01*
X235390000Y-112990000D02*
X234440000Y-112990000D01*
X235390000Y-123210000D02*
X234440000Y-123210000D01*
X244660000Y-112990000D02*
X244660000Y-113940000D01*
X244660000Y-122260000D02*
X246000000Y-122260000D01*
X244660000Y-123210000D02*
X244660000Y-122260000D01*
%TO.C,R5*%
X249220000Y-121553641D02*
X249220000Y-121246359D01*
X248460000Y-121553641D02*
X248460000Y-121246359D01*
%TO.C,C16*%
X252560000Y-131807836D02*
X252560000Y-131592164D01*
X251840000Y-131807836D02*
X251840000Y-131592164D01*
%TO.C,120R1*%
X250737221Y-115590000D02*
X251062779Y-115590000D01*
X250737221Y-116610000D02*
X251062779Y-116610000D01*
%TO.C,R17*%
X227130000Y-85853641D02*
X227130000Y-85546359D01*
X226370000Y-85853641D02*
X226370000Y-85546359D01*
%TO.C,R13*%
X218230000Y-85546359D02*
X218230000Y-85853641D01*
X217470000Y-85546359D02*
X217470000Y-85853641D01*
%TO.C,C20*%
X270110000Y-110307836D02*
X270110000Y-110092164D01*
X269390000Y-110307836D02*
X269390000Y-110092164D01*
%TO.C,R30*%
X214996359Y-137780000D02*
X215303641Y-137780000D01*
X214996359Y-137020000D02*
X215303641Y-137020000D01*
%TO.C,R4*%
X231713641Y-83380000D02*
X231406359Y-83380000D01*
X231713641Y-82620000D02*
X231406359Y-82620000D01*
%TO.C,R39*%
X228720000Y-111946359D02*
X228720000Y-112253641D01*
X229480000Y-111946359D02*
X229480000Y-112253641D01*
%TO.C,R21*%
X206890000Y-150546359D02*
X206890000Y-150853641D01*
X207650000Y-150546359D02*
X207650000Y-150853641D01*
%TO.C,C5*%
X243590000Y-142857836D02*
X243590000Y-142642164D01*
X244310000Y-142857836D02*
X244310000Y-142642164D01*
%TO.C,J4*%
X270920000Y-91230000D02*
X272250000Y-91230000D01*
X270920000Y-93830000D02*
X270920000Y-111670000D01*
X273580000Y-93830000D02*
X273580000Y-111670000D01*
X270920000Y-93830000D02*
X273580000Y-93830000D01*
X270920000Y-92560000D02*
X270920000Y-91230000D01*
X270920000Y-111670000D02*
X273580000Y-111670000D01*
%TO.C,C8*%
X248110000Y-116042164D02*
X248110000Y-116257836D01*
X247390000Y-116042164D02*
X247390000Y-116257836D01*
%TO.C,R12*%
X222020000Y-85546359D02*
X222020000Y-85853641D01*
X222780000Y-85546359D02*
X222780000Y-85853641D01*
%TO.C,R11*%
X223070000Y-85546359D02*
X223070000Y-85853641D01*
X223830000Y-85546359D02*
X223830000Y-85853641D01*
%TO.C,C21*%
X236210000Y-110192164D02*
X236210000Y-110407836D01*
X235490000Y-110192164D02*
X235490000Y-110407836D01*
%TO.C,R6*%
X224880000Y-85546359D02*
X224880000Y-85853641D01*
X224120000Y-85546359D02*
X224120000Y-85853641D01*
%TO.C,R16*%
X228180000Y-85853641D02*
X228180000Y-85546359D01*
X227420000Y-85853641D02*
X227420000Y-85546359D01*
%TO.C,J2*%
X267140000Y-125760000D02*
X268740000Y-125760000D01*
X268740000Y-125760000D02*
X268740000Y-127040000D01*
X267140000Y-124740000D02*
X267140000Y-125760000D01*
X268740000Y-130560000D02*
X265850000Y-130560000D01*
X271390000Y-124740000D02*
X267140000Y-124740000D01*
X268740000Y-131840000D02*
X268740000Y-130560000D01*
X267140000Y-132860000D02*
X267140000Y-131840000D01*
X274960000Y-131140000D02*
X274960000Y-126460000D01*
X271390000Y-132860000D02*
X267140000Y-132860000D01*
X267140000Y-131840000D02*
X268740000Y-131840000D01*
%TO.C,R35*%
X218690000Y-78146359D02*
X218690000Y-78453641D01*
X217930000Y-78146359D02*
X217930000Y-78453641D01*
%TO.C,C29*%
X254690000Y-121091252D02*
X254690000Y-119668748D01*
X256510000Y-121091252D02*
X256510000Y-119668748D01*
%TO.C,C27*%
X251442164Y-129590000D02*
X251657836Y-129590000D01*
X251442164Y-130310000D02*
X251657836Y-130310000D01*
%TO.C,C10*%
X252590000Y-116042164D02*
X252590000Y-116257836D01*
X253310000Y-116042164D02*
X253310000Y-116257836D01*
%TO.C,R24*%
X219720000Y-85853641D02*
X219720000Y-85546359D01*
X220480000Y-85853641D02*
X220480000Y-85546359D01*
%TO.C,R19*%
X255246359Y-112260000D02*
X255553641Y-112260000D01*
X255246359Y-111500000D02*
X255553641Y-111500000D01*
%TO.C,R1*%
X263680000Y-121893641D02*
X263680000Y-121586359D01*
X262920000Y-121893641D02*
X262920000Y-121586359D01*
%TO.C,C12*%
X243357836Y-125860000D02*
X243142164Y-125860000D01*
X243357836Y-125140000D02*
X243142164Y-125140000D01*
%TO.C,R37*%
X226720000Y-117396359D02*
X226720000Y-117703641D01*
X227480000Y-117396359D02*
X227480000Y-117703641D01*
%TO.C,R18*%
X226080000Y-85853641D02*
X226080000Y-85546359D01*
X225320000Y-85853641D02*
X225320000Y-85546359D01*
%TO.C,R2*%
X240870000Y-147046359D02*
X240870000Y-147353641D01*
X241630000Y-147046359D02*
X241630000Y-147353641D01*
%TO.C,C25*%
X266240000Y-106557836D02*
X266240000Y-106342164D01*
X266960000Y-106557836D02*
X266960000Y-106342164D01*
%TO.C,C1*%
X236690000Y-147457836D02*
X236690000Y-147242164D01*
X237410000Y-147457836D02*
X237410000Y-147242164D01*
%TO.C,R32*%
X237030000Y-100353641D02*
X237030000Y-100046359D01*
X236270000Y-100353641D02*
X236270000Y-100046359D01*
%TO.C,D10*%
X219050000Y-115690000D02*
X221600000Y-115690000D01*
X219050000Y-115690000D02*
X219050000Y-117390000D01*
X219050000Y-117390000D02*
X221600000Y-117390000D01*
%TO.C,R8*%
X224410000Y-150656359D02*
X224410000Y-150963641D01*
X225170000Y-150656359D02*
X225170000Y-150963641D01*
%TO.C,D11*%
X234120000Y-148425000D02*
X234120000Y-145740000D01*
X232200000Y-148425000D02*
X234120000Y-148425000D01*
X232200000Y-145740000D02*
X232200000Y-148425000D01*
%TO.C,J15*%
X263740000Y-75810000D02*
X262460000Y-75810000D01*
X263040000Y-69590000D02*
X258360000Y-69590000D01*
X257660000Y-75810000D02*
X258940000Y-75810000D01*
X256640000Y-73160000D02*
X256640000Y-77410000D01*
X257660000Y-77410000D02*
X257660000Y-75810000D01*
X264760000Y-73160000D02*
X264760000Y-77410000D01*
X256640000Y-77410000D02*
X257660000Y-77410000D01*
X263740000Y-77410000D02*
X263740000Y-75810000D01*
X264760000Y-77410000D02*
X263740000Y-77410000D01*
X262460000Y-75810000D02*
X262460000Y-78700000D01*
%TO.C,C15*%
X254042164Y-133110000D02*
X254257836Y-133110000D01*
X254042164Y-132390000D02*
X254257836Y-132390000D01*
%TO.C,SW3*%
X247335000Y-75710000D02*
X247335000Y-74503333D01*
X245500000Y-77550000D02*
X246883000Y-77550000D01*
X247575000Y-75710000D02*
X247575000Y-74503333D01*
X247215000Y-74503333D02*
X248485000Y-74503333D01*
X245740000Y-77310000D02*
X247050000Y-77310000D01*
X248485000Y-75710000D02*
X248485000Y-72090000D01*
X247455000Y-75710000D02*
X247455000Y-74503333D01*
X247935000Y-75710000D02*
X247935000Y-74503333D01*
X248175000Y-75710000D02*
X248175000Y-74503333D01*
X248415000Y-75710000D02*
X248415000Y-74503333D01*
X249960000Y-77310000D02*
X249960000Y-70490000D01*
X248650000Y-77310000D02*
X249960000Y-77310000D01*
X248650000Y-70490000D02*
X249960000Y-70490000D01*
X248295000Y-75710000D02*
X248295000Y-74503333D01*
X247695000Y-75710000D02*
X247695000Y-74503333D01*
X248055000Y-75710000D02*
X248055000Y-74503333D01*
X247215000Y-72090000D02*
X247215000Y-75710000D01*
X245500000Y-77550000D02*
X245500000Y-76167000D01*
X247215000Y-75710000D02*
X248485000Y-75710000D01*
X248485000Y-72090000D02*
X247215000Y-72090000D01*
X245740000Y-70490000D02*
X247050000Y-70490000D01*
X247815000Y-75710000D02*
X247815000Y-74503333D01*
X245740000Y-77310000D02*
X245740000Y-70490000D01*
%TO.C,R15*%
X215420000Y-85546359D02*
X215420000Y-85853641D01*
X216180000Y-85546359D02*
X216180000Y-85853641D01*
D14*
%TO.C,U6*%
X258502500Y-126500000D02*
X258502500Y-126805000D01*
X253502500Y-126500000D02*
X253807500Y-126500000D01*
X253502500Y-131500000D02*
X253807500Y-131500000D01*
X258502500Y-126500000D02*
X258197500Y-126500000D01*
X258502500Y-131500000D02*
X258197500Y-131500000D01*
X258502500Y-131500000D02*
X258502500Y-131195000D01*
X253502500Y-131500000D02*
X253502500Y-131195000D01*
X253502500Y-126500000D02*
X253502500Y-126805000D01*
D15*
X252667500Y-127250000D02*
G75*
G03*
X252667500Y-127250000I-100000J0D01*
G01*
D12*
%TO.C,C23*%
X265085000Y-119061252D02*
X265085000Y-118538748D01*
X263615000Y-119061252D02*
X263615000Y-118538748D01*
%TO.C,R9*%
X251703641Y-126130000D02*
X251396359Y-126130000D01*
X251703641Y-125370000D02*
X251396359Y-125370000D01*
%TO.C,R14*%
X216445000Y-85546359D02*
X216445000Y-85853641D01*
X217205000Y-85546359D02*
X217205000Y-85853641D01*
%TO.C,C30*%
X252260000Y-121091252D02*
X252260000Y-119668748D01*
X254080000Y-121091252D02*
X254080000Y-119668748D01*
%TO.C,R22*%
X214996359Y-128970000D02*
X215303641Y-128970000D01*
X214996359Y-129730000D02*
X215303641Y-129730000D01*
%TO.C,D4*%
X242725000Y-74570000D02*
X243725000Y-74570000D01*
X243725000Y-74570000D02*
X243725000Y-72770000D01*
X243725000Y-72770000D02*
X242725000Y-72770000D01*
X242725000Y-72770000D02*
X242725000Y-74570000D01*
%TO.C,R36*%
X227530000Y-114466359D02*
X227530000Y-114773641D01*
X226770000Y-114466359D02*
X226770000Y-114773641D01*
%TO.C,R34*%
X219000000Y-78156359D02*
X219000000Y-78463641D01*
X219760000Y-78156359D02*
X219760000Y-78463641D01*
%TO.C,SW1*%
X204120000Y-70640000D02*
X205430000Y-70640000D01*
X206435000Y-75860000D02*
X206435000Y-74653333D01*
X205595000Y-75860000D02*
X206865000Y-75860000D01*
X205595000Y-74653333D02*
X206865000Y-74653333D01*
X205835000Y-75860000D02*
X205835000Y-74653333D01*
X206195000Y-75860000D02*
X206195000Y-74653333D01*
X206315000Y-75860000D02*
X206315000Y-74653333D01*
X207030000Y-77460000D02*
X208340000Y-77460000D01*
X206075000Y-75860000D02*
X206075000Y-74653333D01*
X206555000Y-75860000D02*
X206555000Y-74653333D01*
X205595000Y-72240000D02*
X205595000Y-75860000D01*
X204120000Y-77460000D02*
X205430000Y-77460000D01*
X206865000Y-75860000D02*
X206865000Y-72240000D01*
X205715000Y-75860000D02*
X205715000Y-74653333D01*
X206675000Y-75860000D02*
X206675000Y-74653333D01*
X206865000Y-72240000D02*
X205595000Y-72240000D01*
X205955000Y-75860000D02*
X205955000Y-74653333D01*
X203880000Y-77700000D02*
X205263000Y-77700000D01*
X206795000Y-75860000D02*
X206795000Y-74653333D01*
X203880000Y-77700000D02*
X203880000Y-76317000D01*
X207030000Y-70640000D02*
X208340000Y-70640000D01*
X208340000Y-77460000D02*
X208340000Y-70640000D01*
X204120000Y-77460000D02*
X204120000Y-70640000D01*
%TO.C,U3*%
X240040000Y-136570000D02*
X240040000Y-140020000D01*
X250160000Y-136570000D02*
X250160000Y-134620000D01*
X250160000Y-136570000D02*
X250160000Y-138520000D01*
X240040000Y-136570000D02*
X240040000Y-134620000D01*
%TO.C,R23*%
X220770000Y-85853641D02*
X220770000Y-85546359D01*
X221530000Y-85853641D02*
X221530000Y-85546359D01*
%TO.C,R41*%
X226433641Y-145960000D02*
X226126359Y-145960000D01*
X226433641Y-145200000D02*
X226126359Y-145200000D01*
%TO.C,SW2*%
X252825000Y-75660000D02*
X252825000Y-74453333D01*
X255210000Y-77260000D02*
X255210000Y-70440000D01*
X253735000Y-75660000D02*
X253735000Y-72040000D01*
X253900000Y-77260000D02*
X255210000Y-77260000D01*
X250990000Y-70440000D02*
X252300000Y-70440000D01*
X250990000Y-77260000D02*
X252300000Y-77260000D01*
X252705000Y-75660000D02*
X252705000Y-74453333D01*
X252465000Y-72040000D02*
X252465000Y-75660000D01*
X252465000Y-74453333D02*
X253735000Y-74453333D01*
X253545000Y-75660000D02*
X253545000Y-74453333D01*
X250990000Y-77260000D02*
X250990000Y-70440000D01*
X253065000Y-75660000D02*
X253065000Y-74453333D01*
X253665000Y-75660000D02*
X253665000Y-74453333D01*
X252585000Y-75660000D02*
X252585000Y-74453333D01*
X252465000Y-75660000D02*
X253735000Y-75660000D01*
X250750000Y-77500000D02*
X250750000Y-76117000D01*
X253185000Y-75660000D02*
X253185000Y-74453333D01*
X250750000Y-77500000D02*
X252133000Y-77500000D01*
X253735000Y-72040000D02*
X252465000Y-72040000D01*
X253425000Y-75660000D02*
X253425000Y-74453333D01*
X253305000Y-75660000D02*
X253305000Y-74453333D01*
X253900000Y-70440000D02*
X255210000Y-70440000D01*
X252945000Y-75660000D02*
X252945000Y-74453333D01*
%TO.C,R27*%
X214996359Y-132920000D02*
X215303641Y-132920000D01*
X214996359Y-133680000D02*
X215303641Y-133680000D01*
%TO.C,C18*%
X251442164Y-129260000D02*
X251657836Y-129260000D01*
X251442164Y-128540000D02*
X251657836Y-128540000D01*
%TO.C,C6*%
X260032164Y-129440000D02*
X260247836Y-129440000D01*
X260032164Y-128720000D02*
X260247836Y-128720000D01*
%TO.C,U2*%
X261960000Y-95800000D02*
X260700000Y-95800000D01*
X255140000Y-101810000D02*
X255140000Y-95800000D01*
X255140000Y-95800000D02*
X256400000Y-95800000D01*
X261960000Y-99560000D02*
X261960000Y-95800000D01*
%TO.C,D3*%
X227725000Y-74570000D02*
X228725000Y-74570000D01*
X228725000Y-74570000D02*
X228725000Y-72770000D01*
X228725000Y-72770000D02*
X227725000Y-72770000D01*
X227725000Y-72770000D02*
X227725000Y-74570000D01*
%TO.C,U11*%
X233200000Y-79825000D02*
X232850000Y-79825000D01*
X233200000Y-79075000D02*
X251600000Y-79075000D01*
X233200000Y-79825000D02*
X233200000Y-79075000D01*
X251600000Y-79075000D02*
X251600000Y-79775000D01*
X251600000Y-98675000D02*
X251600000Y-97675000D01*
X233200000Y-98675000D02*
X234700000Y-98675000D01*
X233200000Y-97675000D02*
X233200000Y-98675000D01*
X251600000Y-98675000D02*
X250100000Y-98675000D01*
%TO.C,C17*%
X251442164Y-128210000D02*
X251657836Y-128210000D01*
X251442164Y-127490000D02*
X251657836Y-127490000D01*
%TO.C,C7*%
X254060000Y-124542164D02*
X254060000Y-124757836D01*
X253340000Y-124542164D02*
X253340000Y-124757836D01*
%TO.C,J11*%
X261440000Y-150990000D02*
X260160000Y-150990000D01*
X246340000Y-149390000D02*
X247360000Y-149390000D01*
X246340000Y-153640000D02*
X246340000Y-149390000D01*
X247360000Y-150990000D02*
X248640000Y-150990000D01*
X248060000Y-157210000D02*
X260740000Y-157210000D01*
X248640000Y-150990000D02*
X248640000Y-148100000D01*
X261440000Y-149390000D02*
X261440000Y-150990000D01*
X247360000Y-149390000D02*
X247360000Y-150990000D01*
X262460000Y-149390000D02*
X261440000Y-149390000D01*
X262460000Y-153640000D02*
X262460000Y-149390000D01*
%TO.C,C32*%
X241100000Y-141437836D02*
X241100000Y-141222164D01*
X241820000Y-141437836D02*
X241820000Y-141222164D01*
%TO.C,J10*%
X210430000Y-128570000D02*
X213320000Y-128570000D01*
X207780000Y-126270000D02*
X212030000Y-126270000D01*
X212030000Y-127290000D02*
X210430000Y-127290000D01*
X210430000Y-127290000D02*
X210430000Y-128570000D01*
X212030000Y-146390000D02*
X212030000Y-145370000D01*
X210430000Y-145370000D02*
X210430000Y-144090000D01*
X212030000Y-126270000D02*
X212030000Y-127290000D01*
X204210000Y-127990000D02*
X204210000Y-144670000D01*
X212030000Y-145370000D02*
X210430000Y-145370000D01*
X207780000Y-146390000D02*
X212030000Y-146390000D01*
%TO.C,C31*%
X256490000Y-124542164D02*
X256490000Y-124757836D01*
X257210000Y-124542164D02*
X257210000Y-124757836D01*
%TO.C,C9*%
X249210000Y-116042164D02*
X249210000Y-116257836D01*
X248490000Y-116042164D02*
X248490000Y-116257836D01*
%TO.C,C24*%
X258370000Y-116232164D02*
X258370000Y-116447836D01*
X257650000Y-116232164D02*
X257650000Y-116447836D01*
%TO.C,J1*%
X222800000Y-94840000D02*
X222800000Y-99090000D01*
X222800000Y-99090000D02*
X223820000Y-99090000D01*
X230920000Y-99090000D02*
X229900000Y-99090000D01*
X229200000Y-91270000D02*
X224520000Y-91270000D01*
X229900000Y-99090000D02*
X229900000Y-97490000D01*
X230920000Y-94840000D02*
X230920000Y-99090000D01*
X223820000Y-97490000D02*
X225100000Y-97490000D01*
X228620000Y-97490000D02*
X228620000Y-100380000D01*
X229900000Y-97490000D02*
X228620000Y-97490000D01*
X223820000Y-99090000D02*
X223820000Y-97490000D01*
%TO.C,J9*%
X234750000Y-151900000D02*
X234750000Y-153900000D01*
X234750000Y-155800000D02*
X234750000Y-157700000D01*
X234750000Y-157700000D02*
X244150000Y-157700000D01*
X244150000Y-155800000D02*
X244150000Y-157700000D01*
X244150000Y-151900000D02*
X244150000Y-153900000D01*
%TO.C,D5*%
X232725000Y-74570000D02*
X233725000Y-74570000D01*
X233725000Y-74570000D02*
X233725000Y-72770000D01*
X233725000Y-72770000D02*
X232725000Y-72770000D01*
X232725000Y-72770000D02*
X232725000Y-74570000D01*
%TO.C,R29*%
X214996359Y-140870000D02*
X215303641Y-140870000D01*
X214996359Y-141630000D02*
X215303641Y-141630000D01*
%TO.C,R26*%
X214996359Y-130920000D02*
X215303641Y-130920000D01*
X214996359Y-131680000D02*
X215303641Y-131680000D01*
%TO.C,C11*%
X242492164Y-110810000D02*
X242707836Y-110810000D01*
X242492164Y-110090000D02*
X242707836Y-110090000D01*
%TO.C,D18*%
X237725000Y-74570000D02*
X238725000Y-74570000D01*
X238725000Y-74570000D02*
X238725000Y-72770000D01*
X238725000Y-72770000D02*
X237725000Y-72770000D01*
X237725000Y-72770000D02*
X237725000Y-74570000D01*
%TO.C,U4*%
X247900000Y-141750000D02*
X246000000Y-141750000D01*
X246300000Y-143550000D02*
X247900000Y-143550000D01*
%TO.C,R33*%
X220850000Y-78146359D02*
X220850000Y-78453641D01*
X220090000Y-78146359D02*
X220090000Y-78453641D01*
%TO.C,R40*%
X260140000Y-80416359D02*
X260140000Y-80723641D01*
X259380000Y-80416359D02*
X259380000Y-80723641D01*
%TO.C,R31*%
X214996359Y-139730000D02*
X215303641Y-139730000D01*
X214996359Y-138970000D02*
X215303641Y-138970000D01*
%TO.C,R20*%
X206640000Y-150556359D02*
X206640000Y-150863641D01*
X205880000Y-150556359D02*
X205880000Y-150863641D01*
%TO.C,U12*%
X223140000Y-116550000D02*
X223140000Y-115750000D01*
X223140000Y-116550000D02*
X223140000Y-117350000D01*
X226260000Y-116550000D02*
X226260000Y-114750000D01*
X226260000Y-116550000D02*
X226260000Y-117350000D01*
%TO.C,C28*%
X251657836Y-126440000D02*
X251442164Y-126440000D01*
X251657836Y-127160000D02*
X251442164Y-127160000D01*
%TO.C,R7*%
X226280000Y-150696359D02*
X226280000Y-151003641D01*
X225520000Y-150696359D02*
X225520000Y-151003641D01*
%TO.C,C26*%
X256360000Y-113707836D02*
X256360000Y-113492164D01*
X255640000Y-113707836D02*
X255640000Y-113492164D01*
%TO.C,R25*%
X218670000Y-85853641D02*
X218670000Y-85546359D01*
X219430000Y-85853641D02*
X219430000Y-85546359D01*
%TO.C,Y1*%
X259150000Y-120450000D02*
X263150000Y-120450000D01*
X259150000Y-117150000D02*
X259150000Y-120450000D01*
%TD*%
%LPC*%
D16*
%TO.C,J14*%
X221400000Y-76180000D03*
X220400000Y-76180000D03*
X219400000Y-76180000D03*
X218400000Y-76180000D03*
D17*
X222500000Y-72780000D03*
X217300000Y-72780000D03*
%TD*%
D16*
%TO.C,J13*%
X214530000Y-76200000D03*
X213530000Y-76200000D03*
X212530000Y-76200000D03*
X211530000Y-76200000D03*
D17*
X215630000Y-72800000D03*
X210430000Y-72800000D03*
%TD*%
D16*
%TO.C,J12*%
X263330000Y-139990000D03*
X262330000Y-139990000D03*
X261330000Y-139990000D03*
X260330000Y-139990000D03*
D17*
X264430000Y-136590000D03*
X259230000Y-136590000D03*
%TD*%
D16*
%TO.C,J7*%
X223800000Y-153070000D03*
X224800000Y-153070000D03*
X225800000Y-153070000D03*
X226800000Y-153070000D03*
D17*
X222700000Y-156470000D03*
X227900000Y-156470000D03*
%TD*%
D16*
%TO.C,J6*%
X256370000Y-139960000D03*
X255370000Y-139960000D03*
X254370000Y-139960000D03*
X253370000Y-139960000D03*
D17*
X257470000Y-136560000D03*
X252270000Y-136560000D03*
%TD*%
D16*
%TO.C,J5*%
X216920000Y-153100000D03*
X217920000Y-153100000D03*
X218920000Y-153100000D03*
X219920000Y-153100000D03*
D17*
X215820000Y-156500000D03*
X221020000Y-156500000D03*
%TD*%
D16*
%TO.C,J3*%
X205290000Y-153050000D03*
X206290000Y-153050000D03*
X207290000Y-153050000D03*
X208290000Y-153050000D03*
D17*
X204190000Y-156450000D03*
X209390000Y-156450000D03*
%TD*%
D18*
%TO.C,REF\u002A\u002A*%
X206750000Y-120600000D03*
%TD*%
D19*
%TO.C,R28*%
X214740000Y-135400000D03*
X215760000Y-135400000D03*
%TD*%
D20*
%TO.C,C13*%
X233630000Y-122900000D03*
X232670000Y-122900000D03*
%TD*%
D21*
%TO.C,CR1*%
X223056000Y-126645000D03*
X223056000Y-127915000D03*
X223056000Y-129185000D03*
X223056000Y-130455000D03*
X228644000Y-130455000D03*
X228644000Y-129185000D03*
X228644000Y-127915000D03*
X228644000Y-126645000D03*
%TD*%
D22*
%TO.C,C22*%
X231320000Y-121700000D03*
X232280000Y-121700000D03*
%TD*%
D23*
%TO.C,D2*%
X219500000Y-113610000D03*
X221600000Y-113610000D03*
%TD*%
D18*
%TO.C,REF\u002A\u002A*%
X206750000Y-82300000D03*
%TD*%
D24*
%TO.C,U5*%
X258950000Y-114962500D03*
X259450000Y-114962500D03*
X259950000Y-114962500D03*
X260450000Y-114962500D03*
X260950000Y-114962500D03*
X261450000Y-114962500D03*
X261950000Y-114962500D03*
X262450000Y-114962500D03*
X262950000Y-114962500D03*
X263450000Y-114962500D03*
X263950000Y-114962500D03*
X264450000Y-114962500D03*
D25*
X265862500Y-113550000D03*
X265862500Y-113050000D03*
X265862500Y-112550000D03*
X265862500Y-112050000D03*
X265862500Y-111550000D03*
X265862500Y-111050000D03*
X265862500Y-110550000D03*
X265862500Y-110050000D03*
X265862500Y-109550000D03*
X265862500Y-109050000D03*
X265862500Y-108550000D03*
X265862500Y-108050000D03*
D24*
X264450000Y-106637500D03*
X263950000Y-106637500D03*
X263450000Y-106637500D03*
X262950000Y-106637500D03*
X262450000Y-106637500D03*
X261950000Y-106637500D03*
X261450000Y-106637500D03*
X260950000Y-106637500D03*
X260450000Y-106637500D03*
X259950000Y-106637500D03*
X259450000Y-106637500D03*
X258950000Y-106637500D03*
D25*
X257537500Y-108050000D03*
X257537500Y-108550000D03*
X257537500Y-109050000D03*
X257537500Y-109550000D03*
X257537500Y-110050000D03*
X257537500Y-110550000D03*
X257537500Y-111050000D03*
X257537500Y-111550000D03*
X257537500Y-112050000D03*
X257537500Y-112550000D03*
X257537500Y-113050000D03*
X257537500Y-113550000D03*
%TD*%
D20*
%TO.C,C33*%
X227450000Y-125110000D03*
X226490000Y-125110000D03*
%TD*%
D26*
%TO.C,C14*%
X234800000Y-112180000D03*
X234800000Y-111220000D03*
%TD*%
D27*
%TO.C,C4*%
X257900000Y-118400000D03*
X257900000Y-120300000D03*
%TD*%
D26*
%TO.C,C3*%
X257900000Y-125130000D03*
X257900000Y-124170000D03*
%TD*%
D28*
%TO.C,R3*%
X238300000Y-146840000D03*
X238300000Y-147860000D03*
%TD*%
D29*
%TO.C,C2*%
X262940000Y-98730000D03*
X262940000Y-99690000D03*
%TD*%
D26*
%TO.C,C19*%
X225250000Y-112560000D03*
X225250000Y-111600000D03*
%TD*%
D28*
%TO.C,R38*%
X227750000Y-111600000D03*
X227750000Y-112620000D03*
%TD*%
D30*
%TO.C,J8*%
X267600000Y-147000000D03*
X267600000Y-145000000D03*
X267600000Y-143000000D03*
X267600000Y-141000000D03*
X267600000Y-139000000D03*
X267600000Y-137000000D03*
D31*
X273350000Y-149350000D03*
X273350000Y-134650000D03*
%TD*%
D32*
%TO.C,U13*%
X225390000Y-144215000D03*
D33*
X225390000Y-143710000D03*
X225390000Y-143310000D03*
X225390000Y-142907924D03*
X225390000Y-142510000D03*
X225390000Y-142110000D03*
X225390000Y-141710000D03*
X225390000Y-141310000D03*
X225390000Y-140910000D03*
X225390000Y-140510000D03*
X225390000Y-140110000D03*
X225390000Y-139710000D03*
X225390000Y-139310000D03*
D32*
X225390000Y-138805000D03*
X227270000Y-138805000D03*
D33*
X227270000Y-139310000D03*
X227270000Y-139710000D03*
X227270000Y-140110000D03*
X227270000Y-140510000D03*
X227270000Y-140910000D03*
X227270000Y-141310000D03*
X227270000Y-141710000D03*
X227270000Y-142110000D03*
X227270000Y-142510000D03*
X227270000Y-142907924D03*
X227270000Y-143310000D03*
X227270000Y-143710000D03*
D32*
X227270000Y-144215000D03*
%TD*%
D34*
%TO.C,U1*%
X245225000Y-121850000D03*
X245225000Y-121350000D03*
X245225000Y-120850000D03*
X245225000Y-120350000D03*
X245225000Y-119850000D03*
X245225000Y-119350000D03*
X245225000Y-118850000D03*
X245225000Y-118350000D03*
X245225000Y-117850000D03*
X245225000Y-117350000D03*
X245225000Y-116850000D03*
X245225000Y-116350000D03*
X245225000Y-115850000D03*
X245225000Y-115350000D03*
X245225000Y-114850000D03*
X245225000Y-114350000D03*
D35*
X243300000Y-112425000D03*
X242800000Y-112425000D03*
X242300000Y-112425000D03*
X241800000Y-112425000D03*
X241300000Y-112425000D03*
X240800000Y-112425000D03*
X240300000Y-112425000D03*
X239800000Y-112425000D03*
X239300000Y-112425000D03*
X238800000Y-112425000D03*
X238300000Y-112425000D03*
X237800000Y-112425000D03*
X237300000Y-112425000D03*
X236800000Y-112425000D03*
X236300000Y-112425000D03*
X235800000Y-112425000D03*
D34*
X233875000Y-114350000D03*
X233875000Y-114850000D03*
X233875000Y-115350000D03*
X233875000Y-115850000D03*
X233875000Y-116350000D03*
X233875000Y-116850000D03*
X233875000Y-117350000D03*
X233875000Y-117850000D03*
X233875000Y-118350000D03*
X233875000Y-118850000D03*
X233875000Y-119350000D03*
X233875000Y-119850000D03*
X233875000Y-120350000D03*
X233875000Y-120850000D03*
X233875000Y-121350000D03*
X233875000Y-121850000D03*
D35*
X235800000Y-123775000D03*
X236300000Y-123775000D03*
X236800000Y-123775000D03*
X237300000Y-123775000D03*
X237800000Y-123775000D03*
X238300000Y-123775000D03*
X238800000Y-123775000D03*
X239300000Y-123775000D03*
X239800000Y-123775000D03*
X240300000Y-123775000D03*
X240800000Y-123775000D03*
X241300000Y-123775000D03*
X241800000Y-123775000D03*
X242300000Y-123775000D03*
X242800000Y-123775000D03*
X243300000Y-123775000D03*
%TD*%
D36*
%TO.C,R5*%
X248840000Y-121910000D03*
X248840000Y-120890000D03*
%TD*%
D26*
%TO.C,C16*%
X252200000Y-132180000D03*
X252200000Y-131220000D03*
%TD*%
D37*
%TO.C,120R1*%
X250112500Y-116100000D03*
X251687500Y-116100000D03*
%TD*%
D36*
%TO.C,R17*%
X226750000Y-86210000D03*
X226750000Y-85190000D03*
%TD*%
D28*
%TO.C,R13*%
X217850000Y-85190000D03*
X217850000Y-86210000D03*
%TD*%
D26*
%TO.C,C20*%
X269750000Y-110680000D03*
X269750000Y-109720000D03*
%TD*%
D19*
%TO.C,R30*%
X214640000Y-137400000D03*
X215660000Y-137400000D03*
%TD*%
D38*
%TO.C,R4*%
X232070000Y-83000000D03*
X231050000Y-83000000D03*
%TD*%
D39*
%TO.C,REF\u002A\u002A*%
X266100000Y-153020000D03*
%TD*%
D28*
%TO.C,R39*%
X229100000Y-111590000D03*
X229100000Y-112610000D03*
%TD*%
%TO.C,R21*%
X207270000Y-150190000D03*
X207270000Y-151210000D03*
%TD*%
D26*
%TO.C,C5*%
X243950000Y-143230000D03*
X243950000Y-142270000D03*
%TD*%
D40*
%TO.C,J4*%
X272250000Y-92560000D03*
D41*
X272250000Y-95100000D03*
X272250000Y-97640000D03*
X272250000Y-100180000D03*
X272250000Y-102720000D03*
X272250000Y-105260000D03*
X272250000Y-107800000D03*
X272250000Y-110340000D03*
%TD*%
D29*
%TO.C,C8*%
X247750000Y-115670000D03*
X247750000Y-116630000D03*
%TD*%
D28*
%TO.C,R12*%
X222400000Y-85190000D03*
X222400000Y-86210000D03*
%TD*%
%TO.C,R11*%
X223450000Y-85190000D03*
X223450000Y-86210000D03*
%TD*%
D29*
%TO.C,C21*%
X235850000Y-109820000D03*
X235850000Y-110780000D03*
%TD*%
D28*
%TO.C,R6*%
X224500000Y-85190000D03*
X224500000Y-86210000D03*
%TD*%
D36*
%TO.C,R16*%
X227800000Y-86210000D03*
X227800000Y-85190000D03*
%TD*%
D30*
%TO.C,J2*%
X267600000Y-129800000D03*
X267600000Y-127800000D03*
D31*
X273350000Y-132150000D03*
X273350000Y-125450000D03*
%TD*%
D28*
%TO.C,R35*%
X218310000Y-77790000D03*
X218310000Y-78810000D03*
%TD*%
D42*
%TO.C,C29*%
X255600000Y-121855000D03*
X255600000Y-118905000D03*
%TD*%
D22*
%TO.C,C27*%
X251070000Y-129950000D03*
X252030000Y-129950000D03*
%TD*%
D29*
%TO.C,C10*%
X252950000Y-115670000D03*
X252950000Y-116630000D03*
%TD*%
D36*
%TO.C,R24*%
X220100000Y-86210000D03*
X220100000Y-85190000D03*
%TD*%
D19*
%TO.C,R19*%
X254890000Y-111880000D03*
X255910000Y-111880000D03*
%TD*%
D18*
%TO.C,REF\u002A\u002A*%
X272250000Y-120600000D03*
%TD*%
D36*
%TO.C,R1*%
X263300000Y-122250000D03*
X263300000Y-121230000D03*
%TD*%
D20*
%TO.C,C12*%
X243730000Y-125500000D03*
X242770000Y-125500000D03*
%TD*%
D28*
%TO.C,R37*%
X227100000Y-117040000D03*
X227100000Y-118060000D03*
%TD*%
D36*
%TO.C,R18*%
X225700000Y-86210000D03*
X225700000Y-85190000D03*
%TD*%
D28*
%TO.C,R2*%
X241250000Y-146690000D03*
X241250000Y-147710000D03*
%TD*%
D26*
%TO.C,C25*%
X266600000Y-106930000D03*
X266600000Y-105970000D03*
%TD*%
%TO.C,C1*%
X237050000Y-147830000D03*
X237050000Y-146870000D03*
%TD*%
D36*
%TO.C,R32*%
X236650000Y-100710000D03*
X236650000Y-99690000D03*
%TD*%
D23*
%TO.C,D10*%
X219500000Y-116540000D03*
X221600000Y-116540000D03*
%TD*%
D28*
%TO.C,R8*%
X224790000Y-150300000D03*
X224790000Y-151320000D03*
%TD*%
D43*
%TO.C,D11*%
X233160000Y-147677500D03*
X233160000Y-145802500D03*
%TD*%
D44*
%TO.C,J15*%
X261700000Y-76950000D03*
X259700000Y-76950000D03*
D45*
X257350000Y-71200000D03*
X264050000Y-71200000D03*
%TD*%
D22*
%TO.C,C15*%
X253670000Y-132750000D03*
X254630000Y-132750000D03*
%TD*%
D46*
%TO.C,SW3*%
X247850000Y-77265000D03*
X247850000Y-70535000D03*
%TD*%
D28*
%TO.C,R15*%
X215800000Y-85190000D03*
X215800000Y-86210000D03*
%TD*%
D47*
%TO.C,U6*%
X253527500Y-127250000D03*
X253527500Y-127750000D03*
X253527500Y-128250000D03*
X253527500Y-128750000D03*
X253527500Y-129250000D03*
X253527500Y-129750000D03*
X253527500Y-130250000D03*
X253527500Y-130750000D03*
D48*
X254252500Y-131475000D03*
X254752500Y-131475000D03*
X255252500Y-131475000D03*
X255752500Y-131475000D03*
X256252500Y-131475000D03*
X256752500Y-131475000D03*
X257252500Y-131475000D03*
X257752500Y-131475000D03*
D47*
X258477500Y-130750000D03*
X258477500Y-130250000D03*
X258477500Y-129750000D03*
X258477500Y-129250000D03*
X258477500Y-128750000D03*
X258477500Y-128250000D03*
X258477500Y-127750000D03*
X258477500Y-127250000D03*
D48*
X257752500Y-126525000D03*
X257252500Y-126525000D03*
X256752500Y-126525000D03*
X256252500Y-126525000D03*
X255752500Y-126525000D03*
X255252500Y-126525000D03*
X254752500Y-126525000D03*
X254252500Y-126525000D03*
D49*
X256002500Y-129000000D03*
%TD*%
D50*
%TO.C,C23*%
X264350000Y-119750000D03*
X264350000Y-117850000D03*
%TD*%
D38*
%TO.C,R9*%
X252060000Y-125750000D03*
X251040000Y-125750000D03*
%TD*%
D28*
%TO.C,R14*%
X216825000Y-85190000D03*
X216825000Y-86210000D03*
%TD*%
D42*
%TO.C,C30*%
X253170000Y-121855000D03*
X253170000Y-118905000D03*
%TD*%
D19*
%TO.C,R22*%
X214640000Y-129350000D03*
X215660000Y-129350000D03*
%TD*%
D51*
%TO.C,D4*%
X242825000Y-74370000D03*
X242825000Y-72970000D03*
X243625000Y-72970000D03*
X243625000Y-74370000D03*
%TD*%
D28*
%TO.C,R36*%
X227150000Y-114110000D03*
X227150000Y-115130000D03*
%TD*%
%TO.C,R34*%
X219380000Y-77800000D03*
X219380000Y-78820000D03*
%TD*%
D46*
%TO.C,SW1*%
X206230000Y-77415000D03*
X206230000Y-70685000D03*
%TD*%
D52*
%TO.C,U3*%
X240655000Y-139045000D03*
X241925000Y-139045000D03*
X243195000Y-139045000D03*
X244465000Y-139045000D03*
X245735000Y-139045000D03*
X247005000Y-139045000D03*
X248275000Y-139045000D03*
X249545000Y-139045000D03*
X249545000Y-134095000D03*
X248275000Y-134095000D03*
X247005000Y-134095000D03*
X245735000Y-134095000D03*
X244465000Y-134095000D03*
X243195000Y-134095000D03*
X241925000Y-134095000D03*
X240655000Y-134095000D03*
%TD*%
D36*
%TO.C,R23*%
X221150000Y-86210000D03*
X221150000Y-85190000D03*
%TD*%
D38*
%TO.C,R41*%
X226790000Y-145580000D03*
X225770000Y-145580000D03*
%TD*%
D46*
%TO.C,SW2*%
X253100000Y-77215000D03*
X253100000Y-70485000D03*
%TD*%
D19*
%TO.C,R27*%
X214640000Y-133300000D03*
X215660000Y-133300000D03*
%TD*%
D22*
%TO.C,C18*%
X251070000Y-128900000D03*
X252030000Y-128900000D03*
%TD*%
%TO.C,C6*%
X259660000Y-129080000D03*
X260620000Y-129080000D03*
%TD*%
D53*
%TO.C,U2*%
X256250000Y-100860000D03*
D54*
X258550000Y-94560000D03*
D53*
X258550000Y-100860000D03*
X260850000Y-100860000D03*
%TD*%
D51*
%TO.C,D3*%
X227825000Y-74370000D03*
X227825000Y-72970000D03*
X228625000Y-72970000D03*
X228625000Y-74370000D03*
%TD*%
D55*
%TO.C,U11*%
X233650000Y-80465000D03*
X233650000Y-81735000D03*
X233650000Y-83005000D03*
X233650000Y-84275000D03*
X233650000Y-85545000D03*
X233650000Y-86815000D03*
X233650000Y-88085000D03*
X233650000Y-89355000D03*
X233650000Y-90625000D03*
X233650000Y-91895000D03*
X233650000Y-93165000D03*
X233650000Y-94435000D03*
X233650000Y-95705000D03*
X233650000Y-96975000D03*
D56*
X235415000Y-98225000D03*
X236685000Y-98225000D03*
X237955000Y-98225000D03*
X239225000Y-98225000D03*
X240495000Y-98225000D03*
X241765000Y-98225000D03*
X243035000Y-98225000D03*
X244305000Y-98225000D03*
X245575000Y-98225000D03*
X246845000Y-98225000D03*
X248115000Y-98225000D03*
X249385000Y-98225000D03*
D55*
X251150000Y-96975000D03*
X251150000Y-95705000D03*
X251150000Y-94435000D03*
X251150000Y-93165000D03*
X251150000Y-91895000D03*
X251150000Y-90625000D03*
X251150000Y-89355000D03*
X251150000Y-88085000D03*
X251150000Y-86815000D03*
X251150000Y-85545000D03*
X251150000Y-84275000D03*
X251150000Y-83005000D03*
X251150000Y-81735000D03*
X251150000Y-80465000D03*
%TD*%
D22*
%TO.C,C17*%
X251070000Y-127850000D03*
X252030000Y-127850000D03*
%TD*%
D29*
%TO.C,C7*%
X253700000Y-124170000D03*
X253700000Y-125130000D03*
%TD*%
D57*
%TO.C,J11*%
X249400000Y-149850000D03*
X251400000Y-149850000D03*
X253400000Y-149850000D03*
X255400000Y-149850000D03*
X257400000Y-149850000D03*
X259400000Y-149850000D03*
D58*
X261750000Y-155600000D03*
X247050000Y-155600000D03*
%TD*%
D26*
%TO.C,C32*%
X241460000Y-141810000D03*
X241460000Y-140850000D03*
%TD*%
D59*
%TO.C,J10*%
X211570000Y-129330000D03*
X211570000Y-131330000D03*
X211570000Y-133330000D03*
X211570000Y-135330000D03*
X211570000Y-137330000D03*
X211570000Y-139330000D03*
X211570000Y-141330000D03*
X211570000Y-143330000D03*
D60*
X205820000Y-126980000D03*
X205820000Y-145680000D03*
%TD*%
D29*
%TO.C,C31*%
X256850000Y-124170000D03*
X256850000Y-125130000D03*
%TD*%
D18*
%TO.C,REF\u002A\u002A*%
X272250000Y-82300000D03*
%TD*%
D29*
%TO.C,C9*%
X248850000Y-115670000D03*
X248850000Y-116630000D03*
%TD*%
%TO.C,C24*%
X258010000Y-115860000D03*
X258010000Y-116820000D03*
%TD*%
D44*
%TO.C,J1*%
X227860000Y-98630000D03*
X225860000Y-98630000D03*
D45*
X223510000Y-92880000D03*
X230210000Y-92880000D03*
%TD*%
D39*
%TO.C,REF\u002A\u002A*%
X212800000Y-153020000D03*
%TD*%
D61*
%TO.C,J9*%
X236560000Y-151200000D03*
X242340000Y-151200000D03*
D62*
X236200000Y-149755000D03*
X237000000Y-149755000D03*
D63*
X238200000Y-149755000D03*
X239200000Y-149755000D03*
X239700000Y-149755000D03*
X240700000Y-149755000D03*
D62*
X241900000Y-149755000D03*
X242700000Y-149755000D03*
X242700000Y-149755000D03*
X241900000Y-149755000D03*
D63*
X241200000Y-149755000D03*
X240200000Y-149755000D03*
X238700000Y-149755000D03*
X237700000Y-149755000D03*
D62*
X237000000Y-149755000D03*
X236200000Y-149755000D03*
D64*
X243770000Y-150670000D03*
X235130000Y-150670000D03*
D65*
X243770000Y-154850000D03*
X235130000Y-154850000D03*
%TD*%
D51*
%TO.C,D5*%
X232825000Y-74370000D03*
X232825000Y-72970000D03*
X233625000Y-72970000D03*
X233625000Y-74370000D03*
%TD*%
D19*
%TO.C,R29*%
X214640000Y-141250000D03*
X215660000Y-141250000D03*
%TD*%
%TO.C,R26*%
X214640000Y-131300000D03*
X215660000Y-131300000D03*
%TD*%
D22*
%TO.C,C11*%
X242120000Y-110450000D03*
X243080000Y-110450000D03*
%TD*%
D51*
%TO.C,D18*%
X237825000Y-74370000D03*
X237825000Y-72970000D03*
X238625000Y-72970000D03*
X238625000Y-74370000D03*
%TD*%
D66*
%TO.C,U4*%
X246250000Y-142112500D03*
D67*
X246175000Y-142650000D03*
D66*
X246250000Y-143187500D03*
X247950000Y-143187500D03*
D67*
X248025000Y-142650000D03*
D66*
X247950000Y-142112500D03*
%TD*%
D28*
%TO.C,R33*%
X220470000Y-77790000D03*
X220470000Y-78810000D03*
%TD*%
%TO.C,R40*%
X259760000Y-80060000D03*
X259760000Y-81080000D03*
%TD*%
D19*
%TO.C,R31*%
X214640000Y-139350000D03*
X215660000Y-139350000D03*
%TD*%
D28*
%TO.C,R20*%
X206260000Y-150200000D03*
X206260000Y-151220000D03*
%TD*%
D68*
%TO.C,U12*%
X225650000Y-115412500D03*
X224700000Y-115412500D03*
X223750000Y-115412500D03*
X223750000Y-117687500D03*
X225650000Y-117687500D03*
%TD*%
D20*
%TO.C,C28*%
X252030000Y-126800000D03*
X251070000Y-126800000D03*
%TD*%
D28*
%TO.C,R7*%
X225900000Y-150340000D03*
X225900000Y-151360000D03*
%TD*%
D26*
%TO.C,C26*%
X256000000Y-114080000D03*
X256000000Y-113120000D03*
%TD*%
D36*
%TO.C,R25*%
X219050000Y-86210000D03*
X219050000Y-85190000D03*
%TD*%
D69*
%TO.C,Y1*%
X260050000Y-119650000D03*
X262250000Y-119650000D03*
X262250000Y-117950000D03*
X260050000Y-117950000D03*
%TD*%
D70*
X261840000Y-141470000D03*
X263320000Y-141500000D03*
D71*
X254555000Y-80655000D03*
X209290000Y-70400000D03*
X213380000Y-71700000D03*
X221350000Y-77730000D03*
X237550000Y-100840000D03*
X230100000Y-83050000D03*
X231940000Y-81050000D03*
X235209500Y-80200500D03*
X227790000Y-72020000D03*
X232800000Y-72140000D03*
X237800000Y-72340000D03*
X242800000Y-72180000D03*
X260980000Y-80510000D03*
X258650000Y-78400000D03*
X259000000Y-81110000D03*
X265300000Y-98700000D03*
X255863000Y-97887000D03*
X256250000Y-102460000D03*
X263310000Y-102470000D03*
X266525500Y-105050000D03*
X270430000Y-107800000D03*
X268880000Y-111320000D03*
X262000000Y-121200000D03*
X259650000Y-116550000D03*
X255100878Y-113816541D03*
X252950000Y-117500000D03*
X250150000Y-117300000D03*
X247750000Y-117700000D03*
X243300000Y-109350000D03*
X242200000Y-109550000D03*
X233800000Y-112120000D03*
X234750000Y-110400000D03*
X213380000Y-113120000D03*
X228960000Y-110850000D03*
X225250000Y-110820000D03*
X227100000Y-116150000D03*
X224800000Y-114050000D03*
X224015000Y-112735000D03*
X222690000Y-115390000D03*
X223750000Y-119000000D03*
X233600000Y-123850000D03*
X232606611Y-123960377D03*
X251190497Y-132249503D03*
X251300000Y-131250000D03*
X250250000Y-126770000D03*
X252775000Y-124925000D03*
X254240000Y-123250000D03*
X258812206Y-124092206D03*
X258800000Y-125050000D03*
X259650000Y-128110000D03*
X260620000Y-128010000D03*
X240733000Y-140660023D03*
X244655000Y-140725000D03*
X243900000Y-141510000D03*
X243120000Y-143230000D03*
X214450000Y-143380000D03*
X205250000Y-151680000D03*
X208320000Y-151660000D03*
X217000000Y-151610000D03*
X220050000Y-151730000D03*
X227434813Y-152423000D03*
X223800000Y-151790000D03*
X234125688Y-144574312D03*
X235635000Y-145785000D03*
X235780000Y-149170000D03*
X242050000Y-146713000D03*
X242360000Y-147790000D03*
X243200000Y-148920000D03*
X260590000Y-149170000D03*
D70*
X270690000Y-95950000D03*
X270690000Y-101430000D03*
X269610000Y-99980000D03*
X269599609Y-95187104D03*
X270725411Y-102939103D03*
X270160000Y-101002000D03*
X238586331Y-108245758D03*
X238360000Y-113912000D03*
X238780000Y-108760000D03*
X239118801Y-114801199D03*
X251130000Y-97660000D03*
X247203563Y-119146500D03*
X248900000Y-114650000D03*
X229030000Y-121230000D03*
X227174713Y-129914713D03*
X252950000Y-114900000D03*
X244550000Y-125450000D03*
X262679913Y-113643530D03*
X251740000Y-140740000D03*
X255609462Y-132750538D03*
X251900000Y-142549500D03*
X264280000Y-122270000D03*
X249400000Y-147100000D03*
X224890378Y-149513556D03*
X265300000Y-106800000D03*
X256000000Y-114950000D03*
X259100000Y-113650000D03*
X225920000Y-149474500D03*
X249150000Y-142700000D03*
X239083725Y-146649500D03*
X253940000Y-111940000D03*
X221650000Y-130500000D03*
X245688000Y-142650000D03*
X224935000Y-144215000D03*
X242750000Y-126300000D03*
X254600000Y-70550000D03*
X264450500Y-108550000D03*
X269750000Y-141050000D03*
X229624500Y-152240000D03*
X240050000Y-125950000D03*
X234970000Y-133990000D03*
X229624500Y-152789503D03*
X235730000Y-132030000D03*
X239910562Y-126538104D03*
X227742000Y-147154500D03*
X227860000Y-115160000D03*
X239406188Y-151306188D03*
X237800000Y-151550000D03*
X255261051Y-132125538D03*
X247530000Y-124464047D03*
X249372000Y-110805504D03*
X262466003Y-108448500D03*
X247548500Y-121120000D03*
X244080403Y-118991217D03*
X249373725Y-106991851D03*
X206250000Y-151890000D03*
X234424500Y-106308000D03*
X207708220Y-151944041D03*
X234927130Y-106635000D03*
X251460000Y-152560000D03*
X251730000Y-112653000D03*
X261980000Y-112930000D03*
X264360000Y-127940000D03*
X264280000Y-121180000D03*
X252880000Y-143150000D03*
X253410000Y-147710000D03*
X244150000Y-129670000D03*
X231250000Y-150270000D03*
X249520287Y-129259713D03*
X250774500Y-127790000D03*
X255195000Y-108045000D03*
X253330000Y-137900000D03*
X235180000Y-82960000D03*
X249478331Y-121910000D03*
X260660000Y-138490000D03*
X230160000Y-150470000D03*
X244156500Y-128470000D03*
X222400000Y-87150000D03*
X262249964Y-110250036D03*
X223450000Y-87150000D03*
X263249397Y-110261821D03*
X224500000Y-87150000D03*
X264268261Y-110315885D03*
X230420170Y-133115000D03*
X226147000Y-137400000D03*
X233912670Y-133231671D03*
X246345000Y-120845000D03*
X246670000Y-120350000D03*
X234382573Y-132761769D03*
X237339388Y-113641212D03*
X218010000Y-155120000D03*
X236790000Y-113630000D03*
X219020000Y-155070000D03*
X249590000Y-84220000D03*
X255968792Y-137679969D03*
X266270552Y-96540411D03*
X253473500Y-107746500D03*
X267160000Y-83285763D03*
X266331312Y-98180351D03*
X237679713Y-108570287D03*
X254969290Y-137680604D03*
X267270000Y-96530000D03*
X252266750Y-107786750D03*
X267330000Y-98140000D03*
X249570000Y-85390000D03*
X266722000Y-82847763D03*
X237060000Y-108570000D03*
X229144626Y-137108384D03*
X223501000Y-139085414D03*
X230800000Y-114300000D03*
X224028265Y-137315620D03*
X232200000Y-114650000D03*
X231041676Y-115961775D03*
X227473000Y-137397000D03*
X244156500Y-129110000D03*
X230705570Y-150344494D03*
X231500000Y-116850000D03*
X228525200Y-137108384D03*
X234848560Y-126749350D03*
X229684820Y-137209102D03*
X226380000Y-143500000D03*
X235032928Y-127267000D03*
X247641224Y-105652000D03*
X243159164Y-107323319D03*
X263439628Y-111830912D03*
X216203414Y-87103046D03*
X244149583Y-107457756D03*
X217200692Y-87169691D03*
X244605068Y-106554932D03*
X218200000Y-87150000D03*
X265924500Y-129870000D03*
X262400000Y-127780000D03*
X265924500Y-127850000D03*
X262410000Y-127070000D03*
X257695834Y-121821500D03*
X265924500Y-137050000D03*
X257110000Y-121930000D03*
X265924500Y-139050000D03*
X231731500Y-128747000D03*
X227981659Y-137189108D03*
X230200000Y-131687000D03*
X225027000Y-137354767D03*
X259059238Y-112651329D03*
X207745000Y-77415000D03*
X214550000Y-76840000D03*
X252990000Y-112480000D03*
X249919030Y-107059622D03*
X252390000Y-111200000D03*
X259990000Y-111200000D03*
X249130000Y-84870000D03*
X252157938Y-106957938D03*
X251247563Y-111200000D03*
X250795000Y-107115000D03*
X261040000Y-111890000D03*
X248580641Y-84857458D03*
X245600000Y-70920000D03*
X249180000Y-77960000D03*
X229155000Y-132239000D03*
X223593000Y-138281470D03*
X238728000Y-121835000D03*
X261916500Y-108448500D03*
X261040500Y-108448500D03*
X246011901Y-125340547D03*
X263465523Y-116194477D03*
X234930000Y-118350000D03*
X240540000Y-122641000D03*
X239330937Y-107289063D03*
X261290000Y-138740000D03*
X245520000Y-124920000D03*
X241900000Y-103150500D03*
X250356664Y-106615782D03*
X227800000Y-87100000D03*
X232200000Y-88200000D03*
X228799503Y-87100000D03*
X232100000Y-86900000D03*
X229650000Y-86437000D03*
X232090000Y-86010000D03*
X235280000Y-120380000D03*
X227710000Y-145560000D03*
X216330000Y-129360000D03*
X239800000Y-111100000D03*
X238300000Y-122790000D03*
X221198509Y-87150000D03*
X239055000Y-118880000D03*
X220354063Y-79575500D03*
X241350500Y-118815000D03*
X245590000Y-99400000D03*
X263888000Y-105190962D03*
X261469096Y-105418881D03*
X250901109Y-102127000D03*
X220199006Y-87150000D03*
X243700000Y-115450000D03*
X219350000Y-79570000D03*
X254362000Y-97190000D03*
X254473000Y-107973000D03*
X253970000Y-137660000D03*
X255238000Y-97230000D03*
X244612104Y-111350000D03*
X219199503Y-87150000D03*
X218300000Y-79575500D03*
X247567728Y-118592272D03*
X246314023Y-111285977D03*
X239250497Y-111100000D03*
X216320000Y-131290000D03*
X216340000Y-133310000D03*
X217206500Y-116460000D03*
X216450000Y-135410000D03*
X217533500Y-117620000D03*
X216360000Y-141240000D03*
X251400500Y-102454000D03*
X232073935Y-108562000D03*
X256514062Y-104784062D03*
X260920000Y-105440000D03*
X232371783Y-98543990D03*
X233030000Y-107908000D03*
X250040000Y-95750000D03*
X216360000Y-137400000D03*
X233148897Y-99321104D03*
X249850000Y-94500000D03*
X216320000Y-139350000D03*
X232760340Y-98932547D03*
X232528897Y-108235000D03*
X246880000Y-108720000D03*
X266430000Y-115530000D03*
X264170000Y-101360000D03*
X269220000Y-103090000D03*
X259970000Y-105462000D03*
X255400000Y-147080000D03*
X264147794Y-100360745D03*
X270217737Y-103149389D03*
X256430000Y-147080000D03*
X258940644Y-105430644D03*
X246880000Y-108170497D03*
X266420000Y-114480000D03*
X243500000Y-121291000D03*
X256355439Y-132213388D03*
X241540000Y-114850000D03*
X241575500Y-113527306D03*
X235880000Y-115120000D03*
X235890000Y-113770000D03*
X235270000Y-114668000D03*
X235240713Y-113761287D03*
X242824500Y-121291000D03*
X255810209Y-132144995D03*
X257690000Y-132190000D03*
X244075500Y-120972000D03*
X256903586Y-132174818D03*
X245561808Y-123118192D03*
X241980000Y-137310000D03*
X248690000Y-136092000D03*
X243260000Y-137440000D03*
X246648500Y-136432000D03*
M02*
