M48
; DRILL file {KiCad 7.0.5} date Tue Dec 19 13:44:27 2023
; FORMAT={-:-/ absolute / inch / decimal}
; #@! TF.CreationDate,2023-12-19T13:44:27-08:00
; #@! TF.GenerationSoftware,Kicad,Pcbnew,7.0.5
; #@! TF.FileFunction,Plated,1,4,PTH
FMAT,2
INCH
; #@! TA.AperFunction,Plated,PTH,ViaDrill
T1C0.0079
; #@! TA.AperFunction,Plated,PTH,ComponentDrill
T2C0.0079
; #@! TA.AperFunction,Plated,PTH,ViaDrill
T3C0.0118
; #@! TA.AperFunction,Plated,PTH,ComponentDrill
T4C0.0118
; #@! TA.AperFunction,Plated,PTH,ViaDrill
T5C0.0157
; #@! TA.AperFunction,Plated,PTH,ComponentDrill
T6C0.0236
%
G90
G05
T1
X4.6142Y-4.7339
X4.6146Y-4.7555
X4.615Y-4.6693
X4.615Y-4.6902
X4.615Y-4.7122
X4.6165Y-4.7768
X4.6315Y-4.6791
X4.6319Y-4.7016
X4.6323Y-4.7228
X4.6323Y-4.7445
X4.6327Y-4.7866
X4.6331Y-4.6555
X4.6331Y-4.7661
X4.6474Y-4.6911
X4.6476Y-4.6701
X4.648Y-4.7555
X4.648Y-4.7768
X4.6484Y-4.7984
X4.6488Y-4.7126
X4.6488Y-4.7343
X4.6811Y-5.3343
X4.6811Y-5.3559
X4.6819Y-5.2902
X4.6819Y-5.3118
X4.6835Y-5.0465
X4.6835Y-5.1173
X4.6839Y-5.0917
X4.6843Y-5.0709
X4.6976Y-5.3689
X4.6984Y-5.2799
X4.6984Y-5.3016
X4.6988Y-5.0591
X4.6988Y-5.3228
X4.6992Y-5.1039
X4.6992Y-5.3453
X4.7Y-5.0823
X4.7157Y-5.0484
X4.7157Y-5.3122
X4.7157Y-5.3343
X4.7157Y-5.3551
X4.7161Y-5.0705
X4.7161Y-5.0933
X4.7165Y-5.1154
X4.7165Y-5.2902
X4.9035Y-5.0504
X4.9035Y-5.1213
X4.9039Y-5.0957
X4.9043Y-5.0748
X4.9189Y-5.063
X4.9193Y-5.1079
X4.9201Y-5.0862
X4.9358Y-5.0524
X4.9362Y-5.0744
X4.9362Y-5.0972
X4.9366Y-5.1193
X4.9504Y-4.7256
X4.9508Y-4.7472
X4.9512Y-4.6606
X4.9512Y-4.6815
X4.9512Y-4.7035
X4.9512Y-4.7689
X4.9512Y-4.8579
X4.9516Y-4.8795
X4.952Y-4.7929
X4.952Y-4.8138
X4.952Y-4.8358
X4.9654Y-5.2736
X4.9677Y-4.6705
X4.9681Y-4.6929
X4.9681Y-4.8894
X4.9685Y-4.7142
X4.9685Y-4.7358
X4.9685Y-4.8028
X4.9689Y-4.8252
X4.9693Y-4.6469
X4.9693Y-4.7575
X4.9693Y-4.8465
X4.9693Y-4.8681
X4.9701Y-4.7791
X4.9819Y-5.2835
X4.9823Y-5.261
X4.9843Y-4.7469
X4.985Y-4.7039
X4.985Y-4.7256
X4.985Y-4.8791
X4.9858Y-4.6598
X4.9858Y-4.6815
X4.9858Y-4.8362
X4.9858Y-4.8579
X4.9866Y-4.7689
X4.9866Y-4.7921
X4.9866Y-4.8138
X5.0Y-5.2728
X5.0106Y-5.2563
X5.0185Y-5.2732
X5.0185Y-5.2953
X5.0189Y-5.3193
X5.0189Y-5.3402
X5.0189Y-5.3622
X5.035Y-5.2622
X5.0354Y-5.2846
X5.0354Y-5.3291
X5.0358Y-5.3516
X5.0366Y-5.3705
X5.037Y-5.3055
X5.052Y-5.2937
X5.0524Y-5.3606
X5.0528Y-5.2713
X5.0531Y-5.3165
X5.0531Y-5.3382
X5.1531Y-5.2929
X5.2541Y-5.2758
X5.2783Y-4.9811
X5.2953Y-4.9638
X5.3133Y-4.9417
X5.325Y-5.5013
X5.3401Y-4.9295
X5.3436Y-5.3873
X5.3454Y-5.1787
X5.3489Y-2.4528
X5.3504Y-2.5866
X5.3504Y-2.6181
X5.3661Y-2.3504
X5.3661Y-4.9356
X5.3842Y-5.3858
X5.4154Y-5.1776
X5.4669Y-5.2421
X5.4673Y-4.9756
X5.4685Y-2.5709
X5.4865Y-5.0613
X5.487Y-5.0865
X5.4875Y-5.1081
X5.4877Y-5.0381
X5.4879Y-5.0165
X5.4886Y-5.1587
X5.5047Y-5.5799
X5.5072Y-4.9562
X5.5078Y-5.4252
X5.5079Y-2.5709
X5.5295Y-5.4253
X5.5472Y-2.5709
X5.5646Y-5.5075
X5.5744Y-5.0015
X5.6304Y-2.5638
X5.6796Y-2.5638
X5.7102Y-4.2409
X5.7126Y-2.563
X5.7264Y-3.9744
X5.7266Y-3.9502
X5.7386Y-5.1819
X5.7701Y-4.5844
X5.8273Y-2.563
X5.8331Y-3.1681
X5.8343Y-3.122
X5.8354Y-2.7433
X5.8374Y-5.1114
X5.8752Y-4.6362
X5.8765Y-2.563
X5.8831Y-3.8295
X5.8882Y-4.7679
X5.889Y-3.9988
X5.8914Y-3.856
X5.9008Y-4.7182
X5.9024Y-5.2746
X5.9048Y-4.0232
X5.9091Y-3.8118
X5.9094Y-2.563
X5.9177Y-4.0473
X5.9263Y-3.8539
X5.9318Y-4.0823
X5.9332Y-4.6654
X5.9338Y-3.8291
X5.9447Y-4.124
X5.9477Y-3.9835
X5.9677Y-4.4799
X5.9721Y-4.2205
X5.984Y-4.327
X5.9851Y-4.4992
X5.9936Y-4.241
X6.0005Y-3.9706
X6.0056Y-4.327
X6.0064Y-4.6952
X6.0124Y-2.7644
X6.0143Y-4.8606
X6.0193Y-4.7165
X6.0365Y-4.6312
X6.0424Y-4.2414
X6.0424Y-4.2159
X6.0431Y-4.1943
X6.0476Y-4.434
X6.0497Y-3.7795
X6.0504Y-4.4559
X6.0537Y-4.6902
X6.0603Y-4.1764
X6.0646Y-4.8854
X6.068Y-4.0284
X6.0948Y-4.1667
X6.0963Y-4.1896
X6.0963Y-4.214
X6.1008Y-4.303
X6.1054Y-3.7056
X6.1098Y-4.0157
X6.1224Y-3.9742
X6.1252Y-4.303
X6.1284Y-4.1103
X6.1291Y-4.5
X6.1303Y-3.7122
X6.1317Y-4.0475
X6.1457Y-4.0965
X6.1465Y-4.3106
X6.1476Y-3.9748
X6.1551Y-3.7189
X6.1571Y-4.2177
X6.1575Y-4.3482
X6.1657Y-4.4358
X6.1669Y-2.4213
X6.1821Y-2.4606
X6.2087Y-3.913
X6.2134Y-4.8855
X6.2165Y-5.1846
X6.2265Y-3.896
X6.2265Y-3.4461
X6.2424Y-3.88
X6.2441Y-3.4205
X6.2457Y-4.2398
X6.2468Y-4.263
X6.2491Y-3.673
X6.252Y-4.1654
X6.252Y-4.189
X6.2597Y-3.8628
X6.2676Y-3.8131
X6.2749Y-2.3297
X6.2778Y-3.8322
X6.2806Y-4.8589
X6.2987Y-5.1191
X6.3071Y-4.5551
X6.3086Y-5.2923
X6.3217Y-4.0213
X6.3253Y-4.328
X6.3303Y-4.4523
X6.3372Y-3.8461
X6.3397Y-4.4033
X6.3434Y-4.0207
X6.3581Y-5.0419
X6.3583Y-2.8654
X6.3638Y-3.7582
X6.365Y-4.0204
X6.3661Y-4.1878
X6.3866Y-4.0205
X6.3942Y-3.7578
X6.3948Y-2.9072
X6.3949Y-2.9288
X6.3984Y-3.6583
X6.4016Y-4.1878
X6.4246Y-3.7577
X6.4331Y-4.0197
X6.4462Y-3.7568
X6.4462Y-3.8823
X6.4567Y-4.2236
X6.4664Y-5.3163
X6.4669Y-5.2665
X6.4678Y-3.7561
X6.4678Y-3.8823
X6.4894Y-3.7554
X6.4894Y-3.8823
X6.4917Y-2.8193
X6.4921Y-2.8661
X6.499Y-4.0276
X6.5047Y-5.2913
X6.5049Y-2.3297
X6.511Y-3.7547
X6.5111Y-3.8827
X6.5327Y-3.8827
X6.5393Y-4.7028
X6.5411Y-3.3524
X6.5448Y-5.2915
X6.5528Y-4.2256
X6.553Y-4.7274
X6.5548Y-3.8823
X6.5609Y-4.7035
X6.5684Y-4.0266
X6.5824Y-4.7062
X6.5853Y-5.2915
X6.5858Y-5.1161
X6.5898Y-5.0815
X6.604Y-4.7047
X6.6072Y-5.0563
X6.6091Y-3.6717
X6.6094Y-3.698
X6.6244Y-5.115
X6.6349Y-4.7053
X6.6638Y-5.1154
X6.6642Y-5.0819
X6.6685Y-5.0391
X6.6811Y-3.6311
X6.6845Y-3.9813
X6.6863Y-5.011
X6.6894Y-3.9551
X6.7016Y-3.9093
X6.7035Y-3.7453
X6.7035Y-5.1154
X6.7122Y-3.9484
X6.7247Y-3.653
X6.7296Y-3.9129
X6.7406Y-5.0374
X6.7429Y-5.1146
X6.7441Y-2.6376
X6.7449Y-2.6646
X6.7815Y-5.0575
X6.7823Y-5.1138
X6.7849Y-3.6497
X6.8012Y-4.9035
X6.8027Y-3.9567
X6.81Y-3.6531
X6.8213Y-5.0126
X6.8217Y-5.1122
X6.8221Y-3.8445
X6.8249Y-3.7497
X6.8249Y-3.9833
X6.8409Y-4.487
X6.8566Y-3.8422
X6.8749Y-3.7497
X6.8782Y-3.8421
X6.879Y-3.6424
X6.8791Y-4.852
X6.9011Y-3.7746
X6.9028Y-3.8423
X6.9051Y-3.5709
X6.91Y-3.936
X6.9222Y-3.5568
X6.9345Y-3.7057
X6.9591Y-4.2102
X6.9598Y-3.998
X6.9649Y-3.6097
X6.9689Y-4.0205
X7.0061Y-3.2417
X7.0083Y-3.2899
X7.0084Y-3.2655
X7.0085Y-3.3141
X7.0223Y-3.7909
X7.0223Y-3.8161
X7.0315Y-2.3819
X7.0315Y-2.4213
X7.0315Y-2.4606
X7.0315Y-2.5
X7.0348Y-3.6697
X7.0397Y-3.5553
X7.0422Y-3.8929
X7.0422Y-3.6953
X7.0516Y-3.5734
T2
X5.9813Y-2.9433
X5.9813Y-2.9984
X6.0089Y-2.9157
X6.0089Y-2.9709
X6.0089Y-3.026
X6.0364Y-2.9433
X6.0364Y-2.9984
X6.064Y-2.9157
X6.064Y-2.9709
X6.064Y-3.026
X6.0915Y-2.9433
X6.0915Y-2.9984
T3
X4.789Y-4.9583
X5.0268Y-5.1827
X5.0913Y-4.6169
X5.1591Y-5.4268
X5.1957Y-5.4272
X5.2327Y-5.4252
X5.2573Y-5.2419
X5.2661Y-5.1539
X5.326Y-5.3553
X5.3342Y-5.1172
X5.3404Y-5.325
X5.4578Y-2.3364
X5.5433Y-2.6531
X5.5669Y-4.7504
X5.5709Y-5.2244
X5.655Y-2.3411
X5.7228Y-4.4169
X5.7389Y-4.3335
X5.7449Y-3.8996
X5.7723Y-5.3738
X5.7882Y-3.8283
X5.8071Y-2.6575
X5.8291Y-5.2701
X5.8346Y-3.465
X5.8361Y-2.6919
X5.8519Y-2.349
X5.9673Y-5.0388
X6.0192Y-5.2771
X6.0314Y-5.3195
X6.0472Y-3.815
X6.0487Y-2.3427
X6.0645Y-5.364
X6.0973Y-3.8161
X6.1218Y-5.0413
X6.2795Y-4.1299
X6.342Y-4.4919
X6.3571Y-4.1231
X6.3661Y-5.1272
X6.3791Y-4.7077
X6.3834Y-4.6683
X6.4412Y-4.4191
X6.4803Y-4.1299
X6.4849Y-2.6302
X6.4991Y-4.3533
X6.533Y-3.982
X6.5349Y-2.6614
X6.5453Y-5.1157
X6.6785Y-4.0896
X6.6786Y-4.4242
X6.6791Y-4.3865
X6.7067Y-4.6213
X6.7121Y-4.5447
X6.7491Y-5.3738
X6.7831Y-4.2941
X6.8343Y-2.5366
X6.9581Y-3.4188
X6.9641Y-3.6397
X6.965Y-4.1177
T4
X4.789Y-5.0634
X4.789Y-5.1028
X4.8087Y-5.0831
X4.8283Y-5.0634
X4.8283Y-5.1028
T5
X5.1382Y-4.9232
T6
G00X5.7468Y-5.4869
M15
G01X5.7468Y-5.5302
M16
G05
G00X5.7468Y-5.6613
M15
G01X5.7468Y-5.6849
M16
G05
G00X6.0869Y-5.4869
M15
G01X6.0869Y-5.5302
M16
G05
G00X6.0869Y-5.6613
M15
G01X6.0869Y-5.6849
M16
G05
T0
M30
