%TF.GenerationSoftware,KiCad,Pcbnew,(6.0.11)*%
%TF.CreationDate,2023-04-06T14:42:31-07:00*%
%TF.ProjectId,EV5 Board Design,45563520-426f-4617-9264-204465736967,rev?*%
%TF.SameCoordinates,Original*%
%TF.FileFunction,Legend,Top*%
%TF.FilePolarity,Positive*%
%FSLAX46Y46*%
G04 Gerber Fmt 4.6, Leading zero omitted, Abs format (unit mm)*
G04 Created by KiCad (PCBNEW (6.0.11)) date 2023-04-06 14:42:31*
%MOMM*%
%LPD*%
G01*
G04 APERTURE LIST*
G04 Aperture macros list*
%AMRoundRect*
0 Rectangle with rounded corners*
0 $1 Rounding radius*
0 $2 $3 $4 $5 $6 $7 $8 $9 X,Y pos of 4 corners*
0 Add a 4 corners polygon primitive as box body*
4,1,4,$2,$3,$4,$5,$6,$7,$8,$9,$2,$3,0*
0 Add four circle primitives for the rounded corners*
1,1,$1+$1,$2,$3*
1,1,$1+$1,$4,$5*
1,1,$1+$1,$6,$7*
1,1,$1+$1,$8,$9*
0 Add four rect primitives between the rounded corners*
20,1,$1+$1,$2,$3,$4,$5,0*
20,1,$1+$1,$4,$5,$6,$7,0*
20,1,$1+$1,$6,$7,$8,$9,0*
20,1,$1+$1,$8,$9,$2,$3,0*%
G04 Aperture macros list end*
%ADD10C,0.100000*%
%ADD11C,0.300000*%
%ADD12C,0.120000*%
%ADD13C,0.152400*%
%ADD14C,0.127000*%
%ADD15C,0.200000*%
%ADD16C,0.050800*%
%ADD17R,0.500000X1.200000*%
%ADD18R,0.800000X1.500000*%
%ADD19RoundRect,0.250000X0.475000X-0.250000X0.475000X0.250000X-0.475000X0.250000X-0.475000X-0.250000X0*%
%ADD20RoundRect,0.250000X-0.450000X0.262500X-0.450000X-0.262500X0.450000X-0.262500X0.450000X0.262500X0*%
%ADD21RoundRect,0.250000X-0.250000X-0.475000X0.250000X-0.475000X0.250000X0.475000X-0.250000X0.475000X0*%
%ADD22R,0.400000X0.200000*%
%ADD23R,0.400000X0.410000*%
%ADD24RoundRect,0.250000X0.262500X0.450000X-0.262500X0.450000X-0.262500X-0.450000X0.262500X-0.450000X0*%
%ADD25RoundRect,0.250000X0.450000X-0.262500X0.450000X0.262500X-0.450000X0.262500X-0.450000X-0.262500X0*%
%ADD26RoundRect,0.250000X-0.262500X-0.450000X0.262500X-0.450000X0.262500X0.450000X-0.262500X0.450000X0*%
%ADD27RoundRect,0.243750X-0.243750X-0.456250X0.243750X-0.456250X0.243750X0.456250X-0.243750X0.456250X0*%
%ADD28RoundRect,0.250000X-0.475000X0.250000X-0.475000X-0.250000X0.475000X-0.250000X0.475000X0.250000X0*%
%ADD29RoundRect,0.243750X0.243750X0.456250X-0.243750X0.456250X-0.243750X-0.456250X0.243750X-0.456250X0*%
%ADD30RoundRect,0.075000X-0.700000X-0.075000X0.700000X-0.075000X0.700000X0.075000X-0.700000X0.075000X0*%
%ADD31RoundRect,0.075000X-0.075000X-0.700000X0.075000X-0.700000X0.075000X0.700000X-0.075000X0.700000X0*%
%ADD32RoundRect,0.243750X-0.456250X0.243750X-0.456250X-0.243750X0.456250X-0.243750X0.456250X0.243750X0*%
%ADD33R,0.500000X0.375000*%
%ADD34R,0.650000X0.300000*%
%ADD35RoundRect,0.218750X0.218750X0.256250X-0.218750X0.256250X-0.218750X-0.256250X0.218750X-0.256250X0*%
%ADD36RoundRect,0.250000X0.250000X1.500000X-0.250000X1.500000X-0.250000X-1.500000X0.250000X-1.500000X0*%
%ADD37RoundRect,0.250001X0.499999X1.449999X-0.499999X1.449999X-0.499999X-1.449999X0.499999X-1.449999X0*%
%ADD38RoundRect,0.150000X-0.512500X-0.150000X0.512500X-0.150000X0.512500X0.150000X-0.512500X0.150000X0*%
%ADD39R,2.160000X1.120000*%
%ADD40RoundRect,0.250000X0.250000X0.475000X-0.250000X0.475000X-0.250000X-0.475000X0.250000X-0.475000X0*%
%ADD41R,1.701800X0.533400*%
%ADD42RoundRect,0.225000X0.225000X0.250000X-0.225000X0.250000X-0.225000X-0.250000X0.225000X-0.250000X0*%
%ADD43R,1.422400X0.533400*%
%ADD44RoundRect,0.007500X0.372500X0.117500X-0.372500X0.117500X-0.372500X-0.117500X0.372500X-0.117500X0*%
%ADD45RoundRect,0.007500X-0.117500X0.372500X-0.117500X-0.372500X0.117500X-0.372500X0.117500X0.372500X0*%
%ADD46R,3.650000X3.650000*%
%ADD47RoundRect,0.250000X-0.250000X-1.500000X0.250000X-1.500000X0.250000X1.500000X-0.250000X1.500000X0*%
%ADD48RoundRect,0.250001X-0.499999X-1.449999X0.499999X-1.449999X0.499999X1.449999X-0.499999X1.449999X0*%
%ADD49R,0.650000X0.400000*%
%ADD50R,1.500000X1.600000*%
%ADD51C,0.650000*%
%ADD52R,1.450000X0.600000*%
%ADD53R,1.450000X0.300000*%
%ADD54O,1.600000X1.000000*%
%ADD55O,2.100000X1.000000*%
%ADD56R,0.600000X1.200000*%
%ADD57RoundRect,0.225000X0.250000X-0.225000X0.250000X0.225000X-0.250000X0.225000X-0.250000X-0.225000X0*%
%ADD58R,0.600000X0.450000*%
%ADD59R,2.000000X1.500000*%
%ADD60R,2.000000X3.800000*%
%ADD61RoundRect,0.090000X0.895000X0.210000X-0.895000X0.210000X-0.895000X-0.210000X0.895000X-0.210000X0*%
%ADD62RoundRect,0.150000X0.150000X-0.825000X0.150000X0.825000X-0.150000X0.825000X-0.150000X-0.825000X0*%
%ADD63R,0.900000X1.500000*%
%ADD64R,1.500000X0.900000*%
%ADD65R,1.120000X2.160000*%
%ADD66C,0.800000*%
G04 APERTURE END LIST*
D10*
X169250000Y-65270952D02*
X169226190Y-65318571D01*
X169226190Y-65390000D01*
X169250000Y-65461428D01*
X169297619Y-65509047D01*
X169345238Y-65532857D01*
X169440476Y-65556666D01*
X169511904Y-65556666D01*
X169607142Y-65532857D01*
X169654761Y-65509047D01*
X169702380Y-65461428D01*
X169726190Y-65390000D01*
X169726190Y-65342380D01*
X169702380Y-65270952D01*
X169678571Y-65247142D01*
X169511904Y-65247142D01*
X169511904Y-65342380D01*
X169726190Y-65032857D02*
X169226190Y-65032857D01*
X169726190Y-64747142D01*
X169226190Y-64747142D01*
X169726190Y-64509047D02*
X169226190Y-64509047D01*
X169226190Y-64390000D01*
X169250000Y-64318571D01*
X169297619Y-64270952D01*
X169345238Y-64247142D01*
X169440476Y-64223333D01*
X169511904Y-64223333D01*
X169607142Y-64247142D01*
X169654761Y-64270952D01*
X169702380Y-64318571D01*
X169726190Y-64390000D01*
X169726190Y-64509047D01*
X170666190Y-65887142D02*
X170166190Y-65887142D01*
X170166190Y-65696666D01*
X170190000Y-65649047D01*
X170213809Y-65625238D01*
X170261428Y-65601428D01*
X170332857Y-65601428D01*
X170380476Y-65625238D01*
X170404285Y-65649047D01*
X170428095Y-65696666D01*
X170428095Y-65887142D01*
X170404285Y-65220476D02*
X170428095Y-65149047D01*
X170451904Y-65125238D01*
X170499523Y-65101428D01*
X170570952Y-65101428D01*
X170618571Y-65125238D01*
X170642380Y-65149047D01*
X170666190Y-65196666D01*
X170666190Y-65387142D01*
X170166190Y-65387142D01*
X170166190Y-65220476D01*
X170190000Y-65172857D01*
X170213809Y-65149047D01*
X170261428Y-65125238D01*
X170309047Y-65125238D01*
X170356666Y-65149047D01*
X170380476Y-65172857D01*
X170404285Y-65220476D01*
X170404285Y-65387142D01*
X170666190Y-64625238D02*
X170666190Y-64910952D01*
X170666190Y-64768095D02*
X170166190Y-64768095D01*
X170237619Y-64815714D01*
X170285238Y-64863333D01*
X170309047Y-64910952D01*
X170666190Y-64149047D02*
X170666190Y-64434761D01*
X170666190Y-64291904D02*
X170166190Y-64291904D01*
X170237619Y-64339523D01*
X170285238Y-64387142D01*
X170309047Y-64434761D01*
X171696190Y-65977142D02*
X171196190Y-65977142D01*
X171196190Y-65786666D01*
X171220000Y-65739047D01*
X171243809Y-65715238D01*
X171291428Y-65691428D01*
X171362857Y-65691428D01*
X171410476Y-65715238D01*
X171434285Y-65739047D01*
X171458095Y-65786666D01*
X171458095Y-65977142D01*
X171434285Y-65310476D02*
X171458095Y-65239047D01*
X171481904Y-65215238D01*
X171529523Y-65191428D01*
X171600952Y-65191428D01*
X171648571Y-65215238D01*
X171672380Y-65239047D01*
X171696190Y-65286666D01*
X171696190Y-65477142D01*
X171196190Y-65477142D01*
X171196190Y-65310476D01*
X171220000Y-65262857D01*
X171243809Y-65239047D01*
X171291428Y-65215238D01*
X171339047Y-65215238D01*
X171386666Y-65239047D01*
X171410476Y-65262857D01*
X171434285Y-65310476D01*
X171434285Y-65477142D01*
X171696190Y-64715238D02*
X171696190Y-65000952D01*
X171696190Y-64858095D02*
X171196190Y-64858095D01*
X171267619Y-64905714D01*
X171315238Y-64953333D01*
X171339047Y-65000952D01*
X171196190Y-64405714D02*
X171196190Y-64358095D01*
X171220000Y-64310476D01*
X171243809Y-64286666D01*
X171291428Y-64262857D01*
X171386666Y-64239047D01*
X171505714Y-64239047D01*
X171600952Y-64262857D01*
X171648571Y-64286666D01*
X171672380Y-64310476D01*
X171696190Y-64358095D01*
X171696190Y-64405714D01*
X171672380Y-64453333D01*
X171648571Y-64477142D01*
X171600952Y-64500952D01*
X171505714Y-64524761D01*
X171386666Y-64524761D01*
X171291428Y-64500952D01*
X171243809Y-64477142D01*
X171220000Y-64453333D01*
X171196190Y-64405714D01*
X172156190Y-65496666D02*
X172656190Y-65330000D01*
X172156190Y-65163333D01*
X172608571Y-64710952D02*
X172632380Y-64734761D01*
X172656190Y-64806190D01*
X172656190Y-64853809D01*
X172632380Y-64925238D01*
X172584761Y-64972857D01*
X172537142Y-64996666D01*
X172441904Y-65020476D01*
X172370476Y-65020476D01*
X172275238Y-64996666D01*
X172227619Y-64972857D01*
X172180000Y-64925238D01*
X172156190Y-64853809D01*
X172156190Y-64806190D01*
X172180000Y-64734761D01*
X172203809Y-64710952D01*
X172608571Y-64210952D02*
X172632380Y-64234761D01*
X172656190Y-64306190D01*
X172656190Y-64353809D01*
X172632380Y-64425238D01*
X172584761Y-64472857D01*
X172537142Y-64496666D01*
X172441904Y-64520476D01*
X172370476Y-64520476D01*
X172275238Y-64496666D01*
X172227619Y-64472857D01*
X172180000Y-64425238D01*
X172156190Y-64353809D01*
X172156190Y-64306190D01*
X172180000Y-64234761D01*
X172203809Y-64210952D01*
X176686190Y-65489047D02*
X176186190Y-65489047D01*
X176186190Y-65298571D01*
X176210000Y-65250952D01*
X176233809Y-65227142D01*
X176281428Y-65203333D01*
X176352857Y-65203333D01*
X176400476Y-65227142D01*
X176424285Y-65250952D01*
X176448095Y-65298571D01*
X176448095Y-65489047D01*
X176638571Y-64703333D02*
X176662380Y-64727142D01*
X176686190Y-64798571D01*
X176686190Y-64846190D01*
X176662380Y-64917619D01*
X176614761Y-64965238D01*
X176567142Y-64989047D01*
X176471904Y-65012857D01*
X176400476Y-65012857D01*
X176305238Y-64989047D01*
X176257619Y-64965238D01*
X176210000Y-64917619D01*
X176186190Y-64846190D01*
X176186190Y-64798571D01*
X176210000Y-64727142D01*
X176233809Y-64703333D01*
X176186190Y-64536666D02*
X176186190Y-64203333D01*
X176686190Y-64417619D01*
X177676190Y-65509047D02*
X177176190Y-65509047D01*
X177176190Y-65318571D01*
X177200000Y-65270952D01*
X177223809Y-65247142D01*
X177271428Y-65223333D01*
X177342857Y-65223333D01*
X177390476Y-65247142D01*
X177414285Y-65270952D01*
X177438095Y-65318571D01*
X177438095Y-65509047D01*
X177628571Y-64723333D02*
X177652380Y-64747142D01*
X177676190Y-64818571D01*
X177676190Y-64866190D01*
X177652380Y-64937619D01*
X177604761Y-64985238D01*
X177557142Y-65009047D01*
X177461904Y-65032857D01*
X177390476Y-65032857D01*
X177295238Y-65009047D01*
X177247619Y-64985238D01*
X177200000Y-64937619D01*
X177176190Y-64866190D01*
X177176190Y-64818571D01*
X177200000Y-64747142D01*
X177223809Y-64723333D01*
X177176190Y-64294761D02*
X177176190Y-64390000D01*
X177200000Y-64437619D01*
X177223809Y-64461428D01*
X177295238Y-64509047D01*
X177390476Y-64532857D01*
X177580952Y-64532857D01*
X177628571Y-64509047D01*
X177652380Y-64485238D01*
X177676190Y-64437619D01*
X177676190Y-64342380D01*
X177652380Y-64294761D01*
X177628571Y-64270952D01*
X177580952Y-64247142D01*
X177461904Y-64247142D01*
X177414285Y-64270952D01*
X177390476Y-64294761D01*
X177366666Y-64342380D01*
X177366666Y-64437619D01*
X177390476Y-64485238D01*
X177414285Y-64509047D01*
X177461904Y-64532857D01*
X178686190Y-65993809D02*
X178686190Y-66231904D01*
X178186190Y-66231904D01*
X178686190Y-65827142D02*
X178186190Y-65827142D01*
X178686190Y-65541428D01*
X178186190Y-65541428D01*
X178733809Y-65422380D02*
X178733809Y-65041428D01*
X178233809Y-64946190D02*
X178210000Y-64922380D01*
X178186190Y-64874761D01*
X178186190Y-64755714D01*
X178210000Y-64708095D01*
X178233809Y-64684285D01*
X178281428Y-64660476D01*
X178329047Y-64660476D01*
X178400476Y-64684285D01*
X178686190Y-64970000D01*
X178686190Y-64660476D01*
X178186190Y-64493809D02*
X178186190Y-64184285D01*
X178376666Y-64350952D01*
X178376666Y-64279523D01*
X178400476Y-64231904D01*
X178424285Y-64208095D01*
X178471904Y-64184285D01*
X178590952Y-64184285D01*
X178638571Y-64208095D01*
X178662380Y-64231904D01*
X178686190Y-64279523D01*
X178686190Y-64422380D01*
X178662380Y-64470000D01*
X178638571Y-64493809D01*
X179716190Y-65961904D02*
X179716190Y-66200000D01*
X179216190Y-66200000D01*
X179716190Y-65795238D02*
X179216190Y-65795238D01*
X179216190Y-65604761D01*
X179240000Y-65557142D01*
X179263809Y-65533333D01*
X179311428Y-65509523D01*
X179382857Y-65509523D01*
X179430476Y-65533333D01*
X179454285Y-65557142D01*
X179478095Y-65604761D01*
X179478095Y-65795238D01*
X179763809Y-65414285D02*
X179763809Y-65033333D01*
X179263809Y-64938095D02*
X179240000Y-64914285D01*
X179216190Y-64866666D01*
X179216190Y-64747619D01*
X179240000Y-64700000D01*
X179263809Y-64676190D01*
X179311428Y-64652380D01*
X179359047Y-64652380D01*
X179430476Y-64676190D01*
X179716190Y-64961904D01*
X179716190Y-64652380D01*
X179216190Y-64200000D02*
X179216190Y-64438095D01*
X179454285Y-64461904D01*
X179430476Y-64438095D01*
X179406666Y-64390476D01*
X179406666Y-64271428D01*
X179430476Y-64223809D01*
X179454285Y-64200000D01*
X179501904Y-64176190D01*
X179620952Y-64176190D01*
X179668571Y-64200000D01*
X179692380Y-64223809D01*
X179716190Y-64271428D01*
X179716190Y-64390476D01*
X179692380Y-64438095D01*
X179668571Y-64461904D01*
X180916190Y-66053809D02*
X180678095Y-66220476D01*
X180916190Y-66339523D02*
X180416190Y-66339523D01*
X180416190Y-66149047D01*
X180440000Y-66101428D01*
X180463809Y-66077619D01*
X180511428Y-66053809D01*
X180582857Y-66053809D01*
X180630476Y-66077619D01*
X180654285Y-66101428D01*
X180678095Y-66149047D01*
X180678095Y-66339523D01*
X180916190Y-65839523D02*
X180416190Y-65839523D01*
X180916190Y-65553809D01*
X180416190Y-65553809D01*
X180963809Y-65434761D02*
X180963809Y-65053809D01*
X180916190Y-64672857D02*
X180916190Y-64958571D01*
X180916190Y-64815714D02*
X180416190Y-64815714D01*
X180487619Y-64863333D01*
X180535238Y-64910952D01*
X180559047Y-64958571D01*
X180916190Y-64434761D02*
X180916190Y-64339523D01*
X180892380Y-64291904D01*
X180868571Y-64268095D01*
X180797142Y-64220476D01*
X180701904Y-64196666D01*
X180511428Y-64196666D01*
X180463809Y-64220476D01*
X180440000Y-64244285D01*
X180416190Y-64291904D01*
X180416190Y-64387142D01*
X180440000Y-64434761D01*
X180463809Y-64458571D01*
X180511428Y-64482380D01*
X180630476Y-64482380D01*
X180678095Y-64458571D01*
X180701904Y-64434761D01*
X180725714Y-64387142D01*
X180725714Y-64291904D01*
X180701904Y-64244285D01*
X180678095Y-64220476D01*
X180630476Y-64196666D01*
X181936190Y-65991904D02*
X181698095Y-66158571D01*
X181936190Y-66277619D02*
X181436190Y-66277619D01*
X181436190Y-66087142D01*
X181460000Y-66039523D01*
X181483809Y-66015714D01*
X181531428Y-65991904D01*
X181602857Y-65991904D01*
X181650476Y-66015714D01*
X181674285Y-66039523D01*
X181698095Y-66087142D01*
X181698095Y-66277619D01*
X181936190Y-65777619D02*
X181436190Y-65777619D01*
X181436190Y-65587142D01*
X181460000Y-65539523D01*
X181483809Y-65515714D01*
X181531428Y-65491904D01*
X181602857Y-65491904D01*
X181650476Y-65515714D01*
X181674285Y-65539523D01*
X181698095Y-65587142D01*
X181698095Y-65777619D01*
X181983809Y-65396666D02*
X181983809Y-65015714D01*
X181483809Y-64920476D02*
X181460000Y-64896666D01*
X181436190Y-64849047D01*
X181436190Y-64730000D01*
X181460000Y-64682380D01*
X181483809Y-64658571D01*
X181531428Y-64634761D01*
X181579047Y-64634761D01*
X181650476Y-64658571D01*
X181936190Y-64944285D01*
X181936190Y-64634761D01*
X181483809Y-64444285D02*
X181460000Y-64420476D01*
X181436190Y-64372857D01*
X181436190Y-64253809D01*
X181460000Y-64206190D01*
X181483809Y-64182380D01*
X181531428Y-64158571D01*
X181579047Y-64158571D01*
X181650476Y-64182380D01*
X181936190Y-64468095D01*
X181936190Y-64158571D01*
X165606190Y-109696666D02*
X166106190Y-109530000D01*
X165606190Y-109363333D01*
X166058571Y-108910952D02*
X166082380Y-108934761D01*
X166106190Y-109006190D01*
X166106190Y-109053809D01*
X166082380Y-109125238D01*
X166034761Y-109172857D01*
X165987142Y-109196666D01*
X165891904Y-109220476D01*
X165820476Y-109220476D01*
X165725238Y-109196666D01*
X165677619Y-109172857D01*
X165630000Y-109125238D01*
X165606190Y-109053809D01*
X165606190Y-109006190D01*
X165630000Y-108934761D01*
X165653809Y-108910952D01*
X166058571Y-108410952D02*
X166082380Y-108434761D01*
X166106190Y-108506190D01*
X166106190Y-108553809D01*
X166082380Y-108625238D01*
X166034761Y-108672857D01*
X165987142Y-108696666D01*
X165891904Y-108720476D01*
X165820476Y-108720476D01*
X165725238Y-108696666D01*
X165677619Y-108672857D01*
X165630000Y-108625238D01*
X165606190Y-108553809D01*
X165606190Y-108506190D01*
X165630000Y-108434761D01*
X165653809Y-108410952D01*
X167056190Y-109698095D02*
X166556190Y-109698095D01*
X166556190Y-109364761D02*
X166556190Y-109269523D01*
X166580000Y-109221904D01*
X166627619Y-109174285D01*
X166722857Y-109150476D01*
X166889523Y-109150476D01*
X166984761Y-109174285D01*
X167032380Y-109221904D01*
X167056190Y-109269523D01*
X167056190Y-109364761D01*
X167032380Y-109412380D01*
X166984761Y-109460000D01*
X166889523Y-109483809D01*
X166722857Y-109483809D01*
X166627619Y-109460000D01*
X166580000Y-109412380D01*
X166556190Y-109364761D01*
X166722857Y-108721904D02*
X167056190Y-108721904D01*
X166532380Y-108840952D02*
X166889523Y-108960000D01*
X166889523Y-108650476D01*
X166556190Y-108507619D02*
X166556190Y-108174285D01*
X167056190Y-108388571D01*
X168076190Y-109598095D02*
X167576190Y-109598095D01*
X167576190Y-109264761D02*
X167576190Y-109169523D01*
X167600000Y-109121904D01*
X167647619Y-109074285D01*
X167742857Y-109050476D01*
X167909523Y-109050476D01*
X168004761Y-109074285D01*
X168052380Y-109121904D01*
X168076190Y-109169523D01*
X168076190Y-109264761D01*
X168052380Y-109312380D01*
X168004761Y-109360000D01*
X167909523Y-109383809D01*
X167742857Y-109383809D01*
X167647619Y-109360000D01*
X167600000Y-109312380D01*
X167576190Y-109264761D01*
X167742857Y-108621904D02*
X168076190Y-108621904D01*
X167552380Y-108740952D02*
X167909523Y-108860000D01*
X167909523Y-108550476D01*
X167790476Y-108288571D02*
X167766666Y-108336190D01*
X167742857Y-108360000D01*
X167695238Y-108383809D01*
X167671428Y-108383809D01*
X167623809Y-108360000D01*
X167600000Y-108336190D01*
X167576190Y-108288571D01*
X167576190Y-108193333D01*
X167600000Y-108145714D01*
X167623809Y-108121904D01*
X167671428Y-108098095D01*
X167695238Y-108098095D01*
X167742857Y-108121904D01*
X167766666Y-108145714D01*
X167790476Y-108193333D01*
X167790476Y-108288571D01*
X167814285Y-108336190D01*
X167838095Y-108360000D01*
X167885714Y-108383809D01*
X167980952Y-108383809D01*
X168028571Y-108360000D01*
X168052380Y-108336190D01*
X168076190Y-108288571D01*
X168076190Y-108193333D01*
X168052380Y-108145714D01*
X168028571Y-108121904D01*
X167980952Y-108098095D01*
X167885714Y-108098095D01*
X167838095Y-108121904D01*
X167814285Y-108145714D01*
X167790476Y-108193333D01*
X168670000Y-109320952D02*
X168646190Y-109368571D01*
X168646190Y-109440000D01*
X168670000Y-109511428D01*
X168717619Y-109559047D01*
X168765238Y-109582857D01*
X168860476Y-109606666D01*
X168931904Y-109606666D01*
X169027142Y-109582857D01*
X169074761Y-109559047D01*
X169122380Y-109511428D01*
X169146190Y-109440000D01*
X169146190Y-109392380D01*
X169122380Y-109320952D01*
X169098571Y-109297142D01*
X168931904Y-109297142D01*
X168931904Y-109392380D01*
X169146190Y-109082857D02*
X168646190Y-109082857D01*
X169146190Y-108797142D01*
X168646190Y-108797142D01*
X169146190Y-108559047D02*
X168646190Y-108559047D01*
X168646190Y-108440000D01*
X168670000Y-108368571D01*
X168717619Y-108320952D01*
X168765238Y-108297142D01*
X168860476Y-108273333D01*
X168931904Y-108273333D01*
X169027142Y-108297142D01*
X169074761Y-108320952D01*
X169122380Y-108368571D01*
X169146190Y-108440000D01*
X169146190Y-108559047D01*
X173596190Y-109586666D02*
X174096190Y-109420000D01*
X173596190Y-109253333D01*
X174048571Y-108800952D02*
X174072380Y-108824761D01*
X174096190Y-108896190D01*
X174096190Y-108943809D01*
X174072380Y-109015238D01*
X174024761Y-109062857D01*
X173977142Y-109086666D01*
X173881904Y-109110476D01*
X173810476Y-109110476D01*
X173715238Y-109086666D01*
X173667619Y-109062857D01*
X173620000Y-109015238D01*
X173596190Y-108943809D01*
X173596190Y-108896190D01*
X173620000Y-108824761D01*
X173643809Y-108800952D01*
X174048571Y-108300952D02*
X174072380Y-108324761D01*
X174096190Y-108396190D01*
X174096190Y-108443809D01*
X174072380Y-108515238D01*
X174024761Y-108562857D01*
X173977142Y-108586666D01*
X173881904Y-108610476D01*
X173810476Y-108610476D01*
X173715238Y-108586666D01*
X173667619Y-108562857D01*
X173620000Y-108515238D01*
X173596190Y-108443809D01*
X173596190Y-108396190D01*
X173620000Y-108324761D01*
X173643809Y-108300952D01*
X175136190Y-109539047D02*
X174636190Y-109539047D01*
X174636190Y-109348571D01*
X174660000Y-109300952D01*
X174683809Y-109277142D01*
X174731428Y-109253333D01*
X174802857Y-109253333D01*
X174850476Y-109277142D01*
X174874285Y-109300952D01*
X174898095Y-109348571D01*
X174898095Y-109539047D01*
X174874285Y-108872380D02*
X174898095Y-108800952D01*
X174921904Y-108777142D01*
X174969523Y-108753333D01*
X175040952Y-108753333D01*
X175088571Y-108777142D01*
X175112380Y-108800952D01*
X175136190Y-108848571D01*
X175136190Y-109039047D01*
X174636190Y-109039047D01*
X174636190Y-108872380D01*
X174660000Y-108824761D01*
X174683809Y-108800952D01*
X174731428Y-108777142D01*
X174779047Y-108777142D01*
X174826666Y-108800952D01*
X174850476Y-108824761D01*
X174874285Y-108872380D01*
X174874285Y-109039047D01*
X174636190Y-108324761D02*
X174636190Y-108420000D01*
X174660000Y-108467619D01*
X174683809Y-108491428D01*
X174755238Y-108539047D01*
X174850476Y-108562857D01*
X175040952Y-108562857D01*
X175088571Y-108539047D01*
X175112380Y-108515238D01*
X175136190Y-108467619D01*
X175136190Y-108372380D01*
X175112380Y-108324761D01*
X175088571Y-108300952D01*
X175040952Y-108277142D01*
X174921904Y-108277142D01*
X174874285Y-108300952D01*
X174850476Y-108324761D01*
X174826666Y-108372380D01*
X174826666Y-108467619D01*
X174850476Y-108515238D01*
X174874285Y-108539047D01*
X174921904Y-108562857D01*
X176166190Y-109539047D02*
X175666190Y-109539047D01*
X175666190Y-109348571D01*
X175690000Y-109300952D01*
X175713809Y-109277142D01*
X175761428Y-109253333D01*
X175832857Y-109253333D01*
X175880476Y-109277142D01*
X175904285Y-109300952D01*
X175928095Y-109348571D01*
X175928095Y-109539047D01*
X175904285Y-108872380D02*
X175928095Y-108800952D01*
X175951904Y-108777142D01*
X175999523Y-108753333D01*
X176070952Y-108753333D01*
X176118571Y-108777142D01*
X176142380Y-108800952D01*
X176166190Y-108848571D01*
X176166190Y-109039047D01*
X175666190Y-109039047D01*
X175666190Y-108872380D01*
X175690000Y-108824761D01*
X175713809Y-108800952D01*
X175761428Y-108777142D01*
X175809047Y-108777142D01*
X175856666Y-108800952D01*
X175880476Y-108824761D01*
X175904285Y-108872380D01*
X175904285Y-109039047D01*
X175666190Y-108586666D02*
X175666190Y-108253333D01*
X176166190Y-108467619D01*
X176730000Y-109380952D02*
X176706190Y-109428571D01*
X176706190Y-109500000D01*
X176730000Y-109571428D01*
X176777619Y-109619047D01*
X176825238Y-109642857D01*
X176920476Y-109666666D01*
X176991904Y-109666666D01*
X177087142Y-109642857D01*
X177134761Y-109619047D01*
X177182380Y-109571428D01*
X177206190Y-109500000D01*
X177206190Y-109452380D01*
X177182380Y-109380952D01*
X177158571Y-109357142D01*
X176991904Y-109357142D01*
X176991904Y-109452380D01*
X177206190Y-109142857D02*
X176706190Y-109142857D01*
X177206190Y-108857142D01*
X176706190Y-108857142D01*
X177206190Y-108619047D02*
X176706190Y-108619047D01*
X176706190Y-108500000D01*
X176730000Y-108428571D01*
X176777619Y-108380952D01*
X176825238Y-108357142D01*
X176920476Y-108333333D01*
X176991904Y-108333333D01*
X177087142Y-108357142D01*
X177134761Y-108380952D01*
X177182380Y-108428571D01*
X177206190Y-108500000D01*
X177206190Y-108619047D01*
X183826190Y-105596666D02*
X184326190Y-105430000D01*
X183826190Y-105263333D01*
X184278571Y-104810952D02*
X184302380Y-104834761D01*
X184326190Y-104906190D01*
X184326190Y-104953809D01*
X184302380Y-105025238D01*
X184254761Y-105072857D01*
X184207142Y-105096666D01*
X184111904Y-105120476D01*
X184040476Y-105120476D01*
X183945238Y-105096666D01*
X183897619Y-105072857D01*
X183850000Y-105025238D01*
X183826190Y-104953809D01*
X183826190Y-104906190D01*
X183850000Y-104834761D01*
X183873809Y-104810952D01*
X184278571Y-104310952D02*
X184302380Y-104334761D01*
X184326190Y-104406190D01*
X184326190Y-104453809D01*
X184302380Y-104525238D01*
X184254761Y-104572857D01*
X184207142Y-104596666D01*
X184111904Y-104620476D01*
X184040476Y-104620476D01*
X183945238Y-104596666D01*
X183897619Y-104572857D01*
X183850000Y-104525238D01*
X183826190Y-104453809D01*
X183826190Y-104406190D01*
X183850000Y-104334761D01*
X183873809Y-104310952D01*
X186316190Y-105731428D02*
X185816190Y-105731428D01*
X185816190Y-105540952D01*
X185840000Y-105493333D01*
X185863809Y-105469523D01*
X185911428Y-105445714D01*
X185982857Y-105445714D01*
X186030476Y-105469523D01*
X186054285Y-105493333D01*
X186078095Y-105540952D01*
X186078095Y-105731428D01*
X186173333Y-105255238D02*
X186173333Y-105017142D01*
X186316190Y-105302857D02*
X185816190Y-105136190D01*
X186316190Y-104969523D01*
X186316190Y-104540952D02*
X186316190Y-104826666D01*
X186316190Y-104683809D02*
X185816190Y-104683809D01*
X185887619Y-104731428D01*
X185935238Y-104779047D01*
X185959047Y-104826666D01*
X185816190Y-104374285D02*
X185816190Y-104064761D01*
X186006666Y-104231428D01*
X186006666Y-104160000D01*
X186030476Y-104112380D01*
X186054285Y-104088571D01*
X186101904Y-104064761D01*
X186220952Y-104064761D01*
X186268571Y-104088571D01*
X186292380Y-104112380D01*
X186316190Y-104160000D01*
X186316190Y-104302857D01*
X186292380Y-104350476D01*
X186268571Y-104374285D01*
X188306190Y-105811428D02*
X187806190Y-105811428D01*
X187806190Y-105620952D01*
X187830000Y-105573333D01*
X187853809Y-105549523D01*
X187901428Y-105525714D01*
X187972857Y-105525714D01*
X188020476Y-105549523D01*
X188044285Y-105573333D01*
X188068095Y-105620952D01*
X188068095Y-105811428D01*
X188163333Y-105335238D02*
X188163333Y-105097142D01*
X188306190Y-105382857D02*
X187806190Y-105216190D01*
X188306190Y-105049523D01*
X188306190Y-104620952D02*
X188306190Y-104906666D01*
X188306190Y-104763809D02*
X187806190Y-104763809D01*
X187877619Y-104811428D01*
X187925238Y-104859047D01*
X187949047Y-104906666D01*
X187972857Y-104192380D02*
X188306190Y-104192380D01*
X187782380Y-104311428D02*
X188139523Y-104430476D01*
X188139523Y-104120952D01*
X189910000Y-105370952D02*
X189886190Y-105418571D01*
X189886190Y-105490000D01*
X189910000Y-105561428D01*
X189957619Y-105609047D01*
X190005238Y-105632857D01*
X190100476Y-105656666D01*
X190171904Y-105656666D01*
X190267142Y-105632857D01*
X190314761Y-105609047D01*
X190362380Y-105561428D01*
X190386190Y-105490000D01*
X190386190Y-105442380D01*
X190362380Y-105370952D01*
X190338571Y-105347142D01*
X190171904Y-105347142D01*
X190171904Y-105442380D01*
X190386190Y-105132857D02*
X189886190Y-105132857D01*
X190386190Y-104847142D01*
X189886190Y-104847142D01*
X190386190Y-104609047D02*
X189886190Y-104609047D01*
X189886190Y-104490000D01*
X189910000Y-104418571D01*
X189957619Y-104370952D01*
X190005238Y-104347142D01*
X190100476Y-104323333D01*
X190171904Y-104323333D01*
X190267142Y-104347142D01*
X190314761Y-104370952D01*
X190362380Y-104418571D01*
X190386190Y-104490000D01*
X190386190Y-104609047D01*
X106826190Y-68499047D02*
X106326190Y-68499047D01*
X106326190Y-68308571D01*
X106350000Y-68260952D01*
X106373809Y-68237142D01*
X106421428Y-68213333D01*
X106492857Y-68213333D01*
X106540476Y-68237142D01*
X106564285Y-68260952D01*
X106588095Y-68308571D01*
X106588095Y-68499047D01*
X106564285Y-67832380D02*
X106588095Y-67760952D01*
X106611904Y-67737142D01*
X106659523Y-67713333D01*
X106730952Y-67713333D01*
X106778571Y-67737142D01*
X106802380Y-67760952D01*
X106826190Y-67808571D01*
X106826190Y-67999047D01*
X106326190Y-67999047D01*
X106326190Y-67832380D01*
X106350000Y-67784761D01*
X106373809Y-67760952D01*
X106421428Y-67737142D01*
X106469047Y-67737142D01*
X106516666Y-67760952D01*
X106540476Y-67784761D01*
X106564285Y-67832380D01*
X106564285Y-67999047D01*
X106326190Y-67403809D02*
X106326190Y-67356190D01*
X106350000Y-67308571D01*
X106373809Y-67284761D01*
X106421428Y-67260952D01*
X106516666Y-67237142D01*
X106635714Y-67237142D01*
X106730952Y-67260952D01*
X106778571Y-67284761D01*
X106802380Y-67308571D01*
X106826190Y-67356190D01*
X106826190Y-67403809D01*
X106802380Y-67451428D01*
X106778571Y-67475238D01*
X106730952Y-67499047D01*
X106635714Y-67522857D01*
X106516666Y-67522857D01*
X106421428Y-67499047D01*
X106373809Y-67475238D01*
X106350000Y-67451428D01*
X106326190Y-67403809D01*
X201706190Y-68584285D02*
X201206190Y-68584285D01*
X201563333Y-68417619D01*
X201206190Y-68250952D01*
X201706190Y-68250952D01*
X201706190Y-68012857D02*
X201206190Y-68012857D01*
X201658571Y-67489047D02*
X201682380Y-67512857D01*
X201706190Y-67584285D01*
X201706190Y-67631904D01*
X201682380Y-67703333D01*
X201634761Y-67750952D01*
X201587142Y-67774761D01*
X201491904Y-67798571D01*
X201420476Y-67798571D01*
X201325238Y-67774761D01*
X201277619Y-67750952D01*
X201230000Y-67703333D01*
X201206190Y-67631904D01*
X201206190Y-67584285D01*
X201230000Y-67512857D01*
X201253809Y-67489047D01*
X201753809Y-67393809D02*
X201753809Y-67012857D01*
X201706190Y-66631904D02*
X201706190Y-66917619D01*
X201706190Y-66774761D02*
X201206190Y-66774761D01*
X201277619Y-66822380D01*
X201325238Y-66870000D01*
X201349047Y-66917619D01*
X207246190Y-67876666D02*
X207746190Y-67710000D01*
X207246190Y-67543333D01*
X207698571Y-67090952D02*
X207722380Y-67114761D01*
X207746190Y-67186190D01*
X207746190Y-67233809D01*
X207722380Y-67305238D01*
X207674761Y-67352857D01*
X207627142Y-67376666D01*
X207531904Y-67400476D01*
X207460476Y-67400476D01*
X207365238Y-67376666D01*
X207317619Y-67352857D01*
X207270000Y-67305238D01*
X207246190Y-67233809D01*
X207246190Y-67186190D01*
X207270000Y-67114761D01*
X207293809Y-67090952D01*
X207698571Y-66590952D02*
X207722380Y-66614761D01*
X207746190Y-66686190D01*
X207746190Y-66733809D01*
X207722380Y-66805238D01*
X207674761Y-66852857D01*
X207627142Y-66876666D01*
X207531904Y-66900476D01*
X207460476Y-66900476D01*
X207365238Y-66876666D01*
X207317619Y-66852857D01*
X207270000Y-66805238D01*
X207246190Y-66733809D01*
X207246190Y-66686190D01*
X207270000Y-66614761D01*
X207293809Y-66590952D01*
X147916190Y-67953809D02*
X147678095Y-68120476D01*
X147916190Y-68239523D02*
X147416190Y-68239523D01*
X147416190Y-68049047D01*
X147440000Y-68001428D01*
X147463809Y-67977619D01*
X147511428Y-67953809D01*
X147582857Y-67953809D01*
X147630476Y-67977619D01*
X147654285Y-68001428D01*
X147678095Y-68049047D01*
X147678095Y-68239523D01*
X147416190Y-67810952D02*
X147416190Y-67525238D01*
X147916190Y-67668095D02*
X147416190Y-67668095D01*
X147892380Y-67382380D02*
X147916190Y-67310952D01*
X147916190Y-67191904D01*
X147892380Y-67144285D01*
X147868571Y-67120476D01*
X147820952Y-67096666D01*
X147773333Y-67096666D01*
X147725714Y-67120476D01*
X147701904Y-67144285D01*
X147678095Y-67191904D01*
X147654285Y-67287142D01*
X147630476Y-67334761D01*
X147606666Y-67358571D01*
X147559047Y-67382380D01*
X147511428Y-67382380D01*
X147463809Y-67358571D01*
X147440000Y-67334761D01*
X147416190Y-67287142D01*
X147416190Y-67168095D01*
X147440000Y-67096666D01*
X182548571Y-88578571D02*
X182572380Y-88602380D01*
X182596190Y-88673809D01*
X182596190Y-88721428D01*
X182572380Y-88792857D01*
X182524761Y-88840476D01*
X182477142Y-88864285D01*
X182381904Y-88888095D01*
X182310476Y-88888095D01*
X182215238Y-88864285D01*
X182167619Y-88840476D01*
X182120000Y-88792857D01*
X182096190Y-88721428D01*
X182096190Y-88673809D01*
X182120000Y-88602380D01*
X182143809Y-88578571D01*
X182596190Y-88126190D02*
X182596190Y-88364285D01*
X182096190Y-88364285D01*
X182596190Y-87959523D02*
X182096190Y-87959523D01*
X182596190Y-87673809D02*
X182310476Y-87888095D01*
X182096190Y-87673809D02*
X182381904Y-87959523D01*
X182596190Y-87197619D02*
X182596190Y-87483333D01*
X182596190Y-87340476D02*
X182096190Y-87340476D01*
X182167619Y-87388095D01*
X182215238Y-87435714D01*
X182239047Y-87483333D01*
X182643809Y-87102380D02*
X182643809Y-86721428D01*
X182572380Y-86626190D02*
X182596190Y-86554761D01*
X182596190Y-86435714D01*
X182572380Y-86388095D01*
X182548571Y-86364285D01*
X182500952Y-86340476D01*
X182453333Y-86340476D01*
X182405714Y-86364285D01*
X182381904Y-86388095D01*
X182358095Y-86435714D01*
X182334285Y-86530952D01*
X182310476Y-86578571D01*
X182286666Y-86602380D01*
X182239047Y-86626190D01*
X182191428Y-86626190D01*
X182143809Y-86602380D01*
X182120000Y-86578571D01*
X182096190Y-86530952D01*
X182096190Y-86411904D01*
X182120000Y-86340476D01*
X182262857Y-86173809D02*
X182596190Y-86078571D01*
X182358095Y-85983333D01*
X182596190Y-85888095D01*
X182262857Y-85792857D01*
X182596190Y-85602380D02*
X182262857Y-85602380D01*
X182096190Y-85602380D02*
X182120000Y-85626190D01*
X182143809Y-85602380D01*
X182120000Y-85578571D01*
X182096190Y-85602380D01*
X182143809Y-85602380D01*
X182262857Y-85435714D02*
X182262857Y-85245238D01*
X182096190Y-85364285D02*
X182524761Y-85364285D01*
X182572380Y-85340476D01*
X182596190Y-85292857D01*
X182596190Y-85245238D01*
X182572380Y-84864285D02*
X182596190Y-84911904D01*
X182596190Y-85007142D01*
X182572380Y-85054761D01*
X182548571Y-85078571D01*
X182500952Y-85102380D01*
X182358095Y-85102380D01*
X182310476Y-85078571D01*
X182286666Y-85054761D01*
X182262857Y-85007142D01*
X182262857Y-84911904D01*
X182286666Y-84864285D01*
X182596190Y-84650000D02*
X182096190Y-84650000D01*
X182596190Y-84435714D02*
X182334285Y-84435714D01*
X182286666Y-84459523D01*
X182262857Y-84507142D01*
X182262857Y-84578571D01*
X182286666Y-84626190D01*
X182310476Y-84650000D01*
X114300952Y-104526190D02*
X114300952Y-104026190D01*
X114634285Y-104026190D02*
X114729523Y-104026190D01*
X114777142Y-104050000D01*
X114824761Y-104097619D01*
X114848571Y-104192857D01*
X114848571Y-104359523D01*
X114824761Y-104454761D01*
X114777142Y-104502380D01*
X114729523Y-104526190D01*
X114634285Y-104526190D01*
X114586666Y-104502380D01*
X114539047Y-104454761D01*
X114515238Y-104359523D01*
X114515238Y-104192857D01*
X114539047Y-104097619D01*
X114586666Y-104050000D01*
X114634285Y-104026190D01*
X115277142Y-104026190D02*
X115181904Y-104026190D01*
X115134285Y-104050000D01*
X115110476Y-104073809D01*
X115062857Y-104145238D01*
X115039047Y-104240476D01*
X115039047Y-104430952D01*
X115062857Y-104478571D01*
X115086666Y-104502380D01*
X115134285Y-104526190D01*
X115229523Y-104526190D01*
X115277142Y-104502380D01*
X115300952Y-104478571D01*
X115324761Y-104430952D01*
X115324761Y-104311904D01*
X115300952Y-104264285D01*
X115277142Y-104240476D01*
X115229523Y-104216666D01*
X115134285Y-104216666D01*
X115086666Y-104240476D01*
X115062857Y-104264285D01*
X115039047Y-104311904D01*
X115420000Y-104573809D02*
X115800952Y-104573809D01*
X116158095Y-104526190D02*
X115920000Y-104526190D01*
X115920000Y-104026190D01*
X116324761Y-104264285D02*
X116491428Y-104264285D01*
X116562857Y-104526190D02*
X116324761Y-104526190D01*
X116324761Y-104026190D01*
X116562857Y-104026190D01*
X116777142Y-104526190D02*
X116777142Y-104026190D01*
X116896190Y-104026190D01*
X116967619Y-104050000D01*
X117015238Y-104097619D01*
X117039047Y-104145238D01*
X117062857Y-104240476D01*
X117062857Y-104311904D01*
X117039047Y-104407142D01*
X117015238Y-104454761D01*
X116967619Y-104502380D01*
X116896190Y-104526190D01*
X116777142Y-104526190D01*
X124200000Y-67840952D02*
X124176190Y-67888571D01*
X124176190Y-67960000D01*
X124200000Y-68031428D01*
X124247619Y-68079047D01*
X124295238Y-68102857D01*
X124390476Y-68126666D01*
X124461904Y-68126666D01*
X124557142Y-68102857D01*
X124604761Y-68079047D01*
X124652380Y-68031428D01*
X124676190Y-67960000D01*
X124676190Y-67912380D01*
X124652380Y-67840952D01*
X124628571Y-67817142D01*
X124461904Y-67817142D01*
X124461904Y-67912380D01*
X124676190Y-67602857D02*
X124176190Y-67602857D01*
X124676190Y-67317142D01*
X124176190Y-67317142D01*
X124676190Y-67079047D02*
X124176190Y-67079047D01*
X124176190Y-66960000D01*
X124200000Y-66888571D01*
X124247619Y-66840952D01*
X124295238Y-66817142D01*
X124390476Y-66793333D01*
X124461904Y-66793333D01*
X124557142Y-66817142D01*
X124604761Y-66840952D01*
X124652380Y-66888571D01*
X124676190Y-66960000D01*
X124676190Y-67079047D01*
X114230000Y-68050952D02*
X114206190Y-68098571D01*
X114206190Y-68170000D01*
X114230000Y-68241428D01*
X114277619Y-68289047D01*
X114325238Y-68312857D01*
X114420476Y-68336666D01*
X114491904Y-68336666D01*
X114587142Y-68312857D01*
X114634761Y-68289047D01*
X114682380Y-68241428D01*
X114706190Y-68170000D01*
X114706190Y-68122380D01*
X114682380Y-68050952D01*
X114658571Y-68027142D01*
X114491904Y-68027142D01*
X114491904Y-68122380D01*
X114706190Y-67812857D02*
X114206190Y-67812857D01*
X114706190Y-67527142D01*
X114206190Y-67527142D01*
X114706190Y-67289047D02*
X114206190Y-67289047D01*
X114206190Y-67170000D01*
X114230000Y-67098571D01*
X114277619Y-67050952D01*
X114325238Y-67027142D01*
X114420476Y-67003333D01*
X114491904Y-67003333D01*
X114587142Y-67027142D01*
X114634761Y-67050952D01*
X114682380Y-67098571D01*
X114706190Y-67170000D01*
X114706190Y-67289047D01*
X199696190Y-69191904D02*
X199196190Y-69191904D01*
X199434285Y-69191904D02*
X199434285Y-68906190D01*
X199696190Y-68906190D02*
X199196190Y-68906190D01*
X199696190Y-68668095D02*
X199196190Y-68668095D01*
X199196190Y-68477619D01*
X199220000Y-68430000D01*
X199243809Y-68406190D01*
X199291428Y-68382380D01*
X199362857Y-68382380D01*
X199410476Y-68406190D01*
X199434285Y-68430000D01*
X199458095Y-68477619D01*
X199458095Y-68668095D01*
X199696190Y-67930000D02*
X199696190Y-68168095D01*
X199196190Y-68168095D01*
X199743809Y-67882380D02*
X199743809Y-67501428D01*
X199196190Y-67430000D02*
X199196190Y-67120476D01*
X199386666Y-67287142D01*
X199386666Y-67215714D01*
X199410476Y-67168095D01*
X199434285Y-67144285D01*
X199481904Y-67120476D01*
X199600952Y-67120476D01*
X199648571Y-67144285D01*
X199672380Y-67168095D01*
X199696190Y-67215714D01*
X199696190Y-67358571D01*
X199672380Y-67406190D01*
X199648571Y-67430000D01*
X199696190Y-66644285D02*
X199696190Y-66930000D01*
X199696190Y-66787142D02*
X199196190Y-66787142D01*
X199267619Y-66834761D01*
X199315238Y-66882380D01*
X199339047Y-66930000D01*
X193240000Y-67710952D02*
X193216190Y-67758571D01*
X193216190Y-67830000D01*
X193240000Y-67901428D01*
X193287619Y-67949047D01*
X193335238Y-67972857D01*
X193430476Y-67996666D01*
X193501904Y-67996666D01*
X193597142Y-67972857D01*
X193644761Y-67949047D01*
X193692380Y-67901428D01*
X193716190Y-67830000D01*
X193716190Y-67782380D01*
X193692380Y-67710952D01*
X193668571Y-67687142D01*
X193501904Y-67687142D01*
X193501904Y-67782380D01*
X193716190Y-67472857D02*
X193216190Y-67472857D01*
X193716190Y-67187142D01*
X193216190Y-67187142D01*
X193716190Y-66949047D02*
X193216190Y-66949047D01*
X193216190Y-66830000D01*
X193240000Y-66758571D01*
X193287619Y-66710952D01*
X193335238Y-66687142D01*
X193430476Y-66663333D01*
X193501904Y-66663333D01*
X193597142Y-66687142D01*
X193644761Y-66710952D01*
X193692380Y-66758571D01*
X193716190Y-66830000D01*
X193716190Y-66949047D01*
D11*
X111983809Y-108525714D02*
X112517142Y-108525714D01*
X112745714Y-109363809D02*
X111983809Y-109363809D01*
X111983809Y-107763809D01*
X112745714Y-107763809D01*
X113202857Y-107763809D02*
X113736190Y-109363809D01*
X114269523Y-107763809D01*
X115564761Y-107763809D02*
X114802857Y-107763809D01*
X114726666Y-108525714D01*
X114802857Y-108449523D01*
X114955238Y-108373333D01*
X115336190Y-108373333D01*
X115488571Y-108449523D01*
X115564761Y-108525714D01*
X115640952Y-108678095D01*
X115640952Y-109059047D01*
X115564761Y-109211428D01*
X115488571Y-109287619D01*
X115336190Y-109363809D01*
X114955238Y-109363809D01*
X114802857Y-109287619D01*
X114726666Y-109211428D01*
X117545714Y-108754285D02*
X118764761Y-108754285D01*
X121279047Y-108525714D02*
X120745714Y-108525714D01*
X120745714Y-109363809D02*
X120745714Y-107763809D01*
X121507619Y-107763809D01*
X122117142Y-109363809D02*
X122117142Y-107763809D01*
X122879047Y-109363809D02*
X122879047Y-107763809D01*
X123793333Y-109363809D01*
X123793333Y-107763809D01*
X124555238Y-109363809D02*
X124555238Y-107763809D01*
X125469523Y-109363809D01*
X125469523Y-107763809D01*
X127983809Y-108525714D02*
X128212380Y-108601904D01*
X128288571Y-108678095D01*
X128364761Y-108830476D01*
X128364761Y-109059047D01*
X128288571Y-109211428D01*
X128212380Y-109287619D01*
X128059999Y-109363809D01*
X127450476Y-109363809D01*
X127450476Y-107763809D01*
X127983809Y-107763809D01*
X128136190Y-107840000D01*
X128212380Y-107916190D01*
X128288571Y-108068571D01*
X128288571Y-108220952D01*
X128212380Y-108373333D01*
X128136190Y-108449523D01*
X127983809Y-108525714D01*
X127450476Y-108525714D01*
X129050476Y-108525714D02*
X129583809Y-108525714D01*
X129812380Y-109363809D02*
X129050476Y-109363809D01*
X129050476Y-107763809D01*
X129812380Y-107763809D01*
X131412380Y-109363809D02*
X130879047Y-108601904D01*
X130498095Y-109363809D02*
X130498095Y-107763809D01*
X131107619Y-107763809D01*
X131259999Y-107840000D01*
X131336190Y-107916190D01*
X131412380Y-108068571D01*
X131412380Y-108297142D01*
X131336190Y-108449523D01*
X131259999Y-108525714D01*
X131107619Y-108601904D01*
X130498095Y-108601904D01*
X132936190Y-107840000D02*
X132783809Y-107763809D01*
X132555238Y-107763809D01*
X132326666Y-107840000D01*
X132174285Y-107992380D01*
X132098095Y-108144761D01*
X132021904Y-108449523D01*
X132021904Y-108678095D01*
X132098095Y-108982857D01*
X132174285Y-109135238D01*
X132326666Y-109287619D01*
X132555238Y-109363809D01*
X132707619Y-109363809D01*
X132936190Y-109287619D01*
X133012380Y-109211428D01*
X133012380Y-108678095D01*
X132707619Y-108678095D01*
D10*
X156026190Y-68572857D02*
X155526190Y-68572857D01*
X155526190Y-68382380D01*
X155550000Y-68334761D01*
X155573809Y-68310952D01*
X155621428Y-68287142D01*
X155692857Y-68287142D01*
X155740476Y-68310952D01*
X155764285Y-68334761D01*
X155788095Y-68382380D01*
X155788095Y-68572857D01*
X156026190Y-67787142D02*
X155788095Y-67953809D01*
X156026190Y-68072857D02*
X155526190Y-68072857D01*
X155526190Y-67882380D01*
X155550000Y-67834761D01*
X155573809Y-67810952D01*
X155621428Y-67787142D01*
X155692857Y-67787142D01*
X155740476Y-67810952D01*
X155764285Y-67834761D01*
X155788095Y-67882380D01*
X155788095Y-68072857D01*
X155526190Y-67477619D02*
X155526190Y-67382380D01*
X155550000Y-67334761D01*
X155597619Y-67287142D01*
X155692857Y-67263333D01*
X155859523Y-67263333D01*
X155954761Y-67287142D01*
X156002380Y-67334761D01*
X156026190Y-67382380D01*
X156026190Y-67477619D01*
X156002380Y-67525238D01*
X155954761Y-67572857D01*
X155859523Y-67596666D01*
X155692857Y-67596666D01*
X155597619Y-67572857D01*
X155550000Y-67525238D01*
X155526190Y-67477619D01*
X155550000Y-66787142D02*
X155526190Y-66834761D01*
X155526190Y-66906190D01*
X155550000Y-66977619D01*
X155597619Y-67025238D01*
X155645238Y-67049047D01*
X155740476Y-67072857D01*
X155811904Y-67072857D01*
X155907142Y-67049047D01*
X155954761Y-67025238D01*
X156002380Y-66977619D01*
X156026190Y-66906190D01*
X156026190Y-66858571D01*
X156002380Y-66787142D01*
X155978571Y-66763333D01*
X155811904Y-66763333D01*
X155811904Y-66858571D01*
X108846190Y-68413333D02*
X108346190Y-68413333D01*
X108346190Y-68222857D01*
X108370000Y-68175238D01*
X108393809Y-68151428D01*
X108441428Y-68127619D01*
X108512857Y-68127619D01*
X108560476Y-68151428D01*
X108584285Y-68175238D01*
X108608095Y-68222857D01*
X108608095Y-68413333D01*
X108703333Y-67937142D02*
X108703333Y-67699047D01*
X108846190Y-67984761D02*
X108346190Y-67818095D01*
X108846190Y-67651428D01*
X108846190Y-67222857D02*
X108846190Y-67508571D01*
X108846190Y-67365714D02*
X108346190Y-67365714D01*
X108417619Y-67413333D01*
X108465238Y-67460952D01*
X108489047Y-67508571D01*
X192104285Y-86066190D02*
X192104285Y-85566190D01*
X192294761Y-85566190D01*
X192342380Y-85590000D01*
X192366190Y-85613809D01*
X192390000Y-85661428D01*
X192390000Y-85732857D01*
X192366190Y-85780476D01*
X192342380Y-85804285D01*
X192294761Y-85828095D01*
X192104285Y-85828095D01*
X192556666Y-85566190D02*
X192675714Y-86066190D01*
X192770952Y-85709047D01*
X192866190Y-86066190D01*
X192985238Y-85566190D01*
X193461428Y-86066190D02*
X193294761Y-85828095D01*
X193175714Y-86066190D02*
X193175714Y-85566190D01*
X193366190Y-85566190D01*
X193413809Y-85590000D01*
X193437619Y-85613809D01*
X193461428Y-85661428D01*
X193461428Y-85732857D01*
X193437619Y-85780476D01*
X193413809Y-85804285D01*
X193366190Y-85828095D01*
X193175714Y-85828095D01*
X193556666Y-86113809D02*
X193937619Y-86113809D01*
X194294761Y-86066190D02*
X194056666Y-86066190D01*
X194056666Y-85566190D01*
X194461428Y-85804285D02*
X194628095Y-85804285D01*
X194699523Y-86066190D02*
X194461428Y-86066190D01*
X194461428Y-85566190D01*
X194699523Y-85566190D01*
X194913809Y-86066190D02*
X194913809Y-85566190D01*
X195032857Y-85566190D01*
X195104285Y-85590000D01*
X195151904Y-85637619D01*
X195175714Y-85685238D01*
X195199523Y-85780476D01*
X195199523Y-85851904D01*
X195175714Y-85947142D01*
X195151904Y-85994761D01*
X195104285Y-86042380D01*
X195032857Y-86066190D01*
X194913809Y-86066190D01*
X128836190Y-68218095D02*
X128336190Y-68218095D01*
X128336190Y-67884761D02*
X128336190Y-67789523D01*
X128360000Y-67741904D01*
X128407619Y-67694285D01*
X128502857Y-67670476D01*
X128669523Y-67670476D01*
X128764761Y-67694285D01*
X128812380Y-67741904D01*
X128836190Y-67789523D01*
X128836190Y-67884761D01*
X128812380Y-67932380D01*
X128764761Y-67980000D01*
X128669523Y-68003809D01*
X128502857Y-68003809D01*
X128407619Y-67980000D01*
X128360000Y-67932380D01*
X128336190Y-67884761D01*
X128336190Y-67503809D02*
X128336190Y-67194285D01*
X128526666Y-67360952D01*
X128526666Y-67289523D01*
X128550476Y-67241904D01*
X128574285Y-67218095D01*
X128621904Y-67194285D01*
X128740952Y-67194285D01*
X128788571Y-67218095D01*
X128812380Y-67241904D01*
X128836190Y-67289523D01*
X128836190Y-67432380D01*
X128812380Y-67480000D01*
X128788571Y-67503809D01*
X128336190Y-66741904D02*
X128336190Y-66980000D01*
X128574285Y-67003809D01*
X128550476Y-66980000D01*
X128526666Y-66932380D01*
X128526666Y-66813333D01*
X128550476Y-66765714D01*
X128574285Y-66741904D01*
X128621904Y-66718095D01*
X128740952Y-66718095D01*
X128788571Y-66741904D01*
X128812380Y-66765714D01*
X128836190Y-66813333D01*
X128836190Y-66932380D01*
X128812380Y-66980000D01*
X128788571Y-67003809D01*
X188114285Y-85106190D02*
X188280952Y-85606190D01*
X188447619Y-85106190D01*
X188780952Y-85344285D02*
X188852380Y-85368095D01*
X188876190Y-85391904D01*
X188900000Y-85439523D01*
X188900000Y-85510952D01*
X188876190Y-85558571D01*
X188852380Y-85582380D01*
X188804761Y-85606190D01*
X188614285Y-85606190D01*
X188614285Y-85106190D01*
X188780952Y-85106190D01*
X188828571Y-85130000D01*
X188852380Y-85153809D01*
X188876190Y-85201428D01*
X188876190Y-85249047D01*
X188852380Y-85296666D01*
X188828571Y-85320476D01*
X188780952Y-85344285D01*
X188614285Y-85344285D01*
X189114285Y-85106190D02*
X189114285Y-85510952D01*
X189138095Y-85558571D01*
X189161904Y-85582380D01*
X189209523Y-85606190D01*
X189304761Y-85606190D01*
X189352380Y-85582380D01*
X189376190Y-85558571D01*
X189400000Y-85510952D01*
X189400000Y-85106190D01*
X189614285Y-85582380D02*
X189685714Y-85606190D01*
X189804761Y-85606190D01*
X189852380Y-85582380D01*
X189876190Y-85558571D01*
X189900000Y-85510952D01*
X189900000Y-85463333D01*
X189876190Y-85415714D01*
X189852380Y-85391904D01*
X189804761Y-85368095D01*
X189709523Y-85344285D01*
X189661904Y-85320476D01*
X189638095Y-85296666D01*
X189614285Y-85249047D01*
X189614285Y-85201428D01*
X189638095Y-85153809D01*
X189661904Y-85130000D01*
X189709523Y-85106190D01*
X189828571Y-85106190D01*
X189900000Y-85130000D01*
X189995238Y-85653809D02*
X190376190Y-85653809D01*
X190733333Y-85606190D02*
X190495238Y-85606190D01*
X190495238Y-85106190D01*
X190900000Y-85344285D02*
X191066666Y-85344285D01*
X191138095Y-85606190D02*
X190900000Y-85606190D01*
X190900000Y-85106190D01*
X191138095Y-85106190D01*
X191352380Y-85606190D02*
X191352380Y-85106190D01*
X191471428Y-85106190D01*
X191542857Y-85130000D01*
X191590476Y-85177619D01*
X191614285Y-85225238D01*
X191638095Y-85320476D01*
X191638095Y-85391904D01*
X191614285Y-85487142D01*
X191590476Y-85534761D01*
X191542857Y-85582380D01*
X191471428Y-85606190D01*
X191352380Y-85606190D01*
X128886190Y-81248095D02*
X128386190Y-81248095D01*
X128386190Y-81057619D01*
X128410000Y-81010000D01*
X128433809Y-80986190D01*
X128481428Y-80962380D01*
X128552857Y-80962380D01*
X128600476Y-80986190D01*
X128624285Y-81010000D01*
X128648095Y-81057619D01*
X128648095Y-81248095D01*
X128838571Y-80462380D02*
X128862380Y-80486190D01*
X128886190Y-80557619D01*
X128886190Y-80605238D01*
X128862380Y-80676666D01*
X128814761Y-80724285D01*
X128767142Y-80748095D01*
X128671904Y-80771904D01*
X128600476Y-80771904D01*
X128505238Y-80748095D01*
X128457619Y-80724285D01*
X128410000Y-80676666D01*
X128386190Y-80605238D01*
X128386190Y-80557619D01*
X128410000Y-80486190D01*
X128433809Y-80462380D01*
X128386190Y-80152857D02*
X128386190Y-80105238D01*
X128410000Y-80057619D01*
X128433809Y-80033809D01*
X128481428Y-80010000D01*
X128576666Y-79986190D01*
X128695714Y-79986190D01*
X128790952Y-80010000D01*
X128838571Y-80033809D01*
X128862380Y-80057619D01*
X128886190Y-80105238D01*
X128886190Y-80152857D01*
X128862380Y-80200476D01*
X128838571Y-80224285D01*
X128790952Y-80248095D01*
X128695714Y-80271904D01*
X128576666Y-80271904D01*
X128481428Y-80248095D01*
X128433809Y-80224285D01*
X128410000Y-80200476D01*
X128386190Y-80152857D01*
X128933809Y-79890952D02*
X128933809Y-79510000D01*
X128886190Y-79152857D02*
X128886190Y-79390952D01*
X128386190Y-79390952D01*
X128624285Y-78986190D02*
X128624285Y-78819523D01*
X128886190Y-78748095D02*
X128886190Y-78986190D01*
X128386190Y-78986190D01*
X128386190Y-78748095D01*
X128886190Y-78533809D02*
X128386190Y-78533809D01*
X128386190Y-78414761D01*
X128410000Y-78343333D01*
X128457619Y-78295714D01*
X128505238Y-78271904D01*
X128600476Y-78248095D01*
X128671904Y-78248095D01*
X128767142Y-78271904D01*
X128814761Y-78295714D01*
X128862380Y-78343333D01*
X128886190Y-78414761D01*
X128886190Y-78533809D01*
X198536190Y-69289523D02*
X198036190Y-69289523D01*
X198274285Y-69289523D02*
X198274285Y-69003809D01*
X198536190Y-69003809D02*
X198036190Y-69003809D01*
X198536190Y-68765714D02*
X198036190Y-68765714D01*
X198036190Y-68575238D01*
X198060000Y-68527619D01*
X198083809Y-68503809D01*
X198131428Y-68480000D01*
X198202857Y-68480000D01*
X198250476Y-68503809D01*
X198274285Y-68527619D01*
X198298095Y-68575238D01*
X198298095Y-68765714D01*
X198536190Y-67980000D02*
X198298095Y-68146666D01*
X198536190Y-68265714D02*
X198036190Y-68265714D01*
X198036190Y-68075238D01*
X198060000Y-68027619D01*
X198083809Y-68003809D01*
X198131428Y-67980000D01*
X198202857Y-67980000D01*
X198250476Y-68003809D01*
X198274285Y-68027619D01*
X198298095Y-68075238D01*
X198298095Y-68265714D01*
X198583809Y-67884761D02*
X198583809Y-67503809D01*
X198083809Y-67408571D02*
X198060000Y-67384761D01*
X198036190Y-67337142D01*
X198036190Y-67218095D01*
X198060000Y-67170476D01*
X198083809Y-67146666D01*
X198131428Y-67122857D01*
X198179047Y-67122857D01*
X198250476Y-67146666D01*
X198536190Y-67432380D01*
X198536190Y-67122857D01*
X198536190Y-66884761D02*
X198536190Y-66789523D01*
X198512380Y-66741904D01*
X198488571Y-66718095D01*
X198417142Y-66670476D01*
X198321904Y-66646666D01*
X198131428Y-66646666D01*
X198083809Y-66670476D01*
X198060000Y-66694285D01*
X198036190Y-66741904D01*
X198036190Y-66837142D01*
X198060000Y-66884761D01*
X198083809Y-66908571D01*
X198131428Y-66932380D01*
X198250476Y-66932380D01*
X198298095Y-66908571D01*
X198321904Y-66884761D01*
X198345714Y-66837142D01*
X198345714Y-66741904D01*
X198321904Y-66694285D01*
X198298095Y-66670476D01*
X198250476Y-66646666D01*
X195586190Y-69574761D02*
X195586190Y-69479523D01*
X195610000Y-69431904D01*
X195657619Y-69384285D01*
X195752857Y-69360476D01*
X195919523Y-69360476D01*
X196014761Y-69384285D01*
X196062380Y-69431904D01*
X196086190Y-69479523D01*
X196086190Y-69574761D01*
X196062380Y-69622380D01*
X196014761Y-69670000D01*
X195919523Y-69693809D01*
X195752857Y-69693809D01*
X195657619Y-69670000D01*
X195610000Y-69622380D01*
X195586190Y-69574761D01*
X195586190Y-69146190D02*
X195990952Y-69146190D01*
X196038571Y-69122380D01*
X196062380Y-69098571D01*
X196086190Y-69050952D01*
X196086190Y-68955714D01*
X196062380Y-68908095D01*
X196038571Y-68884285D01*
X195990952Y-68860476D01*
X195586190Y-68860476D01*
X195586190Y-68693809D02*
X195586190Y-68408095D01*
X196086190Y-68550952D02*
X195586190Y-68550952D01*
X195586190Y-68289047D02*
X195586190Y-67979523D01*
X195776666Y-68146190D01*
X195776666Y-68074761D01*
X195800476Y-68027142D01*
X195824285Y-68003333D01*
X195871904Y-67979523D01*
X195990952Y-67979523D01*
X196038571Y-68003333D01*
X196062380Y-68027142D01*
X196086190Y-68074761D01*
X196086190Y-68217619D01*
X196062380Y-68265238D01*
X196038571Y-68289047D01*
X196133809Y-67884285D02*
X196133809Y-67503333D01*
X195586190Y-67431904D02*
X195586190Y-67122380D01*
X195776666Y-67289047D01*
X195776666Y-67217619D01*
X195800476Y-67170000D01*
X195824285Y-67146190D01*
X195871904Y-67122380D01*
X195990952Y-67122380D01*
X196038571Y-67146190D01*
X196062380Y-67170000D01*
X196086190Y-67217619D01*
X196086190Y-67360476D01*
X196062380Y-67408095D01*
X196038571Y-67431904D01*
X195586190Y-66812857D02*
X195586190Y-66765238D01*
X195610000Y-66717619D01*
X195633809Y-66693809D01*
X195681428Y-66670000D01*
X195776666Y-66646190D01*
X195895714Y-66646190D01*
X195990952Y-66670000D01*
X196038571Y-66693809D01*
X196062380Y-66717619D01*
X196086190Y-66765238D01*
X196086190Y-66812857D01*
X196062380Y-66860476D01*
X196038571Y-66884285D01*
X195990952Y-66908095D01*
X195895714Y-66931904D01*
X195776666Y-66931904D01*
X195681428Y-66908095D01*
X195633809Y-66884285D01*
X195610000Y-66860476D01*
X195586190Y-66812857D01*
X104916190Y-68463333D02*
X104416190Y-68463333D01*
X104416190Y-68272857D01*
X104440000Y-68225238D01*
X104463809Y-68201428D01*
X104511428Y-68177619D01*
X104582857Y-68177619D01*
X104630476Y-68201428D01*
X104654285Y-68225238D01*
X104678095Y-68272857D01*
X104678095Y-68463333D01*
X104773333Y-67987142D02*
X104773333Y-67749047D01*
X104916190Y-68034761D02*
X104416190Y-67868095D01*
X104916190Y-67701428D01*
X104416190Y-67320476D02*
X104416190Y-67415714D01*
X104440000Y-67463333D01*
X104463809Y-67487142D01*
X104535238Y-67534761D01*
X104630476Y-67558571D01*
X104820952Y-67558571D01*
X104868571Y-67534761D01*
X104892380Y-67510952D01*
X104916190Y-67463333D01*
X104916190Y-67368095D01*
X104892380Y-67320476D01*
X104868571Y-67296666D01*
X104820952Y-67272857D01*
X104701904Y-67272857D01*
X104654285Y-67296666D01*
X104630476Y-67320476D01*
X104606666Y-67368095D01*
X104606666Y-67463333D01*
X104630476Y-67510952D01*
X104654285Y-67534761D01*
X104701904Y-67558571D01*
X117860952Y-104546190D02*
X117860952Y-104046190D01*
X118194285Y-104046190D02*
X118289523Y-104046190D01*
X118337142Y-104070000D01*
X118384761Y-104117619D01*
X118408571Y-104212857D01*
X118408571Y-104379523D01*
X118384761Y-104474761D01*
X118337142Y-104522380D01*
X118289523Y-104546190D01*
X118194285Y-104546190D01*
X118146666Y-104522380D01*
X118099047Y-104474761D01*
X118075238Y-104379523D01*
X118075238Y-104212857D01*
X118099047Y-104117619D01*
X118146666Y-104070000D01*
X118194285Y-104046190D01*
X118575238Y-104046190D02*
X118908571Y-104046190D01*
X118694285Y-104546190D01*
X118980000Y-104593809D02*
X119360952Y-104593809D01*
X119718095Y-104546190D02*
X119480000Y-104546190D01*
X119480000Y-104046190D01*
X119884761Y-104284285D02*
X120051428Y-104284285D01*
X120122857Y-104546190D02*
X119884761Y-104546190D01*
X119884761Y-104046190D01*
X120122857Y-104046190D01*
X120337142Y-104546190D02*
X120337142Y-104046190D01*
X120456190Y-104046190D01*
X120527619Y-104070000D01*
X120575238Y-104117619D01*
X120599047Y-104165238D01*
X120622857Y-104260476D01*
X120622857Y-104331904D01*
X120599047Y-104427142D01*
X120575238Y-104474761D01*
X120527619Y-104522380D01*
X120456190Y-104546190D01*
X120337142Y-104546190D01*
X132736190Y-68079047D02*
X132236190Y-68079047D01*
X132236190Y-67888571D01*
X132260000Y-67840952D01*
X132283809Y-67817142D01*
X132331428Y-67793333D01*
X132402857Y-67793333D01*
X132450476Y-67817142D01*
X132474285Y-67840952D01*
X132498095Y-67888571D01*
X132498095Y-68079047D01*
X132688571Y-67293333D02*
X132712380Y-67317142D01*
X132736190Y-67388571D01*
X132736190Y-67436190D01*
X132712380Y-67507619D01*
X132664761Y-67555238D01*
X132617142Y-67579047D01*
X132521904Y-67602857D01*
X132450476Y-67602857D01*
X132355238Y-67579047D01*
X132307619Y-67555238D01*
X132260000Y-67507619D01*
X132236190Y-67436190D01*
X132236190Y-67388571D01*
X132260000Y-67317142D01*
X132283809Y-67293333D01*
X132402857Y-66864761D02*
X132736190Y-66864761D01*
X132212380Y-66983809D02*
X132569523Y-67102857D01*
X132569523Y-66793333D01*
X176604285Y-85322380D02*
X176628095Y-85250952D01*
X176651904Y-85227142D01*
X176699523Y-85203333D01*
X176770952Y-85203333D01*
X176818571Y-85227142D01*
X176842380Y-85250952D01*
X176866190Y-85298571D01*
X176866190Y-85489047D01*
X176366190Y-85489047D01*
X176366190Y-85322380D01*
X176390000Y-85274761D01*
X176413809Y-85250952D01*
X176461428Y-85227142D01*
X176509047Y-85227142D01*
X176556666Y-85250952D01*
X176580476Y-85274761D01*
X176604285Y-85322380D01*
X176604285Y-85489047D01*
X176866190Y-84917619D02*
X176842380Y-84965238D01*
X176818571Y-84989047D01*
X176770952Y-85012857D01*
X176628095Y-85012857D01*
X176580476Y-84989047D01*
X176556666Y-84965238D01*
X176532857Y-84917619D01*
X176532857Y-84846190D01*
X176556666Y-84798571D01*
X176580476Y-84774761D01*
X176628095Y-84750952D01*
X176770952Y-84750952D01*
X176818571Y-84774761D01*
X176842380Y-84798571D01*
X176866190Y-84846190D01*
X176866190Y-84917619D01*
X176866190Y-84465238D02*
X176842380Y-84512857D01*
X176818571Y-84536666D01*
X176770952Y-84560476D01*
X176628095Y-84560476D01*
X176580476Y-84536666D01*
X176556666Y-84512857D01*
X176532857Y-84465238D01*
X176532857Y-84393809D01*
X176556666Y-84346190D01*
X176580476Y-84322380D01*
X176628095Y-84298571D01*
X176770952Y-84298571D01*
X176818571Y-84322380D01*
X176842380Y-84346190D01*
X176866190Y-84393809D01*
X176866190Y-84465238D01*
X176532857Y-84155714D02*
X176532857Y-83965238D01*
X176366190Y-84084285D02*
X176794761Y-84084285D01*
X176842380Y-84060476D01*
X176866190Y-84012857D01*
X176866190Y-83965238D01*
X176913809Y-83917619D02*
X176913809Y-83536666D01*
X176842380Y-83441428D02*
X176866190Y-83370000D01*
X176866190Y-83250952D01*
X176842380Y-83203333D01*
X176818571Y-83179523D01*
X176770952Y-83155714D01*
X176723333Y-83155714D01*
X176675714Y-83179523D01*
X176651904Y-83203333D01*
X176628095Y-83250952D01*
X176604285Y-83346190D01*
X176580476Y-83393809D01*
X176556666Y-83417619D01*
X176509047Y-83441428D01*
X176461428Y-83441428D01*
X176413809Y-83417619D01*
X176390000Y-83393809D01*
X176366190Y-83346190D01*
X176366190Y-83227142D01*
X176390000Y-83155714D01*
X176532857Y-82989047D02*
X176866190Y-82893809D01*
X176628095Y-82798571D01*
X176866190Y-82703333D01*
X176532857Y-82608095D01*
X176866190Y-82417619D02*
X176532857Y-82417619D01*
X176366190Y-82417619D02*
X176390000Y-82441428D01*
X176413809Y-82417619D01*
X176390000Y-82393809D01*
X176366190Y-82417619D01*
X176413809Y-82417619D01*
X176532857Y-82250952D02*
X176532857Y-82060476D01*
X176366190Y-82179523D02*
X176794761Y-82179523D01*
X176842380Y-82155714D01*
X176866190Y-82108095D01*
X176866190Y-82060476D01*
X176842380Y-81679523D02*
X176866190Y-81727142D01*
X176866190Y-81822380D01*
X176842380Y-81870000D01*
X176818571Y-81893809D01*
X176770952Y-81917619D01*
X176628095Y-81917619D01*
X176580476Y-81893809D01*
X176556666Y-81870000D01*
X176532857Y-81822380D01*
X176532857Y-81727142D01*
X176556666Y-81679523D01*
X176866190Y-81465238D02*
X176366190Y-81465238D01*
X176866190Y-81250952D02*
X176604285Y-81250952D01*
X176556666Y-81274761D01*
X176532857Y-81322380D01*
X176532857Y-81393809D01*
X176556666Y-81441428D01*
X176580476Y-81465238D01*
X176656190Y-75774285D02*
X176156190Y-75774285D01*
X176156190Y-75583809D01*
X176180000Y-75536190D01*
X176203809Y-75512380D01*
X176251428Y-75488571D01*
X176322857Y-75488571D01*
X176370476Y-75512380D01*
X176394285Y-75536190D01*
X176418095Y-75583809D01*
X176418095Y-75774285D01*
X176513333Y-75298095D02*
X176513333Y-75060000D01*
X176656190Y-75345714D02*
X176156190Y-75179047D01*
X176656190Y-75012380D01*
X176656190Y-74583809D02*
X176656190Y-74869523D01*
X176656190Y-74726666D02*
X176156190Y-74726666D01*
X176227619Y-74774285D01*
X176275238Y-74821904D01*
X176299047Y-74869523D01*
X176656190Y-74107619D02*
X176656190Y-74393333D01*
X176656190Y-74250476D02*
X176156190Y-74250476D01*
X176227619Y-74298095D01*
X176275238Y-74345714D01*
X176299047Y-74393333D01*
X176703809Y-74012380D02*
X176703809Y-73631428D01*
X176632380Y-73536190D02*
X176656190Y-73464761D01*
X176656190Y-73345714D01*
X176632380Y-73298095D01*
X176608571Y-73274285D01*
X176560952Y-73250476D01*
X176513333Y-73250476D01*
X176465714Y-73274285D01*
X176441904Y-73298095D01*
X176418095Y-73345714D01*
X176394285Y-73440952D01*
X176370476Y-73488571D01*
X176346666Y-73512380D01*
X176299047Y-73536190D01*
X176251428Y-73536190D01*
X176203809Y-73512380D01*
X176180000Y-73488571D01*
X176156190Y-73440952D01*
X176156190Y-73321904D01*
X176180000Y-73250476D01*
X176322857Y-73083809D02*
X176656190Y-72988571D01*
X176418095Y-72893333D01*
X176656190Y-72798095D01*
X176322857Y-72702857D01*
X176656190Y-72512380D02*
X176322857Y-72512380D01*
X176156190Y-72512380D02*
X176180000Y-72536190D01*
X176203809Y-72512380D01*
X176180000Y-72488571D01*
X176156190Y-72512380D01*
X176203809Y-72512380D01*
X176322857Y-72345714D02*
X176322857Y-72155238D01*
X176156190Y-72274285D02*
X176584761Y-72274285D01*
X176632380Y-72250476D01*
X176656190Y-72202857D01*
X176656190Y-72155238D01*
X176632380Y-71774285D02*
X176656190Y-71821904D01*
X176656190Y-71917142D01*
X176632380Y-71964761D01*
X176608571Y-71988571D01*
X176560952Y-72012380D01*
X176418095Y-72012380D01*
X176370476Y-71988571D01*
X176346666Y-71964761D01*
X176322857Y-71917142D01*
X176322857Y-71821904D01*
X176346666Y-71774285D01*
X176656190Y-71560000D02*
X176156190Y-71560000D01*
X176656190Y-71345714D02*
X176394285Y-71345714D01*
X176346666Y-71369523D01*
X176322857Y-71417142D01*
X176322857Y-71488571D01*
X176346666Y-71536190D01*
X176370476Y-71560000D01*
X130746190Y-68029047D02*
X130246190Y-68029047D01*
X130246190Y-67838571D01*
X130270000Y-67790952D01*
X130293809Y-67767142D01*
X130341428Y-67743333D01*
X130412857Y-67743333D01*
X130460476Y-67767142D01*
X130484285Y-67790952D01*
X130508095Y-67838571D01*
X130508095Y-68029047D01*
X130698571Y-67243333D02*
X130722380Y-67267142D01*
X130746190Y-67338571D01*
X130746190Y-67386190D01*
X130722380Y-67457619D01*
X130674761Y-67505238D01*
X130627142Y-67529047D01*
X130531904Y-67552857D01*
X130460476Y-67552857D01*
X130365238Y-67529047D01*
X130317619Y-67505238D01*
X130270000Y-67457619D01*
X130246190Y-67386190D01*
X130246190Y-67338571D01*
X130270000Y-67267142D01*
X130293809Y-67243333D01*
X130246190Y-66790952D02*
X130246190Y-67029047D01*
X130484285Y-67052857D01*
X130460476Y-67029047D01*
X130436666Y-66981428D01*
X130436666Y-66862380D01*
X130460476Y-66814761D01*
X130484285Y-66790952D01*
X130531904Y-66767142D01*
X130650952Y-66767142D01*
X130698571Y-66790952D01*
X130722380Y-66814761D01*
X130746190Y-66862380D01*
X130746190Y-66981428D01*
X130722380Y-67029047D01*
X130698571Y-67052857D01*
X138286190Y-68196666D02*
X138786190Y-68030000D01*
X138286190Y-67863333D01*
X138738571Y-67410952D02*
X138762380Y-67434761D01*
X138786190Y-67506190D01*
X138786190Y-67553809D01*
X138762380Y-67625238D01*
X138714761Y-67672857D01*
X138667142Y-67696666D01*
X138571904Y-67720476D01*
X138500476Y-67720476D01*
X138405238Y-67696666D01*
X138357619Y-67672857D01*
X138310000Y-67625238D01*
X138286190Y-67553809D01*
X138286190Y-67506190D01*
X138310000Y-67434761D01*
X138333809Y-67410952D01*
X138738571Y-66910952D02*
X138762380Y-66934761D01*
X138786190Y-67006190D01*
X138786190Y-67053809D01*
X138762380Y-67125238D01*
X138714761Y-67172857D01*
X138667142Y-67196666D01*
X138571904Y-67220476D01*
X138500476Y-67220476D01*
X138405238Y-67196666D01*
X138357619Y-67172857D01*
X138310000Y-67125238D01*
X138286190Y-67053809D01*
X138286190Y-67006190D01*
X138310000Y-66934761D01*
X138333809Y-66910952D01*
X116386190Y-68226666D02*
X116886190Y-68060000D01*
X116386190Y-67893333D01*
X116838571Y-67440952D02*
X116862380Y-67464761D01*
X116886190Y-67536190D01*
X116886190Y-67583809D01*
X116862380Y-67655238D01*
X116814761Y-67702857D01*
X116767142Y-67726666D01*
X116671904Y-67750476D01*
X116600476Y-67750476D01*
X116505238Y-67726666D01*
X116457619Y-67702857D01*
X116410000Y-67655238D01*
X116386190Y-67583809D01*
X116386190Y-67536190D01*
X116410000Y-67464761D01*
X116433809Y-67440952D01*
X116838571Y-66940952D02*
X116862380Y-66964761D01*
X116886190Y-67036190D01*
X116886190Y-67083809D01*
X116862380Y-67155238D01*
X116814761Y-67202857D01*
X116767142Y-67226666D01*
X116671904Y-67250476D01*
X116600476Y-67250476D01*
X116505238Y-67226666D01*
X116457619Y-67202857D01*
X116410000Y-67155238D01*
X116386190Y-67083809D01*
X116386190Y-67036190D01*
X116410000Y-66964761D01*
X116433809Y-66940952D01*
X208557142Y-99393809D02*
X208509523Y-99370000D01*
X208461904Y-99322380D01*
X208390476Y-99250952D01*
X208342857Y-99227142D01*
X208295238Y-99227142D01*
X208319047Y-99346190D02*
X208271428Y-99322380D01*
X208223809Y-99274761D01*
X208200000Y-99179523D01*
X208200000Y-99012857D01*
X208223809Y-98917619D01*
X208271428Y-98870000D01*
X208319047Y-98846190D01*
X208414285Y-98846190D01*
X208461904Y-98870000D01*
X208509523Y-98917619D01*
X208533333Y-99012857D01*
X208533333Y-99179523D01*
X208509523Y-99274761D01*
X208461904Y-99322380D01*
X208414285Y-99346190D01*
X208319047Y-99346190D01*
X208914285Y-99084285D02*
X208985714Y-99108095D01*
X209009523Y-99131904D01*
X209033333Y-99179523D01*
X209033333Y-99250952D01*
X209009523Y-99298571D01*
X208985714Y-99322380D01*
X208938095Y-99346190D01*
X208747619Y-99346190D01*
X208747619Y-98846190D01*
X208914285Y-98846190D01*
X208961904Y-98870000D01*
X208985714Y-98893809D01*
X209009523Y-98941428D01*
X209009523Y-98989047D01*
X208985714Y-99036666D01*
X208961904Y-99060476D01*
X208914285Y-99084285D01*
X208747619Y-99084285D01*
X209223809Y-99203333D02*
X209461904Y-99203333D01*
X209176190Y-99346190D02*
X209342857Y-98846190D01*
X209509523Y-99346190D01*
X209961904Y-99346190D02*
X209795238Y-99108095D01*
X209676190Y-99346190D02*
X209676190Y-98846190D01*
X209866666Y-98846190D01*
X209914285Y-98870000D01*
X209938095Y-98893809D01*
X209961904Y-98941428D01*
X209961904Y-99012857D01*
X209938095Y-99060476D01*
X209914285Y-99084285D01*
X209866666Y-99108095D01*
X209676190Y-99108095D01*
X210057142Y-99393809D02*
X210438095Y-99393809D01*
X210795238Y-99346190D02*
X210557142Y-99346190D01*
X210557142Y-98846190D01*
X210961904Y-99084285D02*
X211128571Y-99084285D01*
X211200000Y-99346190D02*
X210961904Y-99346190D01*
X210961904Y-98846190D01*
X211200000Y-98846190D01*
X211414285Y-99346190D02*
X211414285Y-98846190D01*
X211533333Y-98846190D01*
X211604761Y-98870000D01*
X211652380Y-98917619D01*
X211676190Y-98965238D01*
X211700000Y-99060476D01*
X211700000Y-99131904D01*
X211676190Y-99227142D01*
X211652380Y-99274761D01*
X211604761Y-99322380D01*
X211533333Y-99346190D01*
X211414285Y-99346190D01*
X120392857Y-88026190D02*
X120392857Y-87526190D01*
X120726190Y-87526190D02*
X120821428Y-87526190D01*
X120869047Y-87550000D01*
X120916666Y-87597619D01*
X120940476Y-87692857D01*
X120940476Y-87859523D01*
X120916666Y-87954761D01*
X120869047Y-88002380D01*
X120821428Y-88026190D01*
X120726190Y-88026190D01*
X120678571Y-88002380D01*
X120630952Y-87954761D01*
X120607142Y-87859523D01*
X120607142Y-87692857D01*
X120630952Y-87597619D01*
X120678571Y-87550000D01*
X120726190Y-87526190D01*
X121416666Y-88026190D02*
X121130952Y-88026190D01*
X121273809Y-88026190D02*
X121273809Y-87526190D01*
X121226190Y-87597619D01*
X121178571Y-87645238D01*
X121130952Y-87669047D01*
X121607142Y-87573809D02*
X121630952Y-87550000D01*
X121678571Y-87526190D01*
X121797619Y-87526190D01*
X121845238Y-87550000D01*
X121869047Y-87573809D01*
X121892857Y-87621428D01*
X121892857Y-87669047D01*
X121869047Y-87740476D01*
X121583333Y-88026190D01*
X121892857Y-88026190D01*
X121988095Y-88073809D02*
X122369047Y-88073809D01*
X122726190Y-88026190D02*
X122488095Y-88026190D01*
X122488095Y-87526190D01*
X122892857Y-87764285D02*
X123059523Y-87764285D01*
X123130952Y-88026190D02*
X122892857Y-88026190D01*
X122892857Y-87526190D01*
X123130952Y-87526190D01*
X123345238Y-88026190D02*
X123345238Y-87526190D01*
X123464285Y-87526190D01*
X123535714Y-87550000D01*
X123583333Y-87597619D01*
X123607142Y-87645238D01*
X123630952Y-87740476D01*
X123630952Y-87811904D01*
X123607142Y-87907142D01*
X123583333Y-87954761D01*
X123535714Y-88002380D01*
X123464285Y-88026190D01*
X123345238Y-88026190D01*
X127046190Y-68098095D02*
X126546190Y-68098095D01*
X126546190Y-67764761D02*
X126546190Y-67669523D01*
X126570000Y-67621904D01*
X126617619Y-67574285D01*
X126712857Y-67550476D01*
X126879523Y-67550476D01*
X126974761Y-67574285D01*
X127022380Y-67621904D01*
X127046190Y-67669523D01*
X127046190Y-67764761D01*
X127022380Y-67812380D01*
X126974761Y-67860000D01*
X126879523Y-67883809D01*
X126712857Y-67883809D01*
X126617619Y-67860000D01*
X126570000Y-67812380D01*
X126546190Y-67764761D01*
X126546190Y-67383809D02*
X126546190Y-67074285D01*
X126736666Y-67240952D01*
X126736666Y-67169523D01*
X126760476Y-67121904D01*
X126784285Y-67098095D01*
X126831904Y-67074285D01*
X126950952Y-67074285D01*
X126998571Y-67098095D01*
X127022380Y-67121904D01*
X127046190Y-67169523D01*
X127046190Y-67312380D01*
X127022380Y-67360000D01*
X126998571Y-67383809D01*
X126546190Y-66645714D02*
X126546190Y-66740952D01*
X126570000Y-66788571D01*
X126593809Y-66812380D01*
X126665238Y-66860000D01*
X126760476Y-66883809D01*
X126950952Y-66883809D01*
X126998571Y-66860000D01*
X127022380Y-66836190D01*
X127046190Y-66788571D01*
X127046190Y-66693333D01*
X127022380Y-66645714D01*
X126998571Y-66621904D01*
X126950952Y-66598095D01*
X126831904Y-66598095D01*
X126784285Y-66621904D01*
X126760476Y-66645714D01*
X126736666Y-66693333D01*
X126736666Y-66788571D01*
X126760476Y-66836190D01*
X126784285Y-66860000D01*
X126831904Y-66883809D01*
X110826190Y-68413333D02*
X110326190Y-68413333D01*
X110326190Y-68222857D01*
X110350000Y-68175238D01*
X110373809Y-68151428D01*
X110421428Y-68127619D01*
X110492857Y-68127619D01*
X110540476Y-68151428D01*
X110564285Y-68175238D01*
X110588095Y-68222857D01*
X110588095Y-68413333D01*
X110683333Y-67937142D02*
X110683333Y-67699047D01*
X110826190Y-67984761D02*
X110326190Y-67818095D01*
X110826190Y-67651428D01*
X110326190Y-67246666D02*
X110326190Y-67484761D01*
X110564285Y-67508571D01*
X110540476Y-67484761D01*
X110516666Y-67437142D01*
X110516666Y-67318095D01*
X110540476Y-67270476D01*
X110564285Y-67246666D01*
X110611904Y-67222857D01*
X110730952Y-67222857D01*
X110778571Y-67246666D01*
X110802380Y-67270476D01*
X110826190Y-67318095D01*
X110826190Y-67437142D01*
X110802380Y-67484761D01*
X110778571Y-67508571D01*
X200714285Y-107879523D02*
X200738095Y-107808095D01*
X200761904Y-107784285D01*
X200809523Y-107760476D01*
X200880952Y-107760476D01*
X200928571Y-107784285D01*
X200952380Y-107808095D01*
X200976190Y-107855714D01*
X200976190Y-108046190D01*
X200476190Y-108046190D01*
X200476190Y-107879523D01*
X200500000Y-107831904D01*
X200523809Y-107808095D01*
X200571428Y-107784285D01*
X200619047Y-107784285D01*
X200666666Y-107808095D01*
X200690476Y-107831904D01*
X200714285Y-107879523D01*
X200714285Y-108046190D01*
X200833333Y-107570000D02*
X200833333Y-107331904D01*
X200976190Y-107617619D02*
X200476190Y-107450952D01*
X200976190Y-107284285D01*
X200476190Y-107189047D02*
X200476190Y-106903333D01*
X200976190Y-107046190D02*
X200476190Y-107046190D01*
X200476190Y-106808095D02*
X200476190Y-106522380D01*
X200976190Y-106665238D02*
X200476190Y-106665238D01*
X206293809Y-102786666D02*
X206270000Y-102834285D01*
X206222380Y-102881904D01*
X206150952Y-102953333D01*
X206127142Y-103000952D01*
X206127142Y-103048571D01*
X206246190Y-103024761D02*
X206222380Y-103072380D01*
X206174761Y-103120000D01*
X206079523Y-103143809D01*
X205912857Y-103143809D01*
X205817619Y-103120000D01*
X205770000Y-103072380D01*
X205746190Y-103024761D01*
X205746190Y-102929523D01*
X205770000Y-102881904D01*
X205817619Y-102834285D01*
X205912857Y-102810476D01*
X206079523Y-102810476D01*
X206174761Y-102834285D01*
X206222380Y-102881904D01*
X206246190Y-102929523D01*
X206246190Y-103024761D01*
X206246190Y-102334285D02*
X206246190Y-102620000D01*
X206246190Y-102477142D02*
X205746190Y-102477142D01*
X205817619Y-102524761D01*
X205865238Y-102572380D01*
X205889047Y-102620000D01*
X206293809Y-102239047D02*
X206293809Y-101858095D01*
X206246190Y-101500952D02*
X206246190Y-101739047D01*
X205746190Y-101739047D01*
X205984285Y-101334285D02*
X205984285Y-101167619D01*
X206246190Y-101096190D02*
X206246190Y-101334285D01*
X205746190Y-101334285D01*
X205746190Y-101096190D01*
X206246190Y-100881904D02*
X205746190Y-100881904D01*
X205746190Y-100762857D01*
X205770000Y-100691428D01*
X205817619Y-100643809D01*
X205865238Y-100620000D01*
X205960476Y-100596190D01*
X206031904Y-100596190D01*
X206127142Y-100620000D01*
X206174761Y-100643809D01*
X206222380Y-100691428D01*
X206246190Y-100762857D01*
X206246190Y-100881904D01*
X152023809Y-68283809D02*
X152000000Y-68331428D01*
X151952380Y-68379047D01*
X151880952Y-68450476D01*
X151857142Y-68498095D01*
X151857142Y-68545714D01*
X151976190Y-68521904D02*
X151952380Y-68569523D01*
X151904761Y-68617142D01*
X151809523Y-68640952D01*
X151642857Y-68640952D01*
X151547619Y-68617142D01*
X151500000Y-68569523D01*
X151476190Y-68521904D01*
X151476190Y-68426666D01*
X151500000Y-68379047D01*
X151547619Y-68331428D01*
X151642857Y-68307619D01*
X151809523Y-68307619D01*
X151904761Y-68331428D01*
X151952380Y-68379047D01*
X151976190Y-68426666D01*
X151976190Y-68521904D01*
X151714285Y-67926666D02*
X151738095Y-67855238D01*
X151761904Y-67831428D01*
X151809523Y-67807619D01*
X151880952Y-67807619D01*
X151928571Y-67831428D01*
X151952380Y-67855238D01*
X151976190Y-67902857D01*
X151976190Y-68093333D01*
X151476190Y-68093333D01*
X151476190Y-67926666D01*
X151500000Y-67879047D01*
X151523809Y-67855238D01*
X151571428Y-67831428D01*
X151619047Y-67831428D01*
X151666666Y-67855238D01*
X151690476Y-67879047D01*
X151714285Y-67926666D01*
X151714285Y-68093333D01*
X151833333Y-67617142D02*
X151833333Y-67379047D01*
X151976190Y-67664761D02*
X151476190Y-67498095D01*
X151976190Y-67331428D01*
X151976190Y-66879047D02*
X151738095Y-67045714D01*
X151976190Y-67164761D02*
X151476190Y-67164761D01*
X151476190Y-66974285D01*
X151500000Y-66926666D01*
X151523809Y-66902857D01*
X151571428Y-66879047D01*
X151642857Y-66879047D01*
X151690476Y-66902857D01*
X151714285Y-66926666D01*
X151738095Y-66974285D01*
X151738095Y-67164761D01*
X154033809Y-67509523D02*
X154010000Y-67557142D01*
X153962380Y-67604761D01*
X153890952Y-67676190D01*
X153867142Y-67723809D01*
X153867142Y-67771428D01*
X153986190Y-67747619D02*
X153962380Y-67795238D01*
X153914761Y-67842857D01*
X153819523Y-67866666D01*
X153652857Y-67866666D01*
X153557619Y-67842857D01*
X153510000Y-67795238D01*
X153486190Y-67747619D01*
X153486190Y-67652380D01*
X153510000Y-67604761D01*
X153557619Y-67557142D01*
X153652857Y-67533333D01*
X153819523Y-67533333D01*
X153914761Y-67557142D01*
X153962380Y-67604761D01*
X153986190Y-67652380D01*
X153986190Y-67747619D01*
X112766190Y-68373333D02*
X112266190Y-68373333D01*
X112266190Y-68182857D01*
X112290000Y-68135238D01*
X112313809Y-68111428D01*
X112361428Y-68087619D01*
X112432857Y-68087619D01*
X112480476Y-68111428D01*
X112504285Y-68135238D01*
X112528095Y-68182857D01*
X112528095Y-68373333D01*
X112623333Y-67897142D02*
X112623333Y-67659047D01*
X112766190Y-67944761D02*
X112266190Y-67778095D01*
X112766190Y-67611428D01*
X112266190Y-67492380D02*
X112266190Y-67159047D01*
X112766190Y-67373333D01*
X145966190Y-68836190D02*
X145728095Y-69002857D01*
X145966190Y-69121904D02*
X145466190Y-69121904D01*
X145466190Y-68931428D01*
X145490000Y-68883809D01*
X145513809Y-68860000D01*
X145561428Y-68836190D01*
X145632857Y-68836190D01*
X145680476Y-68860000D01*
X145704285Y-68883809D01*
X145728095Y-68931428D01*
X145728095Y-69121904D01*
X145704285Y-68621904D02*
X145704285Y-68455238D01*
X145966190Y-68383809D02*
X145966190Y-68621904D01*
X145466190Y-68621904D01*
X145466190Y-68383809D01*
X145942380Y-68193333D02*
X145966190Y-68121904D01*
X145966190Y-68002857D01*
X145942380Y-67955238D01*
X145918571Y-67931428D01*
X145870952Y-67907619D01*
X145823333Y-67907619D01*
X145775714Y-67931428D01*
X145751904Y-67955238D01*
X145728095Y-68002857D01*
X145704285Y-68098095D01*
X145680476Y-68145714D01*
X145656666Y-68169523D01*
X145609047Y-68193333D01*
X145561428Y-68193333D01*
X145513809Y-68169523D01*
X145490000Y-68145714D01*
X145466190Y-68098095D01*
X145466190Y-67979047D01*
X145490000Y-67907619D01*
X145704285Y-67693333D02*
X145704285Y-67526666D01*
X145966190Y-67455238D02*
X145966190Y-67693333D01*
X145466190Y-67693333D01*
X145466190Y-67455238D01*
X145466190Y-67312380D02*
X145466190Y-67026666D01*
X145966190Y-67169523D02*
X145466190Y-67169523D01*
X176886190Y-80604285D02*
X176386190Y-80604285D01*
X176386190Y-80413809D01*
X176410000Y-80366190D01*
X176433809Y-80342380D01*
X176481428Y-80318571D01*
X176552857Y-80318571D01*
X176600476Y-80342380D01*
X176624285Y-80366190D01*
X176648095Y-80413809D01*
X176648095Y-80604285D01*
X176743333Y-80128095D02*
X176743333Y-79890000D01*
X176886190Y-80175714D02*
X176386190Y-80009047D01*
X176886190Y-79842380D01*
X176886190Y-79413809D02*
X176886190Y-79699523D01*
X176886190Y-79556666D02*
X176386190Y-79556666D01*
X176457619Y-79604285D01*
X176505238Y-79651904D01*
X176529047Y-79699523D01*
X176433809Y-79223333D02*
X176410000Y-79199523D01*
X176386190Y-79151904D01*
X176386190Y-79032857D01*
X176410000Y-78985238D01*
X176433809Y-78961428D01*
X176481428Y-78937619D01*
X176529047Y-78937619D01*
X176600476Y-78961428D01*
X176886190Y-79247142D01*
X176886190Y-78937619D01*
X176933809Y-78842380D02*
X176933809Y-78461428D01*
X176862380Y-78366190D02*
X176886190Y-78294761D01*
X176886190Y-78175714D01*
X176862380Y-78128095D01*
X176838571Y-78104285D01*
X176790952Y-78080476D01*
X176743333Y-78080476D01*
X176695714Y-78104285D01*
X176671904Y-78128095D01*
X176648095Y-78175714D01*
X176624285Y-78270952D01*
X176600476Y-78318571D01*
X176576666Y-78342380D01*
X176529047Y-78366190D01*
X176481428Y-78366190D01*
X176433809Y-78342380D01*
X176410000Y-78318571D01*
X176386190Y-78270952D01*
X176386190Y-78151904D01*
X176410000Y-78080476D01*
X176552857Y-77913809D02*
X176886190Y-77818571D01*
X176648095Y-77723333D01*
X176886190Y-77628095D01*
X176552857Y-77532857D01*
X176886190Y-77342380D02*
X176552857Y-77342380D01*
X176386190Y-77342380D02*
X176410000Y-77366190D01*
X176433809Y-77342380D01*
X176410000Y-77318571D01*
X176386190Y-77342380D01*
X176433809Y-77342380D01*
X176552857Y-77175714D02*
X176552857Y-76985238D01*
X176386190Y-77104285D02*
X176814761Y-77104285D01*
X176862380Y-77080476D01*
X176886190Y-77032857D01*
X176886190Y-76985238D01*
X176862380Y-76604285D02*
X176886190Y-76651904D01*
X176886190Y-76747142D01*
X176862380Y-76794761D01*
X176838571Y-76818571D01*
X176790952Y-76842380D01*
X176648095Y-76842380D01*
X176600476Y-76818571D01*
X176576666Y-76794761D01*
X176552857Y-76747142D01*
X176552857Y-76651904D01*
X176576666Y-76604285D01*
X176886190Y-76390000D02*
X176386190Y-76390000D01*
X176886190Y-76175714D02*
X176624285Y-76175714D01*
X176576666Y-76199523D01*
X176552857Y-76247142D01*
X176552857Y-76318571D01*
X176576666Y-76366190D01*
X176600476Y-76390000D01*
X134806190Y-68049047D02*
X134306190Y-68049047D01*
X134306190Y-67858571D01*
X134330000Y-67810952D01*
X134353809Y-67787142D01*
X134401428Y-67763333D01*
X134472857Y-67763333D01*
X134520476Y-67787142D01*
X134544285Y-67810952D01*
X134568095Y-67858571D01*
X134568095Y-68049047D01*
X134758571Y-67263333D02*
X134782380Y-67287142D01*
X134806190Y-67358571D01*
X134806190Y-67406190D01*
X134782380Y-67477619D01*
X134734761Y-67525238D01*
X134687142Y-67549047D01*
X134591904Y-67572857D01*
X134520476Y-67572857D01*
X134425238Y-67549047D01*
X134377619Y-67525238D01*
X134330000Y-67477619D01*
X134306190Y-67406190D01*
X134306190Y-67358571D01*
X134330000Y-67287142D01*
X134353809Y-67263333D01*
X134806190Y-67025238D02*
X134806190Y-66930000D01*
X134782380Y-66882380D01*
X134758571Y-66858571D01*
X134687142Y-66810952D01*
X134591904Y-66787142D01*
X134401428Y-66787142D01*
X134353809Y-66810952D01*
X134330000Y-66834761D01*
X134306190Y-66882380D01*
X134306190Y-66977619D01*
X134330000Y-67025238D01*
X134353809Y-67049047D01*
X134401428Y-67072857D01*
X134520476Y-67072857D01*
X134568095Y-67049047D01*
X134591904Y-67025238D01*
X134615714Y-66977619D01*
X134615714Y-66882380D01*
X134591904Y-66834761D01*
X134568095Y-66810952D01*
X134520476Y-66787142D01*
X176926190Y-91721904D02*
X176688095Y-91888571D01*
X176926190Y-92007619D02*
X176426190Y-92007619D01*
X176426190Y-91817142D01*
X176450000Y-91769523D01*
X176473809Y-91745714D01*
X176521428Y-91721904D01*
X176592857Y-91721904D01*
X176640476Y-91745714D01*
X176664285Y-91769523D01*
X176688095Y-91817142D01*
X176688095Y-92007619D01*
X176902380Y-91317142D02*
X176926190Y-91364761D01*
X176926190Y-91460000D01*
X176902380Y-91507619D01*
X176854761Y-91531428D01*
X176664285Y-91531428D01*
X176616666Y-91507619D01*
X176592857Y-91460000D01*
X176592857Y-91364761D01*
X176616666Y-91317142D01*
X176664285Y-91293333D01*
X176711904Y-91293333D01*
X176759523Y-91531428D01*
X176902380Y-91102857D02*
X176926190Y-91055238D01*
X176926190Y-90960000D01*
X176902380Y-90912380D01*
X176854761Y-90888571D01*
X176830952Y-90888571D01*
X176783333Y-90912380D01*
X176759523Y-90960000D01*
X176759523Y-91031428D01*
X176735714Y-91079047D01*
X176688095Y-91102857D01*
X176664285Y-91102857D01*
X176616666Y-91079047D01*
X176592857Y-91031428D01*
X176592857Y-90960000D01*
X176616666Y-90912380D01*
X176902380Y-90483809D02*
X176926190Y-90531428D01*
X176926190Y-90626666D01*
X176902380Y-90674285D01*
X176854761Y-90698095D01*
X176664285Y-90698095D01*
X176616666Y-90674285D01*
X176592857Y-90626666D01*
X176592857Y-90531428D01*
X176616666Y-90483809D01*
X176664285Y-90460000D01*
X176711904Y-90460000D01*
X176759523Y-90698095D01*
X176592857Y-90317142D02*
X176592857Y-90126666D01*
X176426190Y-90245714D02*
X176854761Y-90245714D01*
X176902380Y-90221904D01*
X176926190Y-90174285D01*
X176926190Y-90126666D01*
X176973809Y-90079047D02*
X176973809Y-89698095D01*
X176902380Y-89602857D02*
X176926190Y-89531428D01*
X176926190Y-89412380D01*
X176902380Y-89364761D01*
X176878571Y-89340952D01*
X176830952Y-89317142D01*
X176783333Y-89317142D01*
X176735714Y-89340952D01*
X176711904Y-89364761D01*
X176688095Y-89412380D01*
X176664285Y-89507619D01*
X176640476Y-89555238D01*
X176616666Y-89579047D01*
X176569047Y-89602857D01*
X176521428Y-89602857D01*
X176473809Y-89579047D01*
X176450000Y-89555238D01*
X176426190Y-89507619D01*
X176426190Y-89388571D01*
X176450000Y-89317142D01*
X176592857Y-89150476D02*
X176926190Y-89055238D01*
X176688095Y-88960000D01*
X176926190Y-88864761D01*
X176592857Y-88769523D01*
X176926190Y-88579047D02*
X176592857Y-88579047D01*
X176426190Y-88579047D02*
X176450000Y-88602857D01*
X176473809Y-88579047D01*
X176450000Y-88555238D01*
X176426190Y-88579047D01*
X176473809Y-88579047D01*
X176592857Y-88412380D02*
X176592857Y-88221904D01*
X176426190Y-88340952D02*
X176854761Y-88340952D01*
X176902380Y-88317142D01*
X176926190Y-88269523D01*
X176926190Y-88221904D01*
X176902380Y-87840952D02*
X176926190Y-87888571D01*
X176926190Y-87983809D01*
X176902380Y-88031428D01*
X176878571Y-88055238D01*
X176830952Y-88079047D01*
X176688095Y-88079047D01*
X176640476Y-88055238D01*
X176616666Y-88031428D01*
X176592857Y-87983809D01*
X176592857Y-87888571D01*
X176616666Y-87840952D01*
X176926190Y-87626666D02*
X176426190Y-87626666D01*
X176926190Y-87412380D02*
X176664285Y-87412380D01*
X176616666Y-87436190D01*
X176592857Y-87483809D01*
X176592857Y-87555238D01*
X176616666Y-87602857D01*
X176640476Y-87626666D01*
X124891904Y-76646190D02*
X124891904Y-76146190D01*
X125082380Y-76146190D01*
X125130000Y-76170000D01*
X125153809Y-76193809D01*
X125177619Y-76241428D01*
X125177619Y-76312857D01*
X125153809Y-76360476D01*
X125130000Y-76384285D01*
X125082380Y-76408095D01*
X124891904Y-76408095D01*
X125677619Y-76598571D02*
X125653809Y-76622380D01*
X125582380Y-76646190D01*
X125534761Y-76646190D01*
X125463333Y-76622380D01*
X125415714Y-76574761D01*
X125391904Y-76527142D01*
X125368095Y-76431904D01*
X125368095Y-76360476D01*
X125391904Y-76265238D01*
X125415714Y-76217619D01*
X125463333Y-76170000D01*
X125534761Y-76146190D01*
X125582380Y-76146190D01*
X125653809Y-76170000D01*
X125677619Y-76193809D01*
X126153809Y-76646190D02*
X125868095Y-76646190D01*
X126010952Y-76646190D02*
X126010952Y-76146190D01*
X125963333Y-76217619D01*
X125915714Y-76265238D01*
X125868095Y-76289047D01*
X126249047Y-76693809D02*
X126630000Y-76693809D01*
X126987142Y-76646190D02*
X126749047Y-76646190D01*
X126749047Y-76146190D01*
X127153809Y-76384285D02*
X127320476Y-76384285D01*
X127391904Y-76646190D02*
X127153809Y-76646190D01*
X127153809Y-76146190D01*
X127391904Y-76146190D01*
X127606190Y-76646190D02*
X127606190Y-76146190D01*
X127725238Y-76146190D01*
X127796666Y-76170000D01*
X127844285Y-76217619D01*
X127868095Y-76265238D01*
X127891904Y-76360476D01*
X127891904Y-76431904D01*
X127868095Y-76527142D01*
X127844285Y-76574761D01*
X127796666Y-76622380D01*
X127725238Y-76646190D01*
X127606190Y-76646190D01*
X123991904Y-83586190D02*
X123991904Y-83086190D01*
X124182380Y-83086190D01*
X124230000Y-83110000D01*
X124253809Y-83133809D01*
X124277619Y-83181428D01*
X124277619Y-83252857D01*
X124253809Y-83300476D01*
X124230000Y-83324285D01*
X124182380Y-83348095D01*
X123991904Y-83348095D01*
X124491904Y-83586190D02*
X124491904Y-83086190D01*
X124610952Y-83086190D01*
X124682380Y-83110000D01*
X124730000Y-83157619D01*
X124753809Y-83205238D01*
X124777619Y-83300476D01*
X124777619Y-83371904D01*
X124753809Y-83467142D01*
X124730000Y-83514761D01*
X124682380Y-83562380D01*
X124610952Y-83586190D01*
X124491904Y-83586190D01*
X124968095Y-83133809D02*
X124991904Y-83110000D01*
X125039523Y-83086190D01*
X125158571Y-83086190D01*
X125206190Y-83110000D01*
X125230000Y-83133809D01*
X125253809Y-83181428D01*
X125253809Y-83229047D01*
X125230000Y-83300476D01*
X124944285Y-83586190D01*
X125253809Y-83586190D01*
X125349047Y-83633809D02*
X125730000Y-83633809D01*
X126087142Y-83586190D02*
X125849047Y-83586190D01*
X125849047Y-83086190D01*
X126253809Y-83324285D02*
X126420476Y-83324285D01*
X126491904Y-83586190D02*
X126253809Y-83586190D01*
X126253809Y-83086190D01*
X126491904Y-83086190D01*
X126706190Y-83586190D02*
X126706190Y-83086190D01*
X126825238Y-83086190D01*
X126896666Y-83110000D01*
X126944285Y-83157619D01*
X126968095Y-83205238D01*
X126991904Y-83300476D01*
X126991904Y-83371904D01*
X126968095Y-83467142D01*
X126944285Y-83514761D01*
X126896666Y-83562380D01*
X126825238Y-83586190D01*
X126706190Y-83586190D01*
X196220000Y-107710952D02*
X196196190Y-107758571D01*
X196196190Y-107830000D01*
X196220000Y-107901428D01*
X196267619Y-107949047D01*
X196315238Y-107972857D01*
X196410476Y-107996666D01*
X196481904Y-107996666D01*
X196577142Y-107972857D01*
X196624761Y-107949047D01*
X196672380Y-107901428D01*
X196696190Y-107830000D01*
X196696190Y-107782380D01*
X196672380Y-107710952D01*
X196648571Y-107687142D01*
X196481904Y-107687142D01*
X196481904Y-107782380D01*
X196696190Y-107472857D02*
X196196190Y-107472857D01*
X196696190Y-107187142D01*
X196196190Y-107187142D01*
X196696190Y-106949047D02*
X196196190Y-106949047D01*
X196196190Y-106830000D01*
X196220000Y-106758571D01*
X196267619Y-106710952D01*
X196315238Y-106687142D01*
X196410476Y-106663333D01*
X196481904Y-106663333D01*
X196577142Y-106687142D01*
X196624761Y-106710952D01*
X196672380Y-106758571D01*
X196696190Y-106830000D01*
X196696190Y-106949047D01*
X203686190Y-68340952D02*
X203448095Y-68507619D01*
X203686190Y-68626666D02*
X203186190Y-68626666D01*
X203186190Y-68436190D01*
X203210000Y-68388571D01*
X203233809Y-68364761D01*
X203281428Y-68340952D01*
X203352857Y-68340952D01*
X203400476Y-68364761D01*
X203424285Y-68388571D01*
X203448095Y-68436190D01*
X203448095Y-68626666D01*
X203686190Y-68126666D02*
X203186190Y-68126666D01*
X203686190Y-67626666D02*
X203686190Y-67912380D01*
X203686190Y-67769523D02*
X203186190Y-67769523D01*
X203257619Y-67817142D01*
X203305238Y-67864761D01*
X203329047Y-67912380D01*
X203733809Y-67531428D02*
X203733809Y-67150476D01*
X203186190Y-66793333D02*
X203186190Y-67031428D01*
X203424285Y-67055238D01*
X203400476Y-67031428D01*
X203376666Y-66983809D01*
X203376666Y-66864761D01*
X203400476Y-66817142D01*
X203424285Y-66793333D01*
X203471904Y-66769523D01*
X203590952Y-66769523D01*
X203638571Y-66793333D01*
X203662380Y-66817142D01*
X203686190Y-66864761D01*
X203686190Y-66983809D01*
X203662380Y-67031428D01*
X203638571Y-67055238D01*
X150026190Y-68231428D02*
X149526190Y-68231428D01*
X149526190Y-68112380D01*
X149550000Y-68040952D01*
X149597619Y-67993333D01*
X149645238Y-67969523D01*
X149740476Y-67945714D01*
X149811904Y-67945714D01*
X149907142Y-67969523D01*
X149954761Y-67993333D01*
X150002380Y-68040952D01*
X150026190Y-68112380D01*
X150026190Y-68231428D01*
X149526190Y-67802857D02*
X149526190Y-67517142D01*
X150026190Y-67660000D02*
X149526190Y-67660000D01*
X150026190Y-67064761D02*
X149788095Y-67231428D01*
X150026190Y-67350476D02*
X149526190Y-67350476D01*
X149526190Y-67160000D01*
X149550000Y-67112380D01*
X149573809Y-67088571D01*
X149621428Y-67064761D01*
X149692857Y-67064761D01*
X149740476Y-67088571D01*
X149764285Y-67112380D01*
X149788095Y-67160000D01*
X149788095Y-67350476D01*
X110640952Y-104516190D02*
X110640952Y-104016190D01*
X110974285Y-104016190D02*
X111069523Y-104016190D01*
X111117142Y-104040000D01*
X111164761Y-104087619D01*
X111188571Y-104182857D01*
X111188571Y-104349523D01*
X111164761Y-104444761D01*
X111117142Y-104492380D01*
X111069523Y-104516190D01*
X110974285Y-104516190D01*
X110926666Y-104492380D01*
X110879047Y-104444761D01*
X110855238Y-104349523D01*
X110855238Y-104182857D01*
X110879047Y-104087619D01*
X110926666Y-104040000D01*
X110974285Y-104016190D01*
X111640952Y-104016190D02*
X111402857Y-104016190D01*
X111379047Y-104254285D01*
X111402857Y-104230476D01*
X111450476Y-104206666D01*
X111569523Y-104206666D01*
X111617142Y-104230476D01*
X111640952Y-104254285D01*
X111664761Y-104301904D01*
X111664761Y-104420952D01*
X111640952Y-104468571D01*
X111617142Y-104492380D01*
X111569523Y-104516190D01*
X111450476Y-104516190D01*
X111402857Y-104492380D01*
X111379047Y-104468571D01*
X111760000Y-104563809D02*
X112140952Y-104563809D01*
X112498095Y-104516190D02*
X112260000Y-104516190D01*
X112260000Y-104016190D01*
X112664761Y-104254285D02*
X112831428Y-104254285D01*
X112902857Y-104516190D02*
X112664761Y-104516190D01*
X112664761Y-104016190D01*
X112902857Y-104016190D01*
X113117142Y-104516190D02*
X113117142Y-104016190D01*
X113236190Y-104016190D01*
X113307619Y-104040000D01*
X113355238Y-104087619D01*
X113379047Y-104135238D01*
X113402857Y-104230476D01*
X113402857Y-104301904D01*
X113379047Y-104397142D01*
X113355238Y-104444761D01*
X113307619Y-104492380D01*
X113236190Y-104516190D01*
X113117142Y-104516190D01*
X136696190Y-68079047D02*
X136196190Y-68079047D01*
X136196190Y-67888571D01*
X136220000Y-67840952D01*
X136243809Y-67817142D01*
X136291428Y-67793333D01*
X136362857Y-67793333D01*
X136410476Y-67817142D01*
X136434285Y-67840952D01*
X136458095Y-67888571D01*
X136458095Y-68079047D01*
X136648571Y-67293333D02*
X136672380Y-67317142D01*
X136696190Y-67388571D01*
X136696190Y-67436190D01*
X136672380Y-67507619D01*
X136624761Y-67555238D01*
X136577142Y-67579047D01*
X136481904Y-67602857D01*
X136410476Y-67602857D01*
X136315238Y-67579047D01*
X136267619Y-67555238D01*
X136220000Y-67507619D01*
X136196190Y-67436190D01*
X136196190Y-67388571D01*
X136220000Y-67317142D01*
X136243809Y-67293333D01*
X136410476Y-67007619D02*
X136386666Y-67055238D01*
X136362857Y-67079047D01*
X136315238Y-67102857D01*
X136291428Y-67102857D01*
X136243809Y-67079047D01*
X136220000Y-67055238D01*
X136196190Y-67007619D01*
X136196190Y-66912380D01*
X136220000Y-66864761D01*
X136243809Y-66840952D01*
X136291428Y-66817142D01*
X136315238Y-66817142D01*
X136362857Y-66840952D01*
X136386666Y-66864761D01*
X136410476Y-66912380D01*
X136410476Y-67007619D01*
X136434285Y-67055238D01*
X136458095Y-67079047D01*
X136505714Y-67102857D01*
X136600952Y-67102857D01*
X136648571Y-67079047D01*
X136672380Y-67055238D01*
X136696190Y-67007619D01*
X136696190Y-66912380D01*
X136672380Y-66864761D01*
X136648571Y-66840952D01*
X136600952Y-66817142D01*
X136505714Y-66817142D01*
X136458095Y-66840952D01*
X136434285Y-66864761D01*
X136410476Y-66912380D01*
X205666190Y-68190952D02*
X205666190Y-68429047D01*
X205166190Y-68429047D01*
X205666190Y-68024285D02*
X205332857Y-68024285D01*
X205166190Y-68024285D02*
X205190000Y-68048095D01*
X205213809Y-68024285D01*
X205190000Y-68000476D01*
X205166190Y-68024285D01*
X205213809Y-68024285D01*
X205666190Y-67524285D02*
X205666190Y-67810000D01*
X205666190Y-67667142D02*
X205166190Y-67667142D01*
X205237619Y-67714761D01*
X205285238Y-67762380D01*
X205309047Y-67810000D01*
X205713809Y-67429047D02*
X205713809Y-67048095D01*
X205332857Y-66714761D02*
X205666190Y-66714761D01*
X205142380Y-66833809D02*
X205499523Y-66952857D01*
X205499523Y-66643333D01*
D12*
%TO.C,J7*%
X172300000Y-114400000D02*
X178500000Y-114400000D01*
X178500000Y-114400000D02*
X178500000Y-110050000D01*
X178500000Y-110050000D02*
X172300000Y-110050000D01*
X172300000Y-110050000D02*
X172300000Y-114400000D01*
X178500000Y-114400000D02*
X172300000Y-114400000D01*
X172300000Y-114400000D02*
X172300000Y-114400000D01*
X172300000Y-114400000D02*
X178500000Y-114400000D01*
X178500000Y-114400000D02*
X178500000Y-114400000D01*
%TO.C,C17*%
X174765000Y-69531252D02*
X174765000Y-69008748D01*
X176235000Y-69531252D02*
X176235000Y-69008748D01*
%TO.C,R9*%
X141165000Y-70332936D02*
X141165000Y-70787064D01*
X139695000Y-70332936D02*
X139695000Y-70787064D01*
%TO.C,C15*%
X178658748Y-78225000D02*
X179181252Y-78225000D01*
X178658748Y-79695000D02*
X179181252Y-79695000D01*
%TO.C,U13*%
X170090000Y-99700000D02*
X172490000Y-99700000D01*
X172490000Y-99700000D02*
X172490000Y-93760000D01*
X172490000Y-93760000D02*
X170090000Y-93760000D01*
X170090000Y-93760000D02*
X170090000Y-99700000D01*
%TO.C,R24*%
X131339564Y-80605000D02*
X130885436Y-80605000D01*
X131339564Y-79135000D02*
X130885436Y-79135000D01*
%TO.C,R40*%
X208275000Y-105207064D02*
X208275000Y-104752936D01*
X206805000Y-105207064D02*
X206805000Y-104752936D01*
%TO.C,R37*%
X195262936Y-79735000D02*
X195717064Y-79735000D01*
X195262936Y-78265000D02*
X195717064Y-78265000D01*
%TO.C,R38*%
X204052936Y-99095000D02*
X204507064Y-99095000D01*
X204052936Y-100565000D02*
X204507064Y-100565000D01*
%TO.C,J3*%
X164220000Y-114370000D02*
X170420000Y-114370000D01*
X170420000Y-114370000D02*
X170420000Y-110020000D01*
X170420000Y-110020000D02*
X164220000Y-110020000D01*
X164220000Y-110020000D02*
X164220000Y-114370000D01*
X170420000Y-114370000D02*
X164220000Y-114370000D01*
X164220000Y-114370000D02*
X164220000Y-114370000D01*
X164220000Y-114370000D02*
X170420000Y-114370000D01*
X170420000Y-114370000D02*
X170420000Y-114370000D01*
%TO.C,D7*%
X124665000Y-78840000D02*
X127350000Y-78840000D01*
X124665000Y-76920000D02*
X124665000Y-78840000D01*
X127350000Y-76920000D02*
X124665000Y-76920000D01*
%TO.C,R33*%
X134295000Y-70352936D02*
X134295000Y-70807064D01*
X132825000Y-70352936D02*
X132825000Y-70807064D01*
%TO.C,C7*%
X188835000Y-80031252D02*
X188835000Y-79508748D01*
X187365000Y-80031252D02*
X187365000Y-79508748D01*
%TO.C,R7*%
X147765000Y-70932936D02*
X147765000Y-71387064D01*
X146295000Y-70932936D02*
X146295000Y-71387064D01*
%TO.C,C13*%
X153105000Y-93458748D02*
X153105000Y-93981252D01*
X154575000Y-93458748D02*
X154575000Y-93981252D01*
%TO.C,D1*%
X192880000Y-88230000D02*
X195565000Y-88230000D01*
X195565000Y-88230000D02*
X195565000Y-86310000D01*
X195565000Y-86310000D02*
X192880000Y-86310000D01*
%TO.C,U1*%
X152385000Y-81450000D02*
X153335000Y-81450000D01*
X143115000Y-82400000D02*
X141775000Y-82400000D01*
X144065000Y-81450000D02*
X143115000Y-81450000D01*
X152385000Y-91670000D02*
X153335000Y-91670000D01*
X143115000Y-81450000D02*
X143115000Y-82400000D01*
X143115000Y-91670000D02*
X143115000Y-90720000D01*
X153335000Y-81450000D02*
X153335000Y-82400000D01*
X153335000Y-91670000D02*
X153335000Y-90720000D01*
X144065000Y-91670000D02*
X143115000Y-91670000D01*
%TO.C,R15*%
X142213000Y-98779064D02*
X142213000Y-98324936D01*
X140743000Y-98779064D02*
X140743000Y-98324936D01*
%TO.C,D13*%
X210650000Y-99645000D02*
X208730000Y-99645000D01*
X210650000Y-102330000D02*
X210650000Y-99645000D01*
X208730000Y-99645000D02*
X208730000Y-102330000D01*
%TO.C,C10*%
X137195000Y-89991252D02*
X137195000Y-89468748D01*
X135725000Y-89991252D02*
X135725000Y-89468748D01*
%TO.C,U4*%
X203420000Y-96100000D02*
X201520000Y-96100000D01*
X201820000Y-97900000D02*
X203420000Y-97900000D01*
%TO.C,R35*%
X128295000Y-69782936D02*
X128295000Y-70237064D01*
X129765000Y-69782936D02*
X129765000Y-70237064D01*
%TO.C,120R1*%
X133562779Y-90650000D02*
X133237221Y-90650000D01*
X133562779Y-89630000D02*
X133237221Y-89630000D01*
%TO.C,C4*%
X138615000Y-75851252D02*
X138615000Y-75328748D01*
X140085000Y-75851252D02*
X140085000Y-75328748D01*
%TO.C,R20*%
X121882936Y-90445000D02*
X122337064Y-90445000D01*
X121882936Y-88975000D02*
X122337064Y-88975000D01*
%TO.C,J6*%
X100580000Y-63510000D02*
X101860000Y-63510000D01*
X100580000Y-65110000D02*
X100580000Y-63510000D01*
X119680000Y-65110000D02*
X118660000Y-65110000D01*
X117380000Y-63510000D02*
X117380000Y-66400000D01*
X119680000Y-60860000D02*
X119680000Y-65110000D01*
X118660000Y-63510000D02*
X117380000Y-63510000D01*
X99560000Y-60860000D02*
X99560000Y-65110000D01*
X118660000Y-65110000D02*
X118660000Y-63510000D01*
X99560000Y-65110000D02*
X100580000Y-65110000D01*
X117960000Y-57290000D02*
X101280000Y-57290000D01*
%TO.C,C2*%
X208008748Y-70075000D02*
X208531252Y-70075000D01*
X208008748Y-68605000D02*
X208531252Y-68605000D01*
%TO.C,R19*%
X118832936Y-101455000D02*
X119287064Y-101455000D01*
X118832936Y-99985000D02*
X119287064Y-99985000D01*
%TO.C,R8*%
X144085000Y-71532936D02*
X144085000Y-71987064D01*
X145555000Y-71532936D02*
X145555000Y-71987064D01*
%TO.C,R41*%
X144245000Y-98779064D02*
X144245000Y-98324936D01*
X142775000Y-98779064D02*
X142775000Y-98324936D01*
%TO.C,U12*%
X195370000Y-83440000D02*
X196170000Y-83440000D01*
X195370000Y-80320000D02*
X193570000Y-80320000D01*
X195370000Y-80320000D02*
X196170000Y-80320000D01*
X195370000Y-83440000D02*
X194570000Y-83440000D01*
%TO.C,D12*%
X206570000Y-99662500D02*
X206570000Y-102347500D01*
X208490000Y-99662500D02*
X206570000Y-99662500D01*
X208490000Y-102347500D02*
X208490000Y-99662500D01*
%TO.C,SW10*%
X173250000Y-79095000D02*
X173250000Y-77825000D01*
X168030000Y-80570000D02*
X174850000Y-80570000D01*
X169630000Y-78185000D02*
X170836667Y-78185000D01*
X174850000Y-76350000D02*
X174850000Y-77660000D01*
X169630000Y-77945000D02*
X170836667Y-77945000D01*
X173250000Y-77825000D02*
X169630000Y-77825000D01*
X169630000Y-79025000D02*
X170836667Y-79025000D01*
X169630000Y-78065000D02*
X170836667Y-78065000D01*
X169630000Y-78665000D02*
X170836667Y-78665000D01*
X168030000Y-76350000D02*
X168030000Y-77660000D01*
X167790000Y-76110000D02*
X167790000Y-77493000D01*
X168030000Y-79260000D02*
X168030000Y-80570000D01*
X169630000Y-78545000D02*
X170836667Y-78545000D01*
X169630000Y-78905000D02*
X170836667Y-78905000D01*
X169630000Y-78305000D02*
X170836667Y-78305000D01*
X169630000Y-77825000D02*
X169630000Y-79095000D01*
X169630000Y-78425000D02*
X170836667Y-78425000D01*
X170836667Y-77825000D02*
X170836667Y-79095000D01*
X169630000Y-79095000D02*
X173250000Y-79095000D01*
X167790000Y-76110000D02*
X169173000Y-76110000D01*
X174850000Y-79260000D02*
X174850000Y-80570000D01*
X168030000Y-76350000D02*
X174850000Y-76350000D01*
X169630000Y-78785000D02*
X170836667Y-78785000D01*
%TO.C,D4*%
X123070000Y-85350000D02*
X120385000Y-85350000D01*
X120385000Y-85350000D02*
X120385000Y-87270000D01*
X120385000Y-87270000D02*
X123070000Y-87270000D01*
%TO.C,C18*%
X178285000Y-69511252D02*
X178285000Y-68988748D01*
X176815000Y-69511252D02*
X176815000Y-68988748D01*
%TO.C,R22*%
X210445000Y-105197064D02*
X210445000Y-104742936D01*
X208975000Y-105197064D02*
X208975000Y-104742936D01*
%TO.C,C12*%
X155128748Y-80505000D02*
X155651252Y-80505000D01*
X155128748Y-81975000D02*
X155651252Y-81975000D01*
%TO.C,C3*%
X190415000Y-87911252D02*
X190415000Y-87388748D01*
X188945000Y-87911252D02*
X188945000Y-87388748D01*
%TO.C,J11*%
X157760000Y-65150000D02*
X157760000Y-63550000D01*
X142660000Y-60900000D02*
X142660000Y-65150000D01*
X143680000Y-65150000D02*
X143680000Y-63550000D01*
X156480000Y-63550000D02*
X156480000Y-66440000D01*
X142660000Y-65150000D02*
X143680000Y-65150000D01*
X157760000Y-63550000D02*
X156480000Y-63550000D01*
X157060000Y-57330000D02*
X144380000Y-57330000D01*
X143680000Y-63550000D02*
X144960000Y-63550000D01*
X158780000Y-60900000D02*
X158780000Y-65150000D01*
X158780000Y-65150000D02*
X157760000Y-65150000D01*
%TO.C,J4*%
X190440000Y-65070000D02*
X191460000Y-65070000D01*
X208840000Y-57250000D02*
X192160000Y-57250000D01*
X210560000Y-65070000D02*
X209540000Y-65070000D01*
X208260000Y-63470000D02*
X208260000Y-66360000D01*
X190440000Y-60820000D02*
X190440000Y-65070000D01*
X209540000Y-65070000D02*
X209540000Y-63470000D01*
X209540000Y-63470000D02*
X208260000Y-63470000D01*
X191460000Y-63470000D02*
X192740000Y-63470000D01*
X191460000Y-65070000D02*
X191460000Y-63470000D01*
X210560000Y-60820000D02*
X210560000Y-65070000D01*
%TO.C,C8*%
X133711252Y-85465000D02*
X133188748Y-85465000D01*
X133711252Y-86935000D02*
X133188748Y-86935000D01*
%TO.C,SW6*%
X174880000Y-86160000D02*
X174880000Y-87470000D01*
X167820000Y-85920000D02*
X167820000Y-87303000D01*
X169660000Y-88595000D02*
X170866667Y-88595000D01*
X168060000Y-86160000D02*
X174880000Y-86160000D01*
X169660000Y-88115000D02*
X170866667Y-88115000D01*
X169660000Y-87875000D02*
X170866667Y-87875000D01*
X169660000Y-88905000D02*
X173280000Y-88905000D01*
X169660000Y-88235000D02*
X170866667Y-88235000D01*
X169660000Y-87995000D02*
X170866667Y-87995000D01*
X168060000Y-89070000D02*
X168060000Y-90380000D01*
X169660000Y-87635000D02*
X169660000Y-88905000D01*
X169660000Y-87755000D02*
X170866667Y-87755000D01*
X170866667Y-87635000D02*
X170866667Y-88905000D01*
X169660000Y-88475000D02*
X170866667Y-88475000D01*
X169660000Y-88355000D02*
X170866667Y-88355000D01*
X174880000Y-89070000D02*
X174880000Y-90380000D01*
X168060000Y-90380000D02*
X174880000Y-90380000D01*
X173280000Y-88905000D02*
X173280000Y-87635000D01*
X167820000Y-85920000D02*
X169203000Y-85920000D01*
X168060000Y-86160000D02*
X168060000Y-87470000D01*
X169660000Y-88835000D02*
X170866667Y-88835000D01*
X169660000Y-88715000D02*
X170866667Y-88715000D01*
X173280000Y-87635000D02*
X169660000Y-87635000D01*
%TO.C,C11*%
X142590000Y-80741252D02*
X142590000Y-80218748D01*
X141120000Y-80741252D02*
X141120000Y-80218748D01*
%TO.C,R21*%
X104705000Y-72297064D02*
X104705000Y-71842936D01*
X106175000Y-72297064D02*
X106175000Y-71842936D01*
%TO.C,C6*%
X188325000Y-87931252D02*
X188325000Y-87408748D01*
X186855000Y-87931252D02*
X186855000Y-87408748D01*
%TO.C,J2*%
X176850000Y-59520000D02*
X183050000Y-59520000D01*
X183050000Y-59520000D02*
X183050000Y-59520000D01*
X183050000Y-59520000D02*
X176850000Y-59520000D01*
X176850000Y-59520000D02*
X176850000Y-59520000D01*
X183050000Y-59520000D02*
X174900000Y-59520000D01*
X174900000Y-59520000D02*
X174900000Y-63870000D01*
X174900000Y-63870000D02*
X183050000Y-63870000D01*
X183050000Y-63870000D02*
X183050000Y-59520000D01*
%TO.C,C24*%
X166343000Y-83761252D02*
X166343000Y-83238748D01*
X164873000Y-83761252D02*
X164873000Y-83238748D01*
%TO.C,J5*%
X167860000Y-59540000D02*
X174060000Y-59540000D01*
X174060000Y-59540000D02*
X174060000Y-59540000D01*
X174060000Y-59540000D02*
X167860000Y-59540000D01*
X167860000Y-59540000D02*
X167860000Y-59540000D01*
X174060000Y-59540000D02*
X167860000Y-59540000D01*
X167860000Y-59540000D02*
X167860000Y-63890000D01*
X167860000Y-63890000D02*
X174060000Y-63890000D01*
X174060000Y-63890000D02*
X174060000Y-59540000D01*
%TO.C,C23*%
X205945000Y-105271252D02*
X205945000Y-104748748D01*
X204475000Y-105271252D02*
X204475000Y-104748748D01*
%TO.C,J10*%
X140560000Y-63470000D02*
X139280000Y-63470000D01*
X139280000Y-63470000D02*
X139280000Y-66360000D01*
X141580000Y-60820000D02*
X141580000Y-65070000D01*
X139860000Y-57250000D02*
X123180000Y-57250000D01*
X121460000Y-65070000D02*
X122480000Y-65070000D01*
X122480000Y-63470000D02*
X123760000Y-63470000D01*
X140560000Y-65070000D02*
X140560000Y-63470000D01*
X121460000Y-60820000D02*
X121460000Y-65070000D01*
X141580000Y-65070000D02*
X140560000Y-65070000D01*
X122480000Y-65070000D02*
X122480000Y-63470000D01*
%TO.C,R32*%
X121817064Y-92935000D02*
X121362936Y-92935000D01*
X121817064Y-94405000D02*
X121362936Y-94405000D01*
%TO.C,R6*%
X106035000Y-75867064D02*
X106035000Y-75412936D01*
X104565000Y-75867064D02*
X104565000Y-75412936D01*
%TO.C,R25*%
X131357064Y-81155000D02*
X130902936Y-81155000D01*
X131357064Y-82625000D02*
X130902936Y-82625000D01*
D13*
%TO.C,U8*%
X136405200Y-93661200D02*
X135109800Y-93661200D01*
X137014800Y-93661200D02*
X136405200Y-93661200D01*
X138310200Y-93661200D02*
X137014800Y-93661200D01*
X135109800Y-102398800D02*
X138310200Y-102398800D01*
X136405200Y-93661200D02*
G75*
G03*
X137014800Y-93661200I304800J0D01*
G01*
D12*
%TO.C,R31*%
X190102936Y-77335000D02*
X190557064Y-77335000D01*
X190102936Y-75865000D02*
X190557064Y-75865000D01*
%TO.C,R36*%
X191507064Y-79845000D02*
X191052936Y-79845000D01*
X191507064Y-81315000D02*
X191052936Y-81315000D01*
%TO.C,R12*%
X198152936Y-91575000D02*
X198607064Y-91575000D01*
X198152936Y-90105000D02*
X198607064Y-90105000D01*
%TO.C,R18*%
X115392936Y-100025000D02*
X115847064Y-100025000D01*
X115392936Y-101495000D02*
X115847064Y-101495000D01*
%TO.C,R29*%
X190022936Y-73825000D02*
X190477064Y-73825000D01*
X190022936Y-75295000D02*
X190477064Y-75295000D01*
%TO.C,C22*%
X157370580Y-82820000D02*
X157089420Y-82820000D01*
X157370580Y-83840000D02*
X157089420Y-83840000D01*
%TO.C,D6*%
X117445000Y-101850000D02*
X117445000Y-103770000D01*
X120130000Y-101850000D02*
X117445000Y-101850000D01*
X117445000Y-103770000D02*
X120130000Y-103770000D01*
D13*
%TO.C,CR1*%
X161364800Y-73865400D02*
X163041200Y-73865400D01*
X160755200Y-73865400D02*
X161364800Y-73865400D01*
X163041200Y-68734600D02*
X159078800Y-68734600D01*
X159078800Y-73865400D02*
X160755200Y-73865400D01*
X161364800Y-73865400D02*
G75*
G03*
X160755200Y-73865400I-304800J0D01*
G01*
D12*
%TO.C,R30*%
X136705000Y-70332936D02*
X136705000Y-70787064D01*
X135235000Y-70332936D02*
X135235000Y-70787064D01*
D14*
%TO.C,U14*%
X186367500Y-78270000D02*
X186367500Y-77965000D01*
X181367500Y-78270000D02*
X181367500Y-77965000D01*
X186367500Y-73270000D02*
X186367500Y-73575000D01*
X186367500Y-78270000D02*
X186062500Y-78270000D01*
X181367500Y-73270000D02*
X181367500Y-73575000D01*
X181367500Y-73270000D02*
X181672500Y-73270000D01*
X186367500Y-73270000D02*
X186062500Y-73270000D01*
X181367500Y-78270000D02*
X181672500Y-78270000D01*
D15*
X187402500Y-77520000D02*
G75*
G03*
X187402500Y-77520000I-100000J0D01*
G01*
D12*
%TO.C,D11*%
X189630000Y-81625000D02*
X189630000Y-84310000D01*
X191550000Y-84310000D02*
X191550000Y-81625000D01*
X191550000Y-81625000D02*
X189630000Y-81625000D01*
%TO.C,R28*%
X190032936Y-73295000D02*
X190487064Y-73295000D01*
X190032936Y-71825000D02*
X190487064Y-71825000D01*
%TO.C,C16*%
X186325000Y-83778748D02*
X186325000Y-84301252D01*
X184855000Y-83778748D02*
X184855000Y-84301252D01*
%TO.C,J8*%
X192010000Y-109180000D02*
X190730000Y-109180000D01*
X181930000Y-109180000D02*
X183210000Y-109180000D01*
X193030000Y-111830000D02*
X193030000Y-107580000D01*
X193030000Y-107580000D02*
X192010000Y-107580000D01*
X182630000Y-115400000D02*
X191310000Y-115400000D01*
X180910000Y-107580000D02*
X181930000Y-107580000D01*
X183210000Y-109180000D02*
X183210000Y-106290000D01*
X192010000Y-107580000D02*
X192010000Y-109180000D01*
X180910000Y-111830000D02*
X180910000Y-107580000D01*
X181930000Y-107580000D02*
X181930000Y-109180000D01*
%TO.C,R39*%
X200512936Y-100595000D02*
X200967064Y-100595000D01*
X200512936Y-99125000D02*
X200967064Y-99125000D01*
%TO.C,C1*%
X187785000Y-83571252D02*
X187785000Y-83048748D01*
X189255000Y-83571252D02*
X189255000Y-83048748D01*
%TO.C,R5*%
X183735000Y-90712936D02*
X183735000Y-91167064D01*
X182265000Y-90712936D02*
X182265000Y-91167064D01*
%TO.C,C19*%
X200881252Y-104175000D02*
X200358748Y-104175000D01*
X200881252Y-105645000D02*
X200358748Y-105645000D01*
%TO.C,R1*%
X193682936Y-90065000D02*
X194137064Y-90065000D01*
X193682936Y-88595000D02*
X194137064Y-88595000D01*
%TO.C,C14*%
X142500000Y-92378748D02*
X142500000Y-92901252D01*
X141030000Y-92378748D02*
X141030000Y-92901252D01*
%TO.C,C9*%
X133661252Y-88975000D02*
X133138748Y-88975000D01*
X133661252Y-87505000D02*
X133138748Y-87505000D01*
%TO.C,U3*%
X128370000Y-96740000D02*
X129770000Y-96740000D01*
X129770000Y-94420000D02*
X127870000Y-94420000D01*
%TO.C,C25*%
X166343000Y-87891252D02*
X166343000Y-87368748D01*
X164873000Y-87891252D02*
X164873000Y-87368748D01*
%TO.C,D3*%
X110485000Y-103780000D02*
X113170000Y-103780000D01*
X113170000Y-101860000D02*
X110485000Y-101860000D01*
X110485000Y-101860000D02*
X110485000Y-103780000D01*
%TO.C,X1*%
X134430000Y-74980000D02*
X138030000Y-74980000D01*
X134430000Y-77950000D02*
X134430000Y-77410000D01*
X138030000Y-77410000D02*
X138030000Y-77950000D01*
X138030000Y-80380000D02*
X134430000Y-80380000D01*
X134430000Y-75410000D02*
X134430000Y-74980000D01*
X134430000Y-77410000D02*
X134180000Y-77410000D01*
X138030000Y-79950000D02*
X138030000Y-80380000D01*
X138030000Y-74980000D02*
X138030000Y-75410000D01*
X134430000Y-80380000D02*
X134430000Y-79950000D01*
X134180000Y-75410000D02*
X134430000Y-75410000D01*
%TO.C,C20*%
X200135000Y-79838748D02*
X200135000Y-80361252D01*
X198665000Y-79838748D02*
X198665000Y-80361252D01*
%TO.C,J9*%
X205190000Y-91270000D02*
X207190000Y-91270000D01*
X205190000Y-81870000D02*
X207190000Y-81870000D01*
X209090000Y-91270000D02*
X210990000Y-91270000D01*
X210990000Y-91270000D02*
X210990000Y-81870000D01*
X209090000Y-81870000D02*
X210990000Y-81870000D01*
D16*
%TO.C,U16*%
X116890000Y-71809800D02*
X106730000Y-71809800D01*
D13*
X116890000Y-72902000D02*
X116890000Y-71835200D01*
X116509000Y-71454200D02*
X107111000Y-71454200D01*
X106730000Y-71835200D02*
X106730000Y-74984800D01*
X107111000Y-75365800D02*
X116509000Y-75365800D01*
X116890000Y-74984800D02*
X116890000Y-73918000D01*
X116890000Y-73918000D02*
X116890000Y-72902000D01*
X106730000Y-74984800D02*
G75*
G03*
X107111000Y-75365800I381000J0D01*
G01*
X107111000Y-71454200D02*
G75*
G03*
X106730000Y-71835200I0J-381000D01*
G01*
X116890000Y-71835200D02*
G75*
G03*
X116509000Y-71454200I-380999J1D01*
G01*
X116890000Y-72902000D02*
G75*
G03*
X116890000Y-73918000I0J-508000D01*
G01*
X116509000Y-75365800D02*
G75*
G03*
X116890000Y-74984800I1J380999D01*
G01*
D12*
%TO.C,R11*%
X198782936Y-85315000D02*
X199237064Y-85315000D01*
X198782936Y-83845000D02*
X199237064Y-83845000D01*
%TO.C,C5*%
X208995000Y-95518748D02*
X208995000Y-96041252D01*
X210465000Y-95518748D02*
X210465000Y-96041252D01*
%TO.C,R23*%
X131324564Y-78615000D02*
X130870436Y-78615000D01*
X131324564Y-77145000D02*
X130870436Y-77145000D01*
%TO.C,R27*%
X189992936Y-71285000D02*
X190447064Y-71285000D01*
X189992936Y-69815000D02*
X190447064Y-69815000D01*
%TO.C,C21*%
X152130000Y-96390580D02*
X152130000Y-96109420D01*
X151110000Y-96390580D02*
X151110000Y-96109420D01*
%TO.C,D2*%
X207900000Y-94400000D02*
X205350000Y-94400000D01*
X207900000Y-94400000D02*
X207900000Y-92700000D01*
X207900000Y-92700000D02*
X205350000Y-92700000D01*
%TO.C,R17*%
X111922936Y-101525000D02*
X112377064Y-101525000D01*
X111922936Y-100055000D02*
X112377064Y-100055000D01*
%TO.C,D10*%
X207700000Y-78490000D02*
X205150000Y-78490000D01*
X207700000Y-80190000D02*
X207700000Y-78490000D01*
X207700000Y-80190000D02*
X205150000Y-80190000D01*
%TO.C,R3*%
X128872936Y-93725000D02*
X129327064Y-93725000D01*
X128872936Y-92255000D02*
X129327064Y-92255000D01*
%TO.C,D8*%
X127350000Y-78920000D02*
X124665000Y-78920000D01*
X124665000Y-80840000D02*
X127350000Y-80840000D01*
X124665000Y-78920000D02*
X124665000Y-80840000D01*
%TO.C,D9*%
X124675000Y-82830000D02*
X127360000Y-82830000D01*
X127360000Y-80910000D02*
X124675000Y-80910000D01*
X124675000Y-80910000D02*
X124675000Y-82830000D01*
%TO.C,R10*%
X137545000Y-70312936D02*
X137545000Y-70767064D01*
X139015000Y-70312936D02*
X139015000Y-70767064D01*
%TO.C,U9*%
X128320000Y-91530000D02*
X129720000Y-91530000D01*
X129720000Y-89210000D02*
X127820000Y-89210000D01*
%TO.C,R26*%
X135942936Y-82365000D02*
X136397064Y-82365000D01*
X135942936Y-80895000D02*
X136397064Y-80895000D01*
%TO.C,J1*%
X194630000Y-107710000D02*
X195650000Y-107710000D01*
X196930000Y-109310000D02*
X196930000Y-106420000D01*
X202750000Y-111960000D02*
X202750000Y-107710000D01*
X195650000Y-109310000D02*
X196930000Y-109310000D01*
X201730000Y-109310000D02*
X200450000Y-109310000D01*
X201730000Y-107710000D02*
X201730000Y-109310000D01*
X195650000Y-107710000D02*
X195650000Y-109310000D01*
X196350000Y-115530000D02*
X201030000Y-115530000D01*
X194630000Y-111960000D02*
X194630000Y-107710000D01*
X202750000Y-107710000D02*
X201730000Y-107710000D01*
%TO.C,U2*%
X203770000Y-77560000D02*
X203770000Y-76300000D01*
X207530000Y-70740000D02*
X203770000Y-70740000D01*
X203770000Y-70740000D02*
X203770000Y-72000000D01*
X209780000Y-77560000D02*
X203770000Y-77560000D01*
D14*
%TO.C,U15*%
X208350000Y-115875000D02*
X206010000Y-115875000D01*
X208350000Y-107225000D02*
X206010000Y-107225000D01*
D15*
X211330000Y-115650000D02*
G75*
G03*
X211330000Y-115650000I-100000J0D01*
G01*
D12*
%TO.C,SW3*%
X173290000Y-83525000D02*
X172083333Y-83525000D01*
X174890000Y-81260000D02*
X168070000Y-81260000D01*
X173290000Y-83285000D02*
X172083333Y-83285000D01*
X174890000Y-82570000D02*
X174890000Y-81260000D01*
X173290000Y-83645000D02*
X172083333Y-83645000D01*
X173290000Y-83765000D02*
X172083333Y-83765000D01*
X168070000Y-85480000D02*
X168070000Y-84170000D01*
X173290000Y-83885000D02*
X172083333Y-83885000D01*
X173290000Y-82805000D02*
X172083333Y-82805000D01*
X173290000Y-83045000D02*
X172083333Y-83045000D01*
X175130000Y-85720000D02*
X173747000Y-85720000D01*
X173290000Y-83165000D02*
X172083333Y-83165000D01*
X169670000Y-84005000D02*
X173290000Y-84005000D01*
X168070000Y-82570000D02*
X168070000Y-81260000D01*
X173290000Y-84005000D02*
X173290000Y-82735000D01*
X173290000Y-82735000D02*
X169670000Y-82735000D01*
X175130000Y-85720000D02*
X175130000Y-84337000D01*
X173290000Y-82925000D02*
X172083333Y-82925000D01*
X174890000Y-85480000D02*
X174890000Y-84170000D01*
X172083333Y-84005000D02*
X172083333Y-82735000D01*
X169670000Y-82735000D02*
X169670000Y-84005000D01*
X173290000Y-83405000D02*
X172083333Y-83405000D01*
X174890000Y-85480000D02*
X168070000Y-85480000D01*
%TO.C,R4*%
X128862936Y-87145000D02*
X129317064Y-87145000D01*
X128862936Y-88615000D02*
X129317064Y-88615000D01*
%TO.C,U10*%
X188550000Y-95910000D02*
X188550000Y-93960000D01*
X198670000Y-95910000D02*
X198670000Y-97860000D01*
X188550000Y-95910000D02*
X188550000Y-99360000D01*
X198670000Y-95910000D02*
X198670000Y-93960000D01*
%TO.C,SW9*%
X170836667Y-72945000D02*
X170836667Y-74215000D01*
X169630000Y-74145000D02*
X170836667Y-74145000D01*
X169630000Y-73545000D02*
X170836667Y-73545000D01*
X169630000Y-73065000D02*
X170836667Y-73065000D01*
X173250000Y-72945000D02*
X169630000Y-72945000D01*
X167790000Y-71230000D02*
X169173000Y-71230000D01*
X169630000Y-74025000D02*
X170836667Y-74025000D01*
X167790000Y-71230000D02*
X167790000Y-72613000D01*
X169630000Y-72945000D02*
X169630000Y-74215000D01*
X169630000Y-73785000D02*
X170836667Y-73785000D01*
X174850000Y-71470000D02*
X174850000Y-72780000D01*
X168030000Y-71470000D02*
X168030000Y-72780000D01*
X169630000Y-74215000D02*
X173250000Y-74215000D01*
X173250000Y-74215000D02*
X173250000Y-72945000D01*
X169630000Y-73665000D02*
X170836667Y-73665000D01*
X168030000Y-71470000D02*
X174850000Y-71470000D01*
X168030000Y-75690000D02*
X174850000Y-75690000D01*
X174850000Y-74380000D02*
X174850000Y-75690000D01*
X169630000Y-73185000D02*
X170836667Y-73185000D01*
X168030000Y-74380000D02*
X168030000Y-75690000D01*
X169630000Y-73905000D02*
X170836667Y-73905000D01*
X169630000Y-73305000D02*
X170836667Y-73305000D01*
X169630000Y-73425000D02*
X170836667Y-73425000D01*
%TO.C,R34*%
X130675000Y-70072936D02*
X130675000Y-70527064D01*
X132145000Y-70072936D02*
X132145000Y-70527064D01*
%TO.C,U11*%
X99615000Y-78510000D02*
X100315000Y-78510000D01*
X119215000Y-96910000D02*
X119215000Y-95410000D01*
X119215000Y-78510000D02*
X119215000Y-80010000D01*
X100365000Y-96910000D02*
X100365000Y-97260000D01*
X100365000Y-96910000D02*
X99615000Y-96910000D01*
X118215000Y-96910000D02*
X119215000Y-96910000D01*
X99615000Y-96910000D02*
X99615000Y-78510000D01*
X119215000Y-78510000D02*
X118215000Y-78510000D01*
%TO.C,SW5*%
X180165000Y-85810000D02*
X178895000Y-85810000D01*
X179685000Y-85810000D02*
X179685000Y-87016667D01*
X180165000Y-87016667D02*
X178895000Y-87016667D01*
X178730000Y-84210000D02*
X177420000Y-84210000D01*
X179085000Y-85810000D02*
X179085000Y-87016667D01*
X179805000Y-85810000D02*
X179805000Y-87016667D01*
X181640000Y-84210000D02*
X180330000Y-84210000D01*
X181640000Y-91030000D02*
X180330000Y-91030000D01*
X179925000Y-85810000D02*
X179925000Y-87016667D01*
X179445000Y-85810000D02*
X179445000Y-87016667D01*
X178965000Y-85810000D02*
X178965000Y-87016667D01*
X178895000Y-89430000D02*
X180165000Y-89430000D01*
X178730000Y-91030000D02*
X177420000Y-91030000D01*
X179565000Y-85810000D02*
X179565000Y-87016667D01*
X181880000Y-83970000D02*
X180497000Y-83970000D01*
X179325000Y-85810000D02*
X179325000Y-87016667D01*
X177420000Y-84210000D02*
X177420000Y-91030000D01*
X181640000Y-84210000D02*
X181640000Y-91030000D01*
X180165000Y-89430000D02*
X180165000Y-85810000D01*
X178895000Y-85810000D02*
X178895000Y-89430000D01*
X180045000Y-85810000D02*
X180045000Y-87016667D01*
X181880000Y-83970000D02*
X181880000Y-85353000D01*
X179205000Y-85810000D02*
X179205000Y-87016667D01*
%TO.C,D5*%
X113955000Y-103780000D02*
X116640000Y-103780000D01*
X116640000Y-101860000D02*
X113955000Y-101860000D01*
X113955000Y-101860000D02*
X113955000Y-103780000D01*
%TD*%
%LPC*%
D17*
%TO.C,J7*%
X173900000Y-110700000D03*
X174900000Y-110700000D03*
X175900000Y-110700000D03*
X176900000Y-110700000D03*
D18*
X172700000Y-113650000D03*
X178100000Y-113650000D03*
%TD*%
D19*
%TO.C,C17*%
X175500000Y-70220000D03*
X175500000Y-68320000D03*
%TD*%
D20*
%TO.C,R9*%
X140430000Y-69647500D03*
X140430000Y-71472500D03*
%TD*%
D21*
%TO.C,C15*%
X177970000Y-78960000D03*
X179870000Y-78960000D03*
%TD*%
D22*
%TO.C,U13*%
X172230000Y-98930000D03*
X170350000Y-98930000D03*
X172230000Y-98530000D03*
X170350000Y-98530000D03*
X172230000Y-98127924D03*
X170350000Y-98127924D03*
X172230000Y-97730000D03*
X170350000Y-97730000D03*
X172230000Y-97330000D03*
X170350000Y-97330000D03*
X172230000Y-96930000D03*
X170350000Y-96930000D03*
X172230000Y-96530000D03*
X170350000Y-96530000D03*
X172230000Y-96130000D03*
X170350000Y-96130000D03*
X172230000Y-95730000D03*
X170350000Y-95730000D03*
X172230000Y-95330000D03*
X170350000Y-95330000D03*
X172230000Y-94930000D03*
X170350000Y-94930000D03*
X172230000Y-94530000D03*
X170350000Y-94530000D03*
D23*
X172230000Y-99435000D03*
X172230000Y-94025000D03*
X170350000Y-99435000D03*
X170350000Y-94025000D03*
%TD*%
D24*
%TO.C,R24*%
X132025000Y-79870000D03*
X130200000Y-79870000D03*
%TD*%
D25*
%TO.C,R40*%
X207540000Y-105892500D03*
X207540000Y-104067500D03*
%TD*%
D26*
%TO.C,R37*%
X194577500Y-79000000D03*
X196402500Y-79000000D03*
%TD*%
%TO.C,R38*%
X203367500Y-99830000D03*
X205192500Y-99830000D03*
%TD*%
D17*
%TO.C,J3*%
X165820000Y-110670000D03*
X166820000Y-110670000D03*
X167820000Y-110670000D03*
X168820000Y-110670000D03*
D18*
X164620000Y-113620000D03*
X170020000Y-113620000D03*
%TD*%
D27*
%TO.C,D7*%
X125412500Y-77880000D03*
X127287500Y-77880000D03*
%TD*%
D20*
%TO.C,R33*%
X133560000Y-69667500D03*
X133560000Y-71492500D03*
%TD*%
D19*
%TO.C,C7*%
X188100000Y-80720000D03*
X188100000Y-78820000D03*
%TD*%
D20*
%TO.C,R7*%
X147030000Y-70247500D03*
X147030000Y-72072500D03*
%TD*%
D28*
%TO.C,C13*%
X153840000Y-92770000D03*
X153840000Y-94670000D03*
%TD*%
D29*
%TO.C,D1*%
X194817500Y-87270000D03*
X192942500Y-87270000D03*
%TD*%
D30*
%TO.C,U1*%
X142550000Y-82810000D03*
X142550000Y-83310000D03*
X142550000Y-83810000D03*
X142550000Y-84310000D03*
X142550000Y-84810000D03*
X142550000Y-85310000D03*
X142550000Y-85810000D03*
X142550000Y-86310000D03*
X142550000Y-86810000D03*
X142550000Y-87310000D03*
X142550000Y-87810000D03*
X142550000Y-88310000D03*
X142550000Y-88810000D03*
X142550000Y-89310000D03*
X142550000Y-89810000D03*
X142550000Y-90310000D03*
D31*
X144475000Y-92235000D03*
X144975000Y-92235000D03*
X145475000Y-92235000D03*
X145975000Y-92235000D03*
X146475000Y-92235000D03*
X146975000Y-92235000D03*
X147475000Y-92235000D03*
X147975000Y-92235000D03*
X148475000Y-92235000D03*
X148975000Y-92235000D03*
X149475000Y-92235000D03*
X149975000Y-92235000D03*
X150475000Y-92235000D03*
X150975000Y-92235000D03*
X151475000Y-92235000D03*
X151975000Y-92235000D03*
D30*
X153900000Y-90310000D03*
X153900000Y-89810000D03*
X153900000Y-89310000D03*
X153900000Y-88810000D03*
X153900000Y-88310000D03*
X153900000Y-87810000D03*
X153900000Y-87310000D03*
X153900000Y-86810000D03*
X153900000Y-86310000D03*
X153900000Y-85810000D03*
X153900000Y-85310000D03*
X153900000Y-84810000D03*
X153900000Y-84310000D03*
X153900000Y-83810000D03*
X153900000Y-83310000D03*
X153900000Y-82810000D03*
D31*
X151975000Y-80885000D03*
X151475000Y-80885000D03*
X150975000Y-80885000D03*
X150475000Y-80885000D03*
X149975000Y-80885000D03*
X149475000Y-80885000D03*
X148975000Y-80885000D03*
X148475000Y-80885000D03*
X147975000Y-80885000D03*
X147475000Y-80885000D03*
X146975000Y-80885000D03*
X146475000Y-80885000D03*
X145975000Y-80885000D03*
X145475000Y-80885000D03*
X144975000Y-80885000D03*
X144475000Y-80885000D03*
%TD*%
D25*
%TO.C,R15*%
X141478000Y-99464500D03*
X141478000Y-97639500D03*
%TD*%
D32*
%TO.C,D13*%
X209690000Y-100392500D03*
X209690000Y-102267500D03*
%TD*%
D19*
%TO.C,C10*%
X136460000Y-90680000D03*
X136460000Y-88780000D03*
%TD*%
D33*
%TO.C,U4*%
X201770000Y-96462500D03*
D34*
X201695000Y-97000000D03*
D33*
X201770000Y-97537500D03*
X203470000Y-97537500D03*
D34*
X203545000Y-97000000D03*
D33*
X203470000Y-96462500D03*
%TD*%
D20*
%TO.C,R35*%
X129030000Y-69097500D03*
X129030000Y-70922500D03*
%TD*%
D35*
%TO.C,120R1*%
X134187500Y-90140000D03*
X132612500Y-90140000D03*
%TD*%
D19*
%TO.C,C4*%
X139350000Y-76540000D03*
X139350000Y-74640000D03*
%TD*%
D26*
%TO.C,R20*%
X121197500Y-89710000D03*
X123022500Y-89710000D03*
%TD*%
D36*
%TO.C,J6*%
X116620000Y-64650000D03*
X114620000Y-64650000D03*
X112620000Y-64650000D03*
X110620000Y-64650000D03*
X108620000Y-64650000D03*
X106620000Y-64650000D03*
X104620000Y-64650000D03*
X102620000Y-64650000D03*
D37*
X118970000Y-58900000D03*
X100270000Y-58900000D03*
%TD*%
D21*
%TO.C,C2*%
X207320000Y-69340000D03*
X209220000Y-69340000D03*
%TD*%
D26*
%TO.C,R19*%
X118147500Y-100720000D03*
X119972500Y-100720000D03*
%TD*%
D20*
%TO.C,R8*%
X144820000Y-70847500D03*
X144820000Y-72672500D03*
%TD*%
D25*
%TO.C,R41*%
X143510000Y-99464500D03*
X143510000Y-97639500D03*
%TD*%
D38*
%TO.C,U12*%
X194232500Y-80930000D03*
X194232500Y-81880000D03*
X194232500Y-82830000D03*
X196507500Y-82830000D03*
X196507500Y-80930000D03*
%TD*%
D32*
%TO.C,D12*%
X207530000Y-100410000D03*
X207530000Y-102285000D03*
%TD*%
D39*
%TO.C,SW10*%
X168075000Y-78460000D03*
X174805000Y-78460000D03*
%TD*%
D27*
%TO.C,D4*%
X121132500Y-86310000D03*
X123007500Y-86310000D03*
%TD*%
D19*
%TO.C,C18*%
X177550000Y-70200000D03*
X177550000Y-68300000D03*
%TD*%
D25*
%TO.C,R22*%
X209710000Y-105882500D03*
X209710000Y-104057500D03*
%TD*%
D21*
%TO.C,C12*%
X154440000Y-81240000D03*
X156340000Y-81240000D03*
%TD*%
D19*
%TO.C,C3*%
X189680000Y-88600000D03*
X189680000Y-86700000D03*
%TD*%
D36*
%TO.C,J11*%
X155720000Y-64690000D03*
X153720000Y-64690000D03*
X151720000Y-64690000D03*
X149720000Y-64690000D03*
X147720000Y-64690000D03*
X145720000Y-64690000D03*
D37*
X143370000Y-58940000D03*
X158070000Y-58940000D03*
%TD*%
D36*
%TO.C,J4*%
X207500000Y-64610000D03*
X205500000Y-64610000D03*
X203500000Y-64610000D03*
X201500000Y-64610000D03*
X199500000Y-64610000D03*
X197500000Y-64610000D03*
X195500000Y-64610000D03*
X193500000Y-64610000D03*
D37*
X209850000Y-58860000D03*
X191150000Y-58860000D03*
%TD*%
D40*
%TO.C,C8*%
X134400000Y-86200000D03*
X132500000Y-86200000D03*
%TD*%
D39*
%TO.C,SW6*%
X168105000Y-88270000D03*
X174835000Y-88270000D03*
%TD*%
D19*
%TO.C,C11*%
X141855000Y-81430000D03*
X141855000Y-79530000D03*
%TD*%
D25*
%TO.C,R21*%
X105440000Y-72982500D03*
X105440000Y-71157500D03*
%TD*%
D19*
%TO.C,C6*%
X187590000Y-88620000D03*
X187590000Y-86720000D03*
%TD*%
D17*
%TO.C,J2*%
X181450000Y-63220000D03*
X180450000Y-63220000D03*
X179450000Y-63220000D03*
X178450000Y-63220000D03*
X177450000Y-63220000D03*
X176450000Y-63220000D03*
D18*
X182650000Y-60270000D03*
X175250000Y-60270000D03*
%TD*%
D19*
%TO.C,C24*%
X165608000Y-84450000D03*
X165608000Y-82550000D03*
%TD*%
D17*
%TO.C,J5*%
X172460000Y-63240000D03*
X171460000Y-63240000D03*
X170460000Y-63240000D03*
X169460000Y-63240000D03*
D18*
X173660000Y-60290000D03*
X168260000Y-60290000D03*
%TD*%
D19*
%TO.C,C23*%
X205210000Y-105960000D03*
X205210000Y-104060000D03*
%TD*%
D36*
%TO.C,J10*%
X138520000Y-64610000D03*
X136520000Y-64610000D03*
X134520000Y-64610000D03*
X132520000Y-64610000D03*
X130520000Y-64610000D03*
X128520000Y-64610000D03*
X126520000Y-64610000D03*
X124520000Y-64610000D03*
D37*
X140870000Y-58860000D03*
X122170000Y-58860000D03*
%TD*%
D24*
%TO.C,R32*%
X122502500Y-93670000D03*
X120677500Y-93670000D03*
%TD*%
D25*
%TO.C,R6*%
X105300000Y-76552500D03*
X105300000Y-74727500D03*
%TD*%
D24*
%TO.C,R25*%
X132042500Y-81890000D03*
X130217500Y-81890000D03*
%TD*%
D41*
%TO.C,U8*%
X134119200Y-94220000D03*
X134119200Y-95490000D03*
X134119200Y-96760000D03*
X134119200Y-98030000D03*
X134119200Y-99300000D03*
X134119200Y-100570000D03*
X134119200Y-101840000D03*
X139300800Y-101840000D03*
X139300800Y-100570000D03*
X139300800Y-99300000D03*
X139300800Y-98030000D03*
X139300800Y-96760000D03*
X139300800Y-95490000D03*
X139300800Y-94220000D03*
%TD*%
D26*
%TO.C,R31*%
X189417500Y-76600000D03*
X191242500Y-76600000D03*
%TD*%
D24*
%TO.C,R36*%
X192192500Y-80580000D03*
X190367500Y-80580000D03*
%TD*%
D26*
%TO.C,R12*%
X197467500Y-90840000D03*
X199292500Y-90840000D03*
%TD*%
%TO.C,R18*%
X114707500Y-100760000D03*
X116532500Y-100760000D03*
%TD*%
%TO.C,R29*%
X189337500Y-74560000D03*
X191162500Y-74560000D03*
%TD*%
D42*
%TO.C,C22*%
X158005000Y-83330000D03*
X156455000Y-83330000D03*
%TD*%
D27*
%TO.C,D6*%
X118192500Y-102810000D03*
X120067500Y-102810000D03*
%TD*%
D43*
%TO.C,CR1*%
X163854000Y-73205000D03*
X163854000Y-71935000D03*
X163854000Y-70665000D03*
X163854000Y-69395000D03*
X158266000Y-69395000D03*
X158266000Y-70665000D03*
X158266000Y-71935000D03*
X158266000Y-73205000D03*
%TD*%
D20*
%TO.C,R30*%
X135970000Y-69647500D03*
X135970000Y-71472500D03*
%TD*%
D44*
%TO.C,U14*%
X186342500Y-77520000D03*
X186342500Y-77020000D03*
X186342500Y-76520000D03*
X186342500Y-76020000D03*
X186342500Y-75520000D03*
X186342500Y-75020000D03*
X186342500Y-74520000D03*
X186342500Y-74020000D03*
D45*
X185617500Y-73295000D03*
X185117500Y-73295000D03*
X184617500Y-73295000D03*
X184117500Y-73295000D03*
X183617500Y-73295000D03*
X183117500Y-73295000D03*
X182617500Y-73295000D03*
X182117500Y-73295000D03*
D44*
X181392500Y-74020000D03*
X181392500Y-74520000D03*
X181392500Y-75020000D03*
X181392500Y-75520000D03*
X181392500Y-76020000D03*
X181392500Y-76520000D03*
X181392500Y-77020000D03*
X181392500Y-77520000D03*
D45*
X182117500Y-78245000D03*
X182617500Y-78245000D03*
X183117500Y-78245000D03*
X183617500Y-78245000D03*
X184117500Y-78245000D03*
X184617500Y-78245000D03*
X185117500Y-78245000D03*
X185617500Y-78245000D03*
D46*
X183867500Y-75770000D03*
%TD*%
D32*
%TO.C,D11*%
X190590000Y-82372500D03*
X190590000Y-84247500D03*
%TD*%
D26*
%TO.C,R28*%
X189347500Y-72560000D03*
X191172500Y-72560000D03*
%TD*%
D28*
%TO.C,C16*%
X185590000Y-83090000D03*
X185590000Y-84990000D03*
%TD*%
D47*
%TO.C,J8*%
X183970000Y-108040000D03*
X185970000Y-108040000D03*
X187970000Y-108040000D03*
X189970000Y-108040000D03*
D48*
X192320000Y-113790000D03*
X181620000Y-113790000D03*
%TD*%
D26*
%TO.C,R39*%
X199827500Y-99860000D03*
X201652500Y-99860000D03*
%TD*%
D19*
%TO.C,C1*%
X188520000Y-84260000D03*
X188520000Y-82360000D03*
%TD*%
D20*
%TO.C,R5*%
X183000000Y-90027500D03*
X183000000Y-91852500D03*
%TD*%
D40*
%TO.C,C19*%
X201570000Y-104910000D03*
X199670000Y-104910000D03*
%TD*%
D26*
%TO.C,R1*%
X192997500Y-89330000D03*
X194822500Y-89330000D03*
%TD*%
D28*
%TO.C,C14*%
X141765000Y-91690000D03*
X141765000Y-93590000D03*
%TD*%
D40*
%TO.C,C9*%
X134350000Y-88240000D03*
X132450000Y-88240000D03*
%TD*%
D49*
%TO.C,U3*%
X128120000Y-94930000D03*
X128120000Y-95580000D03*
X128120000Y-96230000D03*
X130020000Y-96230000D03*
X130020000Y-94930000D03*
%TD*%
D19*
%TO.C,C25*%
X165608000Y-88580000D03*
X165608000Y-86680000D03*
%TD*%
D27*
%TO.C,D3*%
X111232500Y-102820000D03*
X113107500Y-102820000D03*
%TD*%
D50*
%TO.C,X1*%
X135130000Y-76410000D03*
X135130000Y-78950000D03*
X137330000Y-78950000D03*
X137330000Y-76410000D03*
%TD*%
D28*
%TO.C,C20*%
X199400000Y-79150000D03*
X199400000Y-81050000D03*
%TD*%
D51*
%TO.C,J9*%
X204490000Y-89460000D03*
X204490000Y-83680000D03*
D52*
X203045000Y-89820000D03*
X203045000Y-89020000D03*
D53*
X203045000Y-87820000D03*
X203045000Y-86820000D03*
X203045000Y-86320000D03*
X203045000Y-85320000D03*
D52*
X203045000Y-84120000D03*
X203045000Y-83320000D03*
X203045000Y-83320000D03*
X203045000Y-84120000D03*
D53*
X203045000Y-84820000D03*
X203045000Y-85820000D03*
X203045000Y-87320000D03*
X203045000Y-88320000D03*
D52*
X203045000Y-89020000D03*
X203045000Y-89820000D03*
D54*
X208140000Y-90890000D03*
D55*
X203960000Y-82250000D03*
D54*
X208140000Y-82250000D03*
D55*
X203960000Y-90890000D03*
%TD*%
D56*
%TO.C,U16*%
X116255000Y-70610000D03*
X114985000Y-70610000D03*
X113715000Y-70610000D03*
X112445000Y-70610000D03*
X111175000Y-70610000D03*
X109905000Y-70610000D03*
X108635000Y-70610000D03*
X107365000Y-70610000D03*
X107365000Y-76210000D03*
X108635000Y-76210000D03*
X109905000Y-76210000D03*
X111175000Y-76210000D03*
X112445000Y-76210000D03*
X113715000Y-76210000D03*
X114985000Y-76210000D03*
X116255000Y-76210000D03*
%TD*%
D26*
%TO.C,R11*%
X198097500Y-84580000D03*
X199922500Y-84580000D03*
%TD*%
D28*
%TO.C,C5*%
X209730000Y-94830000D03*
X209730000Y-96730000D03*
%TD*%
D24*
%TO.C,R23*%
X132010000Y-77880000D03*
X130185000Y-77880000D03*
%TD*%
D26*
%TO.C,R27*%
X189307500Y-70550000D03*
X191132500Y-70550000D03*
%TD*%
D57*
%TO.C,C21*%
X151620000Y-97025000D03*
X151620000Y-95475000D03*
%TD*%
D58*
%TO.C,D2*%
X207450000Y-93550000D03*
X205350000Y-93550000D03*
%TD*%
D26*
%TO.C,R17*%
X111237500Y-100790000D03*
X113062500Y-100790000D03*
%TD*%
D58*
%TO.C,D10*%
X207250000Y-79340000D03*
X205150000Y-79340000D03*
%TD*%
D26*
%TO.C,R3*%
X128187500Y-92990000D03*
X130012500Y-92990000D03*
%TD*%
D27*
%TO.C,D8*%
X125412500Y-79880000D03*
X127287500Y-79880000D03*
%TD*%
%TO.C,D9*%
X125422500Y-81870000D03*
X127297500Y-81870000D03*
%TD*%
D20*
%TO.C,R10*%
X138280000Y-69627500D03*
X138280000Y-71452500D03*
%TD*%
D49*
%TO.C,U9*%
X128070000Y-89720000D03*
X128070000Y-90370000D03*
X128070000Y-91020000D03*
X129970000Y-91020000D03*
X129970000Y-89720000D03*
%TD*%
D26*
%TO.C,R26*%
X135257500Y-81630000D03*
X137082500Y-81630000D03*
%TD*%
D47*
%TO.C,J1*%
X197690000Y-108170000D03*
X199690000Y-108170000D03*
D48*
X202040000Y-113920000D03*
X195340000Y-113920000D03*
%TD*%
D59*
%TO.C,U2*%
X208830000Y-76450000D03*
X208830000Y-74150000D03*
D60*
X202530000Y-74150000D03*
D59*
X208830000Y-71850000D03*
%TD*%
D61*
%TO.C,U15*%
X209655000Y-115360000D03*
X209655000Y-114090000D03*
X209655000Y-112820000D03*
X209655000Y-111550000D03*
X209655000Y-110280000D03*
X209655000Y-109010000D03*
X209655000Y-107740000D03*
X204705000Y-107740000D03*
X204705000Y-109010000D03*
X204705000Y-110280000D03*
X204705000Y-111550000D03*
X204705000Y-112820000D03*
X204705000Y-114090000D03*
X204705000Y-115360000D03*
%TD*%
D39*
%TO.C,SW3*%
X174845000Y-83370000D03*
X168115000Y-83370000D03*
%TD*%
D26*
%TO.C,R4*%
X128177500Y-87880000D03*
X130002500Y-87880000D03*
%TD*%
D62*
%TO.C,U10*%
X189165000Y-98385000D03*
X190435000Y-98385000D03*
X191705000Y-98385000D03*
X192975000Y-98385000D03*
X194245000Y-98385000D03*
X195515000Y-98385000D03*
X196785000Y-98385000D03*
X198055000Y-98385000D03*
X198055000Y-93435000D03*
X196785000Y-93435000D03*
X195515000Y-93435000D03*
X194245000Y-93435000D03*
X192975000Y-93435000D03*
X191705000Y-93435000D03*
X190435000Y-93435000D03*
X189165000Y-93435000D03*
%TD*%
D39*
%TO.C,SW9*%
X168075000Y-73580000D03*
X174805000Y-73580000D03*
%TD*%
D20*
%TO.C,R34*%
X131410000Y-69387500D03*
X131410000Y-71212500D03*
%TD*%
D63*
%TO.C,U11*%
X101005000Y-78960000D03*
X102275000Y-78960000D03*
X103545000Y-78960000D03*
X104815000Y-78960000D03*
X106085000Y-78960000D03*
X107355000Y-78960000D03*
X108625000Y-78960000D03*
X109895000Y-78960000D03*
X111165000Y-78960000D03*
X112435000Y-78960000D03*
X113705000Y-78960000D03*
X114975000Y-78960000D03*
X116245000Y-78960000D03*
X117515000Y-78960000D03*
D64*
X118765000Y-80725000D03*
X118765000Y-81995000D03*
X118765000Y-83265000D03*
X118765000Y-84535000D03*
X118765000Y-85805000D03*
X118765000Y-87075000D03*
X118765000Y-88345000D03*
X118765000Y-89615000D03*
X118765000Y-90885000D03*
X118765000Y-92155000D03*
X118765000Y-93425000D03*
X118765000Y-94695000D03*
D63*
X117515000Y-96460000D03*
X116245000Y-96460000D03*
X114975000Y-96460000D03*
X113705000Y-96460000D03*
X112435000Y-96460000D03*
X111165000Y-96460000D03*
X109895000Y-96460000D03*
X108625000Y-96460000D03*
X107355000Y-96460000D03*
X106085000Y-96460000D03*
X104815000Y-96460000D03*
X103545000Y-96460000D03*
X102275000Y-96460000D03*
X101005000Y-96460000D03*
%TD*%
D65*
%TO.C,SW5*%
X179530000Y-84255000D03*
X179530000Y-90985000D03*
%TD*%
D27*
%TO.C,D5*%
X114702500Y-102820000D03*
X116577500Y-102820000D03*
%TD*%
D66*
X118770000Y-68210000D03*
X169910000Y-106980000D03*
X149680000Y-106349500D03*
X150538093Y-107257027D03*
X170960498Y-107439963D03*
X145170000Y-95700000D03*
X143570000Y-95110000D03*
X171960000Y-107440500D03*
X171950000Y-109639500D03*
X164850000Y-109639500D03*
X180000000Y-65840500D03*
X182880000Y-65560500D03*
X182620000Y-106900000D03*
X163790000Y-101300000D03*
X162700000Y-101320500D03*
X116400000Y-69310000D03*
X109232701Y-69459500D03*
X117960000Y-61730000D03*
X114730000Y-61810000D03*
X116870000Y-57150000D03*
X113620000Y-66870000D03*
X100825500Y-67820000D03*
X103440000Y-68890000D03*
X101336607Y-71001774D03*
X186080000Y-81940000D03*
X193650000Y-68389500D03*
X177169274Y-71580161D03*
X137170308Y-84769692D03*
X181410000Y-79850000D03*
X135715378Y-86424622D03*
X178682215Y-72717835D03*
X206989500Y-74250000D03*
X139370000Y-77750000D03*
X193294000Y-104394000D03*
X188295643Y-75885713D03*
X202530000Y-74150000D03*
X138340000Y-89900000D03*
X163400000Y-93610000D03*
X198370000Y-95640000D03*
X173220000Y-68210000D03*
X146850000Y-68210000D03*
X144910000Y-68210000D03*
X152866945Y-91919406D03*
X169410000Y-68210000D03*
X193540000Y-111740000D03*
X103390878Y-98489622D03*
X198370000Y-87910000D03*
X171290000Y-99140000D03*
X191962000Y-102170000D03*
X138570000Y-66329500D03*
X187787750Y-74847750D03*
X152110000Y-89080000D03*
X143080000Y-74030000D03*
X151574349Y-102020500D03*
X166710000Y-89120500D03*
X171406188Y-97669500D03*
X131420000Y-90170000D03*
X158120000Y-102020500D03*
X139340000Y-92800000D03*
X187720000Y-85560000D03*
X130910000Y-102170000D03*
X172000000Y-102170000D03*
X159700936Y-73170936D03*
X184560000Y-90910000D03*
X130000000Y-86410000D03*
X190190500Y-85800000D03*
X202250000Y-90350000D03*
X144495000Y-89225000D03*
X128040000Y-97028000D03*
X199270000Y-101290000D03*
X202940000Y-110280000D03*
X152740500Y-96954597D03*
X191690000Y-110520000D03*
X125422500Y-81870000D03*
X141260000Y-74650000D03*
X189971188Y-109981188D03*
X199660000Y-86500000D03*
X200902000Y-96838000D03*
X123830500Y-92981749D03*
X162910000Y-78170500D03*
X191700000Y-89330000D03*
X200310500Y-82190000D03*
X144970000Y-77810000D03*
X138113500Y-96740854D03*
X122480000Y-84740000D03*
X174805000Y-75105000D03*
X118192500Y-104412500D03*
X122428000Y-97879500D03*
X177191985Y-74021778D03*
X144700000Y-90630000D03*
X123320000Y-95570000D03*
X186315583Y-72195583D03*
X199390000Y-92910000D03*
X133390000Y-76690000D03*
X208880000Y-78030000D03*
X204705000Y-107740000D03*
X201060000Y-102130000D03*
X209655000Y-109010000D03*
X209655000Y-107740000D03*
X137940378Y-88649622D03*
X121510000Y-103020000D03*
X176280000Y-86805000D03*
X159580000Y-62999500D03*
X198481583Y-103569500D03*
X202750000Y-80650000D03*
X137880000Y-74130000D03*
X151892000Y-104394000D03*
X180340000Y-71520000D03*
X153814735Y-95884735D03*
X158170000Y-81510000D03*
X163630000Y-61200500D03*
X200940000Y-93590000D03*
X197467500Y-90840000D03*
X151779163Y-105793500D03*
X208000000Y-111280000D03*
X125422500Y-77890000D03*
X182660000Y-67360500D03*
X209180000Y-80510000D03*
X175090000Y-93690000D03*
X143250000Y-93540000D03*
X104310000Y-104499500D03*
X177900000Y-67310000D03*
X102290000Y-98480000D03*
X141920000Y-77710000D03*
X201380000Y-69329500D03*
X202480000Y-66950000D03*
X197420000Y-101040000D03*
X192410000Y-82890000D03*
X153591273Y-71537170D03*
X147040000Y-84740000D03*
X147050000Y-73040500D03*
X152150000Y-75069500D03*
X153510000Y-75069500D03*
X147674500Y-82620000D03*
X154700000Y-71540000D03*
X144860000Y-73800000D03*
X202150000Y-95330000D03*
X201410000Y-85810000D03*
X200300000Y-92330000D03*
X200947464Y-87176839D03*
X145849043Y-107771711D03*
X121840000Y-62848500D03*
X120860000Y-62400000D03*
X146890497Y-107719500D03*
X140460000Y-72650000D03*
X124170000Y-80200000D03*
X127310000Y-99990000D03*
X156350000Y-100520000D03*
X123067465Y-82082535D03*
X132770915Y-74317132D03*
X131620000Y-74069500D03*
X122196414Y-81592355D03*
X138290000Y-72540500D03*
X126000000Y-99920000D03*
X123175266Y-80102502D03*
X156950000Y-101320500D03*
X174823097Y-92166903D03*
X157810000Y-64920000D03*
X157800000Y-66329500D03*
X171160000Y-66870000D03*
X126100000Y-62390000D03*
X112240000Y-77430000D03*
X170650000Y-87420000D03*
X126020162Y-67240000D03*
X119230000Y-79240000D03*
X103170500Y-84080628D03*
X108965628Y-81304500D03*
X195220000Y-108030000D03*
X174700000Y-66329500D03*
X117104483Y-70311384D03*
X171284910Y-86502481D03*
X125180000Y-67890000D03*
X174090000Y-92940000D03*
X123749550Y-62190000D03*
X158890000Y-66329500D03*
X158820000Y-64890000D03*
X107932375Y-81547625D03*
X120420000Y-79260000D03*
X103170500Y-83030000D03*
X195250000Y-109110000D03*
X161919500Y-88138000D03*
X165579315Y-81471500D03*
X162838500Y-82550000D03*
X159004000Y-87630000D03*
X142480000Y-96639500D03*
X130350000Y-103799500D03*
X138176000Y-102669500D03*
X106350000Y-103019500D03*
X145660000Y-86320000D03*
X104755000Y-101320500D03*
X145350500Y-93980000D03*
X106350000Y-101290000D03*
X106060000Y-94980000D03*
X111252000Y-99332000D03*
X107330000Y-94860000D03*
X114740000Y-99360000D03*
X108580000Y-94890000D03*
X118147500Y-99217500D03*
X190980000Y-96470000D03*
X207920000Y-112450000D03*
X207390000Y-108280000D03*
X203770688Y-106700688D03*
X192530000Y-101110000D03*
X196555628Y-109274872D03*
X132025000Y-79870000D03*
X143924500Y-86871585D03*
X154706143Y-77349758D03*
X133337535Y-78192465D03*
X166250000Y-73979500D03*
X137250000Y-80630000D03*
X169900000Y-77060000D03*
X188135147Y-73864261D03*
X156902566Y-78441000D03*
X189933946Y-69519500D03*
X188569500Y-72059500D03*
X193749500Y-72560000D03*
X191376716Y-67243284D03*
X142291793Y-106030000D03*
X188120000Y-69260500D03*
X155695174Y-77205457D03*
X192360500Y-75510000D03*
X155914929Y-78180500D03*
X124530000Y-95560000D03*
X123080000Y-103100000D03*
X202440000Y-101160000D03*
X127076382Y-84003618D03*
X168710000Y-74830000D03*
X160292310Y-89452253D03*
X167100000Y-77220000D03*
X159835839Y-84040404D03*
X161990000Y-104369500D03*
X152891503Y-104394000D03*
X113650000Y-94980000D03*
X129339007Y-97279007D03*
X126924122Y-91315122D03*
X112400000Y-94990000D03*
X99426000Y-69050000D03*
X143016293Y-106925500D03*
X99420500Y-71490000D03*
X143741209Y-107677719D03*
X144824445Y-107771711D03*
X99426000Y-67600000D03*
X98576000Y-65720000D03*
X147890000Y-107719500D03*
X166320000Y-104369500D03*
X166397000Y-98020000D03*
X169310000Y-99770000D03*
X146120000Y-104769500D03*
X181890000Y-110170000D03*
X183050000Y-111773000D03*
X149550000Y-98430000D03*
X166190000Y-78975934D03*
X150480000Y-98020000D03*
X165270000Y-78540000D03*
X168979000Y-101261000D03*
X159190000Y-98920000D03*
X167060000Y-98820000D03*
X157999521Y-98087132D03*
X176345000Y-96035000D03*
X157618395Y-96888698D03*
X174780000Y-97370000D03*
X158574396Y-97269500D03*
X172589503Y-88583500D03*
X159950000Y-94620000D03*
X160482923Y-93708674D03*
X171590000Y-88583500D03*
X159320520Y-85119623D03*
X158417279Y-84691651D03*
X157620000Y-79140500D03*
X103840000Y-74300000D03*
X184570000Y-95980000D03*
X174310000Y-99310000D03*
X174521188Y-100458812D03*
X185541515Y-95745128D03*
X166860000Y-94230000D03*
X169030000Y-94960000D03*
X171430000Y-95320000D03*
X161707914Y-81342843D03*
X166245582Y-96023217D03*
X186396419Y-95016419D03*
X187510000Y-94990000D03*
X168200000Y-97669500D03*
X143516696Y-96519500D03*
X158325500Y-86711123D03*
X173432493Y-89120500D03*
X165360000Y-85549500D03*
X161988500Y-85090000D03*
X120469500Y-83170000D03*
X118720000Y-83225000D03*
X178541386Y-77288614D03*
X177000500Y-75778614D03*
X181870000Y-78330000D03*
X179424850Y-72048883D03*
X197560000Y-67989500D03*
X196739500Y-88070000D03*
X196339500Y-87030000D03*
X196410000Y-68080000D03*
X195200000Y-68310000D03*
X195610000Y-85810000D03*
X126800000Y-93010000D03*
X116042535Y-95037465D03*
X128070000Y-86460000D03*
X128135027Y-83010912D03*
X131908233Y-94243142D03*
X131150000Y-91150000D03*
X207820000Y-114660500D03*
X103170500Y-85130000D03*
X109140000Y-74830000D03*
X188940000Y-114790000D03*
X198740000Y-113220000D03*
X109965131Y-80904500D03*
X116260000Y-80390000D03*
X120000000Y-67310000D03*
X121859500Y-66450000D03*
X118400000Y-76240000D03*
X119854653Y-66321122D03*
X121859500Y-65450497D03*
X114940000Y-80370000D03*
X118050500Y-74645976D03*
X106820000Y-74900000D03*
X104914622Y-80285378D03*
X153670000Y-60198000D03*
X153670000Y-62992000D03*
X151720000Y-62949500D03*
X154686000Y-59182000D03*
X202950000Y-108900000D03*
X197230000Y-103740000D03*
X169150000Y-80380000D03*
X193100000Y-94940500D03*
X196040000Y-100670000D03*
X177749500Y-80349500D03*
X195890000Y-104050000D03*
X178883221Y-81349000D03*
X191900500Y-94940500D03*
X137064927Y-102269500D03*
X194680000Y-100380000D03*
X170027459Y-81099500D03*
X136144000Y-103632000D03*
X202900000Y-111460000D03*
X137414000Y-95758000D03*
X116586000Y-82804000D03*
X117856000Y-69059500D03*
X156859574Y-65948767D03*
X135890000Y-97282000D03*
X117856000Y-67310000D03*
X119952016Y-65234516D03*
X132268800Y-97028000D03*
X104790378Y-98659622D03*
X144839500Y-66720369D03*
X118425128Y-64735628D03*
X101990500Y-99720000D03*
X210530000Y-67470000D03*
M02*
