%TF.GenerationSoftware,KiCad,Pcbnew,(6.0.11)*%
%TF.CreationDate,2023-04-06T14:42:31-07:00*%
%TF.ProjectId,EV5 Board Design,45563520-426f-4617-9264-204465736967,rev?*%
%TF.SameCoordinates,Original*%
%TF.FileFunction,Legend,Bot*%
%TF.FilePolarity,Positive*%
%FSLAX46Y46*%
G04 Gerber Fmt 4.6, Leading zero omitted, Abs format (unit mm)*
G04 Created by KiCad (PCBNEW (6.0.11)) date 2023-04-06 14:42:31*
%MOMM*%
%LPD*%
G01*
G04 APERTURE LIST*
%ADD10C,0.650000*%
%ADD11O,1.600000X1.000000*%
%ADD12O,2.100000X1.000000*%
%ADD13C,0.800000*%
G04 APERTURE END LIST*
%LPC*%
D10*
%TO.C,J9*%
X204490000Y-89460000D03*
X204490000Y-83680000D03*
D11*
X208140000Y-90890000D03*
D12*
X203960000Y-82250000D03*
D11*
X208140000Y-82250000D03*
D12*
X203960000Y-90890000D03*
%TD*%
D13*
X118770000Y-68210000D03*
X169910000Y-106980000D03*
X149680000Y-106349500D03*
X150538093Y-107257027D03*
X170960498Y-107439963D03*
X145170000Y-95700000D03*
X143570000Y-95110000D03*
X171960000Y-107440500D03*
X171950000Y-109639500D03*
X164850000Y-109639500D03*
X180000000Y-65840500D03*
X182880000Y-65560500D03*
X182620000Y-106900000D03*
X163790000Y-101300000D03*
X162700000Y-101320500D03*
X116400000Y-69310000D03*
X109232701Y-69459500D03*
X117960000Y-61730000D03*
X114730000Y-61810000D03*
X116870000Y-57150000D03*
X113620000Y-66870000D03*
X100825500Y-67820000D03*
X103440000Y-68890000D03*
X101336607Y-71001774D03*
X186080000Y-81940000D03*
X193650000Y-68389500D03*
X177169274Y-71580161D03*
X137170308Y-84769692D03*
X181410000Y-79850000D03*
X135715378Y-86424622D03*
X178682215Y-72717835D03*
X206989500Y-74250000D03*
X139370000Y-77750000D03*
X193294000Y-104394000D03*
X188295643Y-75885713D03*
X202530000Y-74150000D03*
X138340000Y-89900000D03*
X163400000Y-93610000D03*
X198370000Y-95640000D03*
X173220000Y-68210000D03*
X146850000Y-68210000D03*
X144910000Y-68210000D03*
X152866945Y-91919406D03*
X169410000Y-68210000D03*
X193540000Y-111740000D03*
X103390878Y-98489622D03*
X198370000Y-87910000D03*
X171290000Y-99140000D03*
X191962000Y-102170000D03*
X138570000Y-66329500D03*
X187787750Y-74847750D03*
X152110000Y-89080000D03*
X143080000Y-74030000D03*
X151574349Y-102020500D03*
X166710000Y-89120500D03*
X171406188Y-97669500D03*
X131420000Y-90170000D03*
X158120000Y-102020500D03*
X139340000Y-92800000D03*
X187720000Y-85560000D03*
X130910000Y-102170000D03*
X172000000Y-102170000D03*
X159700936Y-73170936D03*
X184560000Y-90910000D03*
X130000000Y-86410000D03*
X190190500Y-85800000D03*
X202250000Y-90350000D03*
X144495000Y-89225000D03*
X128040000Y-97028000D03*
X199270000Y-101290000D03*
X202940000Y-110280000D03*
X152740500Y-96954597D03*
X191690000Y-110520000D03*
X125422500Y-81870000D03*
X141260000Y-74650000D03*
X189971188Y-109981188D03*
X199660000Y-86500000D03*
X200902000Y-96838000D03*
X123830500Y-92981749D03*
X162910000Y-78170500D03*
X191700000Y-89330000D03*
X200310500Y-82190000D03*
X144970000Y-77810000D03*
X138113500Y-96740854D03*
X122480000Y-84740000D03*
X174805000Y-75105000D03*
X118192500Y-104412500D03*
X122428000Y-97879500D03*
X177191985Y-74021778D03*
X144700000Y-90630000D03*
X123320000Y-95570000D03*
X186315583Y-72195583D03*
X199390000Y-92910000D03*
X133390000Y-76690000D03*
X208880000Y-78030000D03*
X204705000Y-107740000D03*
X201060000Y-102130000D03*
X209655000Y-109010000D03*
X209655000Y-107740000D03*
X137940378Y-88649622D03*
X121510000Y-103020000D03*
X176280000Y-86805000D03*
X159580000Y-62999500D03*
X198481583Y-103569500D03*
X202750000Y-80650000D03*
X137880000Y-74130000D03*
X151892000Y-104394000D03*
X180340000Y-71520000D03*
X153814735Y-95884735D03*
X158170000Y-81510000D03*
X163630000Y-61200500D03*
X200940000Y-93590000D03*
X197467500Y-90840000D03*
X151779163Y-105793500D03*
X208000000Y-111280000D03*
X125422500Y-77890000D03*
X182660000Y-67360500D03*
X209180000Y-80510000D03*
X175090000Y-93690000D03*
X143250000Y-93540000D03*
X104310000Y-104499500D03*
X177900000Y-67310000D03*
X102290000Y-98480000D03*
X141920000Y-77710000D03*
X201380000Y-69329500D03*
X202480000Y-66950000D03*
X197420000Y-101040000D03*
X192410000Y-82890000D03*
X153591273Y-71537170D03*
X147040000Y-84740000D03*
X147050000Y-73040500D03*
X152150000Y-75069500D03*
X153510000Y-75069500D03*
X147674500Y-82620000D03*
X154700000Y-71540000D03*
X144860000Y-73800000D03*
X202150000Y-95330000D03*
X201410000Y-85810000D03*
X200300000Y-92330000D03*
X200947464Y-87176839D03*
X145849043Y-107771711D03*
X121840000Y-62848500D03*
X120860000Y-62400000D03*
X146890497Y-107719500D03*
X140460000Y-72650000D03*
X124170000Y-80200000D03*
X127310000Y-99990000D03*
X156350000Y-100520000D03*
X123067465Y-82082535D03*
X132770915Y-74317132D03*
X131620000Y-74069500D03*
X122196414Y-81592355D03*
X138290000Y-72540500D03*
X126000000Y-99920000D03*
X123175266Y-80102502D03*
X156950000Y-101320500D03*
X174823097Y-92166903D03*
X157810000Y-64920000D03*
X157800000Y-66329500D03*
X171160000Y-66870000D03*
X126100000Y-62390000D03*
X112240000Y-77430000D03*
X170650000Y-87420000D03*
X126020162Y-67240000D03*
X119230000Y-79240000D03*
X103170500Y-84080628D03*
X108965628Y-81304500D03*
X195220000Y-108030000D03*
X174700000Y-66329500D03*
X117104483Y-70311384D03*
X171284910Y-86502481D03*
X125180000Y-67890000D03*
X174090000Y-92940000D03*
X123749550Y-62190000D03*
X158890000Y-66329500D03*
X158820000Y-64890000D03*
X107932375Y-81547625D03*
X120420000Y-79260000D03*
X103170500Y-83030000D03*
X195250000Y-109110000D03*
X161919500Y-88138000D03*
X165579315Y-81471500D03*
X162838500Y-82550000D03*
X159004000Y-87630000D03*
X142480000Y-96639500D03*
X130350000Y-103799500D03*
X138176000Y-102669500D03*
X106350000Y-103019500D03*
X145660000Y-86320000D03*
X104755000Y-101320500D03*
X145350500Y-93980000D03*
X106350000Y-101290000D03*
X106060000Y-94980000D03*
X111252000Y-99332000D03*
X107330000Y-94860000D03*
X114740000Y-99360000D03*
X108580000Y-94890000D03*
X118147500Y-99217500D03*
X190980000Y-96470000D03*
X207920000Y-112450000D03*
X207390000Y-108280000D03*
X203770688Y-106700688D03*
X192530000Y-101110000D03*
X196555628Y-109274872D03*
X132025000Y-79870000D03*
X143924500Y-86871585D03*
X154706143Y-77349758D03*
X133337535Y-78192465D03*
X166250000Y-73979500D03*
X137250000Y-80630000D03*
X169900000Y-77060000D03*
X188135147Y-73864261D03*
X156902566Y-78441000D03*
X189933946Y-69519500D03*
X188569500Y-72059500D03*
X193749500Y-72560000D03*
X191376716Y-67243284D03*
X142291793Y-106030000D03*
X188120000Y-69260500D03*
X155695174Y-77205457D03*
X192360500Y-75510000D03*
X155914929Y-78180500D03*
X124530000Y-95560000D03*
X123080000Y-103100000D03*
X202440000Y-101160000D03*
X127076382Y-84003618D03*
X168710000Y-74830000D03*
X160292310Y-89452253D03*
X167100000Y-77220000D03*
X159835839Y-84040404D03*
X161990000Y-104369500D03*
X152891503Y-104394000D03*
X113650000Y-94980000D03*
X129339007Y-97279007D03*
X126924122Y-91315122D03*
X112400000Y-94990000D03*
X99426000Y-69050000D03*
X143016293Y-106925500D03*
X99420500Y-71490000D03*
X143741209Y-107677719D03*
X144824445Y-107771711D03*
X99426000Y-67600000D03*
X98576000Y-65720000D03*
X147890000Y-107719500D03*
X166320000Y-104369500D03*
X166397000Y-98020000D03*
X169310000Y-99770000D03*
X146120000Y-104769500D03*
X181890000Y-110170000D03*
X183050000Y-111773000D03*
X149550000Y-98430000D03*
X166190000Y-78975934D03*
X150480000Y-98020000D03*
X165270000Y-78540000D03*
X168979000Y-101261000D03*
X159190000Y-98920000D03*
X167060000Y-98820000D03*
X157999521Y-98087132D03*
X176345000Y-96035000D03*
X157618395Y-96888698D03*
X174780000Y-97370000D03*
X158574396Y-97269500D03*
X172589503Y-88583500D03*
X159950000Y-94620000D03*
X160482923Y-93708674D03*
X171590000Y-88583500D03*
X159320520Y-85119623D03*
X158417279Y-84691651D03*
X157620000Y-79140500D03*
X103840000Y-74300000D03*
X184570000Y-95980000D03*
X174310000Y-99310000D03*
X174521188Y-100458812D03*
X185541515Y-95745128D03*
X166860000Y-94230000D03*
X169030000Y-94960000D03*
X171430000Y-95320000D03*
X161707914Y-81342843D03*
X166245582Y-96023217D03*
X186396419Y-95016419D03*
X187510000Y-94990000D03*
X168200000Y-97669500D03*
X143516696Y-96519500D03*
X158325500Y-86711123D03*
X173432493Y-89120500D03*
X165360000Y-85549500D03*
X161988500Y-85090000D03*
X120469500Y-83170000D03*
X118720000Y-83225000D03*
X178541386Y-77288614D03*
X177000500Y-75778614D03*
X181870000Y-78330000D03*
X179424850Y-72048883D03*
X197560000Y-67989500D03*
X196739500Y-88070000D03*
X196339500Y-87030000D03*
X196410000Y-68080000D03*
X195200000Y-68310000D03*
X195610000Y-85810000D03*
X126800000Y-93010000D03*
X116042535Y-95037465D03*
X128070000Y-86460000D03*
X128135027Y-83010912D03*
X131908233Y-94243142D03*
X131150000Y-91150000D03*
X207820000Y-114660500D03*
X103170500Y-85130000D03*
X109140000Y-74830000D03*
X188940000Y-114790000D03*
X198740000Y-113220000D03*
X109965131Y-80904500D03*
X116260000Y-80390000D03*
X120000000Y-67310000D03*
X121859500Y-66450000D03*
X118400000Y-76240000D03*
X119854653Y-66321122D03*
X121859500Y-65450497D03*
X114940000Y-80370000D03*
X118050500Y-74645976D03*
X106820000Y-74900000D03*
X104914622Y-80285378D03*
X153670000Y-60198000D03*
X153670000Y-62992000D03*
X151720000Y-62949500D03*
X154686000Y-59182000D03*
X202950000Y-108900000D03*
X197230000Y-103740000D03*
X169150000Y-80380000D03*
X193100000Y-94940500D03*
X196040000Y-100670000D03*
X177749500Y-80349500D03*
X195890000Y-104050000D03*
X178883221Y-81349000D03*
X191900500Y-94940500D03*
X137064927Y-102269500D03*
X194680000Y-100380000D03*
X170027459Y-81099500D03*
X136144000Y-103632000D03*
X202900000Y-111460000D03*
X137414000Y-95758000D03*
X116586000Y-82804000D03*
X117856000Y-69059500D03*
X156859574Y-65948767D03*
X135890000Y-97282000D03*
X117856000Y-67310000D03*
X119952016Y-65234516D03*
X132268800Y-97028000D03*
X104790378Y-98659622D03*
X144839500Y-66720369D03*
X118425128Y-64735628D03*
X101990500Y-99720000D03*
X210530000Y-67470000D03*
M02*
