M48
; DRILL file {KiCad (6.0.11)} date Thu Apr  6 14:42:31 2023
; FORMAT={-:-/ absolute / inch / decimal}
; #@! TF.CreationDate,2023-04-06T14:42:31-07:00
; #@! TF.GenerationSoftware,Kicad,Pcbnew,(6.0.11)
; #@! TF.FileFunction,Plated,1,2,PTH
FMAT,2
INCH
; #@! TA.AperFunction,Plated,PTH,ComponentDrill
T1C0.0079
; #@! TA.AperFunction,Plated,PTH,ViaDrill
T2C0.0157
; #@! TA.AperFunction,Plated,PTH,ComponentDrill
T3C0.0236
%
G90
G05
T1
X4.2254Y-3.4846
X4.2254Y-3.5398
X4.253Y-3.4571
X4.253Y-3.5122
X4.253Y-3.5673
X4.2805Y-3.4846
X4.2805Y-3.5398
X4.3081Y-3.4571
X4.3081Y-3.5122
X4.3081Y-3.5673
X4.3356Y-3.4846
X4.3356Y-3.5398
T2
X3.8809Y-2.5874
X3.9142Y-2.8146
X3.9144Y-2.6614
X3.9144Y-2.7185
X3.9695Y-2.6701
X3.9896Y-2.7953
X4.0154Y-3.926
X4.0272Y-3.8772
X4.0618Y-3.2689
X4.0618Y-3.3103
X4.0618Y-3.3516
X4.0705Y-3.8775
X4.0724Y-2.7122
X4.0882Y-2.9252
X4.1067Y-4.1142
X4.1242Y-3.989
X4.1256Y-3.8842
X4.1305Y-3.1608
X4.1756Y-3.7394
X4.187Y-3.9878
X4.187Y-4.0559
X4.2055Y-2.9488
X4.2256Y-3.7346
X4.2493Y-3.2105
X4.2748Y-3.7358
X4.29Y-3.201
X4.2969Y-2.9461
X4.3005Y-2.7346
X4.3293Y-3.1852
X4.38Y-3.9107
X4.4189Y-3.0484
X4.4252Y-3.7398
X4.4732Y-2.6327
X4.4744Y-3.7394
X4.5169Y-2.4335
X4.5173Y-3.9118
X4.5252Y-3.1642
X4.5686Y-3.7416
X4.5772Y-3.165
X4.5827Y-2.7287
X4.59Y-3.26
X4.6012Y-2.25
X4.6104Y-2.7682
X4.64Y-2.65
X4.64Y-2.7189
X4.6441Y-2.4303
X4.6477Y-2.9388
X4.6515Y-3.9062
X4.6532Y-4.1107
X4.6614Y-3.0016
X4.6624Y-2.5486
X4.674Y-3.2766
X4.676Y-2.6854
X4.6941Y-3.1197
X4.7187Y-2.6111
X4.7225Y-2.5683
X4.7244Y-2.65
X4.7409Y-3.1205
X4.7429Y-3.2744
X4.7583Y-2.4567
X4.7839Y-4.0559
X4.7969Y-2.4744
X4.7976Y-2.5768
X4.7976Y-2.6161
X4.8109Y-3.2123
X4.82Y-3.8535
X4.822Y-3.3362
X4.8452Y-3.2316
X4.8457Y-4.0591
X4.8494Y-3.1536
X4.8551Y-3.7626
X4.872Y-2.4484
X4.8752Y-3.6607
X4.8886Y-3.1575
X4.9028Y-3.7622
X4.9283Y-2.6728
X4.9379Y-3.0665
X4.9379Y-3.2232
X4.9606Y-3.9339
X4.9614Y-2.6472
X4.9646Y-2.4563
X4.9921Y-3.6618
X4.997Y-3.5951
X5.003Y-3.3072
X5.0122Y-3.9366
X5.0409Y-3.82
X5.0421Y-3.4039
X5.0447Y-3.2681
X5.0921Y-3.8299
X5.1181Y-3.402
X5.1319Y-4.0866
X5.1539Y-4.0224
X5.1634Y-3.5886
X5.174Y-3.55
X5.1819Y-2.9161
X5.1932Y-3.7104
X5.1978Y-3.1445
X5.2074Y-3.82
X5.2272Y-2.9259
X5.2495Y-3.0784
X5.2516Y-3.0193
X5.3431Y-3.4025
X5.35Y-3.83
X5.36Y-4.08
X5.3963Y-4.0264
X5.4004Y-3.3374
X5.4035Y-3.1744
X5.41Y-3.77
X5.4283Y-2.9185
X5.4307Y-3.4901
X5.4375Y-3.8087
X5.44Y-4.0421
X5.4445Y-2.8559
X5.4465Y-3.5394
X5.4555Y-2.6114
X5.4858Y-3.6535
X5.487Y-3.061
X5.5299Y-2.8602
X5.5614Y-2.939
X5.5874Y-3.0594
X5.602Y-4.1744
X5.6094Y-3.8047
X5.6306Y-4.2097
X5.6331Y-2.9146
X5.6398Y-3.6827
X5.6503Y-3.8
X5.6524Y-3.7445
X5.6591Y-4.2393
X5.6663Y-3.4201
X5.6888Y-3.5128
X5.6969Y-3.5681
X5.7017Y-4.243
X5.7023Y-2.6268
X5.7031Y-2.9055
X5.7051Y-2.6854
X5.7075Y-3.0634
X5.7154Y-3.7677
X5.7225Y-3.7
X5.7346Y-3.3984
X5.7421Y-4.243
X5.7528Y-4.1248
X5.7815Y-2.6854
X5.7831Y-4.2409
X5.789Y-3.3362
X5.7894Y-2.8756
X5.814Y-3.2528
X5.8224Y-4.2409
X5.8878Y-3.8752
X5.8929Y-4.187
X5.9244Y-3.8591
X5.9267Y-4.2227
X5.9675Y-4.0166
X5.9732Y-2.4783
X5.9756Y-4.1651
X5.98Y-4.11
X5.9886Y-3.5071
X5.9902Y-2.9555
X6.0134Y-3.8171
X6.0184Y-3.6189
X6.0194Y-4.11
X6.0437Y-2.9555
X6.0469Y-2.8164
X6.05Y-2.37
X6.05Y-2.48
X6.0557Y-3.775
X6.09Y-2.33
X6.0906Y-2.8165
X6.0908Y-3.0453
X6.1297Y-3.0396
X6.1384Y-3.078
X6.1555Y-3.9575
X6.1756Y-2.5964
X6.1773Y-3.0882
X6.1791Y-3.989
X6.2054Y-3.8145
X6.2055Y-3.1158
X6.2126Y-2.6114
X6.213Y-2.5559
X6.2205Y-3.8617
X6.2252Y-4.0166
X6.2272Y-3.2091
X6.2333Y-3.4138
X6.2369Y-3.3343
X6.2431Y-3.8295
X6.2528Y-2.5547
X6.2555Y-2.6114
X6.26Y-3.45
X6.2673Y-3.8945
X6.2725Y-3.3512
X6.2827Y-2.4803
X6.2874Y-2.8807
X6.2927Y-3.3087
X6.2972Y-3.7252
X6.3107Y-3.5217
X6.3182Y-3.6893
X6.3665Y-3.2025
X6.3748Y-3.47
X6.3775Y-3.35
X6.3776Y-4.109
X6.4055Y-3.989
X6.411Y-3.25
X6.4138Y-3.0776
X6.4331Y-3.6854
X6.4421Y-2.4095
X6.4484Y-3.9882
X6.4902Y-4.3165
X6.5067Y-3.0921
X6.5102Y-3.3681
X6.5189Y-3.2075
X6.5429Y-3.1093
X6.5451Y-3.7804
X6.5453Y-2.9126
X6.548Y-4.109
X6.5511Y-3.8591
X6.5634Y-3.5087
X6.5693Y-3.7098
X6.5772Y-3.8906
X6.5787Y-3.0402
X6.622Y-3.8453
X6.6421Y-2.9461
X6.6527Y-3.9867
X6.6547Y-3.7386
X6.6594Y-3.1646
X6.6657Y-3.928
X6.6697Y-2.6854
X6.689Y-3.0339
X6.6894Y-4.2118
X6.694Y-3.1929
X6.7185Y-3.4417
X6.7307Y-4.2299
X6.7386Y-2.6327
X6.7435Y-3.4056
X6.7437Y-3.9031
X6.7483Y-3.8453
X6.7492Y-3.7528
X6.7555Y-3.4875
X6.7697Y-4.3165
X6.7701Y-4.2299
X6.7717Y-4.0224
X6.7949Y-3.4875
X6.8197Y-2.6854
X6.8281Y-3.5087
X6.8539Y-3.6591
X6.8626Y-3.9098
X6.8709Y-3.9551
X6.878Y-2.6114
X6.8811Y-3.8335
X6.8821Y-2.9569
X6.8828Y-3.6286
X6.8933Y-3.6886
X6.9402Y-3.4175
X6.9427Y-3.7809
X6.9685Y-2.9834
X6.9752Y-2.8181
X6.9761Y-2.9142
X6.998Y-3.1634
X7.0039Y-2.65
X7.0292Y-3.0429
X7.0347Y-2.8629
X7.0426Y-3.2027
X7.064Y-2.8366
X7.0866Y-2.5921
X7.1Y-2.8157
X7.1421Y-3.1437
X7.1602Y-3.0839
X7.161Y-4.3374
X7.1898Y-4.2087
X7.1913Y-2.652
X7.2Y-2.5811
X7.2067Y-4.4005
X7.2661Y-3.5791
X7.2665Y-3.7787
X7.3048Y-3.7695
X7.326Y-3.226
X7.3353Y-2.8423
X7.3384Y-3.7408
X7.3823Y-3.7398
X7.3906Y-3.3685
X7.3932Y-2.9468
X7.4063Y-2.7268
X7.4069Y-2.908
X7.4132Y-2.9876
X7.424Y-2.837
X7.4386Y-4.5193
X7.4777Y-2.737
X7.4792Y-4.33
X7.4878Y-3.378
X7.5189Y-3.798
X7.5345Y-2.6474
X7.5469Y-4.3512
X7.5472Y-3.5169
X7.5551Y-3.7378
X7.5576Y-4.0224
X7.5732Y-2.9728
X7.5752Y-3.2634
X7.5799Y-3.9807
X7.6024Y-3.7378
X7.61Y-4.11
X7.6197Y-4.3992
X7.624Y-2.6925
X7.6279Y-2.8567
X7.6646Y-3.952
X7.685Y-2.6894
X7.6858Y-4.2531
X7.687Y-4.2957
X7.7012Y-3.3783
X7.7122Y-4.0965
X7.7181Y-3.9634
X7.7299Y-3.4264
X7.7327Y-2.6803
X7.7384Y-4.3022
X7.7456Y-3.4673
X7.765Y-4.0843
X7.7724Y-3.978
X7.7743Y-3.5764
X7.778Y-2.6768
X7.8098Y-3.461
X7.8098Y-3.7654
X7.8142Y-4.0775
X7.8244Y-4.4575
X7.8453Y-3.9878
X7.85Y-3.6579
X7.8606Y-3.4055
X7.8858Y-3.635
X7.8862Y-3.2358
X7.9095Y-3.8125
X7.911Y-3.6846
X7.9113Y-3.4322
X7.9157Y-4.0209
X7.9283Y-2.7295
X7.9295Y-3.3783
X7.9587Y-3.7531
X7.9626Y-3.5571
X7.9701Y-3.9827
X7.9717Y-2.6358
X7.9736Y-2.9193
X7.9823Y-3.1752
X7.9882Y-4.3882
X7.9898Y-4.3417
X7.9902Y-4.2874
X8.0225Y-4.2008
X8.0593Y-4.2417
X8.1492Y-2.9232
X8.165Y-4.263
X8.1819Y-4.5142
X8.1858Y-4.4272
X8.189Y-4.3811
X8.2236Y-3.072
X8.2354Y-3.1697
X8.2541Y-4.2417
X8.2541Y-4.2917
X8.2886Y-2.6563
T3
G00X8.0083Y-3.2382
M15
G01X8.0516Y-3.2382
M16
G05
G00X8.0083Y-3.5783
M15
G01X8.0516Y-3.5783
M16
G05
G00X8.1827Y-3.2382
M15
G01X8.2063Y-3.2382
M16
G05
G00X8.1827Y-3.5783
M15
G01X8.2063Y-3.5783
M16
G05
T0
M30
