%TF.GenerationSoftware,KiCad,Pcbnew,(6.0.11)*%
%TF.CreationDate,2023-04-06T14:42:31-07:00*%
%TF.ProjectId,EV5 Board Design,45563520-426f-4617-9264-204465736967,rev?*%
%TF.SameCoordinates,Original*%
%TF.FileFunction,Soldermask,Top*%
%TF.FilePolarity,Negative*%
%FSLAX46Y46*%
G04 Gerber Fmt 4.6, Leading zero omitted, Abs format (unit mm)*
G04 Created by KiCad (PCBNEW (6.0.11)) date 2023-04-06 14:42:31*
%MOMM*%
%LPD*%
G01*
G04 APERTURE LIST*
G04 Aperture macros list*
%AMRoundRect*
0 Rectangle with rounded corners*
0 $1 Rounding radius*
0 $2 $3 $4 $5 $6 $7 $8 $9 X,Y pos of 4 corners*
0 Add a 4 corners polygon primitive as box body*
4,1,4,$2,$3,$4,$5,$6,$7,$8,$9,$2,$3,0*
0 Add four circle primitives for the rounded corners*
1,1,$1+$1,$2,$3*
1,1,$1+$1,$4,$5*
1,1,$1+$1,$6,$7*
1,1,$1+$1,$8,$9*
0 Add four rect primitives between the rounded corners*
20,1,$1+$1,$2,$3,$4,$5,0*
20,1,$1+$1,$4,$5,$6,$7,0*
20,1,$1+$1,$6,$7,$8,$9,0*
20,1,$1+$1,$8,$9,$2,$3,0*%
G04 Aperture macros list end*
%ADD10R,0.500000X1.200000*%
%ADD11R,0.800000X1.500000*%
%ADD12RoundRect,0.250000X0.475000X-0.250000X0.475000X0.250000X-0.475000X0.250000X-0.475000X-0.250000X0*%
%ADD13RoundRect,0.250000X-0.450000X0.262500X-0.450000X-0.262500X0.450000X-0.262500X0.450000X0.262500X0*%
%ADD14RoundRect,0.250000X-0.250000X-0.475000X0.250000X-0.475000X0.250000X0.475000X-0.250000X0.475000X0*%
%ADD15R,0.400000X0.200000*%
%ADD16R,0.400000X0.410000*%
%ADD17RoundRect,0.250000X0.262500X0.450000X-0.262500X0.450000X-0.262500X-0.450000X0.262500X-0.450000X0*%
%ADD18RoundRect,0.250000X0.450000X-0.262500X0.450000X0.262500X-0.450000X0.262500X-0.450000X-0.262500X0*%
%ADD19RoundRect,0.250000X-0.262500X-0.450000X0.262500X-0.450000X0.262500X0.450000X-0.262500X0.450000X0*%
%ADD20RoundRect,0.243750X-0.243750X-0.456250X0.243750X-0.456250X0.243750X0.456250X-0.243750X0.456250X0*%
%ADD21RoundRect,0.250000X-0.475000X0.250000X-0.475000X-0.250000X0.475000X-0.250000X0.475000X0.250000X0*%
%ADD22RoundRect,0.243750X0.243750X0.456250X-0.243750X0.456250X-0.243750X-0.456250X0.243750X-0.456250X0*%
%ADD23RoundRect,0.075000X-0.700000X-0.075000X0.700000X-0.075000X0.700000X0.075000X-0.700000X0.075000X0*%
%ADD24RoundRect,0.075000X-0.075000X-0.700000X0.075000X-0.700000X0.075000X0.700000X-0.075000X0.700000X0*%
%ADD25RoundRect,0.243750X-0.456250X0.243750X-0.456250X-0.243750X0.456250X-0.243750X0.456250X0.243750X0*%
%ADD26R,0.500000X0.375000*%
%ADD27R,0.650000X0.300000*%
%ADD28RoundRect,0.218750X0.218750X0.256250X-0.218750X0.256250X-0.218750X-0.256250X0.218750X-0.256250X0*%
%ADD29RoundRect,0.250000X0.250000X1.500000X-0.250000X1.500000X-0.250000X-1.500000X0.250000X-1.500000X0*%
%ADD30RoundRect,0.250001X0.499999X1.449999X-0.499999X1.449999X-0.499999X-1.449999X0.499999X-1.449999X0*%
%ADD31RoundRect,0.150000X-0.512500X-0.150000X0.512500X-0.150000X0.512500X0.150000X-0.512500X0.150000X0*%
%ADD32R,2.160000X1.120000*%
%ADD33RoundRect,0.250000X0.250000X0.475000X-0.250000X0.475000X-0.250000X-0.475000X0.250000X-0.475000X0*%
%ADD34R,1.701800X0.533400*%
%ADD35RoundRect,0.225000X0.225000X0.250000X-0.225000X0.250000X-0.225000X-0.250000X0.225000X-0.250000X0*%
%ADD36R,1.422400X0.533400*%
%ADD37RoundRect,0.007500X0.372500X0.117500X-0.372500X0.117500X-0.372500X-0.117500X0.372500X-0.117500X0*%
%ADD38RoundRect,0.007500X-0.117500X0.372500X-0.117500X-0.372500X0.117500X-0.372500X0.117500X0.372500X0*%
%ADD39R,3.650000X3.650000*%
%ADD40RoundRect,0.250000X-0.250000X-1.500000X0.250000X-1.500000X0.250000X1.500000X-0.250000X1.500000X0*%
%ADD41RoundRect,0.250001X-0.499999X-1.449999X0.499999X-1.449999X0.499999X1.449999X-0.499999X1.449999X0*%
%ADD42R,0.650000X0.400000*%
%ADD43R,1.500000X1.600000*%
%ADD44C,0.650000*%
%ADD45R,1.450000X0.600000*%
%ADD46R,1.450000X0.300000*%
%ADD47O,1.600000X1.000000*%
%ADD48O,2.100000X1.000000*%
%ADD49R,0.600000X1.200000*%
%ADD50RoundRect,0.225000X0.250000X-0.225000X0.250000X0.225000X-0.250000X0.225000X-0.250000X-0.225000X0*%
%ADD51R,0.600000X0.450000*%
%ADD52R,2.000000X1.500000*%
%ADD53R,2.000000X3.800000*%
%ADD54RoundRect,0.090000X0.895000X0.210000X-0.895000X0.210000X-0.895000X-0.210000X0.895000X-0.210000X0*%
%ADD55RoundRect,0.150000X0.150000X-0.825000X0.150000X0.825000X-0.150000X0.825000X-0.150000X-0.825000X0*%
%ADD56R,0.900000X1.500000*%
%ADD57R,1.500000X0.900000*%
%ADD58R,1.120000X2.160000*%
%ADD59C,0.800000*%
G04 APERTURE END LIST*
D10*
%TO.C,J7*%
X173900000Y-110700000D03*
X174900000Y-110700000D03*
X175900000Y-110700000D03*
X176900000Y-110700000D03*
D11*
X172700000Y-113650000D03*
X178100000Y-113650000D03*
%TD*%
D12*
%TO.C,C17*%
X175500000Y-70220000D03*
X175500000Y-68320000D03*
%TD*%
D13*
%TO.C,R9*%
X140430000Y-69647500D03*
X140430000Y-71472500D03*
%TD*%
D14*
%TO.C,C15*%
X177970000Y-78960000D03*
X179870000Y-78960000D03*
%TD*%
D15*
%TO.C,U13*%
X172230000Y-98930000D03*
X170350000Y-98930000D03*
X172230000Y-98530000D03*
X170350000Y-98530000D03*
X172230000Y-98127924D03*
X170350000Y-98127924D03*
X172230000Y-97730000D03*
X170350000Y-97730000D03*
X172230000Y-97330000D03*
X170350000Y-97330000D03*
X172230000Y-96930000D03*
X170350000Y-96930000D03*
X172230000Y-96530000D03*
X170350000Y-96530000D03*
X172230000Y-96130000D03*
X170350000Y-96130000D03*
X172230000Y-95730000D03*
X170350000Y-95730000D03*
X172230000Y-95330000D03*
X170350000Y-95330000D03*
X172230000Y-94930000D03*
X170350000Y-94930000D03*
X172230000Y-94530000D03*
X170350000Y-94530000D03*
D16*
X172230000Y-99435000D03*
X172230000Y-94025000D03*
X170350000Y-99435000D03*
X170350000Y-94025000D03*
%TD*%
D17*
%TO.C,R24*%
X132025000Y-79870000D03*
X130200000Y-79870000D03*
%TD*%
D18*
%TO.C,R40*%
X207540000Y-105892500D03*
X207540000Y-104067500D03*
%TD*%
D19*
%TO.C,R37*%
X194577500Y-79000000D03*
X196402500Y-79000000D03*
%TD*%
%TO.C,R38*%
X203367500Y-99830000D03*
X205192500Y-99830000D03*
%TD*%
D10*
%TO.C,J3*%
X165820000Y-110670000D03*
X166820000Y-110670000D03*
X167820000Y-110670000D03*
X168820000Y-110670000D03*
D11*
X164620000Y-113620000D03*
X170020000Y-113620000D03*
%TD*%
D20*
%TO.C,D7*%
X125412500Y-77880000D03*
X127287500Y-77880000D03*
%TD*%
D13*
%TO.C,R33*%
X133560000Y-69667500D03*
X133560000Y-71492500D03*
%TD*%
D12*
%TO.C,C7*%
X188100000Y-80720000D03*
X188100000Y-78820000D03*
%TD*%
D13*
%TO.C,R7*%
X147030000Y-70247500D03*
X147030000Y-72072500D03*
%TD*%
D21*
%TO.C,C13*%
X153840000Y-92770000D03*
X153840000Y-94670000D03*
%TD*%
D22*
%TO.C,D1*%
X194817500Y-87270000D03*
X192942500Y-87270000D03*
%TD*%
D23*
%TO.C,U1*%
X142550000Y-82810000D03*
X142550000Y-83310000D03*
X142550000Y-83810000D03*
X142550000Y-84310000D03*
X142550000Y-84810000D03*
X142550000Y-85310000D03*
X142550000Y-85810000D03*
X142550000Y-86310000D03*
X142550000Y-86810000D03*
X142550000Y-87310000D03*
X142550000Y-87810000D03*
X142550000Y-88310000D03*
X142550000Y-88810000D03*
X142550000Y-89310000D03*
X142550000Y-89810000D03*
X142550000Y-90310000D03*
D24*
X144475000Y-92235000D03*
X144975000Y-92235000D03*
X145475000Y-92235000D03*
X145975000Y-92235000D03*
X146475000Y-92235000D03*
X146975000Y-92235000D03*
X147475000Y-92235000D03*
X147975000Y-92235000D03*
X148475000Y-92235000D03*
X148975000Y-92235000D03*
X149475000Y-92235000D03*
X149975000Y-92235000D03*
X150475000Y-92235000D03*
X150975000Y-92235000D03*
X151475000Y-92235000D03*
X151975000Y-92235000D03*
D23*
X153900000Y-90310000D03*
X153900000Y-89810000D03*
X153900000Y-89310000D03*
X153900000Y-88810000D03*
X153900000Y-88310000D03*
X153900000Y-87810000D03*
X153900000Y-87310000D03*
X153900000Y-86810000D03*
X153900000Y-86310000D03*
X153900000Y-85810000D03*
X153900000Y-85310000D03*
X153900000Y-84810000D03*
X153900000Y-84310000D03*
X153900000Y-83810000D03*
X153900000Y-83310000D03*
X153900000Y-82810000D03*
D24*
X151975000Y-80885000D03*
X151475000Y-80885000D03*
X150975000Y-80885000D03*
X150475000Y-80885000D03*
X149975000Y-80885000D03*
X149475000Y-80885000D03*
X148975000Y-80885000D03*
X148475000Y-80885000D03*
X147975000Y-80885000D03*
X147475000Y-80885000D03*
X146975000Y-80885000D03*
X146475000Y-80885000D03*
X145975000Y-80885000D03*
X145475000Y-80885000D03*
X144975000Y-80885000D03*
X144475000Y-80885000D03*
%TD*%
D18*
%TO.C,R15*%
X141478000Y-99464500D03*
X141478000Y-97639500D03*
%TD*%
D25*
%TO.C,D13*%
X209690000Y-100392500D03*
X209690000Y-102267500D03*
%TD*%
D12*
%TO.C,C10*%
X136460000Y-90680000D03*
X136460000Y-88780000D03*
%TD*%
D26*
%TO.C,U4*%
X201770000Y-96462500D03*
D27*
X201695000Y-97000000D03*
D26*
X201770000Y-97537500D03*
X203470000Y-97537500D03*
D27*
X203545000Y-97000000D03*
D26*
X203470000Y-96462500D03*
%TD*%
D13*
%TO.C,R35*%
X129030000Y-69097500D03*
X129030000Y-70922500D03*
%TD*%
D28*
%TO.C,120R1*%
X134187500Y-90140000D03*
X132612500Y-90140000D03*
%TD*%
D12*
%TO.C,C4*%
X139350000Y-76540000D03*
X139350000Y-74640000D03*
%TD*%
D19*
%TO.C,R20*%
X121197500Y-89710000D03*
X123022500Y-89710000D03*
%TD*%
D29*
%TO.C,J6*%
X116620000Y-64650000D03*
X114620000Y-64650000D03*
X112620000Y-64650000D03*
X110620000Y-64650000D03*
X108620000Y-64650000D03*
X106620000Y-64650000D03*
X104620000Y-64650000D03*
X102620000Y-64650000D03*
D30*
X118970000Y-58900000D03*
X100270000Y-58900000D03*
%TD*%
D14*
%TO.C,C2*%
X207320000Y-69340000D03*
X209220000Y-69340000D03*
%TD*%
D19*
%TO.C,R19*%
X118147500Y-100720000D03*
X119972500Y-100720000D03*
%TD*%
D13*
%TO.C,R8*%
X144820000Y-70847500D03*
X144820000Y-72672500D03*
%TD*%
D18*
%TO.C,R41*%
X143510000Y-99464500D03*
X143510000Y-97639500D03*
%TD*%
D31*
%TO.C,U12*%
X194232500Y-80930000D03*
X194232500Y-81880000D03*
X194232500Y-82830000D03*
X196507500Y-82830000D03*
X196507500Y-80930000D03*
%TD*%
D25*
%TO.C,D12*%
X207530000Y-100410000D03*
X207530000Y-102285000D03*
%TD*%
D32*
%TO.C,SW10*%
X168075000Y-78460000D03*
X174805000Y-78460000D03*
%TD*%
D20*
%TO.C,D4*%
X121132500Y-86310000D03*
X123007500Y-86310000D03*
%TD*%
D12*
%TO.C,C18*%
X177550000Y-70200000D03*
X177550000Y-68300000D03*
%TD*%
D18*
%TO.C,R22*%
X209710000Y-105882500D03*
X209710000Y-104057500D03*
%TD*%
D14*
%TO.C,C12*%
X154440000Y-81240000D03*
X156340000Y-81240000D03*
%TD*%
D12*
%TO.C,C3*%
X189680000Y-88600000D03*
X189680000Y-86700000D03*
%TD*%
D29*
%TO.C,J11*%
X155720000Y-64690000D03*
X153720000Y-64690000D03*
X151720000Y-64690000D03*
X149720000Y-64690000D03*
X147720000Y-64690000D03*
X145720000Y-64690000D03*
D30*
X143370000Y-58940000D03*
X158070000Y-58940000D03*
%TD*%
D29*
%TO.C,J4*%
X207500000Y-64610000D03*
X205500000Y-64610000D03*
X203500000Y-64610000D03*
X201500000Y-64610000D03*
X199500000Y-64610000D03*
X197500000Y-64610000D03*
X195500000Y-64610000D03*
X193500000Y-64610000D03*
D30*
X209850000Y-58860000D03*
X191150000Y-58860000D03*
%TD*%
D33*
%TO.C,C8*%
X134400000Y-86200000D03*
X132500000Y-86200000D03*
%TD*%
D32*
%TO.C,SW6*%
X168105000Y-88270000D03*
X174835000Y-88270000D03*
%TD*%
D12*
%TO.C,C11*%
X141855000Y-81430000D03*
X141855000Y-79530000D03*
%TD*%
D18*
%TO.C,R21*%
X105440000Y-72982500D03*
X105440000Y-71157500D03*
%TD*%
D12*
%TO.C,C6*%
X187590000Y-88620000D03*
X187590000Y-86720000D03*
%TD*%
D10*
%TO.C,J2*%
X181450000Y-63220000D03*
X180450000Y-63220000D03*
X179450000Y-63220000D03*
X178450000Y-63220000D03*
X177450000Y-63220000D03*
X176450000Y-63220000D03*
D11*
X182650000Y-60270000D03*
X175250000Y-60270000D03*
%TD*%
D12*
%TO.C,C24*%
X165608000Y-84450000D03*
X165608000Y-82550000D03*
%TD*%
D10*
%TO.C,J5*%
X172460000Y-63240000D03*
X171460000Y-63240000D03*
X170460000Y-63240000D03*
X169460000Y-63240000D03*
D11*
X173660000Y-60290000D03*
X168260000Y-60290000D03*
%TD*%
D12*
%TO.C,C23*%
X205210000Y-105960000D03*
X205210000Y-104060000D03*
%TD*%
D29*
%TO.C,J10*%
X138520000Y-64610000D03*
X136520000Y-64610000D03*
X134520000Y-64610000D03*
X132520000Y-64610000D03*
X130520000Y-64610000D03*
X128520000Y-64610000D03*
X126520000Y-64610000D03*
X124520000Y-64610000D03*
D30*
X140870000Y-58860000D03*
X122170000Y-58860000D03*
%TD*%
D17*
%TO.C,R32*%
X122502500Y-93670000D03*
X120677500Y-93670000D03*
%TD*%
D18*
%TO.C,R6*%
X105300000Y-76552500D03*
X105300000Y-74727500D03*
%TD*%
D17*
%TO.C,R25*%
X132042500Y-81890000D03*
X130217500Y-81890000D03*
%TD*%
D34*
%TO.C,U8*%
X134119200Y-94220000D03*
X134119200Y-95490000D03*
X134119200Y-96760000D03*
X134119200Y-98030000D03*
X134119200Y-99300000D03*
X134119200Y-100570000D03*
X134119200Y-101840000D03*
X139300800Y-101840000D03*
X139300800Y-100570000D03*
X139300800Y-99300000D03*
X139300800Y-98030000D03*
X139300800Y-96760000D03*
X139300800Y-95490000D03*
X139300800Y-94220000D03*
%TD*%
D19*
%TO.C,R31*%
X189417500Y-76600000D03*
X191242500Y-76600000D03*
%TD*%
D17*
%TO.C,R36*%
X192192500Y-80580000D03*
X190367500Y-80580000D03*
%TD*%
D19*
%TO.C,R12*%
X197467500Y-90840000D03*
X199292500Y-90840000D03*
%TD*%
%TO.C,R18*%
X114707500Y-100760000D03*
X116532500Y-100760000D03*
%TD*%
%TO.C,R29*%
X189337500Y-74560000D03*
X191162500Y-74560000D03*
%TD*%
D35*
%TO.C,C22*%
X158005000Y-83330000D03*
X156455000Y-83330000D03*
%TD*%
D20*
%TO.C,D6*%
X118192500Y-102810000D03*
X120067500Y-102810000D03*
%TD*%
D36*
%TO.C,CR1*%
X163854000Y-73205000D03*
X163854000Y-71935000D03*
X163854000Y-70665000D03*
X163854000Y-69395000D03*
X158266000Y-69395000D03*
X158266000Y-70665000D03*
X158266000Y-71935000D03*
X158266000Y-73205000D03*
%TD*%
D13*
%TO.C,R30*%
X135970000Y-69647500D03*
X135970000Y-71472500D03*
%TD*%
D37*
%TO.C,U14*%
X186342500Y-77520000D03*
X186342500Y-77020000D03*
X186342500Y-76520000D03*
X186342500Y-76020000D03*
X186342500Y-75520000D03*
X186342500Y-75020000D03*
X186342500Y-74520000D03*
X186342500Y-74020000D03*
D38*
X185617500Y-73295000D03*
X185117500Y-73295000D03*
X184617500Y-73295000D03*
X184117500Y-73295000D03*
X183617500Y-73295000D03*
X183117500Y-73295000D03*
X182617500Y-73295000D03*
X182117500Y-73295000D03*
D37*
X181392500Y-74020000D03*
X181392500Y-74520000D03*
X181392500Y-75020000D03*
X181392500Y-75520000D03*
X181392500Y-76020000D03*
X181392500Y-76520000D03*
X181392500Y-77020000D03*
X181392500Y-77520000D03*
D38*
X182117500Y-78245000D03*
X182617500Y-78245000D03*
X183117500Y-78245000D03*
X183617500Y-78245000D03*
X184117500Y-78245000D03*
X184617500Y-78245000D03*
X185117500Y-78245000D03*
X185617500Y-78245000D03*
D39*
X183867500Y-75770000D03*
%TD*%
D25*
%TO.C,D11*%
X190590000Y-82372500D03*
X190590000Y-84247500D03*
%TD*%
D19*
%TO.C,R28*%
X189347500Y-72560000D03*
X191172500Y-72560000D03*
%TD*%
D21*
%TO.C,C16*%
X185590000Y-83090000D03*
X185590000Y-84990000D03*
%TD*%
D40*
%TO.C,J8*%
X183970000Y-108040000D03*
X185970000Y-108040000D03*
X187970000Y-108040000D03*
X189970000Y-108040000D03*
D41*
X192320000Y-113790000D03*
X181620000Y-113790000D03*
%TD*%
D19*
%TO.C,R39*%
X199827500Y-99860000D03*
X201652500Y-99860000D03*
%TD*%
D12*
%TO.C,C1*%
X188520000Y-84260000D03*
X188520000Y-82360000D03*
%TD*%
D13*
%TO.C,R5*%
X183000000Y-90027500D03*
X183000000Y-91852500D03*
%TD*%
D33*
%TO.C,C19*%
X201570000Y-104910000D03*
X199670000Y-104910000D03*
%TD*%
D19*
%TO.C,R1*%
X192997500Y-89330000D03*
X194822500Y-89330000D03*
%TD*%
D21*
%TO.C,C14*%
X141765000Y-91690000D03*
X141765000Y-93590000D03*
%TD*%
D33*
%TO.C,C9*%
X134350000Y-88240000D03*
X132450000Y-88240000D03*
%TD*%
D42*
%TO.C,U3*%
X128120000Y-94930000D03*
X128120000Y-95580000D03*
X128120000Y-96230000D03*
X130020000Y-96230000D03*
X130020000Y-94930000D03*
%TD*%
D12*
%TO.C,C25*%
X165608000Y-88580000D03*
X165608000Y-86680000D03*
%TD*%
D20*
%TO.C,D3*%
X111232500Y-102820000D03*
X113107500Y-102820000D03*
%TD*%
D43*
%TO.C,X1*%
X135130000Y-76410000D03*
X135130000Y-78950000D03*
X137330000Y-78950000D03*
X137330000Y-76410000D03*
%TD*%
D21*
%TO.C,C20*%
X199400000Y-79150000D03*
X199400000Y-81050000D03*
%TD*%
D44*
%TO.C,J9*%
X204490000Y-89460000D03*
X204490000Y-83680000D03*
D45*
X203045000Y-89820000D03*
X203045000Y-89020000D03*
D46*
X203045000Y-87820000D03*
X203045000Y-86820000D03*
X203045000Y-86320000D03*
X203045000Y-85320000D03*
D45*
X203045000Y-84120000D03*
X203045000Y-83320000D03*
X203045000Y-83320000D03*
X203045000Y-84120000D03*
D46*
X203045000Y-84820000D03*
X203045000Y-85820000D03*
X203045000Y-87320000D03*
X203045000Y-88320000D03*
D45*
X203045000Y-89020000D03*
X203045000Y-89820000D03*
D47*
X208140000Y-90890000D03*
D48*
X203960000Y-82250000D03*
D47*
X208140000Y-82250000D03*
D48*
X203960000Y-90890000D03*
%TD*%
D49*
%TO.C,U16*%
X116255000Y-70610000D03*
X114985000Y-70610000D03*
X113715000Y-70610000D03*
X112445000Y-70610000D03*
X111175000Y-70610000D03*
X109905000Y-70610000D03*
X108635000Y-70610000D03*
X107365000Y-70610000D03*
X107365000Y-76210000D03*
X108635000Y-76210000D03*
X109905000Y-76210000D03*
X111175000Y-76210000D03*
X112445000Y-76210000D03*
X113715000Y-76210000D03*
X114985000Y-76210000D03*
X116255000Y-76210000D03*
%TD*%
D19*
%TO.C,R11*%
X198097500Y-84580000D03*
X199922500Y-84580000D03*
%TD*%
D21*
%TO.C,C5*%
X209730000Y-94830000D03*
X209730000Y-96730000D03*
%TD*%
D17*
%TO.C,R23*%
X132010000Y-77880000D03*
X130185000Y-77880000D03*
%TD*%
D19*
%TO.C,R27*%
X189307500Y-70550000D03*
X191132500Y-70550000D03*
%TD*%
D50*
%TO.C,C21*%
X151620000Y-97025000D03*
X151620000Y-95475000D03*
%TD*%
D51*
%TO.C,D2*%
X207450000Y-93550000D03*
X205350000Y-93550000D03*
%TD*%
D19*
%TO.C,R17*%
X111237500Y-100790000D03*
X113062500Y-100790000D03*
%TD*%
D51*
%TO.C,D10*%
X207250000Y-79340000D03*
X205150000Y-79340000D03*
%TD*%
D19*
%TO.C,R3*%
X128187500Y-92990000D03*
X130012500Y-92990000D03*
%TD*%
D20*
%TO.C,D8*%
X125412500Y-79880000D03*
X127287500Y-79880000D03*
%TD*%
%TO.C,D9*%
X125422500Y-81870000D03*
X127297500Y-81870000D03*
%TD*%
D13*
%TO.C,R10*%
X138280000Y-69627500D03*
X138280000Y-71452500D03*
%TD*%
D42*
%TO.C,U9*%
X128070000Y-89720000D03*
X128070000Y-90370000D03*
X128070000Y-91020000D03*
X129970000Y-91020000D03*
X129970000Y-89720000D03*
%TD*%
D19*
%TO.C,R26*%
X135257500Y-81630000D03*
X137082500Y-81630000D03*
%TD*%
D40*
%TO.C,J1*%
X197690000Y-108170000D03*
X199690000Y-108170000D03*
D41*
X202040000Y-113920000D03*
X195340000Y-113920000D03*
%TD*%
D52*
%TO.C,U2*%
X208830000Y-76450000D03*
X208830000Y-74150000D03*
D53*
X202530000Y-74150000D03*
D52*
X208830000Y-71850000D03*
%TD*%
D54*
%TO.C,U15*%
X209655000Y-115360000D03*
X209655000Y-114090000D03*
X209655000Y-112820000D03*
X209655000Y-111550000D03*
X209655000Y-110280000D03*
X209655000Y-109010000D03*
X209655000Y-107740000D03*
X204705000Y-107740000D03*
X204705000Y-109010000D03*
X204705000Y-110280000D03*
X204705000Y-111550000D03*
X204705000Y-112820000D03*
X204705000Y-114090000D03*
X204705000Y-115360000D03*
%TD*%
D32*
%TO.C,SW3*%
X174845000Y-83370000D03*
X168115000Y-83370000D03*
%TD*%
D19*
%TO.C,R4*%
X128177500Y-87880000D03*
X130002500Y-87880000D03*
%TD*%
D55*
%TO.C,U10*%
X189165000Y-98385000D03*
X190435000Y-98385000D03*
X191705000Y-98385000D03*
X192975000Y-98385000D03*
X194245000Y-98385000D03*
X195515000Y-98385000D03*
X196785000Y-98385000D03*
X198055000Y-98385000D03*
X198055000Y-93435000D03*
X196785000Y-93435000D03*
X195515000Y-93435000D03*
X194245000Y-93435000D03*
X192975000Y-93435000D03*
X191705000Y-93435000D03*
X190435000Y-93435000D03*
X189165000Y-93435000D03*
%TD*%
D32*
%TO.C,SW9*%
X168075000Y-73580000D03*
X174805000Y-73580000D03*
%TD*%
D13*
%TO.C,R34*%
X131410000Y-69387500D03*
X131410000Y-71212500D03*
%TD*%
D56*
%TO.C,U11*%
X101005000Y-78960000D03*
X102275000Y-78960000D03*
X103545000Y-78960000D03*
X104815000Y-78960000D03*
X106085000Y-78960000D03*
X107355000Y-78960000D03*
X108625000Y-78960000D03*
X109895000Y-78960000D03*
X111165000Y-78960000D03*
X112435000Y-78960000D03*
X113705000Y-78960000D03*
X114975000Y-78960000D03*
X116245000Y-78960000D03*
X117515000Y-78960000D03*
D57*
X118765000Y-80725000D03*
X118765000Y-81995000D03*
X118765000Y-83265000D03*
X118765000Y-84535000D03*
X118765000Y-85805000D03*
X118765000Y-87075000D03*
X118765000Y-88345000D03*
X118765000Y-89615000D03*
X118765000Y-90885000D03*
X118765000Y-92155000D03*
X118765000Y-93425000D03*
X118765000Y-94695000D03*
D56*
X117515000Y-96460000D03*
X116245000Y-96460000D03*
X114975000Y-96460000D03*
X113705000Y-96460000D03*
X112435000Y-96460000D03*
X111165000Y-96460000D03*
X109895000Y-96460000D03*
X108625000Y-96460000D03*
X107355000Y-96460000D03*
X106085000Y-96460000D03*
X104815000Y-96460000D03*
X103545000Y-96460000D03*
X102275000Y-96460000D03*
X101005000Y-96460000D03*
%TD*%
D58*
%TO.C,SW5*%
X179530000Y-84255000D03*
X179530000Y-90985000D03*
%TD*%
D20*
%TO.C,D5*%
X114702500Y-102820000D03*
X116577500Y-102820000D03*
%TD*%
D59*
X118770000Y-68210000D03*
X169910000Y-106980000D03*
X149680000Y-106349500D03*
X150538093Y-107257027D03*
X170960498Y-107439963D03*
X145170000Y-95700000D03*
X143570000Y-95110000D03*
X171960000Y-107440500D03*
X171950000Y-109639500D03*
X164850000Y-109639500D03*
X180000000Y-65840500D03*
X182880000Y-65560500D03*
X182620000Y-106900000D03*
X163790000Y-101300000D03*
X162700000Y-101320500D03*
X116400000Y-69310000D03*
X109232701Y-69459500D03*
X117960000Y-61730000D03*
X114730000Y-61810000D03*
X116870000Y-57150000D03*
X113620000Y-66870000D03*
X100825500Y-67820000D03*
X103440000Y-68890000D03*
X101336607Y-71001774D03*
X186080000Y-81940000D03*
X193650000Y-68389500D03*
X177169274Y-71580161D03*
X137170308Y-84769692D03*
X181410000Y-79850000D03*
X135715378Y-86424622D03*
X178682215Y-72717835D03*
X206989500Y-74250000D03*
X139370000Y-77750000D03*
X193294000Y-104394000D03*
X188295643Y-75885713D03*
X202530000Y-74150000D03*
X138340000Y-89900000D03*
X163400000Y-93610000D03*
X198370000Y-95640000D03*
X173220000Y-68210000D03*
X146850000Y-68210000D03*
X144910000Y-68210000D03*
X152866945Y-91919406D03*
X169410000Y-68210000D03*
X193540000Y-111740000D03*
X103390878Y-98489622D03*
X198370000Y-87910000D03*
X171290000Y-99140000D03*
X191962000Y-102170000D03*
X138570000Y-66329500D03*
X187787750Y-74847750D03*
X152110000Y-89080000D03*
X143080000Y-74030000D03*
X151574349Y-102020500D03*
X166710000Y-89120500D03*
X171406188Y-97669500D03*
X131420000Y-90170000D03*
X158120000Y-102020500D03*
X139340000Y-92800000D03*
X187720000Y-85560000D03*
X130910000Y-102170000D03*
X172000000Y-102170000D03*
X159700936Y-73170936D03*
X184560000Y-90910000D03*
X130000000Y-86410000D03*
X190190500Y-85800000D03*
X202250000Y-90350000D03*
X144495000Y-89225000D03*
X128040000Y-97028000D03*
X199270000Y-101290000D03*
X202940000Y-110280000D03*
X152740500Y-96954597D03*
X191690000Y-110520000D03*
X125422500Y-81870000D03*
X141260000Y-74650000D03*
X189971188Y-109981188D03*
X199660000Y-86500000D03*
X200902000Y-96838000D03*
X123830500Y-92981749D03*
X162910000Y-78170500D03*
X191700000Y-89330000D03*
X200310500Y-82190000D03*
X144970000Y-77810000D03*
X138113500Y-96740854D03*
X122480000Y-84740000D03*
X174805000Y-75105000D03*
X118192500Y-104412500D03*
X122428000Y-97879500D03*
X177191985Y-74021778D03*
X144700000Y-90630000D03*
X123320000Y-95570000D03*
X186315583Y-72195583D03*
X199390000Y-92910000D03*
X133390000Y-76690000D03*
X208880000Y-78030000D03*
X204705000Y-107740000D03*
X201060000Y-102130000D03*
X209655000Y-109010000D03*
X209655000Y-107740000D03*
X137940378Y-88649622D03*
X121510000Y-103020000D03*
X176280000Y-86805000D03*
X159580000Y-62999500D03*
X198481583Y-103569500D03*
X202750000Y-80650000D03*
X137880000Y-74130000D03*
X151892000Y-104394000D03*
X180340000Y-71520000D03*
X153814735Y-95884735D03*
X158170000Y-81510000D03*
X163630000Y-61200500D03*
X200940000Y-93590000D03*
X197467500Y-90840000D03*
X151779163Y-105793500D03*
X208000000Y-111280000D03*
X125422500Y-77890000D03*
X182660000Y-67360500D03*
X209180000Y-80510000D03*
X175090000Y-93690000D03*
X143250000Y-93540000D03*
X104310000Y-104499500D03*
X177900000Y-67310000D03*
X102290000Y-98480000D03*
X141920000Y-77710000D03*
X201380000Y-69329500D03*
X202480000Y-66950000D03*
X197420000Y-101040000D03*
X192410000Y-82890000D03*
X153591273Y-71537170D03*
X147040000Y-84740000D03*
X147050000Y-73040500D03*
X152150000Y-75069500D03*
X153510000Y-75069500D03*
X147674500Y-82620000D03*
X154700000Y-71540000D03*
X144860000Y-73800000D03*
X202150000Y-95330000D03*
X201410000Y-85810000D03*
X200300000Y-92330000D03*
X200947464Y-87176839D03*
X145849043Y-107771711D03*
X121840000Y-62848500D03*
X120860000Y-62400000D03*
X146890497Y-107719500D03*
X140460000Y-72650000D03*
X124170000Y-80200000D03*
X127310000Y-99990000D03*
X156350000Y-100520000D03*
X123067465Y-82082535D03*
X132770915Y-74317132D03*
X131620000Y-74069500D03*
X122196414Y-81592355D03*
X138290000Y-72540500D03*
X126000000Y-99920000D03*
X123175266Y-80102502D03*
X156950000Y-101320500D03*
X174823097Y-92166903D03*
X157810000Y-64920000D03*
X157800000Y-66329500D03*
X171160000Y-66870000D03*
X126100000Y-62390000D03*
X112240000Y-77430000D03*
X170650000Y-87420000D03*
X126020162Y-67240000D03*
X119230000Y-79240000D03*
X103170500Y-84080628D03*
X108965628Y-81304500D03*
X195220000Y-108030000D03*
X174700000Y-66329500D03*
X117104483Y-70311384D03*
X171284910Y-86502481D03*
X125180000Y-67890000D03*
X174090000Y-92940000D03*
X123749550Y-62190000D03*
X158890000Y-66329500D03*
X158820000Y-64890000D03*
X107932375Y-81547625D03*
X120420000Y-79260000D03*
X103170500Y-83030000D03*
X195250000Y-109110000D03*
X161919500Y-88138000D03*
X165579315Y-81471500D03*
X162838500Y-82550000D03*
X159004000Y-87630000D03*
X142480000Y-96639500D03*
X130350000Y-103799500D03*
X138176000Y-102669500D03*
X106350000Y-103019500D03*
X145660000Y-86320000D03*
X104755000Y-101320500D03*
X145350500Y-93980000D03*
X106350000Y-101290000D03*
X106060000Y-94980000D03*
X111252000Y-99332000D03*
X107330000Y-94860000D03*
X114740000Y-99360000D03*
X108580000Y-94890000D03*
X118147500Y-99217500D03*
X190980000Y-96470000D03*
X207920000Y-112450000D03*
X207390000Y-108280000D03*
X203770688Y-106700688D03*
X192530000Y-101110000D03*
X196555628Y-109274872D03*
X132025000Y-79870000D03*
X143924500Y-86871585D03*
X154706143Y-77349758D03*
X133337535Y-78192465D03*
X166250000Y-73979500D03*
X137250000Y-80630000D03*
X169900000Y-77060000D03*
X188135147Y-73864261D03*
X156902566Y-78441000D03*
X189933946Y-69519500D03*
X188569500Y-72059500D03*
X193749500Y-72560000D03*
X191376716Y-67243284D03*
X142291793Y-106030000D03*
X188120000Y-69260500D03*
X155695174Y-77205457D03*
X192360500Y-75510000D03*
X155914929Y-78180500D03*
X124530000Y-95560000D03*
X123080000Y-103100000D03*
X202440000Y-101160000D03*
X127076382Y-84003618D03*
X168710000Y-74830000D03*
X160292310Y-89452253D03*
X167100000Y-77220000D03*
X159835839Y-84040404D03*
X161990000Y-104369500D03*
X152891503Y-104394000D03*
X113650000Y-94980000D03*
X129339007Y-97279007D03*
X126924122Y-91315122D03*
X112400000Y-94990000D03*
X99426000Y-69050000D03*
X143016293Y-106925500D03*
X99420500Y-71490000D03*
X143741209Y-107677719D03*
X144824445Y-107771711D03*
X99426000Y-67600000D03*
X98576000Y-65720000D03*
X147890000Y-107719500D03*
X166320000Y-104369500D03*
X166397000Y-98020000D03*
X169310000Y-99770000D03*
X146120000Y-104769500D03*
X181890000Y-110170000D03*
X183050000Y-111773000D03*
X149550000Y-98430000D03*
X166190000Y-78975934D03*
X150480000Y-98020000D03*
X165270000Y-78540000D03*
X168979000Y-101261000D03*
X159190000Y-98920000D03*
X167060000Y-98820000D03*
X157999521Y-98087132D03*
X176345000Y-96035000D03*
X157618395Y-96888698D03*
X174780000Y-97370000D03*
X158574396Y-97269500D03*
X172589503Y-88583500D03*
X159950000Y-94620000D03*
X160482923Y-93708674D03*
X171590000Y-88583500D03*
X159320520Y-85119623D03*
X158417279Y-84691651D03*
X157620000Y-79140500D03*
X103840000Y-74300000D03*
X184570000Y-95980000D03*
X174310000Y-99310000D03*
X174521188Y-100458812D03*
X185541515Y-95745128D03*
X166860000Y-94230000D03*
X169030000Y-94960000D03*
X171430000Y-95320000D03*
X161707914Y-81342843D03*
X166245582Y-96023217D03*
X186396419Y-95016419D03*
X187510000Y-94990000D03*
X168200000Y-97669500D03*
X143516696Y-96519500D03*
X158325500Y-86711123D03*
X173432493Y-89120500D03*
X165360000Y-85549500D03*
X161988500Y-85090000D03*
X120469500Y-83170000D03*
X118720000Y-83225000D03*
X178541386Y-77288614D03*
X177000500Y-75778614D03*
X181870000Y-78330000D03*
X179424850Y-72048883D03*
X197560000Y-67989500D03*
X196739500Y-88070000D03*
X196339500Y-87030000D03*
X196410000Y-68080000D03*
X195200000Y-68310000D03*
X195610000Y-85810000D03*
X126800000Y-93010000D03*
X116042535Y-95037465D03*
X128070000Y-86460000D03*
X128135027Y-83010912D03*
X131908233Y-94243142D03*
X131150000Y-91150000D03*
X207820000Y-114660500D03*
X103170500Y-85130000D03*
X109140000Y-74830000D03*
X188940000Y-114790000D03*
X198740000Y-113220000D03*
X109965131Y-80904500D03*
X116260000Y-80390000D03*
X120000000Y-67310000D03*
X121859500Y-66450000D03*
X118400000Y-76240000D03*
X119854653Y-66321122D03*
X121859500Y-65450497D03*
X114940000Y-80370000D03*
X118050500Y-74645976D03*
X106820000Y-74900000D03*
X104914622Y-80285378D03*
X153670000Y-60198000D03*
X153670000Y-62992000D03*
X151720000Y-62949500D03*
X154686000Y-59182000D03*
X202950000Y-108900000D03*
X197230000Y-103740000D03*
X169150000Y-80380000D03*
X193100000Y-94940500D03*
X196040000Y-100670000D03*
X177749500Y-80349500D03*
X195890000Y-104050000D03*
X178883221Y-81349000D03*
X191900500Y-94940500D03*
X137064927Y-102269500D03*
X194680000Y-100380000D03*
X170027459Y-81099500D03*
X136144000Y-103632000D03*
X202900000Y-111460000D03*
X137414000Y-95758000D03*
X116586000Y-82804000D03*
X117856000Y-69059500D03*
X156859574Y-65948767D03*
X135890000Y-97282000D03*
X117856000Y-67310000D03*
X119952016Y-65234516D03*
X132268800Y-97028000D03*
X104790378Y-98659622D03*
X144839500Y-66720369D03*
X118425128Y-64735628D03*
X101990500Y-99720000D03*
X210530000Y-67470000D03*
M02*
