%TF.GenerationSoftware,KiCad,Pcbnew,(6.0.11)*%
%TF.CreationDate,2023-04-06T14:42:31-07:00*%
%TF.ProjectId,EV5 Board Design,45563520-426f-4617-9264-204465736967,rev?*%
%TF.SameCoordinates,Original*%
%TF.FileFunction,Copper,L1,Top*%
%TF.FilePolarity,Positive*%
%FSLAX46Y46*%
G04 Gerber Fmt 4.6, Leading zero omitted, Abs format (unit mm)*
G04 Created by KiCad (PCBNEW (6.0.11)) date 2023-04-06 14:42:31*
%MOMM*%
%LPD*%
G01*
G04 APERTURE LIST*
G04 Aperture macros list*
%AMRoundRect*
0 Rectangle with rounded corners*
0 $1 Rounding radius*
0 $2 $3 $4 $5 $6 $7 $8 $9 X,Y pos of 4 corners*
0 Add a 4 corners polygon primitive as box body*
4,1,4,$2,$3,$4,$5,$6,$7,$8,$9,$2,$3,0*
0 Add four circle primitives for the rounded corners*
1,1,$1+$1,$2,$3*
1,1,$1+$1,$4,$5*
1,1,$1+$1,$6,$7*
1,1,$1+$1,$8,$9*
0 Add four rect primitives between the rounded corners*
20,1,$1+$1,$2,$3,$4,$5,0*
20,1,$1+$1,$4,$5,$6,$7,0*
20,1,$1+$1,$6,$7,$8,$9,0*
20,1,$1+$1,$8,$9,$2,$3,0*%
G04 Aperture macros list end*
%TA.AperFunction,SMDPad,CuDef*%
%ADD10R,0.500000X1.200000*%
%TD*%
%TA.AperFunction,SMDPad,CuDef*%
%ADD11R,0.800000X1.500000*%
%TD*%
%TA.AperFunction,SMDPad,CuDef*%
%ADD12RoundRect,0.250000X0.475000X-0.250000X0.475000X0.250000X-0.475000X0.250000X-0.475000X-0.250000X0*%
%TD*%
%TA.AperFunction,SMDPad,CuDef*%
%ADD13RoundRect,0.250000X-0.450000X0.262500X-0.450000X-0.262500X0.450000X-0.262500X0.450000X0.262500X0*%
%TD*%
%TA.AperFunction,SMDPad,CuDef*%
%ADD14RoundRect,0.250000X-0.250000X-0.475000X0.250000X-0.475000X0.250000X0.475000X-0.250000X0.475000X0*%
%TD*%
%TA.AperFunction,SMDPad,CuDef*%
%ADD15R,0.400000X0.200000*%
%TD*%
%TA.AperFunction,SMDPad,CuDef*%
%ADD16R,0.400000X0.410000*%
%TD*%
%TA.AperFunction,SMDPad,CuDef*%
%ADD17RoundRect,0.250000X0.262500X0.450000X-0.262500X0.450000X-0.262500X-0.450000X0.262500X-0.450000X0*%
%TD*%
%TA.AperFunction,SMDPad,CuDef*%
%ADD18RoundRect,0.250000X0.450000X-0.262500X0.450000X0.262500X-0.450000X0.262500X-0.450000X-0.262500X0*%
%TD*%
%TA.AperFunction,SMDPad,CuDef*%
%ADD19RoundRect,0.250000X-0.262500X-0.450000X0.262500X-0.450000X0.262500X0.450000X-0.262500X0.450000X0*%
%TD*%
%TA.AperFunction,SMDPad,CuDef*%
%ADD20RoundRect,0.243750X-0.243750X-0.456250X0.243750X-0.456250X0.243750X0.456250X-0.243750X0.456250X0*%
%TD*%
%TA.AperFunction,SMDPad,CuDef*%
%ADD21RoundRect,0.250000X-0.475000X0.250000X-0.475000X-0.250000X0.475000X-0.250000X0.475000X0.250000X0*%
%TD*%
%TA.AperFunction,SMDPad,CuDef*%
%ADD22RoundRect,0.243750X0.243750X0.456250X-0.243750X0.456250X-0.243750X-0.456250X0.243750X-0.456250X0*%
%TD*%
%TA.AperFunction,SMDPad,CuDef*%
%ADD23RoundRect,0.075000X-0.700000X-0.075000X0.700000X-0.075000X0.700000X0.075000X-0.700000X0.075000X0*%
%TD*%
%TA.AperFunction,SMDPad,CuDef*%
%ADD24RoundRect,0.075000X-0.075000X-0.700000X0.075000X-0.700000X0.075000X0.700000X-0.075000X0.700000X0*%
%TD*%
%TA.AperFunction,SMDPad,CuDef*%
%ADD25RoundRect,0.243750X-0.456250X0.243750X-0.456250X-0.243750X0.456250X-0.243750X0.456250X0.243750X0*%
%TD*%
%TA.AperFunction,SMDPad,CuDef*%
%ADD26R,0.500000X0.375000*%
%TD*%
%TA.AperFunction,SMDPad,CuDef*%
%ADD27R,0.650000X0.300000*%
%TD*%
%TA.AperFunction,SMDPad,CuDef*%
%ADD28RoundRect,0.218750X0.218750X0.256250X-0.218750X0.256250X-0.218750X-0.256250X0.218750X-0.256250X0*%
%TD*%
%TA.AperFunction,SMDPad,CuDef*%
%ADD29RoundRect,0.250000X0.250000X1.500000X-0.250000X1.500000X-0.250000X-1.500000X0.250000X-1.500000X0*%
%TD*%
%TA.AperFunction,SMDPad,CuDef*%
%ADD30RoundRect,0.250001X0.499999X1.449999X-0.499999X1.449999X-0.499999X-1.449999X0.499999X-1.449999X0*%
%TD*%
%TA.AperFunction,SMDPad,CuDef*%
%ADD31RoundRect,0.150000X-0.512500X-0.150000X0.512500X-0.150000X0.512500X0.150000X-0.512500X0.150000X0*%
%TD*%
%TA.AperFunction,SMDPad,CuDef*%
%ADD32R,2.160000X1.120000*%
%TD*%
%TA.AperFunction,SMDPad,CuDef*%
%ADD33RoundRect,0.250000X0.250000X0.475000X-0.250000X0.475000X-0.250000X-0.475000X0.250000X-0.475000X0*%
%TD*%
%TA.AperFunction,SMDPad,CuDef*%
%ADD34R,1.701800X0.533400*%
%TD*%
%TA.AperFunction,SMDPad,CuDef*%
%ADD35RoundRect,0.225000X0.225000X0.250000X-0.225000X0.250000X-0.225000X-0.250000X0.225000X-0.250000X0*%
%TD*%
%TA.AperFunction,SMDPad,CuDef*%
%ADD36R,1.422400X0.533400*%
%TD*%
%TA.AperFunction,SMDPad,CuDef*%
%ADD37RoundRect,0.007500X0.372500X0.117500X-0.372500X0.117500X-0.372500X-0.117500X0.372500X-0.117500X0*%
%TD*%
%TA.AperFunction,SMDPad,CuDef*%
%ADD38RoundRect,0.007500X-0.117500X0.372500X-0.117500X-0.372500X0.117500X-0.372500X0.117500X0.372500X0*%
%TD*%
%TA.AperFunction,SMDPad,CuDef*%
%ADD39R,3.650000X3.650000*%
%TD*%
%TA.AperFunction,SMDPad,CuDef*%
%ADD40RoundRect,0.250000X-0.250000X-1.500000X0.250000X-1.500000X0.250000X1.500000X-0.250000X1.500000X0*%
%TD*%
%TA.AperFunction,SMDPad,CuDef*%
%ADD41RoundRect,0.250001X-0.499999X-1.449999X0.499999X-1.449999X0.499999X1.449999X-0.499999X1.449999X0*%
%TD*%
%TA.AperFunction,SMDPad,CuDef*%
%ADD42R,0.650000X0.400000*%
%TD*%
%TA.AperFunction,SMDPad,CuDef*%
%ADD43R,1.500000X1.600000*%
%TD*%
%TA.AperFunction,SMDPad,CuDef*%
%ADD44R,1.450000X0.600000*%
%TD*%
%TA.AperFunction,SMDPad,CuDef*%
%ADD45R,1.450000X0.300000*%
%TD*%
%TA.AperFunction,ComponentPad*%
%ADD46O,1.600000X1.000000*%
%TD*%
%TA.AperFunction,ComponentPad*%
%ADD47O,2.100000X1.000000*%
%TD*%
%TA.AperFunction,SMDPad,CuDef*%
%ADD48R,0.600000X1.200000*%
%TD*%
%TA.AperFunction,SMDPad,CuDef*%
%ADD49RoundRect,0.225000X0.250000X-0.225000X0.250000X0.225000X-0.250000X0.225000X-0.250000X-0.225000X0*%
%TD*%
%TA.AperFunction,SMDPad,CuDef*%
%ADD50R,0.600000X0.450000*%
%TD*%
%TA.AperFunction,SMDPad,CuDef*%
%ADD51R,2.000000X1.500000*%
%TD*%
%TA.AperFunction,SMDPad,CuDef*%
%ADD52R,2.000000X3.800000*%
%TD*%
%TA.AperFunction,SMDPad,CuDef*%
%ADD53RoundRect,0.090000X0.895000X0.210000X-0.895000X0.210000X-0.895000X-0.210000X0.895000X-0.210000X0*%
%TD*%
%TA.AperFunction,SMDPad,CuDef*%
%ADD54RoundRect,0.150000X0.150000X-0.825000X0.150000X0.825000X-0.150000X0.825000X-0.150000X-0.825000X0*%
%TD*%
%TA.AperFunction,ComponentPad*%
%ADD55C,0.500000*%
%TD*%
%TA.AperFunction,SMDPad,CuDef*%
%ADD56R,3.900000X3.900000*%
%TD*%
%TA.AperFunction,SMDPad,CuDef*%
%ADD57R,0.900000X1.500000*%
%TD*%
%TA.AperFunction,SMDPad,CuDef*%
%ADD58R,1.500000X0.900000*%
%TD*%
%TA.AperFunction,SMDPad,CuDef*%
%ADD59R,1.120000X2.160000*%
%TD*%
%TA.AperFunction,ViaPad*%
%ADD60C,0.800000*%
%TD*%
%TA.AperFunction,Conductor*%
%ADD61C,0.200000*%
%TD*%
%TA.AperFunction,Conductor*%
%ADD62C,0.500000*%
%TD*%
%TA.AperFunction,Conductor*%
%ADD63C,0.127000*%
%TD*%
%TA.AperFunction,Conductor*%
%ADD64C,0.250000*%
%TD*%
G04 APERTURE END LIST*
D10*
%TO.P,J7,1,Pin_1*%
%TO.N,+3.3V*%
X173900000Y-110700000D03*
%TO.P,J7,2,Pin_2*%
%TO.N,/EEP_SCL*%
X174900000Y-110700000D03*
%TO.P,J7,3,Pin_3*%
%TO.N,/EEP_SDA*%
X175900000Y-110700000D03*
%TO.P,J7,4,Pin_4*%
%TO.N,GND*%
X176900000Y-110700000D03*
D11*
%TO.P,J7,5*%
%TO.N,N/C*%
X172700000Y-113650000D03*
%TO.P,J7,6*%
X178100000Y-113650000D03*
%TD*%
D12*
%TO.P,C17,1*%
%TO.N,+3.3VA*%
X175500000Y-70220000D03*
%TO.P,C17,2*%
%TO.N,GND*%
X175500000Y-68320000D03*
%TD*%
D13*
%TO.P,R9,1*%
%TO.N,Net-(J10-Pad2)*%
X140430000Y-69647500D03*
%TO.P,R9,2*%
%TO.N,/IO_PC8*%
X140430000Y-71472500D03*
%TD*%
D14*
%TO.P,C15,1*%
%TO.N,GND*%
X177970000Y-78960000D03*
%TO.P,C15,2*%
%TO.N,Net-(C15-Pad2)*%
X179870000Y-78960000D03*
%TD*%
D15*
%TO.P,U13,1*%
%TO.N,/BB_ROW_7*%
X172230000Y-98930000D03*
%TO.P,U13,2*%
%TO.N,+3.3V*%
X170350000Y-98930000D03*
%TO.P,U13,3*%
X172230000Y-98530000D03*
%TO.P,U13,4*%
%TO.N,/BB_MIC*%
X170350000Y-98530000D03*
%TO.P,U13,5*%
%TO.N,GND*%
X172230000Y-98127924D03*
%TO.P,U13,6*%
X170350000Y-98127924D03*
%TO.P,U13,7*%
%TO.N,+3.3V*%
X172230000Y-97730000D03*
%TO.P,U13,8*%
%TO.N,GND*%
X170350000Y-97730000D03*
%TO.P,U13,9*%
X172230000Y-97330000D03*
%TO.P,U13,10*%
%TO.N,/BB_ROW_1*%
X170350000Y-97330000D03*
%TO.P,U13,11*%
%TO.N,/BB_ROW_6*%
X172230000Y-96930000D03*
%TO.P,U13,12*%
%TO.N,/BB_COLS_1*%
X170350000Y-96930000D03*
%TO.P,U13,13*%
%TO.N,/BB_ROW_5*%
X172230000Y-96530000D03*
%TO.P,U13,14*%
%TO.N,/BB_ROW_2*%
X170350000Y-96530000D03*
%TO.P,U13,15*%
%TO.N,/BB_ROW_4*%
X172230000Y-96130000D03*
%TO.P,U13,16*%
%TO.N,/BB_COLS_2*%
X170350000Y-96130000D03*
%TO.P,U13,17*%
%TO.N,/BB_COLS_5*%
X172230000Y-95730000D03*
%TO.P,U13,18*%
%TO.N,/BB_COLS_3*%
X170350000Y-95730000D03*
%TO.P,U13,19*%
%TO.N,/BB_ROW_3*%
X172230000Y-95330000D03*
%TO.P,U13,20*%
%TO.N,GND*%
X170350000Y-95330000D03*
%TO.P,U13,21*%
%TO.N,/BB_COLS_4*%
X172230000Y-94930000D03*
%TO.P,U13,22*%
%TO.N,GND*%
X170350000Y-94930000D03*
%TO.P,U13,23*%
X172230000Y-94530000D03*
%TO.P,U13,24*%
X170350000Y-94530000D03*
D16*
%TO.P,U13,25*%
%TO.N,unconnected-(U13-Pad25)*%
X172230000Y-99435000D03*
%TO.P,U13,26*%
%TO.N,unconnected-(U13-Pad26)*%
X172230000Y-94025000D03*
%TO.P,U13,27*%
%TO.N,unconnected-(U13-Pad27)*%
X170350000Y-99435000D03*
%TO.P,U13,28*%
%TO.N,unconnected-(U13-Pad28)*%
X170350000Y-94025000D03*
%TD*%
D17*
%TO.P,R24,1*%
%TO.N,/PC0*%
X132025000Y-79870000D03*
%TO.P,R24,2*%
%TO.N,Net-(D8-Pad2)*%
X130200000Y-79870000D03*
%TD*%
D18*
%TO.P,R40,1*%
%TO.N,Net-(R40-Pad1)*%
X207540000Y-105892500D03*
%TO.P,R40,2*%
%TO.N,Net-(D12-Pad2)*%
X207540000Y-104067500D03*
%TD*%
D19*
%TO.P,R37,1*%
%TO.N,GND*%
X194577500Y-79000000D03*
%TO.P,R37,2*%
%TO.N,Net-(R37-Pad2)*%
X196402500Y-79000000D03*
%TD*%
%TO.P,R38,1*%
%TO.N,/BATT_CHG_PA0*%
X203367500Y-99830000D03*
%TO.P,R38,2*%
%TO.N,+BATT*%
X205192500Y-99830000D03*
%TD*%
D10*
%TO.P,J3,1,Pin_1*%
%TO.N,+3.3V*%
X165820000Y-110670000D03*
%TO.P,J3,2,Pin_2*%
%TO.N,/ESP_SDA*%
X166820000Y-110670000D03*
%TO.P,J3,3,Pin_3*%
%TO.N,/ESP_SCL*%
X167820000Y-110670000D03*
%TO.P,J3,4,Pin_4*%
%TO.N,GND*%
X168820000Y-110670000D03*
D11*
%TO.P,J3,5*%
%TO.N,N/C*%
X164620000Y-113620000D03*
%TO.P,J3,6*%
X170020000Y-113620000D03*
%TD*%
D20*
%TO.P,D7,1,K*%
%TO.N,GND*%
X125412500Y-77880000D03*
%TO.P,D7,2,A*%
%TO.N,Net-(D7-Pad2)*%
X127287500Y-77880000D03*
%TD*%
D13*
%TO.P,R33,1*%
%TO.N,Net-(J10-Pad5)*%
X133560000Y-69667500D03*
%TO.P,R33,2*%
%TO.N,/IO_PC5*%
X133560000Y-71492500D03*
%TD*%
D12*
%TO.P,C7,1*%
%TO.N,/MICBIAS*%
X188100000Y-80720000D03*
%TO.P,C7,2*%
%TO.N,Net-(C7-Pad2)*%
X188100000Y-78820000D03*
%TD*%
D13*
%TO.P,R7,1*%
%TO.N,+3.3V*%
X147030000Y-70247500D03*
%TO.P,R7,2*%
%TO.N,/EEP_SDA*%
X147030000Y-72072500D03*
%TD*%
D21*
%TO.P,C13,1*%
%TO.N,+3.3V*%
X153840000Y-92770000D03*
%TO.P,C13,2*%
%TO.N,GND*%
X153840000Y-94670000D03*
%TD*%
D22*
%TO.P,D1,1,K*%
%TO.N,Net-(D1-Pad1)*%
X194817500Y-87270000D03*
%TO.P,D1,2,A*%
%TO.N,+3.3V*%
X192942500Y-87270000D03*
%TD*%
D23*
%TO.P,U1,1,VBAT*%
%TO.N,unconnected-(U1-Pad1)*%
X142550000Y-82810000D03*
%TO.P,U1,2,PC13*%
%TO.N,unconnected-(U1-Pad2)*%
X142550000Y-83310000D03*
%TO.P,U1,3,PC14*%
%TO.N,/BB_COLS_3*%
X142550000Y-83810000D03*
%TO.P,U1,4,PC15*%
%TO.N,/BB_COLS_4*%
X142550000Y-84310000D03*
%TO.P,U1,5,PH0*%
%TO.N,/HSE_IN*%
X142550000Y-84810000D03*
%TO.P,U1,6,PH1*%
%TO.N,unconnected-(U1-Pad6)*%
X142550000Y-85310000D03*
%TO.P,U1,7,NRST*%
%TO.N,/EN_ESP*%
X142550000Y-85810000D03*
%TO.P,U1,8,PC0*%
%TO.N,/PC0*%
X142550000Y-86310000D03*
%TO.P,U1,9,PC1*%
%TO.N,/PC1*%
X142550000Y-86810000D03*
%TO.P,U1,10,PC2*%
%TO.N,/UART2_EN*%
X142550000Y-87310000D03*
%TO.P,U1,11,PC3*%
%TO.N,unconnected-(U1-Pad11)*%
X142550000Y-87810000D03*
%TO.P,U1,12,VSSA*%
%TO.N,GND*%
X142550000Y-88310000D03*
%TO.P,U1,13,VDDA*%
%TO.N,+3.3VA*%
X142550000Y-88810000D03*
%TO.P,U1,14,PA0*%
%TO.N,/BATT_CHG_PA0*%
X142550000Y-89310000D03*
%TO.P,U1,15,PA1*%
%TO.N,/CS_PA1*%
X142550000Y-89810000D03*
%TO.P,U1,16,PA2*%
%TO.N,/UART2_TX*%
X142550000Y-90310000D03*
D24*
%TO.P,U1,17,PA3*%
%TO.N,/UART2_RX*%
X144475000Y-92235000D03*
%TO.P,U1,18,VSS*%
%TO.N,GND*%
X144975000Y-92235000D03*
%TO.P,U1,19,VDD*%
%TO.N,+3.3V*%
X145475000Y-92235000D03*
%TO.P,U1,20,PA4*%
%TO.N,/DACLRC*%
X145975000Y-92235000D03*
%TO.P,U1,21,PA5*%
%TO.N,/SCK_SPI*%
X146475000Y-92235000D03*
%TO.P,U1,22,PA6*%
%TO.N,/RST_PA6*%
X146975000Y-92235000D03*
%TO.P,U1,23,PA7*%
%TO.N,/MOSI_SPI*%
X147475000Y-92235000D03*
%TO.P,U1,24,PC4*%
%TO.N,/IO_PC4*%
X147975000Y-92235000D03*
%TO.P,U1,25,PC5*%
%TO.N,/IO_PC5*%
X148475000Y-92235000D03*
%TO.P,U1,26,PB0*%
%TO.N,/DC_PB0*%
X148975000Y-92235000D03*
%TO.P,U1,27,PB1*%
%TO.N,/BB_MIC*%
X149475000Y-92235000D03*
%TO.P,U1,28,PB2*%
%TO.N,/BB_ROW_5*%
X149975000Y-92235000D03*
%TO.P,U1,29,PB10*%
%TO.N,/UART3_TX*%
X150475000Y-92235000D03*
%TO.P,U1,30,PB11*%
%TO.N,/UART3_RX*%
X150975000Y-92235000D03*
%TO.P,U1,31,VCAP_1*%
%TO.N,Net-(C21-Pad2)*%
X151475000Y-92235000D03*
%TO.P,U1,32,VDD*%
%TO.N,+3.3V*%
X151975000Y-92235000D03*
D23*
%TO.P,U1,33,PB12*%
%TO.N,/BB_ROW_1*%
X153900000Y-90310000D03*
%TO.P,U1,34,PB13*%
%TO.N,/BB_ROW_2*%
X153900000Y-89810000D03*
%TO.P,U1,35,PB14*%
%TO.N,/BB_ROW_3*%
X153900000Y-89310000D03*
%TO.P,U1,36,PB15*%
%TO.N,/BB_ROW_4*%
X153900000Y-88810000D03*
%TO.P,U1,37,PC6*%
%TO.N,/WM_PC6*%
X153900000Y-88310000D03*
%TO.P,U1,38,PC7*%
%TO.N,/WM_PC7*%
X153900000Y-87810000D03*
%TO.P,U1,39,PC8*%
%TO.N,/IO_PC8*%
X153900000Y-87310000D03*
%TO.P,U1,40,PC9*%
%TO.N,/IO_PC9*%
X153900000Y-86810000D03*
%TO.P,U1,41,PA8*%
%TO.N,unconnected-(U1-Pad41)*%
X153900000Y-86310000D03*
%TO.P,U1,42,PA9*%
%TO.N,/UART1_TX*%
X153900000Y-85810000D03*
%TO.P,U1,43,PA10*%
%TO.N,/UART1_RX*%
X153900000Y-85310000D03*
%TO.P,U1,44,PA11*%
%TO.N,Net-(SW9-Pad1)*%
X153900000Y-84810000D03*
%TO.P,U1,45,PA12*%
%TO.N,Net-(SW10-Pad1)*%
X153900000Y-84310000D03*
%TO.P,U1,46,PA13*%
%TO.N,/SWD_DIO*%
X153900000Y-83810000D03*
%TO.P,U1,47,VCAP_2*%
%TO.N,Net-(C22-Pad2)*%
X153900000Y-83310000D03*
%TO.P,U1,48,VDD*%
%TO.N,+3.3V*%
X153900000Y-82810000D03*
D24*
%TO.P,U1,49,PA14*%
%TO.N,/SWD_CLK*%
X151975000Y-80885000D03*
%TO.P,U1,50,PA15*%
%TO.N,/BL_PA4*%
X151475000Y-80885000D03*
%TO.P,U1,51,PC10*%
%TO.N,/BCLK*%
X150975000Y-80885000D03*
%TO.P,U1,52,PC11*%
%TO.N,/ADCDAT*%
X150475000Y-80885000D03*
%TO.P,U1,53,PC12*%
%TO.N,/DACDAT*%
X149975000Y-80885000D03*
%TO.P,U1,54,PD2*%
%TO.N,/PD2*%
X149475000Y-80885000D03*
%TO.P,U1,55,PB3*%
%TO.N,/BB_ROW_6*%
X148975000Y-80885000D03*
%TO.P,U1,56,PB4*%
%TO.N,/BB_ROW_7*%
X148475000Y-80885000D03*
%TO.P,U1,57,PB5*%
%TO.N,/BB_COLS_5*%
X147975000Y-80885000D03*
%TO.P,U1,58,PB6*%
%TO.N,/EEP_SCL*%
X147475000Y-80885000D03*
%TO.P,U1,59,PB7*%
%TO.N,/EEP_SDA*%
X146975000Y-80885000D03*
%TO.P,U1,60,BOOT0*%
%TO.N,/BOOT0*%
X146475000Y-80885000D03*
%TO.P,U1,61,PB8*%
%TO.N,/BB_COLS_2*%
X145975000Y-80885000D03*
%TO.P,U1,62,PB9*%
%TO.N,/BB_COLS_1*%
X145475000Y-80885000D03*
%TO.P,U1,63,VSS*%
%TO.N,GND*%
X144975000Y-80885000D03*
%TO.P,U1,64,VDD*%
%TO.N,+3.3V*%
X144475000Y-80885000D03*
%TD*%
D18*
%TO.P,R15,1*%
%TO.N,Net-(R15-Pad1)*%
X141478000Y-99464500D03*
%TO.P,R15,2*%
%TO.N,/BOOT0*%
X141478000Y-97639500D03*
%TD*%
D25*
%TO.P,D13,1,K*%
%TO.N,GND*%
X209690000Y-100392500D03*
%TO.P,D13,2,A*%
%TO.N,Net-(D13-Pad2)*%
X209690000Y-102267500D03*
%TD*%
D12*
%TO.P,C10,1*%
%TO.N,+3.3V*%
X136460000Y-90680000D03*
%TO.P,C10,2*%
%TO.N,GND*%
X136460000Y-88780000D03*
%TD*%
D26*
%TO.P,U4,1,I/O1*%
%TO.N,/USB_D+*%
X201770000Y-96462500D03*
D27*
%TO.P,U4,2,GND*%
%TO.N,GND*%
X201695000Y-97000000D03*
D26*
%TO.P,U4,3,I/O2*%
%TO.N,/USB_D-*%
X201770000Y-97537500D03*
%TO.P,U4,4,I/O2*%
%TO.N,/UD-*%
X203470000Y-97537500D03*
D27*
%TO.P,U4,5,VBUS*%
%TO.N,VBUS*%
X203545000Y-97000000D03*
D26*
%TO.P,U4,6,I/O1*%
%TO.N,/UD+*%
X203470000Y-96462500D03*
%TD*%
D13*
%TO.P,R35,1*%
%TO.N,Net-(J10-Pad7)*%
X129030000Y-69097500D03*
%TO.P,R35,2*%
%TO.N,/ESP_IO36*%
X129030000Y-70922500D03*
%TD*%
D28*
%TO.P,120R1,1*%
%TO.N,+3.3VA*%
X134187500Y-90140000D03*
%TO.P,120R1,2*%
%TO.N,+3.3V*%
X132612500Y-90140000D03*
%TD*%
D12*
%TO.P,C4,1*%
%TO.N,+3.3V*%
X139350000Y-76540000D03*
%TO.P,C4,2*%
%TO.N,GND*%
X139350000Y-74640000D03*
%TD*%
D19*
%TO.P,R20,1*%
%TO.N,Net-(R20-Pad1)*%
X121197500Y-89710000D03*
%TO.P,R20,2*%
%TO.N,Net-(D4-Pad2)*%
X123022500Y-89710000D03*
%TD*%
D29*
%TO.P,J6,1,Pin_1*%
%TO.N,/PWR_DSP*%
X116620000Y-64650000D03*
%TO.P,J6,2,Pin_2*%
%TO.N,GND*%
X114620000Y-64650000D03*
%TO.P,J6,3,Pin_3*%
%TO.N,/MOSI_SPI*%
X112620000Y-64650000D03*
%TO.P,J6,4,Pin_4*%
%TO.N,/SCK_SPI*%
X110620000Y-64650000D03*
%TO.P,J6,5,Pin_5*%
%TO.N,/CS_PA1*%
X108620000Y-64650000D03*
%TO.P,J6,6,Pin_6*%
%TO.N,/DC_PB0*%
X106620000Y-64650000D03*
%TO.P,J6,7,Pin_7*%
%TO.N,/RST_PA6*%
X104620000Y-64650000D03*
%TO.P,J6,8,Pin_8*%
%TO.N,/BL_PA4*%
X102620000Y-64650000D03*
D30*
%TO.P,J6,MP*%
%TO.N,N/C*%
X118970000Y-58900000D03*
X100270000Y-58900000D03*
%TD*%
D14*
%TO.P,C2,1*%
%TO.N,+3.3V*%
X207320000Y-69340000D03*
%TO.P,C2,2*%
%TO.N,GND*%
X209220000Y-69340000D03*
%TD*%
D19*
%TO.P,R19,1*%
%TO.N,Net-(R19-Pad1)*%
X118147500Y-100720000D03*
%TO.P,R19,2*%
%TO.N,Net-(D6-Pad2)*%
X119972500Y-100720000D03*
%TD*%
D13*
%TO.P,R8,1*%
%TO.N,+3.3V*%
X144820000Y-70847500D03*
%TO.P,R8,2*%
%TO.N,/EEP_SCL*%
X144820000Y-72672500D03*
%TD*%
D18*
%TO.P,R41,1*%
%TO.N,Net-(R41-Pad1)*%
X143510000Y-99464500D03*
%TO.P,R41,2*%
%TO.N,Net-(C25-Pad2)*%
X143510000Y-97639500D03*
%TD*%
D31*
%TO.P,U12,1,STAT*%
%TO.N,Net-(R36-Pad1)*%
X194232500Y-80930000D03*
%TO.P,U12,2,VSS*%
%TO.N,GND*%
X194232500Y-81880000D03*
%TO.P,U12,3,VBAT*%
%TO.N,+BATT*%
X194232500Y-82830000D03*
%TO.P,U12,4,VDD*%
%TO.N,VBUS*%
X196507500Y-82830000D03*
%TO.P,U12,5,PROG*%
%TO.N,Net-(R37-Pad2)*%
X196507500Y-80930000D03*
%TD*%
D25*
%TO.P,D12,1,K*%
%TO.N,GND*%
X207530000Y-100410000D03*
%TO.P,D12,2,A*%
%TO.N,Net-(D12-Pad2)*%
X207530000Y-102285000D03*
%TD*%
D32*
%TO.P,SW10,1,1*%
%TO.N,Net-(SW10-Pad1)*%
X168075000Y-78460000D03*
%TO.P,SW10,2,2*%
%TO.N,GND*%
X174805000Y-78460000D03*
%TD*%
D20*
%TO.P,D4,1,K*%
%TO.N,GND*%
X121132500Y-86310000D03*
%TO.P,D4,2,A*%
%TO.N,Net-(D4-Pad2)*%
X123007500Y-86310000D03*
%TD*%
D12*
%TO.P,C18,1*%
%TO.N,+3.3VA*%
X177550000Y-70200000D03*
%TO.P,C18,2*%
%TO.N,GND*%
X177550000Y-68300000D03*
%TD*%
D18*
%TO.P,R22,1*%
%TO.N,Net-(R22-Pad1)*%
X209710000Y-105882500D03*
%TO.P,R22,2*%
%TO.N,Net-(D13-Pad2)*%
X209710000Y-104057500D03*
%TD*%
D14*
%TO.P,C12,1*%
%TO.N,+3.3V*%
X154440000Y-81240000D03*
%TO.P,C12,2*%
%TO.N,GND*%
X156340000Y-81240000D03*
%TD*%
D12*
%TO.P,C3,1*%
%TO.N,GND*%
X189680000Y-88600000D03*
%TO.P,C3,2*%
%TO.N,+3.3V*%
X189680000Y-86700000D03*
%TD*%
D29*
%TO.P,J11,1,Pin_1*%
%TO.N,Net-(J11-Pad1)*%
X155720000Y-64690000D03*
%TO.P,J11,2,Pin_2*%
%TO.N,/Q_2*%
X153720000Y-64690000D03*
%TO.P,J11,3,Pin_3*%
%TO.N,/QBAR_2*%
X151720000Y-64690000D03*
%TO.P,J11,4,Pin_4*%
%TO.N,/CH_DTR*%
X149720000Y-64690000D03*
%TO.P,J11,5,Pin_5*%
%TO.N,/CH_RTS*%
X147720000Y-64690000D03*
%TO.P,J11,6,Pin_6*%
%TO.N,Net-(J11-Pad6)*%
X145720000Y-64690000D03*
D30*
%TO.P,J11,MP*%
%TO.N,N/C*%
X143370000Y-58940000D03*
X158070000Y-58940000D03*
%TD*%
D29*
%TO.P,J4,1,Pin_1*%
%TO.N,+3.3VA*%
X207500000Y-64610000D03*
%TO.P,J4,2,Pin_2*%
%TO.N,/LINPUT1*%
X205500000Y-64610000D03*
%TO.P,J4,3,Pin_3*%
%TO.N,/RINPUT1*%
X203500000Y-64610000D03*
%TO.P,J4,4,Pin_4*%
%TO.N,/MICBIAS*%
X201500000Y-64610000D03*
%TO.P,J4,5,Pin_5*%
%TO.N,/HP_L*%
X199500000Y-64610000D03*
%TO.P,J4,6,Pin_6*%
%TO.N,/HP_R*%
X197500000Y-64610000D03*
%TO.P,J4,7,Pin_7*%
%TO.N,/OUT3*%
X195500000Y-64610000D03*
%TO.P,J4,8,Pin_8*%
%TO.N,GND*%
X193500000Y-64610000D03*
D30*
%TO.P,J4,MP*%
%TO.N,N/C*%
X209850000Y-58860000D03*
X191150000Y-58860000D03*
%TD*%
D33*
%TO.P,C8,1*%
%TO.N,+3.3VA*%
X134400000Y-86200000D03*
%TO.P,C8,2*%
%TO.N,GND*%
X132500000Y-86200000D03*
%TD*%
D32*
%TO.P,SW6,1,1*%
%TO.N,+3.3V*%
X168105000Y-88270000D03*
%TO.P,SW6,2,2*%
%TO.N,Net-(C25-Pad2)*%
X174835000Y-88270000D03*
%TD*%
D12*
%TO.P,C11,1*%
%TO.N,+3.3V*%
X141855000Y-81430000D03*
%TO.P,C11,2*%
%TO.N,GND*%
X141855000Y-79530000D03*
%TD*%
D18*
%TO.P,R21,1*%
%TO.N,Net-(R21-Pad1)*%
X105440000Y-72982500D03*
%TO.P,R21,2*%
%TO.N,GND*%
X105440000Y-71157500D03*
%TD*%
D12*
%TO.P,C6,1*%
%TO.N,GND*%
X187590000Y-88620000D03*
%TO.P,C6,2*%
%TO.N,+3.3V*%
X187590000Y-86720000D03*
%TD*%
D10*
%TO.P,J2,1,Pin_1*%
%TO.N,/SPK_RP*%
X181450000Y-63220000D03*
%TO.P,J2,2,Pin_2*%
%TO.N,/SPK_RN*%
X180450000Y-63220000D03*
%TO.P,J2,3,Pin_3*%
%TO.N,/SPK_LP*%
X179450000Y-63220000D03*
%TO.P,J2,4,Pin_4*%
%TO.N,/SPK_LN*%
X178450000Y-63220000D03*
%TO.P,J2,5,Pin_5*%
%TO.N,/WM_PC6*%
X177450000Y-63220000D03*
%TO.P,J2,6,Pin_6*%
%TO.N,/WM_PC7*%
X176450000Y-63220000D03*
D11*
%TO.P,J2,7*%
%TO.N,N/C*%
X182650000Y-60270000D03*
%TO.P,J2,8*%
X175250000Y-60270000D03*
%TD*%
D12*
%TO.P,C24,1*%
%TO.N,+3.3V*%
X165608000Y-84450000D03*
%TO.P,C24,2*%
%TO.N,/BOOT0*%
X165608000Y-82550000D03*
%TD*%
D10*
%TO.P,J5,1,Pin_1*%
%TO.N,+3.3V*%
X172460000Y-63240000D03*
%TO.P,J5,2,Pin_2*%
%TO.N,/UART3_TX*%
X171460000Y-63240000D03*
%TO.P,J5,3,Pin_3*%
%TO.N,/UART3_RX*%
X170460000Y-63240000D03*
%TO.P,J5,4,Pin_4*%
%TO.N,GND*%
X169460000Y-63240000D03*
D11*
%TO.P,J5,5*%
%TO.N,N/C*%
X173660000Y-60290000D03*
%TO.P,J5,6*%
X168260000Y-60290000D03*
%TD*%
D12*
%TO.P,C23,1*%
%TO.N,Net-(C23-Pad1)*%
X205210000Y-105960000D03*
%TO.P,C23,2*%
%TO.N,GND*%
X205210000Y-104060000D03*
%TD*%
D29*
%TO.P,J10,1,Pin_1*%
%TO.N,+3.3V*%
X138520000Y-64610000D03*
%TO.P,J10,2,Pin_2*%
%TO.N,Net-(J10-Pad2)*%
X136520000Y-64610000D03*
%TO.P,J10,3,Pin_3*%
%TO.N,Net-(J10-Pad3)*%
X134520000Y-64610000D03*
%TO.P,J10,4,Pin_4*%
%TO.N,Net-(J10-Pad4)*%
X132520000Y-64610000D03*
%TO.P,J10,5,Pin_5*%
%TO.N,Net-(J10-Pad5)*%
X130520000Y-64610000D03*
%TO.P,J10,6,Pin_6*%
%TO.N,Net-(J10-Pad6)*%
X128520000Y-64610000D03*
%TO.P,J10,7,Pin_7*%
%TO.N,Net-(J10-Pad7)*%
X126520000Y-64610000D03*
%TO.P,J10,8,Pin_8*%
%TO.N,GND*%
X124520000Y-64610000D03*
D30*
%TO.P,J10,MP*%
%TO.N,N/C*%
X140870000Y-58860000D03*
X122170000Y-58860000D03*
%TD*%
D17*
%TO.P,R32,1*%
%TO.N,GND*%
X122502500Y-93670000D03*
%TO.P,R32,2*%
%TO.N,Net-(R32-Pad2)*%
X120677500Y-93670000D03*
%TD*%
D18*
%TO.P,R6,1*%
%TO.N,Net-(R6-Pad1)*%
X105300000Y-76552500D03*
%TO.P,R6,2*%
%TO.N,GND*%
X105300000Y-74727500D03*
%TD*%
D17*
%TO.P,R25,1*%
%TO.N,/PD2*%
X132042500Y-81890000D03*
%TO.P,R25,2*%
%TO.N,Net-(D9-Pad2)*%
X130217500Y-81890000D03*
%TD*%
D34*
%TO.P,U8,1,1A*%
%TO.N,/CH_RTS*%
X134119200Y-94220000D03*
%TO.P,U8,2,1Y*%
%TO.N,/C_2*%
X134119200Y-95490000D03*
%TO.P,U8,3,2A*%
%TO.N,Net-(J11-Pad1)*%
X134119200Y-96760000D03*
%TO.P,U8,4,2Y*%
%TO.N,Net-(R15-Pad1)*%
X134119200Y-98030000D03*
%TO.P,U8,5,3A*%
%TO.N,Net-(J11-Pad6)*%
X134119200Y-99300000D03*
%TO.P,U8,6,3Y*%
%TO.N,Net-(R41-Pad1)*%
X134119200Y-100570000D03*
%TO.P,U8,7,GND*%
%TO.N,GND*%
X134119200Y-101840000D03*
%TO.P,U8,8,4Y*%
%TO.N,/EN_ESP*%
X139300800Y-101840000D03*
%TO.P,U8,9,4A*%
%TO.N,Net-(C25-Pad2)*%
X139300800Y-100570000D03*
%TO.P,U8,10,5Y*%
%TO.N,/BOOT_ESP*%
X139300800Y-99300000D03*
%TO.P,U8,11,5A*%
%TO.N,/BOOT0*%
X139300800Y-98030000D03*
%TO.P,U8,12,6Y*%
%TO.N,GND*%
X139300800Y-96760000D03*
%TO.P,U8,13,6A*%
X139300800Y-95490000D03*
%TO.P,U8,14,VCC*%
%TO.N,+3.3V*%
X139300800Y-94220000D03*
%TD*%
D19*
%TO.P,R31,1*%
%TO.N,/ADCDAT*%
X189417500Y-76600000D03*
%TO.P,R31,2*%
%TO.N,Net-(R31-Pad2)*%
X191242500Y-76600000D03*
%TD*%
D17*
%TO.P,R36,1*%
%TO.N,Net-(R36-Pad1)*%
X192192500Y-80580000D03*
%TO.P,R36,2*%
%TO.N,Net-(D11-Pad1)*%
X190367500Y-80580000D03*
%TD*%
D19*
%TO.P,R12,1*%
%TO.N,GND*%
X197467500Y-90840000D03*
%TO.P,R12,2*%
%TO.N,Net-(J9-PadA5)*%
X199292500Y-90840000D03*
%TD*%
%TO.P,R18,1*%
%TO.N,Net-(R18-Pad1)*%
X114707500Y-100760000D03*
%TO.P,R18,2*%
%TO.N,Net-(D5-Pad2)*%
X116532500Y-100760000D03*
%TD*%
%TO.P,R29,1*%
%TO.N,/DACDAT*%
X189337500Y-74560000D03*
%TO.P,R29,2*%
%TO.N,Net-(R29-Pad2)*%
X191162500Y-74560000D03*
%TD*%
D35*
%TO.P,C22,1*%
%TO.N,GND*%
X158005000Y-83330000D03*
%TO.P,C22,2*%
%TO.N,Net-(C22-Pad2)*%
X156455000Y-83330000D03*
%TD*%
D20*
%TO.P,D6,1,K*%
%TO.N,GND*%
X118192500Y-102810000D03*
%TO.P,D6,2,A*%
%TO.N,Net-(D6-Pad2)*%
X120067500Y-102810000D03*
%TD*%
D36*
%TO.P,CR1,1,E0*%
%TO.N,unconnected-(CR1-Pad1)*%
X163854000Y-73205000D03*
%TO.P,CR1,2,E1*%
%TO.N,unconnected-(CR1-Pad2)*%
X163854000Y-71935000D03*
%TO.P,CR1,3,E2*%
%TO.N,unconnected-(CR1-Pad3)*%
X163854000Y-70665000D03*
%TO.P,CR1,4,VSS*%
%TO.N,GND*%
X163854000Y-69395000D03*
%TO.P,CR1,5,SDA*%
%TO.N,/EEP_SDA*%
X158266000Y-69395000D03*
%TO.P,CR1,6,SCL*%
%TO.N,/EEP_SCL*%
X158266000Y-70665000D03*
%TO.P,CR1,7,\u002AWC*%
%TO.N,unconnected-(CR1-Pad7)*%
X158266000Y-71935000D03*
%TO.P,CR1,8,VCC*%
%TO.N,+3.3V*%
X158266000Y-73205000D03*
%TD*%
D13*
%TO.P,R30,1*%
%TO.N,Net-(J10-Pad4)*%
X135970000Y-69647500D03*
%TO.P,R30,2*%
%TO.N,/IO_PC4*%
X135970000Y-71472500D03*
%TD*%
D37*
%TO.P,U14,1,MICBIAS*%
%TO.N,Net-(C7-Pad2)*%
X186342500Y-77520000D03*
%TO.P,U14,2,LINPUT3*%
%TO.N,unconnected-(U14-Pad2)*%
X186342500Y-77020000D03*
%TO.P,U14,3,LINPUT2*%
%TO.N,unconnected-(U14-Pad3)*%
X186342500Y-76520000D03*
%TO.P,U14,4,LINPUT1*%
%TO.N,/LINPUT1*%
X186342500Y-76020000D03*
%TO.P,U14,5,RINPUT1*%
%TO.N,/RINPUT1*%
X186342500Y-75520000D03*
%TO.P,U14,6,RINPUT2*%
%TO.N,unconnected-(U14-Pad6)*%
X186342500Y-75020000D03*
%TO.P,U14,7,RINPUT3*%
%TO.N,unconnected-(U14-Pad7)*%
X186342500Y-74520000D03*
%TO.P,U14,8,DCVDD*%
%TO.N,+3.3V*%
X186342500Y-74020000D03*
D38*
%TO.P,U14,9,DGND*%
%TO.N,GND*%
X185617500Y-73295000D03*
%TO.P,U14,10,DBVDD*%
%TO.N,+3.3V*%
X185117500Y-73295000D03*
%TO.P,U14,11,MCLK*%
%TO.N,Net-(R26-Pad2)*%
X184617500Y-73295000D03*
%TO.P,U14,12,BCLK*%
%TO.N,Net-(R27-Pad2)*%
X184117500Y-73295000D03*
%TO.P,U14,13,DACLRC*%
%TO.N,Net-(R28-Pad2)*%
X183617500Y-73295000D03*
%TO.P,U14,14,DACDAT*%
%TO.N,Net-(R29-Pad2)*%
X183117500Y-73295000D03*
%TO.P,U14,15,ADCLRC*%
%TO.N,unconnected-(U14-Pad15)*%
X182617500Y-73295000D03*
%TO.P,U14,16,ADCDAT*%
%TO.N,Net-(R31-Pad2)*%
X182117500Y-73295000D03*
D37*
%TO.P,U14,17,SCLK*%
%TO.N,/EEP_SCL*%
X181392500Y-74020000D03*
%TO.P,U14,18,SDIN*%
%TO.N,/EEP_SDA*%
X181392500Y-74520000D03*
%TO.P,U14,19,SPK_RN*%
%TO.N,/SPK_RN*%
X181392500Y-75020000D03*
%TO.P,U14,20,SPKGND2*%
%TO.N,GND*%
X181392500Y-75520000D03*
%TO.P,U14,21,SPKVDD2*%
%TO.N,+3.3VA*%
X181392500Y-76020000D03*
%TO.P,U14,22,SPK_RP*%
%TO.N,/SPK_RP*%
X181392500Y-76520000D03*
%TO.P,U14,23,SPK_LN*%
%TO.N,/SPK_LN*%
X181392500Y-77020000D03*
%TO.P,U14,24,SPKGND1*%
%TO.N,GND*%
X181392500Y-77520000D03*
D38*
%TO.P,U14,25,SPK_LP*%
%TO.N,/SPK_LP*%
X182117500Y-78245000D03*
%TO.P,U14,26,SPKVDD1*%
%TO.N,+3.3VA*%
X182617500Y-78245000D03*
%TO.P,U14,27,AMID*%
%TO.N,Net-(C15-Pad2)*%
X183117500Y-78245000D03*
%TO.P,U14,28,AGND*%
%TO.N,GND*%
X183617500Y-78245000D03*
%TO.P,U14,29,HP_R*%
%TO.N,/HP_R*%
X184117500Y-78245000D03*
%TO.P,U14,30,OUT3*%
%TO.N,/OUT3*%
X184617500Y-78245000D03*
%TO.P,U14,31,HP_L*%
%TO.N,/HP_L*%
X185117500Y-78245000D03*
%TO.P,U14,32,AVDD*%
%TO.N,+3.3VA*%
X185617500Y-78245000D03*
D39*
%TO.P,U14,33,EP*%
%TO.N,unconnected-(U14-Pad33)*%
X183867500Y-75770000D03*
%TD*%
D25*
%TO.P,D11,1,K*%
%TO.N,Net-(D11-Pad1)*%
X190590000Y-82372500D03*
%TO.P,D11,2,A*%
%TO.N,VBUS*%
X190590000Y-84247500D03*
%TD*%
D19*
%TO.P,R28,1*%
%TO.N,/DACLRC*%
X189347500Y-72560000D03*
%TO.P,R28,2*%
%TO.N,Net-(R28-Pad2)*%
X191172500Y-72560000D03*
%TD*%
D21*
%TO.P,C16,1*%
%TO.N,+3.3VA*%
X185590000Y-83090000D03*
%TO.P,C16,2*%
%TO.N,GND*%
X185590000Y-84990000D03*
%TD*%
D40*
%TO.P,J8,1,Pin_1*%
%TO.N,+3.3V*%
X183970000Y-108040000D03*
%TO.P,J8,2,Pin_2*%
%TO.N,/SWD_DIO*%
X185970000Y-108040000D03*
%TO.P,J8,3,Pin_3*%
%TO.N,/SWD_CLK*%
X187970000Y-108040000D03*
%TO.P,J8,4,Pin_4*%
%TO.N,GND*%
X189970000Y-108040000D03*
D41*
%TO.P,J8,MP*%
%TO.N,N/C*%
X192320000Y-113790000D03*
X181620000Y-113790000D03*
%TD*%
D19*
%TO.P,R39,1*%
%TO.N,GND*%
X199827500Y-99860000D03*
%TO.P,R39,2*%
%TO.N,/BATT_CHG_PA0*%
X201652500Y-99860000D03*
%TD*%
D12*
%TO.P,C1,1*%
%TO.N,VBUS*%
X188520000Y-84260000D03*
%TO.P,C1,2*%
%TO.N,GND*%
X188520000Y-82360000D03*
%TD*%
D13*
%TO.P,R5,1*%
%TO.N,+3.3V*%
X183000000Y-90027500D03*
%TO.P,R5,2*%
%TO.N,Net-(C23-Pad1)*%
X183000000Y-91852500D03*
%TD*%
D33*
%TO.P,C19,1*%
%TO.N,+BATT*%
X201570000Y-104910000D03*
%TO.P,C19,2*%
%TO.N,GND*%
X199670000Y-104910000D03*
%TD*%
D19*
%TO.P,R1,1*%
%TO.N,GND*%
X192997500Y-89330000D03*
%TO.P,R1,2*%
%TO.N,Net-(D1-Pad1)*%
X194822500Y-89330000D03*
%TD*%
D21*
%TO.P,C14,1*%
%TO.N,+3.3V*%
X141765000Y-91690000D03*
%TO.P,C14,2*%
%TO.N,GND*%
X141765000Y-93590000D03*
%TD*%
D33*
%TO.P,C9,1*%
%TO.N,+3.3VA*%
X134350000Y-88240000D03*
%TO.P,C9,2*%
%TO.N,GND*%
X132450000Y-88240000D03*
%TD*%
D42*
%TO.P,U3,1,~{OE}*%
%TO.N,/ESP_UART1_EN*%
X128120000Y-94930000D03*
%TO.P,U3,2,A*%
%TO.N,/UART2_TX*%
X128120000Y-95580000D03*
%TO.P,U3,3,GND*%
%TO.N,GND*%
X128120000Y-96230000D03*
%TO.P,U3,4,Y*%
%TO.N,/ESP_UART1_RX*%
X130020000Y-96230000D03*
%TO.P,U3,5,VCC*%
%TO.N,+3.3V*%
X130020000Y-94930000D03*
%TD*%
D12*
%TO.P,C25,1*%
%TO.N,+3.3V*%
X165608000Y-88580000D03*
%TO.P,C25,2*%
%TO.N,Net-(C25-Pad2)*%
X165608000Y-86680000D03*
%TD*%
D20*
%TO.P,D3,1,K*%
%TO.N,GND*%
X111232500Y-102820000D03*
%TO.P,D3,2,A*%
%TO.N,Net-(D3-Pad2)*%
X113107500Y-102820000D03*
%TD*%
D43*
%TO.P,X1,1,~{ST}*%
%TO.N,unconnected-(X1-Pad1)*%
X135130000Y-76410000D03*
%TO.P,X1,2,GND*%
%TO.N,GND*%
X135130000Y-78950000D03*
%TO.P,X1,3,OUT*%
%TO.N,/HSE_IN*%
X137330000Y-78950000D03*
%TO.P,X1,4,VCC*%
%TO.N,+3.3V*%
X137330000Y-76410000D03*
%TD*%
D21*
%TO.P,C20,1*%
%TO.N,/PWR_DSP*%
X199400000Y-79150000D03*
%TO.P,C20,2*%
%TO.N,GND*%
X199400000Y-81050000D03*
%TD*%
D44*
%TO.P,J9,A1,GND*%
%TO.N,GND*%
X203045000Y-89820000D03*
%TO.P,J9,A4,VBUS*%
%TO.N,VBUS*%
X203045000Y-89020000D03*
D45*
%TO.P,J9,A5,CC1*%
%TO.N,Net-(J9-PadA5)*%
X203045000Y-87820000D03*
%TO.P,J9,A6,D+*%
%TO.N,/USB_D+*%
X203045000Y-86820000D03*
%TO.P,J9,A7,D-*%
%TO.N,/USB_D-*%
X203045000Y-86320000D03*
%TO.P,J9,A8,SBU1*%
%TO.N,unconnected-(J9-PadA8)*%
X203045000Y-85320000D03*
D44*
%TO.P,J9,A9,VBUS*%
%TO.N,VBUS*%
X203045000Y-84120000D03*
%TO.P,J9,A12,GND*%
%TO.N,GND*%
X203045000Y-83320000D03*
%TO.P,J9,B1,GND*%
X203045000Y-83320000D03*
%TO.P,J9,B4,VBUS*%
%TO.N,VBUS*%
X203045000Y-84120000D03*
D45*
%TO.P,J9,B5,CC2*%
%TO.N,Net-(J9-PadB5)*%
X203045000Y-84820000D03*
%TO.P,J9,B6,D+*%
%TO.N,/USB_D+*%
X203045000Y-85820000D03*
%TO.P,J9,B7,D-*%
%TO.N,/USB_D-*%
X203045000Y-87320000D03*
%TO.P,J9,B8,SBU2*%
%TO.N,unconnected-(J9-PadB8)*%
X203045000Y-88320000D03*
D44*
%TO.P,J9,B9,VBUS*%
%TO.N,VBUS*%
X203045000Y-89020000D03*
%TO.P,J9,B12,GND*%
%TO.N,GND*%
X203045000Y-89820000D03*
D46*
%TO.P,J9,S1,SHIELD*%
%TO.N,unconnected-(J9-PadS1)*%
X208140000Y-90890000D03*
D47*
X203960000Y-82250000D03*
D46*
X208140000Y-82250000D03*
D47*
X203960000Y-90890000D03*
%TD*%
D48*
%TO.P,U16,1,Y0*%
%TO.N,/UART1_TX*%
X116255000Y-70610000D03*
%TO.P,U16,2,Y2*%
%TO.N,unconnected-(U16-Pad2)*%
X114985000Y-70610000D03*
%TO.P,U16,3,Y*%
%TO.N,/CH_RXD*%
X113715000Y-70610000D03*
%TO.P,U16,4,Y3*%
%TO.N,unconnected-(U16-Pad4)*%
X112445000Y-70610000D03*
%TO.P,U16,5,Y1*%
%TO.N,/ESP_TX0*%
X111175000Y-70610000D03*
%TO.P,U16,6,INH*%
%TO.N,Net-(R21-Pad1)*%
X109905000Y-70610000D03*
%TO.P,U16,7,VEE*%
%TO.N,unconnected-(U16-Pad7)*%
X108635000Y-70610000D03*
%TO.P,U16,8,GND*%
%TO.N,GND*%
X107365000Y-70610000D03*
%TO.P,U16,9,B*%
%TO.N,Net-(R6-Pad1)*%
X107365000Y-76210000D03*
%TO.P,U16,10,A*%
%TO.N,Net-(R22-Pad1)*%
X108635000Y-76210000D03*
%TO.P,U16,11,X3*%
%TO.N,unconnected-(U16-Pad11)*%
X109905000Y-76210000D03*
%TO.P,U16,12,X0*%
%TO.N,/UART1_RX*%
X111175000Y-76210000D03*
%TO.P,U16,13,X*%
%TO.N,/CH_TXD*%
X112445000Y-76210000D03*
%TO.P,U16,14,X1*%
%TO.N,/ESP_RX0*%
X113715000Y-76210000D03*
%TO.P,U16,15,X2*%
%TO.N,unconnected-(U16-Pad15)*%
X114985000Y-76210000D03*
%TO.P,U16,16,VCC*%
%TO.N,+3.3V*%
X116255000Y-76210000D03*
%TD*%
D19*
%TO.P,R11,1*%
%TO.N,GND*%
X198097500Y-84580000D03*
%TO.P,R11,2*%
%TO.N,Net-(J9-PadB5)*%
X199922500Y-84580000D03*
%TD*%
D21*
%TO.P,C5,1*%
%TO.N,/PWR_DSP*%
X209730000Y-94830000D03*
%TO.P,C5,2*%
%TO.N,GND*%
X209730000Y-96730000D03*
%TD*%
D17*
%TO.P,R23,1*%
%TO.N,/PC1*%
X132010000Y-77880000D03*
%TO.P,R23,2*%
%TO.N,Net-(D7-Pad2)*%
X130185000Y-77880000D03*
%TD*%
D19*
%TO.P,R27,1*%
%TO.N,/BCLK*%
X189307500Y-70550000D03*
%TO.P,R27,2*%
%TO.N,Net-(R27-Pad2)*%
X191132500Y-70550000D03*
%TD*%
D49*
%TO.P,C21,1*%
%TO.N,GND*%
X151620000Y-97025000D03*
%TO.P,C21,2*%
%TO.N,Net-(C21-Pad2)*%
X151620000Y-95475000D03*
%TD*%
D50*
%TO.P,D2,1,K*%
%TO.N,/PWR_DSP*%
X207450000Y-93550000D03*
%TO.P,D2,2,A*%
%TO.N,+BATT*%
X205350000Y-93550000D03*
%TD*%
D19*
%TO.P,R17,1*%
%TO.N,Net-(R17-Pad1)*%
X111237500Y-100790000D03*
%TO.P,R17,2*%
%TO.N,Net-(D3-Pad2)*%
X113062500Y-100790000D03*
%TD*%
D50*
%TO.P,D10,1,K*%
%TO.N,/PWR_DSP*%
X207250000Y-79340000D03*
%TO.P,D10,2,A*%
%TO.N,VBUS*%
X205150000Y-79340000D03*
%TD*%
D19*
%TO.P,R3,1*%
%TO.N,/ESP_UART1_EN*%
X128187500Y-92990000D03*
%TO.P,R3,2*%
%TO.N,+3.3V*%
X130012500Y-92990000D03*
%TD*%
D20*
%TO.P,D8,1,K*%
%TO.N,GND*%
X125412500Y-79880000D03*
%TO.P,D8,2,A*%
%TO.N,Net-(D8-Pad2)*%
X127287500Y-79880000D03*
%TD*%
%TO.P,D9,1,K*%
%TO.N,GND*%
X125422500Y-81870000D03*
%TO.P,D9,2,A*%
%TO.N,Net-(D9-Pad2)*%
X127297500Y-81870000D03*
%TD*%
D13*
%TO.P,R10,1*%
%TO.N,Net-(J10-Pad3)*%
X138280000Y-69627500D03*
%TO.P,R10,2*%
%TO.N,/IO_PC9*%
X138280000Y-71452500D03*
%TD*%
D42*
%TO.P,U9,1,~{OE}*%
%TO.N,/UART2_EN*%
X128070000Y-89720000D03*
%TO.P,U9,2,A*%
%TO.N,/ESP_UART1_TX*%
X128070000Y-90370000D03*
%TO.P,U9,3,GND*%
%TO.N,GND*%
X128070000Y-91020000D03*
%TO.P,U9,4,Y*%
%TO.N,/UART2_RX*%
X129970000Y-91020000D03*
%TO.P,U9,5,VCC*%
%TO.N,+3.3V*%
X129970000Y-89720000D03*
%TD*%
D19*
%TO.P,R26,1*%
%TO.N,/HSE_IN*%
X135257500Y-81630000D03*
%TO.P,R26,2*%
%TO.N,Net-(R26-Pad2)*%
X137082500Y-81630000D03*
%TD*%
D40*
%TO.P,J1,1,Pin_1*%
%TO.N,GND*%
X197690000Y-108170000D03*
%TO.P,J1,2,Pin_2*%
%TO.N,+BATT*%
X199690000Y-108170000D03*
D41*
%TO.P,J1,MP*%
%TO.N,N/C*%
X202040000Y-113920000D03*
X195340000Y-113920000D03*
%TD*%
D51*
%TO.P,U2,1,GND*%
%TO.N,GND*%
X208830000Y-76450000D03*
%TO.P,U2,2,VO*%
%TO.N,+3.3V*%
X208830000Y-74150000D03*
D52*
X202530000Y-74150000D03*
D51*
%TO.P,U2,3,VI*%
%TO.N,/PWR_DSP*%
X208830000Y-71850000D03*
%TD*%
D53*
%TO.P,U15,1,Q1*%
%TO.N,Net-(R40-Pad1)*%
X209655000Y-115360000D03*
%TO.P,U15,2,~{Q1}*%
%TO.N,Net-(R22-Pad1)*%
X209655000Y-114090000D03*
%TO.P,U15,3,CLK1*%
%TO.N,Net-(C23-Pad1)*%
X209655000Y-112820000D03*
%TO.P,U15,4,RESET1*%
%TO.N,GND*%
X209655000Y-111550000D03*
%TO.P,U15,5,D1*%
%TO.N,Net-(R22-Pad1)*%
X209655000Y-110280000D03*
%TO.P,U15,6,SET1*%
%TO.N,GND*%
X209655000Y-109010000D03*
%TO.P,U15,7,VSS*%
X209655000Y-107740000D03*
%TO.P,U15,8,SET2*%
X204705000Y-107740000D03*
%TO.P,U15,9,D2*%
%TO.N,/CH_DTR*%
X204705000Y-109010000D03*
%TO.P,U15,10,RESET2*%
%TO.N,GND*%
X204705000Y-110280000D03*
%TO.P,U15,11,CLK2*%
%TO.N,/C_2*%
X204705000Y-111550000D03*
%TO.P,U15,12,~{Q2}*%
%TO.N,/QBAR_2*%
X204705000Y-112820000D03*
%TO.P,U15,13,Q2*%
%TO.N,/Q_2*%
X204705000Y-114090000D03*
%TO.P,U15,14,VDD*%
%TO.N,+3.3V*%
X204705000Y-115360000D03*
%TD*%
D32*
%TO.P,SW3,1,1*%
%TO.N,+3.3V*%
X174845000Y-83370000D03*
%TO.P,SW3,2,2*%
%TO.N,/BOOT0*%
X168115000Y-83370000D03*
%TD*%
D19*
%TO.P,R4,1*%
%TO.N,/UART2_EN*%
X128177500Y-87880000D03*
%TO.P,R4,2*%
%TO.N,+3.3V*%
X130002500Y-87880000D03*
%TD*%
D54*
%TO.P,U10,1,GND*%
%TO.N,GND*%
X189165000Y-98385000D03*
%TO.P,U10,2,TXD*%
%TO.N,/CH_TXD*%
X190435000Y-98385000D03*
%TO.P,U10,3,RXD*%
%TO.N,/CH_RXD*%
X191705000Y-98385000D03*
%TO.P,U10,4,V3*%
%TO.N,+3.3V*%
X192975000Y-98385000D03*
%TO.P,U10,5,UD+*%
%TO.N,/UD+*%
X194245000Y-98385000D03*
%TO.P,U10,6,UD-*%
%TO.N,/UD-*%
X195515000Y-98385000D03*
%TO.P,U10,7,NC*%
%TO.N,unconnected-(U10-Pad7)*%
X196785000Y-98385000D03*
%TO.P,U10,8,NC*%
%TO.N,unconnected-(U10-Pad8)*%
X198055000Y-98385000D03*
%TO.P,U10,9,~{CTS}*%
%TO.N,unconnected-(U10-Pad9)*%
X198055000Y-93435000D03*
%TO.P,U10,10,~{DSR}*%
%TO.N,unconnected-(U10-Pad10)*%
X196785000Y-93435000D03*
%TO.P,U10,11,~{RI}*%
%TO.N,unconnected-(U10-Pad11)*%
X195515000Y-93435000D03*
%TO.P,U10,12,~{DCD}*%
%TO.N,unconnected-(U10-Pad12)*%
X194245000Y-93435000D03*
%TO.P,U10,13,~{DTR}*%
%TO.N,/CH_DTR*%
X192975000Y-93435000D03*
%TO.P,U10,14,~{RTS}*%
%TO.N,/CH_RTS*%
X191705000Y-93435000D03*
%TO.P,U10,15,R232*%
%TO.N,unconnected-(U10-Pad15)*%
X190435000Y-93435000D03*
%TO.P,U10,16,VCC*%
%TO.N,+3.3V*%
X189165000Y-93435000D03*
%TD*%
D32*
%TO.P,SW9,1,1*%
%TO.N,Net-(SW9-Pad1)*%
X168075000Y-73580000D03*
%TO.P,SW9,2,2*%
%TO.N,GND*%
X174805000Y-73580000D03*
%TD*%
D13*
%TO.P,R34,1*%
%TO.N,Net-(J10-Pad6)*%
X131410000Y-69387500D03*
%TO.P,R34,2*%
%TO.N,/ESP_IO35*%
X131410000Y-71212500D03*
%TD*%
D55*
%TO.P,U11,41*%
%TO.N,N/C*%
X108025000Y-90610000D03*
X109425000Y-90610000D03*
X108725000Y-89910000D03*
X108025000Y-87810000D03*
X110125000Y-88510000D03*
X110125000Y-89910000D03*
X107325000Y-88510000D03*
X109425000Y-89210000D03*
X108025000Y-89210000D03*
D56*
X108725000Y-89210000D03*
D55*
X107325000Y-89910000D03*
X108725000Y-88510000D03*
X109425000Y-87810000D03*
D57*
%TO.P,U11,40,GND*%
%TO.N,GND*%
X101005000Y-78960000D03*
%TO.P,U11,39,IO1*%
%TO.N,unconnected-(U11-Pad39)*%
X102275000Y-78960000D03*
%TO.P,U11,38,IO2*%
%TO.N,unconnected-(U11-Pad38)*%
X103545000Y-78960000D03*
%TO.P,U11,37,TXD0*%
%TO.N,/ESP_TX0*%
X104815000Y-78960000D03*
%TO.P,U11,36,RXD0*%
%TO.N,/ESP_RX0*%
X106085000Y-78960000D03*
%TO.P,U11,35,IO42*%
%TO.N,unconnected-(U11-Pad35)*%
X107355000Y-78960000D03*
%TO.P,U11,34,IO41*%
%TO.N,unconnected-(U11-Pad34)*%
X108625000Y-78960000D03*
%TO.P,U11,33,IO40*%
%TO.N,unconnected-(U11-Pad33)*%
X109895000Y-78960000D03*
%TO.P,U11,32,IO39*%
%TO.N,unconnected-(U11-Pad32)*%
X111165000Y-78960000D03*
%TO.P,U11,31,IO38*%
%TO.N,unconnected-(U11-Pad31)*%
X112435000Y-78960000D03*
%TO.P,U11,30,IO37*%
%TO.N,unconnected-(U11-Pad30)*%
X113705000Y-78960000D03*
%TO.P,U11,29,IO36*%
%TO.N,/ESP_IO36*%
X114975000Y-78960000D03*
%TO.P,U11,28,IO35*%
%TO.N,/ESP_IO35*%
X116245000Y-78960000D03*
%TO.P,U11,27,IO0*%
%TO.N,/BOOT_ESP*%
X117515000Y-78960000D03*
D58*
%TO.P,U11,26,IO45*%
%TO.N,unconnected-(U11-Pad26)*%
X118765000Y-80725000D03*
%TO.P,U11,25,IO48*%
%TO.N,/ESP_SCL*%
X118765000Y-81995000D03*
%TO.P,U11,24,IO47*%
%TO.N,/ESP_SDA*%
X118765000Y-83265000D03*
%TO.P,U11,23,IO21*%
%TO.N,unconnected-(U11-Pad23)*%
X118765000Y-84535000D03*
%TO.P,U11,22,IO14*%
%TO.N,unconnected-(U11-Pad22)*%
X118765000Y-85805000D03*
%TO.P,U11,21,IO13*%
%TO.N,unconnected-(U11-Pad21)*%
X118765000Y-87075000D03*
%TO.P,U11,20,IO12*%
%TO.N,Net-(R20-Pad1)*%
X118765000Y-88345000D03*
%TO.P,U11,19,IO11*%
%TO.N,unconnected-(U11-Pad19)*%
X118765000Y-89615000D03*
%TO.P,U11,18,IO10*%
%TO.N,unconnected-(U11-Pad18)*%
X118765000Y-90885000D03*
%TO.P,U11,17,IO9*%
%TO.N,unconnected-(U11-Pad17)*%
X118765000Y-92155000D03*
%TO.P,U11,16,IO46*%
%TO.N,Net-(R32-Pad2)*%
X118765000Y-93425000D03*
%TO.P,U11,15,IO3*%
%TO.N,unconnected-(U11-Pad15)*%
X118765000Y-94695000D03*
D57*
%TO.P,U11,14,IO20*%
%TO.N,unconnected-(U11-Pad14)*%
X117515000Y-96460000D03*
%TO.P,U11,13,IO19*%
%TO.N,/ESP_UART1_EN*%
X116245000Y-96460000D03*
%TO.P,U11,12,IO8*%
%TO.N,unconnected-(U11-Pad12)*%
X114975000Y-96460000D03*
%TO.P,U11,11,IO18*%
%TO.N,/ESP_UART1_RX*%
X113705000Y-96460000D03*
%TO.P,U11,10,IO17*%
%TO.N,/ESP_UART1_TX*%
X112435000Y-96460000D03*
%TO.P,U11,9,IO16*%
%TO.N,unconnected-(U11-Pad9)*%
X111165000Y-96460000D03*
%TO.P,U11,8,IO15*%
%TO.N,unconnected-(U11-Pad8)*%
X109895000Y-96460000D03*
%TO.P,U11,7,IO7*%
%TO.N,Net-(R19-Pad1)*%
X108625000Y-96460000D03*
%TO.P,U11,6,IO6*%
%TO.N,Net-(R18-Pad1)*%
X107355000Y-96460000D03*
%TO.P,U11,5,IO5*%
%TO.N,Net-(R17-Pad1)*%
X106085000Y-96460000D03*
%TO.P,U11,4,IO4*%
%TO.N,unconnected-(U11-Pad4)*%
X104815000Y-96460000D03*
%TO.P,U11,3,EN*%
%TO.N,/EN_ESP*%
X103545000Y-96460000D03*
%TO.P,U11,2,3V3*%
%TO.N,+3.3V*%
X102275000Y-96460000D03*
%TO.P,U11,1,GND*%
%TO.N,GND*%
X101005000Y-96460000D03*
%TD*%
D59*
%TO.P,SW5,1,1*%
%TO.N,GND*%
X179530000Y-84255000D03*
%TO.P,SW5,2,2*%
%TO.N,Net-(C23-Pad1)*%
X179530000Y-90985000D03*
%TD*%
D20*
%TO.P,D5,1,K*%
%TO.N,GND*%
X114702500Y-102820000D03*
%TO.P,D5,2,A*%
%TO.N,Net-(D5-Pad2)*%
X116577500Y-102820000D03*
%TD*%
D60*
%TO.N,+3.3V*%
X118770000Y-68210000D03*
%TO.N,/EEP_SDA*%
X169910000Y-106980000D03*
X149680000Y-106349500D03*
%TO.N,/EEP_SCL*%
X150538093Y-107257027D03*
X170960498Y-107439963D03*
%TO.N,/EEP_SDA*%
X145170000Y-95700000D03*
%TO.N,/EEP_SCL*%
X143570000Y-95110000D03*
%TO.N,+3.3V*%
X171960000Y-107440500D03*
X171950000Y-109639500D03*
X164850000Y-109639500D03*
%TO.N,/SPK_RN*%
X180000000Y-65840500D03*
X182880000Y-65560500D03*
%TO.N,+3.3V*%
X182620000Y-106900000D03*
%TO.N,/SWD_DIO*%
X163790000Y-101300000D03*
%TO.N,/SWD_CLK*%
X162700000Y-101320500D03*
%TO.N,GND*%
X116400000Y-69310000D03*
X109232701Y-69459500D03*
X117960000Y-61730000D03*
X114730000Y-61810000D03*
%TO.N,/PWR_DSP*%
X116870000Y-57150000D03*
%TO.N,/MOSI_SPI*%
X113620000Y-66870000D03*
X100825500Y-67820000D03*
%TO.N,/RST_PA6*%
X103440000Y-68890000D03*
X101336607Y-71001774D03*
%TO.N,+3.3VA*%
X186080000Y-81940000D03*
X193650000Y-68389500D03*
X177169274Y-71580161D03*
X137170308Y-84769692D03*
X181410000Y-79850000D03*
X135715378Y-86424622D03*
X178682215Y-72717835D03*
%TO.N,+3.3V*%
X206989500Y-74250000D03*
X139370000Y-77750000D03*
X193294000Y-104394000D03*
X188295643Y-75885713D03*
X202530000Y-74150000D03*
X138340000Y-89900000D03*
X163400000Y-93610000D03*
X198370000Y-95640000D03*
X173220000Y-68210000D03*
X146850000Y-68210000D03*
X144910000Y-68210000D03*
X152866945Y-91919406D03*
X169410000Y-68210000D03*
X193540000Y-111740000D03*
X103390878Y-98489622D03*
X198370000Y-87910000D03*
X171290000Y-99140000D03*
X191962000Y-102170000D03*
X138570000Y-66329500D03*
X187787750Y-74847750D03*
X152110000Y-89080000D03*
X143080000Y-74030000D03*
X151574349Y-102020500D03*
X166710000Y-89120500D03*
X171406188Y-97669500D03*
X131420000Y-90170000D03*
X158120000Y-102020500D03*
X139340000Y-92800000D03*
X187720000Y-85560000D03*
X130910000Y-102170000D03*
X172000000Y-102170000D03*
X159700936Y-73170936D03*
X184560000Y-90910000D03*
X130000000Y-86410000D03*
X190190500Y-85800000D03*
%TO.N,GND*%
X202250000Y-90350000D03*
X144495000Y-89225000D03*
X128040000Y-97028000D03*
X199270000Y-101290000D03*
X202940000Y-110280000D03*
X152740500Y-96954597D03*
X191690000Y-110520000D03*
X125422500Y-81870000D03*
X141260000Y-74650000D03*
X189971188Y-109981188D03*
X199660000Y-86500000D03*
X200902000Y-96838000D03*
X123830500Y-92981749D03*
X162910000Y-78170500D03*
X191700000Y-89330000D03*
X200310500Y-82190000D03*
X144970000Y-77810000D03*
X138113500Y-96740854D03*
X122480000Y-84740000D03*
X174805000Y-75105000D03*
X118192500Y-104412500D03*
X122428000Y-97879500D03*
X177191985Y-74021778D03*
X144700000Y-90630000D03*
X123320000Y-95570000D03*
X186315583Y-72195583D03*
X199390000Y-92910000D03*
X133390000Y-76690000D03*
X208880000Y-78030000D03*
X204705000Y-107740000D03*
X201060000Y-102130000D03*
X209655000Y-109010000D03*
X209655000Y-107740000D03*
X137940378Y-88649622D03*
X121510000Y-103020000D03*
X176280000Y-86805000D03*
X159580000Y-62999500D03*
X198481583Y-103569500D03*
X202750000Y-80650000D03*
X137880000Y-74130000D03*
X151892000Y-104394000D03*
X180340000Y-71520000D03*
X153814735Y-95884735D03*
X158170000Y-81510000D03*
X163630000Y-61200500D03*
X200940000Y-93590000D03*
X197467500Y-90840000D03*
X151779163Y-105793500D03*
X208000000Y-111280000D03*
X125422500Y-77890000D03*
X182660000Y-67360500D03*
X209180000Y-80510000D03*
X175090000Y-93690000D03*
X143250000Y-93540000D03*
X104310000Y-104499500D03*
X177900000Y-67310000D03*
X102290000Y-98480000D03*
X141920000Y-77710000D03*
%TO.N,/MICBIAS*%
X201380000Y-69329500D03*
X202480000Y-66950000D03*
%TO.N,+BATT*%
X197420000Y-101040000D03*
X192410000Y-82890000D03*
%TO.N,/EEP_SDA*%
X153591273Y-71537170D03*
X147040000Y-84740000D03*
X147050000Y-73040500D03*
X152150000Y-75069500D03*
%TO.N,/EEP_SCL*%
X153510000Y-75069500D03*
X147674500Y-82620000D03*
X154700000Y-71540000D03*
X144860000Y-73800000D03*
%TO.N,/USB_D+*%
X202150000Y-95330000D03*
X201410000Y-85810000D03*
%TO.N,/USB_D-*%
X200300000Y-92330000D03*
X200947464Y-87176839D03*
%TO.N,/IO_PC4*%
X145849043Y-107771711D03*
X121840000Y-62848500D03*
%TO.N,/IO_PC5*%
X120860000Y-62400000D03*
X146890497Y-107719500D03*
%TO.N,/IO_PC8*%
X140460000Y-72650000D03*
X124170000Y-80200000D03*
X127310000Y-99990000D03*
X156350000Y-100520000D03*
X123067465Y-82082535D03*
X132770915Y-74317132D03*
%TO.N,/IO_PC9*%
X131620000Y-74069500D03*
X122196414Y-81592355D03*
X138290000Y-72540500D03*
X126000000Y-99920000D03*
X123175266Y-80102502D03*
X156950000Y-101320500D03*
%TO.N,/UART1_RX*%
X174823097Y-92166903D03*
X157810000Y-64920000D03*
X157800000Y-66329500D03*
X171160000Y-66870000D03*
X126100000Y-62390000D03*
X112240000Y-77430000D03*
X170650000Y-87420000D03*
X126020162Y-67240000D03*
%TO.N,/CH_TXD*%
X119230000Y-79240000D03*
X103170500Y-84080628D03*
X108965628Y-81304500D03*
X195220000Y-108030000D03*
%TO.N,/UART1_TX*%
X174700000Y-66329500D03*
X117104483Y-70311384D03*
X171284910Y-86502481D03*
X125180000Y-67890000D03*
X174090000Y-92940000D03*
X123749550Y-62190000D03*
X158890000Y-66329500D03*
X158820000Y-64890000D03*
%TO.N,/CH_RXD*%
X107932375Y-81547625D03*
X120420000Y-79260000D03*
X103170500Y-83030000D03*
X195250000Y-109110000D03*
%TO.N,/BOOT0*%
X161919500Y-88138000D03*
X165579315Y-81471500D03*
X162838500Y-82550000D03*
X159004000Y-87630000D03*
X142480000Y-96639500D03*
%TO.N,/EN_ESP*%
X130350000Y-103799500D03*
X138176000Y-102669500D03*
X106350000Y-103019500D03*
X145660000Y-86320000D03*
X104755000Y-101320500D03*
X145350500Y-93980000D03*
X106350000Y-101290000D03*
%TO.N,Net-(R17-Pad1)*%
X106060000Y-94980000D03*
X111252000Y-99332000D03*
%TO.N,Net-(R18-Pad1)*%
X107330000Y-94860000D03*
X114740000Y-99360000D03*
%TO.N,Net-(R19-Pad1)*%
X108580000Y-94890000D03*
X118147500Y-99217500D03*
%TO.N,Net-(C23-Pad1)*%
X190980000Y-96470000D03*
X207920000Y-112450000D03*
X207390000Y-108280000D03*
X203770688Y-106700688D03*
X192530000Y-101110000D03*
X196555628Y-109274872D03*
%TO.N,/PC0*%
X132025000Y-79870000D03*
X143924500Y-86871585D03*
%TO.N,/PD2*%
X154706143Y-77349758D03*
X133337535Y-78192465D03*
%TO.N,Net-(R26-Pad2)*%
X166250000Y-73979500D03*
X137250000Y-80630000D03*
X169900000Y-77060000D03*
X188135147Y-73864261D03*
%TO.N,/BCLK*%
X156902566Y-78441000D03*
X189933946Y-69519500D03*
%TO.N,/DACLRC*%
X188569500Y-72059500D03*
X193749500Y-72560000D03*
X191376716Y-67243284D03*
X142291793Y-106030000D03*
%TO.N,/DACDAT*%
X188120000Y-69260500D03*
X155695174Y-77205457D03*
%TO.N,/ADCDAT*%
X192360500Y-75510000D03*
X155914929Y-78180500D03*
%TO.N,/BATT_CHG_PA0*%
X124530000Y-95560000D03*
X123080000Y-103100000D03*
X202440000Y-101160000D03*
X127076382Y-84003618D03*
%TO.N,Net-(SW9-Pad1)*%
X168710000Y-74830000D03*
X160292310Y-89452253D03*
%TO.N,Net-(SW10-Pad1)*%
X167100000Y-77220000D03*
X159835839Y-84040404D03*
%TO.N,/BB_COLS_4*%
X161990000Y-104369500D03*
X152891503Y-104394000D03*
%TO.N,/ESP_UART1_RX*%
X113650000Y-94980000D03*
X129339007Y-97279007D03*
%TO.N,/ESP_UART1_TX*%
X126924122Y-91315122D03*
X112400000Y-94990000D03*
%TO.N,/SCK_SPI*%
X99426000Y-69050000D03*
X143016293Y-106925500D03*
%TO.N,/RST_PA6*%
X99420500Y-71490000D03*
X143741209Y-107677719D03*
%TO.N,/MOSI_SPI*%
X144824445Y-107771711D03*
X99426000Y-67600000D03*
%TO.N,/DC_PB0*%
X98576000Y-65720000D03*
X147890000Y-107719500D03*
%TO.N,/BB_MIC*%
X166320000Y-104369500D03*
X166397000Y-98020000D03*
X169310000Y-99770000D03*
X146120000Y-104769500D03*
%TO.N,/BB_ROW_5*%
X181890000Y-110170000D03*
X183050000Y-111773000D03*
%TO.N,/UART3_TX*%
X149550000Y-98430000D03*
X166190000Y-78975934D03*
%TO.N,/UART3_RX*%
X150480000Y-98020000D03*
X165270000Y-78540000D03*
%TO.N,/BB_ROW_1*%
X168979000Y-101261000D03*
X159190000Y-98920000D03*
%TO.N,/BB_ROW_2*%
X167060000Y-98820000D03*
X157999521Y-98087132D03*
%TO.N,/BB_ROW_3*%
X176345000Y-96035000D03*
X157618395Y-96888698D03*
%TO.N,/BB_ROW_4*%
X174780000Y-97370000D03*
X158574396Y-97269500D03*
%TO.N,/WM_PC6*%
X172589503Y-88583500D03*
X159950000Y-94620000D03*
%TO.N,/WM_PC7*%
X160482923Y-93708674D03*
X171590000Y-88583500D03*
%TO.N,/SWD_DIO*%
X159320520Y-85119623D03*
%TO.N,/SWD_CLK*%
X158417279Y-84691651D03*
%TO.N,/BL_PA4*%
X157620000Y-79140500D03*
X103840000Y-74300000D03*
%TO.N,/BB_ROW_6*%
X184570000Y-95980000D03*
X174310000Y-99310000D03*
%TO.N,/BB_ROW_7*%
X174521188Y-100458812D03*
X185541515Y-95745128D03*
%TO.N,/BB_COLS_5*%
X166860000Y-94230000D03*
X169030000Y-94960000D03*
X171430000Y-95320000D03*
X161707914Y-81342843D03*
%TO.N,/BB_COLS_2*%
X166245582Y-96023217D03*
X186396419Y-95016419D03*
%TO.N,/BB_COLS_1*%
X187510000Y-94990000D03*
X168200000Y-97669500D03*
%TO.N,Net-(C25-Pad2)*%
X143516696Y-96519500D03*
X158325500Y-86711123D03*
X173432493Y-89120500D03*
X165360000Y-85549500D03*
X161988500Y-85090000D03*
%TO.N,/ESP_SDA*%
X120469500Y-83170000D03*
X118720000Y-83225000D03*
%TO.N,/SPK_LP*%
X178541386Y-77288614D03*
X177000500Y-75778614D03*
X181870000Y-78330000D03*
X179424850Y-72048883D03*
%TO.N,/HP_R*%
X197560000Y-67989500D03*
X196739500Y-88070000D03*
%TO.N,/OUT3*%
X196339500Y-87030000D03*
X196410000Y-68080000D03*
%TO.N,/HP_L*%
X195200000Y-68310000D03*
X195610000Y-85810000D03*
%TO.N,/ESP_UART1_EN*%
X126800000Y-93010000D03*
X116042535Y-95037465D03*
%TO.N,/UART2_EN*%
X128070000Y-86460000D03*
X128135027Y-83010912D03*
%TO.N,/UART2_RX*%
X131908233Y-94243142D03*
X131150000Y-91150000D03*
%TO.N,Net-(R22-Pad1)*%
X207820000Y-114660500D03*
X103170500Y-85130000D03*
X109140000Y-74830000D03*
X188940000Y-114790000D03*
X198740000Y-113220000D03*
X109965131Y-80904500D03*
%TO.N,/ESP_IO35*%
X116260000Y-80390000D03*
X120000000Y-67310000D03*
X121859500Y-66450000D03*
X118400000Y-76240000D03*
%TO.N,/ESP_IO36*%
X119854653Y-66321122D03*
X121859500Y-65450497D03*
X114940000Y-80370000D03*
X118050500Y-74645976D03*
%TO.N,/ESP_TX0*%
X106820000Y-74900000D03*
X104914622Y-80285378D03*
%TO.N,/Q_2*%
X153670000Y-60198000D03*
X153670000Y-62992000D03*
%TO.N,/QBAR_2*%
X151720000Y-62949500D03*
X154686000Y-59182000D03*
%TO.N,/CH_DTR*%
X202950000Y-108900000D03*
X197230000Y-103740000D03*
X169150000Y-80380000D03*
X193100000Y-94940500D03*
X196040000Y-100670000D03*
X177749500Y-80349500D03*
%TO.N,/CH_RTS*%
X195890000Y-104050000D03*
X178883221Y-81349000D03*
X191900500Y-94940500D03*
X137064927Y-102269500D03*
X194680000Y-100380000D03*
X170027459Y-81099500D03*
%TO.N,/C_2*%
X136144000Y-103632000D03*
X202900000Y-111460000D03*
%TO.N,/BOOT_ESP*%
X137414000Y-95758000D03*
X116586000Y-82804000D03*
%TO.N,Net-(J11-Pad1)*%
X117856000Y-69059500D03*
X156859574Y-65948767D03*
X135890000Y-97282000D03*
X117856000Y-67310000D03*
%TO.N,Net-(J11-Pad6)*%
X119952016Y-65234516D03*
X132268800Y-97028000D03*
X104790378Y-98659622D03*
X144839500Y-66720369D03*
X118425128Y-64735628D03*
X101990500Y-99720000D03*
%TO.N,/PWR_DSP*%
X210530000Y-67470000D03*
%TD*%
D61*
%TO.N,+3.3V*%
X116255000Y-75385000D02*
X116255000Y-76210000D01*
X119360000Y-68800000D02*
X119360000Y-72280000D01*
X119360000Y-72280000D02*
X116255000Y-75385000D01*
X118770000Y-68210000D02*
X119360000Y-68800000D01*
%TO.N,/PWR_DSP*%
X200370000Y-78180000D02*
X199400000Y-79150000D01*
X207870000Y-78180000D02*
X200370000Y-78180000D01*
X208270000Y-79340000D02*
X208270000Y-78580000D01*
D62*
X208270000Y-79340000D02*
X209230000Y-79340000D01*
D61*
X208270000Y-78580000D02*
X207870000Y-78180000D01*
D62*
X207140000Y-79340000D02*
X208270000Y-79340000D01*
D61*
%TO.N,/SPK_RN*%
X180450000Y-65390500D02*
X180450000Y-63220000D01*
X180000000Y-65840500D02*
X180450000Y-65390500D01*
D62*
%TO.N,+3.3V*%
X165820000Y-110609500D02*
X164850000Y-109639500D01*
X165820000Y-110670000D02*
X165820000Y-110609500D01*
%TO.N,GND*%
X198481583Y-103721583D02*
X198481583Y-103569500D01*
X199690000Y-104930000D02*
X198481583Y-103721583D01*
X198481583Y-107378417D02*
X197690000Y-108170000D01*
X198481583Y-103569500D02*
X198481583Y-107378417D01*
D61*
%TO.N,/EEP_SDA*%
X145170000Y-96336747D02*
X145170000Y-95700000D01*
X144930000Y-96576747D02*
X145170000Y-96336747D01*
X142350000Y-103050000D02*
X144930000Y-100470000D01*
X141591793Y-105740050D02*
X142350000Y-104981843D01*
X141591793Y-106518253D02*
X141591793Y-105740050D01*
X142350000Y-104981843D02*
X142350000Y-103050000D01*
X143545251Y-108471711D02*
X141591793Y-106518253D01*
X149181282Y-108471711D02*
X143545251Y-108471711D01*
X149700000Y-106369500D02*
X149700000Y-107952993D01*
X149700000Y-107952993D02*
X149181282Y-108471711D01*
X149680000Y-106349500D02*
X149700000Y-106369500D01*
X144930000Y-100470000D02*
X144930000Y-96576747D01*
%TO.N,/EEP_SCL*%
X144530000Y-96070000D02*
X143570000Y-95110000D01*
X144530000Y-100020000D02*
X144530000Y-96070000D01*
X141700000Y-105066157D02*
X141700000Y-102850000D01*
X141700000Y-102850000D02*
X144530000Y-100020000D01*
X141191793Y-106683939D02*
X141191793Y-105574365D01*
X143379566Y-108871711D02*
X141191793Y-106683939D01*
X149346968Y-108871711D02*
X143379566Y-108871711D01*
X150538093Y-107680586D02*
X149346968Y-108871711D01*
X150538093Y-107257027D02*
X150538093Y-107680586D01*
X141191793Y-105574365D02*
X141700000Y-105066157D01*
%TO.N,/ESP_SDA*%
X166820000Y-108717000D02*
X166820000Y-110670000D01*
X166090000Y-107987000D02*
X166820000Y-108717000D01*
X162972112Y-107987000D02*
X166090000Y-107987000D01*
X161579112Y-106594000D02*
X162972112Y-107987000D01*
X149968290Y-110371711D02*
X153746000Y-106594000D01*
X142758245Y-110371711D02*
X149968290Y-110371711D01*
X138736532Y-106350000D02*
X142758245Y-110371711D01*
X134516498Y-106350000D02*
X138736532Y-106350000D01*
X133826496Y-105660000D02*
X134516498Y-106350000D01*
X153746000Y-106594000D02*
X161579112Y-106594000D01*
X103724315Y-105660000D02*
X133826496Y-105660000D01*
X102940000Y-104875685D02*
X103724315Y-105660000D01*
X102940000Y-104125450D02*
X102940000Y-104875685D01*
X105556000Y-101509450D02*
X102940000Y-104125450D01*
X105556000Y-100774000D02*
X105556000Y-101509450D01*
X124500000Y-90150000D02*
X121590000Y-93060000D01*
X118138185Y-98117500D02*
X108212500Y-98117500D01*
X124500000Y-85635686D02*
X124500000Y-90150000D01*
X121590000Y-93060000D02*
X121590000Y-94665685D01*
X108212500Y-98117500D02*
X105556000Y-100774000D01*
X121590000Y-94665685D02*
X118138185Y-98117500D01*
X122034314Y-83170000D02*
X124500000Y-85635686D01*
X120469500Y-83170000D02*
X122034314Y-83170000D01*
%TO.N,/ESP_SCL*%
X167820000Y-108360000D02*
X167820000Y-110670000D01*
X167047000Y-107587000D02*
X167820000Y-108360000D01*
X163137798Y-107587000D02*
X167047000Y-107587000D01*
X153580315Y-106194000D02*
X161744798Y-106194000D01*
X161744798Y-106194000D02*
X163137798Y-107587000D01*
X149802604Y-109971711D02*
X153580315Y-106194000D01*
X142923930Y-109971711D02*
X149802604Y-109971711D01*
X138892218Y-105940000D02*
X142923930Y-109971711D01*
X135147817Y-105940000D02*
X138892218Y-105940000D01*
X135137817Y-105950000D02*
X135147817Y-105940000D01*
X133992182Y-105260000D02*
X134682183Y-105950000D01*
X103890000Y-105260000D02*
X133992182Y-105260000D01*
X103340000Y-104291136D02*
X103340000Y-104710000D01*
X103831136Y-103800000D02*
X103340000Y-104291136D01*
X107040000Y-103800000D02*
X103831136Y-103800000D01*
X107850000Y-102990000D02*
X107040000Y-103800000D01*
X107850000Y-99945686D02*
X107850000Y-102990000D01*
X109195686Y-98600000D02*
X107850000Y-99945686D01*
X134682183Y-105950000D02*
X135137817Y-105950000D01*
X117775050Y-98600000D02*
X109195686Y-98600000D01*
X103340000Y-104710000D02*
X103890000Y-105260000D01*
X117857550Y-98517500D02*
X117775050Y-98600000D01*
X118437450Y-98517500D02*
X117857550Y-98517500D01*
X118519950Y-98600000D02*
X118437450Y-98517500D01*
X119000000Y-98600000D02*
X118519950Y-98600000D01*
X121450000Y-82020000D02*
X124900000Y-85470000D01*
X122940000Y-94970000D02*
X122630000Y-94970000D01*
X119735000Y-82020000D02*
X121450000Y-82020000D01*
X124900000Y-93010000D02*
X122940000Y-94970000D01*
X119670000Y-81955000D02*
X119735000Y-82020000D01*
X124900000Y-85470000D02*
X124900000Y-93010000D01*
X118720000Y-81955000D02*
X119670000Y-81955000D01*
X122630000Y-94970000D02*
X119000000Y-98600000D01*
D62*
%TO.N,GND*%
X139120036Y-105390000D02*
X134910000Y-105390000D01*
X149574786Y-109421711D02*
X143151748Y-109421711D01*
X143151748Y-109421711D02*
X139120036Y-105390000D01*
X151779163Y-105793500D02*
X151779163Y-107217334D01*
X151779163Y-107217334D02*
X149574786Y-109421711D01*
D61*
%TO.N,/EEP_SDA*%
X175900000Y-111075686D02*
X175900000Y-110700000D01*
X174725686Y-112250000D02*
X175900000Y-111075686D01*
X172454315Y-112250000D02*
X174725686Y-112250000D01*
X169910000Y-109705685D02*
X172454315Y-112250000D01*
X169910000Y-106980000D02*
X169910000Y-109705685D01*
D62*
%TO.N,GND*%
X168903000Y-106417000D02*
X168903000Y-107037000D01*
X177291050Y-106017000D02*
X169303000Y-106017000D01*
X180120000Y-110230000D02*
X180120000Y-108845950D01*
X180120000Y-108845950D02*
X177291050Y-106017000D01*
X169303000Y-106017000D02*
X168903000Y-106417000D01*
D61*
%TO.N,/BB_ROW_5*%
X149975000Y-94206574D02*
X149975000Y-92235000D01*
X149500000Y-94681574D02*
X149975000Y-94206574D01*
X149500000Y-97310050D02*
X149500000Y-94681574D01*
X148840000Y-97970050D02*
X149500000Y-97310050D01*
X148840000Y-102331950D02*
X148840000Y-97970050D01*
X151602050Y-105094000D02*
X148840000Y-102331950D01*
X162151434Y-105094000D02*
X151602050Y-105094000D01*
X162175934Y-105069500D02*
X162151434Y-105094000D01*
X167806269Y-105467000D02*
X167076769Y-106196500D01*
X177518868Y-105467000D02*
X167806269Y-105467000D01*
X167076769Y-106196500D02*
X163302934Y-106196500D01*
X180863000Y-108811132D02*
X177518868Y-105467000D01*
X180863000Y-110595397D02*
X180863000Y-108811132D01*
X182040603Y-111773000D02*
X180863000Y-110595397D01*
X163302934Y-106196500D02*
X162175934Y-105069500D01*
X183050000Y-111773000D02*
X182040603Y-111773000D01*
D63*
%TO.N,/BB_COLS_4*%
X176230000Y-94940000D02*
X172405000Y-94940000D01*
X186992688Y-99168000D02*
X180458000Y-99168000D01*
X191197500Y-103372812D02*
X186992688Y-99168000D01*
X191197500Y-110027396D02*
X191197500Y-103372812D01*
X190330595Y-110894301D02*
X191197500Y-110027396D01*
X180458000Y-99168000D02*
X176230000Y-94940000D01*
X181226500Y-108660566D02*
X181226500Y-110444831D01*
X167655702Y-105103500D02*
X177669434Y-105103500D01*
X181226500Y-110444831D02*
X181675970Y-110894301D01*
X181675970Y-110894301D02*
X190330595Y-110894301D01*
X166926202Y-105833000D02*
X167655702Y-105103500D01*
X177669434Y-105103500D02*
X181226500Y-108660566D01*
X163453500Y-105833000D02*
X166926202Y-105833000D01*
X161990000Y-104369500D02*
X163453500Y-105833000D01*
D61*
%TO.N,/SWD_CLK*%
X187970000Y-109530000D02*
X187970000Y-108040000D01*
X177820000Y-104740000D02*
X183283801Y-110203801D01*
X167505136Y-104740000D02*
X177820000Y-104740000D01*
X187296199Y-110203801D02*
X187970000Y-109530000D01*
X166775636Y-105469500D02*
X167505136Y-104740000D01*
X163769500Y-105469500D02*
X166775636Y-105469500D01*
X162700000Y-104400000D02*
X163769500Y-105469500D01*
X162700000Y-101320500D02*
X162700000Y-104400000D01*
X183283801Y-110203801D02*
X187296199Y-110203801D01*
%TO.N,/SWD_DIO*%
X185210000Y-104340000D02*
X185970000Y-105100000D01*
X166609950Y-105069500D02*
X167339450Y-104340000D01*
X163935186Y-105069500D02*
X166609950Y-105069500D01*
X163750000Y-104884314D02*
X163935186Y-105069500D01*
X163750000Y-101340000D02*
X163750000Y-104884314D01*
X163790000Y-101300000D02*
X163750000Y-101340000D01*
X167339450Y-104340000D02*
X185210000Y-104340000D01*
X185970000Y-105100000D02*
X185970000Y-108040000D01*
%TO.N,/EEP_SCL*%
X174900000Y-111510000D02*
X174900000Y-110700000D01*
X174560000Y-111850000D02*
X174900000Y-111510000D01*
X172620000Y-111850000D02*
X174560000Y-111850000D01*
X171240000Y-110470000D02*
X172620000Y-111850000D01*
X171240000Y-107719465D02*
X171240000Y-110470000D01*
X170960498Y-107439963D02*
X171240000Y-107719465D01*
D62*
%TO.N,GND*%
X168573000Y-106707000D02*
X168903000Y-107037000D01*
X167344087Y-106707000D02*
X168573000Y-106707000D01*
X167304586Y-106746500D02*
X167344087Y-106707000D01*
X163075116Y-106746500D02*
X167304586Y-106746500D01*
X161972616Y-105644000D02*
X163075116Y-106746500D01*
X151928663Y-105644000D02*
X161972616Y-105644000D01*
X151779163Y-105793500D02*
X151928663Y-105644000D01*
X132734600Y-103224600D02*
X134220000Y-104710000D01*
X134900000Y-105390000D02*
X134220000Y-104710000D01*
D61*
%TO.N,/DACLRC*%
X145975000Y-93467766D02*
X145975000Y-92235000D01*
X146050000Y-93542766D02*
X145975000Y-93467766D01*
X145489999Y-96582434D02*
X146050000Y-96022432D01*
X145490000Y-100698072D02*
X145489999Y-96582434D01*
X142870000Y-104715783D02*
X142870000Y-103318072D01*
X142866209Y-104719574D02*
X142870000Y-104715783D01*
X142870000Y-103318072D02*
X145490000Y-100698072D01*
X142866209Y-105455584D02*
X142866209Y-104719574D01*
X146050000Y-96022432D02*
X146050000Y-93542766D01*
X142291793Y-106030000D02*
X142866209Y-105455584D01*
D64*
%TO.N,/SCK_SPI*%
X146475000Y-93842792D02*
X146475000Y-92235000D01*
X146574998Y-93942790D02*
X146475000Y-93842792D01*
X146575000Y-96098473D02*
X146574998Y-93942790D01*
X143295000Y-104891823D02*
X143295000Y-103494112D01*
X143291209Y-104895614D02*
X143295000Y-104891823D01*
X143295000Y-103494112D02*
X145915000Y-100874112D01*
X143291209Y-106650584D02*
X143291209Y-104895614D01*
X145914999Y-96758475D02*
X146575000Y-96098473D01*
X143016293Y-106925500D02*
X143291209Y-106650584D01*
X145915000Y-100874112D02*
X145914999Y-96758475D01*
%TO.N,/RST_PA6*%
X146975000Y-93706396D02*
X146975000Y-92235000D01*
X147025000Y-96284869D02*
X147024998Y-93756394D01*
X143745000Y-103680508D02*
X146365000Y-101060508D01*
X146365000Y-101060508D02*
X146365000Y-96944871D01*
X147024998Y-93756394D02*
X146975000Y-93706396D01*
X143745000Y-105078219D02*
X143745000Y-103680508D01*
X146365000Y-96944871D02*
X147025000Y-96284869D01*
X143741209Y-105082010D02*
X143745000Y-105078219D01*
X143741209Y-107677719D02*
X143741209Y-105082010D01*
D61*
%TO.N,/MOSI_SPI*%
X147475000Y-93807436D02*
X147475000Y-92235000D01*
X146790000Y-97120912D02*
X147450000Y-96460910D01*
X146790000Y-101236548D02*
X146790000Y-97120912D01*
X147450000Y-96460910D02*
X147449999Y-93832438D01*
X144170000Y-103856548D02*
X146790000Y-101236548D01*
X147449999Y-93832438D02*
X147475000Y-93807436D01*
X144170000Y-106693708D02*
X144170000Y-103856548D01*
X144824445Y-107348153D02*
X144170000Y-106693708D01*
X144824445Y-107771711D02*
X144824445Y-107348153D01*
D64*
%TO.N,/IO_PC4*%
X147975000Y-93908476D02*
X147975000Y-92235000D01*
X147875000Y-96636952D02*
X147875000Y-94008477D01*
X147215000Y-97296952D02*
X147875000Y-96636952D01*
X144595000Y-104032588D02*
X147215000Y-101412588D01*
X144595000Y-106517668D02*
X144595000Y-104032588D01*
X145849043Y-107771711D02*
X144595000Y-106517668D01*
X147215000Y-101412588D02*
X147215000Y-97296952D01*
X147875000Y-94008477D02*
X147975000Y-93908476D01*
D61*
%TO.N,/IO_PC5*%
X147640000Y-97472992D02*
X148300000Y-96812992D01*
X147640000Y-101588628D02*
X147640000Y-97472992D01*
X148300000Y-94184517D02*
X148475000Y-94009516D01*
X145020000Y-104208628D02*
X147640000Y-101588628D01*
X148300000Y-96812992D02*
X148300000Y-94184517D01*
X145020000Y-105849003D02*
X145020000Y-104208628D01*
X146890497Y-107719500D02*
X145020000Y-105849003D01*
X148475000Y-94009516D02*
X148475000Y-92235000D01*
%TO.N,/DC_PB0*%
X148975000Y-94075202D02*
X148975000Y-92235000D01*
X148700000Y-94350202D02*
X148975000Y-94075202D01*
X148040000Y-101754314D02*
X148040000Y-97638678D01*
X148700000Y-96978678D02*
X148700000Y-94350202D01*
X145420000Y-104374314D02*
X148040000Y-101754314D01*
X148040000Y-97638678D02*
X148700000Y-96978678D01*
X145420000Y-105249500D02*
X145420000Y-104374314D01*
X147890000Y-107719500D02*
X145420000Y-105249500D01*
%TO.N,/BB_MIC*%
X149475000Y-94140888D02*
X149475000Y-92235000D01*
X149100000Y-97144364D02*
X149100000Y-94515888D01*
X149100000Y-94515888D02*
X149475000Y-94140888D01*
X148440000Y-97804364D02*
X149100000Y-97144364D01*
X148440000Y-101920000D02*
X148440000Y-97804364D01*
X146120000Y-104240000D02*
X148440000Y-101920000D01*
X146120000Y-104769500D02*
X146120000Y-104240000D01*
%TO.N,/UART3_TX*%
X150475000Y-94272260D02*
X150475000Y-92235000D01*
X149900000Y-97475736D02*
X149900000Y-94847259D01*
X149900000Y-94847259D02*
X150475000Y-94272260D01*
X149550000Y-97825736D02*
X149900000Y-97475736D01*
X149550000Y-98430000D02*
X149550000Y-97825736D01*
%TO.N,/UART3_RX*%
X150975000Y-94337944D02*
X150975000Y-92235000D01*
X150480000Y-98020000D02*
X150300000Y-97840000D01*
X150300000Y-97840000D02*
X150300000Y-95012944D01*
X150300000Y-95012944D02*
X150975000Y-94337944D01*
%TO.N,/IO_PC9*%
X125300000Y-85304315D02*
X121862843Y-81867157D01*
X125300000Y-99050550D02*
X125300000Y-85304315D01*
X121921612Y-81867157D02*
X122196414Y-81592355D01*
X126000000Y-99750550D02*
X125300000Y-99050550D01*
X126000000Y-99920000D02*
X126000000Y-99750550D01*
X121862843Y-81867157D02*
X121921612Y-81867157D01*
%TO.N,/IO_PC8*%
X122750686Y-82189314D02*
X122857465Y-82082535D01*
X125700000Y-85138629D02*
X122750686Y-82189314D01*
X125700000Y-98380000D02*
X125700000Y-85138629D01*
X122857465Y-82082535D02*
X123067465Y-82082535D01*
X127310000Y-99990000D02*
X125700000Y-98380000D01*
%TO.N,Net-(J11-Pad6)*%
X133199450Y-99300000D02*
X134119200Y-99300000D01*
X132268800Y-98369350D02*
X133199450Y-99300000D01*
X132268800Y-97028000D02*
X132268800Y-98369350D01*
%TO.N,/EN_ESP*%
X136493503Y-91990000D02*
X135723503Y-92760000D01*
X139994314Y-91990000D02*
X136493503Y-91990000D01*
X140542157Y-92537843D02*
X139994314Y-91990000D01*
X140940000Y-94680000D02*
X140542157Y-94282157D01*
X142050000Y-95540000D02*
X141180050Y-95540000D01*
X140940000Y-95299950D02*
X140940000Y-94680000D01*
X145090500Y-94240000D02*
X143350000Y-94240000D01*
X143350000Y-94240000D02*
X142050000Y-95540000D01*
X140542157Y-94282157D02*
X140542157Y-92537843D01*
X145350500Y-93980000D02*
X145090500Y-94240000D01*
X141180050Y-95540000D02*
X140940000Y-95299950D01*
D62*
%TO.N,GND*%
X123200000Y-104710000D02*
X122890000Y-104400000D01*
X134220000Y-104710000D02*
X123200000Y-104710000D01*
X179650000Y-110700000D02*
X180120000Y-110230000D01*
X176900000Y-110700000D02*
X179650000Y-110700000D01*
X180120000Y-116040000D02*
X180120000Y-110230000D01*
%TO.N,+3.3V*%
X173010500Y-110700000D02*
X171950000Y-109639500D01*
X173900000Y-110700000D02*
X173010500Y-110700000D01*
X171950000Y-107450500D02*
X171960000Y-107440500D01*
X171950000Y-109639500D02*
X171950000Y-107450500D01*
%TO.N,GND*%
X185911094Y-116040000D02*
X180120000Y-116040000D01*
X191690000Y-110520000D02*
X191431094Y-110520000D01*
X191431094Y-110520000D02*
X185911094Y-116040000D01*
X168820000Y-107120000D02*
X168903000Y-107037000D01*
X168820000Y-110670000D02*
X168820000Y-107120000D01*
X109702500Y-104350000D02*
X111232500Y-102820000D01*
X104459500Y-104350000D02*
X109702500Y-104350000D01*
X104310000Y-104499500D02*
X104459500Y-104350000D01*
D61*
%TO.N,/EN_ESP*%
X106350000Y-103019500D02*
X106350000Y-101290000D01*
D62*
%TO.N,GND*%
X111232500Y-103242500D02*
X112350000Y-104360000D01*
X116242500Y-104360000D02*
X116295000Y-104412500D01*
X111232500Y-102820000D02*
X111232500Y-103242500D01*
X112350000Y-104360000D02*
X116242500Y-104360000D01*
X116295000Y-104412500D02*
X114702500Y-102820000D01*
X118192500Y-104412500D02*
X116295000Y-104412500D01*
X118205000Y-104400000D02*
X118192500Y-104412500D01*
X122890000Y-104400000D02*
X118205000Y-104400000D01*
X122890000Y-104400000D02*
X121510000Y-103020000D01*
D61*
%TO.N,/SPK_LP*%
X179450000Y-62580000D02*
X179450000Y-63220000D01*
X179820000Y-62210000D02*
X179450000Y-62580000D01*
X181890000Y-62210000D02*
X179820000Y-62210000D01*
X182160000Y-62480000D02*
X181890000Y-62210000D01*
X181670000Y-65100000D02*
X182160000Y-64610000D01*
X181670000Y-69230000D02*
X181670000Y-65100000D01*
X180080000Y-70820000D02*
X181670000Y-69230000D01*
X182160000Y-64610000D02*
X182160000Y-62480000D01*
X179640000Y-71230050D02*
X180050050Y-70820000D01*
X179640000Y-71833733D02*
X179640000Y-71230050D01*
X180050050Y-70820000D02*
X180080000Y-70820000D01*
X179424850Y-72048883D02*
X179640000Y-71833733D01*
%TO.N,/SPK_RN*%
X180656128Y-75020000D02*
X181392500Y-75020000D01*
X179807500Y-74171371D02*
X180656128Y-75020000D01*
X179807500Y-73318186D02*
X179807500Y-74171371D01*
X184160000Y-68836435D02*
X180740000Y-72256437D01*
X184160000Y-66840500D02*
X184160000Y-68836435D01*
X182880000Y-65560500D02*
X184160000Y-66840500D01*
X180740000Y-72385686D02*
X179807500Y-73318186D01*
X180740000Y-72256437D02*
X180740000Y-72385686D01*
%TO.N,/WM_PC7*%
X172040000Y-68585635D02*
X172210000Y-68755635D01*
X172210000Y-68755635D02*
X172210000Y-86540000D01*
X175560000Y-67110000D02*
X172524314Y-67110000D01*
X172040000Y-67594315D02*
X172040000Y-68585635D01*
X172210000Y-86540000D02*
X171930000Y-86820000D01*
X176450000Y-66220000D02*
X175560000Y-67110000D01*
X172524314Y-67110000D02*
X172040000Y-67594315D01*
X176450000Y-63220000D02*
X176450000Y-66220000D01*
%TO.N,/WM_PC6*%
X175777817Y-67520000D02*
X177450000Y-65847817D01*
X172690000Y-67510000D02*
X175767817Y-67510000D01*
X172610000Y-68589950D02*
X172440000Y-68419950D01*
X177450000Y-65847817D02*
X177450000Y-63220000D01*
X172440000Y-67760000D02*
X172690000Y-67510000D01*
X175767817Y-67510000D02*
X175777817Y-67520000D01*
X172610000Y-86650000D02*
X172610000Y-68589950D01*
X172589503Y-86670497D02*
X172610000Y-86650000D01*
X172589503Y-88583500D02*
X172589503Y-86670497D01*
X172440000Y-68419950D02*
X172440000Y-67760000D01*
%TO.N,/SPK_LN*%
X180393386Y-77020000D02*
X181392500Y-77020000D01*
X177582215Y-73422764D02*
X178207500Y-74048050D01*
X178207500Y-74048050D02*
X178207500Y-74834113D01*
X178207500Y-74834113D02*
X180393386Y-77020000D01*
X178600000Y-63370000D02*
X178600000Y-71138679D01*
X178600000Y-71138679D02*
X177582215Y-72156464D01*
X178450000Y-63220000D02*
X178600000Y-63370000D01*
X177582215Y-72156464D02*
X177582215Y-73422764D01*
%TO.N,/SPK_RP*%
X181450000Y-63220000D02*
X181450000Y-64754314D01*
%TO.N,/EEP_SDA*%
X180721814Y-74520000D02*
X181392500Y-74520000D01*
X180207500Y-74005686D02*
X180721814Y-74520000D01*
X180207500Y-73483872D02*
X180207500Y-74005686D01*
X181140000Y-72551372D02*
X180207500Y-73483872D01*
X181140000Y-72422122D02*
X181140000Y-72551372D01*
X187001621Y-66560500D02*
X181140000Y-72422122D01*
X189413814Y-66560500D02*
X187001621Y-66560500D01*
X190100000Y-65874314D02*
X189413814Y-66560500D01*
X190100000Y-63681505D02*
X190100000Y-65874314D01*
X188178495Y-61760000D02*
X190100000Y-63681505D01*
X166083503Y-61760000D02*
X188178495Y-61760000D01*
X165543003Y-62300500D02*
X166083503Y-61760000D01*
X163174365Y-62300500D02*
X165543003Y-62300500D01*
X163123864Y-62250000D02*
X163174365Y-62300500D01*
X143530000Y-63485686D02*
X144765686Y-62250000D01*
X144140000Y-66450051D02*
X143530000Y-65840050D01*
X145199950Y-67510000D02*
X144630000Y-67510000D01*
X145940000Y-68250050D02*
X145199950Y-67510000D01*
X145940000Y-71930500D02*
X145940000Y-68250050D01*
X147050000Y-73040500D02*
X145940000Y-71930500D01*
X144765686Y-62250000D02*
X163123864Y-62250000D01*
X144140000Y-67020000D02*
X144140000Y-66450051D01*
X143530000Y-65840050D02*
X143530000Y-63485686D01*
X144630000Y-67510000D02*
X144140000Y-67020000D01*
%TO.N,/EEP_SCL*%
X187167307Y-66960500D02*
X183017807Y-71110000D01*
X189579500Y-66960500D02*
X187167307Y-66960500D01*
X190500000Y-66040000D02*
X189579500Y-66960500D01*
X190500000Y-63515818D02*
X190500000Y-66040000D01*
X188344182Y-61360000D02*
X190500000Y-63515818D01*
X165917817Y-61360000D02*
X188344182Y-61360000D01*
X165377317Y-61900500D02*
X165917817Y-61360000D01*
X144600000Y-61850000D02*
X163289550Y-61850000D01*
X143130000Y-63320000D02*
X144600000Y-61850000D01*
X163340050Y-61900500D02*
X165377317Y-61900500D01*
X143130000Y-66005735D02*
X143130000Y-63320000D01*
X143740000Y-66615736D02*
X143130000Y-66005735D01*
X163289550Y-61850000D02*
X163340050Y-61900500D01*
X143740000Y-72680000D02*
X143740000Y-66615736D01*
X144860000Y-73800000D02*
X143740000Y-72680000D01*
%TO.N,/SPK_RP*%
X180459072Y-76520000D02*
X181392500Y-76520000D01*
X178607500Y-74668428D02*
X180459072Y-76520000D01*
X178607500Y-73882364D02*
X178607500Y-74668428D01*
X177982215Y-73257079D02*
X178607500Y-73882364D01*
X177982215Y-72322149D02*
X177982215Y-73257079D01*
X181270000Y-64934315D02*
X181270000Y-69034364D01*
X181270000Y-69034364D02*
X177982215Y-72322149D01*
X181450000Y-64754314D02*
X181270000Y-64934315D01*
D62*
%TO.N,+3.3V*%
X169490000Y-66910000D02*
X172430000Y-63970000D01*
X172430000Y-63970000D02*
X172430000Y-63500000D01*
X169490000Y-68130000D02*
X169490000Y-66910000D01*
X169410000Y-68210000D02*
X169490000Y-68130000D01*
D61*
%TO.N,/UART1_RX*%
X170584910Y-87354910D02*
X170650000Y-87420000D01*
X170584910Y-86212531D02*
X170584910Y-87354910D01*
X171240000Y-68917007D02*
X171410000Y-69087007D01*
X171240000Y-67570000D02*
X171240000Y-68917007D01*
X171410000Y-85387441D02*
X170584910Y-86212531D01*
X171160000Y-67490000D02*
X171240000Y-67570000D01*
X171410000Y-69087007D02*
X171410000Y-85387441D01*
X171160000Y-66870000D02*
X171160000Y-67490000D01*
%TO.N,/UART3_TX*%
X171450000Y-63639601D02*
X169634800Y-65454801D01*
X171450000Y-63250000D02*
X171450000Y-63639601D01*
X171460000Y-63240000D02*
X171450000Y-63250000D01*
X168710000Y-66379600D02*
X169589600Y-65500000D01*
X166840000Y-72260000D02*
X166840000Y-71640000D01*
X165550000Y-73550000D02*
X166840000Y-72260000D01*
X168710000Y-69770000D02*
X168710000Y-66379600D01*
X165550000Y-74269450D02*
X165550000Y-73550000D01*
X166190000Y-74909450D02*
X165550000Y-74269450D01*
X166190000Y-78975934D02*
X166190000Y-74909450D01*
X166840000Y-71640000D02*
X168710000Y-69770000D01*
%TO.N,GND*%
X167910000Y-66048230D02*
X167910000Y-67470000D01*
X169460000Y-64498229D02*
X167910000Y-66048230D01*
X169460000Y-63240000D02*
X169460000Y-64498229D01*
X167910000Y-67470000D02*
X167175000Y-68205000D01*
X167175000Y-68205000D02*
X163854000Y-68205000D01*
%TO.N,/UART3_RX*%
X165790000Y-78020000D02*
X165270000Y-78540000D01*
X165790000Y-75160000D02*
X165790000Y-78020000D01*
X166440000Y-71474314D02*
X166440000Y-72094314D01*
X165150000Y-74520000D02*
X165790000Y-75160000D01*
X168310000Y-69604314D02*
X166440000Y-71474314D01*
X165150000Y-73384314D02*
X165150000Y-74520000D01*
X168310000Y-66213916D02*
X168310000Y-69604314D01*
X170460000Y-64063915D02*
X168310000Y-66213916D01*
X170460000Y-63240000D02*
X170460000Y-64063915D01*
X166440000Y-72094314D02*
X165150000Y-73384314D01*
D62*
%TO.N,GND*%
X165200000Y-61300000D02*
X125810000Y-61300000D01*
X167600000Y-58900000D02*
X165200000Y-61300000D01*
X186662000Y-58900000D02*
X167600000Y-58900000D01*
X192372000Y-64610000D02*
X186662000Y-58900000D01*
X193500000Y-64610000D02*
X192372000Y-64610000D01*
D61*
%TO.N,Net-(J11-Pad6)*%
X104790378Y-99488826D02*
X104790378Y-98659622D01*
X104559204Y-99720000D02*
X104790378Y-99488826D01*
X101990500Y-99720000D02*
X104559204Y-99720000D01*
D63*
%TO.N,/BB_ROW_7*%
X172790000Y-98930000D02*
X172230000Y-98930000D01*
X174318812Y-100458812D02*
X172790000Y-98930000D01*
X174521188Y-100458812D02*
X174318812Y-100458812D01*
D61*
%TO.N,/BB_COLS_5*%
X167590000Y-94960000D02*
X169030000Y-94960000D01*
D62*
%TO.N,GND*%
X134119200Y-101840000D02*
X132734600Y-103224600D01*
D61*
%TO.N,/BB_MIC*%
X166320000Y-104369500D02*
X166320000Y-98097000D01*
%TO.N,+3.3V*%
X182620000Y-106900000D02*
X182830000Y-106900000D01*
X182830000Y-106900000D02*
X183970000Y-108040000D01*
X203925000Y-116140000D02*
X204705000Y-115360000D01*
X199980000Y-115130000D02*
X200990000Y-116140000D01*
X199980000Y-112990000D02*
X199980000Y-115130000D01*
X198310000Y-111320000D02*
X199980000Y-112990000D01*
X193540000Y-111740000D02*
X193960000Y-111320000D01*
X193960000Y-111320000D02*
X198310000Y-111320000D01*
X200990000Y-116140000D02*
X203925000Y-116140000D01*
%TO.N,/BB_ROW_1*%
X155820000Y-97430000D02*
X155820000Y-91155000D01*
X154975000Y-90310000D02*
X153900000Y-90310000D01*
X157310000Y-98920000D02*
X155820000Y-97430000D01*
X155820000Y-91155000D02*
X154975000Y-90310000D01*
X159190000Y-98920000D02*
X157310000Y-98920000D01*
%TO.N,/BB_ROW_2*%
X156220000Y-90989314D02*
X155040686Y-89810000D01*
X155040686Y-89810000D02*
X153900000Y-89810000D01*
X156220000Y-96930000D02*
X156220000Y-90989314D01*
X157377132Y-98087132D02*
X156220000Y-96930000D01*
X157999521Y-98087132D02*
X157377132Y-98087132D01*
%TO.N,/BB_ROW_4*%
X155172057Y-88810000D02*
X153900000Y-88810000D01*
X157020000Y-90657944D02*
X155172057Y-88810000D01*
X157020000Y-94130000D02*
X157020000Y-90657944D01*
X158574396Y-95684396D02*
X157020000Y-94130000D01*
X158574396Y-97269500D02*
X158574396Y-95684396D01*
%TO.N,/BB_COLS_3*%
X157337552Y-102870000D02*
X158242000Y-102870000D01*
X154690000Y-100222448D02*
X157337552Y-102870000D01*
X154690000Y-96635815D02*
X154690000Y-100222448D01*
X153054670Y-90770000D02*
X154869314Y-90770000D01*
X152234670Y-89950000D02*
X153054670Y-90770000D01*
X155315000Y-96010815D02*
X154690000Y-96635815D01*
X151247183Y-89950000D02*
X152234670Y-89950000D01*
X154869314Y-90770000D02*
X155315000Y-91215686D01*
X145107183Y-83810000D02*
X151247183Y-89950000D01*
X142550000Y-83810000D02*
X145107183Y-83810000D01*
X155315000Y-91215686D02*
X155315000Y-96010815D01*
D64*
%TO.N,/BB_COLS_4*%
X145006143Y-84310000D02*
X142550000Y-84310000D01*
X151126143Y-90430000D02*
X145006143Y-84310000D01*
X152878630Y-91195000D02*
X152113630Y-90430000D01*
X154693274Y-91195000D02*
X152878630Y-91195000D01*
X154890000Y-91391726D02*
X154693274Y-91195000D01*
X154265000Y-96459775D02*
X154890000Y-95834775D01*
X154265000Y-103020503D02*
X154265000Y-96459775D01*
X154890000Y-95834775D02*
X154890000Y-91391726D01*
X152113630Y-90430000D02*
X151126143Y-90430000D01*
X152891503Y-104394000D02*
X154265000Y-103020503D01*
D63*
%TO.N,/BB_ROW_5*%
X173205500Y-96826052D02*
X172919448Y-96540000D01*
X186450896Y-100476000D02*
X176556000Y-100476000D01*
X188960000Y-102985104D02*
X186450896Y-100476000D01*
X188452699Y-110567301D02*
X188960000Y-110060000D01*
X173205500Y-97125500D02*
X173205500Y-96826052D01*
X182287301Y-110567301D02*
X188452699Y-110567301D01*
X176556000Y-100476000D02*
X173205500Y-97125500D01*
X181890000Y-110170000D02*
X182287301Y-110567301D01*
X188960000Y-110060000D02*
X188960000Y-102985104D01*
X172919448Y-96540000D02*
X172405000Y-96540000D01*
D62*
%TO.N,GND*%
X189970000Y-109980000D02*
X189970000Y-108040000D01*
X189971188Y-109981188D02*
X189970000Y-109980000D01*
D61*
%TO.N,/RST_PA6*%
X100130500Y-72200000D02*
X101180000Y-72200000D01*
X99420500Y-71490000D02*
X100130500Y-72200000D01*
D62*
%TO.N,GND*%
X102290000Y-98480000D02*
X100960000Y-97150000D01*
X100960000Y-97150000D02*
X100960000Y-96420000D01*
D61*
%TO.N,+3.3V*%
X102275000Y-97373744D02*
X102275000Y-96460000D01*
X103390878Y-98489622D02*
X102275000Y-97373744D01*
%TO.N,/EN_ESP*%
X105520000Y-100244314D02*
X105156000Y-100608314D01*
X105156000Y-100608314D02*
X105156000Y-100919500D01*
X105156000Y-100919500D02*
X104755000Y-101320500D01*
X105520000Y-98400000D02*
X105520000Y-100244314D01*
X103500000Y-96945000D02*
X104065000Y-97510000D01*
X103500000Y-96420000D02*
X103500000Y-96945000D01*
X104065000Y-97510000D02*
X104630000Y-97510000D01*
X104630000Y-97510000D02*
X105520000Y-98400000D01*
%TO.N,/DC_PB0*%
X99631050Y-70245000D02*
X101135000Y-70245000D01*
X98576000Y-69189950D02*
X99631050Y-70245000D01*
X98576000Y-65720000D02*
X98576000Y-69189950D01*
D64*
%TO.N,/MOSI_SPI*%
X99646000Y-67820000D02*
X100825500Y-67820000D01*
X99426000Y-67600000D02*
X99646000Y-67820000D01*
%TO.N,/SCK_SPI*%
X110620000Y-62130000D02*
X110620000Y-64650000D01*
X110470000Y-61980000D02*
X110620000Y-62130000D01*
X101470000Y-61980000D02*
X110470000Y-61980000D01*
X101345000Y-62105000D02*
X101470000Y-61980000D01*
X101345000Y-66574569D02*
X101345000Y-62105000D01*
X101163604Y-69580000D02*
X101550000Y-69193604D01*
X101550000Y-69193604D02*
X101550000Y-66779569D01*
X101550000Y-66779569D02*
X101345000Y-66574569D01*
X99956000Y-69580000D02*
X101163604Y-69580000D01*
X99426000Y-69050000D02*
X99956000Y-69580000D01*
%TO.N,/DC_PB0*%
X101840000Y-62430000D02*
X105840000Y-62430000D01*
X101795000Y-62475000D02*
X101840000Y-62430000D01*
X101795000Y-66388173D02*
X101795000Y-62475000D01*
X105840000Y-62430000D02*
X106620000Y-63210000D01*
X102000000Y-66593173D02*
X101795000Y-66388173D01*
X101135000Y-70245000D02*
X102000000Y-69380000D01*
X102000000Y-69380000D02*
X102000000Y-66593173D01*
X106620000Y-63210000D02*
X106620000Y-64650000D01*
D61*
%TO.N,/CH_RXD*%
X104652875Y-81547625D02*
X107932375Y-81547625D01*
X103170500Y-83030000D02*
X104652875Y-81547625D01*
%TO.N,/CH_TXD*%
X109060000Y-81398872D02*
X108965628Y-81304500D01*
X109060000Y-81744814D02*
X109060000Y-81398872D01*
X108494814Y-82310000D02*
X109060000Y-81744814D01*
X104941128Y-82310000D02*
X108494814Y-82310000D01*
X103170500Y-84080628D02*
X104941128Y-82310000D01*
%TO.N,Net-(R22-Pad1)*%
X108660500Y-82710000D02*
X109965131Y-81405369D01*
X109965131Y-81405369D02*
X109965131Y-80904500D01*
X105590500Y-82710000D02*
X108660500Y-82710000D01*
X103170500Y-85130000D02*
X105590500Y-82710000D01*
%TO.N,GND*%
X114620000Y-67530000D02*
X114620000Y-64650000D01*
X116400000Y-69310000D02*
X114620000Y-67530000D01*
D64*
%TO.N,/CS_PA1*%
X109760000Y-68910000D02*
X114780550Y-68910000D01*
X108620000Y-64650000D02*
X108620000Y-67690000D01*
X108620000Y-67690000D02*
X108580000Y-67730000D01*
X108580000Y-67730000D02*
X109760000Y-68910000D01*
X114780550Y-68910000D02*
X115620000Y-69749450D01*
D61*
%TO.N,Net-(J11-Pad1)*%
X117856000Y-69059500D02*
X117856000Y-67310000D01*
%TO.N,GND*%
X109144701Y-69547500D02*
X109232701Y-69459500D01*
X107180000Y-69547500D02*
X109144701Y-69547500D01*
D62*
X114730000Y-64540000D02*
X114620000Y-64650000D01*
X114730000Y-61810000D02*
X114730000Y-64540000D01*
X122300000Y-61280000D02*
X120390000Y-61280000D01*
X118410000Y-61280000D02*
X117960000Y-61730000D01*
X122320000Y-61300000D02*
X122300000Y-61280000D01*
X120390000Y-61280000D02*
X118410000Y-61280000D01*
D64*
%TO.N,/PWR_DSP*%
X116620000Y-57400000D02*
X116620000Y-64650000D01*
X116870000Y-57150000D02*
X116620000Y-57400000D01*
%TO.N,/MOSI_SPI*%
X112620000Y-66650000D02*
X112620000Y-64650000D01*
X112840000Y-66870000D02*
X112620000Y-66650000D01*
X113620000Y-66870000D02*
X112840000Y-66870000D01*
%TO.N,/RST_PA6*%
X103440000Y-68020000D02*
X104620000Y-66840000D01*
X103440000Y-68890000D02*
X103440000Y-68020000D01*
X104620000Y-66840000D02*
X104620000Y-64650000D01*
X101180000Y-71158381D02*
X101336607Y-71001774D01*
X101180000Y-72200000D02*
X101180000Y-71158381D01*
%TO.N,/BL_PA4*%
X102620000Y-73080000D02*
X102620000Y-64650000D01*
X103840000Y-74300000D02*
X102620000Y-73080000D01*
D61*
%TO.N,+3.3VA*%
X177332017Y-75090000D02*
X180079516Y-77837500D01*
X182617500Y-78245000D02*
X182617500Y-79498384D01*
X180079516Y-77837500D02*
X180417500Y-77837500D01*
X179007500Y-74502743D02*
X180524757Y-76020000D01*
X177169274Y-71580161D02*
X176860161Y-71580161D01*
X135490756Y-86200000D02*
X135715378Y-86424622D01*
X177987157Y-70762278D02*
X177987157Y-70637157D01*
X180680000Y-80307256D02*
X181410001Y-81037257D01*
X206990000Y-61970000D02*
X207500000Y-62480000D01*
X177169274Y-71580161D02*
X177987157Y-70762278D01*
X194510000Y-63072183D02*
X195612183Y-61970000D01*
X182170000Y-79945884D02*
X182372942Y-79742942D01*
X177269550Y-75090000D02*
X177332017Y-75090000D01*
X137170308Y-84853249D02*
X141127058Y-88810000D01*
X181410001Y-81037257D02*
X182051371Y-81037257D01*
X177987157Y-70637157D02*
X177550000Y-70200000D01*
X207500000Y-62480000D02*
X207500000Y-64610000D01*
X180417500Y-77837500D02*
X180680000Y-78100000D01*
X176280000Y-72469435D02*
X176280000Y-74100450D01*
X182265884Y-79850000D02*
X182372942Y-79742942D01*
X135715378Y-86424622D02*
X134400000Y-87740000D01*
X195612183Y-61970000D02*
X206990000Y-61970000D01*
X180680000Y-78100000D02*
X180680000Y-80307256D01*
X193650000Y-68389500D02*
X194510000Y-67529500D01*
X186080000Y-80355000D02*
X185617500Y-79892500D01*
X186080000Y-81940000D02*
X186080000Y-80355000D01*
X180524757Y-76020000D02*
X181392500Y-76020000D01*
X182051371Y-81037257D02*
X182170000Y-80918628D01*
X194510000Y-67529500D02*
X194510000Y-63072183D01*
X134400000Y-86200000D02*
X135490756Y-86200000D01*
X177169274Y-71580161D02*
X176280000Y-72469435D01*
X176860161Y-71580161D02*
X175500000Y-70220000D01*
X137170308Y-84769692D02*
X137170308Y-84853249D01*
X181410000Y-79850000D02*
X182265884Y-79850000D01*
X185617500Y-79892500D02*
X185617500Y-78245000D01*
X182170000Y-80918628D02*
X182170000Y-79945884D01*
X141127058Y-88810000D02*
X142550000Y-88810000D01*
X182617500Y-79498384D02*
X182372942Y-79742942D01*
X176280000Y-74100450D02*
X177269550Y-75090000D01*
X134400000Y-87740000D02*
X134400000Y-90045000D01*
X178682215Y-72717835D02*
X179007500Y-73043120D01*
X179007500Y-73043120D02*
X179007500Y-74502743D01*
D62*
X186080000Y-82600000D02*
X185590000Y-83090000D01*
X186080000Y-81940000D02*
X186080000Y-82600000D01*
D61*
%TO.N,+3.3V*%
X152866945Y-91919406D02*
X152866945Y-92393055D01*
D62*
X136460000Y-90680000D02*
X135330000Y-91810000D01*
X189680000Y-86700000D02*
X189680000Y-86310500D01*
D61*
X151574349Y-102020500D02*
X153440000Y-100154849D01*
X189165000Y-93435000D02*
X189165000Y-94390210D01*
X186767371Y-74020000D02*
X187106372Y-74359001D01*
X187787750Y-74506107D02*
X186821693Y-73540050D01*
D62*
X135330000Y-91810000D02*
X132800000Y-91810000D01*
X144375000Y-80367000D02*
X144375000Y-80885000D01*
X141765000Y-91690000D02*
X140935000Y-90860000D01*
X146850000Y-70067500D02*
X146850000Y-68210000D01*
D61*
X153094670Y-82810000D02*
X152100000Y-83804670D01*
X192975000Y-97245000D02*
X191370000Y-95640000D01*
D62*
X173275000Y-81830000D02*
X173275000Y-68265000D01*
D61*
X152815000Y-93075000D02*
X151975000Y-92235000D01*
X189165000Y-94300000D02*
X189165000Y-94390209D01*
X189165000Y-94390210D02*
X189262395Y-94487605D01*
X207320000Y-73919500D02*
X207320000Y-69340000D01*
D62*
X163360000Y-93650000D02*
X163360000Y-97373802D01*
D63*
X171290000Y-99140000D02*
X171460000Y-99140000D01*
D61*
X189165000Y-94390209D02*
X189262395Y-94487605D01*
X152866945Y-92393055D02*
X152500000Y-92760000D01*
D62*
X144018000Y-78486000D02*
X143080000Y-77548000D01*
X166148500Y-89120500D02*
X165608000Y-88580000D01*
D61*
X185117500Y-73295000D02*
X185117500Y-72404423D01*
D63*
X171290000Y-101460000D02*
X172000000Y-102170000D01*
D61*
X142580000Y-91690000D02*
X144340000Y-89930000D01*
D62*
X158713302Y-102020500D02*
X158120000Y-102020500D01*
D61*
X153440000Y-100154849D02*
X153440000Y-96499950D01*
X152815000Y-95874950D02*
X152815000Y-93075000D01*
D62*
X187590000Y-85690000D02*
X187720000Y-85560000D01*
D61*
X154635000Y-81490000D02*
X154635000Y-82075000D01*
X187787750Y-74847750D02*
X187787750Y-74506107D01*
D62*
X166710000Y-89120500D02*
X167560500Y-88270000D01*
D61*
X193690000Y-102835686D02*
X193001157Y-102146843D01*
X144340000Y-89930000D02*
X144989950Y-89930000D01*
D62*
X140935000Y-90860000D02*
X140362182Y-90860000D01*
D61*
X154635000Y-82075000D02*
X153900000Y-82810000D01*
X192975000Y-98385000D02*
X192975000Y-97245000D01*
X152500000Y-92760000D02*
X151975000Y-92235000D01*
X195990000Y-85110000D02*
X198370000Y-87490000D01*
D62*
X131415000Y-92385000D02*
X131990000Y-91810000D01*
X130420000Y-90170000D02*
X129970000Y-89720000D01*
D61*
X145475000Y-90415050D02*
X145475000Y-92235000D01*
X187070000Y-73190550D02*
X186821693Y-73438857D01*
D62*
X132800000Y-91810000D02*
X132570000Y-91580000D01*
X130910000Y-94040000D02*
X130910000Y-102170000D01*
X189680000Y-86310500D02*
X190190500Y-85800000D01*
D61*
X191445000Y-85800000D02*
X192915000Y-87270000D01*
D62*
X139402182Y-89900000D02*
X138340000Y-89900000D01*
X163400000Y-93610000D02*
X163360000Y-93650000D01*
X131415000Y-93535000D02*
X131415000Y-92385000D01*
D61*
X193690000Y-103998000D02*
X193690000Y-102835686D01*
D62*
X144018000Y-80010000D02*
X144375000Y-80367000D01*
X143830000Y-81430000D02*
X144375000Y-80885000D01*
X132570000Y-90182500D02*
X132612500Y-90140000D01*
D61*
X186342500Y-74020000D02*
X186342500Y-74019243D01*
D63*
X170425000Y-99140000D02*
X170225000Y-98940000D01*
D62*
X166710000Y-89120500D02*
X166148500Y-89120500D01*
X174825000Y-83380000D02*
X173275000Y-81830000D01*
X139300800Y-92839200D02*
X139340000Y-92800000D01*
D61*
X187070000Y-71220000D02*
X187070000Y-73190550D01*
D62*
X167560500Y-88270000D02*
X168105000Y-88270000D01*
D61*
X192915000Y-87270000D02*
X195075000Y-85110000D01*
D62*
X141855000Y-81430000D02*
X143830000Y-81430000D01*
X132580000Y-90350000D02*
X132400000Y-90170000D01*
X137240000Y-89900000D02*
X136460000Y-90680000D01*
D63*
X171476688Y-97740000D02*
X172405000Y-97740000D01*
D61*
X153960000Y-92760000D02*
X152500000Y-92760000D01*
X186301923Y-71220000D02*
X187070000Y-71220000D01*
X195075000Y-85110000D02*
X195990000Y-85110000D01*
D62*
X138670000Y-77750000D02*
X137330000Y-76410000D01*
X132400000Y-90170000D02*
X130420000Y-90170000D01*
D61*
X207089500Y-74150000D02*
X206989500Y-74250000D01*
X186342500Y-74019243D02*
X186821693Y-73540050D01*
X153440000Y-96499950D02*
X152815000Y-95874950D01*
X186342500Y-74020000D02*
X186767371Y-74020000D01*
D62*
X132570000Y-91580000D02*
X132570000Y-90182500D01*
D61*
X186821693Y-73438857D02*
X186821693Y-73540050D01*
D62*
X130910000Y-94040000D02*
X130910000Y-93887500D01*
X144820000Y-68300000D02*
X144910000Y-68210000D01*
X139300800Y-94220000D02*
X139300800Y-92839200D01*
D61*
X191370000Y-95640000D02*
X198370000Y-95640000D01*
D62*
X131090000Y-93860000D02*
X130910000Y-94040000D01*
X130910000Y-93887500D02*
X130012500Y-92990000D01*
X168105000Y-88270000D02*
X168105000Y-86947000D01*
D61*
X208830000Y-74150000D02*
X207089500Y-74150000D01*
X152100000Y-89070000D02*
X152110000Y-89080000D01*
X187872085Y-75885713D02*
X188295643Y-75885713D01*
D62*
X143080000Y-77548000D02*
X143080000Y-74030000D01*
X139370000Y-77750000D02*
X138670000Y-77750000D01*
X187590000Y-86720000D02*
X187590000Y-85690000D01*
X144820000Y-70847500D02*
X144820000Y-68300000D01*
D61*
X141765000Y-91690000D02*
X142580000Y-91690000D01*
X184560000Y-90910000D02*
X183882500Y-90910000D01*
X191985157Y-102146843D02*
X191962000Y-102170000D01*
X158266000Y-73205000D02*
X159666872Y-73205000D01*
X198370000Y-87490000D02*
X198370000Y-87910000D01*
D64*
X130002500Y-87880000D02*
X130002500Y-86412500D01*
D61*
X187106372Y-75120000D02*
X187872085Y-75885713D01*
D64*
X130002500Y-86412500D02*
X130000000Y-86410000D01*
D63*
X171290000Y-99140000D02*
X171290000Y-101460000D01*
D62*
X168105000Y-86947000D02*
X165608000Y-84450000D01*
D63*
X171290000Y-99140000D02*
X170425000Y-99140000D01*
D62*
X138340000Y-89900000D02*
X137240000Y-89900000D01*
X139350000Y-76540000D02*
X139370000Y-76560000D01*
D61*
X193294000Y-104394000D02*
X193690000Y-103998000D01*
D62*
X144018000Y-80010000D02*
X144018000Y-78486000D01*
D61*
X185117500Y-72404423D02*
X186301923Y-71220000D01*
D62*
X147030000Y-70247500D02*
X146850000Y-70067500D01*
D61*
X190414791Y-95640000D02*
X191370000Y-95640000D01*
D62*
X140362182Y-90860000D02*
X139402182Y-89900000D01*
X163360000Y-97373802D02*
X158713302Y-102020500D01*
D61*
X206989500Y-74250000D02*
X207320000Y-73919500D01*
X152100000Y-83804670D02*
X152100000Y-89070000D01*
D62*
X139370000Y-76560000D02*
X139370000Y-77750000D01*
D61*
X138520000Y-66279500D02*
X138570000Y-66329500D01*
D63*
X171460000Y-99140000D02*
X172060000Y-98540000D01*
D62*
X173275000Y-68265000D02*
X173220000Y-68210000D01*
D63*
X171406188Y-97669500D02*
X171476688Y-97740000D01*
D62*
X130020000Y-94930000D02*
X131415000Y-93535000D01*
D61*
X193001157Y-102146843D02*
X191985157Y-102146843D01*
X187106372Y-74359001D02*
X187106372Y-75120000D01*
D62*
X131990000Y-91810000D02*
X132800000Y-91810000D01*
D61*
X189262395Y-94487605D02*
X190414791Y-95640000D01*
X159666872Y-73205000D02*
X159700936Y-73170936D01*
X190190500Y-85800000D02*
X191445000Y-85800000D01*
X138520000Y-64610000D02*
X138520000Y-66279500D01*
D62*
X131415000Y-93535000D02*
X131090000Y-93860000D01*
D61*
X153900000Y-82810000D02*
X153094670Y-82810000D01*
X183882500Y-90910000D02*
X183000000Y-90027500D01*
X144989950Y-89930000D02*
X145475000Y-90415050D01*
D62*
%TO.N,VBUS*%
X201800000Y-79340000D02*
X205265000Y-79340000D01*
X200880000Y-83070000D02*
X201160000Y-83350000D01*
X201930000Y-84120000D02*
X201160000Y-83350000D01*
D61*
X204690000Y-84355001D02*
X205030000Y-84695001D01*
D62*
X204370000Y-97010000D02*
X204220000Y-97010000D01*
D61*
X204078768Y-88916636D02*
X203866636Y-88916636D01*
D62*
X203763272Y-89020000D02*
X203866636Y-88916636D01*
D61*
X188532500Y-84247500D02*
X188520000Y-84260000D01*
X203045000Y-84120000D02*
X203940000Y-84120000D01*
X205030000Y-88380000D02*
X204615404Y-88380000D01*
X204210405Y-84355001D02*
X204690000Y-84355001D01*
D62*
X196507500Y-82830000D02*
X196747500Y-83070000D01*
D61*
X204210000Y-97000000D02*
X203545000Y-97000000D01*
D62*
X196507500Y-82830000D02*
X195487500Y-83850000D01*
X204640000Y-96740000D02*
X204370000Y-97010000D01*
X203045000Y-89020000D02*
X203763272Y-89020000D01*
X201550000Y-89020000D02*
X201030000Y-89540000D01*
X196747500Y-83070000D02*
X200880000Y-83070000D01*
X204640000Y-95360000D02*
X204640000Y-96740000D01*
X201840000Y-92560000D02*
X204640000Y-95360000D01*
X203045000Y-84120000D02*
X201930000Y-84120000D01*
D61*
X203940000Y-84120000D02*
X203957702Y-84102298D01*
X204615404Y-88380000D02*
X204078768Y-88916636D01*
D62*
X201160000Y-83350000D02*
X201160000Y-79980000D01*
D61*
X203957702Y-84102298D02*
X204210405Y-84355001D01*
D62*
X190987500Y-83850000D02*
X190590000Y-84247500D01*
X201160000Y-79980000D02*
X201800000Y-79340000D01*
D61*
X205030000Y-84695001D02*
X205030000Y-88380000D01*
D62*
X203045000Y-89020000D02*
X201550000Y-89020000D01*
D61*
X190590000Y-84247500D02*
X188532500Y-84247500D01*
D62*
X201030000Y-89540000D02*
X201030000Y-91750000D01*
D61*
X204220000Y-97010000D02*
X204210000Y-97000000D01*
D62*
X201030000Y-91750000D02*
X201840000Y-92560000D01*
X195487500Y-83850000D02*
X190987500Y-83850000D01*
D61*
%TO.N,GND*%
X164338000Y-81286629D02*
X164338000Y-89128050D01*
X191690000Y-110520000D02*
X191454481Y-110284481D01*
D62*
X200200000Y-111250000D02*
X199700000Y-111250000D01*
X182660000Y-69558619D02*
X182660000Y-67360500D01*
X199700000Y-111250000D02*
X199220000Y-110770000D01*
D61*
X144975000Y-78465481D02*
X144975000Y-80885000D01*
X187640000Y-88600000D02*
X187620000Y-88620000D01*
X133470000Y-89300000D02*
X133470000Y-89638877D01*
D63*
X172060000Y-97340000D02*
X170920000Y-96200000D01*
D61*
X128990000Y-89740000D02*
X128990000Y-90800000D01*
X180340000Y-71520000D02*
X180340000Y-72220000D01*
X185590000Y-84900000D02*
X188130000Y-82360000D01*
D63*
X172405000Y-97340000D02*
X172060000Y-97340000D01*
D61*
X158005000Y-83330000D02*
X158005000Y-81675000D01*
D62*
X205210000Y-102730000D02*
X205210000Y-104060000D01*
X195450000Y-61170000D02*
X207520000Y-61170000D01*
D61*
X141920000Y-77710000D02*
X141920000Y-79465000D01*
X202240000Y-81570000D02*
X202240000Y-82890000D01*
X125422500Y-81870000D02*
X125422500Y-79922500D01*
X143580000Y-88310000D02*
X142550000Y-88310000D01*
X153840000Y-102140000D02*
X151892000Y-104088000D01*
D62*
X207530000Y-100410000D02*
X205210000Y-102730000D01*
D61*
X137960000Y-74640000D02*
X139350000Y-74640000D01*
D62*
X200220000Y-101290000D02*
X201060000Y-102130000D01*
D61*
X162910000Y-78170500D02*
X162910000Y-79858629D01*
X136280000Y-77800000D02*
X136280000Y-75310000D01*
D62*
X201310000Y-107960000D02*
X201310000Y-110140000D01*
D61*
X138113500Y-96740854D02*
X139281654Y-96740854D01*
X209655000Y-111550000D02*
X208270000Y-111550000D01*
X124520000Y-64610000D02*
X124520000Y-62590000D01*
X179530000Y-84255000D02*
X178345000Y-84255000D01*
D62*
X199827500Y-100732500D02*
X199270000Y-101290000D01*
D61*
X133390000Y-76690000D02*
X135130000Y-78430000D01*
X141920000Y-75310000D02*
X141920000Y-77710000D01*
X141260000Y-74650000D02*
X141920000Y-75310000D01*
X135130000Y-78950000D02*
X136280000Y-77800000D01*
D62*
X209220000Y-62870000D02*
X209220000Y-69340000D01*
X193500000Y-63120000D02*
X195450000Y-61170000D01*
D61*
X179259500Y-80249500D02*
X177970000Y-78960000D01*
X158005000Y-81675000D02*
X158170000Y-81510000D01*
D62*
X163854000Y-68205000D02*
X162840000Y-67191000D01*
X162840000Y-67191000D02*
X162840000Y-64660000D01*
D61*
X133680000Y-91260000D02*
X133420000Y-91000000D01*
X151892000Y-104088000D02*
X151892000Y-104394000D01*
X137611927Y-83940000D02*
X128629950Y-83940000D01*
X207530000Y-100410000D02*
X209672500Y-100410000D01*
X137810000Y-88780000D02*
X136460000Y-88780000D01*
X133470000Y-89638877D02*
X133420000Y-89688877D01*
X144800550Y-93540000D02*
X144975000Y-93365550D01*
X165029950Y-89820000D02*
X173846599Y-89820000D01*
D63*
X171997552Y-98140000D02*
X172405000Y-98140000D01*
X170225000Y-95340000D02*
X170225000Y-94940000D01*
D62*
X162840000Y-64660000D02*
X161240500Y-64660000D01*
D61*
X153814735Y-94695265D02*
X153840000Y-94670000D01*
X144975000Y-90905000D02*
X144975000Y-92235000D01*
D62*
X177550000Y-68300000D02*
X177550000Y-68080000D01*
D63*
X171687552Y-98450000D02*
X171997552Y-98140000D01*
D61*
X157900000Y-81240000D02*
X158170000Y-81510000D01*
X128440000Y-96230000D02*
X129130000Y-95540000D01*
X175090000Y-93690000D02*
X174255000Y-94525000D01*
X191561000Y-103222245D02*
X189165000Y-100826245D01*
X137880000Y-74560000D02*
X137960000Y-74640000D01*
D62*
X191940000Y-110770000D02*
X197520000Y-110770000D01*
D61*
X188130000Y-82360000D02*
X188520000Y-82360000D01*
X208830000Y-76450000D02*
X207790000Y-76450000D01*
X180967629Y-77520000D02*
X181392500Y-77520000D01*
X142550000Y-88310000D02*
X141744670Y-88310000D01*
X152740500Y-96954597D02*
X151690403Y-96954597D01*
X184737843Y-87192157D02*
X184737843Y-85842157D01*
X182382743Y-81837257D02*
X181078629Y-81837257D01*
X202670000Y-83320000D02*
X203045000Y-83320000D01*
X180590443Y-75520000D02*
X181392500Y-75520000D01*
X176280000Y-82190000D02*
X176140000Y-82050000D01*
X153814735Y-95884735D02*
X153840000Y-95910000D01*
X105250000Y-74720050D02*
X105250000Y-75017500D01*
X128002714Y-83940000D02*
X127312714Y-83250000D01*
X128040000Y-97028000D02*
X128040000Y-96310000D01*
X125422500Y-79922500D02*
X125435000Y-79910000D01*
X201064000Y-97000000D02*
X200902000Y-96838000D01*
D62*
X201310000Y-110140000D02*
X200200000Y-111250000D01*
D61*
X181078629Y-81837257D02*
X179490872Y-80249500D01*
X105897500Y-70610000D02*
X105340000Y-71167500D01*
X105250000Y-75017500D02*
X102557500Y-77710000D01*
X121132500Y-86087500D02*
X122480000Y-84740000D01*
X125422500Y-82452500D02*
X125422500Y-81870000D01*
D62*
X174805000Y-72415000D02*
X174240000Y-71850000D01*
D61*
X204705000Y-110280000D02*
X202940000Y-110280000D01*
X175528097Y-89816903D02*
X176390000Y-88955000D01*
X174805000Y-78460000D02*
X174805000Y-80715000D01*
X185590000Y-84990000D02*
X185590000Y-84900000D01*
D63*
X170750000Y-98450000D02*
X171687552Y-98450000D01*
D62*
X125422500Y-77890000D02*
X125422500Y-79897500D01*
D61*
X209655000Y-107740000D02*
X210910000Y-106485000D01*
X151690403Y-96954597D02*
X151620000Y-97025000D01*
X195340000Y-81330000D02*
X195340000Y-79762500D01*
X122428000Y-97879500D02*
X123320000Y-96987500D01*
D62*
X163854000Y-69395000D02*
X163854000Y-68205000D01*
D61*
X102557500Y-77710000D02*
X101120000Y-77710000D01*
X137940378Y-88649622D02*
X137810000Y-88780000D01*
X141744670Y-88310000D02*
X141381927Y-87947257D01*
X192997500Y-89330000D02*
X190410000Y-89330000D01*
X174255000Y-94525000D02*
X172405000Y-94525000D01*
X135900000Y-88780000D02*
X135160000Y-89520000D01*
D63*
X170698500Y-97718500D02*
X170698500Y-97191500D01*
D64*
X132450000Y-88240000D02*
X131850000Y-88240000D01*
D61*
X202780000Y-89820000D02*
X202250000Y-90350000D01*
X209655000Y-107740000D02*
X209655000Y-109010000D01*
X143250000Y-93540000D02*
X144800550Y-93540000D01*
D64*
X128990000Y-89460000D02*
X128990000Y-89740000D01*
D61*
X128990000Y-90800000D02*
X128770000Y-91020000D01*
X210910000Y-106485000D02*
X210910000Y-100550000D01*
X192430050Y-81880000D02*
X194232500Y-81880000D01*
X164338000Y-89128050D02*
X165029950Y-89820000D01*
X209040000Y-80650000D02*
X209180000Y-80510000D01*
X174805000Y-75105000D02*
X174805000Y-78460000D01*
D62*
X205210000Y-104060000D02*
X201310000Y-107960000D01*
D61*
X176280000Y-86805000D02*
X176280000Y-82190000D01*
X141815000Y-93540000D02*
X141765000Y-93590000D01*
X136480500Y-75109500D02*
X136900500Y-75109500D01*
X202750000Y-80650000D02*
X209040000Y-80650000D01*
D62*
X207520000Y-61170000D02*
X209220000Y-62870000D01*
D64*
X131850000Y-88240000D02*
X130950000Y-89140000D01*
D61*
X200310500Y-82190000D02*
X200310500Y-81960500D01*
X179407500Y-73152500D02*
X179407500Y-74337057D01*
X128629950Y-83940000D02*
X128002714Y-83940000D01*
D64*
X129310000Y-89140000D02*
X128990000Y-89460000D01*
D61*
X135130000Y-78430000D02*
X135130000Y-78950000D01*
X208480000Y-68230000D02*
X209220000Y-68970000D01*
D62*
X193500000Y-64610000D02*
X193500000Y-63120000D01*
D61*
X202750000Y-81060000D02*
X202240000Y-81570000D01*
X210752500Y-100392500D02*
X209690000Y-100392500D01*
D62*
X174240000Y-68850000D02*
X174700000Y-68390000D01*
D61*
X135160000Y-89520000D02*
X135160000Y-91040000D01*
X107365000Y-70610000D02*
X105897500Y-70610000D01*
X199660000Y-86142500D02*
X199660000Y-86500000D01*
D63*
X170698500Y-95848500D02*
X170698500Y-95361500D01*
D61*
X135160000Y-91040000D02*
X134940000Y-91260000D01*
X143250000Y-93540000D02*
X141815000Y-93540000D01*
X209690000Y-96770000D02*
X209690000Y-100392500D01*
D62*
X139300800Y-95553554D02*
X138113500Y-96740854D01*
X174805000Y-75105000D02*
X174805000Y-72415000D01*
D61*
X209220000Y-68970000D02*
X209220000Y-69340000D01*
X137370000Y-74640000D02*
X137960000Y-74640000D01*
X177807500Y-74213736D02*
X177807500Y-74999798D01*
X185617500Y-72680000D02*
X185617500Y-73295000D01*
X191454481Y-110284481D02*
X191561000Y-110177963D01*
D62*
X180698619Y-71520000D02*
X182660000Y-69558619D01*
D61*
X186315583Y-72195583D02*
X185971166Y-72540000D01*
X191700000Y-89330000D02*
X192997500Y-89330000D01*
D62*
X177460000Y-68390000D02*
X177550000Y-68300000D01*
D61*
X101120000Y-77710000D02*
X100960000Y-77870000D01*
X195340000Y-79762500D02*
X194577500Y-79000000D01*
D63*
X170677000Y-97740000D02*
X170698500Y-97718500D01*
D62*
X174240000Y-71850000D02*
X174240000Y-68850000D01*
D63*
X170750000Y-98234500D02*
X170750000Y-98450000D01*
D61*
X206290000Y-68230000D02*
X208480000Y-68230000D01*
D62*
X161240500Y-64660000D02*
X159580000Y-62999500D01*
D61*
X177470000Y-78460000D02*
X174805000Y-78460000D01*
X104230000Y-72497500D02*
X104230000Y-73700050D01*
X202750000Y-80650000D02*
X202750000Y-81060000D01*
X197467500Y-90987500D02*
X197467500Y-90840000D01*
X189165000Y-100826245D02*
X189165000Y-98385000D01*
X199390000Y-92910000D02*
X197467500Y-90987500D01*
X122050000Y-100524314D02*
X122050000Y-102480000D01*
X191710000Y-82600050D02*
X192430050Y-81880000D01*
X185757500Y-72540000D02*
X185617500Y-72680000D01*
X177615542Y-74021778D02*
X177807500Y-74213736D01*
X188520000Y-82360000D02*
X189420000Y-83260000D01*
D62*
X177900000Y-67310000D02*
X177900000Y-67950000D01*
D61*
X185971166Y-72540000D02*
X185757500Y-72540000D01*
X133420000Y-89688877D02*
X133420000Y-91000000D01*
X153814735Y-95884735D02*
X153814735Y-94695265D01*
X179407500Y-74337057D02*
X180590443Y-75520000D01*
X134940000Y-91260000D02*
X133680000Y-91260000D01*
X198097500Y-84580000D02*
X199660000Y-86142500D01*
D62*
X122320000Y-61300000D02*
X125810000Y-61300000D01*
D61*
X156340000Y-81240000D02*
X157900000Y-81240000D01*
X178345000Y-84255000D02*
X176140000Y-82050000D01*
X123190751Y-92981749D02*
X122502500Y-93670000D01*
D63*
X170677000Y-98161500D02*
X170750000Y-98234500D01*
D61*
X202240000Y-82890000D02*
X202670000Y-83320000D01*
D64*
X130950000Y-89140000D02*
X129310000Y-89140000D01*
D61*
X141381927Y-87947257D02*
X141381927Y-87710000D01*
X180245202Y-77437500D02*
X180885129Y-77437500D01*
X173849697Y-89816903D02*
X175528097Y-89816903D01*
X187620000Y-88620000D02*
X186165686Y-88620000D01*
D62*
X191690000Y-110520000D02*
X191940000Y-110770000D01*
D61*
X128120000Y-96230000D02*
X128440000Y-96230000D01*
X122050000Y-102480000D02*
X121510000Y-103020000D01*
X189680000Y-88600000D02*
X187640000Y-88600000D01*
X194232500Y-81880000D02*
X198570000Y-81880000D01*
X126220000Y-83250000D02*
X125422500Y-82452500D01*
X177807500Y-74999798D02*
X180245202Y-77437500D01*
D62*
X197690000Y-110600000D02*
X197520000Y-110770000D01*
D61*
X194232500Y-81880000D02*
X194790000Y-81880000D01*
D63*
X170698500Y-95361500D02*
X170677000Y-95340000D01*
D61*
X139281654Y-96740854D02*
X139300800Y-96760000D01*
X176390000Y-88955000D02*
X176390000Y-86915000D01*
X144700000Y-90630000D02*
X144975000Y-90905000D01*
D62*
X180340000Y-71520000D02*
X180698619Y-71520000D01*
X177900000Y-67950000D02*
X177550000Y-68300000D01*
D61*
X208880000Y-78030000D02*
X208880000Y-76500000D01*
X129130000Y-91860000D02*
X128290000Y-91020000D01*
X194790000Y-81880000D02*
X195340000Y-81330000D01*
X201695000Y-97000000D02*
X201064000Y-97000000D01*
X189420000Y-83260000D02*
X191360000Y-83260000D01*
D63*
X170225000Y-97740000D02*
X170677000Y-97740000D01*
D61*
X107180000Y-69547500D02*
X104230000Y-72497500D01*
X208880000Y-76500000D02*
X208830000Y-76450000D01*
X191360000Y-83260000D02*
X191710000Y-82910000D01*
D62*
X139300800Y-95490000D02*
X139300800Y-95553554D01*
D63*
X170677000Y-95340000D02*
X170225000Y-95340000D01*
D61*
X121132500Y-86310000D02*
X121132500Y-86087500D01*
X128770000Y-91020000D02*
X128070000Y-91020000D01*
X184737843Y-85842157D02*
X185590000Y-84990000D01*
X127312714Y-83250000D02*
X126220000Y-83250000D01*
X208270000Y-111550000D02*
X208000000Y-111280000D01*
X173846599Y-89820000D02*
X173849697Y-89816903D01*
D63*
X172070000Y-97340000D02*
X172405000Y-97340000D01*
D61*
X177191985Y-74021778D02*
X177615542Y-74021778D01*
X123320000Y-96987500D02*
X123320000Y-95570000D01*
X179490872Y-80249500D02*
X179259500Y-80249500D01*
X186165686Y-88620000D02*
X184737843Y-87192157D01*
D62*
X199827500Y-99860000D02*
X199827500Y-100732500D01*
D61*
X182970000Y-80277257D02*
X182970000Y-81250000D01*
X182970000Y-81250000D02*
X182382743Y-81837257D01*
X124520000Y-62590000D02*
X125810000Y-61300000D01*
D63*
X170698500Y-97191500D02*
X171310000Y-96580000D01*
X170920000Y-96200000D02*
X170920000Y-96070000D01*
D61*
X209672500Y-100410000D02*
X209690000Y-100392500D01*
D62*
X199220000Y-110770000D02*
X197520000Y-110770000D01*
D61*
X174805000Y-80715000D02*
X176140000Y-82050000D01*
X177970000Y-78960000D02*
X177470000Y-78460000D01*
D62*
X197690000Y-108170000D02*
X197690000Y-110600000D01*
D63*
X170225000Y-97740000D02*
X170225000Y-98140000D01*
D61*
X190410000Y-89330000D02*
X189680000Y-88600000D01*
X123830500Y-92981749D02*
X123190751Y-92981749D01*
X200310500Y-81960500D02*
X199400000Y-81050000D01*
X136280000Y-75310000D02*
X136480500Y-75109500D01*
D62*
X174700000Y-68390000D02*
X177460000Y-68390000D01*
D61*
X198570000Y-81880000D02*
X199400000Y-81050000D01*
X162910000Y-79858629D02*
X164338000Y-81286629D01*
X153840000Y-95910000D02*
X153840000Y-102140000D01*
D62*
X199270000Y-101290000D02*
X200220000Y-101290000D01*
D61*
X200902000Y-96838000D02*
X200902000Y-93628000D01*
X122428000Y-100146314D02*
X122050000Y-100524314D01*
X132500000Y-88330000D02*
X133470000Y-89300000D01*
X144970000Y-77810000D02*
X144970000Y-78460481D01*
X183617500Y-78245000D02*
X183617500Y-79629756D01*
X144970000Y-78460481D02*
X144975000Y-78465481D01*
X128040000Y-96310000D02*
X128120000Y-96230000D01*
X200902000Y-93628000D02*
X200940000Y-93590000D01*
X129130000Y-95540000D02*
X129130000Y-91860000D01*
X122428000Y-97879500D02*
X122428000Y-100146314D01*
X144495000Y-89225000D02*
X143580000Y-88310000D01*
X141920000Y-79465000D02*
X141855000Y-79530000D01*
D63*
X170225000Y-94940000D02*
X170225000Y-94540000D01*
X170677000Y-97740000D02*
X170677000Y-98161500D01*
D61*
X104230000Y-73700050D02*
X105250000Y-74720050D01*
D62*
X118192500Y-102810000D02*
X118192500Y-104412500D01*
D61*
X132500000Y-86200000D02*
X132500000Y-88330000D01*
X207790000Y-76450000D02*
X206290000Y-74950000D01*
D63*
X172405000Y-94540000D02*
X170225000Y-94540000D01*
D61*
X180885129Y-77437500D02*
X180967629Y-77520000D01*
X203045000Y-89820000D02*
X202780000Y-89820000D01*
X136900500Y-75109500D02*
X137370000Y-74640000D01*
X180340000Y-72220000D02*
X179407500Y-73152500D01*
X144975000Y-93365550D02*
X144975000Y-92235000D01*
X136460000Y-88780000D02*
X135900000Y-88780000D01*
X176390000Y-86915000D02*
X176280000Y-86805000D01*
X210910000Y-100550000D02*
X210752500Y-100392500D01*
X191561000Y-110177963D02*
X191561000Y-103222245D01*
X137880000Y-74130000D02*
X137880000Y-74560000D01*
X183617500Y-79629756D02*
X182970000Y-80277257D01*
X100960000Y-77870000D02*
X100960000Y-78920000D01*
D62*
X125422500Y-79897500D02*
X125435000Y-79910000D01*
D63*
X170920000Y-96070000D02*
X170698500Y-95848500D01*
X171310000Y-96580000D02*
X172070000Y-97340000D01*
D61*
X191710000Y-82910000D02*
X191710000Y-82600050D01*
X206290000Y-74950000D02*
X206290000Y-68230000D01*
X141381927Y-87710000D02*
X137611927Y-83940000D01*
%TO.N,/MICBIAS*%
X200639500Y-70070000D02*
X195701372Y-70070000D01*
X188100000Y-80322817D02*
X188100000Y-80720000D01*
X202480000Y-66950000D02*
X201500000Y-65970000D01*
X193175685Y-78410000D02*
X190012817Y-78410000D01*
X195335686Y-70435686D02*
X195335686Y-76250000D01*
X201500000Y-65970000D02*
X201500000Y-64610000D01*
X195335686Y-76250000D02*
X193175685Y-78410000D01*
X190012817Y-78410000D02*
X188100000Y-80322817D01*
X201380000Y-69329500D02*
X200639500Y-70070000D01*
X195701372Y-70070000D02*
X195335686Y-70435686D01*
%TO.N,Net-(C7-Pad2)*%
X187107500Y-77650000D02*
X187110000Y-77650000D01*
X188100000Y-78640000D02*
X188100000Y-78820000D01*
X186977500Y-77520000D02*
X187107500Y-77650000D01*
X186342500Y-77520000D02*
X186977500Y-77520000D01*
X187110000Y-77650000D02*
X188100000Y-78640000D01*
%TO.N,Net-(C15-Pad2)*%
X179870000Y-80062942D02*
X179870000Y-78960000D01*
X182570000Y-80111572D02*
X182570000Y-81084314D01*
X181244315Y-81437257D02*
X179870000Y-80062942D01*
X182217057Y-81437257D02*
X181244315Y-81437257D01*
X182570000Y-81084314D02*
X182217057Y-81437257D01*
X183117500Y-78245000D02*
X183117500Y-79564071D01*
X183117500Y-79564071D02*
X182570000Y-80111572D01*
%TO.N,+BATT*%
X192470000Y-82830000D02*
X192410000Y-82890000D01*
X194232500Y-82830000D02*
X192470000Y-82830000D01*
X197420000Y-101040000D02*
X199400000Y-103020000D01*
D62*
X201570000Y-106290000D02*
X199690000Y-108170000D01*
D61*
X202380000Y-103020000D02*
X205192500Y-100207500D01*
X205192500Y-100207500D02*
X205192500Y-99830000D01*
D62*
X201760000Y-104530000D02*
X205412500Y-100877500D01*
X201570000Y-104910000D02*
X201570000Y-106290000D01*
X205412500Y-100877500D02*
X205412500Y-93550000D01*
D61*
X199400000Y-103020000D02*
X202380000Y-103020000D01*
%TO.N,/EEP_SDA*%
X146975000Y-80885000D02*
X146975000Y-84675000D01*
X147050000Y-73040500D02*
X147050000Y-72092500D01*
X150366726Y-75630000D02*
X146975000Y-79021725D01*
X147050000Y-72092500D02*
X147030000Y-72072500D01*
X153591273Y-71528727D02*
X155725000Y-69395000D01*
X153591273Y-71537170D02*
X153591273Y-71528727D01*
X146975000Y-79021725D02*
X146975000Y-80885000D01*
X155725000Y-69395000D02*
X158266000Y-69395000D01*
X152150000Y-75069500D02*
X151589500Y-75630000D01*
X146975000Y-84675000D02*
X147040000Y-84740000D01*
X151589500Y-75630000D02*
X150366726Y-75630000D01*
%TO.N,/EEP_SCL*%
X181540000Y-72587808D02*
X181540000Y-72717058D01*
X153510000Y-75788184D02*
X153268184Y-76030000D01*
X154700000Y-71540000D02*
X155575000Y-70665000D01*
X144820000Y-73760000D02*
X144860000Y-73800000D01*
X182990000Y-71137808D02*
X181540000Y-72587808D01*
X147475000Y-79087411D02*
X147475000Y-80885000D01*
X153510000Y-75069500D02*
X153510000Y-75788184D01*
X155575000Y-70665000D02*
X158266000Y-70665000D01*
X144820000Y-72672500D02*
X144820000Y-73760000D01*
X180787500Y-74020000D02*
X181392500Y-74020000D01*
X150532412Y-76030000D02*
X147475000Y-79087411D01*
X153268184Y-76030000D02*
X150532412Y-76030000D01*
X180607500Y-73649558D02*
X180607500Y-73840000D01*
X181540000Y-72717058D02*
X180607500Y-73649558D01*
X147674500Y-82074500D02*
X147475000Y-81875000D01*
X147475000Y-81875000D02*
X147475000Y-80885000D01*
X147674500Y-82620000D02*
X147674500Y-82074500D01*
X180607500Y-73840000D02*
X180787500Y-74020000D01*
%TO.N,Net-(D1-Pad1)*%
X194790000Y-87270000D02*
X194822500Y-87302500D01*
X194822500Y-87302500D02*
X194822500Y-89330000D01*
%TO.N,Net-(D3-Pad2)*%
X113107500Y-100835000D02*
X113072500Y-100800000D01*
X113107500Y-102820000D02*
X113107500Y-100835000D01*
%TO.N,Net-(D4-Pad2)*%
X123022500Y-86325000D02*
X123007500Y-86310000D01*
X123022500Y-89710000D02*
X123022500Y-86325000D01*
%TO.N,Net-(D5-Pad2)*%
X116577500Y-102820000D02*
X116577500Y-100845000D01*
X116577500Y-100845000D02*
X116522500Y-100790000D01*
%TO.N,Net-(D6-Pad2)*%
X120067500Y-100885000D02*
X119972500Y-100790000D01*
X120067500Y-102810000D02*
X120067500Y-100885000D01*
%TO.N,Net-(D7-Pad2)*%
X127307500Y-77880000D02*
X127297500Y-77890000D01*
X129917500Y-77890000D02*
X129907500Y-77880000D01*
X129907500Y-77880000D02*
X127307500Y-77880000D01*
%TO.N,Net-(D8-Pad2)*%
X127350000Y-79870000D02*
X127310000Y-79910000D01*
X130200000Y-79870000D02*
X127350000Y-79870000D01*
%TO.N,Net-(D9-Pad2)*%
X130287500Y-81870000D02*
X127297500Y-81870000D01*
%TO.N,Net-(D11-Pad1)*%
X190367500Y-82150000D02*
X190590000Y-82372500D01*
X190367500Y-80580000D02*
X190367500Y-82150000D01*
%TO.N,Net-(J9-PadA5)*%
X201222500Y-87820000D02*
X203045000Y-87820000D01*
X199802500Y-90170000D02*
X199132500Y-90840000D01*
X199802500Y-89240000D02*
X199802500Y-90170000D01*
X199802500Y-89240000D02*
X201222500Y-87820000D01*
%TO.N,/USB_D+*%
X202140000Y-86820000D02*
X203045000Y-86820000D01*
X202070000Y-85820000D02*
X201820000Y-86070000D01*
X201770000Y-96462500D02*
X201770000Y-95710000D01*
X201820000Y-86220000D02*
X201410000Y-85810000D01*
X203045000Y-85820000D02*
X202070000Y-85820000D01*
X201770000Y-95710000D02*
X202150000Y-95330000D01*
X201820000Y-86500000D02*
X202140000Y-86820000D01*
X201820000Y-86500000D02*
X201820000Y-86220000D01*
X201820000Y-86070000D02*
X201820000Y-86500000D01*
%TO.N,/USB_D-*%
X200587500Y-97537500D02*
X200202500Y-97152500D01*
X200202500Y-92427500D02*
X200300000Y-92330000D01*
X204280000Y-87060000D02*
X204280000Y-86580000D01*
X202100000Y-87320000D02*
X203045000Y-87320000D01*
X204020000Y-86320000D02*
X203045000Y-86320000D01*
X203045000Y-87320000D02*
X204020000Y-87320000D01*
X200947464Y-87176839D02*
X201956839Y-87176839D01*
X204020000Y-87320000D02*
X204280000Y-87060000D01*
X201956839Y-87176839D02*
X202100000Y-87320000D01*
X201770000Y-97537500D02*
X200587500Y-97537500D01*
X200202500Y-97152500D02*
X200202500Y-92427500D01*
X204280000Y-86580000D02*
X204020000Y-86320000D01*
%TO.N,Net-(J9-PadB5)*%
X200162500Y-84820000D02*
X199922500Y-84580000D01*
X203045000Y-84820000D02*
X200162500Y-84820000D01*
D64*
%TO.N,/IO_PC4*%
X120720000Y-66084695D02*
X120724500Y-66089195D01*
X134497500Y-72945000D02*
X135970000Y-71472500D01*
X124015000Y-72945000D02*
X134497500Y-72945000D01*
X120720000Y-63650000D02*
X120720000Y-66084695D01*
X121521500Y-62848500D02*
X120720000Y-63650000D01*
X120724500Y-69654500D02*
X124015000Y-72945000D01*
X120724500Y-66089195D02*
X120724500Y-69654500D01*
X121840000Y-62848500D02*
X121521500Y-62848500D01*
D61*
%TO.N,/IO_PC5*%
X121111000Y-62149000D02*
X123050050Y-62149000D01*
X123050050Y-62149000D02*
X123050050Y-62628400D01*
X121160000Y-69488960D02*
X124191040Y-72520000D01*
X121160000Y-63860000D02*
X121160000Y-69488960D01*
X120860000Y-62400000D02*
X121111000Y-62149000D01*
X124191040Y-72520000D02*
X132532500Y-72520000D01*
X122129950Y-63548500D02*
X121471500Y-63548500D01*
X132532500Y-72520000D02*
X133560000Y-71492500D01*
X121471500Y-63548500D02*
X121160000Y-63860000D01*
X123050050Y-62628400D02*
X122129950Y-63548500D01*
%TO.N,/IO_PC8*%
X124331372Y-74170000D02*
X122769622Y-75731750D01*
X159812955Y-91750013D02*
X162410000Y-94347058D01*
X158780000Y-100580000D02*
X156410000Y-100580000D01*
X122769622Y-78706908D02*
X123875266Y-79812552D01*
X131909950Y-74769500D02*
X131330050Y-74769500D01*
X123875266Y-79812552D02*
X123875266Y-79905266D01*
X156410000Y-100580000D02*
X156350000Y-100520000D01*
X162410000Y-94347058D02*
X162410000Y-96950000D01*
X162410000Y-96950000D02*
X158780000Y-100580000D01*
X132429450Y-74250000D02*
X131909950Y-74769500D01*
X140430000Y-71472500D02*
X140430000Y-72620000D01*
X155369115Y-87310000D02*
X159809130Y-91750013D01*
X132703783Y-74250000D02*
X132429450Y-74250000D01*
X131330050Y-74769500D02*
X130730550Y-74170000D01*
X123875266Y-79905266D02*
X124170000Y-80200000D01*
X153900000Y-87310000D02*
X155369115Y-87310000D01*
X140430000Y-72620000D02*
X140460000Y-72650000D01*
X130730550Y-74170000D02*
X124331372Y-74170000D01*
X159809130Y-91750013D02*
X159812955Y-91750013D01*
X122769622Y-75731750D02*
X122769622Y-78706908D01*
X132770915Y-74317132D02*
X132703783Y-74250000D01*
%TO.N,/IO_PC9*%
X159978641Y-91350013D02*
X162810000Y-94181372D01*
X131320500Y-73770000D02*
X124165686Y-73770000D01*
X162810000Y-97115686D02*
X158635686Y-101290000D01*
X153900000Y-86810000D02*
X155434801Y-86810000D01*
X122669622Y-79596858D02*
X123175266Y-80102502D01*
X155434801Y-86810000D02*
X159974815Y-91350013D01*
X138280000Y-71452500D02*
X138280000Y-72530500D01*
X162810000Y-94181372D02*
X162810000Y-97115686D01*
X122369622Y-79270428D02*
X122669622Y-79570428D01*
X122369622Y-75566064D02*
X122369622Y-79270428D01*
X156980500Y-101290000D02*
X156950000Y-101320500D01*
X138280000Y-72530500D02*
X138290000Y-72540500D01*
X122669622Y-79570428D02*
X122669622Y-79596858D01*
X158635686Y-101290000D02*
X156980500Y-101290000D01*
X124165686Y-73770000D02*
X122369622Y-75566064D01*
X131620000Y-74069500D02*
X131320500Y-73770000D01*
X159974815Y-91350013D02*
X159978641Y-91350013D01*
%TO.N,/UART1_RX*%
X157810000Y-66319500D02*
X157800000Y-66329500D01*
X159608425Y-89852253D02*
X155066172Y-85310000D01*
X111175000Y-76365000D02*
X112240000Y-77430000D01*
X157810000Y-64920000D02*
X157810000Y-66319500D01*
X125500000Y-64882183D02*
X125500000Y-66719838D01*
X174823097Y-92166903D02*
X161926903Y-92166903D01*
X126100000Y-62390000D02*
X125430000Y-63060000D01*
X159612253Y-89852253D02*
X159608425Y-89852253D01*
X125500000Y-66719838D02*
X126020162Y-67240000D01*
X125430000Y-63060000D02*
X125430000Y-64812183D01*
X161926903Y-92166903D02*
X159612253Y-89852253D01*
X125430000Y-64812183D02*
X125500000Y-64882183D01*
X155066172Y-85310000D02*
X153900000Y-85310000D01*
X111175000Y-76210000D02*
X111175000Y-76365000D01*
%TO.N,/CH_TXD*%
X191459950Y-96980000D02*
X191269950Y-97170000D01*
X190435000Y-97995000D02*
X190435000Y-98043604D01*
X192375000Y-99399364D02*
X192375000Y-97210686D01*
X195220000Y-108030000D02*
X194890000Y-107700000D01*
X191269950Y-97170000D02*
X191260000Y-97170000D01*
X119340000Y-79130000D02*
X119230000Y-79240000D01*
X194890000Y-101914364D02*
X192375000Y-99399364D01*
X192144314Y-96980000D02*
X191459950Y-96980000D01*
X192375000Y-97210686D02*
X192144314Y-96980000D01*
X190435000Y-98385000D02*
X190435000Y-98043604D01*
X194890000Y-107700000D02*
X194890000Y-101914364D01*
X191260000Y-97170000D02*
X190435000Y-97995000D01*
X118830000Y-77910000D02*
X119340000Y-78420000D01*
X119340000Y-78420000D02*
X119340000Y-79130000D01*
X112445000Y-76210000D02*
X112445000Y-76440000D01*
X117960000Y-77910000D02*
X118830000Y-77910000D01*
X112445000Y-76440000D02*
X113915000Y-77910000D01*
X113915000Y-77910000D02*
X117960000Y-77910000D01*
%TO.N,/UART1_TX*%
X163689950Y-92910000D02*
X163719950Y-92940000D01*
X123749550Y-62190000D02*
X123749550Y-62852633D01*
X123749550Y-62852633D02*
X122959500Y-63642683D01*
X155000487Y-85810000D02*
X160140500Y-90950013D01*
X172358628Y-66710001D02*
X171640000Y-67428630D01*
X158820000Y-64890000D02*
X158820000Y-66259500D01*
X171640000Y-68751321D02*
X171810000Y-68921321D01*
X153900000Y-85810000D02*
X155000487Y-85810000D01*
X116805867Y-70610000D02*
X116255000Y-70610000D01*
X162104314Y-92910000D02*
X163689950Y-92910000D01*
X124270000Y-67890000D02*
X125180000Y-67890000D01*
X158820000Y-66259500D02*
X158890000Y-66329500D01*
X171640000Y-67428630D02*
X171640000Y-68751321D01*
X122959500Y-63642683D02*
X122959500Y-66579500D01*
X174319500Y-66710000D02*
X172358628Y-66710001D01*
X171810000Y-68921321D02*
X171810000Y-85977391D01*
X160140500Y-90950013D02*
X160144327Y-90950013D01*
X122959500Y-66579500D02*
X124270000Y-67890000D01*
X117104483Y-70311384D02*
X116805867Y-70610000D01*
X174700000Y-66329500D02*
X174319500Y-66710000D01*
X171810000Y-85977391D02*
X171284910Y-86502481D01*
X163719950Y-92940000D02*
X174090000Y-92940000D01*
X160144327Y-90950013D02*
X162104314Y-92910000D01*
%TO.N,/CH_RXD*%
X114160000Y-71055000D02*
X114160000Y-75155000D01*
X114160000Y-75155000D02*
X114315000Y-75310000D01*
X191705000Y-99295050D02*
X191705000Y-98385000D01*
X114315000Y-75310000D02*
X114315000Y-77255000D01*
X114570000Y-77510000D02*
X119318628Y-77510000D01*
X120420000Y-78611372D02*
X120420000Y-79260000D01*
X113715000Y-70610000D02*
X114160000Y-71055000D01*
X114315000Y-77255000D02*
X114570000Y-77510000D01*
X194490000Y-102080050D02*
X191705000Y-99295050D01*
X195250000Y-109110000D02*
X194490000Y-108350000D01*
X194490000Y-108350000D02*
X194490000Y-102080050D01*
X119318628Y-77510000D02*
X120420000Y-78611372D01*
%TO.N,/BOOT0*%
X156554314Y-75200000D02*
X154890000Y-75200000D01*
X141089500Y-98030000D02*
X139300800Y-98030000D01*
X154060000Y-74370000D02*
X151061041Y-74370000D01*
X159004000Y-87630000D02*
X159512000Y-88138000D01*
X146525000Y-78906040D02*
X146525000Y-80835000D01*
X142480000Y-96639500D02*
X141089500Y-98030000D01*
X154890000Y-75200000D02*
X154060000Y-74370000D01*
X165579315Y-82521315D02*
X165608000Y-82550000D01*
X165579315Y-81471500D02*
X165579315Y-82521315D01*
X162838500Y-82550000D02*
X162838500Y-81484186D01*
X168115000Y-83370000D02*
X166428000Y-83370000D01*
X162838500Y-81484186D02*
X156554314Y-75200000D01*
X166428000Y-83370000D02*
X165608000Y-82550000D01*
X146525000Y-80835000D02*
X146475000Y-80885000D01*
X151009040Y-74422000D02*
X146525000Y-78906040D01*
X159512000Y-88138000D02*
X161919500Y-88138000D01*
%TO.N,/EN_ESP*%
X145100000Y-85760000D02*
X142600000Y-85760000D01*
X145660000Y-86320000D02*
X145100000Y-85760000D01*
X131610000Y-101880050D02*
X131610000Y-102539500D01*
X138471300Y-102669500D02*
X139300800Y-101840000D01*
X135730000Y-92760000D02*
X132800000Y-92760000D01*
X131460000Y-95681325D02*
X131460000Y-101730050D01*
X132800000Y-94341325D02*
X131460000Y-95681325D01*
X132800000Y-92760000D02*
X132800000Y-94341325D01*
X138176000Y-102669500D02*
X138471300Y-102669500D01*
X131610000Y-102539500D02*
X130350000Y-103799500D01*
X142600000Y-85760000D02*
X142550000Y-85810000D01*
X131460000Y-101730050D02*
X131610000Y-101880050D01*
%TO.N,Net-(R15-Pad1)*%
X137562000Y-103780000D02*
X139262834Y-103780000D01*
X141480000Y-99466500D02*
X141478000Y-99464500D01*
X141480000Y-101562834D02*
X141480000Y-99466500D01*
X136130000Y-98784914D02*
X136130000Y-102348000D01*
X135375086Y-98030000D02*
X136130000Y-98784914D01*
X139262834Y-103780000D02*
X141480000Y-101562834D01*
X136130000Y-102348000D02*
X137562000Y-103780000D01*
X134119200Y-98030000D02*
X135375086Y-98030000D01*
%TO.N,Net-(R17-Pad1)*%
X111252000Y-99332000D02*
X111237500Y-99346500D01*
X111237500Y-99346500D02*
X111237500Y-100790000D01*
X106060000Y-96450000D02*
X106060000Y-94980000D01*
%TO.N,Net-(R18-Pad1)*%
X114740000Y-99360000D02*
X114707500Y-99392500D01*
X107330000Y-94860000D02*
X107330000Y-96435000D01*
X114707500Y-99392500D02*
X114707500Y-100760000D01*
X107330000Y-96435000D02*
X107355000Y-96460000D01*
%TO.N,Net-(R19-Pad1)*%
X108580000Y-96415000D02*
X108625000Y-96460000D01*
X108580000Y-94890000D02*
X108580000Y-96415000D01*
X118147500Y-100720000D02*
X118147500Y-99217500D01*
%TO.N,Net-(R20-Pad1)*%
X119280000Y-88865000D02*
X118720000Y-88305000D01*
X121197500Y-89710000D02*
X120352500Y-88865000D01*
X120352500Y-88865000D02*
X119280000Y-88865000D01*
%TO.N,Net-(C23-Pad1)*%
X180062500Y-91852500D02*
X183000000Y-91852500D01*
X179530000Y-91320000D02*
X180062500Y-91852500D01*
X208290000Y-112820000D02*
X209655000Y-112820000D01*
X196130450Y-110050000D02*
X194730000Y-110050000D01*
X194730000Y-110050000D02*
X194090000Y-109410000D01*
X190480236Y-96470000D02*
X185862736Y-91852500D01*
X196555628Y-109624822D02*
X196130450Y-110050000D01*
X203770688Y-106700688D02*
X204469312Y-106700688D01*
X207490000Y-112450000D02*
X207920000Y-112450000D01*
X207090000Y-108580000D02*
X207090000Y-112050000D01*
X179530000Y-90985000D02*
X179530000Y-91320000D01*
X207090000Y-112050000D02*
X207490000Y-112450000D01*
X194090000Y-102670000D02*
X192530000Y-101110000D01*
X194090000Y-109410000D02*
X194090000Y-102670000D01*
X196555628Y-109274872D02*
X196555628Y-109624822D01*
X185862736Y-91852500D02*
X183000000Y-91852500D01*
X207920000Y-112450000D02*
X208290000Y-112820000D01*
X204469312Y-106700688D02*
X205210000Y-105960000D01*
X190980000Y-96470000D02*
X190480236Y-96470000D01*
X207390000Y-108280000D02*
X207090000Y-108580000D01*
%TO.N,Net-(D12-Pad2)*%
X207540000Y-104067500D02*
X207540000Y-102295000D01*
X207540000Y-102295000D02*
X207530000Y-102285000D01*
%TO.N,/PC1*%
X132660050Y-77880000D02*
X131752500Y-77880000D01*
X133626779Y-77492465D02*
X133047585Y-77492465D01*
X142550000Y-86810000D02*
X141613299Y-86810000D01*
X134050000Y-83110000D02*
X134050000Y-77915686D01*
X134050000Y-77915686D02*
X133626779Y-77492465D01*
X137913298Y-83110000D02*
X134050000Y-83110000D01*
X133047585Y-77492465D02*
X132660050Y-77880000D01*
X141613299Y-86810000D02*
X137913298Y-83110000D01*
%TO.N,/PC0*%
X143362915Y-86310000D02*
X142550000Y-86310000D01*
X143924500Y-86871585D02*
X143362915Y-86310000D01*
%TO.N,/PD2*%
X154375901Y-77680000D02*
X154706143Y-77349758D01*
X151215862Y-77680000D02*
X154375901Y-77680000D01*
X133337535Y-78192465D02*
X133650000Y-78504930D01*
X149475000Y-79420860D02*
X151215862Y-77680000D01*
X133650000Y-80372500D02*
X132132500Y-81890000D01*
X149475000Y-80885000D02*
X149475000Y-79420860D01*
X133650000Y-78504930D02*
X133650000Y-80372500D01*
%TO.N,/HSE_IN*%
X137330000Y-78950000D02*
X137330000Y-79557500D01*
X141744670Y-84810000D02*
X140450000Y-83515330D01*
X140450000Y-83515330D02*
X140450000Y-82070000D01*
X142550000Y-84810000D02*
X141744670Y-84810000D01*
X140450000Y-82070000D02*
X137330000Y-78950000D01*
X137330000Y-79557500D02*
X135257500Y-81630000D01*
%TO.N,Net-(R26-Pad2)*%
X137082500Y-81630000D02*
X137082500Y-80797500D01*
X187235685Y-70820000D02*
X186136237Y-70820000D01*
X185515737Y-71440500D02*
X184617500Y-72338737D01*
X186136237Y-70820000D02*
X185506237Y-71450000D01*
X187470000Y-73199114D02*
X187470000Y-71054315D01*
X169900000Y-77060000D02*
X169330500Y-77060000D01*
X188135147Y-73864261D02*
X187470000Y-73199114D01*
X137082500Y-80797500D02*
X137250000Y-80630000D01*
X187470000Y-71054315D02*
X187235685Y-70820000D01*
X169330500Y-77060000D02*
X166250000Y-73979500D01*
X184617500Y-72338737D02*
X184617500Y-73295000D01*
D64*
%TO.N,/BCLK*%
X156328566Y-79015000D02*
X156902566Y-78441000D01*
D61*
X189933946Y-69923554D02*
X189307500Y-70550000D01*
D64*
X150975000Y-80885000D02*
X150975000Y-79653274D01*
X151613274Y-79015000D02*
X156328566Y-79015000D01*
D61*
X189933946Y-69519500D02*
X189933946Y-69923554D01*
D64*
X150975000Y-79653274D02*
X151613274Y-79015000D01*
D61*
%TO.N,Net-(R27-Pad2)*%
X190007631Y-68560500D02*
X187830051Y-68560500D01*
X184117500Y-72273051D02*
X184117500Y-73295000D01*
X187830051Y-68560500D02*
X184117500Y-72273051D01*
X191182500Y-70660000D02*
X191182500Y-69735369D01*
X191182500Y-69735369D02*
X190007631Y-68560500D01*
%TO.N,/DACLRC*%
X193810000Y-69676568D02*
X193810000Y-72499500D01*
X189070000Y-72560000D02*
X188569500Y-72059500D01*
X193810000Y-72499500D02*
X193749500Y-72560000D01*
X189347500Y-72560000D02*
X189070000Y-72560000D01*
X191376716Y-67243284D02*
X193810000Y-69676568D01*
%TO.N,Net-(R28-Pad2)*%
X191192500Y-72630000D02*
X191192500Y-72147500D01*
X192240000Y-71100000D02*
X192240000Y-70227183D01*
X183617500Y-72207365D02*
X183617500Y-73295000D01*
X190173317Y-68160500D02*
X187664365Y-68160500D01*
X187664365Y-68160500D02*
X183617500Y-72207365D01*
X192240000Y-70227183D02*
X190173317Y-68160500D01*
X191192500Y-72147500D02*
X192240000Y-71100000D01*
%TO.N,/DACDAT*%
X151271548Y-78190000D02*
X154915479Y-78190000D01*
X188120000Y-69260500D02*
X187710000Y-69670500D01*
X187710000Y-70728629D02*
X187870000Y-70888630D01*
X188461444Y-73164261D02*
X188857183Y-73560000D01*
X188880450Y-73560000D02*
X189377500Y-74057050D01*
X154915479Y-78190000D02*
X155695174Y-77410305D01*
X155695174Y-77410305D02*
X155695174Y-77205457D01*
X187710000Y-69670500D02*
X187710000Y-70728629D01*
X189377500Y-74057050D02*
X189377500Y-74570000D01*
X187870000Y-70888630D02*
X187870000Y-72850000D01*
X188857183Y-73560000D02*
X188880450Y-73560000D01*
X149975000Y-79486546D02*
X151271548Y-78190000D01*
X149975000Y-80885000D02*
X149975000Y-79486546D01*
X188184261Y-73164261D02*
X188461444Y-73164261D01*
X187870000Y-72850000D02*
X188184261Y-73164261D01*
%TO.N,Net-(R29-Pad2)*%
X190339003Y-67760500D02*
X192650000Y-70071497D01*
X183117500Y-72141679D02*
X187498679Y-67760500D01*
X192650000Y-73122500D02*
X191202500Y-74570000D01*
X183117500Y-73295000D02*
X183117500Y-72141679D01*
X187498679Y-67760500D02*
X190339003Y-67760500D01*
X192650000Y-70071497D02*
X192650000Y-73122500D01*
%TO.N,/ADCDAT*%
X192310500Y-75560000D02*
X190457500Y-75560000D01*
X150475000Y-79552232D02*
X151437233Y-78590000D01*
X151437233Y-78590000D02*
X155505429Y-78590000D01*
X150475000Y-80885000D02*
X150475000Y-79552232D01*
X192360500Y-75510000D02*
X192310500Y-75560000D01*
X155505429Y-78590000D02*
X155914929Y-78180500D01*
X190457500Y-75560000D02*
X189417500Y-76600000D01*
%TO.N,Net-(R31-Pad2)*%
X182117500Y-72575993D02*
X182117500Y-73295000D01*
X193060000Y-75860000D02*
X193060000Y-72860450D01*
X193060000Y-72860450D02*
X193049500Y-72849950D01*
X192360000Y-76560000D02*
X193060000Y-75860000D01*
X187332993Y-67360500D02*
X182117500Y-72575993D01*
X193049500Y-72849950D02*
X193049500Y-72270050D01*
X190504688Y-67360500D02*
X187332993Y-67360500D01*
X193060000Y-72259550D02*
X193060000Y-69915812D01*
X191202500Y-76560000D02*
X192360000Y-76560000D01*
X193049500Y-72270050D02*
X193060000Y-72259550D01*
X193060000Y-69915812D02*
X190504688Y-67360500D01*
%TO.N,Net-(R32-Pad2)*%
X118720000Y-93385000D02*
X120392500Y-93385000D01*
X120392500Y-93385000D02*
X120677500Y-93670000D01*
%TO.N,Net-(R36-Pad1)*%
X193882500Y-80580000D02*
X194232500Y-80930000D01*
X192192500Y-80580000D02*
X193882500Y-80580000D01*
%TO.N,/BATT_CHG_PA0*%
X202530000Y-99950000D02*
X203247500Y-99950000D01*
X127447764Y-84375000D02*
X135786371Y-84375000D01*
X135786371Y-84375000D02*
X140721372Y-89310000D01*
X202440000Y-101160000D02*
X202440000Y-100040000D01*
X140721372Y-89310000D02*
X142550000Y-89310000D01*
X127076382Y-84003618D02*
X127447764Y-84375000D01*
X122450000Y-102220000D02*
X122450000Y-102470000D01*
X122450000Y-102470000D02*
X123080000Y-103100000D01*
X124530000Y-95560000D02*
X124530000Y-98610000D01*
X122450000Y-100690000D02*
X122450000Y-102220000D01*
X124470000Y-98670000D02*
X122450000Y-100690000D01*
X203247500Y-99950000D02*
X203367500Y-99830000D01*
X202530000Y-99950000D02*
X201742500Y-99950000D01*
X124530000Y-98610000D02*
X124470000Y-98670000D01*
X202440000Y-100040000D02*
X202530000Y-99950000D01*
%TO.N,Net-(SW9-Pad1)*%
X159774111Y-89452253D02*
X155131858Y-84810000D01*
X155131858Y-84810000D02*
X153900000Y-84810000D01*
X168075000Y-74195000D02*
X168075000Y-73580000D01*
X168710000Y-74830000D02*
X168075000Y-74195000D01*
X160292310Y-89452253D02*
X159774111Y-89452253D01*
%TO.N,Net-(SW10-Pad1)*%
X159835839Y-84040404D02*
X160020520Y-84225085D01*
X160020520Y-84225085D02*
X160020520Y-85409573D01*
X155197544Y-84310000D02*
X153900000Y-84310000D01*
X160020520Y-85409573D02*
X159610470Y-85819623D01*
X159610470Y-85819623D02*
X156707167Y-85819623D01*
X168075000Y-78195000D02*
X167100000Y-77220000D01*
X156707167Y-85819623D02*
X155197544Y-84310000D01*
X168075000Y-78460000D02*
X168075000Y-78195000D01*
D63*
%TO.N,/BB_COLS_3*%
X165582082Y-95877918D02*
X163130000Y-98330000D01*
X158242000Y-102870000D02*
X158670000Y-102870000D01*
X168550000Y-95740000D02*
X168170000Y-95360000D01*
X170350000Y-95730000D02*
X170340000Y-95740000D01*
X158670000Y-102870000D02*
X163136000Y-98404000D01*
X165970468Y-95360000D02*
X165582082Y-95748386D01*
X168170000Y-95360000D02*
X165970468Y-95360000D01*
X170340000Y-95740000D02*
X168550000Y-95740000D01*
X163136000Y-98404000D02*
X163136000Y-98324000D01*
X165582082Y-95748386D02*
X165582082Y-95877918D01*
D61*
%TO.N,Net-(D13-Pad2)*%
X209710000Y-102287500D02*
X209690000Y-102267500D01*
X209710000Y-104057500D02*
X209710000Y-102287500D01*
%TO.N,/CS_PA1*%
X115620000Y-77110000D02*
X115620000Y-69749450D01*
X135620686Y-84775000D02*
X125902057Y-84775000D01*
X119484314Y-77110000D02*
X115620000Y-77110000D01*
X142550000Y-89810000D02*
X140655686Y-89810000D01*
X124080000Y-82952943D02*
X124080000Y-82020000D01*
X140655686Y-89810000D02*
X135620686Y-84775000D01*
X125902057Y-84775000D02*
X124080000Y-82952943D01*
X124080000Y-82020000D02*
X122620378Y-80560378D01*
X122620378Y-80560378D02*
X121160000Y-80560378D01*
X121160000Y-78785686D02*
X119484314Y-77110000D01*
X121160000Y-80560378D02*
X121160000Y-78785686D01*
%TO.N,/ESP_UART1_RX*%
X113650000Y-94980000D02*
X113650000Y-96405000D01*
X130020000Y-96230000D02*
X130020000Y-96598014D01*
X130020000Y-96598014D02*
X129339007Y-97279007D01*
X113650000Y-96405000D02*
X113705000Y-96460000D01*
%TO.N,/ESP_UART1_TX*%
X112400000Y-96490000D02*
X112400000Y-94990000D01*
X126924122Y-91315122D02*
X126924122Y-91040878D01*
X127595000Y-90370000D02*
X128070000Y-90370000D01*
X126924122Y-91040878D02*
X127595000Y-90370000D01*
D63*
%TO.N,/BB_MIC*%
X169310000Y-99003000D02*
X169310000Y-99770000D01*
X169773000Y-98540000D02*
X169310000Y-99003000D01*
X170225000Y-98540000D02*
X169773000Y-98540000D01*
%TO.N,/BB_ROW_1*%
X168530000Y-100812000D02*
X168530000Y-98583000D01*
X168530000Y-98583000D02*
X169773000Y-97340000D01*
X169773000Y-97340000D02*
X170225000Y-97340000D01*
X168979000Y-101261000D02*
X168530000Y-100812000D01*
%TO.N,/BB_ROW_2*%
X167060000Y-97871169D02*
X167060000Y-98820000D01*
X168391169Y-96540000D02*
X167060000Y-97871169D01*
X170225000Y-96540000D02*
X168391169Y-96540000D01*
D61*
%TO.N,/BB_ROW_3*%
X155106372Y-89310000D02*
X153900000Y-89310000D01*
X156620000Y-95890303D02*
X156620000Y-90823629D01*
D63*
X172405000Y-95340000D02*
X175650000Y-95340000D01*
D61*
X156620000Y-90823629D02*
X155106372Y-89310000D01*
D63*
X175650000Y-95340000D02*
X176345000Y-96035000D01*
D61*
X157618395Y-96888698D02*
X156620000Y-95890303D01*
D63*
%TO.N,/BB_ROW_4*%
X172405000Y-96140000D02*
X173550000Y-96140000D01*
X174780000Y-97370000D02*
X173550000Y-96140000D01*
D61*
%TO.N,/WM_PC6*%
X157420004Y-90492259D02*
X159477759Y-92550013D01*
X159770000Y-94350000D02*
X159950000Y-94530000D01*
X159950000Y-94530000D02*
X159950000Y-94620000D01*
X159477759Y-92550013D02*
X159481583Y-92550013D01*
X157420000Y-90492259D02*
X157420004Y-90492259D01*
X155237743Y-88310000D02*
X157420000Y-90492259D01*
X159481583Y-92550013D02*
X159770000Y-92838430D01*
X159770000Y-92838430D02*
X159770000Y-94350000D01*
X153900000Y-88310000D02*
X155237743Y-88310000D01*
%TO.N,/WM_PC7*%
X159647269Y-92150013D02*
X160482923Y-92985666D01*
X153900000Y-87810000D02*
X155303429Y-87810000D01*
X155303429Y-87810000D02*
X159643445Y-92150013D01*
X171906291Y-88267209D02*
X171906291Y-86823709D01*
X159643445Y-92150013D02*
X159647269Y-92150013D01*
X160482923Y-92985666D02*
X160482923Y-93708674D01*
X171590000Y-88583500D02*
X171906291Y-88267209D01*
%TO.N,/SWD_DIO*%
X158979257Y-85119623D02*
X158707229Y-85391651D01*
X158707229Y-85391651D02*
X156844881Y-85391651D01*
X159320520Y-85119623D02*
X158979257Y-85119623D01*
X155263230Y-83810000D02*
X153900000Y-83810000D01*
X156844881Y-85391651D02*
X155263230Y-83810000D01*
%TO.N,/SWD_CLK*%
X158753274Y-79840000D02*
X152175000Y-79840000D01*
X152175000Y-79840000D02*
X151975000Y-80040000D01*
X159140000Y-83968930D02*
X159140000Y-80226726D01*
X151975000Y-80040000D02*
X151975000Y-80885000D01*
X159140000Y-80226726D02*
X158753274Y-79840000D01*
X158417279Y-84691651D02*
X159140000Y-83968930D01*
%TO.N,/BL_PA4*%
X151789314Y-79440000D02*
X157320500Y-79440000D01*
X157320500Y-79440000D02*
X157620000Y-79140500D01*
X151475000Y-80885000D02*
X151475000Y-79754314D01*
X151475000Y-79754314D02*
X151789314Y-79440000D01*
%TO.N,/BB_ROW_6*%
X154615951Y-76450000D02*
X153785951Y-77280000D01*
X153785951Y-77280000D02*
X151050177Y-77280000D01*
X162688000Y-83870433D02*
X161959393Y-83870433D01*
X164346498Y-91470000D02*
X162688000Y-89811502D01*
X175112342Y-91466903D02*
X174533147Y-91466903D01*
D63*
X172857000Y-96940000D02*
X172878500Y-96961500D01*
D61*
X174530052Y-91470000D02*
X164346498Y-91470000D01*
X160210500Y-80731540D02*
X155928960Y-76450000D01*
X183300000Y-94710000D02*
X178355439Y-94710000D01*
X160210500Y-82121540D02*
X160210500Y-80731540D01*
X184570000Y-95980000D02*
X183300000Y-94710000D01*
D63*
X172878500Y-96961500D02*
X172878500Y-97878500D01*
X172405000Y-96940000D02*
X172857000Y-96940000D01*
D61*
X151050177Y-77280000D02*
X148975000Y-79355176D01*
X148975000Y-79355176D02*
X148975000Y-80885000D01*
D63*
X172878500Y-97878500D02*
X174310000Y-99310000D01*
D61*
X162688000Y-89811502D02*
X162688000Y-83870433D01*
X174533147Y-91466903D02*
X174530052Y-91470000D01*
X155928960Y-76450000D02*
X154615951Y-76450000D01*
X161959393Y-83870433D02*
X160210500Y-82121540D01*
X178355439Y-94710000D02*
X175112342Y-91466903D01*
D64*
%TO.N,/BB_ROW_7*%
X174354011Y-91045000D02*
X164522538Y-91045000D01*
X156105000Y-76025000D02*
X154439910Y-76025000D01*
X184081387Y-94285000D02*
X178531479Y-94285000D01*
X163113000Y-89635462D02*
X163113000Y-83445433D01*
X163113000Y-83445433D02*
X162135433Y-83445433D01*
X148475000Y-79254137D02*
X148475000Y-80885000D01*
X164522538Y-91045000D02*
X163113000Y-89635462D01*
X174357108Y-91041903D02*
X174354011Y-91045000D01*
X160635500Y-81945500D02*
X160635500Y-80555500D01*
X175288382Y-91041903D02*
X174357108Y-91041903D01*
X153609911Y-76855000D02*
X150874137Y-76855000D01*
X162135433Y-83445433D02*
X160635500Y-81945500D01*
X178531479Y-94285000D02*
X175288382Y-91041903D01*
X150874137Y-76855000D02*
X148475000Y-79254137D01*
X185541515Y-95745128D02*
X184081387Y-94285000D01*
X160635500Y-80555500D02*
X156105000Y-76025000D01*
X154439910Y-76025000D02*
X153609911Y-76855000D01*
D61*
%TO.N,/BB_COLS_5*%
X147975000Y-79153097D02*
X147975000Y-80885000D01*
X161707914Y-81342843D02*
X161707914Y-80943600D01*
X161707914Y-80943600D02*
X156364314Y-75600000D01*
X150698097Y-76430000D02*
X147975000Y-79153097D01*
X171430000Y-95320000D02*
X171850000Y-95740000D01*
X166860000Y-94230000D02*
X167590000Y-94960000D01*
X154263869Y-75600000D02*
X153433870Y-76430000D01*
X153433870Y-76430000D02*
X150698097Y-76430000D01*
X171850000Y-95740000D02*
X172070000Y-95740000D01*
X156364314Y-75600000D02*
X154263869Y-75600000D01*
%TO.N,/BB_COLS_2*%
X150895355Y-73970000D02*
X145975000Y-78890355D01*
X145975000Y-78890355D02*
X145975000Y-80885000D01*
X155055686Y-74800000D02*
X154225685Y-73970000D01*
X174181068Y-90616903D02*
X174177970Y-90620000D01*
X163538000Y-81618001D02*
X156719999Y-74800000D01*
X185240000Y-93860000D02*
X178707520Y-93860000D01*
X154225685Y-73970000D02*
X150895355Y-73970000D01*
X156719999Y-74800000D02*
X155055686Y-74800000D01*
X178707520Y-93860000D02*
X175464422Y-90616903D01*
X186396419Y-95016419D02*
X185240000Y-93860000D01*
X164698578Y-90620000D02*
X163538000Y-89459422D01*
X175464422Y-90616903D02*
X174181068Y-90616903D01*
X163538000Y-89459422D02*
X163538000Y-81618001D01*
D63*
X170225000Y-96140000D02*
X166240000Y-96140000D01*
D61*
X174177970Y-90620000D02*
X164698578Y-90620000D01*
%TO.N,/BB_COLS_1*%
X150729670Y-73570000D02*
X145475000Y-78824670D01*
X174012285Y-90220000D02*
X164864264Y-90220000D01*
X163938000Y-89293736D02*
X163938000Y-81452315D01*
X187510000Y-94990000D02*
X185980000Y-93460000D01*
X178873205Y-93460000D02*
X175630107Y-90216903D01*
X155221372Y-74400000D02*
X154391370Y-73570000D01*
D63*
X168200000Y-97669500D02*
X168929500Y-96940000D01*
D61*
X145475000Y-78824670D02*
X145475000Y-80885000D01*
X154391370Y-73570000D02*
X150729670Y-73570000D01*
X163938000Y-81452315D02*
X156885684Y-74400000D01*
X164864264Y-90220000D02*
X163938000Y-89293736D01*
X185980000Y-93460000D02*
X178873205Y-93460000D01*
D63*
X168929500Y-96940000D02*
X170225000Y-96940000D01*
D61*
X174015382Y-90216903D02*
X174012285Y-90220000D01*
X156885684Y-74400000D02*
X155221372Y-74400000D01*
X175630107Y-90216903D02*
X174015382Y-90216903D01*
%TO.N,/UD-*%
X202582500Y-98425000D02*
X203470000Y-97537500D01*
X198330000Y-99790000D02*
X199695000Y-98425000D01*
X196280000Y-99790000D02*
X198330000Y-99790000D01*
X199695000Y-98425000D02*
X202582500Y-98425000D01*
X195515000Y-98385000D02*
X195515000Y-99025000D01*
X195515000Y-99025000D02*
X196280000Y-99790000D01*
%TO.N,/UD+*%
X202600000Y-97720000D02*
X202295000Y-98025000D01*
X195398604Y-96890000D02*
X194245000Y-98043604D01*
X198440000Y-96890000D02*
X195398604Y-96890000D01*
X199575000Y-98025000D02*
X198440000Y-96890000D01*
X194245000Y-98043604D02*
X194245000Y-98385000D01*
X203470000Y-96462500D02*
X203007500Y-96462500D01*
X202600000Y-96870000D02*
X202600000Y-97720000D01*
X203007500Y-96462500D02*
X202600000Y-96870000D01*
X202295000Y-98025000D02*
X199575000Y-98025000D01*
%TO.N,Net-(C25-Pad2)*%
X137714000Y-100570000D02*
X139300800Y-100570000D01*
X174282993Y-88270000D02*
X174835000Y-88270000D01*
X159561648Y-87122000D02*
X161798000Y-87122000D01*
X161798000Y-87122000D02*
X161798000Y-85280500D01*
X141014365Y-95940000D02*
X140540000Y-95465636D01*
X143060000Y-95940000D02*
X141014365Y-95940000D01*
X143510000Y-97639500D02*
X143510000Y-96526196D01*
X173432493Y-89120500D02*
X174282993Y-88270000D01*
X140540000Y-95465636D02*
X140540000Y-94904314D01*
X165608000Y-86680000D02*
X165608000Y-85797500D01*
X143516696Y-96519500D02*
X143516696Y-96396696D01*
X165608000Y-85797500D02*
X165360000Y-85549500D01*
X136990000Y-99846000D02*
X137714000Y-100570000D01*
X137083300Y-94786700D02*
X136660000Y-95210000D01*
X140422386Y-94786700D02*
X137083300Y-94786700D01*
X143510000Y-96526196D02*
X143516696Y-96519500D01*
X136660000Y-95210000D02*
X136660000Y-96496364D01*
X159150771Y-86711123D02*
X159561648Y-87122000D01*
X136990000Y-96826364D02*
X136990000Y-99846000D01*
X140540000Y-94904314D02*
X140422386Y-94786700D01*
X158325500Y-86711123D02*
X159150771Y-86711123D01*
X136660000Y-96496364D02*
X136990000Y-96826364D01*
X143516696Y-96396696D02*
X143060000Y-95940000D01*
X161798000Y-85280500D02*
X161988500Y-85090000D01*
%TO.N,Net-(J10-Pad2)*%
X139652183Y-68270000D02*
X138260000Y-68270000D01*
X138260000Y-68270000D02*
X136520000Y-66530000D01*
X140430000Y-69647500D02*
X140430000Y-69047817D01*
X140430000Y-69047817D02*
X139652183Y-68270000D01*
X136520000Y-66530000D02*
X136520000Y-64610000D01*
%TO.N,Net-(J10-Pad3)*%
X138280000Y-69627500D02*
X134520000Y-65867500D01*
X134520000Y-65867500D02*
X134520000Y-64610000D01*
%TO.N,/LINPUT1*%
X205500000Y-64610000D02*
X205500000Y-65565685D01*
X201090050Y-68629500D02*
X200049550Y-69670000D01*
X194850000Y-76170000D02*
X193010000Y-78010000D01*
X186875000Y-76020000D02*
X186342500Y-76020000D01*
X202436185Y-68629500D02*
X201090050Y-68629500D01*
X187507500Y-76863186D02*
X187507500Y-76652500D01*
X205500000Y-65565685D02*
X202436185Y-68629500D01*
X193010000Y-78010000D02*
X188654314Y-78010000D01*
X200049550Y-69670000D02*
X195535686Y-69670000D01*
X194850000Y-70355686D02*
X194850000Y-76170000D01*
X195535686Y-69670000D02*
X194850000Y-70355686D01*
X188654314Y-78010000D02*
X187507500Y-76863186D01*
X187507500Y-76652500D02*
X186875000Y-76020000D01*
%TO.N,/RINPUT1*%
X203500000Y-67000000D02*
X203500000Y-64610000D01*
X199913865Y-69240000D02*
X200924365Y-68229500D01*
X202270500Y-68229500D02*
X203500000Y-67000000D01*
X190260000Y-77610000D02*
X190280000Y-77590000D01*
X194450000Y-70190000D02*
X195400000Y-69240000D01*
X194450000Y-76004314D02*
X194450000Y-70190000D01*
X188820000Y-77610000D02*
X190260000Y-77610000D01*
X186342500Y-75520000D02*
X186940686Y-75520000D01*
X186940686Y-75520000D02*
X187907500Y-76486814D01*
X190280000Y-77590000D02*
X192864314Y-77590000D01*
X187907500Y-76486814D02*
X187907500Y-76487500D01*
X195400000Y-69240000D02*
X199913865Y-69240000D01*
X192864314Y-77590000D02*
X194450000Y-76004314D01*
X188580000Y-77160000D02*
X188580000Y-77370000D01*
X187907500Y-76487500D02*
X188580000Y-77160000D01*
X200924365Y-68229500D02*
X202270500Y-68229500D01*
X188580000Y-77370000D02*
X188820000Y-77610000D01*
%TO.N,/SPK_LP*%
X181870000Y-78330000D02*
X182032500Y-78330000D01*
X177000500Y-75778614D02*
X177031386Y-75778614D01*
X182032500Y-78330000D02*
X182117500Y-78245000D01*
X177031386Y-75778614D02*
X178541386Y-77288614D01*
%TO.N,/HP_R*%
X184117500Y-79695442D02*
X183370000Y-80442942D01*
X197560000Y-67989500D02*
X197500000Y-67929500D01*
X196440000Y-90781370D02*
X196440000Y-88369500D01*
X183370000Y-87521370D02*
X187018630Y-91170000D01*
X184117500Y-78245000D02*
X184117500Y-79695442D01*
X183370000Y-80442942D02*
X183370000Y-87521370D01*
X187018630Y-91170000D02*
X195228628Y-91170000D01*
X196440000Y-88369500D02*
X196739500Y-88070000D01*
X195971371Y-91250000D02*
X196440000Y-90781370D01*
X195308629Y-91250000D02*
X195971371Y-91250000D01*
X197500000Y-67929500D02*
X197500000Y-64610000D01*
X195228628Y-91170000D02*
X195308629Y-91250000D01*
%TO.N,/OUT3*%
X195500000Y-67170000D02*
X195500000Y-64610000D01*
X184617500Y-78245000D02*
X184617500Y-79761128D01*
X183770000Y-87355685D02*
X187184315Y-90770000D01*
X196040000Y-90615685D02*
X196040000Y-87329500D01*
X187184315Y-90770000D02*
X195394314Y-90770000D01*
X184617500Y-79761128D02*
X183770000Y-80608630D01*
X196040000Y-87329500D02*
X196339500Y-87030000D01*
X196410000Y-68080000D02*
X195500000Y-67170000D01*
X183770000Y-80608630D02*
X183770000Y-87355685D01*
X195394314Y-90770000D02*
X195474314Y-90850000D01*
X195474314Y-90850000D02*
X195805686Y-90850000D01*
X195805686Y-90850000D02*
X196040000Y-90615685D01*
%TO.N,/HP_L*%
X199500000Y-67830050D02*
X199500000Y-64610000D01*
X187350000Y-90370000D02*
X195560000Y-90370000D01*
X195680000Y-68790000D02*
X198540050Y-68790000D01*
X184170000Y-80774315D02*
X184170000Y-87190000D01*
X195200000Y-68310000D02*
X195680000Y-68790000D01*
X198540050Y-68790000D02*
X199500000Y-67830050D01*
X185117500Y-78245000D02*
X185117500Y-79826814D01*
X195560000Y-90370000D02*
X195640000Y-90450000D01*
X195640000Y-90450000D02*
X195640000Y-85840000D01*
X184170000Y-87190000D02*
X187350000Y-90370000D01*
X195640000Y-85840000D02*
X195610000Y-85810000D01*
X185117500Y-79826814D02*
X184170000Y-80774315D01*
%TO.N,/ESP_UART1_EN*%
X116042535Y-95037465D02*
X116200000Y-95194930D01*
X128120000Y-93010000D02*
X128120000Y-94930000D01*
X126800000Y-93010000D02*
X128120000Y-93010000D01*
X116200000Y-95194930D02*
X116200000Y-96420000D01*
%TO.N,/UART2_EN*%
X128135027Y-83010912D02*
X128634115Y-83510000D01*
X141547613Y-87310000D02*
X142550000Y-87310000D01*
X128634115Y-83510000D02*
X137747613Y-83510000D01*
X137747613Y-83510000D02*
X141547613Y-87310000D01*
X128070000Y-86460000D02*
X128070000Y-89720000D01*
%TO.N,/UART2_TX*%
X142550000Y-90310000D02*
X140590000Y-90310000D01*
X126100000Y-85580000D02*
X126100000Y-95220000D01*
X126460000Y-95580000D02*
X128120000Y-95580000D01*
X126100000Y-95220000D02*
X126460000Y-95580000D01*
X140590000Y-90310000D02*
X135455000Y-85175000D01*
X135455000Y-85175000D02*
X126505000Y-85175000D01*
X126505000Y-85175000D02*
X126100000Y-85580000D01*
%TO.N,/UART2_RX*%
X144475000Y-92590000D02*
X144475000Y-92235000D01*
X130100000Y-91150000D02*
X129970000Y-91020000D01*
X136327817Y-91590000D02*
X140160000Y-91590000D01*
X131965000Y-93762817D02*
X131965000Y-92805000D01*
X140160000Y-91590000D02*
X141160000Y-92590000D01*
X131908233Y-93819585D02*
X131965000Y-93762817D01*
X131908233Y-94243142D02*
X131908233Y-93819585D01*
X131150000Y-91150000D02*
X130100000Y-91150000D01*
X132410000Y-92360000D02*
X135557817Y-92360000D01*
X135557817Y-92360000D02*
X136327817Y-91590000D01*
X131965000Y-92805000D02*
X132410000Y-92360000D01*
X141160000Y-92590000D02*
X144475000Y-92590000D01*
%TO.N,Net-(R37-Pad2)*%
X196402500Y-79000000D02*
X196402500Y-80825000D01*
X196402500Y-80825000D02*
X196507500Y-80930000D01*
%TO.N,Net-(C21-Pad2)*%
X151475000Y-95460000D02*
X151550000Y-95535000D01*
X151475000Y-92235000D02*
X151475000Y-95460000D01*
%TO.N,Net-(C22-Pad2)*%
X153900000Y-83310000D02*
X156435000Y-83310000D01*
X156435000Y-83310000D02*
X156455000Y-83330000D01*
%TO.N,Net-(J10-Pad4)*%
X132520000Y-66197500D02*
X132520000Y-64610000D01*
X135970000Y-69647500D02*
X132520000Y-66197500D01*
%TO.N,Net-(J10-Pad5)*%
X133560000Y-69667500D02*
X130520000Y-66627500D01*
X130520000Y-66627500D02*
X130520000Y-64610000D01*
%TO.N,Net-(J10-Pad6)*%
X128520000Y-64610000D02*
X128520000Y-66497500D01*
X128520000Y-66497500D02*
X131410000Y-69387500D01*
%TO.N,Net-(J10-Pad7)*%
X129030000Y-69097500D02*
X128867612Y-69097500D01*
X128867612Y-69097500D02*
X126520000Y-66749888D01*
X126520000Y-66749888D02*
X126520000Y-64610000D01*
%TO.N,Net-(R6-Pad1)*%
X105642500Y-76210000D02*
X105300000Y-76552500D01*
X107365000Y-76210000D02*
X105642500Y-76210000D01*
X105250000Y-76842500D02*
X105662500Y-76430000D01*
%TO.N,Net-(R21-Pad1)*%
X109905000Y-70830000D02*
X109905000Y-71130000D01*
X107822500Y-73212500D02*
X105340000Y-73212500D01*
X109905000Y-71130000D02*
X107822500Y-73212500D01*
%TO.N,Net-(R22-Pad1)*%
X208390500Y-114090000D02*
X209655000Y-114090000D01*
X190518598Y-112776000D02*
X193756183Y-112776000D01*
X208110000Y-109121543D02*
X208110000Y-107010000D01*
X208985000Y-109610000D02*
X208598457Y-109610000D01*
X206690000Y-107410000D02*
X207090000Y-107010000D01*
X197330000Y-111810000D02*
X198740000Y-113220000D01*
X207520000Y-114360500D02*
X207520000Y-113604314D01*
X207520000Y-113604314D02*
X206690000Y-112774314D01*
X207090000Y-107010000D02*
X208110000Y-107010000D01*
X194722183Y-111810000D02*
X197330000Y-111810000D01*
X209655000Y-110280000D02*
X208985000Y-109610000D01*
X208110000Y-107010000D02*
X209000000Y-107010000D01*
X208598457Y-109610000D02*
X208110000Y-109121543D01*
X108635000Y-75335000D02*
X109140000Y-74830000D01*
X209000000Y-107010000D02*
X209710000Y-106300000D01*
X206690000Y-112774314D02*
X206690000Y-107410000D01*
X188940000Y-114790000D02*
X188940000Y-114354598D01*
X108635000Y-76210000D02*
X108635000Y-75335000D01*
X193756183Y-112776000D02*
X194722183Y-111810000D01*
X209710000Y-106300000D02*
X209710000Y-105882500D01*
X207820000Y-114660500D02*
X208390500Y-114090000D01*
X207820000Y-114660500D02*
X207520000Y-114360500D01*
X188940000Y-114354598D02*
X190518598Y-112776000D01*
%TO.N,/ESP_IO35*%
X121859500Y-66450000D02*
X121560000Y-66749500D01*
X120160000Y-67470000D02*
X120160000Y-73770000D01*
X120160000Y-73770000D02*
X118400000Y-75530000D01*
X130502500Y-72120000D02*
X131410000Y-71212500D01*
X121560000Y-66749500D02*
X121560000Y-69323274D01*
X120000000Y-67310000D02*
X120160000Y-67470000D01*
X121560000Y-69323274D02*
X124356726Y-72120000D01*
X118400000Y-75530000D02*
X118400000Y-76240000D01*
X116260000Y-80390000D02*
X116260000Y-78975000D01*
X124356726Y-72120000D02*
X130502500Y-72120000D01*
X116260000Y-78975000D02*
X116245000Y-78960000D01*
%TO.N,/ESP_IO36*%
X119300000Y-67690050D02*
X119760000Y-68150050D01*
X122149450Y-65750000D02*
X122559500Y-66160050D01*
X119854653Y-66321122D02*
X119300000Y-66875775D01*
X122559500Y-66739950D02*
X121960000Y-67339450D01*
X121960000Y-69157588D02*
X124522412Y-71720000D01*
X121960000Y-67339450D02*
X121960000Y-69157588D01*
X124522412Y-71720000D02*
X128232500Y-71720000D01*
X121859500Y-65450497D02*
X121859500Y-65750000D01*
X121859500Y-65750000D02*
X122149450Y-65750000D01*
X119760000Y-72936476D02*
X118050500Y-74645976D01*
X119760000Y-68150050D02*
X119760000Y-72936476D01*
X119300000Y-66875775D02*
X119300000Y-67690050D01*
X128232500Y-71720000D02*
X129030000Y-70922500D01*
X114975000Y-80335000D02*
X114940000Y-80370000D01*
X114975000Y-78960000D02*
X114975000Y-80335000D01*
X122559500Y-66160050D02*
X122559500Y-66739950D01*
%TO.N,Net-(R40-Pad1)*%
X206290000Y-112940000D02*
X206290000Y-107142500D01*
X207120000Y-113770000D02*
X206290000Y-112940000D01*
X207500000Y-115360000D02*
X207120000Y-114980000D01*
X207120000Y-114980000D02*
X207120000Y-113770000D01*
X206290000Y-107142500D02*
X207540000Y-105892500D01*
X209655000Y-115360000D02*
X207500000Y-115360000D01*
%TO.N,/ESP_RX0*%
X113715000Y-75345000D02*
X113715000Y-76210000D01*
X107195000Y-77880000D02*
X108030000Y-77045000D01*
X108030000Y-74700000D02*
X108717500Y-74012500D01*
X106085000Y-78010000D02*
X106215000Y-77880000D01*
X106215000Y-77880000D02*
X107195000Y-77880000D01*
X112382500Y-74012500D02*
X113715000Y-75345000D01*
X108717500Y-74012500D02*
X112382500Y-74012500D01*
X108030000Y-77045000D02*
X108030000Y-74700000D01*
X106085000Y-78960000D02*
X106085000Y-78010000D01*
%TO.N,/ESP_TX0*%
X104914622Y-80285378D02*
X104914622Y-79059622D01*
X111175000Y-70830000D02*
X111175000Y-71130000D01*
X106820000Y-74132500D02*
X106820000Y-74900000D01*
X108692500Y-73612500D02*
X107340000Y-73612500D01*
X107340000Y-73612500D02*
X106820000Y-74132500D01*
X104914622Y-79059622D02*
X104815000Y-78960000D01*
X111175000Y-71130000D02*
X108692500Y-73612500D01*
%TO.N,/Q_2*%
X206292000Y-115453370D02*
X207316630Y-116478000D01*
X211710000Y-64016496D02*
X204153503Y-56460000D01*
X204705000Y-114090000D02*
X206291999Y-114090000D01*
X210985686Y-116478000D02*
X211710000Y-115753686D01*
X206291999Y-114090000D02*
X206292000Y-115453370D01*
X207316630Y-116478000D02*
X210985686Y-116478000D01*
X153670000Y-57658000D02*
X153670000Y-60198000D01*
X211710000Y-115753686D02*
X211710000Y-64016496D01*
X154868000Y-56460000D02*
X153670000Y-57658000D01*
X204153503Y-56460000D02*
X154868000Y-56460000D01*
%TO.N,/QBAR_2*%
X206692000Y-115287685D02*
X207482315Y-116078000D01*
X203987818Y-56860000D02*
X155230000Y-56860000D01*
X211310000Y-115588000D02*
X211310000Y-64182182D01*
X204705000Y-112820000D02*
X205587685Y-112820000D01*
X154680000Y-57410000D02*
X154680000Y-59176000D01*
X206692000Y-113924315D02*
X206692000Y-115287685D01*
X207482315Y-116078000D02*
X210820000Y-116078000D01*
X210820000Y-116078000D02*
X211310000Y-115588000D01*
X154680000Y-59176000D02*
X154686000Y-59182000D01*
X211310000Y-64182182D02*
X203987818Y-56860000D01*
X205587685Y-112820000D02*
X206692000Y-113924315D01*
X155230000Y-56860000D02*
X154680000Y-57410000D01*
%TO.N,/CH_DTR*%
X149720000Y-71584314D02*
X150905686Y-72770000D01*
X160377056Y-76760000D02*
X163119999Y-76760000D01*
X164570000Y-78829950D02*
X166120050Y-80380000D01*
X196040000Y-102550000D02*
X197230000Y-103740000D01*
X166120050Y-80380000D02*
X169150000Y-80380000D01*
X203060000Y-109010000D02*
X204705000Y-109010000D01*
X163119999Y-76760000D02*
X164570000Y-78210000D01*
X191451396Y-91570000D02*
X186852944Y-91570000D01*
X182970000Y-82740000D02*
X182467257Y-82237257D01*
X182467257Y-82237257D02*
X180912943Y-82237257D01*
X186852944Y-91570000D02*
X182970000Y-87687056D01*
X149720000Y-64690000D02*
X149720000Y-71584314D01*
X196040000Y-100670000D02*
X196040000Y-102550000D01*
X179325186Y-80649500D02*
X178679950Y-80649500D01*
X157217055Y-73600000D02*
X160377056Y-76760000D01*
X178379950Y-80349500D02*
X177749500Y-80349500D01*
X154722740Y-72770000D02*
X155552742Y-73600000D01*
X202950000Y-108900000D02*
X203060000Y-109010000D01*
X164570000Y-78210000D02*
X164570000Y-78829950D01*
X193100000Y-93218604D02*
X191451396Y-91570000D01*
X178679950Y-80649500D02*
X178379950Y-80349500D01*
X155552742Y-73600000D02*
X157217055Y-73600000D01*
X150905686Y-72770000D02*
X154722740Y-72770000D01*
X180912943Y-82237257D02*
X179325186Y-80649500D01*
X182970000Y-87687056D02*
X182970000Y-82740000D01*
X193100000Y-94940500D02*
X193100000Y-93218604D01*
%TO.N,/CH_RTS*%
X154557055Y-73170000D02*
X150740000Y-73170000D01*
X182570000Y-82905686D02*
X182301571Y-82637257D01*
X182570000Y-87852742D02*
X182570000Y-82905686D01*
X148190000Y-65160000D02*
X147720000Y-64690000D01*
X148190000Y-70620000D02*
X148190000Y-65160000D01*
X180747257Y-82637257D02*
X179459000Y-81349000D01*
X194680000Y-100380000D02*
X195290000Y-100990000D01*
X164170000Y-78995635D02*
X164170000Y-78375686D01*
X135568000Y-95970050D02*
X135568000Y-94220000D01*
X179459000Y-81349000D02*
X178883221Y-81349000D01*
X195290000Y-100990000D02*
X195290000Y-103450000D01*
X191900500Y-94940500D02*
X191900500Y-92584790D01*
X160211370Y-77160000D02*
X157051369Y-74000000D01*
X135568000Y-94220000D02*
X134119200Y-94220000D01*
X191285710Y-91970000D02*
X186687258Y-91970000D01*
X155387057Y-74000000D02*
X154557055Y-73170000D01*
X162954314Y-77160000D02*
X160211370Y-77160000D01*
X182301571Y-82637257D02*
X180747257Y-82637257D01*
X136590000Y-101794573D02*
X136590000Y-96992050D01*
X150740000Y-73170000D02*
X148190000Y-70620000D01*
X170027459Y-81099500D02*
X166273865Y-81099500D01*
X136590000Y-96992050D02*
X135568000Y-95970050D01*
X191900500Y-92584790D02*
X191285710Y-91970000D01*
X164170000Y-78375686D02*
X162954314Y-77160000D01*
X195290000Y-103450000D02*
X195890000Y-104050000D01*
X137064927Y-102269500D02*
X136590000Y-101794573D01*
X157051369Y-74000000D02*
X155387057Y-74000000D01*
X186687258Y-91970000D02*
X182570000Y-87852742D01*
X166273865Y-81099500D02*
X164170000Y-78995635D01*
%TO.N,Net-(R41-Pad1)*%
X134606000Y-100570000D02*
X135270100Y-101234100D01*
X143510000Y-100098520D02*
X143510000Y-99464500D01*
X135270100Y-102264600D02*
X135128000Y-102406700D01*
X135128000Y-102406700D02*
X135128000Y-103616182D01*
X138960520Y-104648000D02*
X143510000Y-100098520D01*
X136159818Y-104648000D02*
X138960520Y-104648000D01*
X135270100Y-101234100D02*
X135270100Y-102264600D01*
X135128000Y-103616182D02*
X136159818Y-104648000D01*
X134119200Y-100570000D02*
X134606000Y-100570000D01*
%TO.N,/C_2*%
X135730000Y-98950600D02*
X135730000Y-103218000D01*
X202990000Y-111550000D02*
X202900000Y-111460000D01*
X204705000Y-111550000D02*
X202990000Y-111550000D01*
X133535000Y-95490000D02*
X132968300Y-96056700D01*
X132968300Y-96056700D02*
X132968300Y-98424300D01*
X135512700Y-98733300D02*
X135730000Y-98950600D01*
X135730000Y-103218000D02*
X136144000Y-103632000D01*
X133277300Y-98733300D02*
X135512700Y-98733300D01*
X132968300Y-98424300D02*
X133277300Y-98733300D01*
X134119200Y-95490000D02*
X133535000Y-95490000D01*
%TO.N,/BOOT_ESP*%
X117515000Y-81875000D02*
X117515000Y-79660000D01*
X138368000Y-99300000D02*
X137414000Y-98346000D01*
X116586000Y-82804000D02*
X117515000Y-81875000D01*
X137414000Y-98346000D02*
X137414000Y-95758000D01*
X139300800Y-99300000D02*
X138368000Y-99300000D01*
%TO.N,Net-(J11-Pad1)*%
X156859574Y-65948767D02*
X155720000Y-64809193D01*
X155720000Y-64809193D02*
X155720000Y-64690000D01*
X135368000Y-96760000D02*
X135890000Y-97282000D01*
X134119200Y-96760000D02*
X135368000Y-96760000D01*
%TO.N,Net-(J11-Pad6)*%
X144839500Y-66720369D02*
X145720000Y-65839869D01*
X145720000Y-65839869D02*
X145720000Y-64690000D01*
X118425128Y-64735628D02*
X118924016Y-65234516D01*
X118924016Y-65234516D02*
X119952016Y-65234516D01*
D62*
%TO.N,/PWR_DSP*%
X210080000Y-71850000D02*
X208830000Y-71850000D01*
X210720000Y-72490000D02*
X210720000Y-67660000D01*
D61*
X208630000Y-93550000D02*
X209850000Y-94770000D01*
D62*
X207287500Y-93550000D02*
X208630000Y-93550000D01*
X209230000Y-79340000D02*
X210720000Y-77850000D01*
X210720000Y-91460000D02*
X210720000Y-77850000D01*
X210720000Y-67660000D02*
X210530000Y-67470000D01*
X208630000Y-93550000D02*
X210720000Y-91460000D01*
D61*
X209850000Y-94770000D02*
X209850000Y-94810000D01*
D62*
X210720000Y-72490000D02*
X210080000Y-71850000D01*
X210720000Y-77850000D02*
X210720000Y-72490000D01*
%TD*%
%TA.AperFunction,Conductor*%
%TO.N,+3.3V*%
G36*
X205623539Y-70530277D02*
G01*
X205670073Y-70583897D01*
X205681500Y-70636328D01*
X205681500Y-74901864D01*
X205680422Y-74918307D01*
X205676250Y-74950000D01*
X205681500Y-74989880D01*
X205681500Y-74989885D01*
X205694609Y-75089457D01*
X205697162Y-75108851D01*
X205758476Y-75256876D01*
X205763503Y-75263427D01*
X205763504Y-75263429D01*
X205831520Y-75352069D01*
X205831526Y-75352075D01*
X205856013Y-75383987D01*
X205862568Y-75389017D01*
X205881379Y-75403452D01*
X205893770Y-75414319D01*
X205977396Y-75497945D01*
X206011422Y-75560257D01*
X206014298Y-75586189D01*
X206026856Y-77444649D01*
X206007315Y-77512903D01*
X205953975Y-77559757D01*
X205900859Y-77571500D01*
X200418136Y-77571500D01*
X200401693Y-77570422D01*
X200370000Y-77566250D01*
X200361811Y-77567328D01*
X200330126Y-77571499D01*
X200330117Y-77571500D01*
X200330115Y-77571500D01*
X200330109Y-77571501D01*
X200330107Y-77571501D01*
X200230543Y-77584609D01*
X200219336Y-77586084D01*
X200219334Y-77586085D01*
X200211149Y-77587162D01*
X200063124Y-77648476D01*
X199967928Y-77721523D01*
X199967925Y-77721526D01*
X199936013Y-77746013D01*
X199930983Y-77752568D01*
X199916548Y-77771379D01*
X199905681Y-77783770D01*
X199799557Y-77889894D01*
X199737245Y-77923920D01*
X199710797Y-77926799D01*
X197770762Y-77931957D01*
X197146645Y-77933616D01*
X197080194Y-77914876D01*
X196993968Y-77861725D01*
X196993966Y-77861724D01*
X196987738Y-77857885D01*
X196827254Y-77804655D01*
X196826389Y-77804368D01*
X196826387Y-77804368D01*
X196819861Y-77802203D01*
X196813025Y-77801503D01*
X196813022Y-77801502D01*
X196769969Y-77797091D01*
X196715400Y-77791500D01*
X196089600Y-77791500D01*
X196086354Y-77791837D01*
X196086350Y-77791837D01*
X195990692Y-77801762D01*
X195990688Y-77801763D01*
X195983834Y-77802474D01*
X195977298Y-77804655D01*
X195977296Y-77804655D01*
X195961848Y-77809809D01*
X195816054Y-77858450D01*
X195718638Y-77918733D01*
X195652673Y-77937588D01*
X195626928Y-77937656D01*
X195618979Y-77937677D01*
X195550805Y-77917855D01*
X195504171Y-77864322D01*
X195492660Y-77809809D01*
X195504787Y-76991784D01*
X195525796Y-76923968D01*
X195541678Y-76904557D01*
X195731920Y-76714315D01*
X195744311Y-76703448D01*
X195763123Y-76689013D01*
X195769673Y-76683987D01*
X195794160Y-76652075D01*
X195794166Y-76652069D01*
X195862182Y-76563429D01*
X195862183Y-76563427D01*
X195867210Y-76556876D01*
X195928524Y-76408851D01*
X195931077Y-76389457D01*
X195944186Y-76289885D01*
X195944186Y-76289880D01*
X195949436Y-76250000D01*
X195945264Y-76218307D01*
X195944186Y-76201864D01*
X195944186Y-70804500D01*
X195964188Y-70736379D01*
X196017844Y-70689886D01*
X196070186Y-70678500D01*
X200591364Y-70678500D01*
X200607807Y-70679578D01*
X200639500Y-70683750D01*
X200647689Y-70682672D01*
X200679374Y-70678501D01*
X200679384Y-70678500D01*
X200679385Y-70678500D01*
X200778957Y-70665391D01*
X200790164Y-70663916D01*
X200790166Y-70663915D01*
X200798351Y-70662838D01*
X200946376Y-70601524D01*
X201026809Y-70539805D01*
X201093029Y-70514204D01*
X201103412Y-70513767D01*
X205555403Y-70510328D01*
X205623539Y-70530277D01*
G37*
%TD.AperFunction*%
%TD*%
M02*
