ISO-10303-21;
HEADER;
FILE_DESCRIPTION(('FreeCAD Model'),'2;1');
FILE_NAME('Open CASCADE Shape Model','2026-09-03T13:39:40',(''),(''),
  'Open CASCADE STEP processor 7.9','FreeCAD','Unknown');
FILE_SCHEMA(('AUTOMOTIVE_DESIGN { 1 0 10303 214 1 1 1 1 }'));
ENDSEC;
DATA;
#1 = APPLICATION_PROTOCOL_DEFINITION('international standard',
  'automotive_design',2000,#2);
#2 = APPLICATION_CONTEXT(
  'core data for automotive mechanical design processes');
#3 = SHAPE_DEFINITION_REPRESENTATION(#4,#10);
#4 = PRODUCT_DEFINITION_SHAPE('','',#5);
#5 = PRODUCT_DEFINITION('design','',#6,#9);
#6 = PRODUCT_DEFINITION_FORMATION('','',#7);
#7 = PRODUCT('side-button','side-button','',(#8));
#8 = PRODUCT_CONTEXT('',#2,'mechanical');
#9 = PRODUCT_DEFINITION_CONTEXT('part definition',#2,'design');
#10 = ADVANCED_BREP_SHAPE_REPRESENTATION('',(#11,#15),#639);
#11 = AXIS2_PLACEMENT_3D('',#12,#13,#14);
#12 = CARTESIAN_POINT('',(0.,0.,0.));
#13 = DIRECTION('',(0.,0.,1.));
#14 = DIRECTION('',(1.,0.,-0.));
#15 = MANIFOLD_SOLID_BREP('',#16);
#16 = CLOSED_SHELL('',(#17,#57,#88,#121,#211,#235,#260,#284,#340,#358,
    #382,#406,#430,#447,#478,#502,#526,#543,#561,#579,#597,#615,#627));
#17 = ADVANCED_FACE('',(#18),#52,.F.);
#18 = FACE_BOUND('',#19,.F.);
#19 = EDGE_LOOP('',(#20,#30,#38,#46));
#20 = ORIENTED_EDGE('',*,*,#21,.T.);
#21 = EDGE_CURVE('',#22,#24,#26,.T.);
#22 = VERTEX_POINT('',#23);
#23 = CARTESIAN_POINT('',(1.,-18.53,9.1));
#24 = VERTEX_POINT('',#25);
#25 = CARTESIAN_POINT('',(3.6,-18.53,9.1));
#26 = LINE('',#27,#28);
#27 = CARTESIAN_POINT('',(1.,-18.53,9.1));
#28 = VECTOR('',#29,1.);
#29 = DIRECTION('',(1.,0.,0.));
#30 = ORIENTED_EDGE('',*,*,#31,.T.);
#31 = EDGE_CURVE('',#24,#32,#34,.T.);
#32 = VERTEX_POINT('',#33);
#33 = CARTESIAN_POINT('',(3.6,-18.53,2.9));
#34 = LINE('',#35,#36);
#35 = CARTESIAN_POINT('',(3.6,-18.53,9.1));
#36 = VECTOR('',#37,1.);
#37 = DIRECTION('',(0.,0.,-1.));
#38 = ORIENTED_EDGE('',*,*,#39,.F.);
#39 = EDGE_CURVE('',#40,#32,#42,.T.);
#40 = VERTEX_POINT('',#41);
#41 = CARTESIAN_POINT('',(1.,-18.53,2.9));
#42 = LINE('',#43,#44);
#43 = CARTESIAN_POINT('',(1.,-18.53,2.9));
#44 = VECTOR('',#45,1.);
#45 = DIRECTION('',(1.,0.,0.));
#46 = ORIENTED_EDGE('',*,*,#47,.F.);
#47 = EDGE_CURVE('',#22,#40,#48,.T.);
#48 = LINE('',#49,#50);
#49 = CARTESIAN_POINT('',(1.,-18.53,9.6));
#50 = VECTOR('',#51,1.);
#51 = DIRECTION('',(0.,0.,-1.));
#52 = PLANE('',#53);
#53 = AXIS2_PLACEMENT_3D('',#54,#55,#56);
#54 = CARTESIAN_POINT('',(1.,-18.53,9.6));
#55 = DIRECTION('',(0.,1.,0.));
#56 = DIRECTION('',(0.,0.,-1.));
#57 = ADVANCED_FACE('',(#58),#83,.T.);
#58 = FACE_BOUND('',#59,.T.);
#59 = EDGE_LOOP('',(#60,#61,#69,#77));
#60 = ORIENTED_EDGE('',*,*,#21,.T.);
#61 = ORIENTED_EDGE('',*,*,#62,.T.);
#62 = EDGE_CURVE('',#24,#63,#65,.T.);
#63 = VERTEX_POINT('',#64);
#64 = CARTESIAN_POINT('',(3.6,-18.03,9.6));
#65 = LINE('',#66,#67);
#66 = CARTESIAN_POINT('',(3.6,-18.53,9.1));
#67 = VECTOR('',#68,1.);
#68 = DIRECTION('',(0.,0.707106781187,0.707106781187));
#69 = ORIENTED_EDGE('',*,*,#70,.F.);
#70 = EDGE_CURVE('',#71,#63,#73,.T.);
#71 = VERTEX_POINT('',#72);
#72 = CARTESIAN_POINT('',(1.,-18.03,9.6));
#73 = LINE('',#74,#75);
#74 = CARTESIAN_POINT('',(1.,-18.03,9.6));
#75 = VECTOR('',#76,1.);
#76 = DIRECTION('',(1.,0.,0.));
#77 = ORIENTED_EDGE('',*,*,#78,.F.);
#78 = EDGE_CURVE('',#22,#71,#79,.T.);
#79 = LINE('',#80,#81);
#80 = CARTESIAN_POINT('',(1.,-18.6425,8.9875));
#81 = VECTOR('',#82,1.);
#82 = DIRECTION('',(0.,0.707106781187,0.707106781187));
#83 = PLANE('',#84);
#84 = AXIS2_PLACEMENT_3D('',#85,#86,#87);
#85 = CARTESIAN_POINT('',(1.,-18.28,9.35));
#86 = DIRECTION('',(0.,-0.707106781187,0.707106781187));
#87 = DIRECTION('',(1.,0.,0.));
#88 = ADVANCED_FACE('',(#89),#116,.T.);
#89 = FACE_BOUND('',#90,.F.);
#90 = EDGE_LOOP('',(#91,#100,#108,#115));
#91 = ORIENTED_EDGE('',*,*,#92,.T.);
#92 = EDGE_CURVE('',#24,#93,#95,.T.);
#93 = VERTEX_POINT('',#94);
#94 = CARTESIAN_POINT('',(4.,-18.13,8.934314575051));
#95 = ELLIPSE('',#96,0.432956880117,0.4);
#96 = AXIS2_PLACEMENT_3D('',#97,#98,#99);
#97 = CARTESIAN_POINT('',(3.6,-18.13,8.934314575051));
#98 = DIRECTION('',(0.,0.382683432365,0.923879532511));
#99 = DIRECTION('',(0.,0.923879532511,-0.382683432365));
#100 = ORIENTED_EDGE('',*,*,#101,.T.);
#101 = EDGE_CURVE('',#93,#102,#104,.T.);
#102 = VERTEX_POINT('',#103);
#103 = CARTESIAN_POINT('',(4.,-18.13,3.065685424949));
#104 = LINE('',#105,#106);
#105 = CARTESIAN_POINT('',(4.,-18.13,9.1));
#106 = VECTOR('',#107,1.);
#107 = DIRECTION('',(0.,0.,-1.));
#108 = ORIENTED_EDGE('',*,*,#109,.F.);
#109 = EDGE_CURVE('',#32,#102,#110,.T.);
#110 = ELLIPSE('',#111,0.432956880117,0.4);
#111 = AXIS2_PLACEMENT_3D('',#112,#113,#114);
#112 = CARTESIAN_POINT('',(3.6,-18.13,3.065685424949));
#113 = DIRECTION('',(0.,-0.382683432365,0.923879532511));
#114 = DIRECTION('',(0.,-0.923879532511,-0.382683432365));
#115 = ORIENTED_EDGE('',*,*,#31,.F.);
#116 = CYLINDRICAL_SURFACE('',#117,0.4);
#117 = AXIS2_PLACEMENT_3D('',#118,#119,#120);
#118 = CARTESIAN_POINT('',(3.6,-18.13,9.1));
#119 = DIRECTION('',(0.,0.,-1.));
#120 = DIRECTION('',(0.,-1.,0.));
#121 = ADVANCED_FACE('',(#122,#172),#206,.T.);
#122 = FACE_BOUND('',#123,.T.);
#123 = EDGE_LOOP('',(#124,#125,#126,#134,#142,#150,#158,#166));
#124 = ORIENTED_EDGE('',*,*,#47,.F.);
#125 = ORIENTED_EDGE('',*,*,#78,.T.);
#126 = ORIENTED_EDGE('',*,*,#127,.F.);
#127 = EDGE_CURVE('',#128,#71,#130,.T.);
#128 = VERTEX_POINT('',#129);
#129 = CARTESIAN_POINT('',(1.,-14.73,9.6));
#130 = LINE('',#131,#132);
#131 = CARTESIAN_POINT('',(1.,-14.23,9.6));
#132 = VECTOR('',#133,1.);
#133 = DIRECTION('',(0.,-1.,0.));
#134 = ORIENTED_EDGE('',*,*,#135,.F.);
#135 = EDGE_CURVE('',#136,#128,#138,.T.);
#136 = VERTEX_POINT('',#137);
#137 = CARTESIAN_POINT('',(1.,-14.23,9.1));
#138 = LINE('',#139,#140);
#139 = CARTESIAN_POINT('',(1.,-14.1175,8.9875));
#140 = VECTOR('',#141,1.);
#141 = DIRECTION('',(0.,-0.707106781187,0.707106781187));
#142 = ORIENTED_EDGE('',*,*,#143,.F.);
#143 = EDGE_CURVE('',#144,#136,#146,.T.);
#144 = VERTEX_POINT('',#145);
#145 = CARTESIAN_POINT('',(1.,-14.23,2.9));
#146 = LINE('',#147,#148);
#147 = CARTESIAN_POINT('',(1.,-14.23,2.4));
#148 = VECTOR('',#149,1.);
#149 = DIRECTION('',(0.,0.,1.));
#150 = ORIENTED_EDGE('',*,*,#151,.F.);
#151 = EDGE_CURVE('',#152,#144,#154,.T.);
#152 = VERTEX_POINT('',#153);
#153 = CARTESIAN_POINT('',(1.,-14.73,2.4));
#154 = LINE('',#155,#156);
#155 = CARTESIAN_POINT('',(1.,-14.1175,3.0125));
#156 = VECTOR('',#157,1.);
#157 = DIRECTION('',(0.,0.707106781187,0.707106781187));
#158 = ORIENTED_EDGE('',*,*,#159,.F.);
#159 = EDGE_CURVE('',#160,#152,#162,.T.);
#160 = VERTEX_POINT('',#161);
#161 = CARTESIAN_POINT('',(1.,-18.03,2.4));
#162 = LINE('',#163,#164);
#163 = CARTESIAN_POINT('',(1.,-18.53,2.4));
#164 = VECTOR('',#165,1.);
#165 = DIRECTION('',(0.,1.,0.));
#166 = ORIENTED_EDGE('',*,*,#167,.F.);
#167 = EDGE_CURVE('',#40,#160,#168,.T.);
#168 = LINE('',#169,#170);
#169 = CARTESIAN_POINT('',(1.,-18.6425,3.0125));
#170 = VECTOR('',#171,1.);
#171 = DIRECTION('',(0.,0.707106781187,-0.707106781187));
#172 = FACE_BOUND('',#173,.T.);
#173 = EDGE_LOOP('',(#174,#184,#192,#200));
#174 = ORIENTED_EDGE('',*,*,#175,.T.);
#175 = EDGE_CURVE('',#176,#178,#180,.T.);
#176 = VERTEX_POINT('',#177);
#177 = CARTESIAN_POINT('',(1.,-19.53,10.6));
#178 = VERTEX_POINT('',#179);
#179 = CARTESIAN_POINT('',(1.,-19.53,1.4));
#180 = LINE('',#181,#182);
#181 = CARTESIAN_POINT('',(1.,-19.53,10.6));
#182 = VECTOR('',#183,1.);
#183 = DIRECTION('',(0.,0.,-1.));
#184 = ORIENTED_EDGE('',*,*,#185,.T.);
#185 = EDGE_CURVE('',#178,#186,#188,.T.);
#186 = VERTEX_POINT('',#187);
#187 = CARTESIAN_POINT('',(1.,-13.23,1.4));
#188 = LINE('',#189,#190);
#189 = CARTESIAN_POINT('',(1.,-19.53,1.4));
#190 = VECTOR('',#191,1.);
#191 = DIRECTION('',(0.,1.,0.));
#192 = ORIENTED_EDGE('',*,*,#193,.T.);
#193 = EDGE_CURVE('',#186,#194,#196,.T.);
#194 = VERTEX_POINT('',#195);
#195 = CARTESIAN_POINT('',(1.,-13.23,10.6));
#196 = LINE('',#197,#198);
#197 = CARTESIAN_POINT('',(1.,-13.23,1.4));
#198 = VECTOR('',#199,1.);
#199 = DIRECTION('',(0.,0.,1.));
#200 = ORIENTED_EDGE('',*,*,#201,.T.);
#201 = EDGE_CURVE('',#194,#176,#202,.T.);
#202 = LINE('',#203,#204);
#203 = CARTESIAN_POINT('',(1.,-13.23,10.6));
#204 = VECTOR('',#205,1.);
#205 = DIRECTION('',(0.,-1.,0.));
#206 = PLANE('',#207);
#207 = AXIS2_PLACEMENT_3D('',#208,#209,#210);
#208 = CARTESIAN_POINT('',(1.,-16.38,6.));
#209 = DIRECTION('',(1.,0.,0.));
#210 = DIRECTION('',(0.,0.,1.));
#211 = ADVANCED_FACE('',(#212),#230,.T.);
#212 = FACE_BOUND('',#213,.F.);
#213 = EDGE_LOOP('',(#214,#215,#223,#229));
#214 = ORIENTED_EDGE('',*,*,#39,.T.);
#215 = ORIENTED_EDGE('',*,*,#216,.T.);
#216 = EDGE_CURVE('',#32,#217,#219,.T.);
#217 = VERTEX_POINT('',#218);
#218 = CARTESIAN_POINT('',(3.6,-18.03,2.4));
#219 = LINE('',#220,#221);
#220 = CARTESIAN_POINT('',(3.6,-18.53,2.9));
#221 = VECTOR('',#222,1.);
#222 = DIRECTION('',(0.,0.707106781187,-0.707106781187));
#223 = ORIENTED_EDGE('',*,*,#224,.F.);
#224 = EDGE_CURVE('',#160,#217,#225,.T.);
#225 = LINE('',#226,#227);
#226 = CARTESIAN_POINT('',(1.,-18.03,2.4));
#227 = VECTOR('',#228,1.);
#228 = DIRECTION('',(1.,0.,0.));
#229 = ORIENTED_EDGE('',*,*,#167,.F.);
#230 = PLANE('',#231);
#231 = AXIS2_PLACEMENT_3D('',#232,#233,#234);
#232 = CARTESIAN_POINT('',(1.,-18.28,2.65));
#233 = DIRECTION('',(0.,-0.707106781187,-0.707106781187));
#234 = DIRECTION('',(-1.,-0.,-0.));
#235 = ADVANCED_FACE('',(#236),#255,.T.);
#236 = FACE_BOUND('',#237,.T.);
#237 = EDGE_LOOP('',(#238,#239,#247,#254));
#238 = ORIENTED_EDGE('',*,*,#92,.T.);
#239 = ORIENTED_EDGE('',*,*,#240,.T.);
#240 = EDGE_CURVE('',#93,#241,#243,.T.);
#241 = VERTEX_POINT('',#242);
#242 = CARTESIAN_POINT('',(4.,-17.86431457505,9.2));
#243 = LINE('',#244,#245);
#244 = CARTESIAN_POINT('',(4.,-18.24715728752,8.817157287525));
#245 = VECTOR('',#246,1.);
#246 = DIRECTION('',(0.,0.707106781187,0.707106781187));
#247 = ORIENTED_EDGE('',*,*,#248,.F.);
#248 = EDGE_CURVE('',#63,#241,#249,.T.);
#249 = ELLIPSE('',#250,0.432956880117,0.4);
#250 = AXIS2_PLACEMENT_3D('',#251,#252,#253);
#251 = CARTESIAN_POINT('',(3.6,-17.86431457505,9.2));
#252 = DIRECTION('',(-0.,0.923879532511,0.382683432365));
#253 = DIRECTION('',(0.,-0.382683432365,0.923879532511));
#254 = ORIENTED_EDGE('',*,*,#62,.F.);
#255 = CYLINDRICAL_SURFACE('',#256,0.4);
#256 = AXIS2_PLACEMENT_3D('',#257,#258,#259);
#257 = CARTESIAN_POINT('',(3.6,-18.24715728752,8.817157287525));
#258 = DIRECTION('',(0.,0.707106781187,0.707106781187));
#259 = DIRECTION('',(0.,-0.707106781187,0.707106781187));
#260 = ADVANCED_FACE('',(#261),#279,.F.);
#261 = FACE_BOUND('',#262,.F.);
#262 = EDGE_LOOP('',(#263,#271,#277,#278));
#263 = ORIENTED_EDGE('',*,*,#264,.T.);
#264 = EDGE_CURVE('',#128,#265,#267,.T.);
#265 = VERTEX_POINT('',#266);
#266 = CARTESIAN_POINT('',(3.6,-14.73,9.6));
#267 = LINE('',#268,#269);
#268 = CARTESIAN_POINT('',(1.,-14.73,9.6));
#269 = VECTOR('',#270,1.);
#270 = DIRECTION('',(1.,0.,0.));
#271 = ORIENTED_EDGE('',*,*,#272,.T.);
#272 = EDGE_CURVE('',#265,#63,#273,.T.);
#273 = LINE('',#274,#275);
#274 = CARTESIAN_POINT('',(3.6,-14.73,9.6));
#275 = VECTOR('',#276,1.);
#276 = DIRECTION('',(0.,-1.,0.));
#277 = ORIENTED_EDGE('',*,*,#70,.F.);
#278 = ORIENTED_EDGE('',*,*,#127,.F.);
#279 = PLANE('',#280);
#280 = AXIS2_PLACEMENT_3D('',#281,#282,#283);
#281 = CARTESIAN_POINT('',(1.,-14.23,9.6));
#282 = DIRECTION('',(0.,0.,-1.));
#283 = DIRECTION('',(0.,-1.,0.));
#284 = ADVANCED_FACE('',(#285),#335,.T.);
#285 = FACE_BOUND('',#286,.T.);
#286 = EDGE_LOOP('',(#287,#288,#296,#304,#312,#320,#328,#334));
#287 = ORIENTED_EDGE('',*,*,#101,.T.);
#288 = ORIENTED_EDGE('',*,*,#289,.T.);
#289 = EDGE_CURVE('',#102,#290,#292,.T.);
#290 = VERTEX_POINT('',#291);
#291 = CARTESIAN_POINT('',(4.,-17.86431457505,2.8));
#292 = LINE('',#293,#294);
#293 = CARTESIAN_POINT('',(4.,-18.24715728752,3.182842712475));
#294 = VECTOR('',#295,1.);
#295 = DIRECTION('',(0.,0.707106781187,-0.707106781187));
#296 = ORIENTED_EDGE('',*,*,#297,.T.);
#297 = EDGE_CURVE('',#290,#298,#300,.T.);
#298 = VERTEX_POINT('',#299);
#299 = CARTESIAN_POINT('',(4.,-14.89568542494,2.8));
#300 = LINE('',#301,#302);
#301 = CARTESIAN_POINT('',(4.,-18.03,2.8));
#302 = VECTOR('',#303,1.);
#303 = DIRECTION('',(0.,1.,0.));
#304 = ORIENTED_EDGE('',*,*,#305,.T.);
#305 = EDGE_CURVE('',#298,#306,#308,.T.);
#306 = VERTEX_POINT('',#307);
#307 = CARTESIAN_POINT('',(4.,-14.63,3.065685424949));
#308 = LINE('',#309,#310);
#309 = CARTESIAN_POINT('',(4.,-15.01284271247,2.682842712475));
#310 = VECTOR('',#311,1.);
#311 = DIRECTION('',(0.,0.707106781187,0.707106781187));
#312 = ORIENTED_EDGE('',*,*,#313,.T.);
#313 = EDGE_CURVE('',#306,#314,#316,.T.);
#314 = VERTEX_POINT('',#315);
#315 = CARTESIAN_POINT('',(4.,-14.63,8.934314575051));
#316 = LINE('',#317,#318);
#317 = CARTESIAN_POINT('',(4.,-14.63,2.9));
#318 = VECTOR('',#319,1.);
#319 = DIRECTION('',(0.,0.,1.));
#320 = ORIENTED_EDGE('',*,*,#321,.T.);
#321 = EDGE_CURVE('',#314,#322,#324,.T.);
#322 = VERTEX_POINT('',#323);
#323 = CARTESIAN_POINT('',(4.,-14.89568542494,9.2));
#324 = LINE('',#325,#326);
#325 = CARTESIAN_POINT('',(4.,-14.51284271247,8.817157287525));
#326 = VECTOR('',#327,1.);
#327 = DIRECTION('',(0.,-0.707106781187,0.707106781187));
#328 = ORIENTED_EDGE('',*,*,#329,.T.);
#329 = EDGE_CURVE('',#322,#241,#330,.T.);
#330 = LINE('',#331,#332);
#331 = CARTESIAN_POINT('',(4.,-14.73,9.2));
#332 = VECTOR('',#333,1.);
#333 = DIRECTION('',(0.,-1.,0.));
#334 = ORIENTED_EDGE('',*,*,#240,.F.);
#335 = PLANE('',#336);
#336 = AXIS2_PLACEMENT_3D('',#337,#338,#339);
#337 = CARTESIAN_POINT('',(4.,-16.38,6.));
#338 = DIRECTION('',(1.,0.,0.));
#339 = DIRECTION('',(0.,0.,1.));
#340 = ADVANCED_FACE('',(#341),#353,.T.);
#341 = FACE_BOUND('',#342,.F.);
#342 = EDGE_LOOP('',(#343,#344,#345,#352));
#343 = ORIENTED_EDGE('',*,*,#109,.T.);
#344 = ORIENTED_EDGE('',*,*,#289,.T.);
#345 = ORIENTED_EDGE('',*,*,#346,.F.);
#346 = EDGE_CURVE('',#217,#290,#347,.T.);
#347 = ELLIPSE('',#348,0.432956880117,0.4);
#348 = AXIS2_PLACEMENT_3D('',#349,#350,#351);
#349 = CARTESIAN_POINT('',(3.6,-17.86431457505,2.8));
#350 = DIRECTION('',(0.,-0.923879532511,0.382683432365));
#351 = DIRECTION('',(0.,-0.382683432365,-0.923879532511));
#352 = ORIENTED_EDGE('',*,*,#216,.F.);
#353 = CYLINDRICAL_SURFACE('',#354,0.4);
#354 = AXIS2_PLACEMENT_3D('',#355,#356,#357);
#355 = CARTESIAN_POINT('',(3.6,-18.24715728752,3.182842712475));
#356 = DIRECTION('',(0.,0.707106781187,-0.707106781187));
#357 = DIRECTION('',(0.,-0.707106781187,-0.707106781187));
#358 = ADVANCED_FACE('',(#359),#377,.F.);
#359 = FACE_BOUND('',#360,.F.);
#360 = EDGE_LOOP('',(#361,#362,#370,#376));
#361 = ORIENTED_EDGE('',*,*,#224,.T.);
#362 = ORIENTED_EDGE('',*,*,#363,.T.);
#363 = EDGE_CURVE('',#217,#364,#366,.T.);
#364 = VERTEX_POINT('',#365);
#365 = CARTESIAN_POINT('',(3.6,-14.73,2.4));
#366 = LINE('',#367,#368);
#367 = CARTESIAN_POINT('',(3.6,-18.03,2.4));
#368 = VECTOR('',#369,1.);
#369 = DIRECTION('',(0.,1.,0.));
#370 = ORIENTED_EDGE('',*,*,#371,.F.);
#371 = EDGE_CURVE('',#152,#364,#372,.T.);
#372 = LINE('',#373,#374);
#373 = CARTESIAN_POINT('',(1.,-14.73,2.4));
#374 = VECTOR('',#375,1.);
#375 = DIRECTION('',(1.,0.,0.));
#376 = ORIENTED_EDGE('',*,*,#159,.F.);
#377 = PLANE('',#378);
#378 = AXIS2_PLACEMENT_3D('',#379,#380,#381);
#379 = CARTESIAN_POINT('',(1.,-18.53,2.4));
#380 = DIRECTION('',(0.,0.,1.));
#381 = DIRECTION('',(0.,1.,0.));
#382 = ADVANCED_FACE('',(#383),#401,.T.);
#383 = FACE_BOUND('',#384,.F.);
#384 = EDGE_LOOP('',(#385,#393,#399,#400));
#385 = ORIENTED_EDGE('',*,*,#386,.T.);
#386 = EDGE_CURVE('',#136,#387,#389,.T.);
#387 = VERTEX_POINT('',#388);
#388 = CARTESIAN_POINT('',(3.6,-14.23,9.1));
#389 = LINE('',#390,#391);
#390 = CARTESIAN_POINT('',(1.,-14.23,9.1));
#391 = VECTOR('',#392,1.);
#392 = DIRECTION('',(1.,0.,0.));
#393 = ORIENTED_EDGE('',*,*,#394,.T.);
#394 = EDGE_CURVE('',#387,#265,#395,.T.);
#395 = LINE('',#396,#397);
#396 = CARTESIAN_POINT('',(3.6,-14.23,9.1));
#397 = VECTOR('',#398,1.);
#398 = DIRECTION('',(0.,-0.707106781187,0.707106781187));
#399 = ORIENTED_EDGE('',*,*,#264,.F.);
#400 = ORIENTED_EDGE('',*,*,#135,.F.);
#401 = PLANE('',#402);
#402 = AXIS2_PLACEMENT_3D('',#403,#404,#405);
#403 = CARTESIAN_POINT('',(1.,-14.48,9.35));
#404 = DIRECTION('',(0.,0.707106781187,0.707106781187));
#405 = DIRECTION('',(-1.,0.,0.));
#406 = ADVANCED_FACE('',(#407),#425,.T.);
#407 = FACE_BOUND('',#408,.F.);
#408 = EDGE_LOOP('',(#409,#410,#418,#424));
#409 = ORIENTED_EDGE('',*,*,#371,.T.);
#410 = ORIENTED_EDGE('',*,*,#411,.T.);
#411 = EDGE_CURVE('',#364,#412,#414,.T.);
#412 = VERTEX_POINT('',#413);
#413 = CARTESIAN_POINT('',(3.6,-14.23,2.9));
#414 = LINE('',#415,#416);
#415 = CARTESIAN_POINT('',(3.6,-14.73,2.4));
#416 = VECTOR('',#417,1.);
#417 = DIRECTION('',(0.,0.707106781187,0.707106781187));
#418 = ORIENTED_EDGE('',*,*,#419,.F.);
#419 = EDGE_CURVE('',#144,#412,#420,.T.);
#420 = LINE('',#421,#422);
#421 = CARTESIAN_POINT('',(1.,-14.23,2.9));
#422 = VECTOR('',#423,1.);
#423 = DIRECTION('',(1.,0.,0.));
#424 = ORIENTED_EDGE('',*,*,#151,.F.);
#425 = PLANE('',#426);
#426 = AXIS2_PLACEMENT_3D('',#427,#428,#429);
#427 = CARTESIAN_POINT('',(1.,-14.48,2.65));
#428 = DIRECTION('',(0.,0.707106781187,-0.707106781187));
#429 = DIRECTION('',(-1.,-0.,-0.));
#430 = ADVANCED_FACE('',(#431),#442,.F.);
#431 = FACE_BOUND('',#432,.F.);
#432 = EDGE_LOOP('',(#433,#434,#440,#441));
#433 = ORIENTED_EDGE('',*,*,#419,.T.);
#434 = ORIENTED_EDGE('',*,*,#435,.T.);
#435 = EDGE_CURVE('',#412,#387,#436,.T.);
#436 = LINE('',#437,#438);
#437 = CARTESIAN_POINT('',(3.6,-14.23,2.9));
#438 = VECTOR('',#439,1.);
#439 = DIRECTION('',(0.,0.,1.));
#440 = ORIENTED_EDGE('',*,*,#386,.F.);
#441 = ORIENTED_EDGE('',*,*,#143,.F.);
#442 = PLANE('',#443);
#443 = AXIS2_PLACEMENT_3D('',#444,#445,#446);
#444 = CARTESIAN_POINT('',(1.,-14.23,2.4));
#445 = DIRECTION('',(0.,-1.,0.));
#446 = DIRECTION('',(0.,0.,1.));
#447 = ADVANCED_FACE('',(#448),#473,.F.);
#448 = FACE_BOUND('',#449,.F.);
#449 = EDGE_LOOP('',(#450,#458,#459,#467));
#450 = ORIENTED_EDGE('',*,*,#451,.T.);
#451 = EDGE_CURVE('',#452,#176,#454,.T.);
#452 = VERTEX_POINT('',#453);
#453 = CARTESIAN_POINT('',(0.,-19.53,10.6));
#454 = LINE('',#455,#456);
#455 = CARTESIAN_POINT('',(0.,-19.53,10.6));
#456 = VECTOR('',#457,1.);
#457 = DIRECTION('',(1.,0.,0.));
#458 = ORIENTED_EDGE('',*,*,#175,.T.);
#459 = ORIENTED_EDGE('',*,*,#460,.F.);
#460 = EDGE_CURVE('',#461,#178,#463,.T.);
#461 = VERTEX_POINT('',#462);
#462 = CARTESIAN_POINT('',(0.,-19.53,1.4));
#463 = LINE('',#464,#465);
#464 = CARTESIAN_POINT('',(0.,-19.53,1.4));
#465 = VECTOR('',#466,1.);
#466 = DIRECTION('',(1.,0.,0.));
#467 = ORIENTED_EDGE('',*,*,#468,.F.);
#468 = EDGE_CURVE('',#452,#461,#469,.T.);
#469 = LINE('',#470,#471);
#470 = CARTESIAN_POINT('',(0.,-19.53,10.6));
#471 = VECTOR('',#472,1.);
#472 = DIRECTION('',(0.,0.,-1.));
#473 = PLANE('',#474);
#474 = AXIS2_PLACEMENT_3D('',#475,#476,#477);
#475 = CARTESIAN_POINT('',(0.,-19.53,10.6));
#476 = DIRECTION('',(0.,1.,0.));
#477 = DIRECTION('',(0.,0.,-1.));
#478 = ADVANCED_FACE('',(#479),#497,.F.);
#479 = FACE_BOUND('',#480,.F.);
#480 = EDGE_LOOP('',(#481,#489,#490,#491));
#481 = ORIENTED_EDGE('',*,*,#482,.T.);
#482 = EDGE_CURVE('',#483,#194,#485,.T.);
#483 = VERTEX_POINT('',#484);
#484 = CARTESIAN_POINT('',(0.,-13.23,10.6));
#485 = LINE('',#486,#487);
#486 = CARTESIAN_POINT('',(0.,-13.23,10.6));
#487 = VECTOR('',#488,1.);
#488 = DIRECTION('',(1.,0.,0.));
#489 = ORIENTED_EDGE('',*,*,#201,.T.);
#490 = ORIENTED_EDGE('',*,*,#451,.F.);
#491 = ORIENTED_EDGE('',*,*,#492,.F.);
#492 = EDGE_CURVE('',#483,#452,#493,.T.);
#493 = LINE('',#494,#495);
#494 = CARTESIAN_POINT('',(0.,-13.23,10.6));
#495 = VECTOR('',#496,1.);
#496 = DIRECTION('',(0.,-1.,0.));
#497 = PLANE('',#498);
#498 = AXIS2_PLACEMENT_3D('',#499,#500,#501);
#499 = CARTESIAN_POINT('',(0.,-13.23,10.6));
#500 = DIRECTION('',(0.,0.,-1.));
#501 = DIRECTION('',(0.,-1.,0.));
#502 = ADVANCED_FACE('',(#503),#521,.F.);
#503 = FACE_BOUND('',#504,.F.);
#504 = EDGE_LOOP('',(#505,#506,#507,#515));
#505 = ORIENTED_EDGE('',*,*,#460,.T.);
#506 = ORIENTED_EDGE('',*,*,#185,.T.);
#507 = ORIENTED_EDGE('',*,*,#508,.F.);
#508 = EDGE_CURVE('',#509,#186,#511,.T.);
#509 = VERTEX_POINT('',#510);
#510 = CARTESIAN_POINT('',(0.,-13.23,1.4));
#511 = LINE('',#512,#513);
#512 = CARTESIAN_POINT('',(0.,-13.23,1.4));
#513 = VECTOR('',#514,1.);
#514 = DIRECTION('',(1.,0.,0.));
#515 = ORIENTED_EDGE('',*,*,#516,.F.);
#516 = EDGE_CURVE('',#461,#509,#517,.T.);
#517 = LINE('',#518,#519);
#518 = CARTESIAN_POINT('',(0.,-19.53,1.4));
#519 = VECTOR('',#520,1.);
#520 = DIRECTION('',(0.,1.,0.));
#521 = PLANE('',#522);
#522 = AXIS2_PLACEMENT_3D('',#523,#524,#525);
#523 = CARTESIAN_POINT('',(0.,-19.53,1.4));
#524 = DIRECTION('',(0.,0.,1.));
#525 = DIRECTION('',(0.,1.,0.));
#526 = ADVANCED_FACE('',(#527),#538,.F.);
#527 = FACE_BOUND('',#528,.F.);
#528 = EDGE_LOOP('',(#529,#530,#531,#532));
#529 = ORIENTED_EDGE('',*,*,#508,.T.);
#530 = ORIENTED_EDGE('',*,*,#193,.T.);
#531 = ORIENTED_EDGE('',*,*,#482,.F.);
#532 = ORIENTED_EDGE('',*,*,#533,.F.);
#533 = EDGE_CURVE('',#509,#483,#534,.T.);
#534 = LINE('',#535,#536);
#535 = CARTESIAN_POINT('',(0.,-13.23,1.4));
#536 = VECTOR('',#537,1.);
#537 = DIRECTION('',(0.,0.,1.));
#538 = PLANE('',#539);
#539 = AXIS2_PLACEMENT_3D('',#540,#541,#542);
#540 = CARTESIAN_POINT('',(0.,-13.23,1.4));
#541 = DIRECTION('',(0.,-1.,0.));
#542 = DIRECTION('',(0.,0.,1.));
#543 = ADVANCED_FACE('',(#544),#556,.T.);
#544 = FACE_BOUND('',#545,.F.);
#545 = EDGE_LOOP('',(#546,#553,#554,#555));
#546 = ORIENTED_EDGE('',*,*,#547,.T.);
#547 = EDGE_CURVE('',#265,#322,#548,.T.);
#548 = ELLIPSE('',#549,0.432956880117,0.4);
#549 = AXIS2_PLACEMENT_3D('',#550,#551,#552);
#550 = CARTESIAN_POINT('',(3.6,-14.89568542494,9.2));
#551 = DIRECTION('',(0.,0.923879532511,-0.382683432365));
#552 = DIRECTION('',(0.,-0.382683432365,-0.923879532511));
#553 = ORIENTED_EDGE('',*,*,#329,.T.);
#554 = ORIENTED_EDGE('',*,*,#248,.F.);
#555 = ORIENTED_EDGE('',*,*,#272,.F.);
#556 = CYLINDRICAL_SURFACE('',#557,0.4);
#557 = AXIS2_PLACEMENT_3D('',#558,#559,#560);
#558 = CARTESIAN_POINT('',(3.6,-14.73,9.2));
#559 = DIRECTION('',(0.,-1.,0.));
#560 = DIRECTION('',(0.,0.,1.));
#561 = ADVANCED_FACE('',(#562),#574,.T.);
#562 = FACE_BOUND('',#563,.F.);
#563 = EDGE_LOOP('',(#564,#565,#566,#573));
#564 = ORIENTED_EDGE('',*,*,#346,.T.);
#565 = ORIENTED_EDGE('',*,*,#297,.T.);
#566 = ORIENTED_EDGE('',*,*,#567,.F.);
#567 = EDGE_CURVE('',#364,#298,#568,.T.);
#568 = ELLIPSE('',#569,0.432956880117,0.4);
#569 = AXIS2_PLACEMENT_3D('',#570,#571,#572);
#570 = CARTESIAN_POINT('',(3.6,-14.89568542494,2.8));
#571 = DIRECTION('',(0.,-0.923879532511,-0.382683432365));
#572 = DIRECTION('',(0.,0.382683432365,-0.923879532511));
#573 = ORIENTED_EDGE('',*,*,#363,.F.);
#574 = CYLINDRICAL_SURFACE('',#575,0.4);
#575 = AXIS2_PLACEMENT_3D('',#576,#577,#578);
#576 = CARTESIAN_POINT('',(3.6,-18.03,2.8));
#577 = DIRECTION('',(0.,1.,0.));
#578 = DIRECTION('',(0.,0.,-1.));
#579 = ADVANCED_FACE('',(#580),#592,.T.);
#580 = FACE_BOUND('',#581,.F.);
#581 = EDGE_LOOP('',(#582,#589,#590,#591));
#582 = ORIENTED_EDGE('',*,*,#583,.T.);
#583 = EDGE_CURVE('',#387,#314,#584,.T.);
#584 = ELLIPSE('',#585,0.432956880117,0.4);
#585 = AXIS2_PLACEMENT_3D('',#586,#587,#588);
#586 = CARTESIAN_POINT('',(3.6,-14.63,8.934314575051));
#587 = DIRECTION('',(0.,0.382683432365,-0.923879532511));
#588 = DIRECTION('',(0.,-0.923879532511,-0.382683432365));
#589 = ORIENTED_EDGE('',*,*,#321,.T.);
#590 = ORIENTED_EDGE('',*,*,#547,.F.);
#591 = ORIENTED_EDGE('',*,*,#394,.F.);
#592 = CYLINDRICAL_SURFACE('',#593,0.4);
#593 = AXIS2_PLACEMENT_3D('',#594,#595,#596);
#594 = CARTESIAN_POINT('',(3.6,-14.51284271247,8.817157287525));
#595 = DIRECTION('',(0.,-0.707106781187,0.707106781187));
#596 = DIRECTION('',(0.,0.707106781187,0.707106781187));
#597 = ADVANCED_FACE('',(#598),#610,.T.);
#598 = FACE_BOUND('',#599,.F.);
#599 = EDGE_LOOP('',(#600,#601,#602,#609));
#600 = ORIENTED_EDGE('',*,*,#567,.T.);
#601 = ORIENTED_EDGE('',*,*,#305,.T.);
#602 = ORIENTED_EDGE('',*,*,#603,.F.);
#603 = EDGE_CURVE('',#412,#306,#604,.T.);
#604 = ELLIPSE('',#605,0.432956880117,0.4);
#605 = AXIS2_PLACEMENT_3D('',#606,#607,#608);
#606 = CARTESIAN_POINT('',(3.6,-14.63,3.065685424949));
#607 = DIRECTION('',(0.,-0.382683432365,-0.923879532511));
#608 = DIRECTION('',(0.,0.923879532511,-0.382683432365));
#609 = ORIENTED_EDGE('',*,*,#411,.F.);
#610 = CYLINDRICAL_SURFACE('',#611,0.4);
#611 = AXIS2_PLACEMENT_3D('',#612,#613,#614);
#612 = CARTESIAN_POINT('',(3.6,-15.01284271247,2.682842712475));
#613 = DIRECTION('',(0.,0.707106781187,0.707106781187));
#614 = DIRECTION('',(0.,0.707106781187,-0.707106781187));
#615 = ADVANCED_FACE('',(#616),#622,.T.);
#616 = FACE_BOUND('',#617,.F.);
#617 = EDGE_LOOP('',(#618,#619,#620,#621));
#618 = ORIENTED_EDGE('',*,*,#603,.T.);
#619 = ORIENTED_EDGE('',*,*,#313,.T.);
#620 = ORIENTED_EDGE('',*,*,#583,.F.);
#621 = ORIENTED_EDGE('',*,*,#435,.F.);
#622 = CYLINDRICAL_SURFACE('',#623,0.4);
#623 = AXIS2_PLACEMENT_3D('',#624,#625,#626);
#624 = CARTESIAN_POINT('',(3.6,-14.63,2.9));
#625 = DIRECTION('',(0.,0.,1.));
#626 = DIRECTION('',(0.,1.,0.));
#627 = ADVANCED_FACE('',(#628),#634,.F.);
#628 = FACE_BOUND('',#629,.F.);
#629 = EDGE_LOOP('',(#630,#631,#632,#633));
#630 = ORIENTED_EDGE('',*,*,#468,.T.);
#631 = ORIENTED_EDGE('',*,*,#516,.T.);
#632 = ORIENTED_EDGE('',*,*,#533,.T.);
#633 = ORIENTED_EDGE('',*,*,#492,.T.);
#634 = PLANE('',#635);
#635 = AXIS2_PLACEMENT_3D('',#636,#637,#638);
#636 = CARTESIAN_POINT('',(0.,-16.38,6.));
#637 = DIRECTION('',(1.,0.,0.));
#638 = DIRECTION('',(0.,0.,1.));
#639 = ( GEOMETRIC_REPRESENTATION_CONTEXT(3) 
GLOBAL_UNCERTAINTY_ASSIGNED_CONTEXT((#643)) GLOBAL_UNIT_ASSIGNED_CONTEXT
((#640,#641,#642)) REPRESENTATION_CONTEXT('Context #1',
  '3D Context with UNIT and UNCERTAINTY') );
#640 = ( LENGTH_UNIT() NAMED_UNIT(*) SI_UNIT(.MILLI.,.METRE.) );
#641 = ( NAMED_UNIT(*) PLANE_ANGLE_UNIT() SI_UNIT($,.RADIAN.) );
#642 = ( NAMED_UNIT(*) SI_UNIT($,.STERADIAN.) SOLID_ANGLE_UNIT() );
#643 = UNCERTAINTY_MEASURE_WITH_UNIT(LENGTH_MEASURE(2.E-05),#640,
  'distance_accuracy_value','confusion accuracy');
#644 = PRODUCT_RELATED_PRODUCT_CATEGORY('part',$,(#7));
#645 = MECHANICAL_DESIGN_GEOMETRIC_PRESENTATION_REPRESENTATION('',(#646)
  ,#639);
#646 = STYLED_ITEM('color',(#647),#15);
#647 = PRESENTATION_STYLE_ASSIGNMENT((#648,#654));
#648 = SURFACE_STYLE_USAGE(.BOTH.,#649);
#649 = SURFACE_SIDE_STYLE('',(#650));
#650 = SURFACE_STYLE_FILL_AREA(#651);
#651 = FILL_AREA_STYLE('',(#652));
#652 = FILL_AREA_STYLE_COLOUR('',#653);
#653 = COLOUR_RGB('',0.447058818107,0.474509808674,0.501960817233);
#654 = CURVE_STYLE('',#655,POSITIVE_LENGTH_MEASURE(0.1),#656);
#655 = DRAUGHTING_PRE_DEFINED_CURVE_FONT('continuous');
#656 = COLOUR_RGB('',9.803921802644E-02,9.803921802644E-02,
  9.803921802644E-02);
ENDSEC;
END-ISO-10303-21;
