M48
; DRILL file {KiCad 8.0.9} date 2025-05-02T13:50:10-0700
; FORMAT={-:-/ absolute / inch / decimal}
; #@! TF.CreationDate,2025-05-02T13:50:10-07:00
; #@! TF.GenerationSoftware,Kicad,Pcbnew,8.0.9
; #@! TF.FileFunction,Plated,1,4,PTH
FMAT,2
INCH
; #@! TA.AperFunction,Plated,PTH,ComponentDrill
T1C0.0079
; #@! TA.AperFunction,Plated,PTH,ViaDrill
T2C0.0118
; #@! TA.AperFunction,Plated,PTH,ComponentDrill
T3C0.0118
; #@! TA.AperFunction,Plated,PTH,ViaDrill
T4C0.0157
; #@! TA.AperFunction,Plated,PTH,ComponentDrill
T5C0.0236
; #@! TA.AperFunction,Plated,PTH,ComponentDrill
T6C0.0276
; #@! TA.AperFunction,Plated,PTH,ComponentDrill
T7C0.0709
%
G90
G05
T1
X6.1303Y-2.2437
X6.1303Y-2.2988
X6.1579Y-2.2161
X6.1579Y-2.2713
X6.1579Y-2.3264
X6.1854Y-2.2437
X6.1854Y-2.2988
X6.213Y-2.2161
X6.213Y-2.2713
X6.213Y-2.3264
X6.2406Y-2.2437
X6.2406Y-2.2988
X6.4034Y-4.9327
X6.4034Y-4.972
X6.4034Y-5.0114
X6.4428Y-4.9327
X6.4428Y-4.972
X6.4428Y-5.0114
X6.4822Y-4.9327
X6.4822Y-4.972
X6.4822Y-5.0114
T2
X4.5476Y-2.0193
X4.626Y-4.9619
X4.6264Y-5.0311
X4.6461Y-4.9327
X4.6461Y-4.9917
X4.6461Y-5.0705
X4.6854Y-5.5626
X4.6854Y-5.602
X4.6859Y-5.314
X4.6891Y-5.384
X4.6953Y-5.3461
X4.7182Y-5.3699
X4.7202Y-5.3264
X4.7248Y-5.5232
X4.7248Y-5.5626
X4.7248Y-5.602
X4.7941Y-5.2268
X4.8626Y-2.0587
X4.9078Y-5.3289
X4.9093Y-5.3779
X4.9315Y-5.3513
X4.9381Y-5.3175
X4.9398Y-5.3871
X4.9413Y-1.9898
X4.961Y-4.9327
X4.961Y-5.0902
X4.961Y-5.1689
X4.9709Y-4.9917
X4.9807Y-5.0508
X4.9807Y-5.1295
X4.9819Y-5.5388
X5.0165Y-5.5384
X5.0201Y-2.6969
X5.0299Y-2.1005
X5.0299Y-2.2358
X5.0398Y-5.4506
X5.0497Y-5.5737
X5.0497Y-5.6176
X5.0498Y-5.5387
X5.1185Y-5.2476
X5.1579Y-4.663
X5.1677Y-2.6394
X5.1884Y-4.9327
X5.2169Y-2.0783
X5.2268Y-4.5783
X5.2858Y-2.6
X5.3253Y-1.9577
X5.3547Y-4.8638
X5.3744Y-2.0783
X5.4039Y-5.0409
X5.404Y-4.9968
X5.4409Y-5.6691
X5.4415Y-5.5927
X5.4416Y-5.5171
X5.4416Y-5.6253
X5.4421Y-5.5564
X5.4531Y-1.9406
X5.4728Y-5.0508
X5.4728Y-5.1
X5.4925Y-4.8933
X5.5024Y-1.9406
X5.5122Y-4.7949
X5.5909Y-4.7752
X5.5948Y-4.7395
X5.6205Y-5.2673
X5.6598Y-5.4051
X5.6648Y-4.9228
X5.677Y-4.9622
X5.6881Y-4.6573
X5.6909Y-5.3756
X5.6992Y-4.9228
X5.7137Y-4.6768
X5.7205Y-5.4051
X5.7287Y-4.8047
X5.7371Y-4.7062
X5.7386Y-4.9228
X5.7681Y-5.1689
X5.7705Y-4.6967
X5.7734Y-5.1152
X5.778Y-4.9228
X5.7929Y-5.3756
X5.8019Y-4.9622
X5.8176Y-2.9647
X5.8272Y-1.9996
X5.8272Y-3.0107
X5.8272Y-3.0601
X5.837Y-2.4327
X5.8419Y-2.9414
X5.8469Y-2.0291
X5.8469Y-2.0783
X5.8469Y-5.2575
X5.8475Y-3.5899
X5.8494Y-2.4701
X5.8543Y-5.4051
X5.856Y-2.9886
X5.8647Y-4.6552
X5.8665Y-2.9061
X5.8665Y-3.0379
X5.8764Y-4.523
X5.8862Y-3.4071
X5.8862Y-3.476
X5.9099Y-4.6414
X5.9157Y-5.3362
X5.9157Y-5.3953
X5.9453Y-3.4858
X5.9551Y-5.0311
X5.9551Y-5.1394
X5.965Y-5.2575
X5.9782Y-4.6626
X5.9797Y-3.4907
X5.9846Y-4.165
X6.0043Y-4.5291
X6.0043Y-4.6866
X6.0073Y-2.9445
X6.0245Y-3.3972
X6.0339Y-4.2339
X6.0437Y-2.9445
X6.0437Y-4.5193
X6.0634Y-2.9051
X6.0792Y-4.1491
X6.0831Y-4.1059
X6.0929Y-4.5685
X6.0929Y-4.6021
X6.1078Y-2.8738
X6.1078Y-2.9119
X6.1101Y-3.085
X6.1237Y-4.3966
X6.1328Y-3.108
X6.1421Y-2.728
X6.1476Y-2.9445
X6.1495Y-3.1699
X6.152Y-4.3028
X6.152Y-4.9622
X6.162Y-3.3879
X6.1698Y-2.9035
X6.1717Y-3.2201
X6.1717Y-3.2594
X6.1917Y-3.332
X6.1963Y-4.3987
X6.2012Y-2.9248
X6.2166Y-3.5072
X6.2209Y-4.3717
X6.2263Y-3.381
X6.2307Y-4.7383
X6.2406Y-5.0409
X6.2453Y-4.3961
X6.2456Y-3.5299
X6.246Y-3.289
X6.2517Y-2.8014
X6.2582Y-4.5981
X6.2602Y-3.3776
X6.2652Y-4.7112
X6.2701Y-4.972
X6.2701Y-5.0902
X6.2719Y-4.3695
X6.272Y-4.673
X6.2791Y-4.9236
X6.2799Y-3.2791
X6.292Y-3.5581
X6.2942Y-4.3471
X6.2984Y-2.9236
X6.2996Y-4.0075
X6.3025Y-4.6469
X6.3094Y-4.2634
X6.3154Y-4.3065
X6.3202Y-4.7269
X6.3261Y-4.0297
X6.3291Y-4.467
X6.339Y-2.9445
X6.339Y-4.6341
X6.339Y-5.1244
X6.3399Y-4.3486
X6.3461Y-4.3846
X6.3488Y-3.4563
X6.3523Y-3.5154
X6.3531Y-4.7171
X6.3685Y-5.2027
X6.3882Y-2.8196
X6.398Y-4.1846
X6.3992Y-4.1244
X6.4021Y-3.0234
X6.4128Y-4.598
X6.4177Y-3.4957
X6.419Y-3.9681
X6.4276Y-2.8165
X6.4276Y-3.0429
X6.4355Y-4.7482
X6.4374Y-3.3874
X6.4374Y-4.0665
X6.4374Y-4.1059
X6.4374Y-4.165
X6.4399Y-3.5644
X6.4447Y-4.0297
X6.4497Y-2.9248
X6.4502Y-4.7171
X6.4579Y-3.0925
X6.4601Y-3.2508
X6.4642Y-3.587
X6.4657Y-3.1721
X6.4662Y-2.896
X6.4669Y-3.1315
X6.474Y-2.855
X6.4768Y-3.0207
X6.4848Y-4.3028
X6.4848Y-4.406
X6.4866Y-3.0703
X6.4866Y-3.2748
X6.4896Y-3.2286
X6.4965Y-4.5587
X6.5161Y-4.5882
X6.526Y-2.4173
X6.526Y-2.4674
X6.526Y-2.5181
X6.5303Y-3.321
X6.5315Y-5.2027
X6.5358Y-4.7358
X6.5474Y-4.5801
X6.5535Y-4.1206
X6.5678Y-4.4933
X6.5715Y-5.1333
X6.5792Y-4.0562
X6.5802Y-4.5655
X6.585Y-4.7358
X6.5949Y-2.9445
X6.5949Y-4.9228
X6.5958Y-4.4687
X6.609Y-4.406
X6.6193Y-4.6425
X6.6343Y-5.1344
X6.6436Y-3.5941
X6.6539Y-4.0469
X6.6539Y-4.352
X6.6565Y-3.5547
X6.6587Y-4.6622
X6.6638Y-3.9878
X6.6638Y-4.9031
X6.6694Y-3.5047
X6.6783Y-3.6288
X6.7031Y-4.0469
X6.7063Y-4.3489
X6.713Y-2.039
X6.7228Y-3.7811
X6.7228Y-3.8205
X6.7228Y-3.8598
X6.7228Y-3.8992
X6.7228Y-3.9386
X6.7228Y-3.978
X6.7228Y-4.0173
X6.7278Y-4.3076
X6.7287Y-2.2654
X6.7287Y-2.4831
X6.7327Y-2.6059
X6.7524Y-3.0079
X6.772Y-2.4819
X6.7819Y-5.2575
X6.7819Y-5.3067
X6.7819Y-5.3559
X6.7819Y-5.4051
X6.7917Y-3.5055
X6.7917Y-3.6039
X6.7917Y-3.6531
X6.7917Y-4.4504
X6.7933Y-3.5563
X6.7947Y-3.0006
X6.7995Y-4.8441
X6.7995Y-4.8933
X6.7995Y-4.9425
X6.8114Y-2.4819
X6.8213Y-4.3343
X6.8213Y-4.3736
X6.8213Y-4.411
X6.8508Y-2.4819
X6.8705Y-4.2043
X6.8783Y-2.9602
X6.8902Y-2.4819
X6.9146Y-2.9336
X6.9197Y-3.0272
X6.9197Y-3.1217
X6.9247Y-4.0617
X6.9295Y-2.4819
X6.9295Y-3.161
X6.9295Y-4.0272
X6.9295Y-4.7457
X6.9295Y-4.7949
X6.9295Y-4.8441
X6.9394Y-4.8933
X6.9395Y-3.9386
X6.9492Y-5.2575
X6.9492Y-5.3067
X6.9492Y-5.4059
X6.9512Y-3.978
X6.9787Y-2.8981
X7.0102Y-3.9091
X7.0102Y-4.1963
X7.0102Y-4.2929
X7.0181Y-3.6925
X7.0181Y-4.9819
X7.0181Y-5.4937
X7.0476Y-3.3972
X7.0476Y-4.1059
X7.0476Y-4.4996
T3
X4.7941Y-5.3319
X4.7941Y-5.3713
X4.8138Y-5.3516
X4.8335Y-5.3319
X4.8335Y-5.3713
T4
X5.1283Y-5.0705
X5.1927Y-5.1153
T6
X5.0594Y-5.0902
X5.1579Y-5.602
T7
X4.5634Y-2.1118
X4.5634Y-2.6354
X4.9256Y-2.1846
X4.9256Y-2.3736
X4.9256Y-2.5626
T5
G00X5.6173Y-5.4869
M15
G01X5.6173Y-5.5302
M16
G05
G00X5.6173Y-5.6613
M15
G01X5.6173Y-5.6849
M16
G05
G00X5.9575Y-5.4869
M15
G01X5.9575Y-5.5302
M16
G05
G00X5.9575Y-5.6613
M15
G01X5.9575Y-5.6849
M16
G05
G00X6.9827Y-2.039
M15
G01X6.9827Y-2.0626
M16
G05
G00X6.9827Y-2.6886
M15
G01X6.9827Y-2.7122
M16
G05
M30
