%TF.GenerationSoftware,KiCad,Pcbnew,8.0.9*%
%TF.CreationDate,2025-05-02T13:50:10-07:00*%
%TF.ProjectId,EV12 Board Design,45563132-2042-46f6-9172-642044657369,EV12*%
%TF.SameCoordinates,Original*%
%TF.FileFunction,Copper,L4,Bot*%
%TF.FilePolarity,Positive*%
%FSLAX46Y46*%
G04 Gerber Fmt 4.6, Leading zero omitted, Abs format (unit mm)*
G04 Created by KiCad (PCBNEW 8.0.9) date 2025-05-02 13:50:10*
%MOMM*%
%LPD*%
G01*
G04 APERTURE LIST*
%TA.AperFunction,ComponentPad*%
%ADD10O,1.300000X2.000000*%
%TD*%
%TA.AperFunction,ComponentPad*%
%ADD11C,1.500000*%
%TD*%
%TA.AperFunction,HeatsinkPad*%
%ADD12C,0.500000*%
%TD*%
%TA.AperFunction,HeatsinkPad*%
%ADD13R,2.500000X2.500000*%
%TD*%
%TA.AperFunction,ComponentPad*%
%ADD14C,3.000000*%
%TD*%
%TA.AperFunction,HeatsinkPad*%
%ADD15C,0.600000*%
%TD*%
%TA.AperFunction,ComponentPad*%
%ADD16O,1.000000X1.600000*%
%TD*%
%TA.AperFunction,ComponentPad*%
%ADD17O,1.000000X2.100000*%
%TD*%
%TA.AperFunction,ComponentPad*%
%ADD18C,0.600000*%
%TD*%
%TA.AperFunction,SMDPad,CuDef*%
%ADD19R,2.300000X2.300000*%
%TD*%
%TA.AperFunction,ViaPad*%
%ADD20C,0.600000*%
%TD*%
%TA.AperFunction,ViaPad*%
%ADD21C,0.800000*%
%TD*%
%TA.AperFunction,Conductor*%
%ADD22C,0.127000*%
%TD*%
%TA.AperFunction,Conductor*%
%ADD23C,0.254000*%
%TD*%
G04 APERTURE END LIST*
D10*
%TO.P,SW2,3*%
%TO.N,N/C*%
X177360000Y-52090000D03*
%TD*%
%TO.P,SW1,3*%
%TO.N,N/C*%
X177360000Y-68590000D03*
%TD*%
D11*
%TO.P,TP1,1,1*%
%TO.N,Net-(SW6-C)*%
X128510000Y-129290000D03*
%TD*%
%TO.P,TP2,1,1*%
%TO.N,Net-(U7-VIN)*%
X131010000Y-142290000D03*
%TD*%
D12*
%TO.P,U6,33,EP*%
%TO.N,GNDA*%
X162647500Y-125290000D03*
X162647500Y-126290000D03*
X162647500Y-127290000D03*
X163647500Y-125290000D03*
D13*
X163647500Y-126290000D03*
D12*
X163647500Y-126290000D03*
X163647500Y-127290000D03*
X164647500Y-125290000D03*
X164647500Y-126290000D03*
X164647500Y-127290000D03*
%TD*%
D14*
%TO.P,SW6,5*%
%TO.N,N/C*%
X115910000Y-66940000D03*
%TO.P,SW6,4*%
X115910000Y-53640000D03*
%TO.P,SW6,3,C*%
%TO.N,Net-(SW6-C)*%
X125110000Y-55490000D03*
%TO.P,SW6,2,B*%
%TO.N,Net-(D2-K)*%
X125110000Y-60290000D03*
%TO.P,SW6,1,A*%
%TO.N,unconnected-(SW6-A-Pad1)*%
X125110000Y-65090000D03*
%TD*%
D15*
%TO.P,U11,41,GND*%
%TO.N,GND*%
X158510000Y-58390000D03*
X158510000Y-56990000D03*
X157810000Y-59090000D03*
X157810000Y-57690000D03*
X157810000Y-56290000D03*
X157110000Y-58390000D03*
X157110000Y-56990000D03*
X156410000Y-59090000D03*
X156410000Y-57690000D03*
X156410000Y-56290000D03*
X155710000Y-58390000D03*
X155710000Y-56990000D03*
%TD*%
D16*
%TO.P,J9,S1,SHIELD*%
%TO.N,unconnected-(J9-SHIELD-PadS1)*%
X151320000Y-144096000D03*
D17*
%TO.N,unconnected-(J9-SHIELD-PadS1)_2*%
X151320000Y-139916000D03*
D16*
%TO.N,unconnected-(J9-SHIELD-PadS1)_3*%
X142680000Y-144096000D03*
D17*
%TO.N,unconnected-(J9-SHIELD-PadS1)_1*%
X142680000Y-139916000D03*
%TD*%
D18*
%TO.P,U7,11,PGND*%
%TO.N,GND*%
X121770000Y-136430000D03*
X122770000Y-136430000D03*
D19*
X122270000Y-135931000D03*
D18*
X122270000Y-135930000D03*
X121770000Y-135430000D03*
X122770000Y-135430000D03*
%TD*%
D20*
%TO.N,+3.3VA*%
X164260000Y-79540000D03*
X158510000Y-128040000D03*
X156260000Y-126040000D03*
X166915330Y-130384670D03*
X161010000Y-130160000D03*
%TO.N,+3.3V*%
X148525297Y-91184629D03*
X178260000Y-139540000D03*
X138510000Y-49290000D03*
X175760000Y-76890000D03*
X170260000Y-102790000D03*
X161348394Y-89290000D03*
X163510000Y-86040000D03*
X121770000Y-132760000D03*
X166010000Y-120290000D03*
X139510000Y-124290000D03*
X167510000Y-125040000D03*
X178060000Y-106585995D03*
X127760000Y-56790000D03*
X178060000Y-109040000D03*
X153510000Y-114790000D03*
X178060000Y-99290000D03*
X159979881Y-74259881D03*
X178260000Y-126540000D03*
X151260000Y-127790000D03*
X153260000Y-107540000D03*
X170910000Y-57540000D03*
X148510000Y-51540000D03*
X131785000Y-125290000D03*
X128010000Y-138446406D03*
X152585000Y-74790000D03*
X147369500Y-126040000D03*
X127760000Y-53353500D03*
X142010000Y-121290000D03*
X163510000Y-105790000D03*
X115510000Y-51290000D03*
X162885000Y-116790000D03*
X154411823Y-105388177D03*
X149510000Y-86540000D03*
X174510000Y-106790000D03*
X178260000Y-93790000D03*
%TO.N,VBUS*%
X144550000Y-136540000D03*
X147140500Y-136540000D03*
%TO.N,GND*%
X119010000Y-141290000D03*
X179010000Y-114290000D03*
X159816750Y-90375440D03*
X142760000Y-133790000D03*
X148010000Y-50790000D03*
X152010000Y-105790000D03*
X125510000Y-50540000D03*
X154510000Y-104290000D03*
X179010000Y-86290000D03*
X118010000Y-125290000D03*
X125260000Y-135923250D03*
X161010000Y-74790000D03*
X120010000Y-141290000D03*
X128261398Y-142686062D03*
X151260000Y-130540000D03*
X149510000Y-88290000D03*
X162510000Y-106290000D03*
X138199644Y-143993928D03*
X136010000Y-123540000D03*
X126260000Y-126790000D03*
X143760000Y-137290000D03*
X176260000Y-124290000D03*
X119893139Y-135290000D03*
X119022511Y-134975099D03*
X127420270Y-140674873D03*
X170510000Y-51790000D03*
X132760000Y-116290000D03*
X164229669Y-80570331D03*
X120010000Y-142290000D03*
X156010000Y-69290000D03*
X179010000Y-104290000D03*
X138216401Y-140133763D03*
X119841580Y-136394600D03*
X117501096Y-126031811D03*
X144196500Y-126040000D03*
X149260000Y-114883750D03*
X126539200Y-140686621D03*
X150260000Y-137040000D03*
X128263748Y-140681922D03*
X150260000Y-135540000D03*
X138216401Y-142883763D03*
X124657571Y-135353492D03*
X140010000Y-121790000D03*
X138213558Y-142054511D03*
X170760000Y-102040000D03*
X126510000Y-130290000D03*
X118010000Y-126790000D03*
X125427655Y-135065676D03*
X161010000Y-117705086D03*
X126010000Y-131290000D03*
X118010000Y-128790000D03*
X176010000Y-80290000D03*
X163010000Y-88790000D03*
X119010000Y-142290000D03*
X128261398Y-141572390D03*
X117510000Y-127790000D03*
X130010000Y-133290000D03*
X126510000Y-128290000D03*
X139760000Y-49290000D03*
X171010000Y-66190000D03*
X119102134Y-136754534D03*
X138228495Y-141131883D03*
X149010000Y-73815500D03*
X134260000Y-66040000D03*
X125470505Y-136831340D03*
X126010000Y-125290000D03*
X136510000Y-52790000D03*
X120010000Y-140290000D03*
X176510000Y-137310000D03*
X124695164Y-136598738D03*
X167260000Y-120290000D03*
X119260000Y-135790000D03*
X126010000Y-129290000D03*
%TO.N,/UI_BOOT0*%
X161260000Y-87790000D03*
X175886545Y-103166545D03*
X163510000Y-104290000D03*
%TO.N,/MCLK*%
X167869495Y-111911696D03*
X164713156Y-111911696D03*
%TO.N,/MGMT_BOOT*%
X160682092Y-102353500D03*
X170885830Y-109414170D03*
X132510000Y-52790000D03*
X163823500Y-74290000D03*
X172510000Y-113040000D03*
X123510000Y-52290000D03*
X169010000Y-110540000D03*
%TO.N,/MGMT_NRST*%
X155541069Y-111674469D03*
X170338920Y-110461080D03*
X135262005Y-49726500D03*
X152510000Y-115040000D03*
X164241224Y-73558776D03*
X173260000Y-112040000D03*
%TO.N,/LEDA_R*%
X157387000Y-111726500D03*
X148010000Y-77726500D03*
%TO.N,/DISP_BL*%
X164189575Y-91110425D03*
X170760000Y-96040000D03*
%TO.N,/LEDA_G*%
X158010000Y-111040000D03*
X149010000Y-77163000D03*
%TO.N,/BATTERY_MON*%
X131260000Y-67040000D03*
X156148500Y-74790000D03*
%TO.N,/LEDA_B*%
X148010000Y-76472851D03*
X158630321Y-111660321D03*
%TO.N,/DISP_DC*%
X158639431Y-89660569D03*
X170760000Y-98040000D03*
%TO.N,/DISP_CS*%
X157900500Y-89083608D03*
X170760000Y-99040000D03*
%TO.N,/KB_ROW5*%
X145127900Y-118790000D03*
X155137000Y-72993374D03*
%TO.N,/KB_ROW4*%
X144478398Y-118294679D03*
X155196823Y-78359493D03*
%TO.N,/KB_ROW6*%
X145721719Y-119538000D03*
X155137000Y-73963396D03*
%TO.N,/KB_ROW7*%
X153510000Y-74790000D03*
X145510000Y-122040000D03*
%TO.N,/LEDB_R*%
X148742640Y-75909352D03*
X159305321Y-110985321D03*
%TO.N,/LEDB_G*%
X147768106Y-75302447D03*
X159873416Y-110417226D03*
%TO.N,Net-(J9-CC1)*%
X145300000Y-137290000D03*
X148510000Y-133540000D03*
%TO.N,Net-(J9-CC2)*%
X148700000Y-137290000D03*
X151510000Y-133540000D03*
%TO.N,/LEDB_B*%
X160412383Y-109384332D03*
X148383000Y-74711005D03*
%TO.N,/NET_LED_B*%
X165760000Y-63960819D03*
X173010000Y-63040000D03*
%TO.N,/NET_LED_G*%
X165760000Y-62673134D03*
X172010000Y-63040000D03*
%TO.N,/USB_DTR*%
X158957633Y-116791721D03*
X139010000Y-129540000D03*
X146760000Y-125040000D03*
X160760000Y-113462613D03*
%TO.N,/USB_RTS*%
X139010000Y-128290000D03*
X145760000Y-125040000D03*
%TO.N,/NET_LED_R*%
X165760000Y-61400000D03*
X170910000Y-63070319D03*
%TO.N,/NET_STAT*%
X160260000Y-108290000D03*
X162612371Y-76795624D03*
%TO.N,/NET_BOOT*%
X163042500Y-100790000D03*
X172585000Y-76215000D03*
X167510000Y-74790000D03*
X169260000Y-101290000D03*
%TO.N,/MGMT_SWDIO*%
X173260000Y-111090000D03*
X164713156Y-109290000D03*
%TO.N,/MGMT_SWCLK*%
X173260000Y-110090000D03*
X162540331Y-104759669D03*
%TO.N,/I2S_DACLRC*%
X176510000Y-133540000D03*
X160533455Y-120063455D03*
X165010000Y-115790000D03*
X163461000Y-120603500D03*
%TO.N,/UI_BOOT1*%
X167112500Y-103026500D03*
X156760000Y-81790000D03*
X160010000Y-101790000D03*
X164760000Y-77985672D03*
%TO.N,/I2S_BCLK*%
X176510000Y-134790000D03*
X163834000Y-119813086D03*
X165510000Y-116540000D03*
X161369636Y-119813086D03*
%TO.N,/I2S_ADCDAT*%
X172260000Y-133540000D03*
X166305217Y-116335217D03*
%TO.N,/I2S_DACDAT*%
X172260000Y-134790000D03*
X167137986Y-115964896D03*
%TO.N,/USB_TX1_MGMT*%
X143885000Y-125040000D03*
X137262807Y-126919921D03*
X148963090Y-118243090D03*
X176010000Y-120540000D03*
X161033455Y-110454500D03*
%TO.N,/USB_RX1_MGMT*%
X172708500Y-125540000D03*
X150111545Y-117891545D03*
X144760000Y-125040000D03*
X161191146Y-111370057D03*
X137260000Y-128040000D03*
%TO.N,Net-(D2-A)*%
X131010000Y-118440000D03*
D21*
X131895613Y-129927387D03*
D20*
%TO.N,/NET_TX1_MGMT*%
X169130321Y-118419679D03*
X160084633Y-118032086D03*
%TO.N,/NET_RX1_MGMT*%
X159309573Y-118693517D03*
X168130321Y-117919679D03*
X175760000Y-79290000D03*
X174710000Y-75190000D03*
%TO.N,/SPI1_CLK*%
X159010000Y-85790000D03*
X170760000Y-100040000D03*
%TO.N,/SPI1_MOSI*%
X170760000Y-101040000D03*
X158148500Y-85876976D03*
%TO.N,Net-(U1-PC0)*%
X177260000Y-73613000D03*
X164086018Y-82570195D03*
%TO.N,Net-(U1-PC1)*%
X164836584Y-82006695D03*
X175630413Y-74513505D03*
%TO.N,/NET_MTDI*%
X172510000Y-89040000D03*
X169401500Y-89019674D03*
%TO.N,/NET_MTCK*%
X168748327Y-91289173D03*
X172510000Y-91540000D03*
%TO.N,/NET_MTDO*%
X169074500Y-90290000D03*
X172550000Y-90330000D03*
%TO.N,/NET_MTMS*%
X169629577Y-92170424D03*
X172510000Y-92790000D03*
%TO.N,Net-(U1-PB10)*%
X154010000Y-73790000D03*
X146571681Y-119294969D03*
%TO.N,/NET_NRST*%
X164439360Y-72516270D03*
X171510000Y-76399500D03*
X148510000Y-52790000D03*
X163696500Y-102353500D03*
X169010000Y-102790000D03*
D21*
%TO.N,Net-(D2-K)*%
X130260000Y-128790000D03*
D20*
%TO.N,/USB_CC2_DETECT*%
X167532547Y-113505872D03*
X151845410Y-118430500D03*
%TO.N,/USB_CC1_DETECT*%
X152510000Y-119040000D03*
X166821156Y-114129357D03*
%TO.N,/DISP_RST*%
X170760000Y-97040000D03*
X163574529Y-90536131D03*
%TO.N,/UI_NRST*%
X163510000Y-103290000D03*
X166458500Y-104663000D03*
X176010000Y-102290000D03*
X164760000Y-83180500D03*
X165870409Y-84353500D03*
%TO.N,/UI_SWCLK*%
X156513946Y-86053305D03*
X176263424Y-100040000D03*
%TO.N,/UI_SWDIO*%
X157268850Y-84633439D03*
X176560000Y-101040000D03*
%TO.N,/UI_SCL*%
X151885000Y-88665000D03*
X172260000Y-136040000D03*
X159135000Y-119665000D03*
X146645000Y-129925000D03*
%TO.N,/UI_SDA*%
X172260000Y-137290000D03*
X158260000Y-120353500D03*
X146510000Y-131290000D03*
X151010000Y-88540000D03*
%TO.N,/UI_TX2_NET*%
X148573500Y-62739863D03*
X163260000Y-71540000D03*
X176010000Y-123040000D03*
X159510000Y-83290000D03*
%TO.N,/UI_TX1_MGMT*%
X154760000Y-116893000D03*
X172708500Y-123040000D03*
%TO.N,/UI_RX2_NET*%
X148260000Y-61790000D03*
X162260000Y-71617070D03*
X158648500Y-83540000D03*
X176010000Y-121790000D03*
%TO.N,/UI_RX1_MGMT*%
X154760000Y-116040000D03*
X172708500Y-124290000D03*
%TO.N,/UI_LED_B*%
X163260000Y-77290000D03*
X176010000Y-63040000D03*
%TO.N,/UI_LED_G*%
X164031434Y-78549172D03*
X156760000Y-82790000D03*
X175010000Y-63040000D03*
X164510000Y-76726500D03*
%TO.N,/UI_LED_R*%
X174010000Y-63040000D03*
X158792500Y-71155000D03*
%TO.N,/UI_DEBUG_1*%
X155773174Y-78944024D03*
X156712000Y-73748342D03*
%TO.N,/UI_DEBUG_2*%
X157510000Y-74290000D03*
X156196500Y-80516545D03*
%TO.N,/UI_STAT*%
X153022954Y-86290000D03*
X156260000Y-109290000D03*
%TO.N,GNDA*%
X168510000Y-130412814D03*
X159260000Y-129290000D03*
X142107822Y-120383729D03*
X169260000Y-124540000D03*
X159260000Y-126290000D03*
X165900500Y-132149500D03*
X159489670Y-125060330D03*
X161760000Y-132149500D03*
%TO.N,Net-(SW6-C)*%
X127510000Y-68500000D03*
%TD*%
D22*
%TO.N,Net-(U1-PC1)*%
X164912558Y-82082669D02*
X164836584Y-82006695D01*
X176717331Y-82082669D02*
X164912558Y-82082669D01*
X176933000Y-81867000D02*
X176717331Y-82082669D01*
X176933000Y-75816092D02*
X176933000Y-81867000D01*
X175630413Y-74513505D02*
X176933000Y-75816092D01*
%TO.N,/NET_RX1_MGMT*%
X176323500Y-78726500D02*
X175760000Y-79290000D01*
X176323500Y-76056590D02*
X176323500Y-78726500D01*
X175456910Y-75190000D02*
X176323500Y-76056590D01*
X174710000Y-75190000D02*
X175456910Y-75190000D01*
%TO.N,/NET_BOOT*%
X168410000Y-75690000D02*
X167510000Y-74790000D01*
X172060000Y-75690000D02*
X168410000Y-75690000D01*
X172585000Y-76215000D02*
X172060000Y-75690000D01*
%TO.N,Net-(U1-PC0)*%
X176729805Y-82570195D02*
X164086018Y-82570195D01*
X177260000Y-82040000D02*
X176729805Y-82570195D01*
X177260000Y-73613000D02*
X177260000Y-82040000D01*
D23*
%TO.N,+3.3V*%
X123970000Y-137400000D02*
X123970000Y-134520000D01*
X125016406Y-138446406D02*
X123970000Y-137400000D01*
X123970000Y-134520000D02*
X122210000Y-132760000D01*
X122210000Y-132760000D02*
X121770000Y-132760000D01*
X128010000Y-138446406D02*
X125016406Y-138446406D01*
D22*
%TO.N,/UI_BOOT0*%
X162006246Y-88536246D02*
X162006246Y-88583156D01*
X164510000Y-89790000D02*
X164996500Y-90276500D01*
X173826590Y-105226500D02*
X175886545Y-103166545D01*
X176760000Y-102336910D02*
X175930365Y-103166545D01*
X175699924Y-97654820D02*
X175699924Y-100976834D01*
X175699924Y-100976834D02*
X176760000Y-102036910D01*
X176760000Y-102036910D02*
X176760000Y-102336910D01*
X165855552Y-95098000D02*
X173143104Y-95098000D01*
X164446500Y-105226500D02*
X173826590Y-105226500D01*
X175930365Y-103166545D02*
X175886545Y-103166545D01*
X164996500Y-94238948D02*
X165855552Y-95098000D01*
X161260000Y-87790000D02*
X162006246Y-88536246D01*
X164996500Y-90276500D02*
X164996500Y-94238948D01*
X162006246Y-88583156D02*
X163213090Y-89790000D01*
X163213090Y-89790000D02*
X164510000Y-89790000D01*
X163510000Y-104290000D02*
X164446500Y-105226500D01*
X173143104Y-95098000D02*
X175699924Y-97654820D01*
%TO.N,/MCLK*%
X164713156Y-111911696D02*
X164747352Y-111877500D01*
X167835299Y-111877500D02*
X167869495Y-111911696D01*
X164747352Y-111877500D02*
X167835299Y-111877500D01*
%TO.N,/MGMT_BOOT*%
X169010000Y-110540000D02*
X171510000Y-113040000D01*
X147510000Y-71290000D02*
X156160208Y-71290000D01*
X156160208Y-71290000D02*
X157896708Y-73026500D01*
X170011660Y-108540000D02*
X170885830Y-109414170D01*
X171510000Y-113040000D02*
X172510000Y-113040000D01*
X162560000Y-73026500D02*
X163823500Y-74290000D01*
X163510000Y-108540000D02*
X170011660Y-108540000D01*
X135010000Y-50290000D02*
X144510000Y-50290000D01*
X144510000Y-50290000D02*
X146680360Y-52460360D01*
X157896708Y-73026500D02*
X162560000Y-73026500D01*
X132510000Y-52790000D02*
X135010000Y-50290000D01*
X160682092Y-102353500D02*
X160682092Y-105712092D01*
X160682092Y-105712092D02*
X163510000Y-108540000D01*
X123510000Y-52290000D02*
X124010000Y-52790000D01*
X146680360Y-52460360D02*
X146680360Y-70460360D01*
X124010000Y-52790000D02*
X132510000Y-52790000D01*
X146680360Y-70460360D02*
X147510000Y-71290000D01*
%TO.N,/MGMT_NRST*%
X163381949Y-72699500D02*
X158032156Y-72699500D01*
X160436916Y-110650636D02*
X160436916Y-110113084D01*
X152260000Y-112040000D02*
X152260000Y-114790000D01*
X158797552Y-112290000D02*
X160436916Y-110650636D01*
X147586740Y-70904292D02*
X147007360Y-70324912D01*
X155541069Y-111821069D02*
X156010000Y-112290000D01*
X152260000Y-114790000D02*
X152510000Y-115040000D01*
X135498505Y-49963000D02*
X135262005Y-49726500D01*
X169768840Y-109891000D02*
X170338920Y-110461080D01*
X147007360Y-70324912D02*
X147007360Y-52324912D01*
X155541069Y-111674469D02*
X152625531Y-111674469D01*
X160436916Y-110113084D02*
X160659000Y-109891000D01*
X170338920Y-110461080D02*
X171917840Y-112040000D01*
X164241224Y-73558775D02*
X163381949Y-72699500D01*
X156010000Y-112290000D02*
X158797552Y-112290000D01*
X144645448Y-49963000D02*
X135498505Y-49963000D01*
X156236948Y-70904292D02*
X147586740Y-70904292D01*
X155541069Y-111674469D02*
X155541069Y-111821069D01*
X171917840Y-112040000D02*
X173260000Y-112040000D01*
X152625531Y-111674469D02*
X152260000Y-112040000D01*
X160659000Y-109891000D02*
X169768840Y-109891000D01*
X158032156Y-72699500D02*
X156236948Y-70904292D01*
X147007360Y-52324912D02*
X144645448Y-49963000D01*
X164241224Y-73558776D02*
X164241224Y-73558775D01*
%TO.N,/LEDA_R*%
X157476395Y-100531083D02*
X157476395Y-110776695D01*
X151760000Y-78040000D02*
X153913454Y-80193454D01*
X153913454Y-80193454D02*
X153913454Y-96968142D01*
X148010000Y-77726500D02*
X149634260Y-77726500D01*
X149947760Y-78040000D02*
X151760000Y-78040000D01*
X149634260Y-77726500D02*
X149947760Y-78040000D01*
X157476395Y-110776695D02*
X157387000Y-110866090D01*
X157387000Y-110866090D02*
X157387000Y-111726500D01*
X153913454Y-96968142D02*
X157476395Y-100531083D01*
%TO.N,/DISP_BL*%
X163606000Y-96040000D02*
X170760000Y-96040000D01*
X164189575Y-91110425D02*
X163133000Y-92167000D01*
X163133000Y-92167000D02*
X163133000Y-95567000D01*
X163133000Y-95567000D02*
X163606000Y-96040000D01*
%TO.N,/LEDA_G*%
X157803395Y-110833395D02*
X158010000Y-111040000D01*
X154240454Y-96832694D02*
X157803395Y-100395635D01*
X149010000Y-77163000D02*
X149533208Y-77163000D01*
X151895448Y-77713000D02*
X154240454Y-80058006D01*
X154240454Y-80058006D02*
X154240454Y-96832694D01*
X157803395Y-100395635D02*
X157803395Y-110833395D01*
X149533208Y-77163000D02*
X150083208Y-77713000D01*
X150083208Y-77713000D02*
X151895448Y-77713000D01*
%TO.N,/BATTERY_MON*%
X145378581Y-67158581D02*
X145260000Y-67040000D01*
X156024760Y-71617000D02*
X145907728Y-71617000D01*
X156148500Y-71740740D02*
X156024760Y-71617000D01*
X156148500Y-74790000D02*
X156148500Y-71740740D01*
X145907728Y-71617000D02*
X145378581Y-71087853D01*
X145260000Y-67040000D02*
X131260000Y-67040000D01*
X145378581Y-71087853D02*
X145378581Y-67158581D01*
%TO.N,/LEDA_B*%
X158130395Y-108835291D02*
X158630321Y-109335217D01*
X149305507Y-76472851D02*
X150199656Y-77367000D01*
X154567454Y-79922558D02*
X154567454Y-96697246D01*
X158630321Y-109335217D02*
X158630321Y-111660321D01*
X152011896Y-77367000D02*
X154567454Y-79922558D01*
X154567454Y-96697246D02*
X158130395Y-100260187D01*
X150199656Y-77367000D02*
X152011896Y-77367000D01*
X158130395Y-100260187D02*
X158130395Y-108835291D01*
X148010000Y-76472851D02*
X149305507Y-76472851D01*
%TO.N,/DISP_DC*%
X158639431Y-89995032D02*
X158639431Y-89660569D01*
X158639431Y-89995032D02*
X160184399Y-91540000D01*
X160184399Y-91540000D02*
X162260000Y-91540000D01*
X169414000Y-96694000D02*
X170760000Y-98040000D01*
X162479000Y-91759000D02*
X162479000Y-95837896D01*
X162260000Y-91540000D02*
X162479000Y-91759000D01*
X163335104Y-96694000D02*
X169414000Y-96694000D01*
X162479000Y-95837896D02*
X163335104Y-96694000D01*
%TO.N,/DISP_CS*%
X161837000Y-91867000D02*
X162152000Y-92182000D01*
X162152000Y-95973344D02*
X163199656Y-97021000D01*
X157900500Y-89083608D02*
X157900500Y-89718549D01*
X162152000Y-92182000D02*
X162152000Y-95973344D01*
X168741000Y-97021000D02*
X170760000Y-99040000D01*
X157900500Y-89718549D02*
X160048951Y-91867000D01*
X163199656Y-97021000D02*
X168741000Y-97021000D01*
X160048951Y-91867000D02*
X161837000Y-91867000D01*
%TO.N,/KB_ROW5*%
X145680979Y-72581469D02*
X145680979Y-118236921D01*
X145991448Y-72271000D02*
X145680979Y-72581469D01*
X154414626Y-72271000D02*
X145991448Y-72271000D01*
X155137000Y-72993374D02*
X154414626Y-72271000D01*
X145680979Y-118236921D02*
X145127900Y-118790000D01*
%TO.N,/KB_ROW4*%
X145353979Y-72446021D02*
X145856000Y-71944000D01*
X155196823Y-74700483D02*
X155196823Y-78359493D01*
X155554850Y-71944000D02*
X155700500Y-72089650D01*
X145353979Y-117419098D02*
X145353979Y-72446021D01*
X145856000Y-71944000D02*
X155554850Y-71944000D01*
X144478398Y-118294679D02*
X144473719Y-118290000D01*
X155700500Y-72089650D02*
X155700500Y-74196806D01*
X155700500Y-74196806D02*
X155196823Y-74700483D01*
X144478398Y-118294679D02*
X145353979Y-117419098D01*
%TO.N,/KB_ROW6*%
X153771604Y-72598000D02*
X146202000Y-72598000D01*
X146010000Y-119249719D02*
X145721719Y-119538000D01*
X146202000Y-72598000D02*
X146010000Y-72790000D01*
X146010000Y-72790000D02*
X146010000Y-119249719D01*
X155137000Y-73963396D02*
X153771604Y-72598000D01*
%TO.N,/KB_ROW7*%
X151972000Y-73252000D02*
X146859652Y-73252000D01*
X146664000Y-118590378D02*
X147260000Y-119186378D01*
X147260000Y-121040000D02*
X146260000Y-122040000D01*
X146260000Y-122040000D02*
X145510000Y-122040000D01*
X146664000Y-73447652D02*
X146664000Y-118590378D01*
X146859652Y-73252000D02*
X146664000Y-73447652D01*
X147260000Y-119186378D02*
X147260000Y-121040000D01*
X153510000Y-74790000D02*
X151972000Y-73252000D01*
%TO.N,/LEDB_R*%
X148742640Y-75909352D02*
X149204456Y-75909352D01*
X150335104Y-77040000D02*
X152147344Y-77040000D01*
X154894454Y-96561798D02*
X158457395Y-100124739D01*
X158457395Y-108699843D02*
X159305321Y-109547769D01*
X154894454Y-80569254D02*
X154894454Y-96561798D01*
X149204456Y-75909352D02*
X150335104Y-77040000D01*
X158457395Y-100124739D02*
X158457395Y-108699843D01*
X152147344Y-77040000D02*
X154894454Y-79787110D01*
X154894454Y-79787110D02*
X154894454Y-80674454D01*
X159305321Y-109547769D02*
X159305321Y-110985321D01*
%TO.N,/LEDB_G*%
X149059999Y-75302447D02*
X150470552Y-76713000D01*
X159873416Y-109653416D02*
X159873416Y-110417226D01*
X158784395Y-99989291D02*
X158784395Y-108564395D01*
X155221454Y-80704702D02*
X155221454Y-96426350D01*
X158784395Y-108564395D02*
X159873416Y-109653416D01*
X147768106Y-75302447D02*
X149059999Y-75302447D01*
X152282792Y-76713000D02*
X155221454Y-79651662D01*
X150470552Y-76713000D02*
X152282792Y-76713000D01*
X155221454Y-79651662D02*
X155221454Y-80790000D01*
X155221454Y-96426350D02*
X158784395Y-99989291D01*
%TO.N,Net-(J9-CC1)*%
X147760000Y-137290000D02*
X148510000Y-136540000D01*
X148510000Y-136540000D02*
X148510000Y-133540000D01*
X145300000Y-137290000D02*
X147760000Y-137290000D01*
%TO.N,Net-(J9-CC2)*%
X149700000Y-136290000D02*
X150665330Y-136290000D01*
X148700000Y-137290000D02*
X149700000Y-136290000D01*
X151510000Y-135445330D02*
X151510000Y-133540000D01*
X150665330Y-136290000D02*
X151510000Y-135445330D01*
%TO.N,/LEDB_B*%
X150606000Y-76386000D02*
X152418240Y-76386000D01*
X159111395Y-108428947D02*
X160066780Y-109384332D01*
X159111395Y-99853843D02*
X159111395Y-108428947D01*
X155548454Y-79516214D02*
X155548454Y-96290902D01*
X148383000Y-74711005D02*
X148634995Y-74963000D01*
X149183000Y-74963000D02*
X150606000Y-76386000D01*
X155548454Y-96290902D02*
X159111395Y-99853843D01*
X160066780Y-109384332D02*
X160412383Y-109384332D01*
X152418240Y-76386000D02*
X155548454Y-79516214D01*
X148634995Y-74963000D02*
X149183000Y-74963000D01*
%TO.N,/NET_LED_B*%
X173010000Y-63040000D02*
X172089181Y-63960819D01*
X172089181Y-63960819D02*
X165760000Y-63960819D01*
%TO.N,/NET_LED_G*%
X172010000Y-63040000D02*
X171416181Y-63633819D01*
X171416181Y-63633819D02*
X166720685Y-63633819D01*
X166720685Y-63633819D02*
X165760000Y-62673134D01*
%TO.N,/USB_DTR*%
X146760000Y-127040000D02*
X144260000Y-129540000D01*
X160760000Y-114077552D02*
X160760000Y-113462613D01*
X144260000Y-129540000D02*
X139010000Y-129540000D01*
X146760000Y-125040000D02*
X146760000Y-127040000D01*
X158957633Y-116791721D02*
X158957633Y-115879919D01*
X158957633Y-115879919D02*
X160760000Y-114077552D01*
%TO.N,/USB_RTS*%
X145760000Y-127040000D02*
X144510000Y-128290000D01*
X145760000Y-125040000D02*
X145760000Y-127040000D01*
X144510000Y-128290000D02*
X139010000Y-128290000D01*
%TO.N,/NET_LED_R*%
X170673500Y-63306819D02*
X167666819Y-63306819D01*
X170910000Y-63070319D02*
X170673500Y-63306819D01*
X167666819Y-63306819D02*
X165760000Y-61400000D01*
%TO.N,/NET_STAT*%
X160260000Y-108290000D02*
X160010000Y-108290000D01*
X155875454Y-81674546D02*
X155875454Y-96155454D01*
X159438395Y-107468395D02*
X160260000Y-108290000D01*
X159438395Y-99718395D02*
X159438395Y-107468395D01*
X162612371Y-76795624D02*
X160754376Y-76795624D01*
X155875454Y-96155454D02*
X159438395Y-99718395D01*
X160754376Y-76795624D02*
X155875454Y-81674546D01*
%TO.N,/NET_BOOT*%
X169010000Y-100290000D02*
X163542500Y-100290000D01*
X163542500Y-100290000D02*
X163042500Y-100790000D01*
X169260000Y-101290000D02*
X169260000Y-100540000D01*
X169260000Y-100540000D02*
X169010000Y-100290000D01*
%TO.N,/MGMT_SWDIO*%
X173260000Y-111090000D02*
X171764750Y-111090000D01*
X169964750Y-109290000D02*
X164713156Y-109290000D01*
X171764750Y-111090000D02*
X169964750Y-109290000D01*
%TO.N,/MGMT_SWCLK*%
X171383000Y-108213000D02*
X166729910Y-108213000D01*
X173260000Y-110090000D02*
X171383000Y-108213000D01*
X162634162Y-104853500D02*
X162540331Y-104759669D01*
X166729910Y-108213000D02*
X163370410Y-104853500D01*
X163370410Y-104853500D02*
X162634162Y-104853500D01*
%TO.N,/I2S_DACLRC*%
X165010000Y-115790000D02*
X165591076Y-115790000D01*
X176260000Y-131540000D02*
X176510000Y-131790000D01*
X176510000Y-131790000D02*
X176510000Y-133540000D01*
X172510000Y-131540000D02*
X176260000Y-131540000D01*
X172145000Y-131175000D02*
X172510000Y-131540000D01*
X167642292Y-114747396D02*
X172145000Y-119250104D01*
X163461000Y-120603500D02*
X161073500Y-120603500D01*
X172145000Y-119250104D02*
X172145000Y-131175000D01*
X166633680Y-114747396D02*
X167642292Y-114747396D01*
X161073500Y-120603500D02*
X160533455Y-120063455D01*
X165591076Y-115790000D02*
X166633680Y-114747396D01*
%TO.N,/UI_BOOT1*%
X160010000Y-101790000D02*
X165876000Y-101790000D01*
X164760000Y-77985672D02*
X160564328Y-77985672D01*
X165876000Y-101790000D02*
X167112500Y-103026500D01*
X160564328Y-77985672D02*
X156760000Y-81790000D01*
%TO.N,/I2S_BCLK*%
X175587000Y-131867000D02*
X172337000Y-131867000D01*
X176510000Y-134790000D02*
X175946500Y-134226500D01*
X166769128Y-115074396D02*
X165510000Y-116333524D01*
X172337000Y-131867000D02*
X171818000Y-131348000D01*
X175946500Y-132226500D02*
X175587000Y-131867000D01*
X165510000Y-116333524D02*
X165510000Y-116540000D01*
X171818000Y-119385552D02*
X167506844Y-115074396D01*
X175946500Y-134226500D02*
X175946500Y-132226500D01*
X163810914Y-119790000D02*
X161392722Y-119790000D01*
X167506844Y-115074396D02*
X166769128Y-115074396D01*
X163834000Y-119813086D02*
X163810914Y-119790000D01*
X171818000Y-131348000D02*
X171818000Y-119385552D01*
X161392722Y-119790000D02*
X161369636Y-119813086D01*
%TO.N,/I2S_ADCDAT*%
X172260000Y-133540000D02*
X171491000Y-132771000D01*
X171491000Y-132771000D02*
X171491000Y-119521000D01*
X166305217Y-116000755D02*
X166305217Y-116335217D01*
X166904576Y-115401396D02*
X166305217Y-116000755D01*
X167371396Y-115401396D02*
X166904576Y-115401396D01*
X171491000Y-119521000D02*
X167371396Y-115401396D01*
%TO.N,/I2S_DACDAT*%
X171164000Y-133694000D02*
X172260000Y-134790000D01*
X167137986Y-115964896D02*
X167472448Y-115964896D01*
X167472448Y-115964896D02*
X171164000Y-119656448D01*
X171164000Y-119656448D02*
X171164000Y-133694000D01*
%TO.N,/USB_TX1_MGMT*%
X155727855Y-113463000D02*
X158087000Y-113463000D01*
X148963090Y-118243090D02*
X150416180Y-116790000D01*
X142212000Y-126713000D02*
X137469728Y-126713000D01*
X152400855Y-116790000D02*
X155727855Y-113463000D01*
X167671657Y-110454500D02*
X161033455Y-110454500D01*
X158087000Y-113463000D02*
X161033455Y-110516545D01*
X137469728Y-126713000D02*
X137262807Y-126919921D01*
X150416180Y-116790000D02*
X152400855Y-116790000D01*
X176010000Y-120540000D02*
X176010000Y-118792843D01*
X176010000Y-118792843D02*
X167671657Y-110454500D01*
X143885000Y-125040000D02*
X142212000Y-126713000D01*
%TO.N,/USB_RX1_MGMT*%
X152536303Y-117117000D02*
X155863303Y-113790000D01*
X160642391Y-111370057D02*
X161191146Y-111370057D01*
X137760000Y-127540000D02*
X137260000Y-128040000D01*
X168102905Y-111348196D02*
X174510000Y-117755291D01*
X155863303Y-113790000D02*
X158222448Y-113790000D01*
X144760000Y-125040000D02*
X144760000Y-127194000D01*
X161213007Y-111348196D02*
X168102905Y-111348196D01*
X174510000Y-117755291D02*
X174510000Y-123738500D01*
X158222448Y-113790000D02*
X160642391Y-111370057D01*
X144760000Y-127194000D02*
X144414000Y-127540000D01*
X150111545Y-117891545D02*
X150886090Y-117117000D01*
X174510000Y-123738500D02*
X172708500Y-125540000D01*
X150886090Y-117117000D02*
X152536303Y-117117000D01*
X144414000Y-127540000D02*
X137760000Y-127540000D01*
%TO.N,/NET_TX1_MGMT*%
X167896911Y-117356179D02*
X168363731Y-117356179D01*
X160084633Y-118032086D02*
X160321133Y-118268586D01*
X169130321Y-118122769D02*
X169130321Y-118419679D01*
X166984504Y-118268586D02*
X167896911Y-117356179D01*
X168363731Y-117356179D02*
X169130321Y-118122769D01*
X160321133Y-118268586D02*
X166984504Y-118268586D01*
%TO.N,/NET_RX1_MGMT*%
X167454414Y-118595586D02*
X168130321Y-117919679D01*
X159407504Y-118595586D02*
X167454414Y-118595586D01*
X159309573Y-118693517D02*
X159407504Y-118595586D01*
%TO.N,/SPI1_CLK*%
X159913503Y-92194000D02*
X161701552Y-92194000D01*
X161825000Y-96108792D02*
X163064208Y-97348000D01*
X157337000Y-89617497D02*
X159913503Y-92194000D01*
X161701552Y-92194000D02*
X161825000Y-92317448D01*
X163064208Y-97348000D02*
X168068000Y-97348000D01*
X161825000Y-92317448D02*
X161825000Y-96108792D01*
X168068000Y-97348000D02*
X170760000Y-100040000D01*
X159010000Y-85790000D02*
X159010000Y-86502448D01*
X157337000Y-88175449D02*
X157337000Y-89617497D01*
X159010000Y-86502448D02*
X157337000Y-88175449D01*
%TO.N,/SPI1_MOSI*%
X161260000Y-92521000D02*
X161498000Y-92759000D01*
X159778055Y-92521000D02*
X161260000Y-92521000D01*
X157010000Y-89752945D02*
X159778055Y-92521000D01*
X158148500Y-86901500D02*
X157010000Y-88040000D01*
X167395000Y-97675000D02*
X170760000Y-101040000D01*
X162928760Y-97675000D02*
X167395000Y-97675000D01*
X161498000Y-96244240D02*
X162928760Y-97675000D01*
X158148500Y-85876976D02*
X158148500Y-86901500D01*
X157010000Y-88040000D02*
X157010000Y-89752945D01*
X161498000Y-92759000D02*
X161498000Y-96244240D01*
%TO.N,/NET_MTDI*%
X169401500Y-89019674D02*
X172489674Y-89019674D01*
X172489674Y-89019674D02*
X172510000Y-89040000D01*
%TO.N,/NET_MTCK*%
X168748327Y-91289173D02*
X172259173Y-91289173D01*
X172259173Y-91289173D02*
X172510000Y-91540000D01*
%TO.N,/NET_MTDO*%
X169074500Y-90290000D02*
X172510000Y-90290000D01*
X172510000Y-90290000D02*
X172550000Y-90330000D01*
%TO.N,/NET_MTMS*%
X172510000Y-92790000D02*
X171890424Y-92170424D01*
X171890424Y-92170424D02*
X169629577Y-92170424D01*
%TO.N,Net-(U1-PB10)*%
X146510448Y-72925000D02*
X146337000Y-73098448D01*
X154010000Y-73790000D02*
X153145000Y-72925000D01*
X146571681Y-119274681D02*
X146571681Y-119294969D01*
X153145000Y-72925000D02*
X146510448Y-72925000D01*
X146337000Y-73098448D02*
X146337000Y-119040000D01*
X146337000Y-119040000D02*
X146571681Y-119274681D01*
%TO.N,/NET_NRST*%
X158167604Y-72372500D02*
X156372396Y-70577292D01*
X171510000Y-76399500D02*
X168322590Y-76399500D01*
X147335148Y-69615148D02*
X147335148Y-53964852D01*
X156372396Y-70577292D02*
X148297292Y-70577292D01*
X164295590Y-72372500D02*
X158167604Y-72372500D01*
X168322590Y-76399500D02*
X164439360Y-72516270D01*
X147335148Y-53964852D02*
X148510000Y-52790000D01*
X148297292Y-70577292D02*
X147335148Y-69615148D01*
X164439360Y-72516270D02*
X164295590Y-72372500D01*
X167345910Y-103590000D02*
X168145910Y-102790000D01*
X168145910Y-102790000D02*
X169010000Y-102790000D01*
X163696500Y-102353500D02*
X164933000Y-103590000D01*
X164933000Y-103590000D02*
X167345910Y-103590000D01*
%TO.N,/USB_CC2_DETECT*%
X167567903Y-113470516D02*
X167387387Y-113290000D01*
X163297552Y-113290000D02*
X158157052Y-118430500D01*
X167387387Y-113290000D02*
X163297552Y-113290000D01*
X158157052Y-118430500D02*
X151845410Y-118430500D01*
%TO.N,/USB_CC1_DETECT*%
X152510000Y-119040000D02*
X158010000Y-119040000D01*
X158010000Y-119040000D02*
X163191000Y-113859000D01*
X163191000Y-113859000D02*
X166550799Y-113859000D01*
X166550799Y-113859000D02*
X166821156Y-114129357D01*
%TO.N,/DISP_RST*%
X162806000Y-95702448D02*
X163470552Y-96367000D01*
X170087000Y-96367000D02*
X170760000Y-97040000D01*
X163574529Y-90536131D02*
X162806000Y-91304660D01*
X163470552Y-96367000D02*
X170087000Y-96367000D01*
X162806000Y-91304660D02*
X162806000Y-95702448D01*
%TO.N,/UI_NRST*%
X175966180Y-102290000D02*
X176010000Y-102290000D01*
X173466180Y-104790000D02*
X175966180Y-102290000D01*
X166458500Y-104663000D02*
X166585500Y-104790000D01*
X165870409Y-84290909D02*
X165870409Y-84353500D01*
X163510000Y-103290000D02*
X164883000Y-104663000D01*
X164883000Y-104663000D02*
X166458500Y-104663000D01*
X166585500Y-104790000D02*
X173466180Y-104790000D01*
X164760000Y-83180500D02*
X165870409Y-84290909D01*
%TO.N,/UI_SWCLK*%
X176499924Y-97992372D02*
X173278552Y-94771000D01*
X176263424Y-100040000D02*
X176499924Y-99803500D01*
X157944500Y-85117000D02*
X157008195Y-86053305D01*
X173278552Y-94771000D02*
X165991000Y-94771000D01*
X165991000Y-94771000D02*
X165323500Y-94103500D01*
X157008195Y-86053305D02*
X156513946Y-86053305D01*
X165323500Y-90056590D02*
X160383910Y-85117000D01*
X165323500Y-94103500D02*
X165323500Y-90056590D01*
X160383910Y-85117000D02*
X157944500Y-85117000D01*
X176499924Y-99803500D02*
X176499924Y-97992372D01*
%TO.N,/UI_SWDIO*%
X165087000Y-85291896D02*
X164585104Y-84790000D01*
X173414000Y-94444000D02*
X166126448Y-94444000D01*
X164585104Y-84790000D02*
X157425411Y-84790000D01*
X165650500Y-93968052D02*
X165650500Y-89921142D01*
X165087000Y-89357642D02*
X165087000Y-85291896D01*
X176826924Y-100773076D02*
X176826924Y-97856924D01*
X157425411Y-84790000D02*
X157268850Y-84633439D01*
X165650500Y-89921142D02*
X165087000Y-89357642D01*
X176826924Y-97856924D02*
X173414000Y-94444000D01*
X166126448Y-94444000D02*
X165650500Y-93968052D01*
X176560000Y-101040000D02*
X176826924Y-100773076D01*
%TO.N,/UI_SCL*%
X151885000Y-89396000D02*
X148201552Y-93079448D01*
X146510000Y-128752448D02*
X146510000Y-129790000D01*
X149625000Y-129925000D02*
X150010000Y-129540000D01*
X148201552Y-116425448D02*
X148260000Y-116483896D01*
X148260000Y-127002448D02*
X146510000Y-128752448D01*
X152635000Y-119665000D02*
X159135000Y-119665000D01*
X150010000Y-129540000D02*
X150010000Y-122290000D01*
X168392586Y-118922586D02*
X170837000Y-121367000D01*
X159135000Y-119665000D02*
X159010000Y-119790000D01*
X159135000Y-119665000D02*
X159877414Y-118922586D01*
X151885000Y-88665000D02*
X151885000Y-89396000D01*
X148260000Y-116483896D02*
X148260000Y-127002448D01*
X150010000Y-122290000D02*
X152635000Y-119665000D01*
X170837000Y-121367000D02*
X170837000Y-134617000D01*
X148201552Y-93079448D02*
X148201552Y-116425448D01*
X146510000Y-129790000D02*
X146645000Y-129925000D01*
X146645000Y-129925000D02*
X149625000Y-129925000D01*
X159877414Y-118922586D02*
X168392586Y-118922586D01*
X170837000Y-134617000D02*
X172260000Y-136040000D01*
%TO.N,/UI_SDA*%
X158260000Y-120353500D02*
X159446500Y-120353500D01*
X146510000Y-131290000D02*
X148722448Y-131290000D01*
X150337000Y-129675448D02*
X150337000Y-122425448D01*
X147874552Y-116560896D02*
X147933000Y-116619344D01*
X152770448Y-119992000D02*
X157898500Y-119992000D01*
X148722448Y-131290000D02*
X150337000Y-129675448D01*
X160550414Y-119249586D02*
X168257138Y-119249586D01*
X168257138Y-119249586D02*
X170510000Y-121502448D01*
X158023500Y-120117000D02*
X158260000Y-120353500D01*
X147933000Y-116619344D02*
X147933000Y-126867000D01*
X147933000Y-126867000D02*
X146010000Y-128790000D01*
X157898500Y-119992000D02*
X158260000Y-120353500D01*
X151010000Y-88540000D02*
X151010000Y-89808552D01*
X146010000Y-128790000D02*
X146010000Y-130790000D01*
X150337000Y-122425448D02*
X152770448Y-119992000D01*
X151010000Y-89808552D02*
X147874552Y-92944000D01*
X170510000Y-121502448D02*
X170510000Y-135540000D01*
X147874552Y-92944000D02*
X147874552Y-116560896D01*
X170510000Y-135540000D02*
X172260000Y-137290000D01*
X146010000Y-130790000D02*
X146510000Y-131290000D01*
X159446500Y-120353500D02*
X160550414Y-119249586D01*
%TO.N,/UI_TX2_NET*%
X173684896Y-93790000D02*
X177480924Y-97586028D01*
X148643292Y-69923292D02*
X148337000Y-69617000D01*
X166397344Y-93790000D02*
X173684896Y-93790000D01*
X163260000Y-71540000D02*
X162773570Y-71053570D01*
X165741000Y-85021000D02*
X165741000Y-89086746D01*
X166304500Y-93697156D02*
X166397344Y-93790000D01*
X159933000Y-83713000D02*
X164433000Y-83713000D01*
X164433000Y-83713000D02*
X165741000Y-85021000D01*
X162773570Y-71053570D02*
X161746430Y-71053570D01*
X148337000Y-62976363D02*
X148573500Y-62739863D01*
X156643292Y-69923292D02*
X148643292Y-69923292D01*
X161746430Y-71053570D02*
X161081500Y-71718500D01*
X165741000Y-89086746D02*
X166304500Y-89650246D01*
X177480924Y-122069076D02*
X176510000Y-123040000D01*
X148337000Y-69617000D02*
X148337000Y-62976363D01*
X166304500Y-89650246D02*
X166304500Y-93697156D01*
X158438500Y-71718500D02*
X156643292Y-69923292D01*
X159510000Y-83290000D02*
X159933000Y-83713000D01*
X176510000Y-123040000D02*
X176010000Y-123040000D01*
X161081500Y-71718500D02*
X158438500Y-71718500D01*
X177480924Y-97586028D02*
X177480924Y-122069076D01*
%TO.N,/UI_TX1_MGMT*%
X173856000Y-118636000D02*
X173856000Y-122886000D01*
X154760000Y-116893000D02*
X156444552Y-116893000D01*
X168119113Y-112899113D02*
X173856000Y-118636000D01*
X160438439Y-112899113D02*
X168119113Y-112899113D01*
X173856000Y-122886000D02*
X173702000Y-123040000D01*
X173702000Y-123040000D02*
X172708500Y-123040000D01*
X156444552Y-116893000D02*
X160438439Y-112899113D01*
%TO.N,/UI_RX2_NET*%
X162260000Y-71617070D02*
X161831570Y-72045500D01*
X158648500Y-83540000D02*
X159148500Y-84040000D01*
X159148500Y-84040000D02*
X164297552Y-84040000D01*
X148010000Y-69790000D02*
X148010000Y-62040000D01*
X176260000Y-121790000D02*
X176010000Y-121790000D01*
X158303052Y-72045500D02*
X156507844Y-70250292D01*
X165414000Y-85156448D02*
X165414000Y-89222194D01*
X161831570Y-72045500D02*
X158303052Y-72045500D01*
X177153924Y-120896076D02*
X176260000Y-121790000D01*
X148010000Y-62040000D02*
X148260000Y-61790000D01*
X173549448Y-94117000D02*
X177153924Y-97721476D01*
X148470292Y-70250292D02*
X148010000Y-69790000D01*
X156507844Y-70250292D02*
X148470292Y-70250292D01*
X177153924Y-97721476D02*
X177153924Y-120896076D01*
X165977500Y-93832604D02*
X166261896Y-94117000D01*
X165414000Y-89222194D02*
X165977500Y-89785694D01*
X165977500Y-89785694D02*
X165977500Y-93832604D01*
X166261896Y-94117000D02*
X173549448Y-94117000D01*
X164297552Y-84040000D02*
X165414000Y-85156448D01*
%TO.N,/UI_RX1_MGMT*%
X154773500Y-116026500D02*
X156848604Y-116026500D01*
X174183000Y-118500552D02*
X174183000Y-123021448D01*
X168254561Y-112572113D02*
X174183000Y-118500552D01*
X156848604Y-116026500D02*
X160302991Y-112572113D01*
X160302991Y-112572113D02*
X168254561Y-112572113D01*
X172914448Y-124290000D02*
X172708500Y-124290000D01*
X154760000Y-116040000D02*
X154773500Y-116026500D01*
X174183000Y-123021448D02*
X172914448Y-124290000D01*
%TO.N,/UI_LED_B*%
X174010000Y-71813315D02*
X174010000Y-77040000D01*
X173760000Y-77290000D02*
X163260000Y-77290000D01*
X173465696Y-66084304D02*
X173465696Y-71269011D01*
X173465696Y-71269011D02*
X174010000Y-71813315D01*
X176010000Y-63040000D02*
X176010000Y-63540000D01*
X176010000Y-63540000D02*
X173465696Y-66084304D01*
X174010000Y-77040000D02*
X173760000Y-77290000D01*
%TO.N,/UI_LED_G*%
X160260000Y-79290000D02*
X156760000Y-82790000D01*
X164510000Y-76726500D02*
X164746500Y-76963000D01*
X173683000Y-76904552D02*
X173683000Y-71948763D01*
X173138696Y-65948856D02*
X175010000Y-64077552D01*
X164746500Y-76963000D02*
X173624552Y-76963000D01*
X173683000Y-71948763D02*
X173138696Y-71404459D01*
X163290606Y-79290000D02*
X160260000Y-79290000D01*
X173624552Y-76963000D02*
X173683000Y-76904552D01*
X173138696Y-71404459D02*
X173138696Y-65948856D01*
X164031434Y-78549172D02*
X163290606Y-79290000D01*
X175010000Y-64077552D02*
X175010000Y-63040000D01*
%TO.N,/UI_LED_R*%
X172573430Y-70726570D02*
X159220930Y-70726570D01*
X172811696Y-65813408D02*
X172811696Y-70488304D01*
X174010000Y-64615104D02*
X172811696Y-65813408D01*
X172811696Y-70488304D02*
X172573430Y-70726570D01*
X159220930Y-70726570D02*
X158792500Y-71155000D01*
X174010000Y-63040000D02*
X174010000Y-64615104D01*
%TO.N,/UI_DEBUG_1*%
X156712000Y-73748342D02*
X156712000Y-78338000D01*
X156105976Y-78944024D02*
X155773174Y-78944024D01*
X156712000Y-78338000D02*
X156105976Y-78944024D01*
%TO.N,/UI_DEBUG_2*%
X158148500Y-74928500D02*
X158148500Y-77363948D01*
X157510000Y-74290000D02*
X158148500Y-74928500D01*
X156196500Y-79315948D02*
X156196500Y-80516545D01*
X158148500Y-77363948D02*
X156196500Y-79315948D01*
%TO.N,/UI_STAT*%
X157149395Y-100666531D02*
X157149395Y-108400605D01*
X153022954Y-86290000D02*
X153586454Y-86853500D01*
X153586454Y-86853500D02*
X153586454Y-97103590D01*
X153586454Y-97103590D02*
X157149395Y-100666531D01*
X157149395Y-108400605D02*
X156260000Y-109290000D01*
%TD*%
%TA.AperFunction,Conductor*%
%TO.N,GND*%
G36*
X164453039Y-114450685D02*
G01*
X164498794Y-114503489D01*
X164510000Y-114555000D01*
X164510000Y-115095246D01*
X164490315Y-115162285D01*
X164473681Y-115182927D01*
X164373889Y-115282718D01*
X164276958Y-115436982D01*
X164216782Y-115608953D01*
X164216781Y-115608958D01*
X164196384Y-115789996D01*
X164196384Y-115790003D01*
X164216781Y-115971041D01*
X164216782Y-115971046D01*
X164276958Y-116143017D01*
X164373889Y-116297281D01*
X164473681Y-116397073D01*
X164507166Y-116458396D01*
X164510000Y-116484754D01*
X164510000Y-117572586D01*
X164490315Y-117639625D01*
X164437511Y-117685380D01*
X164386000Y-117696586D01*
X163392236Y-117696586D01*
X163325197Y-117676901D01*
X163279442Y-117624097D01*
X163269498Y-117554939D01*
X163298523Y-117491383D01*
X163326262Y-117467593D01*
X163392281Y-117426111D01*
X163521111Y-117297281D01*
X163618043Y-117143015D01*
X163678217Y-116971047D01*
X163678218Y-116971041D01*
X163698616Y-116790003D01*
X163698616Y-116789996D01*
X163678218Y-116608958D01*
X163678217Y-116608953D01*
X163618043Y-116436985D01*
X163521111Y-116282719D01*
X163392281Y-116153889D01*
X163333332Y-116116849D01*
X163238017Y-116056958D01*
X163238016Y-116056957D01*
X163238015Y-116056957D01*
X163183693Y-116037949D01*
X163066046Y-115996782D01*
X163066041Y-115996781D01*
X162885004Y-115976384D01*
X162884996Y-115976384D01*
X162703958Y-115996781D01*
X162703953Y-115996782D01*
X162531982Y-116056958D01*
X162377718Y-116153889D01*
X162248889Y-116282718D01*
X162151958Y-116436982D01*
X162091782Y-116608953D01*
X162091781Y-116608958D01*
X162071384Y-116789996D01*
X162071384Y-116790003D01*
X162091781Y-116971041D01*
X162091782Y-116971046D01*
X162151958Y-117143017D01*
X162248889Y-117297281D01*
X162377719Y-117426111D01*
X162443736Y-117467592D01*
X162490027Y-117519927D01*
X162500675Y-117588980D01*
X162472300Y-117652829D01*
X162413910Y-117691201D01*
X162377764Y-117696586D01*
X160897213Y-117696586D01*
X160830174Y-117676901D01*
X160792221Y-117638560D01*
X160720744Y-117524805D01*
X160615115Y-117419176D01*
X160581630Y-117357853D01*
X160586614Y-117288161D01*
X160615115Y-117243814D01*
X161993207Y-115865723D01*
X163391611Y-114467319D01*
X163452934Y-114433834D01*
X163479292Y-114431000D01*
X164386000Y-114431000D01*
X164453039Y-114450685D01*
G37*
%TD.AperFunction*%
%TA.AperFunction,Conductor*%
G36*
X156520434Y-103309685D02*
G01*
X156566189Y-103362489D01*
X156577395Y-103414000D01*
X156577395Y-108112312D01*
X156557710Y-108179351D01*
X156541076Y-108199993D01*
X156295961Y-108445107D01*
X156234638Y-108478592D01*
X156222164Y-108480646D01*
X156078957Y-108496781D01*
X156078953Y-108496782D01*
X155906982Y-108556958D01*
X155752718Y-108653889D01*
X155623889Y-108782718D01*
X155526958Y-108936982D01*
X155466782Y-109108953D01*
X155466781Y-109108958D01*
X155446384Y-109289996D01*
X155446384Y-109290003D01*
X155466781Y-109471041D01*
X155466782Y-109471046D01*
X155507949Y-109588693D01*
X155526957Y-109643015D01*
X155623889Y-109797281D01*
X155752719Y-109926111D01*
X155906985Y-110023043D01*
X156078953Y-110083217D01*
X156078958Y-110083218D01*
X156259996Y-110103616D01*
X156260000Y-110103616D01*
X156260004Y-110103616D01*
X156441041Y-110083218D01*
X156441044Y-110083217D01*
X156441047Y-110083217D01*
X156613015Y-110023043D01*
X156714423Y-109959323D01*
X156781659Y-109940323D01*
X156848494Y-109960690D01*
X156893708Y-110013958D01*
X156904395Y-110064317D01*
X156904395Y-110524760D01*
X156887783Y-110586759D01*
X156853981Y-110645305D01*
X156853981Y-110645306D01*
X156815000Y-110790785D01*
X156815000Y-110790787D01*
X156815000Y-111103746D01*
X156795315Y-111170785D01*
X156778681Y-111191427D01*
X156750889Y-111219218D01*
X156653958Y-111373482D01*
X156593782Y-111545453D01*
X156593781Y-111545457D01*
X156590185Y-111577377D01*
X156563117Y-111641791D01*
X156505522Y-111681345D01*
X156435685Y-111683482D01*
X156375779Y-111647523D01*
X156344824Y-111584884D01*
X156343745Y-111577374D01*
X156334287Y-111493427D01*
X156334286Y-111493422D01*
X156274112Y-111321454D01*
X156177180Y-111167188D01*
X156048350Y-111038358D01*
X155894086Y-110941427D01*
X155894085Y-110941426D01*
X155894084Y-110941426D01*
X155839762Y-110922418D01*
X155722115Y-110881251D01*
X155722110Y-110881250D01*
X155541073Y-110860853D01*
X155541065Y-110860853D01*
X155360027Y-110881250D01*
X155360022Y-110881251D01*
X155188051Y-110941427D01*
X155033787Y-111038358D01*
X155005996Y-111066150D01*
X154944673Y-111099635D01*
X154918315Y-111102469D01*
X152550226Y-111102469D01*
X152404747Y-111141450D01*
X152331646Y-111183655D01*
X152331645Y-111183655D01*
X152274321Y-111216750D01*
X152274313Y-111216756D01*
X151802288Y-111688781D01*
X151802284Y-111688787D01*
X151726982Y-111819212D01*
X151726981Y-111819216D01*
X151688000Y-111964695D01*
X151688000Y-111964697D01*
X151688000Y-114865306D01*
X151701686Y-114916384D01*
X151705131Y-114962359D01*
X151696384Y-115039996D01*
X151696384Y-115040003D01*
X151716781Y-115221041D01*
X151716782Y-115221046D01*
X151776958Y-115393017D01*
X151813810Y-115451666D01*
X151873889Y-115547281D01*
X152002719Y-115676111D01*
X152156985Y-115773043D01*
X152247210Y-115804614D01*
X152305473Y-115825001D01*
X152362250Y-115865723D01*
X152387997Y-115930676D01*
X152374541Y-115999237D01*
X152352202Y-116029722D01*
X152200242Y-116181682D01*
X152138921Y-116215166D01*
X152112563Y-116218000D01*
X150340875Y-116218000D01*
X150195395Y-116256980D01*
X150064964Y-116332286D01*
X150064961Y-116332288D01*
X149043681Y-117353568D01*
X148982358Y-117387053D01*
X148912666Y-117382069D01*
X148856733Y-117340197D01*
X148832316Y-117274733D01*
X148832000Y-117265887D01*
X148832000Y-116408593D01*
X148832000Y-116408591D01*
X148793019Y-116263112D01*
X148790163Y-116258165D01*
X148773552Y-116196168D01*
X148773552Y-107539996D01*
X152446384Y-107539996D01*
X152446384Y-107540003D01*
X152466781Y-107721041D01*
X152466782Y-107721046D01*
X152488363Y-107782719D01*
X152516028Y-107861783D01*
X152526958Y-107893017D01*
X152554583Y-107936982D01*
X152623889Y-108047281D01*
X152752719Y-108176111D01*
X152906985Y-108273043D01*
X153078953Y-108333217D01*
X153078958Y-108333218D01*
X153259996Y-108353616D01*
X153260000Y-108353616D01*
X153260004Y-108353616D01*
X153441041Y-108333218D01*
X153441044Y-108333217D01*
X153441047Y-108333217D01*
X153613015Y-108273043D01*
X153767281Y-108176111D01*
X153896111Y-108047281D01*
X153993043Y-107893015D01*
X154053217Y-107721047D01*
X154060784Y-107653889D01*
X154073616Y-107540003D01*
X154073616Y-107539996D01*
X154053218Y-107358958D01*
X154053217Y-107358953D01*
X153993043Y-107186985D01*
X153896111Y-107032719D01*
X153767281Y-106903889D01*
X153686900Y-106853382D01*
X153613017Y-106806958D01*
X153613016Y-106806957D01*
X153613015Y-106806957D01*
X153558693Y-106787949D01*
X153441046Y-106746782D01*
X153441041Y-106746781D01*
X153260004Y-106726384D01*
X153259996Y-106726384D01*
X153078958Y-106746781D01*
X153078953Y-106746782D01*
X152906982Y-106806958D01*
X152752718Y-106903889D01*
X152623889Y-107032718D01*
X152526958Y-107186982D01*
X152466782Y-107358953D01*
X152466781Y-107358958D01*
X152446384Y-107539996D01*
X148773552Y-107539996D01*
X148773552Y-105388173D01*
X153598207Y-105388173D01*
X153598207Y-105388180D01*
X153618604Y-105569218D01*
X153618605Y-105569223D01*
X153639698Y-105629502D01*
X153666886Y-105707202D01*
X153678781Y-105741194D01*
X153709445Y-105789995D01*
X153775712Y-105895458D01*
X153904542Y-106024288D01*
X154058808Y-106121220D01*
X154230776Y-106181394D01*
X154230781Y-106181395D01*
X154411819Y-106201793D01*
X154411823Y-106201793D01*
X154411827Y-106201793D01*
X154592864Y-106181395D01*
X154592867Y-106181394D01*
X154592870Y-106181394D01*
X154764838Y-106121220D01*
X154919104Y-106024288D01*
X155047934Y-105895458D01*
X155144866Y-105741192D01*
X155205040Y-105569224D01*
X155213661Y-105492710D01*
X155225439Y-105388180D01*
X155225439Y-105388173D01*
X155205041Y-105207135D01*
X155205040Y-105207130D01*
X155144866Y-105035162D01*
X155047934Y-104880896D01*
X154919104Y-104752066D01*
X154764838Y-104655134D01*
X154710516Y-104636126D01*
X154592869Y-104594959D01*
X154592864Y-104594958D01*
X154411827Y-104574561D01*
X154411819Y-104574561D01*
X154230781Y-104594958D01*
X154230776Y-104594959D01*
X154058805Y-104655135D01*
X153904541Y-104752066D01*
X153775712Y-104880895D01*
X153678781Y-105035159D01*
X153618605Y-105207130D01*
X153618604Y-105207135D01*
X153598207Y-105388173D01*
X148773552Y-105388173D01*
X148773552Y-103414000D01*
X148793237Y-103346961D01*
X148846041Y-103301206D01*
X148897552Y-103290000D01*
X156453395Y-103290000D01*
X156520434Y-103309685D01*
G37*
%TD.AperFunction*%
%TA.AperFunction,Conductor*%
G36*
X162652610Y-103309685D02*
G01*
X162698365Y-103362489D01*
X162708791Y-103400117D01*
X162716781Y-103471042D01*
X162716782Y-103471046D01*
X162776958Y-103643017D01*
X162827860Y-103724028D01*
X162846860Y-103791265D01*
X162827860Y-103855972D01*
X162797444Y-103904379D01*
X162745109Y-103950670D01*
X162678567Y-103961627D01*
X162540335Y-103946053D01*
X162540327Y-103946053D01*
X162359289Y-103966450D01*
X162359284Y-103966451D01*
X162187313Y-104026627D01*
X162033049Y-104123558D01*
X161904220Y-104252387D01*
X161807289Y-104406651D01*
X161747113Y-104578622D01*
X161747112Y-104578627D01*
X161726715Y-104759665D01*
X161726715Y-104759672D01*
X161747112Y-104940710D01*
X161747113Y-104940715D01*
X161807289Y-105112686D01*
X161866636Y-105207135D01*
X161904220Y-105266950D01*
X162033050Y-105395780D01*
X162187316Y-105492712D01*
X162342163Y-105546895D01*
X162359284Y-105552886D01*
X162359289Y-105552887D01*
X162540327Y-105573285D01*
X162540331Y-105573285D01*
X162540333Y-105573285D01*
X162568608Y-105570099D01*
X162637430Y-105582153D01*
X162688809Y-105629502D01*
X162706434Y-105697112D01*
X162705712Y-105707202D01*
X162696384Y-105789995D01*
X162696384Y-105790003D01*
X162716781Y-105971041D01*
X162716782Y-105971046D01*
X162746150Y-106054974D01*
X162776957Y-106143015D01*
X162873889Y-106297281D01*
X163002719Y-106426111D01*
X163156985Y-106523043D01*
X163328953Y-106583217D01*
X163328958Y-106583218D01*
X163509996Y-106603616D01*
X163510000Y-106603616D01*
X163510004Y-106603616D01*
X163691041Y-106583218D01*
X163691044Y-106583217D01*
X163691047Y-106583217D01*
X163863015Y-106523043D01*
X164005288Y-106433646D01*
X164072523Y-106414647D01*
X164139359Y-106435014D01*
X164158940Y-106450960D01*
X164473681Y-106765701D01*
X164507166Y-106827024D01*
X164510000Y-106853382D01*
X164510000Y-107844000D01*
X164490315Y-107911039D01*
X164437511Y-107956794D01*
X164386000Y-107968000D01*
X163798292Y-107968000D01*
X163731253Y-107948315D01*
X163710611Y-107931681D01*
X161290411Y-105511481D01*
X161256926Y-105450158D01*
X161254092Y-105423800D01*
X161254092Y-103414000D01*
X161273777Y-103346961D01*
X161326581Y-103301206D01*
X161378092Y-103290000D01*
X162585571Y-103290000D01*
X162652610Y-103309685D01*
G37*
%TD.AperFunction*%
%TD*%
%TA.AperFunction,Conductor*%
%TO.N,GND*%
G36*
X141453039Y-136309685D02*
G01*
X141498794Y-136362489D01*
X141510000Y-136414000D01*
X141510000Y-144975500D01*
X141490315Y-145042539D01*
X141437511Y-145088294D01*
X141386000Y-145099500D01*
X129010000Y-145099500D01*
X129010000Y-142289997D01*
X129746693Y-142289997D01*
X129746693Y-142290000D01*
X129765885Y-142509371D01*
X129822880Y-142722076D01*
X129915944Y-142921654D01*
X130042251Y-143102038D01*
X130197962Y-143257749D01*
X130378346Y-143384056D01*
X130577924Y-143477120D01*
X130790629Y-143534115D01*
X130947322Y-143547823D01*
X131009998Y-143553307D01*
X131010000Y-143553307D01*
X131010002Y-143553307D01*
X131064842Y-143548509D01*
X131229371Y-143534115D01*
X131442076Y-143477120D01*
X131641654Y-143384056D01*
X131822038Y-143257749D01*
X131977749Y-143102038D01*
X132104056Y-142921654D01*
X132197120Y-142722076D01*
X132254115Y-142509371D01*
X132273307Y-142290000D01*
X132254115Y-142070629D01*
X132197120Y-141857924D01*
X132104056Y-141658347D01*
X132104054Y-141658344D01*
X132104053Y-141658342D01*
X132040902Y-141568154D01*
X131977749Y-141477962D01*
X131822038Y-141322251D01*
X131641654Y-141195944D01*
X131641650Y-141195942D01*
X131442081Y-141102882D01*
X131442079Y-141102881D01*
X131442076Y-141102880D01*
X131290777Y-141062339D01*
X131229372Y-141045885D01*
X131229365Y-141045884D01*
X131010002Y-141026693D01*
X131009998Y-141026693D01*
X130790634Y-141045884D01*
X130790627Y-141045885D01*
X130577920Y-141102881D01*
X130378346Y-141195944D01*
X130378342Y-141195946D01*
X130197967Y-141322247D01*
X130197960Y-141322252D01*
X130042252Y-141477960D01*
X130042247Y-141477967D01*
X129915946Y-141658342D01*
X129915944Y-141658346D01*
X129822881Y-141857920D01*
X129765885Y-142070627D01*
X129765884Y-142070634D01*
X129746693Y-142289997D01*
X129010000Y-142289997D01*
X129010000Y-136290000D01*
X129805454Y-136290000D01*
X141386000Y-136290000D01*
X141453039Y-136309685D01*
G37*
%TD.AperFunction*%
%TD*%
%TA.AperFunction,Conductor*%
%TO.N,GNDA*%
G36*
X163064160Y-121309006D02*
G01*
X163107985Y-121336543D01*
X163279953Y-121396717D01*
X163279958Y-121396718D01*
X163460996Y-121417116D01*
X163461000Y-121417116D01*
X163461004Y-121417116D01*
X163642041Y-121396718D01*
X163642044Y-121396717D01*
X163642047Y-121396717D01*
X163814015Y-121336543D01*
X163857840Y-121309006D01*
X163923812Y-121290000D01*
X169437260Y-121290000D01*
X169504299Y-121309685D01*
X169524941Y-121326319D01*
X169901681Y-121703059D01*
X169935166Y-121764382D01*
X169938000Y-121790740D01*
X169938000Y-135615305D01*
X169976981Y-135760784D01*
X170035851Y-135862749D01*
X170052285Y-135891214D01*
X170052287Y-135891217D01*
X170226796Y-136065726D01*
X170260281Y-136127049D01*
X170263115Y-136153407D01*
X170263115Y-144975500D01*
X170243430Y-145042539D01*
X170190626Y-145088294D01*
X170139115Y-145099500D01*
X152887115Y-145099500D01*
X152820076Y-145079815D01*
X152774321Y-145027011D01*
X152763115Y-144975500D01*
X152763115Y-143046379D01*
X162309500Y-143046379D01*
X162309500Y-143233620D01*
X162346025Y-143417243D01*
X162346027Y-143417251D01*
X162417676Y-143590228D01*
X162417681Y-143590237D01*
X162521697Y-143745907D01*
X162521700Y-143745911D01*
X162654088Y-143878299D01*
X162654092Y-143878302D01*
X162809762Y-143982318D01*
X162809768Y-143982321D01*
X162809769Y-143982322D01*
X162982749Y-144053973D01*
X163166379Y-144090499D01*
X163166383Y-144090500D01*
X163166384Y-144090500D01*
X163353617Y-144090500D01*
X163353618Y-144090499D01*
X163537251Y-144053973D01*
X163710231Y-143982322D01*
X163865908Y-143878302D01*
X163998302Y-143745908D01*
X164102322Y-143590231D01*
X164173973Y-143417251D01*
X164210500Y-143233616D01*
X164210500Y-143046384D01*
X164173973Y-142862749D01*
X164102322Y-142689769D01*
X164102321Y-142689768D01*
X164102318Y-142689762D01*
X163998302Y-142534092D01*
X163998299Y-142534088D01*
X163865911Y-142401700D01*
X163865907Y-142401697D01*
X163710237Y-142297681D01*
X163710228Y-142297676D01*
X163537251Y-142226027D01*
X163537243Y-142226025D01*
X163353620Y-142189500D01*
X163353616Y-142189500D01*
X163166384Y-142189500D01*
X163166379Y-142189500D01*
X162982756Y-142226025D01*
X162982748Y-142226027D01*
X162809771Y-142297676D01*
X162809762Y-142297681D01*
X162654092Y-142401697D01*
X162654088Y-142401700D01*
X162521700Y-142534088D01*
X162521697Y-142534092D01*
X162417681Y-142689762D01*
X162417676Y-142689771D01*
X162346027Y-142862748D01*
X162346025Y-142862756D01*
X162309500Y-143046379D01*
X152763115Y-143046379D01*
X152763115Y-136046379D01*
X162309500Y-136046379D01*
X162309500Y-136233620D01*
X162346025Y-136417243D01*
X162346027Y-136417251D01*
X162417676Y-136590228D01*
X162417681Y-136590237D01*
X162521697Y-136745907D01*
X162521700Y-136745911D01*
X162654088Y-136878299D01*
X162654092Y-136878302D01*
X162809762Y-136982318D01*
X162809768Y-136982321D01*
X162809769Y-136982322D01*
X162982749Y-137053973D01*
X163166379Y-137090499D01*
X163166383Y-137090500D01*
X163166384Y-137090500D01*
X163353617Y-137090500D01*
X163353618Y-137090499D01*
X163537251Y-137053973D01*
X163710231Y-136982322D01*
X163865908Y-136878302D01*
X163998302Y-136745908D01*
X164102322Y-136590231D01*
X164173973Y-136417251D01*
X164210500Y-136233616D01*
X164210500Y-136046384D01*
X164173973Y-135862749D01*
X164102322Y-135689769D01*
X164102321Y-135689768D01*
X164102318Y-135689762D01*
X163998302Y-135534092D01*
X163998299Y-135534088D01*
X163865911Y-135401700D01*
X163865907Y-135401697D01*
X163710237Y-135297681D01*
X163710228Y-135297676D01*
X163537251Y-135226027D01*
X163537243Y-135226025D01*
X163353620Y-135189500D01*
X163353616Y-135189500D01*
X163166384Y-135189500D01*
X163166379Y-135189500D01*
X162982756Y-135226025D01*
X162982748Y-135226027D01*
X162809771Y-135297676D01*
X162809762Y-135297681D01*
X162654092Y-135401697D01*
X162654088Y-135401700D01*
X162521700Y-135534088D01*
X162521697Y-135534092D01*
X162417681Y-135689762D01*
X162417676Y-135689771D01*
X162346028Y-135862746D01*
X162346027Y-135862749D01*
X162309500Y-136046379D01*
X152763115Y-136046379D01*
X152763115Y-130159996D01*
X160196384Y-130159996D01*
X160196384Y-130160003D01*
X160216781Y-130341041D01*
X160216782Y-130341046D01*
X160232047Y-130384670D01*
X160276957Y-130513015D01*
X160373889Y-130667281D01*
X160502719Y-130796111D01*
X160656985Y-130893043D01*
X160828953Y-130953217D01*
X160828958Y-130953218D01*
X161009996Y-130973616D01*
X161010000Y-130973616D01*
X161010004Y-130973616D01*
X161191041Y-130953218D01*
X161191044Y-130953217D01*
X161191047Y-130953217D01*
X161363015Y-130893043D01*
X161517281Y-130796111D01*
X161646111Y-130667281D01*
X161743043Y-130513015D01*
X161787954Y-130384666D01*
X166101714Y-130384666D01*
X166101714Y-130384673D01*
X166122111Y-130565711D01*
X166122112Y-130565716D01*
X166182288Y-130737687D01*
X166279219Y-130891951D01*
X166408049Y-131020781D01*
X166562315Y-131117713D01*
X166734283Y-131177887D01*
X166734288Y-131177888D01*
X166915326Y-131198286D01*
X166915330Y-131198286D01*
X166915334Y-131198286D01*
X167096371Y-131177888D01*
X167096374Y-131177887D01*
X167096377Y-131177887D01*
X167268345Y-131117713D01*
X167422611Y-131020781D01*
X167551441Y-130891951D01*
X167648373Y-130737685D01*
X167708547Y-130565717D01*
X167728946Y-130384670D01*
X167724030Y-130341041D01*
X167708548Y-130203628D01*
X167708547Y-130203623D01*
X167693284Y-130160003D01*
X167648373Y-130031655D01*
X167551441Y-129877389D01*
X167422611Y-129748559D01*
X167270083Y-129652719D01*
X167268347Y-129651628D01*
X167268346Y-129651627D01*
X167268345Y-129651627D01*
X167214023Y-129632619D01*
X167096376Y-129591452D01*
X167096371Y-129591451D01*
X166915334Y-129571054D01*
X166915326Y-129571054D01*
X166734288Y-129591451D01*
X166734283Y-129591452D01*
X166562312Y-129651628D01*
X166408048Y-129748559D01*
X166279219Y-129877388D01*
X166182288Y-130031652D01*
X166122112Y-130203623D01*
X166122111Y-130203628D01*
X166101714Y-130384666D01*
X161787954Y-130384666D01*
X161803217Y-130341047D01*
X161803218Y-130341041D01*
X161823616Y-130160003D01*
X161823616Y-130159996D01*
X161803218Y-129978958D01*
X161803217Y-129978953D01*
X161767678Y-129877389D01*
X161743043Y-129806985D01*
X161646111Y-129652719D01*
X161517281Y-129523889D01*
X161363015Y-129426957D01*
X161308693Y-129407949D01*
X161191046Y-129366782D01*
X161191041Y-129366781D01*
X161010004Y-129346384D01*
X161009996Y-129346384D01*
X160828958Y-129366781D01*
X160828953Y-129366782D01*
X160656982Y-129426958D01*
X160502718Y-129523889D01*
X160373889Y-129652718D01*
X160276958Y-129806982D01*
X160216782Y-129978953D01*
X160216781Y-129978958D01*
X160196384Y-130159996D01*
X152763115Y-130159996D01*
X152763115Y-128039996D01*
X157696384Y-128039996D01*
X157696384Y-128040003D01*
X157716781Y-128221041D01*
X157716782Y-128221046D01*
X157757949Y-128338693D01*
X157776957Y-128393015D01*
X157873889Y-128547281D01*
X158002719Y-128676111D01*
X158156985Y-128773043D01*
X158328953Y-128833217D01*
X158328958Y-128833218D01*
X158509996Y-128853616D01*
X158510000Y-128853616D01*
X158510004Y-128853616D01*
X158691041Y-128833218D01*
X158691044Y-128833217D01*
X158691047Y-128833217D01*
X158863015Y-128773043D01*
X159017281Y-128676111D01*
X159146111Y-128547281D01*
X159243043Y-128393015D01*
X159303217Y-128221047D01*
X159303218Y-128221041D01*
X159323616Y-128040003D01*
X159323616Y-128039996D01*
X159315759Y-127970267D01*
X162320784Y-127970267D01*
X162479553Y-128025823D01*
X162479558Y-128025824D01*
X162647496Y-128044746D01*
X162647504Y-128044746D01*
X162815438Y-128025824D01*
X162815443Y-128025823D01*
X162974213Y-127970267D01*
X162974214Y-127970267D01*
X163320784Y-127970267D01*
X163479553Y-128025823D01*
X163479558Y-128025824D01*
X163647496Y-128044746D01*
X163647504Y-128044746D01*
X163815438Y-128025824D01*
X163815443Y-128025823D01*
X163974213Y-127970267D01*
X163974214Y-127970267D01*
X164320784Y-127970267D01*
X164479553Y-128025823D01*
X164479558Y-128025824D01*
X164647496Y-128044746D01*
X164647504Y-128044746D01*
X164815438Y-128025824D01*
X164815443Y-128025823D01*
X164974213Y-127970267D01*
X164974214Y-127970267D01*
X164647501Y-127643554D01*
X164647500Y-127643554D01*
X164320784Y-127970267D01*
X163974214Y-127970267D01*
X163647501Y-127643554D01*
X163647500Y-127643554D01*
X163320784Y-127970267D01*
X162974214Y-127970267D01*
X162647501Y-127643554D01*
X162647500Y-127643554D01*
X162320784Y-127970267D01*
X159315759Y-127970267D01*
X159303218Y-127858958D01*
X159303217Y-127858953D01*
X159243043Y-127686985D01*
X159146111Y-127532719D01*
X159017281Y-127403889D01*
X158926178Y-127346645D01*
X158863017Y-127306958D01*
X158863016Y-127306957D01*
X158863015Y-127306957D01*
X158814543Y-127289996D01*
X161892754Y-127289996D01*
X161892754Y-127290003D01*
X161911676Y-127457944D01*
X161967231Y-127616713D01*
X162293946Y-127290000D01*
X162274055Y-127270109D01*
X162547500Y-127270109D01*
X162547500Y-127309891D01*
X162562724Y-127346645D01*
X162590855Y-127374776D01*
X162627609Y-127390000D01*
X162667391Y-127390000D01*
X162704145Y-127374776D01*
X162732276Y-127346645D01*
X162747500Y-127309891D01*
X162747500Y-127290000D01*
X163001054Y-127290000D01*
X163147500Y-127436446D01*
X163293946Y-127290000D01*
X163274055Y-127270109D01*
X163547500Y-127270109D01*
X163547500Y-127309891D01*
X163562724Y-127346645D01*
X163590855Y-127374776D01*
X163627609Y-127390000D01*
X163667391Y-127390000D01*
X163704145Y-127374776D01*
X163732276Y-127346645D01*
X163747500Y-127309891D01*
X163747500Y-127290000D01*
X164001054Y-127290000D01*
X164147500Y-127436446D01*
X164293946Y-127290000D01*
X164274055Y-127270109D01*
X164547500Y-127270109D01*
X164547500Y-127309891D01*
X164562724Y-127346645D01*
X164590855Y-127374776D01*
X164627609Y-127390000D01*
X164667391Y-127390000D01*
X164704145Y-127374776D01*
X164732276Y-127346645D01*
X164747500Y-127309891D01*
X164747500Y-127289999D01*
X165001054Y-127289999D01*
X165001054Y-127290001D01*
X165327767Y-127616714D01*
X165327767Y-127616713D01*
X165383323Y-127457943D01*
X165383324Y-127457938D01*
X165402246Y-127290003D01*
X165402246Y-127289996D01*
X165383324Y-127122058D01*
X165383323Y-127122053D01*
X165327767Y-126963285D01*
X165327767Y-126963284D01*
X165001054Y-127289999D01*
X164747500Y-127289999D01*
X164747500Y-127270109D01*
X164732276Y-127233355D01*
X164704145Y-127205224D01*
X164667391Y-127190000D01*
X164627609Y-127190000D01*
X164590855Y-127205224D01*
X164562724Y-127233355D01*
X164547500Y-127270109D01*
X164274055Y-127270109D01*
X164147500Y-127143554D01*
X164001054Y-127290000D01*
X163747500Y-127290000D01*
X163747500Y-127270109D01*
X163732276Y-127233355D01*
X163704145Y-127205224D01*
X163667391Y-127190000D01*
X163627609Y-127190000D01*
X163590855Y-127205224D01*
X163562724Y-127233355D01*
X163547500Y-127270109D01*
X163274055Y-127270109D01*
X163147500Y-127143554D01*
X163001054Y-127290000D01*
X162747500Y-127290000D01*
X162747500Y-127270109D01*
X162732276Y-127233355D01*
X162704145Y-127205224D01*
X162667391Y-127190000D01*
X162627609Y-127190000D01*
X162590855Y-127205224D01*
X162562724Y-127233355D01*
X162547500Y-127270109D01*
X162274055Y-127270109D01*
X161967231Y-126963285D01*
X161911676Y-127122055D01*
X161892754Y-127289996D01*
X158814543Y-127289996D01*
X158808693Y-127287949D01*
X158691046Y-127246782D01*
X158691041Y-127246781D01*
X158510004Y-127226384D01*
X158509996Y-127226384D01*
X158328958Y-127246781D01*
X158328953Y-127246782D01*
X158156982Y-127306958D01*
X158002718Y-127403889D01*
X157873889Y-127532718D01*
X157776958Y-127686982D01*
X157716782Y-127858953D01*
X157716781Y-127858958D01*
X157696384Y-128039996D01*
X152763115Y-128039996D01*
X152763115Y-126039996D01*
X155446384Y-126039996D01*
X155446384Y-126040003D01*
X155466781Y-126221041D01*
X155466782Y-126221046D01*
X155497871Y-126309891D01*
X155510731Y-126346645D01*
X155526958Y-126393017D01*
X155567751Y-126457938D01*
X155623889Y-126547281D01*
X155752719Y-126676111D01*
X155906985Y-126773043D01*
X156078953Y-126833217D01*
X156078958Y-126833218D01*
X156259996Y-126853616D01*
X156260000Y-126853616D01*
X156260004Y-126853616D01*
X156441041Y-126833218D01*
X156441044Y-126833217D01*
X156441047Y-126833217D01*
X156564555Y-126790000D01*
X162501054Y-126790000D01*
X162647500Y-126936446D01*
X162793946Y-126790000D01*
X163501054Y-126790000D01*
X163647500Y-126936446D01*
X163793946Y-126790000D01*
X164501054Y-126790000D01*
X164647500Y-126936446D01*
X164793946Y-126790000D01*
X164647500Y-126643554D01*
X164501054Y-126790000D01*
X163793946Y-126790000D01*
X163647500Y-126643554D01*
X163501054Y-126790000D01*
X162793946Y-126790000D01*
X162647500Y-126643554D01*
X162501054Y-126790000D01*
X156564555Y-126790000D01*
X156613015Y-126773043D01*
X156767281Y-126676111D01*
X156896111Y-126547281D01*
X156993043Y-126393015D01*
X157029091Y-126289996D01*
X161892754Y-126289996D01*
X161892754Y-126290003D01*
X161911676Y-126457944D01*
X161967231Y-126616713D01*
X162293946Y-126290000D01*
X162274055Y-126270109D01*
X162547500Y-126270109D01*
X162547500Y-126309891D01*
X162562724Y-126346645D01*
X162590855Y-126374776D01*
X162627609Y-126390000D01*
X162667391Y-126390000D01*
X162704145Y-126374776D01*
X162732276Y-126346645D01*
X162747500Y-126309891D01*
X162747500Y-126290000D01*
X163001054Y-126290000D01*
X163147500Y-126436446D01*
X163293946Y-126290000D01*
X163274055Y-126270109D01*
X163547500Y-126270109D01*
X163547500Y-126309891D01*
X163562724Y-126346645D01*
X163590855Y-126374776D01*
X163627609Y-126390000D01*
X163667391Y-126390000D01*
X163704145Y-126374776D01*
X163732276Y-126346645D01*
X163747500Y-126309891D01*
X163747500Y-126290000D01*
X164001054Y-126290000D01*
X164147500Y-126436446D01*
X164293946Y-126290000D01*
X164274055Y-126270109D01*
X164547500Y-126270109D01*
X164547500Y-126309891D01*
X164562724Y-126346645D01*
X164590855Y-126374776D01*
X164627609Y-126390000D01*
X164667391Y-126390000D01*
X164704145Y-126374776D01*
X164732276Y-126346645D01*
X164747500Y-126309891D01*
X164747500Y-126289999D01*
X165001054Y-126289999D01*
X165001054Y-126290001D01*
X165327767Y-126616714D01*
X165327767Y-126616713D01*
X165383323Y-126457943D01*
X165383324Y-126457938D01*
X165402246Y-126290003D01*
X165402246Y-126289996D01*
X165383324Y-126122058D01*
X165383323Y-126122053D01*
X165327767Y-125963285D01*
X165327767Y-125963284D01*
X165001054Y-126289999D01*
X164747500Y-126289999D01*
X164747500Y-126270109D01*
X164732276Y-126233355D01*
X164704145Y-126205224D01*
X164667391Y-126190000D01*
X164627609Y-126190000D01*
X164590855Y-126205224D01*
X164562724Y-126233355D01*
X164547500Y-126270109D01*
X164274055Y-126270109D01*
X164147500Y-126143554D01*
X164001054Y-126290000D01*
X163747500Y-126290000D01*
X163747500Y-126270109D01*
X163732276Y-126233355D01*
X163704145Y-126205224D01*
X163667391Y-126190000D01*
X163627609Y-126190000D01*
X163590855Y-126205224D01*
X163562724Y-126233355D01*
X163547500Y-126270109D01*
X163274055Y-126270109D01*
X163147500Y-126143554D01*
X163001054Y-126290000D01*
X162747500Y-126290000D01*
X162747500Y-126270109D01*
X162732276Y-126233355D01*
X162704145Y-126205224D01*
X162667391Y-126190000D01*
X162627609Y-126190000D01*
X162590855Y-126205224D01*
X162562724Y-126233355D01*
X162547500Y-126270109D01*
X162274055Y-126270109D01*
X161967231Y-125963285D01*
X161911676Y-126122055D01*
X161892754Y-126289996D01*
X157029091Y-126289996D01*
X157053217Y-126221047D01*
X157056715Y-126190000D01*
X157073616Y-126040003D01*
X157073616Y-126039996D01*
X157053218Y-125858958D01*
X157053217Y-125858953D01*
X157029089Y-125790000D01*
X162501054Y-125790000D01*
X162647500Y-125936446D01*
X162793946Y-125790000D01*
X163501054Y-125790000D01*
X163647500Y-125936446D01*
X163793946Y-125790000D01*
X164501054Y-125790000D01*
X164647500Y-125936446D01*
X164793946Y-125790000D01*
X164647500Y-125643554D01*
X164501054Y-125790000D01*
X163793946Y-125790000D01*
X163647500Y-125643554D01*
X163501054Y-125790000D01*
X162793946Y-125790000D01*
X162647500Y-125643554D01*
X162501054Y-125790000D01*
X157029089Y-125790000D01*
X156993043Y-125686985D01*
X156896111Y-125532719D01*
X156767281Y-125403889D01*
X156676178Y-125346645D01*
X156613017Y-125306958D01*
X156613016Y-125306957D01*
X156613015Y-125306957D01*
X156564543Y-125289996D01*
X161892754Y-125289996D01*
X161892754Y-125290003D01*
X161911676Y-125457944D01*
X161967231Y-125616713D01*
X162293946Y-125290000D01*
X162274055Y-125270109D01*
X162547500Y-125270109D01*
X162547500Y-125309891D01*
X162562724Y-125346645D01*
X162590855Y-125374776D01*
X162627609Y-125390000D01*
X162667391Y-125390000D01*
X162704145Y-125374776D01*
X162732276Y-125346645D01*
X162747500Y-125309891D01*
X162747500Y-125290000D01*
X163001054Y-125290000D01*
X163147500Y-125436446D01*
X163293946Y-125290000D01*
X163274055Y-125270109D01*
X163547500Y-125270109D01*
X163547500Y-125309891D01*
X163562724Y-125346645D01*
X163590855Y-125374776D01*
X163627609Y-125390000D01*
X163667391Y-125390000D01*
X163704145Y-125374776D01*
X163732276Y-125346645D01*
X163747500Y-125309891D01*
X163747500Y-125290000D01*
X164001054Y-125290000D01*
X164147500Y-125436446D01*
X164293946Y-125290000D01*
X164274055Y-125270109D01*
X164547500Y-125270109D01*
X164547500Y-125309891D01*
X164562724Y-125346645D01*
X164590855Y-125374776D01*
X164627609Y-125390000D01*
X164667391Y-125390000D01*
X164704145Y-125374776D01*
X164732276Y-125346645D01*
X164747500Y-125309891D01*
X164747500Y-125289999D01*
X165001054Y-125289999D01*
X165001054Y-125290001D01*
X165327767Y-125616714D01*
X165327767Y-125616713D01*
X165383323Y-125457943D01*
X165383324Y-125457938D01*
X165402246Y-125290003D01*
X165402246Y-125289996D01*
X165383324Y-125122058D01*
X165383323Y-125122053D01*
X165354610Y-125039996D01*
X166696384Y-125039996D01*
X166696384Y-125040003D01*
X166716781Y-125221041D01*
X166716782Y-125221046D01*
X166746844Y-125306957D01*
X166760731Y-125346645D01*
X166776958Y-125393017D01*
X166817751Y-125457938D01*
X166873889Y-125547281D01*
X167002719Y-125676111D01*
X167156985Y-125773043D01*
X167328953Y-125833217D01*
X167328958Y-125833218D01*
X167509996Y-125853616D01*
X167510000Y-125853616D01*
X167510004Y-125853616D01*
X167691041Y-125833218D01*
X167691044Y-125833217D01*
X167691047Y-125833217D01*
X167863015Y-125773043D01*
X168017281Y-125676111D01*
X168146111Y-125547281D01*
X168243043Y-125393015D01*
X168303217Y-125221047D01*
X168306715Y-125190000D01*
X168323616Y-125040003D01*
X168323616Y-125039996D01*
X168303218Y-124858958D01*
X168303217Y-124858953D01*
X168243043Y-124686985D01*
X168146111Y-124532719D01*
X168017281Y-124403889D01*
X167863015Y-124306957D01*
X167808693Y-124287949D01*
X167691046Y-124246782D01*
X167691041Y-124246781D01*
X167510004Y-124226384D01*
X167509996Y-124226384D01*
X167328958Y-124246781D01*
X167328953Y-124246782D01*
X167156982Y-124306958D01*
X167002718Y-124403889D01*
X166873889Y-124532718D01*
X166776958Y-124686982D01*
X166716782Y-124858953D01*
X166716781Y-124858958D01*
X166696384Y-125039996D01*
X165354610Y-125039996D01*
X165327767Y-124963285D01*
X165327767Y-124963284D01*
X165001054Y-125289999D01*
X164747500Y-125289999D01*
X164747500Y-125270109D01*
X164732276Y-125233355D01*
X164704145Y-125205224D01*
X164667391Y-125190000D01*
X164627609Y-125190000D01*
X164590855Y-125205224D01*
X164562724Y-125233355D01*
X164547500Y-125270109D01*
X164274055Y-125270109D01*
X164147500Y-125143554D01*
X164001054Y-125290000D01*
X163747500Y-125290000D01*
X163747500Y-125270109D01*
X163732276Y-125233355D01*
X163704145Y-125205224D01*
X163667391Y-125190000D01*
X163627609Y-125190000D01*
X163590855Y-125205224D01*
X163562724Y-125233355D01*
X163547500Y-125270109D01*
X163274055Y-125270109D01*
X163147500Y-125143554D01*
X163001054Y-125290000D01*
X162747500Y-125290000D01*
X162747500Y-125270109D01*
X162732276Y-125233355D01*
X162704145Y-125205224D01*
X162667391Y-125190000D01*
X162627609Y-125190000D01*
X162590855Y-125205224D01*
X162562724Y-125233355D01*
X162547500Y-125270109D01*
X162274055Y-125270109D01*
X161967231Y-124963285D01*
X161911676Y-125122055D01*
X161892754Y-125289996D01*
X156564543Y-125289996D01*
X156558693Y-125287949D01*
X156441046Y-125246782D01*
X156441041Y-125246781D01*
X156260004Y-125226384D01*
X156259996Y-125226384D01*
X156078958Y-125246781D01*
X156078953Y-125246782D01*
X155906982Y-125306958D01*
X155752718Y-125403889D01*
X155623889Y-125532718D01*
X155526958Y-125686982D01*
X155466782Y-125858953D01*
X155466781Y-125858958D01*
X155446384Y-126039996D01*
X152763115Y-126039996D01*
X152763115Y-124609731D01*
X162320785Y-124609731D01*
X162647500Y-124936446D01*
X162647501Y-124936446D01*
X162974214Y-124609731D01*
X163320785Y-124609731D01*
X163647500Y-124936446D01*
X163647501Y-124936446D01*
X163974214Y-124609731D01*
X164320785Y-124609731D01*
X164647500Y-124936446D01*
X164647501Y-124936446D01*
X164974214Y-124609731D01*
X164815444Y-124554176D01*
X164647504Y-124535254D01*
X164647496Y-124535254D01*
X164479555Y-124554176D01*
X164320785Y-124609731D01*
X163974214Y-124609731D01*
X163815444Y-124554176D01*
X163647504Y-124535254D01*
X163647496Y-124535254D01*
X163479555Y-124554176D01*
X163320785Y-124609731D01*
X162974214Y-124609731D01*
X162815444Y-124554176D01*
X162647504Y-124535254D01*
X162647496Y-124535254D01*
X162479555Y-124554176D01*
X162320785Y-124609731D01*
X152763115Y-124609731D01*
X152763115Y-121414000D01*
X152782800Y-121346961D01*
X152835604Y-121301206D01*
X152887115Y-121290000D01*
X162998188Y-121290000D01*
X163064160Y-121309006D01*
G37*
%TD.AperFunction*%
%TD*%
%TA.AperFunction,Conductor*%
%TO.N,GND*%
G36*
X138953039Y-113809685D02*
G01*
X138998794Y-113862489D01*
X139010000Y-113914000D01*
X139010000Y-123166000D01*
X138990315Y-123233039D01*
X138937511Y-123278794D01*
X138886000Y-123290000D01*
X129510000Y-123290000D01*
X129619170Y-128093529D01*
X129601014Y-128160998D01*
X129587353Y-128179318D01*
X129520959Y-128253056D01*
X129520958Y-128253057D01*
X129502904Y-128284328D01*
X129452336Y-128332543D01*
X129383729Y-128345764D01*
X129324394Y-128323901D01*
X129275979Y-128290000D01*
X129141654Y-128195944D01*
X129141650Y-128195942D01*
X128942081Y-128102882D01*
X128942079Y-128102881D01*
X128942076Y-128102880D01*
X128790777Y-128062339D01*
X128729372Y-128045885D01*
X128729365Y-128045884D01*
X128510002Y-128026693D01*
X128509998Y-128026693D01*
X128290634Y-128045884D01*
X128290627Y-128045885D01*
X128077920Y-128102881D01*
X127878346Y-128195944D01*
X127878342Y-128195946D01*
X127697967Y-128322247D01*
X127697960Y-128322252D01*
X127542252Y-128477960D01*
X127542247Y-128477967D01*
X127415946Y-128658342D01*
X127415944Y-128658346D01*
X127322881Y-128857920D01*
X127265885Y-129070627D01*
X127265884Y-129070634D01*
X127264865Y-129082286D01*
X127246693Y-129290000D01*
X127265885Y-129509371D01*
X127322880Y-129722076D01*
X127322881Y-129722079D01*
X127322882Y-129722081D01*
X127415942Y-129921650D01*
X127415944Y-129921654D01*
X127542251Y-130102038D01*
X127697962Y-130257749D01*
X127878346Y-130384056D01*
X128077924Y-130477120D01*
X128290629Y-130534115D01*
X128447322Y-130547823D01*
X128509998Y-130553307D01*
X128510000Y-130553307D01*
X128510002Y-130553307D01*
X128564842Y-130548509D01*
X128729371Y-130534115D01*
X128942076Y-130477120D01*
X129141654Y-130384056D01*
X129322038Y-130257749D01*
X129455605Y-130124181D01*
X129516924Y-130090699D01*
X129586616Y-130095683D01*
X129642550Y-130137554D01*
X129666967Y-130203018D01*
X129667251Y-130209048D01*
X129805454Y-136290000D01*
X129010000Y-136290000D01*
X129010000Y-145099500D01*
X119002706Y-145099500D01*
X118997297Y-145099382D01*
X118587102Y-145081472D01*
X118576326Y-145080529D01*
X118189338Y-145029581D01*
X118131123Y-145005842D01*
X116997337Y-144155503D01*
X114729764Y-142454823D01*
X114694178Y-142412883D01*
X114652672Y-142333151D01*
X114648103Y-142323352D01*
X114519439Y-142012729D01*
X114510000Y-141965276D01*
X114510000Y-137128844D01*
X120620000Y-137128844D01*
X120626401Y-137188372D01*
X120626403Y-137188379D01*
X120676645Y-137323086D01*
X120676649Y-137323093D01*
X120762809Y-137438187D01*
X120762812Y-137438190D01*
X120877906Y-137524350D01*
X120877913Y-137524354D01*
X121012620Y-137574596D01*
X121012627Y-137574598D01*
X121072155Y-137580999D01*
X121072172Y-137581000D01*
X122020000Y-137581000D01*
X122020000Y-137033553D01*
X122019999Y-137033552D01*
X121593223Y-136606777D01*
X121386609Y-136400163D01*
X121620000Y-136400163D01*
X121620000Y-136459837D01*
X121642836Y-136514968D01*
X121685032Y-136557164D01*
X121740163Y-136580000D01*
X121799837Y-136580000D01*
X121854968Y-136557164D01*
X121897164Y-136514968D01*
X121920000Y-136459837D01*
X121920000Y-136400163D01*
X122620000Y-136400163D01*
X122620000Y-136459837D01*
X122642836Y-136514968D01*
X122685032Y-136557164D01*
X122740163Y-136580000D01*
X122799837Y-136580000D01*
X122854968Y-136557164D01*
X122897164Y-136514968D01*
X122920000Y-136459837D01*
X122920000Y-136400163D01*
X122897164Y-136345032D01*
X122854968Y-136302836D01*
X122799837Y-136280000D01*
X122740163Y-136280000D01*
X122685032Y-136302836D01*
X122642836Y-136345032D01*
X122620000Y-136400163D01*
X121920000Y-136400163D01*
X121897164Y-136345032D01*
X121854968Y-136302836D01*
X121799837Y-136280000D01*
X121740163Y-136280000D01*
X121685032Y-136302836D01*
X121642836Y-136345032D01*
X121620000Y-136400163D01*
X121386609Y-136400163D01*
X121167447Y-136181000D01*
X120620000Y-136181000D01*
X120620000Y-137128844D01*
X114510000Y-137128844D01*
X114510000Y-135900163D01*
X122120000Y-135900163D01*
X122120000Y-135959837D01*
X122142836Y-136014968D01*
X122185032Y-136057164D01*
X122240163Y-136080000D01*
X122299837Y-136080000D01*
X122354968Y-136057164D01*
X122397164Y-136014968D01*
X122420000Y-135959837D01*
X122420000Y-135929999D01*
X122623553Y-135929999D01*
X122770000Y-136076446D01*
X122916446Y-135930001D01*
X122916446Y-135930000D01*
X122770000Y-135783553D01*
X122623553Y-135929999D01*
X122420000Y-135929999D01*
X122420000Y-135900163D01*
X122397164Y-135845032D01*
X122354968Y-135802836D01*
X122299837Y-135780000D01*
X122240163Y-135780000D01*
X122185032Y-135802836D01*
X122142836Y-135845032D01*
X122120000Y-135900163D01*
X114510000Y-135900163D01*
X114510000Y-134733155D01*
X120620000Y-134733155D01*
X120620000Y-135681000D01*
X121165447Y-135681000D01*
X121165447Y-135680999D01*
X121446283Y-135400163D01*
X121620000Y-135400163D01*
X121620000Y-135459837D01*
X121642836Y-135514968D01*
X121685032Y-135557164D01*
X121740163Y-135580000D01*
X121799837Y-135580000D01*
X121854968Y-135557164D01*
X121897164Y-135514968D01*
X121920000Y-135459837D01*
X121920000Y-135400163D01*
X122620000Y-135400163D01*
X122620000Y-135459837D01*
X122642836Y-135514968D01*
X122685032Y-135557164D01*
X122740163Y-135580000D01*
X122799837Y-135580000D01*
X122854968Y-135557164D01*
X122897164Y-135514968D01*
X122920000Y-135459837D01*
X122920000Y-135400163D01*
X122897164Y-135345032D01*
X122854968Y-135302836D01*
X122799837Y-135280000D01*
X122740163Y-135280000D01*
X122685032Y-135302836D01*
X122642836Y-135345032D01*
X122620000Y-135400163D01*
X121920000Y-135400163D01*
X121897164Y-135345032D01*
X121854968Y-135302836D01*
X121799837Y-135280000D01*
X121740163Y-135280000D01*
X121685032Y-135302836D01*
X121642836Y-135345032D01*
X121620000Y-135400163D01*
X121446283Y-135400163D01*
X121593223Y-135253223D01*
X122019999Y-134826446D01*
X122020000Y-134826445D01*
X122020000Y-134281000D01*
X121072155Y-134281000D01*
X121012627Y-134287401D01*
X121012620Y-134287403D01*
X120877913Y-134337645D01*
X120877906Y-134337649D01*
X120762812Y-134423809D01*
X120762809Y-134423812D01*
X120676649Y-134538906D01*
X120676645Y-134538913D01*
X120626403Y-134673620D01*
X120626401Y-134673627D01*
X120620000Y-134733155D01*
X114510000Y-134733155D01*
X114510000Y-132759996D01*
X120956384Y-132759996D01*
X120956384Y-132760003D01*
X120976781Y-132941041D01*
X120976782Y-132941046D01*
X121017949Y-133058693D01*
X121036957Y-133113015D01*
X121133889Y-133267281D01*
X121262719Y-133396111D01*
X121416985Y-133493043D01*
X121548829Y-133539177D01*
X121588953Y-133553217D01*
X121588958Y-133553218D01*
X121769996Y-133573616D01*
X121770000Y-133573616D01*
X121770004Y-133573616D01*
X121951040Y-133553218D01*
X121951040Y-133553217D01*
X121951047Y-133553217D01*
X121991171Y-133539176D01*
X122060945Y-133535614D01*
X122119804Y-133568537D01*
X122620586Y-134069319D01*
X122654071Y-134130642D01*
X122649087Y-134200334D01*
X122607215Y-134256267D01*
X122541751Y-134280684D01*
X122532905Y-134281000D01*
X122520000Y-134281000D01*
X122520000Y-134826446D01*
X123298181Y-135604627D01*
X123331666Y-135665950D01*
X123334500Y-135692308D01*
X123334500Y-136167691D01*
X123314815Y-136234730D01*
X123298181Y-136255372D01*
X122946777Y-136606777D01*
X122520000Y-137033552D01*
X122520000Y-137581000D01*
X123274258Y-137581000D01*
X123341297Y-137600685D01*
X123387052Y-137653489D01*
X123388819Y-137657548D01*
X123406823Y-137701015D01*
X123406830Y-137701028D01*
X123476374Y-137805107D01*
X123476377Y-137805111D01*
X124522781Y-138851514D01*
X124611298Y-138940031D01*
X124611299Y-138940032D01*
X124715377Y-139009575D01*
X124715390Y-139009582D01*
X124802123Y-139045507D01*
X124831037Y-139057484D01*
X124851407Y-139061536D01*
X124902611Y-139071721D01*
X124953814Y-139081907D01*
X124953815Y-139081907D01*
X125085111Y-139081907D01*
X125085131Y-139081906D01*
X127466023Y-139081906D01*
X127531995Y-139100913D01*
X127656977Y-139179445D01*
X127656980Y-139179447D01*
X127656984Y-139179448D01*
X127656985Y-139179449D01*
X127828953Y-139239623D01*
X127828958Y-139239624D01*
X128009996Y-139260022D01*
X128010000Y-139260022D01*
X128010004Y-139260022D01*
X128191041Y-139239624D01*
X128191044Y-139239623D01*
X128191047Y-139239623D01*
X128363015Y-139179449D01*
X128517281Y-139082517D01*
X128646111Y-138953687D01*
X128743043Y-138799421D01*
X128803217Y-138627453D01*
X128823616Y-138446406D01*
X128803217Y-138265359D01*
X128743043Y-138093391D01*
X128646111Y-137939125D01*
X128517281Y-137810295D01*
X128363015Y-137713363D01*
X128308693Y-137694355D01*
X128191046Y-137653188D01*
X128191041Y-137653187D01*
X128010004Y-137632790D01*
X128009996Y-137632790D01*
X127828958Y-137653187D01*
X127828953Y-137653188D01*
X127656980Y-137713364D01*
X127656977Y-137713366D01*
X127531995Y-137791899D01*
X127466023Y-137810906D01*
X125331001Y-137810906D01*
X125263962Y-137791221D01*
X125243320Y-137774587D01*
X124641819Y-137173086D01*
X124608334Y-137111763D01*
X124605500Y-137085405D01*
X124605500Y-134457408D01*
X124605499Y-134457404D01*
X124598817Y-134423812D01*
X124581078Y-134334631D01*
X124561515Y-134287401D01*
X124533176Y-134218984D01*
X124533169Y-134218971D01*
X124463626Y-134114893D01*
X124463625Y-134114892D01*
X124375108Y-134026375D01*
X123616014Y-133267281D01*
X122615111Y-132266377D01*
X122615107Y-132266374D01*
X122511028Y-132196830D01*
X122511015Y-132196823D01*
X122395373Y-132148923D01*
X122395361Y-132148920D01*
X122303299Y-132130608D01*
X122261517Y-132113984D01*
X122123017Y-132026958D01*
X122123019Y-132026958D01*
X121951046Y-131966782D01*
X121951041Y-131966781D01*
X121770004Y-131946384D01*
X121769996Y-131946384D01*
X121588958Y-131966781D01*
X121588953Y-131966782D01*
X121416982Y-132026958D01*
X121262718Y-132123889D01*
X121133889Y-132252718D01*
X121036958Y-132406982D01*
X120976782Y-132578953D01*
X120976781Y-132578958D01*
X120956384Y-132759996D01*
X114510000Y-132759996D01*
X114510000Y-118439996D01*
X130196384Y-118439996D01*
X130196384Y-118440003D01*
X130216781Y-118621041D01*
X130216782Y-118621046D01*
X130257949Y-118738693D01*
X130276957Y-118793015D01*
X130373889Y-118947281D01*
X130502719Y-119076111D01*
X130656985Y-119173043D01*
X130828953Y-119233217D01*
X130828958Y-119233218D01*
X131009996Y-119253616D01*
X131010000Y-119253616D01*
X131010004Y-119253616D01*
X131191041Y-119233218D01*
X131191044Y-119233217D01*
X131191047Y-119233217D01*
X131363015Y-119173043D01*
X131517281Y-119076111D01*
X131646111Y-118947281D01*
X131743043Y-118793015D01*
X131803217Y-118621047D01*
X131823616Y-118440000D01*
X131803217Y-118258953D01*
X131743043Y-118086985D01*
X131646111Y-117932719D01*
X131517281Y-117803889D01*
X131363015Y-117706957D01*
X131308693Y-117687949D01*
X131191046Y-117646782D01*
X131191041Y-117646781D01*
X131010004Y-117626384D01*
X131009996Y-117626384D01*
X130828958Y-117646781D01*
X130828953Y-117646782D01*
X130656982Y-117706958D01*
X130502718Y-117803889D01*
X130373889Y-117932718D01*
X130276958Y-118086982D01*
X130216782Y-118258953D01*
X130216781Y-118258958D01*
X130196384Y-118439996D01*
X114510000Y-118439996D01*
X114510000Y-114035478D01*
X114529685Y-113968439D01*
X114530867Y-113966633D01*
X114567855Y-113911277D01*
X114577712Y-113898431D01*
X114635761Y-113832240D01*
X114694763Y-113794817D01*
X114728988Y-113790000D01*
X138886000Y-113790000D01*
X138953039Y-113809685D01*
G37*
%TD.AperFunction*%
%TD*%
%TA.AperFunction,Conductor*%
%TO.N,GND*%
G36*
X178887971Y-46788063D02*
G01*
X178954687Y-46808808D01*
X178999598Y-46862331D01*
X179010000Y-46912046D01*
X179010000Y-69164016D01*
X178990315Y-69231055D01*
X178937511Y-69276810D01*
X178884032Y-69288000D01*
X178621697Y-69283836D01*
X178554978Y-69263090D01*
X178510067Y-69209567D01*
X178501192Y-69140453D01*
X178518500Y-69031180D01*
X178518500Y-68148818D01*
X178489974Y-67968716D01*
X178433622Y-67795285D01*
X178350837Y-67632813D01*
X178243654Y-67485288D01*
X178114712Y-67356346D01*
X177967186Y-67249162D01*
X177804714Y-67166377D01*
X177631283Y-67110025D01*
X177451181Y-67081500D01*
X177451176Y-67081500D01*
X177268824Y-67081500D01*
X177268819Y-67081500D01*
X177088716Y-67110025D01*
X176915285Y-67166377D01*
X176752813Y-67249162D01*
X176668644Y-67310314D01*
X176605288Y-67356346D01*
X176605286Y-67356348D01*
X176605285Y-67356348D01*
X176476348Y-67485285D01*
X176476348Y-67485286D01*
X176476346Y-67485288D01*
X176430314Y-67548644D01*
X176369162Y-67632813D01*
X176286377Y-67795285D01*
X176230025Y-67968716D01*
X176201500Y-68148818D01*
X176201500Y-69031181D01*
X176212437Y-69100236D01*
X176203482Y-69169530D01*
X176158486Y-69222982D01*
X176091734Y-69243621D01*
X176087996Y-69243618D01*
X174159728Y-69213011D01*
X174093009Y-69192265D01*
X174048098Y-69138742D01*
X174037696Y-69089027D01*
X174037696Y-66372596D01*
X174057381Y-66305557D01*
X174074015Y-66284915D01*
X175003236Y-65355694D01*
X176467714Y-63891217D01*
X176543019Y-63760784D01*
X176574834Y-63642049D01*
X176606925Y-63586466D01*
X176646111Y-63547281D01*
X176743043Y-63393015D01*
X176803217Y-63221047D01*
X176823616Y-63040000D01*
X176822055Y-63026149D01*
X176803218Y-62858958D01*
X176803217Y-62858953D01*
X176801545Y-62854175D01*
X176743043Y-62686985D01*
X176646111Y-62532719D01*
X176517281Y-62403889D01*
X176510000Y-62399314D01*
X176363017Y-62306958D01*
X176363016Y-62306957D01*
X176363015Y-62306957D01*
X176308693Y-62287949D01*
X176191046Y-62246782D01*
X176191041Y-62246781D01*
X176010004Y-62226384D01*
X176009996Y-62226384D01*
X175828958Y-62246781D01*
X175828953Y-62246782D01*
X175656982Y-62306958D01*
X175575972Y-62357860D01*
X175508735Y-62376860D01*
X175444028Y-62357860D01*
X175363017Y-62306958D01*
X175363016Y-62306957D01*
X175363015Y-62306957D01*
X175308693Y-62287949D01*
X175191046Y-62246782D01*
X175191041Y-62246781D01*
X175010004Y-62226384D01*
X175009996Y-62226384D01*
X174828958Y-62246781D01*
X174828953Y-62246782D01*
X174656982Y-62306958D01*
X174575972Y-62357860D01*
X174508735Y-62376860D01*
X174444028Y-62357860D01*
X174363017Y-62306958D01*
X174363016Y-62306957D01*
X174363015Y-62306957D01*
X174308693Y-62287949D01*
X174191046Y-62246782D01*
X174191041Y-62246781D01*
X174010004Y-62226384D01*
X174009996Y-62226384D01*
X173828958Y-62246781D01*
X173828953Y-62246782D01*
X173656982Y-62306958D01*
X173575972Y-62357860D01*
X173508735Y-62376860D01*
X173444028Y-62357860D01*
X173363017Y-62306958D01*
X173363016Y-62306957D01*
X173363015Y-62306957D01*
X173308693Y-62287949D01*
X173191046Y-62246782D01*
X173191041Y-62246781D01*
X173010004Y-62226384D01*
X173009996Y-62226384D01*
X172828958Y-62246781D01*
X172828953Y-62246782D01*
X172656982Y-62306958D01*
X172575972Y-62357860D01*
X172508735Y-62376860D01*
X172444028Y-62357860D01*
X172363017Y-62306958D01*
X172363016Y-62306957D01*
X172363015Y-62306957D01*
X172308693Y-62287949D01*
X172191046Y-62246782D01*
X172191041Y-62246781D01*
X172010004Y-62226384D01*
X172009996Y-62226384D01*
X171828958Y-62246781D01*
X171828953Y-62246782D01*
X171656982Y-62306958D01*
X171501845Y-62404437D01*
X171434608Y-62423437D01*
X171369901Y-62404437D01*
X171263017Y-62337277D01*
X171263016Y-62337276D01*
X171263015Y-62337276D01*
X171176368Y-62306957D01*
X171091046Y-62277101D01*
X171091041Y-62277100D01*
X170910004Y-62256703D01*
X170909996Y-62256703D01*
X170728958Y-62277100D01*
X170728953Y-62277101D01*
X170556982Y-62337277D01*
X170402718Y-62434208D01*
X170273889Y-62563037D01*
X170245066Y-62608908D01*
X170202411Y-62676792D01*
X170150080Y-62723082D01*
X170097420Y-62734819D01*
X167955112Y-62734819D01*
X167888073Y-62715134D01*
X167867431Y-62698500D01*
X166604892Y-61435962D01*
X166571407Y-61374639D01*
X166569353Y-61362164D01*
X166553218Y-61218958D01*
X166553217Y-61218953D01*
X166530450Y-61153889D01*
X166493043Y-61046985D01*
X166396111Y-60892719D01*
X166267281Y-60763889D01*
X166113015Y-60666957D01*
X166058693Y-60647949D01*
X165941046Y-60606782D01*
X165941041Y-60606781D01*
X165760004Y-60586384D01*
X165759996Y-60586384D01*
X165578958Y-60606781D01*
X165578953Y-60606782D01*
X165406982Y-60666958D01*
X165252718Y-60763889D01*
X165123889Y-60892718D01*
X165026958Y-61046982D01*
X164966782Y-61218953D01*
X164966781Y-61218958D01*
X164946384Y-61399996D01*
X164946384Y-61400003D01*
X164966781Y-61581041D01*
X164966782Y-61581046D01*
X165026958Y-61753017D01*
X165123889Y-61907281D01*
X165165494Y-61948886D01*
X165198979Y-62010209D01*
X165193995Y-62079901D01*
X165165494Y-62124248D01*
X165123889Y-62165852D01*
X165026958Y-62320116D01*
X164966782Y-62492087D01*
X164966781Y-62492092D01*
X164946384Y-62673130D01*
X164946384Y-62673137D01*
X164966781Y-62854175D01*
X164966782Y-62854180D01*
X165026958Y-63026151D01*
X165123889Y-63180415D01*
X165172769Y-63229295D01*
X165206254Y-63290618D01*
X165201270Y-63360310D01*
X165172770Y-63404656D01*
X165123889Y-63453537D01*
X165026958Y-63607801D01*
X164966782Y-63779772D01*
X164966781Y-63779777D01*
X164946384Y-63960815D01*
X164946384Y-63960822D01*
X164966781Y-64141860D01*
X164966782Y-64141865D01*
X165026958Y-64313836D01*
X165123889Y-64468100D01*
X165252719Y-64596930D01*
X165406985Y-64693862D01*
X165578953Y-64754036D01*
X165578958Y-64754037D01*
X165759996Y-64774435D01*
X165760000Y-64774435D01*
X165760004Y-64774435D01*
X165941041Y-64754037D01*
X165941044Y-64754036D01*
X165941047Y-64754036D01*
X166113015Y-64693862D01*
X166267281Y-64596930D01*
X166295073Y-64569138D01*
X166356396Y-64535653D01*
X166382754Y-64532819D01*
X172164483Y-64532819D01*
X172164486Y-64532819D01*
X172309965Y-64493838D01*
X172440397Y-64418533D01*
X172546895Y-64312035D01*
X172974038Y-63884890D01*
X173035359Y-63851407D01*
X173047831Y-63849353D01*
X173093653Y-63844190D01*
X173191041Y-63833218D01*
X173191043Y-63833217D01*
X173191047Y-63833217D01*
X173191050Y-63833215D01*
X173191054Y-63833215D01*
X173273045Y-63804525D01*
X173342823Y-63800962D01*
X173403451Y-63835691D01*
X173435679Y-63897684D01*
X173438000Y-63921566D01*
X173438000Y-64326812D01*
X173418315Y-64393851D01*
X173401681Y-64414493D01*
X172353984Y-65462189D01*
X172353980Y-65462195D01*
X172278678Y-65592620D01*
X172278677Y-65592624D01*
X172239696Y-65738103D01*
X172239696Y-65738105D01*
X172239696Y-69056550D01*
X172220011Y-69123589D01*
X172167207Y-69169344D01*
X172113728Y-69180534D01*
X149031032Y-68814143D01*
X148964313Y-68793397D01*
X148919402Y-68739874D01*
X148909000Y-68690159D01*
X148909000Y-63552443D01*
X148928685Y-63485404D01*
X148967025Y-63447451D01*
X149080781Y-63375974D01*
X149209611Y-63247144D01*
X149306543Y-63092878D01*
X149366717Y-62920910D01*
X149366718Y-62920904D01*
X149387116Y-62739866D01*
X149387116Y-62739859D01*
X149366718Y-62558821D01*
X149366717Y-62558816D01*
X149343369Y-62492092D01*
X149306543Y-62386848D01*
X149209611Y-62232582D01*
X149081056Y-62104027D01*
X149047571Y-62042704D01*
X149051698Y-61975385D01*
X149053217Y-61971047D01*
X149073616Y-61790000D01*
X149053217Y-61608953D01*
X148993043Y-61436985D01*
X148896111Y-61282719D01*
X148767281Y-61153889D01*
X148613015Y-61056957D01*
X148558693Y-61037949D01*
X148441046Y-60996782D01*
X148441041Y-60996781D01*
X148260004Y-60976384D01*
X148259996Y-60976384D01*
X148078954Y-60996782D01*
X148078953Y-60996782D01*
X148072101Y-60999180D01*
X148002322Y-61002741D01*
X147941695Y-60968011D01*
X147909469Y-60906017D01*
X147907148Y-60882138D01*
X147907148Y-59806660D01*
X156046891Y-59806660D01*
X156060697Y-59815335D01*
X156060701Y-59815337D01*
X156230858Y-59874877D01*
X156230861Y-59874878D01*
X156409997Y-59895062D01*
X156410003Y-59895062D01*
X156589138Y-59874878D01*
X156759307Y-59815333D01*
X156773107Y-59806661D01*
X156773107Y-59806660D01*
X157446891Y-59806660D01*
X157460697Y-59815335D01*
X157460701Y-59815337D01*
X157630858Y-59874877D01*
X157630861Y-59874878D01*
X157809997Y-59895062D01*
X157810003Y-59895062D01*
X157989138Y-59874878D01*
X158159307Y-59815333D01*
X158173107Y-59806661D01*
X158173107Y-59806660D01*
X157810001Y-59443553D01*
X157810000Y-59443553D01*
X157446891Y-59806660D01*
X156773107Y-59806660D01*
X156410001Y-59443553D01*
X156410000Y-59443553D01*
X156046891Y-59806660D01*
X147907148Y-59806660D01*
X147907148Y-59106660D01*
X155346891Y-59106660D01*
X155360697Y-59115335D01*
X155360701Y-59115337D01*
X155530859Y-59174878D01*
X155531644Y-59175057D01*
X155532099Y-59175311D01*
X155537430Y-59177177D01*
X155537103Y-59178110D01*
X155592623Y-59209166D01*
X155621952Y-59262875D01*
X155622823Y-59262571D01*
X155624672Y-59267855D01*
X155624940Y-59268346D01*
X155625120Y-59269137D01*
X155684662Y-59439298D01*
X155684667Y-59439308D01*
X155693338Y-59453108D01*
X156056446Y-59090001D01*
X156056446Y-59089999D01*
X156036556Y-59070109D01*
X156310000Y-59070109D01*
X156310000Y-59109891D01*
X156325224Y-59146645D01*
X156353355Y-59174776D01*
X156390109Y-59190000D01*
X156429891Y-59190000D01*
X156466645Y-59174776D01*
X156494776Y-59146645D01*
X156510000Y-59109891D01*
X156510000Y-59090000D01*
X156763553Y-59090000D01*
X157110000Y-59436446D01*
X157110001Y-59436446D01*
X157456446Y-59090001D01*
X157456446Y-59089999D01*
X157436556Y-59070109D01*
X157710000Y-59070109D01*
X157710000Y-59109891D01*
X157725224Y-59146645D01*
X157753355Y-59174776D01*
X157790109Y-59190000D01*
X157829891Y-59190000D01*
X157866645Y-59174776D01*
X157894776Y-59146645D01*
X157910000Y-59109891D01*
X157910000Y-59090000D01*
X158163553Y-59090000D01*
X158526660Y-59453107D01*
X158526661Y-59453107D01*
X158535333Y-59439307D01*
X158594877Y-59269141D01*
X158595056Y-59268358D01*
X158595310Y-59267902D01*
X158597177Y-59262569D01*
X158598111Y-59262895D01*
X158629164Y-59207379D01*
X158682874Y-59178050D01*
X158682569Y-59177177D01*
X158687871Y-59175321D01*
X158688358Y-59175056D01*
X158689141Y-59174877D01*
X158859307Y-59115333D01*
X158873107Y-59106661D01*
X158873107Y-59106660D01*
X158510000Y-58743553D01*
X158163553Y-59090000D01*
X157910000Y-59090000D01*
X157910000Y-59070109D01*
X157894776Y-59033355D01*
X157866645Y-59005224D01*
X157829891Y-58990000D01*
X157790109Y-58990000D01*
X157753355Y-59005224D01*
X157725224Y-59033355D01*
X157710000Y-59070109D01*
X157436556Y-59070109D01*
X157110000Y-58743553D01*
X156763553Y-59090000D01*
X156510000Y-59090000D01*
X156510000Y-59070109D01*
X156494776Y-59033355D01*
X156466645Y-59005224D01*
X156429891Y-58990000D01*
X156390109Y-58990000D01*
X156353355Y-59005224D01*
X156325224Y-59033355D01*
X156310000Y-59070109D01*
X156036556Y-59070109D01*
X155879670Y-58913223D01*
X155710001Y-58743553D01*
X155710000Y-58743553D01*
X155346891Y-59106660D01*
X147907148Y-59106660D01*
X147907148Y-58389997D01*
X154904938Y-58389997D01*
X154904938Y-58390002D01*
X154925121Y-58569138D01*
X154925122Y-58569141D01*
X154984662Y-58739298D01*
X154984667Y-58739308D01*
X154993338Y-58753108D01*
X155356446Y-58390001D01*
X155356446Y-58389999D01*
X155336556Y-58370109D01*
X155610000Y-58370109D01*
X155610000Y-58409891D01*
X155625224Y-58446645D01*
X155653355Y-58474776D01*
X155690109Y-58490000D01*
X155729891Y-58490000D01*
X155766645Y-58474776D01*
X155794776Y-58446645D01*
X155810000Y-58409891D01*
X155810000Y-58390000D01*
X156063553Y-58390000D01*
X156236776Y-58563223D01*
X156410000Y-58736446D01*
X156410001Y-58736446D01*
X156583223Y-58563223D01*
X156756446Y-58390000D01*
X156756446Y-58389999D01*
X156736556Y-58370109D01*
X157010000Y-58370109D01*
X157010000Y-58409891D01*
X157025224Y-58446645D01*
X157053355Y-58474776D01*
X157090109Y-58490000D01*
X157129891Y-58490000D01*
X157166645Y-58474776D01*
X157194776Y-58446645D01*
X157210000Y-58409891D01*
X157210000Y-58390000D01*
X157463553Y-58390000D01*
X157636776Y-58563223D01*
X157810000Y-58736446D01*
X157810001Y-58736446D01*
X157983223Y-58563223D01*
X158156446Y-58390000D01*
X158156446Y-58389999D01*
X158136556Y-58370109D01*
X158410000Y-58370109D01*
X158410000Y-58409891D01*
X158425224Y-58446645D01*
X158453355Y-58474776D01*
X158490109Y-58490000D01*
X158529891Y-58490000D01*
X158566645Y-58474776D01*
X158594776Y-58446645D01*
X158610000Y-58409891D01*
X158610000Y-58389999D01*
X158863553Y-58389999D01*
X158863553Y-58390000D01*
X159226660Y-58753107D01*
X159226661Y-58753107D01*
X159235333Y-58739307D01*
X159294878Y-58569138D01*
X159315062Y-58390002D01*
X159315062Y-58389997D01*
X159294878Y-58210861D01*
X159294877Y-58210857D01*
X159235337Y-58040701D01*
X159235335Y-58040697D01*
X159226660Y-58026891D01*
X158863553Y-58389999D01*
X158610000Y-58389999D01*
X158610000Y-58370109D01*
X158594776Y-58333355D01*
X158566645Y-58305224D01*
X158529891Y-58290000D01*
X158490109Y-58290000D01*
X158453355Y-58305224D01*
X158425224Y-58333355D01*
X158410000Y-58370109D01*
X158136556Y-58370109D01*
X157810000Y-58043553D01*
X157463553Y-58390000D01*
X157210000Y-58390000D01*
X157210000Y-58370109D01*
X157194776Y-58333355D01*
X157166645Y-58305224D01*
X157129891Y-58290000D01*
X157090109Y-58290000D01*
X157053355Y-58305224D01*
X157025224Y-58333355D01*
X157010000Y-58370109D01*
X156736556Y-58370109D01*
X156410000Y-58043553D01*
X156063553Y-58390000D01*
X155810000Y-58390000D01*
X155810000Y-58370109D01*
X155794776Y-58333355D01*
X155766645Y-58305224D01*
X155729891Y-58290000D01*
X155690109Y-58290000D01*
X155653355Y-58305224D01*
X155625224Y-58333355D01*
X155610000Y-58370109D01*
X155336556Y-58370109D01*
X154993338Y-58026890D01*
X154993338Y-58026891D01*
X154984664Y-58040696D01*
X154925123Y-58210857D01*
X154925121Y-58210861D01*
X154904938Y-58389997D01*
X147907148Y-58389997D01*
X147907148Y-57690000D01*
X155363553Y-57690000D01*
X155710000Y-58036446D01*
X155710001Y-58036446D01*
X155883223Y-57863223D01*
X156056446Y-57690000D01*
X156056446Y-57689999D01*
X156036556Y-57670109D01*
X156310000Y-57670109D01*
X156310000Y-57709891D01*
X156325224Y-57746645D01*
X156353355Y-57774776D01*
X156390109Y-57790000D01*
X156429891Y-57790000D01*
X156466645Y-57774776D01*
X156494776Y-57746645D01*
X156510000Y-57709891D01*
X156510000Y-57690000D01*
X156763553Y-57690000D01*
X156936776Y-57863223D01*
X157110000Y-58036446D01*
X157110001Y-58036446D01*
X157283223Y-57863223D01*
X157456446Y-57690000D01*
X157456446Y-57689999D01*
X157436556Y-57670109D01*
X157710000Y-57670109D01*
X157710000Y-57709891D01*
X157725224Y-57746645D01*
X157753355Y-57774776D01*
X157790109Y-57790000D01*
X157829891Y-57790000D01*
X157866645Y-57774776D01*
X157894776Y-57746645D01*
X157910000Y-57709891D01*
X157910000Y-57690000D01*
X158163553Y-57690000D01*
X158336776Y-57863223D01*
X158510000Y-58036446D01*
X158510001Y-58036446D01*
X158856446Y-57690001D01*
X158856446Y-57689999D01*
X158706443Y-57539996D01*
X170096384Y-57539996D01*
X170096384Y-57540003D01*
X170116781Y-57721041D01*
X170116782Y-57721046D01*
X170176958Y-57893017D01*
X170271547Y-58043553D01*
X170273889Y-58047281D01*
X170402719Y-58176111D01*
X170556985Y-58273043D01*
X170728953Y-58333217D01*
X170728958Y-58333218D01*
X170909996Y-58353616D01*
X170910000Y-58353616D01*
X170910004Y-58353616D01*
X171091041Y-58333218D01*
X171091044Y-58333217D01*
X171091047Y-58333217D01*
X171263015Y-58273043D01*
X171417281Y-58176111D01*
X171546111Y-58047281D01*
X171643043Y-57893015D01*
X171703217Y-57721047D01*
X171706715Y-57690000D01*
X171723616Y-57540003D01*
X171723616Y-57539996D01*
X171703218Y-57358958D01*
X171703217Y-57358953D01*
X171696343Y-57339308D01*
X171643043Y-57186985D01*
X171546111Y-57032719D01*
X171417281Y-56903889D01*
X171395177Y-56890000D01*
X171263017Y-56806958D01*
X171263016Y-56806957D01*
X171263015Y-56806957D01*
X171208693Y-56787949D01*
X171091046Y-56746782D01*
X171091041Y-56746781D01*
X170910004Y-56726384D01*
X170909996Y-56726384D01*
X170728958Y-56746781D01*
X170728953Y-56746782D01*
X170556982Y-56806958D01*
X170402718Y-56903889D01*
X170273889Y-57032718D01*
X170176958Y-57186982D01*
X170116782Y-57358953D01*
X170116781Y-57358958D01*
X170096384Y-57539996D01*
X158706443Y-57539996D01*
X158510001Y-57343553D01*
X158510000Y-57343553D01*
X158163553Y-57690000D01*
X157910000Y-57690000D01*
X157910000Y-57670109D01*
X157894776Y-57633355D01*
X157866645Y-57605224D01*
X157829891Y-57590000D01*
X157790109Y-57590000D01*
X157753355Y-57605224D01*
X157725224Y-57633355D01*
X157710000Y-57670109D01*
X157436556Y-57670109D01*
X157110000Y-57343553D01*
X156763553Y-57690000D01*
X156510000Y-57690000D01*
X156510000Y-57670109D01*
X156494776Y-57633355D01*
X156466645Y-57605224D01*
X156429891Y-57590000D01*
X156390109Y-57590000D01*
X156353355Y-57605224D01*
X156325224Y-57633355D01*
X156310000Y-57670109D01*
X156036556Y-57670109D01*
X155710000Y-57343553D01*
X155363553Y-57690000D01*
X147907148Y-57690000D01*
X147907148Y-56989997D01*
X154904938Y-56989997D01*
X154904938Y-56990002D01*
X154925121Y-57169138D01*
X154925122Y-57169141D01*
X154984662Y-57339298D01*
X154984667Y-57339308D01*
X154993338Y-57353108D01*
X155356446Y-56990001D01*
X155356446Y-56989999D01*
X155336556Y-56970109D01*
X155610000Y-56970109D01*
X155610000Y-57009891D01*
X155625224Y-57046645D01*
X155653355Y-57074776D01*
X155690109Y-57090000D01*
X155729891Y-57090000D01*
X155766645Y-57074776D01*
X155794776Y-57046645D01*
X155810000Y-57009891D01*
X155810000Y-56990000D01*
X156063553Y-56990000D01*
X156236776Y-57163223D01*
X156410000Y-57336446D01*
X156410001Y-57336446D01*
X156583223Y-57163223D01*
X156756446Y-56990000D01*
X156756446Y-56989999D01*
X156736556Y-56970109D01*
X157010000Y-56970109D01*
X157010000Y-57009891D01*
X157025224Y-57046645D01*
X157053355Y-57074776D01*
X157090109Y-57090000D01*
X157129891Y-57090000D01*
X157166645Y-57074776D01*
X157194776Y-57046645D01*
X157210000Y-57009891D01*
X157210000Y-56990000D01*
X157463553Y-56990000D01*
X157636776Y-57163223D01*
X157810000Y-57336446D01*
X157810001Y-57336446D01*
X157983223Y-57163223D01*
X158156446Y-56990000D01*
X158156446Y-56989999D01*
X158136556Y-56970109D01*
X158410000Y-56970109D01*
X158410000Y-57009891D01*
X158425224Y-57046645D01*
X158453355Y-57074776D01*
X158490109Y-57090000D01*
X158529891Y-57090000D01*
X158566645Y-57074776D01*
X158594776Y-57046645D01*
X158610000Y-57009891D01*
X158610000Y-56989999D01*
X158863553Y-56989999D01*
X158863553Y-56990000D01*
X159226660Y-57353107D01*
X159226661Y-57353107D01*
X159235333Y-57339307D01*
X159294878Y-57169138D01*
X159315062Y-56990002D01*
X159315062Y-56989997D01*
X159294878Y-56810861D01*
X159294877Y-56810858D01*
X159235337Y-56640701D01*
X159235335Y-56640697D01*
X159226660Y-56626891D01*
X158863553Y-56989999D01*
X158610000Y-56989999D01*
X158610000Y-56970109D01*
X158594776Y-56933355D01*
X158566645Y-56905224D01*
X158529891Y-56890000D01*
X158490109Y-56890000D01*
X158453355Y-56905224D01*
X158425224Y-56933355D01*
X158410000Y-56970109D01*
X158136556Y-56970109D01*
X157810000Y-56643553D01*
X157463553Y-56990000D01*
X157210000Y-56990000D01*
X157210000Y-56970109D01*
X157194776Y-56933355D01*
X157166645Y-56905224D01*
X157129891Y-56890000D01*
X157090109Y-56890000D01*
X157053355Y-56905224D01*
X157025224Y-56933355D01*
X157010000Y-56970109D01*
X156736556Y-56970109D01*
X156410000Y-56643553D01*
X156063553Y-56990000D01*
X155810000Y-56990000D01*
X155810000Y-56970109D01*
X155794776Y-56933355D01*
X155766645Y-56905224D01*
X155729891Y-56890000D01*
X155690109Y-56890000D01*
X155653355Y-56905224D01*
X155625224Y-56933355D01*
X155610000Y-56970109D01*
X155336556Y-56970109D01*
X154993338Y-56626890D01*
X154993338Y-56626891D01*
X154984664Y-56640696D01*
X154925122Y-56810858D01*
X154925121Y-56810861D01*
X154904938Y-56989997D01*
X147907148Y-56989997D01*
X147907148Y-56273338D01*
X155346890Y-56273338D01*
X155710000Y-56636446D01*
X155710001Y-56636446D01*
X155883223Y-56463223D01*
X156056446Y-56290000D01*
X156056446Y-56289999D01*
X156036556Y-56270109D01*
X156310000Y-56270109D01*
X156310000Y-56309891D01*
X156325224Y-56346645D01*
X156353355Y-56374776D01*
X156390109Y-56390000D01*
X156429891Y-56390000D01*
X156466645Y-56374776D01*
X156494776Y-56346645D01*
X156510000Y-56309891D01*
X156510000Y-56290000D01*
X156763553Y-56290000D01*
X156936776Y-56463223D01*
X157110000Y-56636446D01*
X157110001Y-56636446D01*
X157283223Y-56463223D01*
X157456446Y-56290000D01*
X157456446Y-56289999D01*
X157436556Y-56270109D01*
X157710000Y-56270109D01*
X157710000Y-56309891D01*
X157725224Y-56346645D01*
X157753355Y-56374776D01*
X157790109Y-56390000D01*
X157829891Y-56390000D01*
X157866645Y-56374776D01*
X157894776Y-56346645D01*
X157910000Y-56309891D01*
X157910000Y-56289999D01*
X158163553Y-56289999D01*
X158163553Y-56290000D01*
X158336776Y-56463223D01*
X158510000Y-56636446D01*
X158510001Y-56636446D01*
X158873108Y-56273338D01*
X158873108Y-56273337D01*
X158859308Y-56264667D01*
X158859298Y-56264662D01*
X158689137Y-56205120D01*
X158688346Y-56204940D01*
X158687886Y-56204683D01*
X158682571Y-56202823D01*
X158682896Y-56201891D01*
X158627370Y-56170827D01*
X158598049Y-56117124D01*
X158597177Y-56117430D01*
X158595322Y-56112130D01*
X158595057Y-56111644D01*
X158594878Y-56110859D01*
X158535337Y-55940701D01*
X158535335Y-55940697D01*
X158526660Y-55926891D01*
X158163553Y-56289999D01*
X157910000Y-56289999D01*
X157910000Y-56270109D01*
X157894776Y-56233355D01*
X157866645Y-56205224D01*
X157829891Y-56190000D01*
X157790109Y-56190000D01*
X157753355Y-56205224D01*
X157725224Y-56233355D01*
X157710000Y-56270109D01*
X157436556Y-56270109D01*
X157110001Y-55943553D01*
X157110000Y-55943553D01*
X156763553Y-56290000D01*
X156510000Y-56290000D01*
X156510000Y-56270109D01*
X156494776Y-56233355D01*
X156466645Y-56205224D01*
X156429891Y-56190000D01*
X156390109Y-56190000D01*
X156353355Y-56205224D01*
X156325224Y-56233355D01*
X156310000Y-56270109D01*
X156036556Y-56270109D01*
X155693338Y-55926890D01*
X155693338Y-55926891D01*
X155684665Y-55940695D01*
X155625118Y-56110869D01*
X155624939Y-56111656D01*
X155624683Y-56112112D01*
X155622823Y-56117430D01*
X155621890Y-56117103D01*
X155590824Y-56172631D01*
X155537125Y-56201952D01*
X155537430Y-56202823D01*
X155532143Y-56204672D01*
X155531656Y-56204939D01*
X155530869Y-56205118D01*
X155360695Y-56264665D01*
X155346891Y-56273338D01*
X155346890Y-56273338D01*
X147907148Y-56273338D01*
X147907148Y-55573338D01*
X156046890Y-55573338D01*
X156410000Y-55936446D01*
X156410001Y-55936446D01*
X156773108Y-55573338D01*
X157446890Y-55573338D01*
X157810000Y-55936446D01*
X157810001Y-55936446D01*
X158173108Y-55573338D01*
X158173108Y-55573337D01*
X158159308Y-55564667D01*
X158159298Y-55564662D01*
X157989141Y-55505122D01*
X157989138Y-55505121D01*
X157810003Y-55484938D01*
X157809997Y-55484938D01*
X157630861Y-55505121D01*
X157630858Y-55505122D01*
X157460696Y-55564664D01*
X157446891Y-55573338D01*
X157446890Y-55573338D01*
X156773108Y-55573338D01*
X156773108Y-55573337D01*
X156759308Y-55564667D01*
X156759298Y-55564662D01*
X156589141Y-55505122D01*
X156589138Y-55505121D01*
X156410003Y-55484938D01*
X156409997Y-55484938D01*
X156230861Y-55505121D01*
X156230858Y-55505122D01*
X156060696Y-55564664D01*
X156046891Y-55573338D01*
X156046890Y-55573338D01*
X147907148Y-55573338D01*
X147907148Y-54253143D01*
X147926833Y-54186104D01*
X147943463Y-54165466D01*
X148474038Y-53634890D01*
X148535359Y-53601407D01*
X148547831Y-53599353D01*
X148593653Y-53594190D01*
X148691041Y-53583218D01*
X148691044Y-53583217D01*
X148691047Y-53583217D01*
X148863015Y-53523043D01*
X149017281Y-53426111D01*
X149146111Y-53297281D01*
X149243043Y-53143015D01*
X149303217Y-52971047D01*
X149309903Y-52911710D01*
X149323616Y-52790003D01*
X149323616Y-52789996D01*
X149303218Y-52608958D01*
X149303217Y-52608953D01*
X149276003Y-52531181D01*
X149243043Y-52436985D01*
X149146111Y-52282719D01*
X149116073Y-52252681D01*
X149082588Y-52191358D01*
X149087572Y-52121666D01*
X149116073Y-52077319D01*
X149146111Y-52047281D01*
X149243043Y-51893015D01*
X149303217Y-51721047D01*
X149311355Y-51648824D01*
X149311356Y-51648818D01*
X176201500Y-51648818D01*
X176201500Y-52531181D01*
X176230025Y-52711283D01*
X176286377Y-52884714D01*
X176330367Y-52971047D01*
X176369162Y-53047186D01*
X176476346Y-53194712D01*
X176605288Y-53323654D01*
X176752814Y-53430838D01*
X176829575Y-53469950D01*
X176915285Y-53513622D01*
X176915287Y-53513622D01*
X176915290Y-53513624D01*
X176944279Y-53523043D01*
X177088716Y-53569974D01*
X177268819Y-53598500D01*
X177268824Y-53598500D01*
X177451181Y-53598500D01*
X177631283Y-53569974D01*
X177804710Y-53513624D01*
X177967186Y-53430838D01*
X178114712Y-53323654D01*
X178243654Y-53194712D01*
X178350838Y-53047186D01*
X178433624Y-52884710D01*
X178489974Y-52711283D01*
X178506181Y-52608958D01*
X178518500Y-52531181D01*
X178518500Y-51648818D01*
X178489974Y-51468716D01*
X178449311Y-51343569D01*
X178433624Y-51295290D01*
X178433622Y-51295287D01*
X178433622Y-51295285D01*
X178378441Y-51186988D01*
X178350838Y-51132814D01*
X178243654Y-50985288D01*
X178114712Y-50856346D01*
X177967186Y-50749162D01*
X177922482Y-50726384D01*
X177804714Y-50666377D01*
X177631283Y-50610025D01*
X177451181Y-50581500D01*
X177451176Y-50581500D01*
X177268824Y-50581500D01*
X177268819Y-50581500D01*
X177088716Y-50610025D01*
X176915285Y-50666377D01*
X176752813Y-50749162D01*
X176673266Y-50806957D01*
X176605288Y-50856346D01*
X176605286Y-50856348D01*
X176605285Y-50856348D01*
X176476348Y-50985285D01*
X176476348Y-50985286D01*
X176476346Y-50985288D01*
X176441886Y-51032718D01*
X176369162Y-51132813D01*
X176286377Y-51295285D01*
X176230025Y-51468716D01*
X176201500Y-51648818D01*
X149311356Y-51648818D01*
X149323616Y-51540003D01*
X149323616Y-51539996D01*
X149303218Y-51358958D01*
X149303217Y-51358953D01*
X149293125Y-51330113D01*
X149243043Y-51186985D01*
X149146111Y-51032719D01*
X149017281Y-50903889D01*
X148863015Y-50806957D01*
X148808693Y-50787949D01*
X148691046Y-50746782D01*
X148691041Y-50746781D01*
X148510004Y-50726384D01*
X148509996Y-50726384D01*
X148328958Y-50746781D01*
X148328953Y-50746782D01*
X148156982Y-50806958D01*
X148002718Y-50903889D01*
X147873889Y-51032718D01*
X147776956Y-51186984D01*
X147776955Y-51186988D01*
X147751041Y-51261046D01*
X147710320Y-51317822D01*
X147645367Y-51343569D01*
X147576805Y-51330113D01*
X147526402Y-51281725D01*
X147510000Y-51220091D01*
X147510000Y-46415983D01*
X147529685Y-46348944D01*
X147582489Y-46303189D01*
X147635965Y-46291999D01*
X178887971Y-46788063D01*
G37*
%TD.AperFunction*%
%TD*%
%TA.AperFunction,Conductor*%
%TO.N,GND*%
G36*
X147441203Y-78301541D02*
G01*
X147447681Y-78307573D01*
X147502719Y-78362611D01*
X147656985Y-78459543D01*
X147828953Y-78519717D01*
X147828958Y-78519718D01*
X148009996Y-78540116D01*
X148010000Y-78540116D01*
X148010004Y-78540116D01*
X148191041Y-78519718D01*
X148191044Y-78519717D01*
X148191047Y-78519717D01*
X148363015Y-78459543D01*
X148517281Y-78362611D01*
X148545073Y-78334819D01*
X148606396Y-78301334D01*
X148632754Y-78298500D01*
X149345968Y-78298500D01*
X149413007Y-78318185D01*
X149433649Y-78334819D01*
X149490046Y-78391216D01*
X149596544Y-78497714D01*
X149688224Y-78550645D01*
X149726972Y-78573017D01*
X149726973Y-78573017D01*
X149726976Y-78573019D01*
X149872455Y-78612000D01*
X150023065Y-78612000D01*
X151471708Y-78612000D01*
X151538747Y-78631685D01*
X151559389Y-78648319D01*
X153305135Y-80394065D01*
X153338620Y-80455388D01*
X153341454Y-80481746D01*
X153341454Y-85373513D01*
X153321769Y-85440552D01*
X153268965Y-85486307D01*
X153203571Y-85496733D01*
X153022958Y-85476384D01*
X153022950Y-85476384D01*
X152841912Y-85496781D01*
X152841907Y-85496782D01*
X152669936Y-85556958D01*
X152515672Y-85653889D01*
X152386843Y-85782718D01*
X152289912Y-85936982D01*
X152229736Y-86108953D01*
X152229735Y-86108958D01*
X152209338Y-86289996D01*
X152209338Y-86290003D01*
X152229735Y-86471041D01*
X152229736Y-86471046D01*
X152289912Y-86643017D01*
X152313305Y-86680246D01*
X152386843Y-86797281D01*
X152515673Y-86926111D01*
X152669939Y-87023043D01*
X152841907Y-87083217D01*
X152841912Y-87083218D01*
X152904336Y-87090251D01*
X152968750Y-87117317D01*
X153008306Y-87174911D01*
X153014454Y-87213471D01*
X153014454Y-93666000D01*
X152994769Y-93733039D01*
X152941965Y-93778794D01*
X152890454Y-93790000D01*
X148897552Y-93790000D01*
X148830513Y-93770315D01*
X148784758Y-93717511D01*
X148773552Y-93666000D01*
X148773552Y-93367740D01*
X148793237Y-93300701D01*
X148809871Y-93280059D01*
X150552286Y-91537644D01*
X152342714Y-89747216D01*
X152418019Y-89616784D01*
X152457000Y-89471306D01*
X152457000Y-89320695D01*
X152457000Y-89287754D01*
X152476685Y-89220715D01*
X152493319Y-89200073D01*
X152521111Y-89172281D01*
X152618043Y-89018015D01*
X152678217Y-88846047D01*
X152678218Y-88846041D01*
X152698616Y-88665003D01*
X152698616Y-88664996D01*
X152678218Y-88483958D01*
X152678217Y-88483953D01*
X152671721Y-88465388D01*
X152618043Y-88311985D01*
X152521111Y-88157719D01*
X152392281Y-88028889D01*
X152238015Y-87931957D01*
X152157801Y-87903889D01*
X152066046Y-87871782D01*
X152066041Y-87871781D01*
X151885004Y-87851384D01*
X151884996Y-87851384D01*
X151703954Y-87871782D01*
X151703953Y-87871782D01*
X151607594Y-87905499D01*
X151537816Y-87909060D01*
X151500669Y-87893451D01*
X151363017Y-87806958D01*
X151363016Y-87806957D01*
X151363015Y-87806957D01*
X151308693Y-87787949D01*
X151191046Y-87746782D01*
X151191041Y-87746781D01*
X151010004Y-87726384D01*
X151009996Y-87726384D01*
X150828958Y-87746781D01*
X150828953Y-87746782D01*
X150656982Y-87806958D01*
X150502718Y-87903889D01*
X150373889Y-88032718D01*
X150276958Y-88186982D01*
X150216782Y-88358953D01*
X150216781Y-88358958D01*
X150196384Y-88539996D01*
X150196384Y-88540003D01*
X150216781Y-88721041D01*
X150216782Y-88721046D01*
X150238363Y-88782719D01*
X150267976Y-88867350D01*
X150276958Y-88893017D01*
X150373889Y-89047281D01*
X150401681Y-89075073D01*
X150435166Y-89136396D01*
X150438000Y-89162754D01*
X150438000Y-89520259D01*
X150418315Y-89587298D01*
X150401681Y-89607940D01*
X149334521Y-90675099D01*
X149273198Y-90708584D01*
X149203506Y-90703600D01*
X149159159Y-90675099D01*
X149032578Y-90548518D01*
X148878314Y-90451587D01*
X148878313Y-90451586D01*
X148878312Y-90451586D01*
X148823990Y-90432578D01*
X148706343Y-90391411D01*
X148706338Y-90391410D01*
X148525301Y-90371013D01*
X148525293Y-90371013D01*
X148344255Y-90391410D01*
X148344250Y-90391411D01*
X148172279Y-90451587D01*
X148018015Y-90548518D01*
X147889186Y-90677347D01*
X147792255Y-90831611D01*
X147732079Y-91003582D01*
X147732078Y-91003587D01*
X147711681Y-91184625D01*
X147711681Y-91184632D01*
X147732078Y-91365670D01*
X147732079Y-91365675D01*
X147792255Y-91537646D01*
X147889186Y-91691910D01*
X148015767Y-91818491D01*
X148049252Y-91879814D01*
X148044268Y-91949506D01*
X148015767Y-91993853D01*
X147523336Y-92486286D01*
X147447681Y-92561941D01*
X147386358Y-92595426D01*
X147316666Y-92590442D01*
X147260733Y-92548570D01*
X147236316Y-92483106D01*
X147236000Y-92474260D01*
X147236000Y-86539996D01*
X148696384Y-86539996D01*
X148696384Y-86540003D01*
X148716781Y-86721041D01*
X148716782Y-86721046D01*
X148756032Y-86833215D01*
X148767826Y-86866921D01*
X148776958Y-86893017D01*
X148821310Y-86963603D01*
X148873889Y-87047281D01*
X149002719Y-87176111D01*
X149156985Y-87273043D01*
X149328953Y-87333217D01*
X149328958Y-87333218D01*
X149509996Y-87353616D01*
X149510000Y-87353616D01*
X149510004Y-87353616D01*
X149691041Y-87333218D01*
X149691044Y-87333217D01*
X149691047Y-87333217D01*
X149863015Y-87273043D01*
X150017281Y-87176111D01*
X150146111Y-87047281D01*
X150243043Y-86893015D01*
X150303217Y-86721047D01*
X150303218Y-86721041D01*
X150323616Y-86540003D01*
X150323616Y-86539996D01*
X150303218Y-86358958D01*
X150303217Y-86358953D01*
X150291362Y-86325073D01*
X150243043Y-86186985D01*
X150146111Y-86032719D01*
X150017281Y-85903889D01*
X149863015Y-85806957D01*
X149793744Y-85782718D01*
X149691046Y-85746782D01*
X149691041Y-85746781D01*
X149510004Y-85726384D01*
X149509996Y-85726384D01*
X149328958Y-85746781D01*
X149328953Y-85746782D01*
X149156982Y-85806958D01*
X149002718Y-85903889D01*
X148873889Y-86032718D01*
X148776958Y-86186982D01*
X148716782Y-86358953D01*
X148716781Y-86358958D01*
X148696384Y-86539996D01*
X147236000Y-86539996D01*
X147236000Y-78395254D01*
X147255685Y-78328215D01*
X147308489Y-78282460D01*
X147377647Y-78272516D01*
X147441203Y-78301541D01*
G37*
%TD.AperFunction*%
%TA.AperFunction,Conductor*%
G36*
X160162657Y-85708685D02*
G01*
X160183299Y-85725319D01*
X161234635Y-86776655D01*
X161268120Y-86837978D01*
X161263136Y-86907670D01*
X161221264Y-86963603D01*
X161160838Y-86987556D01*
X161078957Y-86996781D01*
X161078953Y-86996782D01*
X160906982Y-87056958D01*
X160752718Y-87153889D01*
X160623889Y-87282718D01*
X160526958Y-87436982D01*
X160466782Y-87608953D01*
X160466781Y-87608958D01*
X160446384Y-87789996D01*
X160446384Y-87790003D01*
X160466781Y-87971041D01*
X160466782Y-87971046D01*
X160526958Y-88143017D01*
X160536196Y-88157719D01*
X160623889Y-88297281D01*
X160752719Y-88426111D01*
X160815230Y-88465389D01*
X160861520Y-88517722D01*
X160872169Y-88586776D01*
X160843794Y-88650624D01*
X160836939Y-88658063D01*
X160712282Y-88782720D01*
X160615352Y-88936982D01*
X160555176Y-89108953D01*
X160555175Y-89108958D01*
X160534778Y-89289996D01*
X160534778Y-89290003D01*
X160555175Y-89471041D01*
X160555176Y-89471046D01*
X160591531Y-89574941D01*
X160615351Y-89643015D01*
X160712283Y-89797281D01*
X160841113Y-89926111D01*
X160995379Y-90023043D01*
X161167347Y-90083217D01*
X161167352Y-90083218D01*
X161348390Y-90103616D01*
X161348394Y-90103616D01*
X161348398Y-90103616D01*
X161529435Y-90083218D01*
X161529438Y-90083217D01*
X161529441Y-90083217D01*
X161701409Y-90023043D01*
X161855675Y-89926111D01*
X161984505Y-89797281D01*
X162066525Y-89666746D01*
X162118859Y-89620457D01*
X162187912Y-89609809D01*
X162251761Y-89638184D01*
X162259196Y-89645036D01*
X162540269Y-89926110D01*
X162774931Y-90160772D01*
X162808416Y-90222095D01*
X162804292Y-90289406D01*
X162781311Y-90355084D01*
X162765175Y-90498295D01*
X162738108Y-90562709D01*
X162729637Y-90572092D01*
X162454784Y-90846946D01*
X162370049Y-90931681D01*
X162308726Y-90965166D01*
X162282368Y-90968000D01*
X160472691Y-90968000D01*
X160405652Y-90948315D01*
X160385010Y-90931681D01*
X159452047Y-89998718D01*
X159418562Y-89937395D01*
X159422687Y-89870081D01*
X159432648Y-89841616D01*
X159432649Y-89841610D01*
X159453047Y-89660572D01*
X159453047Y-89660565D01*
X159432649Y-89479527D01*
X159432648Y-89479522D01*
X159415131Y-89429462D01*
X159372474Y-89307554D01*
X159275542Y-89153288D01*
X159146712Y-89024458D01*
X158992446Y-88927526D01*
X158951165Y-88913081D01*
X158820475Y-88867350D01*
X158753112Y-88859761D01*
X158688698Y-88832695D01*
X158649954Y-88777494D01*
X158633543Y-88730593D01*
X158633543Y-88730592D01*
X158572635Y-88633660D01*
X158536611Y-88576327D01*
X158407781Y-88447497D01*
X158394511Y-88439159D01*
X158253515Y-88350564D01*
X158253511Y-88350563D01*
X158230363Y-88342463D01*
X158173587Y-88301742D01*
X158147840Y-88236789D01*
X158161296Y-88168227D01*
X158183634Y-88137744D01*
X159467714Y-86853664D01*
X159511286Y-86778195D01*
X159543019Y-86723232D01*
X159582000Y-86577753D01*
X159582000Y-86412754D01*
X159601685Y-86345715D01*
X159618319Y-86325073D01*
X159646111Y-86297281D01*
X159743043Y-86143015D01*
X159803217Y-85971047D01*
X159815847Y-85858958D01*
X159822589Y-85799117D01*
X159849655Y-85734703D01*
X159907250Y-85695148D01*
X159945809Y-85689000D01*
X160095618Y-85689000D01*
X160162657Y-85708685D01*
G37*
%TD.AperFunction*%
%TA.AperFunction,Conductor*%
G36*
X165953039Y-77881685D02*
G01*
X165998794Y-77934489D01*
X166010000Y-77986000D01*
X166010000Y-81386669D01*
X165990315Y-81453708D01*
X165937511Y-81499463D01*
X165886000Y-81510669D01*
X165535312Y-81510669D01*
X165468273Y-81490984D01*
X165447631Y-81474350D01*
X165343865Y-81370584D01*
X165189601Y-81273653D01*
X165189600Y-81273652D01*
X165189599Y-81273652D01*
X165135277Y-81254644D01*
X165017630Y-81213477D01*
X165017625Y-81213476D01*
X164836588Y-81193079D01*
X164836580Y-81193079D01*
X164655542Y-81213476D01*
X164655537Y-81213477D01*
X164483566Y-81273653D01*
X164329302Y-81370584D01*
X164200473Y-81499413D01*
X164103542Y-81653677D01*
X164103540Y-81653682D01*
X164092508Y-81685207D01*
X164051785Y-81741982D01*
X163989353Y-81767469D01*
X163904976Y-81776976D01*
X163733001Y-81837152D01*
X163578736Y-81934084D01*
X163449907Y-82062913D01*
X163352976Y-82217177D01*
X163292800Y-82389148D01*
X163292799Y-82389153D01*
X163272402Y-82570191D01*
X163272402Y-82570198D01*
X163292799Y-82751236D01*
X163292800Y-82751241D01*
X163333967Y-82868888D01*
X163346214Y-82903889D01*
X163352976Y-82923212D01*
X163370454Y-82951028D01*
X163389454Y-83018265D01*
X163369086Y-83085100D01*
X163315819Y-83130314D01*
X163265460Y-83141000D01*
X160402413Y-83141000D01*
X160335374Y-83121315D01*
X160289619Y-83068511D01*
X160285376Y-83057968D01*
X160243043Y-82936985D01*
X160146111Y-82782719D01*
X160017281Y-82653889D01*
X159863015Y-82556957D01*
X159808693Y-82537949D01*
X159691046Y-82496782D01*
X159691041Y-82496781D01*
X159510004Y-82476384D01*
X159509996Y-82476384D01*
X159328958Y-82496781D01*
X159328953Y-82496782D01*
X159156982Y-82556958D01*
X159002717Y-82653889D01*
X158943364Y-82713242D01*
X158882040Y-82746726D01*
X158836588Y-82746494D01*
X158836468Y-82747562D01*
X158648504Y-82726384D01*
X158648496Y-82726384D01*
X158467458Y-82746781D01*
X158467453Y-82746782D01*
X158295482Y-82806958D01*
X158141218Y-82903889D01*
X158012389Y-83032718D01*
X157915458Y-83186982D01*
X157855282Y-83358953D01*
X157855281Y-83358958D01*
X157834884Y-83539996D01*
X157834884Y-83540003D01*
X157855281Y-83721041D01*
X157855283Y-83721049D01*
X157884469Y-83804458D01*
X157888030Y-83874237D01*
X157853301Y-83934864D01*
X157791307Y-83967091D01*
X157721732Y-83960685D01*
X157701455Y-83950405D01*
X157621872Y-83900399D01*
X157621869Y-83900397D01*
X157449896Y-83840221D01*
X157449891Y-83840220D01*
X157268854Y-83819823D01*
X157268846Y-83819823D01*
X157087808Y-83840220D01*
X157087803Y-83840221D01*
X156915832Y-83900397D01*
X156761568Y-83997328D01*
X156659135Y-84099762D01*
X156597812Y-84133247D01*
X156528120Y-84128263D01*
X156472187Y-84086391D01*
X156447770Y-84020927D01*
X156447454Y-84012081D01*
X156447454Y-83707157D01*
X156467139Y-83640118D01*
X156519943Y-83594363D01*
X156585337Y-83583937D01*
X156759996Y-83603616D01*
X156760000Y-83603616D01*
X156760004Y-83603616D01*
X156941041Y-83583218D01*
X156941044Y-83583217D01*
X156941047Y-83583217D01*
X157113015Y-83523043D01*
X157267281Y-83426111D01*
X157396111Y-83297281D01*
X157493043Y-83143015D01*
X157553217Y-82971047D01*
X157569353Y-82827833D01*
X157596419Y-82763420D01*
X157604882Y-82754046D01*
X160460611Y-79898319D01*
X160521934Y-79864834D01*
X160548292Y-79862000D01*
X163365910Y-79862000D01*
X163365911Y-79862000D01*
X163398670Y-79853222D01*
X163468520Y-79854883D01*
X163526383Y-79894045D01*
X163535758Y-79907024D01*
X163623884Y-80047275D01*
X163623889Y-80047281D01*
X163752719Y-80176111D01*
X163906985Y-80273043D01*
X164078953Y-80333217D01*
X164078958Y-80333218D01*
X164259996Y-80353616D01*
X164260000Y-80353616D01*
X164260004Y-80353616D01*
X164441041Y-80333218D01*
X164441044Y-80333217D01*
X164441047Y-80333217D01*
X164613015Y-80273043D01*
X164767281Y-80176111D01*
X164896111Y-80047281D01*
X164993043Y-79893015D01*
X165053217Y-79721047D01*
X165057611Y-79682053D01*
X165073616Y-79540003D01*
X165073616Y-79539996D01*
X165053218Y-79358958D01*
X165053217Y-79358953D01*
X164993043Y-79186985D01*
X164896111Y-79032719D01*
X164896109Y-79032717D01*
X164854606Y-78991213D01*
X164821122Y-78929890D01*
X164826107Y-78860198D01*
X164867979Y-78804265D01*
X164928408Y-78780312D01*
X164941047Y-78778889D01*
X165113015Y-78718715D01*
X165267281Y-78621783D01*
X165396111Y-78492953D01*
X165493043Y-78338687D01*
X165553217Y-78166719D01*
X165560614Y-78101069D01*
X165574396Y-77978753D01*
X165575700Y-77978900D01*
X165593301Y-77918961D01*
X165646105Y-77873206D01*
X165697616Y-77862000D01*
X165886000Y-77862000D01*
X165953039Y-77881685D01*
G37*
%TD.AperFunction*%
%TA.AperFunction,Conductor*%
G36*
X159283275Y-73618185D02*
G01*
X159329030Y-73670989D01*
X159338974Y-73740147D01*
X159321230Y-73788472D01*
X159246839Y-73906863D01*
X159186663Y-74078834D01*
X159186662Y-74078839D01*
X159166265Y-74259877D01*
X159166265Y-74259884D01*
X159186662Y-74440922D01*
X159186663Y-74440927D01*
X159225199Y-74551056D01*
X159245458Y-74608953D01*
X159246839Y-74612898D01*
X159343770Y-74767162D01*
X159472600Y-74895992D01*
X159626866Y-74992924D01*
X159798834Y-75053098D01*
X159798839Y-75053099D01*
X159979877Y-75073497D01*
X159979881Y-75073497D01*
X159979885Y-75073497D01*
X160160922Y-75053099D01*
X160160925Y-75053098D01*
X160160928Y-75053098D01*
X160332896Y-74992924D01*
X160487162Y-74895992D01*
X160615992Y-74767162D01*
X160712924Y-74612896D01*
X160773098Y-74440928D01*
X160773099Y-74440922D01*
X160793497Y-74259884D01*
X160793497Y-74259877D01*
X160773099Y-74078839D01*
X160773098Y-74078834D01*
X160733492Y-73965647D01*
X160712924Y-73906866D01*
X160638532Y-73788472D01*
X160619532Y-73721236D01*
X160639900Y-73654400D01*
X160693167Y-73609186D01*
X160743526Y-73598500D01*
X162271708Y-73598500D01*
X162338747Y-73618185D01*
X162359389Y-73634819D01*
X162978607Y-74254037D01*
X163012092Y-74315360D01*
X163014146Y-74327834D01*
X163030281Y-74471042D01*
X163030282Y-74471046D01*
X163090458Y-74643017D01*
X163131111Y-74707716D01*
X163187389Y-74797281D01*
X163316219Y-74926111D01*
X163470485Y-75023043D01*
X163614675Y-75073497D01*
X163642453Y-75083217D01*
X163642458Y-75083218D01*
X163823496Y-75103616D01*
X163823500Y-75103616D01*
X163823504Y-75103616D01*
X164004541Y-75083218D01*
X164004544Y-75083217D01*
X164004547Y-75083217D01*
X164176515Y-75023043D01*
X164330781Y-74926111D01*
X164459611Y-74797281D01*
X164556543Y-74643015D01*
X164616717Y-74471047D01*
X164620112Y-74440922D01*
X164633476Y-74322303D01*
X164660542Y-74257889D01*
X164690725Y-74231192D01*
X164748505Y-74194887D01*
X164877335Y-74066057D01*
X164911484Y-74011708D01*
X164963818Y-73965417D01*
X165032872Y-73954768D01*
X165096720Y-73983143D01*
X165104159Y-73989999D01*
X165973681Y-74859521D01*
X166007166Y-74920844D01*
X166010000Y-74947202D01*
X166010000Y-76267000D01*
X165990315Y-76334039D01*
X165937511Y-76379794D01*
X165886000Y-76391000D01*
X165322580Y-76391000D01*
X165255541Y-76371315D01*
X165217588Y-76332974D01*
X165146111Y-76219219D01*
X165017281Y-76090389D01*
X164973025Y-76062581D01*
X164863017Y-75993458D01*
X164863016Y-75993457D01*
X164863015Y-75993457D01*
X164808693Y-75974449D01*
X164691046Y-75933282D01*
X164691041Y-75933281D01*
X164510004Y-75912884D01*
X164509996Y-75912884D01*
X164328958Y-75933281D01*
X164328953Y-75933282D01*
X164156982Y-75993458D01*
X164002718Y-76090389D01*
X163873889Y-76219218D01*
X163776956Y-76373484D01*
X163776955Y-76373488D01*
X163742831Y-76471009D01*
X163702110Y-76527785D01*
X163637157Y-76553532D01*
X163584836Y-76547096D01*
X163441049Y-76496783D01*
X163441045Y-76496782D01*
X163434094Y-76495999D01*
X163369682Y-76468929D01*
X163342990Y-76438751D01*
X163248481Y-76288342D01*
X163119652Y-76159513D01*
X162965388Y-76062582D01*
X162965387Y-76062581D01*
X162965386Y-76062581D01*
X162911064Y-76043573D01*
X162793417Y-76002406D01*
X162793412Y-76002405D01*
X162612375Y-75982008D01*
X162612367Y-75982008D01*
X162431329Y-76002405D01*
X162431324Y-76002406D01*
X162259353Y-76062582D01*
X162105089Y-76159513D01*
X162077298Y-76187305D01*
X162015975Y-76220790D01*
X161989617Y-76223624D01*
X160679071Y-76223624D01*
X160590034Y-76247481D01*
X160533587Y-76262606D01*
X160533586Y-76262607D01*
X160491986Y-76286626D01*
X160491985Y-76286627D01*
X160403163Y-76337907D01*
X160403158Y-76337911D01*
X156980181Y-79760888D01*
X156918858Y-79794373D01*
X156849166Y-79789389D01*
X156793233Y-79747517D01*
X156768816Y-79682053D01*
X156768500Y-79673207D01*
X156768500Y-79604240D01*
X156788185Y-79537201D01*
X156804819Y-79516559D01*
X157699596Y-78621782D01*
X158606214Y-77715164D01*
X158611140Y-77706630D01*
X158617267Y-77696020D01*
X158617267Y-77696019D01*
X158681519Y-77584732D01*
X158720500Y-77439253D01*
X158720500Y-74853195D01*
X158712414Y-74823019D01*
X158681519Y-74707716D01*
X158626775Y-74612896D01*
X158606216Y-74577286D01*
X158606212Y-74577281D01*
X158354892Y-74325961D01*
X158321407Y-74264638D01*
X158319353Y-74252163D01*
X158303218Y-74108958D01*
X158303217Y-74108953D01*
X158275311Y-74029203D01*
X158243043Y-73936985D01*
X158149726Y-73788472D01*
X158130726Y-73721235D01*
X158151094Y-73654400D01*
X158204361Y-73609186D01*
X158254720Y-73598500D01*
X159216236Y-73598500D01*
X159283275Y-73618185D01*
G37*
%TD.AperFunction*%
%TA.AperFunction,Conductor*%
G36*
X151750747Y-73843685D02*
G01*
X151771389Y-73860319D01*
X151983658Y-74072588D01*
X152017143Y-74133911D01*
X152012159Y-74203603D01*
X151983658Y-74247950D01*
X151948889Y-74282718D01*
X151851958Y-74436982D01*
X151791782Y-74608953D01*
X151791781Y-74608958D01*
X151771384Y-74789996D01*
X151771384Y-74790003D01*
X151791781Y-74971041D01*
X151791782Y-74971046D01*
X151799437Y-74992922D01*
X151845922Y-75125769D01*
X151851958Y-75143017D01*
X151866041Y-75165430D01*
X151948889Y-75297281D01*
X152077719Y-75426111D01*
X152231985Y-75523043D01*
X152374635Y-75572958D01*
X152431411Y-75613680D01*
X152457158Y-75678633D01*
X152443702Y-75747194D01*
X152395315Y-75797597D01*
X152333680Y-75814000D01*
X150894292Y-75814000D01*
X150827253Y-75794315D01*
X150806611Y-75777681D01*
X149534217Y-74505287D01*
X149534216Y-74505286D01*
X149492818Y-74481385D01*
X149403784Y-74429981D01*
X149258305Y-74391000D01*
X149258303Y-74391000D01*
X149205317Y-74391000D01*
X149138278Y-74371315D01*
X149100323Y-74332972D01*
X149057386Y-74264638D01*
X149019111Y-74203724D01*
X148890281Y-74074894D01*
X148855426Y-74052993D01*
X148809136Y-74000659D01*
X148798488Y-73931606D01*
X148826863Y-73867757D01*
X148885253Y-73829385D01*
X148921399Y-73824000D01*
X151683708Y-73824000D01*
X151750747Y-73843685D01*
G37*
%TD.AperFunction*%
%TD*%
M02*
