G04 #@! TF.GenerationSoftware,KiCad,Pcbnew,(7.0.0-0)*
G04 #@! TF.CreationDate,2023-04-29T12:32:17-06:00*
G04 #@! TF.ProjectId,EV6 Board Design,45563620-426f-4617-9264-204465736967,rev?*
G04 #@! TF.SameCoordinates,Original*
G04 #@! TF.FileFunction,Copper,L1,Top*
G04 #@! TF.FilePolarity,Positive*
%FSLAX46Y46*%
G04 Gerber Fmt 4.6, Leading zero omitted, Abs format (unit mm)*
G04 Created by KiCad (PCBNEW (7.0.0-0)) date 2023-04-29 12:32:17*
%MOMM*%
%LPD*%
G01*
G04 APERTURE LIST*
G04 Aperture macros list*
%AMRoundRect*
0 Rectangle with rounded corners*
0 $1 Rounding radius*
0 $2 $3 $4 $5 $6 $7 $8 $9 X,Y pos of 4 corners*
0 Add a 4 corners polygon primitive as box body*
4,1,4,$2,$3,$4,$5,$6,$7,$8,$9,$2,$3,0*
0 Add four circle primitives for the rounded corners*
1,1,$1+$1,$2,$3*
1,1,$1+$1,$4,$5*
1,1,$1+$1,$6,$7*
1,1,$1+$1,$8,$9*
0 Add four rect primitives between the rounded corners*
20,1,$1+$1,$2,$3,$4,$5,0*
20,1,$1+$1,$4,$5,$6,$7,0*
20,1,$1+$1,$6,$7,$8,$9,0*
20,1,$1+$1,$8,$9,$2,$3,0*%
G04 Aperture macros list end*
G04 #@! TA.AperFunction,SMDPad,CuDef*
%ADD10RoundRect,0.135000X-0.135000X-0.185000X0.135000X-0.185000X0.135000X0.185000X-0.135000X0.185000X0*%
G04 #@! TD*
G04 #@! TA.AperFunction,SMDPad,CuDef*
%ADD11RoundRect,0.140000X0.140000X0.170000X-0.140000X0.170000X-0.140000X-0.170000X0.140000X-0.170000X0*%
G04 #@! TD*
G04 #@! TA.AperFunction,SMDPad,CuDef*
%ADD12R,1.422400X0.533400*%
G04 #@! TD*
G04 #@! TA.AperFunction,SMDPad,CuDef*
%ADD13RoundRect,0.140000X-0.140000X-0.170000X0.140000X-0.170000X0.140000X0.170000X-0.140000X0.170000X0*%
G04 #@! TD*
G04 #@! TA.AperFunction,SMDPad,CuDef*
%ADD14R,0.600000X0.450000*%
G04 #@! TD*
G04 #@! TA.AperFunction,SMDPad,CuDef*
%ADD15RoundRect,0.075000X0.075000X-0.662500X0.075000X0.662500X-0.075000X0.662500X-0.075000X-0.662500X0*%
G04 #@! TD*
G04 #@! TA.AperFunction,SMDPad,CuDef*
%ADD16RoundRect,0.075000X0.662500X-0.075000X0.662500X0.075000X-0.662500X0.075000X-0.662500X-0.075000X0*%
G04 #@! TD*
G04 #@! TA.AperFunction,SMDPad,CuDef*
%ADD17RoundRect,0.140000X0.170000X-0.140000X0.170000X0.140000X-0.170000X0.140000X-0.170000X-0.140000X0*%
G04 #@! TD*
G04 #@! TA.AperFunction,SMDPad,CuDef*
%ADD18RoundRect,0.250000X-0.475000X0.250000X-0.475000X-0.250000X0.475000X-0.250000X0.475000X0.250000X0*%
G04 #@! TD*
G04 #@! TA.AperFunction,SMDPad,CuDef*
%ADD19RoundRect,0.135000X-0.185000X0.135000X-0.185000X-0.135000X0.185000X-0.135000X0.185000X0.135000X0*%
G04 #@! TD*
G04 #@! TA.AperFunction,SMDPad,CuDef*
%ADD20RoundRect,0.140000X-0.170000X0.140000X-0.170000X-0.140000X0.170000X-0.140000X0.170000X0.140000X0*%
G04 #@! TD*
G04 #@! TA.AperFunction,SMDPad,CuDef*
%ADD21RoundRect,0.250000X1.500000X-0.250000X1.500000X0.250000X-1.500000X0.250000X-1.500000X-0.250000X0*%
G04 #@! TD*
G04 #@! TA.AperFunction,SMDPad,CuDef*
%ADD22RoundRect,0.250001X1.449999X-0.499999X1.449999X0.499999X-1.449999X0.499999X-1.449999X-0.499999X0*%
G04 #@! TD*
G04 #@! TA.AperFunction,SMDPad,CuDef*
%ADD23R,0.400000X0.410000*%
G04 #@! TD*
G04 #@! TA.AperFunction,SMDPad,CuDef*
%ADD24R,0.400000X0.200000*%
G04 #@! TD*
G04 #@! TA.AperFunction,SMDPad,CuDef*
%ADD25RoundRect,0.075000X0.700000X0.075000X-0.700000X0.075000X-0.700000X-0.075000X0.700000X-0.075000X0*%
G04 #@! TD*
G04 #@! TA.AperFunction,SMDPad,CuDef*
%ADD26RoundRect,0.075000X0.075000X0.700000X-0.075000X0.700000X-0.075000X-0.700000X0.075000X-0.700000X0*%
G04 #@! TD*
G04 #@! TA.AperFunction,SMDPad,CuDef*
%ADD27RoundRect,0.135000X0.185000X-0.135000X0.185000X0.135000X-0.185000X0.135000X-0.185000X-0.135000X0*%
G04 #@! TD*
G04 #@! TA.AperFunction,SMDPad,CuDef*
%ADD28R,0.500000X1.700000*%
G04 #@! TD*
G04 #@! TA.AperFunction,SMDPad,CuDef*
%ADD29R,1.200000X2.500000*%
G04 #@! TD*
G04 #@! TA.AperFunction,SMDPad,CuDef*
%ADD30RoundRect,0.218750X-0.218750X-0.256250X0.218750X-0.256250X0.218750X0.256250X-0.218750X0.256250X0*%
G04 #@! TD*
G04 #@! TA.AperFunction,SMDPad,CuDef*
%ADD31RoundRect,0.135000X0.135000X0.185000X-0.135000X0.185000X-0.135000X-0.185000X0.135000X-0.185000X0*%
G04 #@! TD*
G04 #@! TA.AperFunction,ComponentPad*
%ADD32R,1.700000X1.700000*%
G04 #@! TD*
G04 #@! TA.AperFunction,ComponentPad*
%ADD33O,1.700000X1.700000*%
G04 #@! TD*
G04 #@! TA.AperFunction,SMDPad,CuDef*
%ADD34RoundRect,0.250000X0.650000X-0.325000X0.650000X0.325000X-0.650000X0.325000X-0.650000X-0.325000X0*%
G04 #@! TD*
G04 #@! TA.AperFunction,SMDPad,CuDef*
%ADD35RoundRect,0.243750X0.456250X-0.243750X0.456250X0.243750X-0.456250X0.243750X-0.456250X-0.243750X0*%
G04 #@! TD*
G04 #@! TA.AperFunction,SMDPad,CuDef*
%ADD36RoundRect,0.250000X0.250000X1.500000X-0.250000X1.500000X-0.250000X-1.500000X0.250000X-1.500000X0*%
G04 #@! TD*
G04 #@! TA.AperFunction,SMDPad,CuDef*
%ADD37RoundRect,0.250001X0.499999X1.449999X-0.499999X1.449999X-0.499999X-1.449999X0.499999X-1.449999X0*%
G04 #@! TD*
G04 #@! TA.AperFunction,SMDPad,CuDef*
%ADD38R,1.120000X2.160000*%
G04 #@! TD*
G04 #@! TA.AperFunction,SMDPad,CuDef*
%ADD39RoundRect,0.007500X-0.372500X-0.117500X0.372500X-0.117500X0.372500X0.117500X-0.372500X0.117500X0*%
G04 #@! TD*
G04 #@! TA.AperFunction,SMDPad,CuDef*
%ADD40RoundRect,0.007500X0.117500X-0.372500X0.117500X0.372500X-0.117500X0.372500X-0.117500X-0.372500X0*%
G04 #@! TD*
G04 #@! TA.AperFunction,SMDPad,CuDef*
%ADD41R,3.650000X3.650000*%
G04 #@! TD*
G04 #@! TA.AperFunction,SMDPad,CuDef*
%ADD42RoundRect,0.250000X0.475000X-0.250000X0.475000X0.250000X-0.475000X0.250000X-0.475000X-0.250000X0*%
G04 #@! TD*
G04 #@! TA.AperFunction,SMDPad,CuDef*
%ADD43R,0.400000X0.600000*%
G04 #@! TD*
G04 #@! TA.AperFunction,SMDPad,CuDef*
%ADD44RoundRect,0.150000X0.150000X-0.825000X0.150000X0.825000X-0.150000X0.825000X-0.150000X-0.825000X0*%
G04 #@! TD*
G04 #@! TA.AperFunction,SMDPad,CuDef*
%ADD45R,1.500000X2.000000*%
G04 #@! TD*
G04 #@! TA.AperFunction,SMDPad,CuDef*
%ADD46R,3.800000X2.000000*%
G04 #@! TD*
G04 #@! TA.AperFunction,SMDPad,CuDef*
%ADD47R,1.500000X0.900000*%
G04 #@! TD*
G04 #@! TA.AperFunction,SMDPad,CuDef*
%ADD48R,0.900000X1.500000*%
G04 #@! TD*
G04 #@! TA.AperFunction,ComponentPad*
%ADD49C,0.500000*%
G04 #@! TD*
G04 #@! TA.AperFunction,SMDPad,CuDef*
%ADD50R,3.900000X3.900000*%
G04 #@! TD*
G04 #@! TA.AperFunction,SMDPad,CuDef*
%ADD51RoundRect,0.250000X-0.250000X-1.500000X0.250000X-1.500000X0.250000X1.500000X-0.250000X1.500000X0*%
G04 #@! TD*
G04 #@! TA.AperFunction,SMDPad,CuDef*
%ADD52RoundRect,0.250001X-0.499999X-1.449999X0.499999X-1.449999X0.499999X1.449999X-0.499999X1.449999X0*%
G04 #@! TD*
G04 #@! TA.AperFunction,SMDPad,CuDef*
%ADD53RoundRect,0.250000X-1.500000X0.250000X-1.500000X-0.250000X1.500000X-0.250000X1.500000X0.250000X0*%
G04 #@! TD*
G04 #@! TA.AperFunction,SMDPad,CuDef*
%ADD54RoundRect,0.250001X-1.449999X0.499999X-1.449999X-0.499999X1.449999X-0.499999X1.449999X0.499999X0*%
G04 #@! TD*
G04 #@! TA.AperFunction,SMDPad,CuDef*
%ADD55R,0.600000X1.450000*%
G04 #@! TD*
G04 #@! TA.AperFunction,SMDPad,CuDef*
%ADD56R,0.300000X1.450000*%
G04 #@! TD*
G04 #@! TA.AperFunction,ComponentPad*
%ADD57O,1.000000X2.100000*%
G04 #@! TD*
G04 #@! TA.AperFunction,ComponentPad*
%ADD58O,1.000000X1.600000*%
G04 #@! TD*
G04 #@! TA.AperFunction,SMDPad,CuDef*
%ADD59R,0.500000X0.375000*%
G04 #@! TD*
G04 #@! TA.AperFunction,SMDPad,CuDef*
%ADD60R,0.650000X0.300000*%
G04 #@! TD*
G04 #@! TA.AperFunction,SMDPad,CuDef*
%ADD61RoundRect,0.150000X-0.150000X0.512500X-0.150000X-0.512500X0.150000X-0.512500X0.150000X0.512500X0*%
G04 #@! TD*
G04 #@! TA.AperFunction,SMDPad,CuDef*
%ADD62R,1.400000X1.200000*%
G04 #@! TD*
G04 #@! TA.AperFunction,ViaPad*
%ADD63C,0.600000*%
G04 #@! TD*
G04 #@! TA.AperFunction,ViaPad*
%ADD64C,0.350000*%
G04 #@! TD*
G04 #@! TA.AperFunction,ViaPad*
%ADD65C,0.800000*%
G04 #@! TD*
G04 #@! TA.AperFunction,Conductor*
%ADD66C,0.127000*%
G04 #@! TD*
G04 #@! TA.AperFunction,Conductor*
%ADD67C,0.500000*%
G04 #@! TD*
G04 #@! TA.AperFunction,Conductor*
%ADD68C,0.200000*%
G04 #@! TD*
G04 #@! TA.AperFunction,Conductor*
%ADD69C,0.250000*%
G04 #@! TD*
G04 APERTURE END LIST*
D10*
X125577500Y-122725000D03*
X126597500Y-122725000D03*
D11*
X144467500Y-110225000D03*
X143507500Y-110225000D03*
D12*
X133893499Y-113969999D03*
X133893499Y-115239999D03*
X133893499Y-116509999D03*
X133893499Y-117779999D03*
X139481499Y-117779999D03*
X139481499Y-116509999D03*
X139481499Y-115239999D03*
X139481499Y-113969999D03*
D13*
X142157500Y-109025000D03*
X143117500Y-109025000D03*
D14*
X130337499Y-100934999D03*
X132437499Y-100934999D03*
D15*
X169787500Y-102287500D03*
X170287500Y-102287500D03*
X170787500Y-102287500D03*
X171287500Y-102287500D03*
X171787500Y-102287500D03*
X172287500Y-102287500D03*
X172787500Y-102287500D03*
X173287500Y-102287500D03*
X173787500Y-102287500D03*
X174287500Y-102287500D03*
X174787500Y-102287500D03*
X175287500Y-102287500D03*
D16*
X176700000Y-100875000D03*
X176700000Y-100375000D03*
X176700000Y-99875000D03*
X176700000Y-99375000D03*
X176700000Y-98875000D03*
X176700000Y-98375000D03*
X176700000Y-97875000D03*
X176700000Y-97375000D03*
X176700000Y-96875000D03*
X176700000Y-96375000D03*
X176700000Y-95875000D03*
X176700000Y-95375000D03*
D15*
X175287500Y-93962500D03*
X174787500Y-93962500D03*
X174287500Y-93962500D03*
X173787500Y-93962500D03*
X173287500Y-93962500D03*
X172787500Y-93962500D03*
X172287500Y-93962500D03*
X171787500Y-93962500D03*
X171287500Y-93962500D03*
X170787500Y-93962500D03*
X170287500Y-93962500D03*
X169787500Y-93962500D03*
D16*
X168375000Y-95375000D03*
X168375000Y-95875000D03*
X168375000Y-96375000D03*
X168375000Y-96875000D03*
X168375000Y-97375000D03*
X168375000Y-97875000D03*
X168375000Y-98375000D03*
X168375000Y-98875000D03*
X168375000Y-99375000D03*
X168375000Y-99875000D03*
X168375000Y-100375000D03*
X168375000Y-100875000D03*
D11*
X138287500Y-112435000D03*
X137327500Y-112435000D03*
D17*
X145637500Y-99505000D03*
X145637500Y-98545000D03*
D18*
X168737500Y-105725000D03*
X168737500Y-107625000D03*
D17*
X168737500Y-112455000D03*
X168737500Y-111495000D03*
D19*
X149137500Y-134165000D03*
X149137500Y-135185000D03*
D20*
X173777500Y-86055000D03*
X173777500Y-87015000D03*
D17*
X136087500Y-99885000D03*
X136087500Y-98925000D03*
D19*
X138587500Y-98925000D03*
X138587500Y-99945000D03*
D21*
X178437500Y-134325000D03*
X178437500Y-132325000D03*
X178437500Y-130325000D03*
X178437500Y-128325000D03*
X178437500Y-126325000D03*
X178437500Y-124325000D03*
D22*
X184187500Y-136675000D03*
X184187500Y-121975000D03*
D23*
X136227499Y-131539999D03*
D24*
X136227499Y-131034999D03*
X136227499Y-130634999D03*
X136227499Y-130232923D03*
X136227499Y-129834999D03*
X136227499Y-129434999D03*
X136227499Y-129034999D03*
X136227499Y-128634999D03*
X136227499Y-128234999D03*
X136227499Y-127834999D03*
X136227499Y-127434999D03*
X136227499Y-127034999D03*
X136227499Y-126634999D03*
D23*
X136227499Y-126129999D03*
X138107499Y-126129999D03*
D24*
X138107499Y-126634999D03*
X138107499Y-127034999D03*
X138107499Y-127434999D03*
X138107499Y-127834999D03*
X138107499Y-128234999D03*
X138107499Y-128634999D03*
X138107499Y-129034999D03*
X138107499Y-129434999D03*
X138107499Y-129834999D03*
X138107499Y-130232923D03*
X138107499Y-130634999D03*
X138107499Y-131034999D03*
D23*
X138107499Y-131539999D03*
D25*
X156062500Y-109175000D03*
X156062500Y-108675000D03*
X156062500Y-108175000D03*
X156062500Y-107675000D03*
X156062500Y-107175000D03*
X156062500Y-106675000D03*
X156062500Y-106175000D03*
X156062500Y-105675000D03*
X156062500Y-105175000D03*
X156062500Y-104675000D03*
X156062500Y-104175000D03*
X156062500Y-103675000D03*
X156062500Y-103175000D03*
X156062500Y-102675000D03*
X156062500Y-102175000D03*
X156062500Y-101675000D03*
D26*
X154137500Y-99750000D03*
X153637500Y-99750000D03*
X153137500Y-99750000D03*
X152637500Y-99750000D03*
X152137500Y-99750000D03*
X151637500Y-99750000D03*
X151137500Y-99750000D03*
X150637500Y-99750000D03*
X150137500Y-99750000D03*
X149637500Y-99750000D03*
X149137500Y-99750000D03*
X148637500Y-99750000D03*
X148137500Y-99750000D03*
X147637500Y-99750000D03*
X147137500Y-99750000D03*
X146637500Y-99750000D03*
D25*
X144712500Y-101675000D03*
X144712500Y-102175000D03*
X144712500Y-102675000D03*
X144712500Y-103175000D03*
X144712500Y-103675000D03*
X144712500Y-104175000D03*
X144712500Y-104675000D03*
X144712500Y-105175000D03*
X144712500Y-105675000D03*
X144712500Y-106175000D03*
X144712500Y-106675000D03*
X144712500Y-107175000D03*
X144712500Y-107675000D03*
X144712500Y-108175000D03*
X144712500Y-108675000D03*
X144712500Y-109175000D03*
D26*
X146637500Y-111100000D03*
X147137500Y-111100000D03*
X147637500Y-111100000D03*
X148137500Y-111100000D03*
X148637500Y-111100000D03*
X149137500Y-111100000D03*
X149637500Y-111100000D03*
X150137500Y-111100000D03*
X150637500Y-111100000D03*
X151137500Y-111100000D03*
X151637500Y-111100000D03*
X152137500Y-111100000D03*
X152637500Y-111100000D03*
X153137500Y-111100000D03*
X153637500Y-111100000D03*
X154137500Y-111100000D03*
D27*
X159677500Y-109235000D03*
X159677500Y-108215000D03*
D17*
X163037500Y-119505000D03*
X163037500Y-118545000D03*
D28*
X125367499Y-63524999D03*
X124367499Y-63524999D03*
X123367499Y-63524999D03*
X122367499Y-63524999D03*
D29*
X126467499Y-60124999D03*
X121267499Y-60124999D03*
D30*
X160950000Y-103425000D03*
X162525000Y-103425000D03*
D27*
X137587500Y-73535000D03*
X137587500Y-72515000D03*
D19*
X128687500Y-72515000D03*
X128687500Y-73535000D03*
D17*
X180587500Y-98005000D03*
X180587500Y-97045000D03*
D10*
X125477500Y-124725000D03*
X126497500Y-124725000D03*
D31*
X142907500Y-70325000D03*
X141887500Y-70325000D03*
D19*
X139937500Y-98915000D03*
X139937500Y-99935000D03*
X118107500Y-137515000D03*
X118107500Y-138535000D03*
D17*
X154787500Y-130555000D03*
X154787500Y-129595000D03*
D32*
X183087499Y-79884999D03*
D33*
X183087499Y-82424999D03*
X183087499Y-84964999D03*
X183087499Y-87504999D03*
X183087499Y-90044999D03*
X183087499Y-92584999D03*
X183087499Y-95124999D03*
X183087499Y-97664999D03*
D20*
X158587500Y-102995000D03*
X158587500Y-103955000D03*
D19*
X133237500Y-72515000D03*
X133237500Y-73535000D03*
X134287500Y-72515000D03*
X134287500Y-73535000D03*
D20*
X146687500Y-97145000D03*
X146687500Y-98105000D03*
D19*
X135337500Y-72515000D03*
X135337500Y-73535000D03*
D28*
X132237499Y-63504999D03*
X131237499Y-63504999D03*
X130237499Y-63504999D03*
X129237499Y-63504999D03*
D29*
X133337499Y-60104999D03*
X128137499Y-60104999D03*
D27*
X138637500Y-73535000D03*
X138637500Y-72515000D03*
D21*
X178437500Y-117125000D03*
X178437500Y-115125000D03*
D22*
X184187500Y-119475000D03*
X184187500Y-112775000D03*
D19*
X129147500Y-65115000D03*
X129147500Y-66135000D03*
D34*
X166437500Y-109180000D03*
X166437500Y-106230000D03*
D13*
X161907500Y-117275000D03*
X162867500Y-117275000D03*
D20*
X163787500Y-102995000D03*
X163787500Y-103955000D03*
D27*
X130937500Y-73535000D03*
X130937500Y-72515000D03*
D10*
X165727500Y-99205000D03*
X166747500Y-99205000D03*
D27*
X174137500Y-109575000D03*
X174137500Y-108555000D03*
D11*
X154567500Y-112825000D03*
X153607500Y-112825000D03*
D28*
X174167499Y-127314999D03*
X173167499Y-127314999D03*
X172167499Y-127314999D03*
X171167499Y-127314999D03*
D29*
X175267499Y-123914999D03*
X170067499Y-123914999D03*
D19*
X137937500Y-104365000D03*
X137937500Y-105385000D03*
D27*
X136537500Y-73535000D03*
X136537500Y-72515000D03*
D19*
X152087500Y-134015000D03*
X152087500Y-135035000D03*
D17*
X177437500Y-94255000D03*
X177437500Y-93295000D03*
X147887500Y-135155000D03*
X147887500Y-134195000D03*
D27*
X147487500Y-88035000D03*
X147487500Y-87015000D03*
D14*
X130337499Y-103864999D03*
X132437499Y-103864999D03*
D19*
X135627500Y-137625000D03*
X135627500Y-138645000D03*
D35*
X143997500Y-135002500D03*
X143997500Y-133127500D03*
D36*
X172537500Y-64275000D03*
X170537500Y-64275000D03*
D37*
X174887500Y-58525000D03*
X168187500Y-58525000D03*
D13*
X164507500Y-120075000D03*
X165467500Y-120075000D03*
D38*
X158687499Y-64589999D03*
X158687499Y-57859999D03*
D19*
X126637500Y-72515000D03*
X126637500Y-73535000D03*
D39*
X164365000Y-114575000D03*
X164365000Y-115075000D03*
X164365000Y-115575000D03*
X164365000Y-116075000D03*
X164365000Y-116575000D03*
X164365000Y-117075000D03*
X164365000Y-117575000D03*
X164365000Y-118075000D03*
D40*
X165090000Y-118800000D03*
X165590000Y-118800000D03*
X166090000Y-118800000D03*
X166590000Y-118800000D03*
X167090000Y-118800000D03*
X167590000Y-118800000D03*
X168090000Y-118800000D03*
X168590000Y-118800000D03*
D39*
X169315000Y-118075000D03*
X169315000Y-117575000D03*
X169315000Y-117075000D03*
X169315000Y-116575000D03*
X169315000Y-116075000D03*
X169315000Y-115575000D03*
X169315000Y-115075000D03*
X169315000Y-114575000D03*
D40*
X168590000Y-113850000D03*
X168090000Y-113850000D03*
X167590000Y-113850000D03*
X167090000Y-113850000D03*
X166590000Y-113850000D03*
X166090000Y-113850000D03*
X165590000Y-113850000D03*
X165090000Y-113850000D03*
D41*
X166839999Y-116324999D03*
D42*
X175187500Y-107075000D03*
X175187500Y-105175000D03*
D31*
X162897500Y-113075000D03*
X161877500Y-113075000D03*
D19*
X127662500Y-72515000D03*
X127662500Y-73535000D03*
D34*
X164007500Y-109180000D03*
X164007500Y-106230000D03*
D10*
X125477500Y-116675000D03*
X126497500Y-116675000D03*
D43*
X153662499Y-61694999D03*
X153662499Y-60294999D03*
X154462499Y-60294999D03*
X154462499Y-61694999D03*
D19*
X137987500Y-101435000D03*
X137987500Y-102455000D03*
X130217500Y-65125000D03*
X130217500Y-66145000D03*
D38*
X117067499Y-64739999D03*
X117067499Y-58009999D03*
D44*
X151492500Y-126370000D03*
X152762500Y-126370000D03*
X154032500Y-126370000D03*
X155302500Y-126370000D03*
X156572500Y-126370000D03*
X157842500Y-126370000D03*
X159112500Y-126370000D03*
X160382500Y-126370000D03*
X160382500Y-121420000D03*
X159112500Y-121420000D03*
X157842500Y-121420000D03*
X156572500Y-121420000D03*
X155302500Y-121420000D03*
X154032500Y-121420000D03*
X152762500Y-121420000D03*
X151492500Y-121420000D03*
D27*
X131987500Y-73535000D03*
X131987500Y-72515000D03*
D28*
X134637499Y-140394999D03*
X135637499Y-140394999D03*
X136637499Y-140394999D03*
X137637499Y-140394999D03*
D29*
X133537499Y-143794999D03*
X138737499Y-143794999D03*
D31*
X137627500Y-132905000D03*
X136607500Y-132905000D03*
D38*
X163937499Y-64539999D03*
X163937499Y-57809999D03*
D10*
X125477500Y-120625000D03*
X126497500Y-120625000D03*
D13*
X161907500Y-116225000D03*
X162867500Y-116225000D03*
X170497500Y-116405000D03*
X171457500Y-116405000D03*
D28*
X127757499Y-140424999D03*
X128757499Y-140424999D03*
X129757499Y-140424999D03*
X130757499Y-140424999D03*
D29*
X126657499Y-143824999D03*
X131857499Y-143824999D03*
D45*
X167087499Y-88184999D03*
X169387499Y-88184999D03*
D46*
X169387499Y-81884999D03*
D45*
X171687499Y-88184999D03*
D43*
X138662499Y-61694999D03*
X138662499Y-60294999D03*
X139462499Y-60294999D03*
X139462499Y-61694999D03*
D47*
X144487499Y-67789999D03*
X144487499Y-69059999D03*
X144487499Y-70329999D03*
X144487499Y-71599999D03*
X144487499Y-72869999D03*
X144487499Y-74139999D03*
X144487499Y-75409999D03*
X144487499Y-76679999D03*
X144487499Y-77949999D03*
X144487499Y-79219999D03*
X144487499Y-80489999D03*
X144487499Y-81759999D03*
X144487499Y-83029999D03*
X144487499Y-84299999D03*
D48*
X146252499Y-85549999D03*
X147522499Y-85549999D03*
X148792499Y-85549999D03*
X150062499Y-85549999D03*
X151332499Y-85549999D03*
X152602499Y-85549999D03*
X153872499Y-85549999D03*
X155142499Y-85549999D03*
X156412499Y-85549999D03*
X157682499Y-85549999D03*
X158952499Y-85549999D03*
X160222499Y-85549999D03*
D47*
X161987499Y-84299999D03*
X161987499Y-83029999D03*
X161987499Y-81759999D03*
X161987499Y-80489999D03*
X161987499Y-79219999D03*
X161987499Y-77949999D03*
X161987499Y-76679999D03*
X161987499Y-75409999D03*
X161987499Y-74139999D03*
X161987499Y-72869999D03*
X161987499Y-71599999D03*
X161987499Y-70329999D03*
X161987499Y-69059999D03*
X161987499Y-67789999D03*
D49*
X150337500Y-74810000D03*
X150337500Y-76210000D03*
X151037500Y-74110000D03*
X151037500Y-75510000D03*
X151037500Y-76910000D03*
X151737500Y-74810000D03*
D50*
X151737499Y-75509999D03*
D49*
X151737500Y-76210000D03*
X152437500Y-74110000D03*
X152437500Y-75510000D03*
X152437500Y-76910000D03*
X153137500Y-74810000D03*
X153137500Y-76210000D03*
D13*
X161907500Y-115175000D03*
X162867500Y-115175000D03*
D20*
X164537500Y-111495000D03*
X164537500Y-112455000D03*
D51*
X160237500Y-137175000D03*
X162237500Y-137175000D03*
X164237500Y-137175000D03*
X166237500Y-137175000D03*
X168237500Y-137175000D03*
X170237500Y-137175000D03*
D52*
X157887500Y-142925000D03*
X172587500Y-142925000D03*
D17*
X152297500Y-129135000D03*
X152297500Y-128175000D03*
D53*
X122407500Y-116655000D03*
X122407500Y-118655000D03*
X122407500Y-120655000D03*
X122407500Y-122655000D03*
X122407500Y-124655000D03*
X122407500Y-126655000D03*
X122407500Y-128655000D03*
X122407500Y-130655000D03*
D54*
X116657500Y-114305000D03*
X116657500Y-133005000D03*
D20*
X167687500Y-111495000D03*
X167687500Y-112455000D03*
D28*
X167207499Y-127284999D03*
X166207499Y-127284999D03*
X165207499Y-127284999D03*
X164207499Y-127284999D03*
D29*
X168307499Y-123884999D03*
X163107499Y-123884999D03*
D20*
X159687500Y-102995000D03*
X159687500Y-103955000D03*
X168847500Y-103185000D03*
X168847500Y-104145000D03*
D36*
X138697500Y-85955000D03*
X136697500Y-85955000D03*
D37*
X141047500Y-80205000D03*
X134347500Y-80205000D03*
D55*
X147037499Y-137079999D03*
X147837499Y-137079999D03*
D56*
X149037499Y-137079999D03*
X150037499Y-137079999D03*
X150537499Y-137079999D03*
X151537499Y-137079999D03*
D55*
X152737499Y-137079999D03*
X153537499Y-137079999D03*
X153537499Y-137079999D03*
X152737499Y-137079999D03*
D56*
X152037499Y-137079999D03*
X151037499Y-137079999D03*
X149537499Y-137079999D03*
X148537499Y-137079999D03*
D55*
X147837499Y-137079999D03*
X147037499Y-137079999D03*
D57*
X145967499Y-137994999D03*
D58*
X145967499Y-142174999D03*
D57*
X154607499Y-137994999D03*
D58*
X154607499Y-142174999D03*
D43*
X143662499Y-61694999D03*
X143662499Y-60294999D03*
X144462499Y-60294999D03*
X144462499Y-61694999D03*
D10*
X125477500Y-128575000D03*
X126497500Y-128575000D03*
X125477500Y-118625000D03*
X126497500Y-118625000D03*
D13*
X152957500Y-97775000D03*
X153917500Y-97775000D03*
D43*
X148662499Y-61694999D03*
X148662499Y-60294999D03*
X149462499Y-60294999D03*
X149462499Y-61694999D03*
D59*
X157087499Y-129437499D03*
D60*
X157012499Y-129974999D03*
D59*
X157087499Y-130512499D03*
X158787499Y-130512499D03*
D60*
X158862499Y-129974999D03*
D59*
X158787499Y-129437499D03*
D19*
X131307500Y-65115000D03*
X131307500Y-66135000D03*
X170597500Y-67385000D03*
X170597500Y-68405000D03*
D10*
X125477500Y-126675000D03*
X126497500Y-126675000D03*
D28*
X116127499Y-140374999D03*
X117127499Y-140374999D03*
X118127499Y-140374999D03*
X119127499Y-140374999D03*
D29*
X115027499Y-143774999D03*
X120227499Y-143774999D03*
D19*
X117097500Y-137525000D03*
X117097500Y-138545000D03*
D61*
X136487500Y-102737500D03*
X135537500Y-102737500D03*
X134587500Y-102737500D03*
X134587500Y-105012500D03*
X136487500Y-105012500D03*
D11*
X162867500Y-114125000D03*
X161907500Y-114125000D03*
D19*
X136737500Y-137665000D03*
X136737500Y-138685000D03*
D17*
X166837500Y-101405000D03*
X166837500Y-100445000D03*
D27*
X129887500Y-73535000D03*
X129887500Y-72515000D03*
D62*
X170887499Y-106974999D03*
X173087499Y-106974999D03*
X173087499Y-105274999D03*
X170887499Y-105274999D03*
D63*
X169637500Y-112375000D03*
X163612500Y-112250000D03*
X170487500Y-115435000D03*
X160987500Y-104625000D03*
D64*
X163787500Y-102225000D03*
X155387500Y-112775000D03*
D63*
X127837500Y-138935000D03*
D64*
X173517413Y-100968530D03*
X162577500Y-128065000D03*
D63*
X142777500Y-68375000D03*
X162137500Y-118575000D03*
X155492500Y-128050000D03*
X148637500Y-59665000D03*
D64*
X166446962Y-120075538D03*
X162737500Y-129874500D03*
X175117500Y-109595000D03*
X160237500Y-134425000D03*
D63*
X138627500Y-59345000D03*
D64*
X135727878Y-136838556D03*
D63*
X134637500Y-139115000D03*
X176137500Y-86025000D03*
X132187500Y-65055000D03*
X116087500Y-139005000D03*
X143637500Y-59465000D03*
X144437500Y-111175000D03*
X153637500Y-59505000D03*
D64*
X176137500Y-94125000D03*
X166837500Y-102275000D03*
D63*
X144637500Y-99445000D03*
D64*
X169937500Y-100975000D03*
D63*
X153037500Y-96875000D03*
D64*
X136757500Y-136799500D03*
D63*
X153197500Y-135115000D03*
X146472500Y-133110000D03*
X144963188Y-131899312D03*
D64*
X159987500Y-130025000D03*
D63*
X134587500Y-106325000D03*
X174147500Y-89795000D03*
D64*
X149921225Y-133974500D03*
D63*
X154737500Y-128835000D03*
X169649706Y-111417206D03*
D64*
X164777500Y-99265000D03*
D63*
X146617500Y-136495000D03*
X130887500Y-139055000D03*
X139797500Y-98175000D03*
X162027997Y-119574503D03*
X151570500Y-127985023D03*
X170487500Y-103875000D03*
X148387500Y-88165000D03*
X125287500Y-130705000D03*
X137937500Y-103475000D03*
X181267500Y-95125000D03*
D64*
X132487500Y-117825000D03*
D63*
X171457500Y-115335000D03*
X171427500Y-136495000D03*
X154137500Y-96675000D03*
X138272313Y-139748000D03*
X140937500Y-70375000D03*
D64*
X156525500Y-129975000D03*
D63*
X163787500Y-104825000D03*
D64*
X135772500Y-131540000D03*
D63*
X143444111Y-111285377D03*
X119157500Y-138985000D03*
X158587500Y-105025000D03*
D64*
X153587500Y-113625000D03*
D63*
X167087500Y-89785000D03*
X165938378Y-101141541D03*
X165392500Y-67980000D03*
X145587500Y-97725000D03*
X136087500Y-98145000D03*
X146047000Y-67525500D03*
X154037500Y-136245000D03*
X161087500Y-114095000D03*
X135637500Y-101375000D03*
D64*
X165437500Y-57875000D03*
X175288000Y-95875000D03*
D63*
X177363000Y-92375000D03*
X120127500Y-57725000D03*
X172837500Y-108525000D03*
X152887500Y-134038000D03*
X165077500Y-110575000D03*
D64*
X180587500Y-128375000D03*
D63*
X134852500Y-100060000D03*
D65*
X139790000Y-88910000D03*
D63*
X133527500Y-102715000D03*
D65*
X136697500Y-88372500D03*
D63*
X166700500Y-85212000D03*
X153957500Y-130555000D03*
X169837500Y-68435000D03*
X179717500Y-98645000D03*
D64*
X140462000Y-139565000D03*
X150887500Y-113275000D03*
X145807500Y-121315000D03*
X140462000Y-140114503D03*
X146567500Y-119355000D03*
X150748062Y-113863104D03*
X150243688Y-138631188D03*
X148637500Y-138875000D03*
X166098551Y-119450538D03*
X158367500Y-111789047D03*
X160209500Y-98130504D03*
X173303503Y-95773500D03*
X158386000Y-108445000D03*
X154917903Y-106316217D03*
X160211225Y-94316851D03*
X117087500Y-139215000D03*
X145262000Y-93633000D03*
X118545720Y-139269041D03*
X145764630Y-93960000D03*
X162297500Y-139885000D03*
X162567500Y-99978000D03*
X172817500Y-100255000D03*
X175197500Y-115265000D03*
X175117500Y-108505000D03*
X163717500Y-130475000D03*
X164247500Y-135035000D03*
X154987500Y-116995000D03*
X142087500Y-137595000D03*
X160357787Y-116584713D03*
X161612000Y-115115000D03*
X166032500Y-95370000D03*
X164167500Y-125225000D03*
X146017500Y-70285000D03*
X160315831Y-109235000D03*
X171497500Y-125815000D03*
X159737500Y-101975000D03*
X158041063Y-106471500D03*
X140997500Y-137795000D03*
X154994000Y-115795000D03*
X133237500Y-74475000D03*
X173087464Y-97575036D03*
X149617500Y-96085000D03*
X149956301Y-102126199D03*
X181527500Y-83275000D03*
X181527500Y-88755000D03*
X134287500Y-74475000D03*
X174086897Y-97586821D03*
D63*
X124217500Y-59025000D03*
X124217500Y-100445000D03*
D64*
X135337500Y-74475000D03*
X175105761Y-97640885D03*
X141257670Y-120440000D03*
X136984500Y-124725000D03*
X144750170Y-120556671D03*
X157182500Y-108170000D03*
X157507500Y-107675000D03*
X145220073Y-120086769D03*
X149423831Y-95570758D03*
X180447500Y-87305000D03*
X180437109Y-82512104D03*
X149197500Y-101237000D03*
X181562911Y-90264103D03*
X180997500Y-88327000D03*
X148176888Y-100966212D03*
X128847500Y-142445000D03*
X147627500Y-100955000D03*
X129857500Y-142395000D03*
X160427500Y-71545000D03*
X166806292Y-125004969D03*
X177108052Y-83865411D03*
X164311000Y-95071500D03*
X177997500Y-70610763D03*
X177168812Y-85505351D03*
X148517213Y-95895287D03*
X165806790Y-125005604D03*
X178107500Y-83855000D03*
X163104250Y-95111750D03*
X178167500Y-85465000D03*
X160407500Y-72715000D03*
X177559500Y-70172763D03*
X147897500Y-95895000D03*
X139982126Y-124433384D03*
X134338500Y-126410414D03*
X141637500Y-101625000D03*
X134865765Y-124640620D03*
X143037500Y-101975000D03*
X141879176Y-103286775D03*
X138310500Y-124722000D03*
X154994000Y-116435000D03*
X141543070Y-137669494D03*
X142337500Y-104175000D03*
X139362700Y-124433384D03*
X145686060Y-114074350D03*
X140522320Y-124534102D03*
X137217500Y-130825000D03*
X145870428Y-114592000D03*
X158478724Y-92977000D03*
X153996664Y-94648319D03*
X174277128Y-99155912D03*
X127040914Y-74428046D03*
X154987083Y-94782756D03*
X128038192Y-74494691D03*
X138579500Y-134479500D03*
X138697500Y-102485000D03*
X155442568Y-93879932D03*
X129037500Y-74475000D03*
X176762000Y-117195000D03*
X173237500Y-115105000D03*
X176762000Y-115175000D03*
X173247500Y-114395000D03*
X168533334Y-109146500D03*
X176762000Y-124375000D03*
X167947500Y-109255000D03*
X176762000Y-126375000D03*
X142569000Y-116072000D03*
X138819159Y-124514108D03*
X141037500Y-119012000D03*
X135864500Y-124679767D03*
D63*
X169487500Y-65725000D03*
X171817500Y-67835000D03*
D64*
X169896738Y-99976329D03*
X118582500Y-64740000D03*
X125387500Y-64165000D03*
X163827500Y-99805000D03*
X160756530Y-94384622D03*
X163227500Y-98525000D03*
X170827500Y-98525000D03*
X159967500Y-72195000D03*
X162995438Y-94282938D03*
X162085063Y-98525000D03*
X161632500Y-94440000D03*
X171877500Y-99215000D03*
X159418141Y-72182458D03*
X156437500Y-58245000D03*
X160017500Y-65285000D03*
X139992500Y-119564000D03*
X134430500Y-125606470D03*
X146117500Y-107705000D03*
X138547500Y-132885000D03*
X149565500Y-109160000D03*
X172754000Y-95773500D03*
X171878000Y-95773500D03*
X156849401Y-112665547D03*
X174303023Y-103519477D03*
X145767500Y-105675000D03*
X151377500Y-109966000D03*
X150168437Y-94614063D03*
X172127500Y-126065000D03*
X156357500Y-112245000D03*
X152737500Y-90475500D03*
X161194164Y-93940782D03*
X138637500Y-74425000D03*
X143037500Y-75525000D03*
X139637003Y-74425000D03*
X142937500Y-74225000D03*
X140487500Y-73762000D03*
X142927500Y-73335000D03*
X127167500Y-116685000D03*
X150637500Y-98425000D03*
X149137500Y-110115000D03*
X132036009Y-74475000D03*
X149892500Y-106205000D03*
X131191563Y-66900500D03*
X152188000Y-106140000D03*
X156427500Y-86725000D03*
X174725500Y-92515962D03*
X172306596Y-92743881D03*
X161738609Y-89452000D03*
X131036506Y-74475000D03*
X154537500Y-102775000D03*
X130187500Y-66895000D03*
X165199500Y-84515000D03*
X165310500Y-95298000D03*
X161967500Y-84985000D03*
X164807500Y-124985000D03*
X166075500Y-84555000D03*
X155449604Y-98675000D03*
X130037003Y-74475000D03*
X129137500Y-66900500D03*
X158405228Y-105917272D03*
X157151523Y-98610977D03*
X150087997Y-98425000D03*
X127157500Y-118615000D03*
X127177500Y-120635000D03*
X128044000Y-103785000D03*
X127287500Y-122735000D03*
X128371000Y-104945000D03*
X127197500Y-128565000D03*
X162238000Y-89779000D03*
X142911435Y-95887000D03*
X167351562Y-92109062D03*
X171757500Y-92765000D03*
X143209283Y-85868990D03*
X143867500Y-95233000D03*
X160877500Y-83075000D03*
X127197500Y-124725000D03*
X143986397Y-86646104D03*
X160687500Y-81825000D03*
X127157500Y-126675000D03*
X143597840Y-86257547D03*
X143366397Y-95560000D03*
X157717500Y-96045000D03*
X177267500Y-102855000D03*
X175007500Y-88685000D03*
X180057500Y-90415000D03*
X170807500Y-92787000D03*
X166237500Y-134405000D03*
X174985294Y-87685745D03*
X181055237Y-90474389D03*
X167267500Y-134405000D03*
X169778144Y-92755644D03*
X157717500Y-95495497D03*
X177257500Y-101805000D03*
X154337500Y-108616000D03*
X167192939Y-119538388D03*
X152377500Y-102175000D03*
X152413000Y-100852306D03*
X172677500Y-128795000D03*
X139867500Y-108555000D03*
X138012213Y-117239713D03*
X174157500Y-128825000D03*
X146717500Y-102445000D03*
X146727500Y-101095000D03*
X146107500Y-101993000D03*
X146078213Y-101086287D03*
X153662000Y-108616000D03*
X166647709Y-119469995D03*
X168527500Y-119515000D03*
X154913000Y-108297000D03*
X167741086Y-119499818D03*
X156399308Y-110443192D03*
X152817500Y-124635000D03*
X159527500Y-123417000D03*
X154097500Y-124765000D03*
X157486000Y-123757000D03*
D66*
X168737500Y-112405000D02*
X168090000Y-113052500D01*
D67*
X163817500Y-112455000D02*
X164537500Y-112455000D01*
X160987500Y-103462500D02*
X160950000Y-103425000D01*
D68*
X159687500Y-102995000D02*
X160520000Y-102995000D01*
D67*
X169607500Y-112405000D02*
X169637500Y-112375000D01*
X163607500Y-112245000D02*
X163612500Y-112250000D01*
D68*
X156062500Y-103175000D02*
X158407500Y-103175000D01*
X158587500Y-102995000D02*
X159687500Y-102995000D01*
D66*
X169315000Y-116075000D02*
X170457500Y-116075000D01*
X170457500Y-116075000D02*
X170507500Y-116125000D01*
D67*
X160987500Y-104625000D02*
X160987500Y-103462500D01*
D68*
X160520000Y-102995000D02*
X160950000Y-103425000D01*
D66*
X168090000Y-113052500D02*
X168090000Y-113850000D01*
X165090000Y-113850000D02*
X165090000Y-113007500D01*
X165090000Y-113007500D02*
X164537500Y-112455000D01*
D67*
X168737500Y-112405000D02*
X169607500Y-112405000D01*
X170497500Y-116405000D02*
X170507500Y-116395000D01*
D68*
X158407500Y-103175000D02*
X158587500Y-102995000D01*
D67*
X163612500Y-112250000D02*
X163817500Y-112455000D01*
X170487500Y-115435000D02*
X170487500Y-116395000D01*
X170507500Y-116395000D02*
X170507500Y-116125000D01*
X170487500Y-116395000D02*
X170497500Y-116405000D01*
D66*
X163895000Y-118545000D02*
X164365000Y-118075000D01*
D67*
X127837500Y-138935000D02*
X127837500Y-140345000D01*
X155492500Y-128050000D02*
X155417000Y-127974500D01*
X176117500Y-86055000D02*
X176137500Y-86075000D01*
D68*
X168375000Y-100875000D02*
X169837500Y-100875000D01*
X168937500Y-103195000D02*
X168937500Y-103137500D01*
D67*
X155417000Y-127974500D02*
X154385418Y-127974500D01*
D66*
X135727878Y-136838556D02*
X135727878Y-137524622D01*
D67*
X173777500Y-86055000D02*
X176117500Y-86055000D01*
D66*
X174137500Y-109575000D02*
X175097500Y-109575000D01*
D68*
X152957500Y-96955000D02*
X153037500Y-96875000D01*
D67*
X145637500Y-99505000D02*
X144667500Y-99505000D01*
X165468038Y-120075538D02*
X165467500Y-120075000D01*
D68*
X152957500Y-97775000D02*
X152957500Y-98595000D01*
D66*
X139481500Y-113629000D02*
X138287500Y-112435000D01*
D67*
X154567500Y-112825000D02*
X155337500Y-112825000D01*
D68*
X177437500Y-94637500D02*
X176700000Y-95375000D01*
D67*
X171267500Y-86055000D02*
X173777500Y-86055000D01*
D68*
X168937500Y-103137500D02*
X169787500Y-102287500D01*
D67*
X153304918Y-129055000D02*
X151427500Y-129055000D01*
X166446962Y-120075538D02*
X165468038Y-120075538D01*
D68*
X152957500Y-97775000D02*
X152957500Y-96955000D01*
D66*
X116127500Y-139045000D02*
X116127500Y-140375000D01*
D67*
X162577500Y-128065000D02*
X162577500Y-129714500D01*
D68*
X169787500Y-101125000D02*
X169937500Y-100975000D01*
D67*
X138627500Y-60260000D02*
X138662500Y-60295000D01*
D68*
X167845000Y-101405000D02*
X168375000Y-100875000D01*
X166837500Y-101405000D02*
X167845000Y-101405000D01*
X152957500Y-98595000D02*
X153137500Y-98775000D01*
D67*
X162577500Y-129714500D02*
X162737500Y-129874500D01*
D66*
X165590000Y-119952500D02*
X165467500Y-120075000D01*
D67*
X143472500Y-69060000D02*
X142787500Y-68375000D01*
X150437500Y-122385000D02*
X151382500Y-121440000D01*
D66*
X165590000Y-118800000D02*
X165590000Y-119952500D01*
X135727878Y-137524622D02*
X135627500Y-137625000D01*
X144437500Y-111230319D02*
X144437500Y-111175000D01*
X163037500Y-118545000D02*
X163895000Y-118545000D01*
D68*
X166837500Y-102275000D02*
X166837500Y-101405000D01*
X144467500Y-109420000D02*
X144712500Y-109175000D01*
D67*
X153637500Y-59505000D02*
X153637500Y-60270000D01*
X155302500Y-126590000D02*
X155302500Y-127860000D01*
X154385418Y-127974500D02*
X153304918Y-129055000D01*
D66*
X116087500Y-139005000D02*
X116127500Y-139045000D01*
D68*
X169837500Y-100875000D02*
X169937500Y-100975000D01*
X173517413Y-101104913D02*
X173787500Y-101375000D01*
D67*
X169387500Y-88185000D02*
X169387500Y-87935000D01*
D68*
X154137500Y-111100000D02*
X154137500Y-112395000D01*
D67*
X169387500Y-81885000D02*
X169387500Y-88185000D01*
X155507500Y-128065000D02*
X155492500Y-128050000D01*
D68*
X163357500Y-103425000D02*
X163787500Y-102995000D01*
D66*
X116087500Y-138535000D02*
X116087500Y-139005000D01*
D67*
X151382500Y-121440000D02*
X151492500Y-121440000D01*
D66*
X136757500Y-136799500D02*
X136757500Y-137645000D01*
D67*
X163037500Y-118545000D02*
X162167500Y-118545000D01*
X162167500Y-118545000D02*
X162137500Y-118575000D01*
X144467500Y-110225000D02*
X144467500Y-111145000D01*
D66*
X139481500Y-113970000D02*
X139481500Y-113629000D01*
D68*
X162525000Y-103425000D02*
X163357500Y-103425000D01*
D66*
X136757500Y-137645000D02*
X136737500Y-137665000D01*
X132237500Y-65005000D02*
X132187500Y-65055000D01*
D67*
X143647500Y-60280000D02*
X143662500Y-60295000D01*
D66*
X117097500Y-137525000D02*
X116087500Y-138535000D01*
D68*
X176700000Y-94687500D02*
X176137500Y-94125000D01*
D66*
X141697819Y-113970000D02*
X144437500Y-111230319D01*
X175097500Y-109575000D02*
X175117500Y-109595000D01*
D68*
X176700000Y-95375000D02*
X176700000Y-94687500D01*
D67*
X144667500Y-99505000D02*
X144637500Y-99475000D01*
D68*
X169787500Y-102287500D02*
X169787500Y-101125000D01*
D67*
X138627500Y-59345000D02*
X138627500Y-60260000D01*
D68*
X163787500Y-102995000D02*
X163787500Y-102225000D01*
D67*
X144487500Y-69060000D02*
X143472500Y-69060000D01*
X150437500Y-128065000D02*
X150437500Y-122385000D01*
D66*
X132237500Y-63505000D02*
X132237500Y-65005000D01*
D67*
X153637500Y-60270000D02*
X153662500Y-60295000D01*
D68*
X145882500Y-99750000D02*
X145637500Y-99505000D01*
X177437500Y-94255000D02*
X177437500Y-94637500D01*
X144467500Y-110225000D02*
X144467500Y-109420000D01*
D66*
X117177500Y-137605000D02*
X117097500Y-137525000D01*
X139481500Y-113970000D02*
X141697819Y-113970000D01*
D67*
X160237500Y-134425000D02*
X160237500Y-137175000D01*
X155337500Y-112825000D02*
X155387500Y-112775000D01*
X148637500Y-59665000D02*
X148637500Y-60270000D01*
X144467500Y-111145000D02*
X144437500Y-111175000D01*
X127837500Y-140345000D02*
X127757500Y-140425000D01*
X134637500Y-140075000D02*
X134637500Y-139115000D01*
D66*
X118087500Y-137605000D02*
X117177500Y-137605000D01*
D67*
X155302500Y-127860000D02*
X155507500Y-128065000D01*
D68*
X154137500Y-112395000D02*
X154567500Y-112825000D01*
X173787500Y-101375000D02*
X173787500Y-102287500D01*
X173517413Y-100968530D02*
X173517413Y-101104913D01*
D67*
X143647500Y-59455000D02*
X143647500Y-60280000D01*
X151427500Y-129055000D02*
X150437500Y-128065000D01*
D68*
X153137500Y-98775000D02*
X153137500Y-99750000D01*
X146637500Y-99750000D02*
X145882500Y-99750000D01*
D67*
X169387500Y-87935000D02*
X171267500Y-86055000D01*
X152787500Y-135525000D02*
X152787500Y-136375000D01*
X146472500Y-133110000D02*
X146487500Y-133125000D01*
X147837500Y-137080000D02*
X147837500Y-135205000D01*
D68*
X159937500Y-129975000D02*
X159987500Y-130025000D01*
D67*
X133440000Y-103865000D02*
X134587500Y-105012500D01*
X143997500Y-133127500D02*
X143997500Y-132913624D01*
X145261812Y-131899312D02*
X146472500Y-133110000D01*
X143997500Y-132913624D02*
X145011812Y-131899312D01*
X134587500Y-105012500D02*
X134587500Y-106325000D01*
X146487500Y-134475000D02*
X147167500Y-135155000D01*
X132437500Y-103865000D02*
X133440000Y-103865000D01*
D68*
X158862500Y-129975000D02*
X159937500Y-129975000D01*
D67*
X147167500Y-135155000D02*
X147887500Y-135155000D01*
X147837500Y-135205000D02*
X147887500Y-135155000D01*
X146487500Y-134475000D02*
X146487500Y-133125000D01*
X145011812Y-131899312D02*
X145261812Y-131899312D01*
X153187500Y-135125000D02*
X152787500Y-135525000D01*
X123557500Y-56555000D02*
X122387500Y-57725000D01*
X153537500Y-136775000D02*
X154037500Y-136275000D01*
D66*
X136691000Y-129645000D02*
X136501000Y-129835000D01*
D67*
X163037500Y-119505000D02*
X162207003Y-119505000D01*
D66*
X164837500Y-99205000D02*
X164777500Y-99265000D01*
D67*
X146687500Y-97145000D02*
X146167500Y-97145000D01*
X147667500Y-88165000D02*
X147487500Y-87985000D01*
D66*
X147887500Y-134195000D02*
X149107500Y-134195000D01*
D67*
X120147500Y-57725000D02*
X120127500Y-57725000D01*
D66*
X136227500Y-130635000D02*
X136227500Y-131035000D01*
D67*
X153607500Y-113605000D02*
X153587500Y-113625000D01*
X167087500Y-88185000D02*
X167087500Y-89785000D01*
X141887500Y-70325000D02*
X140987500Y-70325000D01*
D68*
X157012500Y-129975000D02*
X156487500Y-129975000D01*
D66*
X165090000Y-118800000D02*
X164642500Y-118800000D01*
D67*
X140987500Y-70325000D02*
X140937500Y-70375000D01*
D66*
X136227500Y-127435000D02*
X136654500Y-127435000D01*
X156062500Y-103675000D02*
X158307500Y-103675000D01*
D67*
X122467500Y-63425000D02*
X122467500Y-57805000D01*
X173087500Y-106975000D02*
X173087500Y-108275000D01*
X163037500Y-119505000D02*
X163937500Y-119505000D01*
D66*
X136691000Y-127471500D02*
X136691000Y-129645000D01*
D67*
X180537500Y-128325000D02*
X180587500Y-128375000D01*
D66*
X136227500Y-126915000D02*
X136217500Y-126925000D01*
X138107500Y-131540000D02*
X136227500Y-131540000D01*
D67*
X135537500Y-101475000D02*
X135587500Y-101425000D01*
X145637500Y-98545000D02*
X145637500Y-97775000D01*
X144487500Y-67790000D02*
X145723000Y-67790000D01*
D66*
X164642500Y-118800000D02*
X163937500Y-119505000D01*
D67*
X139937500Y-98915000D02*
X139937500Y-98315000D01*
D66*
X147037500Y-137080000D02*
X147037500Y-136915000D01*
D67*
X139937500Y-98315000D02*
X139797500Y-98175000D01*
X130887500Y-139055000D02*
X130887500Y-140295000D01*
D66*
X136501000Y-129835000D02*
X136227500Y-129835000D01*
D67*
X165377500Y-67995000D02*
X164857500Y-67475000D01*
X117352500Y-57725000D02*
X117067500Y-58010000D01*
D66*
X136227500Y-126130000D02*
X136227500Y-126635000D01*
D67*
X143444111Y-111285377D02*
X142157500Y-109998766D01*
X164537500Y-111115000D02*
X165077500Y-110575000D01*
D68*
X168737500Y-111495000D02*
X169571912Y-111495000D01*
D67*
X145637500Y-97775000D02*
X145587500Y-97725000D01*
D68*
X153917500Y-98195000D02*
X153637500Y-98475000D01*
D66*
X136654500Y-127435000D02*
X136691000Y-127471500D01*
X136227500Y-127035000D02*
X136227500Y-127435000D01*
X176700000Y-95875000D02*
X175288000Y-95875000D01*
D67*
X153537500Y-137080000D02*
X153537500Y-136775000D01*
D68*
X174387500Y-104275000D02*
X176287500Y-104275000D01*
D67*
X152087500Y-134015000D02*
X152864500Y-134015000D01*
D66*
X159677500Y-108215000D02*
X159677500Y-106115000D01*
D67*
X137937500Y-104365000D02*
X137937500Y-103475000D01*
D66*
X133893500Y-116510000D02*
X133893500Y-117780000D01*
D67*
X181237500Y-96395000D02*
X180587500Y-97045000D01*
X162302500Y-67475000D02*
X161987500Y-67790000D01*
X142157500Y-109998766D02*
X142157500Y-109025000D01*
X168737500Y-105725000D02*
X168737500Y-105625000D01*
D68*
X166907500Y-100375000D02*
X166837500Y-100445000D01*
D66*
X136217500Y-127025000D02*
X136227500Y-127035000D01*
D67*
X133893500Y-117780000D02*
X132532500Y-117780000D01*
X136087500Y-95375000D02*
X138697500Y-92765000D01*
X161907500Y-114125000D02*
X161087500Y-114125000D01*
X177437500Y-92449500D02*
X177363000Y-92375000D01*
X162207003Y-119505000D02*
X162137500Y-119574503D01*
X135537500Y-102737500D02*
X135537500Y-101475000D01*
D66*
X149107500Y-134195000D02*
X149137500Y-134165000D01*
D67*
X170887500Y-104275000D02*
X170487500Y-103875000D01*
X153917500Y-97775000D02*
X153917500Y-96895000D01*
D66*
X136227500Y-126635000D02*
X136227500Y-126915000D01*
D68*
X153637500Y-98475000D02*
X153637500Y-99750000D01*
D67*
X136087500Y-98145000D02*
X136087500Y-95375000D01*
D66*
X135792500Y-113970000D02*
X133893500Y-113970000D01*
D68*
X153637500Y-111100000D02*
X153637500Y-112795000D01*
X168375000Y-100375000D02*
X166907500Y-100375000D01*
D67*
X164857500Y-67475000D02*
X162302500Y-67475000D01*
D66*
X136227500Y-126130000D02*
X138107500Y-126130000D01*
D67*
X120127500Y-57725000D02*
X117352500Y-57725000D01*
X174067500Y-89715000D02*
X173777500Y-89425000D01*
D66*
X136217500Y-126925000D02*
X136217500Y-127025000D01*
D67*
X158587500Y-105025000D02*
X158587500Y-103955000D01*
X163937500Y-119505000D02*
X164507500Y-120075000D01*
X122407500Y-130655000D02*
X125247500Y-130655000D01*
X155413698Y-56555000D02*
X123557500Y-56555000D01*
D66*
X119127500Y-139015000D02*
X119127500Y-140375000D01*
D68*
X153637500Y-112795000D02*
X153607500Y-112825000D01*
D67*
X159687500Y-103955000D02*
X158587500Y-103955000D01*
D66*
X158307500Y-103675000D02*
X158587500Y-103955000D01*
X147037500Y-136915000D02*
X146617500Y-136495000D01*
D67*
X143444111Y-111285377D02*
X143444111Y-110288389D01*
X122467500Y-57805000D02*
X122387500Y-57725000D01*
X132532500Y-117780000D02*
X132487500Y-117825000D01*
X125247500Y-130655000D02*
X125287500Y-130695000D01*
X166634919Y-100445000D02*
X165938378Y-101141541D01*
D66*
X133893500Y-113970000D02*
X133893500Y-115240000D01*
D67*
X168737500Y-105625000D02*
X170487500Y-103875000D01*
D66*
X136227500Y-130232924D02*
X136227500Y-130635000D01*
D68*
X153917500Y-97775000D02*
X153917500Y-98195000D01*
D67*
X145723000Y-67790000D02*
X145987500Y-67525500D01*
X138697500Y-92765000D02*
X138697500Y-85955000D01*
X173087500Y-106975000D02*
X174987500Y-106975000D01*
X168937500Y-104155000D02*
X170207500Y-104155000D01*
X165147500Y-57585000D02*
X156443698Y-57585000D01*
X151492500Y-127907023D02*
X151492500Y-126370000D01*
X130887500Y-140295000D02*
X130757500Y-140425000D01*
D66*
X138107500Y-126130000D02*
X138107500Y-126635000D01*
D67*
X151570500Y-127985023D02*
X151492500Y-127907023D01*
D66*
X138272313Y-139748000D02*
X138272313Y-139760187D01*
D67*
X181237500Y-95125000D02*
X181237500Y-96395000D01*
X154787500Y-128874500D02*
X154737500Y-128824500D01*
X136087500Y-98175000D02*
X136087500Y-98925000D01*
D66*
X136227500Y-129835000D02*
X136227500Y-130232924D01*
D67*
X170737500Y-137175000D02*
X171417500Y-136495000D01*
X156443698Y-57585000D02*
X155413698Y-56555000D01*
X148387500Y-88165000D02*
X147667500Y-88165000D01*
D68*
X173287500Y-102287500D02*
X173287500Y-103175000D01*
D67*
X154787500Y-129595000D02*
X154787500Y-128874500D01*
X122367500Y-63525000D02*
X122467500Y-63425000D01*
D66*
X149730725Y-134165000D02*
X149921225Y-133974500D01*
D67*
X152864500Y-134015000D02*
X152887500Y-134038000D01*
X173777500Y-89425000D02*
X173777500Y-87015000D01*
X178437500Y-128325000D02*
X180537500Y-128325000D01*
D66*
X151570500Y-127985023D02*
X151760477Y-128175000D01*
X133893500Y-115240000D02*
X133893500Y-116510000D01*
X138272313Y-139760187D02*
X137637500Y-140395000D01*
D68*
X176287500Y-104275000D02*
X176287500Y-105975000D01*
D67*
X173087500Y-108275000D02*
X172887500Y-108475000D01*
D68*
X173287500Y-103175000D02*
X174387500Y-104275000D01*
D67*
X153917500Y-96895000D02*
X154137500Y-96675000D01*
X163787500Y-104825000D02*
X163787500Y-103955000D01*
X177437500Y-93295000D02*
X177437500Y-92449500D01*
D66*
X149137500Y-134165000D02*
X149730725Y-134165000D01*
D67*
X153607500Y-112825000D02*
X153607500Y-113605000D01*
X170887500Y-105275000D02*
X170887500Y-104275000D01*
D66*
X165727500Y-99205000D02*
X164837500Y-99205000D01*
X159677500Y-106115000D02*
X158587500Y-105025000D01*
D67*
X170237500Y-137175000D02*
X170737500Y-137175000D01*
X166837500Y-100445000D02*
X166634919Y-100445000D01*
X136087500Y-98175000D02*
X136087500Y-98145000D01*
X164537500Y-111495000D02*
X164537500Y-111115000D01*
D66*
X137327500Y-112435000D02*
X135792500Y-113970000D01*
X119157500Y-138985000D02*
X119127500Y-139015000D01*
D67*
X170207500Y-104155000D02*
X170487500Y-103875000D01*
X143444111Y-110288389D02*
X143507500Y-110225000D01*
X171457500Y-115335000D02*
X171457500Y-116405000D01*
D68*
X167687500Y-111495000D02*
X168737500Y-111495000D01*
D67*
X146167500Y-97145000D02*
X145587500Y-97725000D01*
D66*
X135772500Y-131540000D02*
X136227500Y-131540000D01*
X136227500Y-131035000D02*
X136227500Y-131540000D01*
D68*
X176287500Y-105975000D02*
X175187500Y-107075000D01*
D67*
X165437500Y-57875000D02*
X165147500Y-57585000D01*
D66*
X151760477Y-128175000D02*
X152297500Y-128175000D01*
D67*
X122387500Y-57725000D02*
X120147500Y-57725000D01*
X138527500Y-99885000D02*
X138587500Y-99945000D01*
X133550000Y-102737500D02*
X133527500Y-102715000D01*
X137337500Y-98815000D02*
X137287500Y-98865000D01*
X133527500Y-102715000D02*
X133487500Y-102675000D01*
X135027500Y-99885000D02*
X134852500Y-100060000D01*
X137337500Y-96025000D02*
X137337500Y-98815000D01*
X134587500Y-102737500D02*
X133550000Y-102737500D01*
X139790000Y-88910000D02*
X139790000Y-93572500D01*
X136087500Y-99885000D02*
X137287500Y-99885000D01*
X137287500Y-98865000D02*
X137287500Y-99885000D01*
X132437500Y-101625000D02*
X133487500Y-102675000D01*
X139790000Y-93572500D02*
X137337500Y-96025000D01*
X136087500Y-99885000D02*
X135027500Y-99885000D01*
X136697500Y-88372500D02*
X136697500Y-85955000D01*
X132437500Y-100935000D02*
X132437500Y-101625000D01*
X137287500Y-99885000D02*
X138527500Y-99885000D01*
D69*
X171787500Y-102287500D02*
X171787500Y-104225000D01*
X171137500Y-106975000D02*
X170887500Y-106975000D01*
X171912500Y-106200000D02*
X171137500Y-106975000D01*
X170887500Y-106975000D02*
X169387500Y-106975000D01*
X171912500Y-104350000D02*
X171912500Y-106200000D01*
X171787500Y-104225000D02*
X171912500Y-104350000D01*
X169387500Y-106975000D02*
X168737500Y-107625000D01*
D67*
X171687500Y-88185000D02*
X171687500Y-89555000D01*
D66*
X154787500Y-130555000D02*
X153957500Y-130555000D01*
D67*
X182747500Y-98005000D02*
X183087500Y-97665000D01*
X165557500Y-86525000D02*
X166700500Y-85382000D01*
X179947500Y-98645000D02*
X180587500Y-98005000D01*
X165787500Y-90625000D02*
X165557500Y-90395000D01*
X165557500Y-90395000D02*
X165557500Y-86525000D01*
X170597500Y-68405000D02*
X169867500Y-68405000D01*
X172017500Y-90625000D02*
X177467500Y-90625000D01*
X171687500Y-90295000D02*
X172017500Y-90625000D01*
X171687500Y-89555000D02*
X170617500Y-90625000D01*
X180587500Y-98005000D02*
X182747500Y-98005000D01*
X169867500Y-68405000D02*
X169837500Y-68435000D01*
X170617500Y-90625000D02*
X165787500Y-90625000D01*
X177467500Y-90625000D02*
X179737500Y-92895000D01*
X179737500Y-92895000D02*
X179737500Y-98625000D01*
X171687500Y-88185000D02*
X171687500Y-90295000D01*
D66*
X150757500Y-113275000D02*
X150486855Y-113004355D01*
X151637500Y-111100000D02*
X151637500Y-111853711D01*
X162095948Y-121001000D02*
X160782948Y-119688000D01*
X137201000Y-139541500D02*
X137557500Y-139185000D01*
X136657500Y-140105000D02*
X137201000Y-139561500D01*
X160782948Y-119688000D02*
X160277500Y-119688000D01*
X139481500Y-117780000D02*
X140444500Y-117780000D01*
X158687500Y-119688000D02*
X152077500Y-119688000D01*
X170937500Y-118824248D02*
X170937500Y-121005000D01*
X170937500Y-121005000D02*
X170935500Y-121007000D01*
X136737500Y-139285000D02*
X136657500Y-139365000D01*
X170935500Y-121007000D02*
X170797500Y-121007000D01*
X150887500Y-113275000D02*
X150757500Y-113275000D01*
X151637500Y-111853711D02*
X150486855Y-113004355D01*
X170791500Y-121001000D02*
X162095948Y-121001000D01*
X144326948Y-117998000D02*
X147087948Y-115237000D01*
X137201000Y-139561500D02*
X137201000Y-139541500D01*
X147087948Y-115237000D02*
X148137500Y-115237000D01*
X137557500Y-139185000D02*
X140082000Y-139185000D01*
X169688252Y-117575000D02*
X170937500Y-118824248D01*
X152077500Y-119688000D02*
X146924500Y-119688000D01*
X146717500Y-119895000D02*
X146717500Y-120405000D01*
X136657500Y-139365000D02*
X136657500Y-140105000D01*
X146924500Y-119688000D02*
X146717500Y-119895000D01*
X160277500Y-119688000D02*
X158687500Y-119688000D01*
X140082000Y-139185000D02*
X140462000Y-139565000D01*
X136737500Y-138685000D02*
X136737500Y-139285000D01*
X140662500Y-117998000D02*
X144326948Y-117998000D01*
X169315000Y-117575000D02*
X169688252Y-117575000D01*
X170797500Y-121007000D02*
X170791500Y-121001000D01*
X148254211Y-115237000D02*
X148087500Y-115237000D01*
X150486855Y-113004355D02*
X148254211Y-115237000D01*
X140444500Y-117780000D02*
X140662500Y-117998000D01*
X146717500Y-120405000D02*
X145807500Y-121315000D01*
X162967500Y-115075000D02*
X162867500Y-115175000D01*
X164365000Y-115075000D02*
X162967500Y-115075000D01*
X162231396Y-120674000D02*
X160918396Y-119361000D01*
X150748062Y-113863104D02*
X150090555Y-113863104D01*
X147223396Y-115564000D02*
X144292396Y-118495000D01*
X160918396Y-119361000D02*
X158552052Y-119361000D01*
X170610500Y-118959696D02*
X170610500Y-120145000D01*
X138506800Y-118310200D02*
X138506800Y-117249800D01*
X135657500Y-138675000D02*
X135657500Y-141655000D01*
X148389659Y-115564000D02*
X147223396Y-115564000D01*
X139947500Y-139888500D02*
X140062500Y-140003500D01*
X150090555Y-113863104D02*
X148389659Y-115564000D01*
X170608500Y-120674000D02*
X170017500Y-120674000D01*
X158552052Y-119361000D02*
X146573500Y-119361000D01*
X139481500Y-116510000D02*
X145352500Y-116510000D01*
X138506800Y-117249800D02*
X139246600Y-116510000D01*
X170610500Y-120672000D02*
X170608500Y-120674000D01*
X144292396Y-118495000D02*
X138691600Y-118495000D01*
X170017500Y-120674000D02*
X162231396Y-120674000D01*
X135657500Y-141655000D02*
X136457500Y-142455000D01*
X140350997Y-140003500D02*
X140462000Y-140114503D01*
X169315000Y-118075000D02*
X169725804Y-118075000D01*
X138691600Y-118495000D02*
X138506800Y-118310200D01*
X146573500Y-119361000D02*
X146567500Y-119355000D01*
X170610500Y-120145000D02*
X170610500Y-120672000D01*
X151137500Y-111853711D02*
X151137500Y-111100000D01*
X140062500Y-140003500D02*
X140350997Y-140003500D01*
X169725804Y-118075000D02*
X170610500Y-118959696D01*
X145352500Y-116510000D02*
X146952500Y-114910000D01*
X138637500Y-142455000D02*
X138817500Y-142275000D01*
X138817500Y-139888500D02*
X139947500Y-139888500D01*
X138817500Y-142275000D02*
X138817500Y-139888500D01*
X139246600Y-116510000D02*
X139481500Y-116510000D01*
X136457500Y-142455000D02*
X138637500Y-142455000D01*
X146952500Y-114910000D02*
X148081211Y-114910000D01*
X148081211Y-114910000D02*
X151137500Y-111853711D01*
X135627500Y-138645000D02*
X135657500Y-138675000D01*
X163237500Y-116225000D02*
X163887500Y-115575000D01*
X162867500Y-116225000D02*
X163237500Y-116225000D01*
X163887500Y-115575000D02*
X164365000Y-115575000D01*
D68*
X146687500Y-98375000D02*
X147137500Y-98825000D01*
X147137500Y-98825000D02*
X147137500Y-99750000D01*
X146687500Y-98105000D02*
X146687500Y-98375000D01*
D66*
X151037500Y-137080000D02*
X151037500Y-138775000D01*
X154059728Y-133375000D02*
X156087500Y-131347228D01*
X156225000Y-129437500D02*
X157087500Y-129437500D01*
X151037500Y-138775000D02*
X150437500Y-139375000D01*
X151037500Y-134181436D02*
X151843936Y-133375000D01*
X156087500Y-131347228D02*
X156087500Y-129575000D01*
X149387500Y-138525000D02*
X150037500Y-137875000D01*
X150037500Y-137875000D02*
X150037500Y-137080000D01*
X156087500Y-129575000D02*
X156225000Y-129437500D01*
X150437500Y-139375000D02*
X149387500Y-139375000D01*
X151843936Y-133375000D02*
X154059728Y-133375000D01*
X149387500Y-139375000D02*
X149387500Y-138525000D01*
X151037500Y-137080000D02*
X151037500Y-134181436D01*
X149194000Y-138068500D02*
X149381552Y-138068500D01*
X150537500Y-138337376D02*
X150243688Y-138631188D01*
X150537500Y-137080000D02*
X150537500Y-138337376D01*
X148637500Y-138625000D02*
X149194000Y-138068500D01*
X150537500Y-137080000D02*
X150537500Y-134218988D01*
X149537500Y-137912552D02*
X149537500Y-137080000D01*
X151731488Y-133025000D02*
X153937500Y-133025000D01*
X157807500Y-130205000D02*
X157500000Y-130512500D01*
X148637500Y-138875000D02*
X148637500Y-138625000D01*
X150537500Y-134218988D02*
X151731488Y-133025000D01*
X156325052Y-128875000D02*
X157807500Y-128875000D01*
X149381552Y-138068500D02*
X149537500Y-137912552D01*
X153937500Y-133025000D02*
X155760500Y-131202000D01*
X155760500Y-131202000D02*
X155760500Y-129439552D01*
X157500000Y-130512500D02*
X157087500Y-130512500D01*
X155760500Y-129439552D02*
X156325052Y-128875000D01*
X157807500Y-128875000D02*
X157807500Y-130205000D01*
D68*
X143117500Y-109025000D02*
X143387500Y-109025000D01*
X143737500Y-108675000D02*
X144712500Y-108675000D01*
X143387500Y-109025000D02*
X143737500Y-108675000D01*
D66*
X163021500Y-117275000D02*
X162867500Y-117275000D01*
X164365000Y-116075000D02*
X163991748Y-116075000D01*
X163721500Y-116345248D02*
X163721500Y-116575000D01*
X163991748Y-116075000D02*
X163721500Y-116345248D01*
X163721500Y-116575000D02*
X163021500Y-117275000D01*
X162947500Y-113075000D02*
X162947500Y-114045000D01*
X162947500Y-114045000D02*
X162867500Y-114125000D01*
X164365000Y-114575000D02*
X163317500Y-114575000D01*
X163317500Y-114575000D02*
X162867500Y-114125000D01*
X166590000Y-113850000D02*
X166587500Y-113847500D01*
X166587500Y-109330000D02*
X166437500Y-109180000D01*
X166587500Y-113847500D02*
X166587500Y-109330000D01*
X155024000Y-106316217D02*
X155024000Y-106890211D01*
X155024000Y-106890211D02*
X155308789Y-107175000D01*
X158367500Y-111789047D02*
X158386000Y-111770547D01*
X166098551Y-119450538D02*
X166098551Y-118808551D01*
X160233996Y-98155000D02*
X160209500Y-98130504D01*
X166098551Y-118808551D02*
X166090000Y-118800000D01*
X173287500Y-95757497D02*
X173303503Y-95773500D01*
X160320500Y-98155000D02*
X160233996Y-98155000D01*
X154917903Y-106316217D02*
X155024000Y-106316217D01*
D69*
X166090000Y-119260226D02*
X166090000Y-118800000D01*
D66*
X155308789Y-107175000D02*
X156062500Y-107175000D01*
X160211225Y-94316851D02*
X160320500Y-94426126D01*
X160320500Y-94426126D02*
X160320500Y-98155000D01*
X158386000Y-111770547D02*
X158386000Y-108445000D01*
X173287500Y-93962500D02*
X173287500Y-95757497D01*
D69*
X172587500Y-104775000D02*
X173087500Y-105275000D01*
X172287500Y-102287500D02*
X172287500Y-103875000D01*
X173087500Y-105275000D02*
X174787500Y-105275000D01*
X172587500Y-104175000D02*
X172587500Y-104775000D01*
X172287500Y-103875000D02*
X172587500Y-104175000D01*
X174787500Y-105275000D02*
X175137500Y-104925000D01*
D66*
X117087500Y-139215000D02*
X117087500Y-140335000D01*
X157682500Y-87670000D02*
X157682500Y-85550000D01*
X149960000Y-88935000D02*
X156417500Y-88935000D01*
X156417500Y-88935000D02*
X157682500Y-87670000D01*
X117087500Y-138555000D02*
X117097500Y-138545000D01*
X145262000Y-93633000D02*
X149960000Y-88935000D01*
X117087500Y-140335000D02*
X117127500Y-140375000D01*
X117087500Y-139215000D02*
X117087500Y-138555000D01*
X118087500Y-138810821D02*
X118545720Y-139269041D01*
X149939974Y-89417474D02*
X146304974Y-93052474D01*
X118087500Y-138625000D02*
X118087500Y-138810821D01*
X153097500Y-89262000D02*
X150095448Y-89262000D01*
X118545720Y-139269041D02*
X118545720Y-139956780D01*
X146304974Y-93052474D02*
X145764630Y-93592818D01*
X145764630Y-93592818D02*
X145764630Y-93960000D01*
X118545720Y-139956780D02*
X118127500Y-140375000D01*
X158952500Y-85550000D02*
X158952500Y-86862448D01*
X156552948Y-89262000D02*
X153097500Y-89262000D01*
X158952500Y-86862448D02*
X156552948Y-89262000D01*
X150095448Y-89262000D02*
X149939974Y-89417474D01*
X163037500Y-100575000D02*
X162567500Y-100105000D01*
X165247500Y-100425000D02*
X165097500Y-100575000D01*
X165097500Y-100575000D02*
X163037500Y-100575000D01*
X168375000Y-98875000D02*
X167077500Y-98875000D01*
X167077500Y-98875000D02*
X166747500Y-99205000D01*
X165744000Y-99928500D02*
X165247500Y-100425000D01*
X166024000Y-99928500D02*
X165744000Y-99928500D01*
X162297500Y-137235000D02*
X162237500Y-137175000D01*
X162297500Y-139885000D02*
X162297500Y-137235000D01*
X162567500Y-100105000D02*
X162567500Y-99978000D01*
X166747500Y-99205000D02*
X166024000Y-99928500D01*
X174707708Y-121374792D02*
X174707500Y-121374792D01*
X175197500Y-115265000D02*
X175084500Y-115378000D01*
X174187500Y-108505000D02*
X174137500Y-108555000D01*
X171187500Y-125215000D02*
X169177500Y-127225000D01*
X164237500Y-137175000D02*
X164237500Y-135045000D01*
X172787500Y-102287500D02*
X172787500Y-100285000D01*
X173761292Y-122321000D02*
X172178500Y-122321000D01*
X169177500Y-127225000D02*
X169177500Y-127845000D01*
X171187500Y-123312000D02*
X171187500Y-125215000D01*
X175084500Y-120998000D02*
X174707708Y-121374792D01*
X175084500Y-115378000D02*
X175084500Y-120998000D01*
X174707500Y-121374792D02*
X173761292Y-122321000D01*
X172178500Y-122321000D02*
X171187500Y-123312000D01*
X166547500Y-130475000D02*
X163717500Y-130475000D01*
X175117500Y-108505000D02*
X174187500Y-108505000D01*
X169177500Y-127845000D02*
X166547500Y-130475000D01*
X164237500Y-135045000D02*
X164247500Y-135035000D01*
X172787500Y-100285000D02*
X172817500Y-100255000D01*
X155406604Y-144141000D02*
X153017500Y-144141000D01*
X167407500Y-133312500D02*
X167352500Y-133257500D01*
X172342604Y-130325000D02*
X169355104Y-133312500D01*
X153017500Y-144141000D02*
X142643500Y-144141000D01*
X155054133Y-116995000D02*
X155600133Y-116449000D01*
X158593104Y-133257500D02*
X157356552Y-134494052D01*
X178437500Y-130325000D02*
X172342604Y-130325000D01*
X142167500Y-143665000D02*
X142087500Y-143585000D01*
X156043500Y-136078000D02*
X156043500Y-143504104D01*
X156043500Y-143504104D02*
X155406604Y-144141000D01*
X165987500Y-133257500D02*
X158593104Y-133257500D01*
X160222074Y-116449000D02*
X160357787Y-116584713D01*
X156043500Y-135807104D02*
X156043500Y-136078000D01*
X161672000Y-115175000D02*
X161907500Y-115175000D01*
X161612000Y-115115000D02*
X161672000Y-115175000D01*
X156077500Y-116449000D02*
X160222074Y-116449000D01*
X142643500Y-144141000D02*
X142167500Y-143665000D01*
X142087500Y-143585000D02*
X142087500Y-137595000D01*
X157356552Y-134494052D02*
X156043500Y-135807104D01*
X154987500Y-116995000D02*
X155054133Y-116995000D01*
X155600133Y-116449000D02*
X156077500Y-116449000D01*
X169355104Y-133312500D02*
X167407500Y-133312500D01*
X167352500Y-133257500D02*
X165987500Y-133257500D01*
X164832500Y-109180000D02*
X164007500Y-109180000D01*
X165274000Y-109621500D02*
X164832500Y-109180000D01*
X165274000Y-109717699D02*
X165274000Y-109621500D01*
X165667500Y-113772500D02*
X165667500Y-110018500D01*
X165590000Y-113850000D02*
X165667500Y-113772500D01*
X165574801Y-110018500D02*
X165274000Y-109717699D01*
X165667500Y-110018500D02*
X165574801Y-110018500D01*
X167537500Y-96875000D02*
X168375000Y-96875000D01*
X142907500Y-70325000D02*
X142912500Y-70330000D01*
X142907500Y-70325000D02*
X145977500Y-70325000D01*
X145977500Y-70325000D02*
X146017500Y-70285000D01*
X164167500Y-126695000D02*
X164207500Y-126735000D01*
X164167500Y-125225000D02*
X164167500Y-126695000D01*
X142912500Y-70330000D02*
X144487500Y-70330000D01*
X164207500Y-126735000D02*
X164207500Y-127285000D01*
X166032500Y-95370000D02*
X167537500Y-96875000D01*
X167479948Y-95875000D02*
X167154500Y-95549552D01*
X156062500Y-106175000D02*
X157724626Y-106175000D01*
X157724626Y-106175000D02*
X159094000Y-107544374D01*
X161414500Y-93202000D02*
X160694896Y-93202000D01*
X165436948Y-93202000D02*
X161414500Y-93202000D01*
X167154500Y-94919552D02*
X166768724Y-94533776D01*
X159094000Y-108651500D02*
X159677500Y-109235000D01*
X160694896Y-93202000D02*
X159717500Y-94179396D01*
X159094000Y-107544374D02*
X159094000Y-108651500D01*
X171497500Y-125815000D02*
X171129000Y-126183500D01*
X159717500Y-101955000D02*
X159737500Y-101975000D01*
X167154500Y-95549552D02*
X167154500Y-94919552D01*
X160315831Y-109235000D02*
X159677500Y-109235000D01*
X159717500Y-94179396D02*
X159717500Y-99595000D01*
X159717500Y-99595000D02*
X159717500Y-101955000D01*
X166768724Y-94533776D02*
X165436948Y-93202000D01*
X171129000Y-126183500D02*
X171129000Y-127315000D01*
X168375000Y-95875000D02*
X167479948Y-95875000D01*
X161187500Y-116225000D02*
X161907500Y-116225000D01*
X158864000Y-133911500D02*
X156697500Y-136078000D01*
X178437500Y-134325000D02*
X177518052Y-134325000D01*
X160505199Y-133966500D02*
X160450199Y-133911500D01*
X156697500Y-143775000D02*
X155677500Y-144795000D01*
X142372604Y-144795000D02*
X142181052Y-144603448D01*
X169626000Y-133966500D02*
X160505199Y-133966500D01*
X141433500Y-143855896D02*
X141433500Y-142425000D01*
X154994000Y-115795000D02*
X160757500Y-115795000D01*
X155677500Y-144795000D02*
X144967500Y-144795000D01*
X160357500Y-113735000D02*
X160357500Y-115395000D01*
X161877500Y-113075000D02*
X161017500Y-113075000D01*
X172613500Y-130979000D02*
X169626000Y-133966500D01*
X160357500Y-115395000D02*
X160792500Y-115830000D01*
X160450199Y-133911500D02*
X158864000Y-133911500D01*
X141433500Y-142425000D02*
X141433500Y-138635000D01*
X160757500Y-115795000D02*
X160792500Y-115830000D01*
X177518052Y-134325000D02*
X174172052Y-130979000D01*
X174172052Y-130979000D02*
X172613500Y-130979000D01*
X160792500Y-115830000D02*
X161187500Y-116225000D01*
X142181052Y-144603448D02*
X141433500Y-143855896D01*
X144967500Y-144795000D02*
X142372604Y-144795000D01*
X141433500Y-138231000D02*
X140997500Y-137795000D01*
X161017500Y-113075000D02*
X160357500Y-113735000D01*
X141433500Y-138635000D02*
X141433500Y-138231000D01*
X156697500Y-136078000D02*
X156697500Y-143775000D01*
X173087464Y-97575036D02*
X173762749Y-98250321D01*
X133237500Y-73535000D02*
X133237500Y-74475000D01*
X175433840Y-99375000D02*
X176700000Y-99375000D01*
X174309161Y-98250321D02*
X175433840Y-99375000D01*
X173762749Y-98250321D02*
X174309161Y-98250321D01*
X167701500Y-112419000D02*
X167701500Y-113738500D01*
X167701500Y-113738500D02*
X167590000Y-113850000D01*
X181447500Y-80525000D02*
X182087500Y-79885000D01*
X149842679Y-96085000D02*
X156011679Y-89916000D01*
X147137500Y-109580523D02*
X147137500Y-111100000D01*
X181447500Y-82485000D02*
X181447500Y-80525000D01*
X166665708Y-78917000D02*
X176179292Y-78917000D01*
X149197500Y-107520523D02*
X147137500Y-109580523D01*
X149566301Y-102126199D02*
X149197500Y-102495000D01*
X149197500Y-102495000D02*
X149197500Y-107520523D01*
X180212396Y-82950104D02*
X180982396Y-82950104D01*
X163453000Y-82129708D02*
X166665708Y-78917000D01*
X149617500Y-96085000D02*
X149842679Y-96085000D01*
X156823844Y-89916000D02*
X159272844Y-87467000D01*
X159272844Y-87467000D02*
X162835708Y-87467000D01*
X176179292Y-78917000D02*
X180212396Y-82950104D01*
X163453000Y-86849708D02*
X163453000Y-82129708D01*
X182087500Y-79885000D02*
X183087500Y-79885000D01*
X149956301Y-102126199D02*
X149566301Y-102126199D01*
X180982396Y-82950104D02*
X181447500Y-82485000D01*
X156011679Y-89916000D02*
X156823844Y-89916000D01*
X162835708Y-87467000D02*
X163453000Y-86849708D01*
X182237500Y-83275000D02*
X183087500Y-82425000D01*
X159679188Y-88448000D02*
X163242052Y-88448000D01*
X151637500Y-98758000D02*
X151810500Y-98585000D01*
X151810500Y-95504523D02*
X156418023Y-90897000D01*
X157230188Y-90897000D02*
X159679188Y-88448000D01*
X151637500Y-99750000D02*
X151637500Y-98758000D01*
X163242052Y-88448000D02*
X164434000Y-87256052D01*
X156418023Y-90897000D02*
X157230188Y-90897000D01*
X180284500Y-88765000D02*
X181517500Y-88765000D01*
X164434000Y-82536052D02*
X167072052Y-79898000D01*
X181527500Y-83275000D02*
X182237500Y-83275000D01*
X175772948Y-79898000D02*
X179294500Y-83419552D01*
X179294500Y-83419552D02*
X179294500Y-87775000D01*
X181517500Y-88765000D02*
X181527500Y-88755000D01*
X179294500Y-87775000D02*
X180284500Y-88765000D01*
X167072052Y-79898000D02*
X175772948Y-79898000D01*
X151810500Y-98585000D02*
X151810500Y-95504523D01*
X164434000Y-87256052D02*
X164434000Y-82536052D01*
X174108109Y-97586821D02*
X175396288Y-98875000D01*
X134287500Y-73535000D02*
X134287500Y-74475000D01*
X175396288Y-98875000D02*
X176700000Y-98875000D01*
X174086897Y-97586821D02*
X174108109Y-97586821D01*
D67*
X168377500Y-60965000D02*
X168397500Y-60945000D01*
X170447500Y-60945000D02*
X172537500Y-63035000D01*
X161943698Y-60965000D02*
X168377500Y-60965000D01*
X160680198Y-59701500D02*
X161943698Y-60965000D01*
X124217500Y-59025000D02*
X125660500Y-57582000D01*
X124217500Y-100445000D02*
X124707500Y-100935000D01*
X156770198Y-59701500D02*
X160680198Y-59701500D01*
X130337500Y-100935000D02*
X130337500Y-103865000D01*
X125660500Y-57582000D02*
X154650698Y-57582000D01*
X154650698Y-57582000D02*
X156770198Y-59701500D01*
X124707500Y-100935000D02*
X130337500Y-100935000D01*
X172537500Y-63035000D02*
X172537500Y-64275000D01*
X168397500Y-60945000D02*
X170447500Y-60945000D01*
D66*
X138587500Y-98925000D02*
X138927500Y-98925000D01*
X156062500Y-102675000D02*
X155277500Y-102675000D01*
X147030081Y-101675000D02*
X146909581Y-101554500D01*
X145927000Y-101554500D02*
X145320500Y-100948000D01*
X155277500Y-102675000D02*
X154277500Y-101675000D01*
X154277500Y-101675000D02*
X147030081Y-101675000D01*
X140950500Y-100948000D02*
X139937500Y-99935000D01*
X145320500Y-100948000D02*
X140950500Y-100948000D01*
X146909581Y-101554500D02*
X145927000Y-101554500D01*
X138927500Y-98925000D02*
X139937500Y-99935000D01*
X136479052Y-62521000D02*
X138662500Y-62521000D01*
X126637500Y-72515000D02*
X126637500Y-72362552D01*
X138662500Y-62521000D02*
X138662500Y-61695000D01*
X126637500Y-72362552D02*
X136479052Y-62521000D01*
X135337500Y-73535000D02*
X135337500Y-74475000D01*
X175983789Y-98375000D02*
X176700000Y-98375000D01*
X175680096Y-97640885D02*
X175699000Y-97659789D01*
X175699000Y-98090211D02*
X175983789Y-98375000D01*
X175699000Y-97659789D02*
X175699000Y-98090211D01*
X175105761Y-97640885D02*
X175680096Y-97640885D01*
X140087500Y-60920000D02*
X139462500Y-60295000D01*
X140087500Y-63175000D02*
X140087500Y-60920000D01*
X136749948Y-63175000D02*
X140087500Y-63175000D01*
X128687500Y-71237448D02*
X136749948Y-63175000D01*
X128687500Y-72515000D02*
X128687500Y-71237448D01*
X136154500Y-125555000D02*
X135757500Y-125555000D01*
X157182500Y-108170000D02*
X157177500Y-108175000D01*
X141257670Y-120440000D02*
X141368670Y-120329000D01*
X135800500Y-127835000D02*
X136227500Y-127835000D01*
X135757500Y-125555000D02*
X135757500Y-127792000D01*
X141368670Y-120329000D02*
X144522499Y-120329000D01*
X157177500Y-108175000D02*
X156062500Y-108175000D01*
X144522499Y-120329000D02*
X144750170Y-120556671D01*
X135757500Y-127792000D02*
X135800500Y-127835000D01*
X136984500Y-124725000D02*
X136154500Y-125555000D01*
X138677500Y-126745000D02*
X138387500Y-127035000D01*
X157507500Y-107675000D02*
X156062500Y-107675000D01*
X138387500Y-127035000D02*
X138107500Y-127035000D01*
X141439303Y-120001500D02*
X141076037Y-120001500D01*
X138677500Y-125871500D02*
X138677500Y-126745000D01*
X141439803Y-120002000D02*
X141439303Y-120001500D01*
X145220073Y-120086769D02*
X145135304Y-120002000D01*
X141076037Y-120001500D02*
X137872000Y-123205537D01*
X137872000Y-125066000D02*
X138677500Y-125871500D01*
X137872000Y-123205537D02*
X137872000Y-125066000D01*
X145135304Y-120002000D02*
X141439803Y-120002000D01*
X139462500Y-61695000D02*
X139462500Y-62848000D01*
X139462500Y-62848000D02*
X136614500Y-62848000D01*
X127662500Y-71800000D02*
X127662500Y-72515000D01*
X136614500Y-62848000D02*
X127662500Y-71800000D01*
X143466604Y-65471000D02*
X153662500Y-65471000D01*
X136537500Y-72400104D02*
X143466604Y-65471000D01*
X153662500Y-65471000D02*
X153662500Y-61695000D01*
X136537500Y-72515000D02*
X136537500Y-72400104D01*
X159408292Y-87794000D02*
X162971156Y-87794000D01*
X156959292Y-90243000D02*
X159408292Y-87794000D01*
X180578500Y-84965000D02*
X183087500Y-84965000D01*
X149637500Y-96752627D02*
X156147127Y-90243000D01*
X179948500Y-83148656D02*
X179948500Y-84335000D01*
X176043844Y-79244000D02*
X179948500Y-83148656D01*
X179948500Y-84335000D02*
X180578500Y-84965000D01*
X149637500Y-99750000D02*
X149637500Y-96752627D01*
X156147127Y-90243000D02*
X156959292Y-90243000D01*
X163780000Y-86985156D02*
X163780000Y-82265156D01*
X166801156Y-79244000D02*
X176043844Y-79244000D01*
X162971156Y-87794000D02*
X163780000Y-86985156D01*
X163780000Y-82265156D02*
X166801156Y-79244000D01*
X166530260Y-78590000D02*
X176314740Y-78590000D01*
X180647500Y-87505000D02*
X183087500Y-87505000D01*
X163126000Y-86714260D02*
X163126000Y-81994260D01*
X155239948Y-102175000D02*
X154412948Y-101348000D01*
X162700260Y-87140000D02*
X163126000Y-86714260D01*
X149423831Y-95570758D02*
X149894473Y-95570758D01*
X156688396Y-89589000D02*
X159137396Y-87140000D01*
X163126000Y-81994260D02*
X166530260Y-78590000D01*
X178553620Y-80828880D02*
X180236844Y-82512104D01*
X180447500Y-87305000D02*
X180647500Y-87505000D01*
X159137396Y-87140000D02*
X162700260Y-87140000D01*
X149197500Y-101348000D02*
X149197500Y-101237000D01*
X176314740Y-78590000D02*
X178553620Y-80828880D01*
X149894473Y-95570758D02*
X155876231Y-89589000D01*
X180236844Y-82512104D02*
X180437109Y-82512104D01*
X155876231Y-89589000D02*
X156688396Y-89589000D01*
X154412948Y-101348000D02*
X149197500Y-101348000D01*
X156062500Y-102175000D02*
X155239948Y-102175000D01*
X156553471Y-91224000D02*
X157365636Y-91224000D01*
X152137500Y-99750000D02*
X152137500Y-95639971D01*
X175637500Y-80225000D02*
X178967500Y-83555000D01*
X167207500Y-80225000D02*
X175637500Y-80225000D01*
X164761000Y-82671500D02*
X167207500Y-80225000D01*
X163377500Y-88775000D02*
X164761000Y-87391500D01*
X157365636Y-91224000D02*
X159814636Y-88775000D01*
X178967500Y-83555000D02*
X178967500Y-87910448D01*
X178967500Y-87910448D02*
X180802052Y-89745000D01*
X180802052Y-89745000D02*
X182787500Y-89745000D01*
X164761000Y-87391500D02*
X164761000Y-82671500D01*
X182787500Y-89745000D02*
X183087500Y-90045000D01*
X159814636Y-88775000D02*
X163377500Y-88775000D01*
X152137500Y-95639971D02*
X156553471Y-91224000D01*
X178824948Y-82487552D02*
X179621500Y-83284104D01*
X166936604Y-79571000D02*
X175908396Y-79571000D01*
X163106604Y-88121000D02*
X164107000Y-87120604D01*
X179987224Y-88005276D02*
X180308948Y-88327000D01*
X164107000Y-82400604D02*
X166936604Y-79571000D01*
X151483500Y-98405000D02*
X151483500Y-95369075D01*
X180308948Y-88327000D02*
X180997500Y-88327000D01*
X159543740Y-88121000D02*
X163106604Y-88121000D01*
X175908396Y-79571000D02*
X178824948Y-82487552D01*
X181562911Y-91060411D02*
X183087500Y-92585000D01*
X157094740Y-90570000D02*
X159543740Y-88121000D01*
X151483500Y-95369075D02*
X156282575Y-90570000D01*
X156282575Y-90570000D02*
X157094740Y-90570000D01*
X179621500Y-87639552D02*
X179987224Y-88005276D01*
X151137500Y-98751000D02*
X151483500Y-98405000D01*
X179621500Y-83284104D02*
X179621500Y-83555000D01*
X181562911Y-90264103D02*
X181562911Y-91060411D01*
X151137500Y-99750000D02*
X151137500Y-98751000D01*
X164107000Y-87120604D02*
X164107000Y-82400604D01*
X179621500Y-83555000D02*
X179621500Y-87639552D01*
X148176888Y-100966212D02*
X148176888Y-99789388D01*
X128857500Y-141355000D02*
X128857500Y-140525000D01*
X148176888Y-99789388D02*
X148137500Y-99750000D01*
X128857500Y-141355000D02*
X128857500Y-142435000D01*
X128857500Y-142435000D02*
X128847500Y-142445000D01*
X128857500Y-140525000D02*
X128757500Y-140425000D01*
X147637500Y-99750000D02*
X147637500Y-100945000D01*
X129757500Y-141255000D02*
X129857500Y-141355000D01*
X147637500Y-100945000D02*
X147627500Y-100955000D01*
X129757500Y-140425000D02*
X129757500Y-141255000D01*
X129857500Y-142395000D02*
X129857500Y-141355000D01*
X164311000Y-95728500D02*
X166457500Y-97875000D01*
X167877500Y-66445000D02*
X162777500Y-71545000D01*
X174687500Y-66445000D02*
X167877500Y-66445000D01*
X166797500Y-126875000D02*
X167207500Y-127285000D01*
X177168812Y-85505351D02*
X177108052Y-85444591D01*
X166457500Y-97875000D02*
X168375000Y-97875000D01*
X166806292Y-125004969D02*
X166797500Y-125013761D01*
X164311000Y-95071500D02*
X164311000Y-95728500D01*
X160482500Y-71600000D02*
X160427500Y-71545000D01*
X161987500Y-71600000D02*
X160482500Y-71600000D01*
X162777500Y-71545000D02*
X160427500Y-71545000D01*
X166797500Y-125013761D02*
X166797500Y-126875000D01*
X177108052Y-85444591D02*
X177108052Y-83865411D01*
X177997500Y-70610763D02*
X177997500Y-69755000D01*
X177997500Y-69755000D02*
X174687500Y-66445000D01*
X138637500Y-71225000D02*
X143737500Y-66125000D01*
X154507500Y-60295000D02*
X154462500Y-60295000D01*
X143737500Y-66125000D02*
X155087500Y-66125000D01*
X155087500Y-66125000D02*
X155087500Y-60875000D01*
X138637500Y-72515000D02*
X138637500Y-71225000D01*
X155087500Y-60875000D02*
X154507500Y-60295000D01*
X148517213Y-95895287D02*
X149137500Y-96515574D01*
X149137500Y-96515574D02*
X149137500Y-99750000D01*
X165797500Y-125014894D02*
X165797500Y-126875000D01*
X178167500Y-83915000D02*
X178107500Y-83855000D01*
X168542500Y-66772000D02*
X162599500Y-72715000D01*
X162599500Y-72715000D02*
X160407500Y-72715000D01*
X165806790Y-125005604D02*
X165797500Y-125014894D01*
X163104250Y-95985250D02*
X165494000Y-98375000D01*
X161987500Y-72870000D02*
X160562500Y-72870000D01*
X178167500Y-85465000D02*
X178167500Y-83915000D01*
X174552052Y-66772000D02*
X168542500Y-66772000D01*
X177559500Y-70172763D02*
X177559500Y-69779448D01*
X165494000Y-98375000D02*
X168375000Y-98375000D01*
X177559500Y-69779448D02*
X174552052Y-66772000D01*
X160562500Y-72870000D02*
X160407500Y-72715000D01*
X165797500Y-126875000D02*
X166207500Y-127285000D01*
X163104250Y-95111750D02*
X163104250Y-95985250D01*
X154487500Y-65798000D02*
X143602052Y-65798000D01*
X154462500Y-61695000D02*
X154487500Y-61720000D01*
X154487500Y-61720000D02*
X154487500Y-65798000D01*
X137587500Y-72515000D02*
X137587500Y-71812552D01*
X137587500Y-71812552D02*
X141537500Y-67862552D01*
X143602052Y-65798000D02*
X141506276Y-67893776D01*
X138637292Y-128635000D02*
X138107500Y-128635000D01*
X139982126Y-124433384D02*
X140035500Y-124486758D01*
X140035500Y-124486758D02*
X140035500Y-127236792D01*
X148637500Y-96635000D02*
X148637500Y-99750000D01*
X140035500Y-127236792D02*
X138637292Y-128635000D01*
X147897500Y-95895000D02*
X148637500Y-96635000D01*
X135530708Y-129415000D02*
X136207500Y-129415000D01*
X141637500Y-101625000D02*
X141987500Y-101275000D01*
X136207500Y-129415000D02*
X136227500Y-129435000D01*
X144312500Y-101275000D02*
X144712500Y-101675000D01*
X134449500Y-128333792D02*
X135530708Y-129415000D01*
X141987500Y-101275000D02*
X144312500Y-101275000D01*
X134449500Y-126521414D02*
X134449500Y-128333792D01*
X134338500Y-126410414D02*
X134449500Y-126521414D01*
X135675604Y-128635000D02*
X136227500Y-128635000D01*
X135093500Y-124868355D02*
X135093500Y-125930448D01*
X135103500Y-125940448D02*
X135103500Y-128062896D01*
X134865765Y-124640620D02*
X135093500Y-124868355D01*
X143237500Y-102175000D02*
X143037500Y-101975000D01*
X135103500Y-128062896D02*
X135675604Y-128635000D01*
X144712500Y-102175000D02*
X143237500Y-102175000D01*
X135093500Y-125930448D02*
X135103500Y-125940448D01*
X142490951Y-102675000D02*
X144712500Y-102675000D01*
X139054500Y-126830448D02*
X138449948Y-127435000D01*
X139054500Y-125466000D02*
X139054500Y-126830448D01*
X141879176Y-103286775D02*
X142490951Y-102675000D01*
X138310500Y-124722000D02*
X139054500Y-125466000D01*
X138449948Y-127435000D02*
X138107500Y-127435000D01*
X160514500Y-116122000D02*
X161587500Y-117195000D01*
X172478052Y-130652000D02*
X169490552Y-133639500D01*
X154994000Y-116435000D02*
X155307000Y-116122000D01*
X141760500Y-139095000D02*
X141760500Y-137886924D01*
X141760500Y-142375000D02*
X141760500Y-139095000D01*
X141760500Y-143720448D02*
X141760500Y-142375000D01*
X155307000Y-116122000D02*
X160514500Y-116122000D01*
X141760500Y-137886924D02*
X141543070Y-137669494D01*
X169490552Y-133639500D02*
X167217500Y-133639500D01*
X167217500Y-133639500D02*
X167162500Y-133584500D01*
X178437500Y-132325000D02*
X175980500Y-132325000D01*
X156370500Y-143639552D02*
X155542052Y-144468000D01*
X155542052Y-144468000D02*
X145847500Y-144468000D01*
X145847500Y-144468000D02*
X142508052Y-144468000D01*
X175980500Y-132325000D02*
X174307500Y-130652000D01*
X142508052Y-144468000D02*
X141760500Y-143720448D01*
X167162500Y-133584500D02*
X158728552Y-133584500D01*
X158728552Y-133584500D02*
X156370500Y-135942552D01*
X156370500Y-135942552D02*
X156370500Y-143639552D01*
X174307500Y-130652000D02*
X172478052Y-130652000D01*
X143662500Y-63509000D02*
X138893500Y-63509000D01*
X138893500Y-63509000D02*
X129887500Y-72515000D01*
X143662500Y-61695000D02*
X143662500Y-63509000D01*
X138137500Y-128205000D02*
X138107500Y-128235000D01*
X143337500Y-103175000D02*
X144712500Y-103175000D01*
X139708500Y-127101344D02*
X138604844Y-128205000D01*
X139362700Y-124433384D02*
X139708500Y-124779184D01*
X139708500Y-124779184D02*
X139708500Y-127101344D01*
X142337500Y-104175000D02*
X143337500Y-103175000D01*
X138604844Y-128205000D02*
X138137500Y-128205000D01*
X144462500Y-60300000D02*
X145087500Y-60925000D01*
X131987500Y-71339896D02*
X131987500Y-72515000D01*
X145087500Y-60925000D02*
X145087500Y-64163000D01*
X144462500Y-60295000D02*
X144462500Y-60300000D01*
X145087500Y-64163000D02*
X139164396Y-64163000D01*
X139164396Y-64163000D02*
X131987500Y-71339896D01*
X149637500Y-111853711D02*
X149637500Y-111100000D01*
X140522320Y-124534102D02*
X140362500Y-124693922D01*
X140362500Y-127372240D02*
X138699740Y-129035000D01*
X140362500Y-124693922D02*
X140362500Y-127372240D01*
X145831410Y-113929000D02*
X147562211Y-113929000D01*
X138699740Y-129035000D02*
X138107500Y-129035000D01*
X147562211Y-113929000D02*
X149637500Y-111853711D01*
X145686060Y-114074350D02*
X145831410Y-113929000D01*
X137217500Y-130825000D02*
X137547500Y-130825000D01*
X150137500Y-111100000D02*
X150137500Y-111853711D01*
X137547500Y-130825000D02*
X137777500Y-131055000D01*
X146206428Y-114256000D02*
X145870428Y-114592000D01*
X147735211Y-114256000D02*
X146537500Y-114256000D01*
X138087500Y-131055000D02*
X138107500Y-131035000D01*
X150137500Y-111853711D02*
X147735211Y-114256000D01*
X137777500Y-131055000D02*
X138087500Y-131055000D01*
X146537500Y-114256000D02*
X146206428Y-114256000D01*
D68*
X160827500Y-129696396D02*
X160827500Y-130605000D01*
X159617500Y-130825000D02*
X159305000Y-130512500D01*
X157842500Y-126370000D02*
X157842500Y-126711396D01*
X157842500Y-126711396D02*
X160827500Y-129696396D01*
X160827500Y-130605000D02*
X160607500Y-130825000D01*
X159305000Y-130512500D02*
X158787500Y-130512500D01*
X160607500Y-130825000D02*
X159617500Y-130825000D01*
X158787500Y-129437500D02*
X158787500Y-128926396D01*
X156572500Y-126711396D02*
X156572500Y-126370000D01*
X158787500Y-128926396D02*
X156572500Y-126711396D01*
D66*
X175496216Y-100375000D02*
X176700000Y-100375000D01*
X158478724Y-92977000D02*
X158367724Y-93088000D01*
X155151919Y-93088000D02*
X153996664Y-94243255D01*
X126637500Y-73535000D02*
X126637500Y-74024632D01*
X153996664Y-94243255D02*
X153996664Y-94648319D01*
X158367724Y-93088000D02*
X155151919Y-93088000D01*
X174277128Y-99155912D02*
X175496216Y-100375000D01*
X126637500Y-74024632D02*
X127040914Y-74428046D01*
X127662500Y-73535000D02*
X127662500Y-74118999D01*
X160424000Y-92548000D02*
X167532052Y-92548000D01*
X159557000Y-93415000D02*
X160424000Y-92548000D01*
X174287500Y-92302552D02*
X174287500Y-93962500D01*
X173602948Y-91618000D02*
X174287500Y-92302552D01*
X154987083Y-94782756D02*
X154779068Y-94574741D01*
X154779068Y-93923299D02*
X155287367Y-93415000D01*
X127662500Y-74118999D02*
X128038192Y-74494691D01*
X167532052Y-92548000D02*
X168462052Y-91618000D01*
X168462052Y-91618000D02*
X173602948Y-91618000D01*
X155287367Y-93415000D02*
X159557000Y-93415000D01*
X154779068Y-94574741D02*
X154779068Y-93923299D01*
X130937500Y-72515000D02*
X130937500Y-71927448D01*
X130937500Y-71927448D02*
X139028948Y-63836000D01*
X139028948Y-63836000D02*
X144487500Y-63836000D01*
X144487500Y-63836000D02*
X144487500Y-61720000D01*
X144487500Y-61720000D02*
X144462500Y-61695000D01*
X137987500Y-102455000D02*
X138667500Y-102455000D01*
X138667500Y-102455000D02*
X138697500Y-102485000D01*
X138579500Y-134479500D02*
X143474500Y-134479500D01*
X143474500Y-134479500D02*
X143997500Y-135002500D01*
X138737500Y-67000104D02*
X141247604Y-64490000D01*
X138737500Y-67015000D02*
X138737500Y-67000104D01*
X133237500Y-72515000D02*
X138737500Y-67015000D01*
X141247604Y-64490000D02*
X148662500Y-64490000D01*
X148662500Y-64490000D02*
X148662500Y-61695000D01*
X135337500Y-72515000D02*
X135337500Y-71339896D01*
X150087500Y-60920000D02*
X149462500Y-60295000D01*
X135337500Y-71339896D02*
X140137500Y-66539896D01*
X141518500Y-65144000D02*
X150087500Y-65144000D01*
X150087500Y-65144000D02*
X150087500Y-60920000D01*
X140137500Y-66539896D02*
X140137500Y-66525000D01*
X140137500Y-66525000D02*
X141518500Y-65144000D01*
X139537500Y-66677448D02*
X134287500Y-71927448D01*
X134287500Y-71927448D02*
X134287500Y-72515000D01*
X149487500Y-64817000D02*
X141383052Y-64817000D01*
X149487500Y-61720000D02*
X149487500Y-64817000D01*
X149462500Y-61695000D02*
X149487500Y-61720000D01*
X141383052Y-64817000D02*
X139537500Y-66662552D01*
X139537500Y-66662552D02*
X139537500Y-66677448D01*
X149137500Y-135185000D02*
X149037500Y-135285000D01*
X149037500Y-135285000D02*
X149037500Y-137080000D01*
X152087500Y-135035000D02*
X152037500Y-135085000D01*
X152037500Y-135085000D02*
X152037500Y-137080000D01*
X122407500Y-116655000D02*
X125457500Y-116655000D01*
X125457500Y-116655000D02*
X125477500Y-116675000D01*
X122407500Y-118655000D02*
X125447500Y-118655000D01*
X125447500Y-118655000D02*
X125477500Y-118625000D01*
X167667500Y-92875000D02*
X168597500Y-91945000D01*
X128687500Y-73535000D02*
X128687500Y-74125000D01*
X168597500Y-91945000D02*
X173467500Y-91945000D01*
X155442568Y-93879932D02*
X159554516Y-93879932D01*
X159554516Y-93879932D02*
X160559448Y-92875000D01*
X128687500Y-74125000D02*
X129037500Y-74475000D01*
X173467500Y-91945000D02*
X173787500Y-92265000D01*
X173787500Y-92265000D02*
X173787500Y-93962500D01*
X160559448Y-92875000D02*
X167667500Y-92875000D01*
X122407500Y-120655000D02*
X122437500Y-120625000D01*
X122437500Y-120625000D02*
X125477500Y-120625000D01*
X125507500Y-122655000D02*
X125577500Y-122725000D01*
X122407500Y-122655000D02*
X125507500Y-122655000D01*
X125407500Y-124655000D02*
X125477500Y-124725000D01*
X122407500Y-124655000D02*
X125407500Y-124655000D01*
X125457500Y-126655000D02*
X125477500Y-126675000D01*
X122407500Y-126655000D02*
X125457500Y-126655000D01*
X122407500Y-128655000D02*
X125397500Y-128655000D01*
X125397500Y-128655000D02*
X125477500Y-128575000D01*
X131237500Y-63505000D02*
X131237500Y-65045000D01*
X131237500Y-65045000D02*
X131307500Y-65115000D01*
X130237500Y-63505000D02*
X130237500Y-65088000D01*
X130237500Y-65088000D02*
X130217500Y-65108000D01*
X169761301Y-115075000D02*
X170281301Y-114555000D01*
X172687500Y-114555000D02*
X173237500Y-115105000D01*
X169315000Y-115075000D02*
X169761301Y-115075000D01*
X178367500Y-117195000D02*
X178437500Y-117125000D01*
X170281301Y-114555000D02*
X170757500Y-114555000D01*
X176762000Y-117195000D02*
X178367500Y-117195000D01*
X170757500Y-114555000D02*
X172687500Y-114555000D01*
X170320500Y-114228000D02*
X169942500Y-113850000D01*
X173080500Y-114228000D02*
X170320500Y-114228000D01*
X173247500Y-114395000D02*
X173080500Y-114228000D01*
X169942500Y-113850000D02*
X168590000Y-113850000D01*
X178437500Y-115125000D02*
X176812000Y-115125000D01*
X176812000Y-115125000D02*
X176762000Y-115175000D01*
X176762000Y-124375000D02*
X178387500Y-124375000D01*
X178387500Y-124375000D02*
X178437500Y-124325000D01*
X166437500Y-106785000D02*
X168533334Y-108880834D01*
X176812000Y-124325000D02*
X176762000Y-124375000D01*
X166437500Y-106230000D02*
X166437500Y-106785000D01*
X168533334Y-108880834D02*
X168533334Y-109146500D01*
X164007500Y-106230000D02*
X164846000Y-107068500D01*
X176762000Y-126375000D02*
X178387500Y-126375000D01*
X178387500Y-126375000D02*
X178437500Y-126325000D01*
X168021276Y-108831224D02*
X168021276Y-109181224D01*
X166258552Y-107068500D02*
X168021276Y-108831224D01*
X164846000Y-107068500D02*
X166258552Y-107068500D01*
X168021276Y-109181224D02*
X167947500Y-109255000D01*
X129237500Y-65025000D02*
X129147500Y-65115000D01*
X129237500Y-63505000D02*
X129237500Y-65025000D01*
X150637500Y-111853711D02*
X147908211Y-114583000D01*
X139381500Y-125076449D02*
X139381500Y-126965896D01*
X138512396Y-127835000D02*
X138107500Y-127835000D01*
X147908211Y-114583000D02*
X147599763Y-114583000D01*
X142680000Y-116183000D02*
X145217052Y-116183000D01*
X142569000Y-116072000D02*
X142680000Y-116183000D01*
X138819159Y-124514108D02*
X139381500Y-125076449D01*
X139381500Y-126965896D02*
X138512396Y-127835000D01*
X150637500Y-111100000D02*
X150637500Y-111853711D01*
X146817052Y-114583000D02*
X147587500Y-114583000D01*
X145217052Y-116183000D02*
X146817052Y-114583000D01*
X135430500Y-127927448D02*
X135738052Y-128235000D01*
X141037500Y-119012000D02*
X141373500Y-119348000D01*
X135430500Y-125805000D02*
X135430500Y-127927448D01*
X141373500Y-119348000D02*
X143901844Y-119348000D01*
X135738052Y-128235000D02*
X136227500Y-128235000D01*
X152637500Y-112595000D02*
X152637500Y-111100000D01*
X147358844Y-115891000D02*
X149341500Y-115891000D01*
X143901844Y-119348000D02*
X147358844Y-115891000D01*
X149341500Y-115891000D02*
X152637500Y-112595000D01*
X135864500Y-124679767D02*
X135420500Y-125123767D01*
X135420500Y-125795000D02*
X135430500Y-125805000D01*
X135420500Y-125123767D02*
X135420500Y-125795000D01*
D67*
X171817500Y-67835000D02*
X171367500Y-67385000D01*
X170537500Y-64275000D02*
X170537500Y-64675000D01*
X170537500Y-64675000D02*
X169487500Y-65725000D01*
X171367500Y-67385000D02*
X170597500Y-67385000D01*
D66*
X147522500Y-85550000D02*
X147522500Y-86930000D01*
X147522500Y-86930000D02*
X147487500Y-86965000D01*
X170287500Y-101563331D02*
X170601000Y-101249831D01*
X125387500Y-64165000D02*
X125387500Y-62955000D01*
X160647500Y-94493652D02*
X160647500Y-98375000D01*
X163337500Y-99315000D02*
X163827500Y-99805000D01*
X118582500Y-64740000D02*
X117067500Y-64740000D01*
X160756530Y-94384622D02*
X160647500Y-94493652D01*
X170601000Y-101249831D02*
X170601000Y-100680591D01*
X160647500Y-98375000D02*
X161587500Y-99315000D01*
X170287500Y-102287500D02*
X170287500Y-101563331D01*
X170601000Y-100680591D02*
X169896738Y-99976329D01*
X161587500Y-99315000D02*
X163337500Y-99315000D01*
X163937500Y-65955000D02*
X163937500Y-64540000D01*
X162004000Y-95273669D02*
X162392669Y-94885000D01*
X159967500Y-72195000D02*
X159967500Y-71384867D01*
X160717500Y-66955000D02*
X161367500Y-66305000D01*
X163587500Y-66305000D02*
X163937500Y-65955000D01*
X162004000Y-97301500D02*
X162004000Y-95273669D01*
X170827500Y-98525000D02*
X170928000Y-98625500D01*
X124387500Y-59785000D02*
X124387500Y-63505000D01*
X163937500Y-64540000D02*
X163937500Y-63685000D01*
X170787500Y-101525779D02*
X170787500Y-102287500D01*
X163937500Y-63685000D02*
X160467500Y-60215000D01*
X124387500Y-63505000D02*
X124367500Y-63525000D01*
X170928000Y-101385279D02*
X170787500Y-101525779D01*
X170928000Y-98625500D02*
X170928000Y-101385279D01*
X154438000Y-58095500D02*
X126077000Y-58095500D01*
X159967500Y-71384867D02*
X160717500Y-70634867D01*
X156557500Y-60215000D02*
X154438000Y-58095500D01*
X163227500Y-98525000D02*
X162004000Y-97301500D01*
X162393376Y-94885000D02*
X162995438Y-94282938D01*
X162392669Y-94885000D02*
X162393376Y-94885000D01*
X161367500Y-66305000D02*
X163587500Y-66305000D01*
X126077000Y-58095500D02*
X124387500Y-59785000D01*
X160717500Y-70634867D02*
X160717500Y-66955000D01*
X160467500Y-60215000D02*
X156557500Y-60215000D01*
X171287500Y-99805000D02*
X171287500Y-102287500D01*
X162085063Y-98525000D02*
X161837500Y-98525000D01*
X156437500Y-58245000D02*
X156377500Y-58245000D01*
X160017500Y-65285000D02*
X159382500Y-65285000D01*
X160390500Y-70499419D02*
X160390500Y-65658000D01*
X171877500Y-99215000D02*
X171287500Y-99805000D01*
X124987802Y-57068500D02*
X123387500Y-58668802D01*
X159418141Y-71471778D02*
X160390500Y-70499419D01*
X123387500Y-58668802D02*
X123387500Y-63505000D01*
X156377500Y-58245000D02*
X155201000Y-57068500D01*
X160390500Y-65658000D02*
X160017500Y-65285000D01*
X159382500Y-65285000D02*
X158687500Y-64590000D01*
X155201000Y-57068500D02*
X124987802Y-57068500D01*
X123387500Y-63505000D02*
X123367500Y-63525000D01*
X161837500Y-98525000D02*
X161632500Y-98320000D01*
X159418141Y-72182458D02*
X159418141Y-71471778D01*
X161632500Y-98320000D02*
X161632500Y-94440000D01*
X147494292Y-116218000D02*
X149476948Y-116218000D01*
X134430500Y-125606470D02*
X134430500Y-125729896D01*
X140103500Y-119675000D02*
X144037292Y-119675000D01*
X152964500Y-112587365D02*
X153137500Y-112414365D01*
X152964500Y-112730448D02*
X152964500Y-112587365D01*
X135613156Y-129035000D02*
X136227500Y-129035000D01*
X144037292Y-119675000D02*
X147494292Y-116218000D01*
X153137500Y-112414365D02*
X153137500Y-111100000D01*
X149476948Y-116218000D02*
X152964500Y-112730448D01*
X134776500Y-128198344D02*
X135613156Y-129035000D01*
X134430500Y-125729896D02*
X134776500Y-126075896D01*
X134776500Y-126075896D02*
X134776500Y-128198344D01*
X139992500Y-119564000D02*
X140103500Y-119675000D01*
X136487500Y-102737500D02*
X137790000Y-101435000D01*
X137790000Y-101435000D02*
X137987500Y-101435000D01*
X136487500Y-105012500D02*
X137565000Y-105012500D01*
X137565000Y-105012500D02*
X137937500Y-105385000D01*
X144712500Y-107675000D02*
X146087500Y-107675000D01*
X137627500Y-132905000D02*
X138527500Y-132905000D01*
X138527500Y-132905000D02*
X138547500Y-132885000D01*
X146087500Y-107675000D02*
X146117500Y-107705000D01*
X144712500Y-105675000D02*
X145767500Y-105675000D01*
X151961659Y-109708000D02*
X151781159Y-109527500D01*
X172754000Y-95773500D02*
X172754000Y-93996000D01*
X174287500Y-100567448D02*
X171989000Y-98268948D01*
X150350500Y-109945000D02*
X149565500Y-109160000D01*
X174287500Y-103503954D02*
X174303023Y-103519477D01*
X156849401Y-112665547D02*
X156849401Y-112095742D01*
X150768000Y-109527500D02*
X150350500Y-109945000D01*
X154461659Y-109708000D02*
X151961659Y-109708000D01*
X172754000Y-93996000D02*
X172787500Y-93962500D01*
X171989000Y-97455000D02*
X171989000Y-95884500D01*
X174287500Y-102287500D02*
X174287500Y-103503954D01*
X171989000Y-98268948D02*
X171989000Y-97455000D01*
X156849401Y-112095742D02*
X154461659Y-109708000D01*
X171989000Y-95884500D02*
X171878000Y-95773500D01*
X174287500Y-102287500D02*
X174287500Y-100567448D01*
X151781159Y-109527500D02*
X150768000Y-109527500D01*
X172127500Y-126065000D02*
X172127500Y-127275000D01*
X161194164Y-93940782D02*
X161599946Y-93535000D01*
X167517500Y-96375000D02*
X168375000Y-96375000D01*
X150168437Y-94614063D02*
X150727500Y-94055000D01*
X152137500Y-110346289D02*
X152137500Y-111100000D01*
X154551000Y-110259789D02*
X154551000Y-110568500D01*
X154326211Y-110035000D02*
X154551000Y-110259789D01*
X154551000Y-110568500D02*
X156227500Y-112245000D01*
X151377500Y-109966000D02*
X151446500Y-110035000D01*
X150727500Y-94055000D02*
X150727500Y-92485500D01*
X151446500Y-110035000D02*
X154326211Y-110035000D01*
X156227500Y-112245000D02*
X156357500Y-112245000D01*
X166827500Y-95685000D02*
X167517500Y-96375000D01*
X151377500Y-109966000D02*
X151757211Y-109966000D01*
X151757211Y-109966000D02*
X152137500Y-110346289D01*
X150727500Y-92485500D02*
X152737500Y-90475500D01*
X165307500Y-93535000D02*
X166827500Y-95055000D01*
X172109500Y-127295000D02*
X172220500Y-127406000D01*
X161599946Y-93535000D02*
X165307500Y-93535000D01*
X166827500Y-95055000D02*
X166827500Y-95685000D01*
X143152500Y-75410000D02*
X144487500Y-75410000D01*
X138637500Y-73535000D02*
X138637500Y-74425000D01*
X143037500Y-75525000D02*
X143152500Y-75410000D01*
X137587500Y-74313331D02*
X138362669Y-75088500D01*
X142937500Y-74225000D02*
X143022500Y-74140000D01*
X137587500Y-73535000D02*
X137587500Y-74313331D01*
X143022500Y-74140000D02*
X144487500Y-74140000D01*
X138973503Y-75088500D02*
X139637003Y-74425000D01*
X138362669Y-75088500D02*
X138973503Y-75088500D01*
X179074000Y-110168500D02*
X174757500Y-114485000D01*
X174787500Y-93246289D02*
X176715289Y-91318500D01*
X174757500Y-114485000D02*
X174757500Y-120862344D01*
X177434802Y-91318500D02*
X179224000Y-93107698D01*
X174757500Y-120862344D02*
X173625844Y-121994000D01*
X179074000Y-95695000D02*
X179074000Y-110168500D01*
X173625844Y-121994000D02*
X172043052Y-121994000D01*
X155487500Y-124195000D02*
X155487500Y-121455000D01*
X161791500Y-122833396D02*
X160429896Y-124195000D01*
X161980500Y-122315000D02*
X161791500Y-122504000D01*
X176715289Y-91318500D02*
X177434802Y-91318500D01*
X160429896Y-124195000D02*
X155487500Y-124195000D01*
X179224000Y-93107698D02*
X179224000Y-95545000D01*
X161791500Y-122504000D02*
X161791500Y-122833396D01*
X179224000Y-95545000D02*
X179074000Y-95695000D01*
X171722052Y-122315000D02*
X161980500Y-122315000D01*
X172043052Y-121994000D02*
X171722052Y-122315000D01*
X174787500Y-93962500D02*
X174787500Y-93246289D01*
X173237500Y-120995000D02*
X173776500Y-120456000D01*
X160647500Y-120015000D02*
X161960500Y-121328000D01*
X154052500Y-121440000D02*
X154032500Y-121420000D01*
X173776500Y-113316000D02*
X177967500Y-109125000D01*
X173776500Y-120456000D02*
X173776500Y-113316000D01*
X166543331Y-121334000D02*
X171133052Y-121334000D01*
X177967500Y-109125000D02*
X177967500Y-97875000D01*
X177967500Y-97875000D02*
X176700000Y-97875000D01*
X171133052Y-121334000D02*
X171472052Y-120995000D01*
X161960500Y-121328000D02*
X166537331Y-121328000D01*
X154032500Y-121420000D02*
X154032500Y-121130223D01*
X166537331Y-121328000D02*
X166543331Y-121334000D01*
X171472052Y-120995000D02*
X173237500Y-120995000D01*
X154032500Y-121130223D02*
X155147723Y-120015000D01*
X155147723Y-120015000D02*
X160647500Y-120015000D01*
X139637500Y-75325000D02*
X139675334Y-75325000D01*
X142927500Y-73335000D02*
X143392500Y-72870000D01*
X143392500Y-72870000D02*
X144487500Y-72870000D01*
X136537500Y-73535000D02*
X136537500Y-73725779D01*
X139537500Y-75425000D02*
X139637500Y-75325000D01*
X140487500Y-74512834D02*
X140487500Y-73762000D01*
X138236721Y-75425000D02*
X139537500Y-75425000D01*
X136537500Y-73725779D02*
X138236721Y-75425000D01*
X139675334Y-75325000D02*
X140487500Y-74512834D01*
X150637500Y-98425000D02*
X150637500Y-99750000D01*
X126497500Y-116675000D02*
X127157500Y-116675000D01*
X127157500Y-116675000D02*
X127167500Y-116685000D01*
X152123000Y-106205000D02*
X152188000Y-106140000D01*
X131307500Y-66784563D02*
X131191563Y-66900500D01*
X149137500Y-111100000D02*
X149137500Y-110115000D01*
X131307500Y-66135000D02*
X131307500Y-66784563D01*
X131987500Y-74426491D02*
X132036009Y-74475000D01*
X131237500Y-66854563D02*
X131191563Y-66900500D01*
X149892500Y-106205000D02*
X152123000Y-106205000D01*
X131987500Y-73535000D02*
X131987500Y-74426491D01*
X161850109Y-89340500D02*
X162419633Y-89340500D01*
X166951496Y-91888995D02*
X167549491Y-91291000D01*
X172287500Y-93962500D02*
X172316000Y-93991000D01*
X172316000Y-98133500D02*
X174877500Y-100695000D01*
X166946491Y-91894000D02*
X166951496Y-91888995D01*
X162676500Y-89705000D02*
X162676500Y-91884000D01*
X172316000Y-93991000D02*
X172316000Y-98133500D01*
X173738396Y-91291000D02*
X174474948Y-92027552D01*
X174474948Y-92027552D02*
X174725500Y-92278104D01*
X162676500Y-89597367D02*
X162676500Y-89705000D01*
X162676500Y-91884000D02*
X162686500Y-91894000D01*
X172306596Y-92743881D02*
X172306596Y-93943404D01*
X172306596Y-93943404D02*
X172287500Y-93962500D01*
X162419633Y-89340500D02*
X162676500Y-89597367D01*
X156412500Y-86710000D02*
X156427500Y-86725000D01*
X169277500Y-91291000D02*
X173738396Y-91291000D01*
X156412500Y-85550000D02*
X156412500Y-86710000D01*
X174787500Y-101535000D02*
X174787500Y-102287500D01*
X161738609Y-89452000D02*
X161850109Y-89340500D01*
X174725500Y-92278104D02*
X174725500Y-92515962D01*
X167549491Y-91291000D02*
X169277500Y-91291000D01*
X164897500Y-91894000D02*
X166946491Y-91894000D01*
X174877500Y-100695000D02*
X174877500Y-101445000D01*
X174877500Y-101445000D02*
X174787500Y-101535000D01*
X162686500Y-91894000D02*
X164897500Y-91894000D01*
X154537500Y-105725000D02*
X156012500Y-105725000D01*
X130937500Y-73535000D02*
X130937500Y-74375994D01*
X130217500Y-66145000D02*
X130217500Y-66865000D01*
X130937500Y-74375994D02*
X131036506Y-74475000D01*
X156012500Y-105725000D02*
X156062500Y-105675000D01*
X130217500Y-66865000D02*
X130187500Y-66895000D01*
X154537500Y-102775000D02*
X154537500Y-105725000D01*
X164797500Y-126875000D02*
X165207500Y-127285000D01*
X164797500Y-124995000D02*
X164797500Y-126875000D01*
X161987500Y-84965000D02*
X161967500Y-84985000D01*
X165310500Y-95298000D02*
X165310500Y-95976331D01*
X161987500Y-84300000D02*
X161987500Y-84965000D01*
X164807500Y-124985000D02*
X164797500Y-124995000D01*
X165310500Y-95976331D02*
X166709169Y-97375000D01*
X166709169Y-97375000D02*
X168375000Y-97375000D01*
X129147500Y-66890500D02*
X129137500Y-66900500D01*
X129887500Y-73535000D02*
X129887500Y-74325497D01*
X129147500Y-66135000D02*
X129147500Y-66890500D01*
X129887500Y-74325497D02*
X130037003Y-74475000D01*
X158405228Y-105917272D02*
X157662956Y-105175000D01*
X155449604Y-98675000D02*
X155513627Y-98610977D01*
X157662956Y-105175000D02*
X156062500Y-105175000D01*
X155513627Y-98610977D02*
X157151523Y-98610977D01*
X150137500Y-98474503D02*
X150087997Y-98425000D01*
X127147500Y-118625000D02*
X127157500Y-118615000D01*
X150137500Y-99750000D02*
X150137500Y-98474503D01*
X126497500Y-118625000D02*
X127147500Y-118625000D01*
X127167500Y-120625000D02*
X127177500Y-120635000D01*
X126497500Y-120625000D02*
X127167500Y-120625000D01*
X128044000Y-103785000D02*
X131374000Y-107115000D01*
X143958789Y-103675000D02*
X144712500Y-103675000D01*
X140518789Y-107115000D02*
X143958789Y-103675000D01*
X131374000Y-107115000D02*
X140518789Y-107115000D01*
X128371000Y-104945000D02*
X128741552Y-104945000D01*
X140654237Y-107442000D02*
X143921237Y-104175000D01*
X126597500Y-122725000D02*
X127277500Y-122725000D01*
X131238552Y-107442000D02*
X140654237Y-107442000D01*
X127277500Y-122725000D02*
X127287500Y-122735000D01*
X128741552Y-104945000D02*
X131238552Y-107442000D01*
X143921237Y-104175000D02*
X144712500Y-104175000D01*
X126497500Y-128575000D02*
X127187500Y-128575000D01*
X162227500Y-89789500D02*
X162238000Y-89779000D01*
X167239624Y-92221000D02*
X162493500Y-92221000D01*
X162493500Y-92221000D02*
X162227500Y-91955000D01*
X143209283Y-86025971D02*
X143209283Y-85868990D01*
X127187500Y-128575000D02*
X127197500Y-128565000D01*
X162227500Y-91955000D02*
X162227500Y-89789500D01*
X171757500Y-92765000D02*
X171757500Y-93932500D01*
X142911435Y-95887000D02*
X142911435Y-86323819D01*
X142911435Y-86323819D02*
X143209283Y-86025971D01*
X171757500Y-93932500D02*
X171787500Y-93962500D01*
X167351562Y-92109062D02*
X167239624Y-92221000D01*
X143565435Y-87067066D02*
X143986397Y-86646104D01*
X143867500Y-94662552D02*
X143565435Y-94360487D01*
X126497500Y-124725000D02*
X127197500Y-124725000D01*
X161942500Y-83075000D02*
X161987500Y-83030000D01*
X160877500Y-83075000D02*
X161942500Y-83075000D01*
X143867500Y-95233000D02*
X143867500Y-94662552D01*
X143565435Y-94360487D02*
X143565435Y-87067066D01*
X160752500Y-81760000D02*
X161987500Y-81760000D01*
X160687500Y-81825000D02*
X160752500Y-81760000D01*
X143238435Y-86616952D02*
X143597840Y-86257547D01*
X126497500Y-126675000D02*
X127157500Y-126675000D01*
X143238435Y-94495935D02*
X143238435Y-86616952D01*
X143366397Y-95560000D02*
X143417500Y-95508897D01*
X143417500Y-94675000D02*
X143238435Y-94495935D01*
X143417500Y-95508897D02*
X143417500Y-94675000D01*
X176700000Y-102287500D02*
X175287500Y-102287500D01*
X157099948Y-96045000D02*
X157717500Y-96045000D01*
X154551000Y-98593948D02*
X155478724Y-97666224D01*
X177267500Y-102855000D02*
X176700000Y-102287500D01*
X154551000Y-99315000D02*
X154551000Y-98593948D01*
X154551000Y-100163500D02*
X154551000Y-99315000D01*
X155478724Y-97666224D02*
X157099948Y-96045000D01*
X156062500Y-101675000D02*
X154551000Y-100163500D01*
X180057500Y-90415000D02*
X180057500Y-90095000D01*
X180057500Y-90095000D02*
X178557500Y-88595000D01*
X170807500Y-92787000D02*
X170807500Y-93942500D01*
X175097500Y-88595000D02*
X175007500Y-88685000D01*
X170807500Y-93942500D02*
X170787500Y-93962500D01*
X178557500Y-88595000D02*
X175097500Y-88595000D01*
X166237500Y-137175000D02*
X166237500Y-134405000D01*
X174985294Y-87685745D02*
X178266593Y-87685745D01*
X167267500Y-136205000D02*
X168237500Y-137175000D01*
X178266593Y-87685745D02*
X181055237Y-90474389D01*
X169778144Y-92755644D02*
X168375000Y-94158789D01*
X167267500Y-134405000D02*
X167267500Y-136205000D01*
X168375000Y-94158789D02*
X168375000Y-95375000D01*
X154137500Y-98545000D02*
X154137500Y-99750000D01*
X176700000Y-101247500D02*
X177257500Y-101805000D01*
X176700000Y-100875000D02*
X176700000Y-101247500D01*
X157187003Y-95495497D02*
X154137500Y-98545000D01*
X157717500Y-95495497D02*
X157187003Y-95495497D01*
X167090000Y-118800000D02*
X167090000Y-119435449D01*
X152377500Y-105709367D02*
X154337500Y-107669367D01*
X152377500Y-102175000D02*
X152377500Y-105709367D01*
X154337500Y-107669367D02*
X154337500Y-108616000D01*
X167090000Y-119435449D02*
X167192939Y-119538388D01*
X152637500Y-100627806D02*
X152637500Y-99750000D01*
X152413000Y-100852306D02*
X152637500Y-100627806D01*
X136601448Y-135186500D02*
X133824500Y-132409552D01*
X143551948Y-143487000D02*
X142853000Y-142788052D01*
X174157500Y-128825000D02*
X174167500Y-128815000D01*
X133824500Y-124958000D02*
X138012213Y-120770287D01*
X174167500Y-128815000D02*
X174167500Y-127315000D01*
X172677500Y-129065208D02*
X172677500Y-128795000D01*
X138012213Y-120770287D02*
X138012213Y-117239713D01*
X142853000Y-142788052D02*
X142853000Y-137270360D01*
X172652604Y-129090104D02*
X172677500Y-129065208D01*
X169139208Y-132603500D02*
X158322208Y-132603500D01*
X172220500Y-129522208D02*
X172652604Y-129090104D01*
X172220500Y-129522208D02*
X169139208Y-132603500D01*
X155389500Y-143233208D02*
X155135708Y-143487000D01*
X155389500Y-135536208D02*
X155389500Y-143233208D01*
X133824500Y-132409552D02*
X133824500Y-124958000D01*
X155135708Y-143487000D02*
X143551948Y-143487000D01*
X140247500Y-108175000D02*
X144712500Y-108175000D01*
X158322208Y-132603500D02*
X155389500Y-135536208D01*
X139867500Y-108555000D02*
X140247500Y-108175000D01*
X140769140Y-135186500D02*
X136601448Y-135186500D01*
X142853000Y-137270360D02*
X140769140Y-135186500D01*
X155716500Y-135671656D02*
X158457656Y-132930500D01*
X169274656Y-132930500D02*
X173167500Y-129037656D01*
X155271156Y-143814000D02*
X155716500Y-143368656D01*
X142022700Y-115979800D02*
X138651993Y-115979800D01*
X173167500Y-129037656D02*
X173167500Y-127315000D01*
X133497500Y-132545000D02*
X136466000Y-135513500D01*
X136466000Y-135513500D02*
X140633692Y-135513500D01*
X158457656Y-132930500D02*
X169274656Y-132930500D01*
X138651993Y-115979800D02*
X137573713Y-117058080D01*
X146637500Y-111100000D02*
X146637500Y-111365000D01*
X140633692Y-135513500D02*
X142526000Y-137405808D01*
X142526000Y-142923500D02*
X143416500Y-143814000D01*
X155716500Y-143368656D02*
X155716500Y-135671656D01*
X137573713Y-120746339D02*
X133497500Y-124822552D01*
X133497500Y-124822552D02*
X133497500Y-132545000D01*
X143416500Y-143814000D02*
X155271156Y-143814000D01*
X146637500Y-111365000D02*
X142022700Y-115979800D01*
X142526000Y-137405808D02*
X142526000Y-142923500D01*
X137573713Y-117058080D02*
X137573713Y-120746339D01*
X142472935Y-95566500D02*
X142472935Y-96055000D01*
X142584435Y-95455000D02*
X142472935Y-95566500D01*
X144030500Y-80490000D02*
X142727500Y-81793000D01*
X145836500Y-100294000D02*
X143036500Y-100294000D01*
X146280287Y-100647787D02*
X146190287Y-100647787D01*
X142727500Y-86045306D02*
X142584435Y-86188371D01*
X146717500Y-105345133D02*
X146717500Y-103575000D01*
X146727500Y-101095000D02*
X146280287Y-100647787D01*
X143036500Y-100294000D02*
X142472935Y-99730435D01*
X145887633Y-106175000D02*
X146717500Y-105345133D01*
X146717500Y-102445000D02*
X146717500Y-103635000D01*
X146190287Y-100647787D02*
X145836500Y-100294000D01*
X142472935Y-99730435D02*
X142472935Y-96015000D01*
X144487500Y-80490000D02*
X144030500Y-80490000D01*
X144712500Y-106175000D02*
X145887633Y-106175000D01*
X142584435Y-86188371D02*
X142584435Y-95455000D01*
X142727500Y-81793000D02*
X142727500Y-86045306D01*
X143610500Y-79220000D02*
X142400500Y-80430000D01*
X145921235Y-101086287D02*
X146078213Y-101086287D01*
X144487500Y-79220000D02*
X143610500Y-79220000D01*
X145455948Y-100621000D02*
X145921235Y-101086287D01*
X142901052Y-100621000D02*
X145455948Y-100621000D01*
X142257435Y-86028065D02*
X142257435Y-95319552D01*
X147156000Y-105369081D02*
X145850081Y-106675000D01*
X145850081Y-106675000D02*
X144712500Y-106675000D01*
X146107500Y-101993000D02*
X146885633Y-101993000D01*
X147156000Y-102263367D02*
X147156000Y-105369081D01*
X142400500Y-85885000D02*
X142257435Y-86028065D01*
X142257435Y-95319552D02*
X142145935Y-95431052D01*
X146885633Y-101993000D02*
X147156000Y-102263367D01*
X142145935Y-99865883D02*
X142901052Y-100621000D01*
X142400500Y-80430000D02*
X142400500Y-85885000D01*
X142145935Y-95431052D02*
X142145935Y-99865883D01*
X147637500Y-109542971D02*
X147637500Y-111100000D01*
X151424010Y-108067500D02*
X149112971Y-108067500D01*
X166590000Y-119412286D02*
X166647709Y-119469995D01*
X153482000Y-108436000D02*
X151792510Y-108436000D01*
X166590000Y-118800000D02*
X166590000Y-119412286D01*
X151792510Y-108436000D02*
X151424010Y-108067500D01*
X149112971Y-108067500D02*
X147637500Y-109542971D01*
X153662000Y-108616000D02*
X153482000Y-108436000D01*
X151767562Y-108873500D02*
X151288562Y-108394500D01*
X148137500Y-109505419D02*
X148137500Y-111100000D01*
X152052055Y-108873500D02*
X151767562Y-108873500D01*
X151288562Y-108394500D02*
X149248419Y-108394500D01*
X168590000Y-118800000D02*
X168590000Y-119452500D01*
X152232555Y-109054000D02*
X152052055Y-108873500D01*
X154588500Y-109054000D02*
X152232555Y-109054000D01*
X154913000Y-108729500D02*
X154588500Y-109054000D01*
X154913000Y-108297000D02*
X154913000Y-108729500D01*
X168590000Y-119452500D02*
X168527500Y-119515000D01*
X149248419Y-108394500D02*
X148137500Y-109505419D01*
X151153114Y-108721500D02*
X149383867Y-108721500D01*
X154597107Y-109381000D02*
X152097107Y-109381000D01*
X148637500Y-109467867D02*
X148637500Y-111100000D01*
X151916607Y-109200500D02*
X151632114Y-109200500D01*
X152097107Y-109381000D02*
X151916607Y-109200500D01*
X167590000Y-119348732D02*
X167741086Y-119499818D01*
X156399308Y-110443192D02*
X155659299Y-110443192D01*
X155659299Y-110443192D02*
X154597107Y-109381000D01*
X149383867Y-108721500D02*
X148637500Y-109467867D01*
X167590000Y-118800000D02*
X167590000Y-119348732D01*
X151632114Y-109200500D02*
X151153114Y-108721500D01*
X171607500Y-121322000D02*
X171268500Y-121661000D01*
X171268500Y-121661000D02*
X163476500Y-121661000D01*
X161137500Y-122562500D02*
X161137500Y-122233104D01*
X159527500Y-123417000D02*
X160283000Y-123417000D01*
X152762500Y-124690000D02*
X152817500Y-124635000D01*
X152762500Y-126370000D02*
X152762500Y-124690000D01*
X173372948Y-121322000D02*
X171607500Y-121322000D01*
X174103500Y-120591448D02*
X173372948Y-121322000D01*
X161137500Y-122233104D02*
X161715604Y-121655000D01*
X177416211Y-96875000D02*
X177820500Y-97279289D01*
X160283000Y-123417000D02*
X161137500Y-122562500D01*
X177820500Y-97279289D02*
X177834237Y-97279289D01*
X161715604Y-121655000D02*
X163497500Y-121655000D01*
X178294500Y-97739552D02*
X178294500Y-109260448D01*
X178294500Y-109260448D02*
X174103500Y-113451448D01*
X174103500Y-113451448D02*
X174103500Y-120591448D01*
X176700000Y-96875000D02*
X177416211Y-96875000D01*
X177834237Y-97279289D02*
X178294500Y-97739552D01*
X161845052Y-121988000D02*
X171408500Y-121988000D01*
X157486000Y-123757000D02*
X157584000Y-123855000D01*
X171747500Y-121649000D02*
X173508396Y-121649000D01*
X174430500Y-113586896D02*
X178621500Y-109395896D01*
X160307448Y-123855000D02*
X161464500Y-122697948D01*
X174430500Y-120726896D02*
X174430500Y-113586896D01*
X177416211Y-96375000D02*
X176700000Y-96375000D01*
X161464500Y-122368552D02*
X161845052Y-121988000D01*
X178621500Y-97580289D02*
X177416211Y-96375000D01*
X178621500Y-109395896D02*
X178621500Y-97580289D01*
X154097500Y-126305000D02*
X154032500Y-126370000D01*
X157584000Y-123855000D02*
X160307448Y-123855000D01*
X161464500Y-122697948D02*
X161464500Y-122368552D01*
X171408500Y-121988000D02*
X171747500Y-121649000D01*
X173508396Y-121649000D02*
X174430500Y-120726896D01*
X154097500Y-124765000D02*
X154097500Y-126305000D01*
X138344500Y-132235000D02*
X137277500Y-132235000D01*
X138107500Y-129435000D02*
X138107500Y-129835000D01*
X137277500Y-132235000D02*
X136607500Y-132905000D01*
X138534500Y-130635000D02*
X138571000Y-130671500D01*
X138571000Y-130671500D02*
X138571000Y-132008500D01*
X138107500Y-129835000D02*
X138107500Y-130232924D01*
X138107500Y-130232924D02*
X138107500Y-130635000D01*
X138107500Y-130635000D02*
X138534500Y-130635000D01*
X138571000Y-132008500D02*
X138344500Y-132235000D01*
M02*
