G04 #@! TF.GenerationSoftware,KiCad,Pcbnew,(7.0.0-0)*
G04 #@! TF.CreationDate,2023-04-29T12:32:17-06:00*
G04 #@! TF.ProjectId,EV6 Board Design,45563620-426f-4617-9264-204465736967,rev?*
G04 #@! TF.SameCoordinates,Original*
G04 #@! TF.FileFunction,Legend,Top*
G04 #@! TF.FilePolarity,Positive*
%FSLAX46Y46*%
G04 Gerber Fmt 4.6, Leading zero omitted, Abs format (unit mm)*
G04 Created by KiCad (PCBNEW (7.0.0-0)) date 2023-04-29 12:32:17*
%MOMM*%
%LPD*%
G01*
G04 APERTURE LIST*
G04 Aperture macros list*
%AMRoundRect*
0 Rectangle with rounded corners*
0 $1 Rounding radius*
0 $2 $3 $4 $5 $6 $7 $8 $9 X,Y pos of 4 corners*
0 Add a 4 corners polygon primitive as box body*
4,1,4,$2,$3,$4,$5,$6,$7,$8,$9,$2,$3,0*
0 Add four circle primitives for the rounded corners*
1,1,$1+$1,$2,$3*
1,1,$1+$1,$4,$5*
1,1,$1+$1,$6,$7*
1,1,$1+$1,$8,$9*
0 Add four rect primitives between the rounded corners*
20,1,$1+$1,$2,$3,$4,$5,0*
20,1,$1+$1,$4,$5,$6,$7,0*
20,1,$1+$1,$6,$7,$8,$9,0*
20,1,$1+$1,$8,$9,$2,$3,0*%
G04 Aperture macros list end*
%ADD10C,0.100000*%
%ADD11C,0.300000*%
%ADD12C,0.900000*%
%ADD13C,0.120000*%
%ADD14C,0.152400*%
%ADD15C,0.127000*%
%ADD16C,0.200000*%
%ADD17C,3.200000*%
%ADD18RoundRect,0.135000X-0.135000X-0.185000X0.135000X-0.185000X0.135000X0.185000X-0.135000X0.185000X0*%
%ADD19RoundRect,0.140000X0.140000X0.170000X-0.140000X0.170000X-0.140000X-0.170000X0.140000X-0.170000X0*%
%ADD20R,1.422400X0.533400*%
%ADD21RoundRect,0.140000X-0.140000X-0.170000X0.140000X-0.170000X0.140000X0.170000X-0.140000X0.170000X0*%
%ADD22R,0.600000X0.450000*%
%ADD23RoundRect,0.075000X0.075000X-0.662500X0.075000X0.662500X-0.075000X0.662500X-0.075000X-0.662500X0*%
%ADD24RoundRect,0.075000X0.662500X-0.075000X0.662500X0.075000X-0.662500X0.075000X-0.662500X-0.075000X0*%
%ADD25RoundRect,0.140000X0.170000X-0.140000X0.170000X0.140000X-0.170000X0.140000X-0.170000X-0.140000X0*%
%ADD26RoundRect,0.250000X-0.475000X0.250000X-0.475000X-0.250000X0.475000X-0.250000X0.475000X0.250000X0*%
%ADD27RoundRect,0.135000X-0.185000X0.135000X-0.185000X-0.135000X0.185000X-0.135000X0.185000X0.135000X0*%
%ADD28RoundRect,0.140000X-0.170000X0.140000X-0.170000X-0.140000X0.170000X-0.140000X0.170000X0.140000X0*%
%ADD29RoundRect,0.250000X1.500000X-0.250000X1.500000X0.250000X-1.500000X0.250000X-1.500000X-0.250000X0*%
%ADD30RoundRect,0.250001X1.449999X-0.499999X1.449999X0.499999X-1.449999X0.499999X-1.449999X-0.499999X0*%
%ADD31R,0.400000X0.410000*%
%ADD32R,0.400000X0.200000*%
%ADD33RoundRect,0.075000X0.700000X0.075000X-0.700000X0.075000X-0.700000X-0.075000X0.700000X-0.075000X0*%
%ADD34RoundRect,0.075000X0.075000X0.700000X-0.075000X0.700000X-0.075000X-0.700000X0.075000X-0.700000X0*%
%ADD35RoundRect,0.135000X0.185000X-0.135000X0.185000X0.135000X-0.185000X0.135000X-0.185000X-0.135000X0*%
%ADD36R,0.500000X1.700000*%
%ADD37R,1.200000X2.500000*%
%ADD38RoundRect,0.218750X-0.218750X-0.256250X0.218750X-0.256250X0.218750X0.256250X-0.218750X0.256250X0*%
%ADD39RoundRect,0.135000X0.135000X0.185000X-0.135000X0.185000X-0.135000X-0.185000X0.135000X-0.185000X0*%
%ADD40C,2.100000*%
%ADD41R,1.700000X1.700000*%
%ADD42O,1.700000X1.700000*%
%ADD43RoundRect,0.250000X0.650000X-0.325000X0.650000X0.325000X-0.650000X0.325000X-0.650000X-0.325000X0*%
%ADD44RoundRect,0.243750X0.456250X-0.243750X0.456250X0.243750X-0.456250X0.243750X-0.456250X-0.243750X0*%
%ADD45RoundRect,0.250000X0.250000X1.500000X-0.250000X1.500000X-0.250000X-1.500000X0.250000X-1.500000X0*%
%ADD46RoundRect,0.250001X0.499999X1.449999X-0.499999X1.449999X-0.499999X-1.449999X0.499999X-1.449999X0*%
%ADD47R,1.120000X2.160000*%
%ADD48RoundRect,0.007500X-0.372500X-0.117500X0.372500X-0.117500X0.372500X0.117500X-0.372500X0.117500X0*%
%ADD49RoundRect,0.007500X0.117500X-0.372500X0.117500X0.372500X-0.117500X0.372500X-0.117500X-0.372500X0*%
%ADD50R,3.650000X3.650000*%
%ADD51RoundRect,0.250000X0.475000X-0.250000X0.475000X0.250000X-0.475000X0.250000X-0.475000X-0.250000X0*%
%ADD52R,0.400000X0.600000*%
%ADD53RoundRect,0.150000X0.150000X-0.825000X0.150000X0.825000X-0.150000X0.825000X-0.150000X-0.825000X0*%
%ADD54R,1.500000X2.000000*%
%ADD55R,3.800000X2.000000*%
%ADD56R,1.500000X0.900000*%
%ADD57R,0.900000X1.500000*%
%ADD58RoundRect,0.250000X-0.250000X-1.500000X0.250000X-1.500000X0.250000X1.500000X-0.250000X1.500000X0*%
%ADD59RoundRect,0.250001X-0.499999X-1.449999X0.499999X-1.449999X0.499999X1.449999X-0.499999X1.449999X0*%
%ADD60RoundRect,0.250000X-1.500000X0.250000X-1.500000X-0.250000X1.500000X-0.250000X1.500000X0.250000X0*%
%ADD61RoundRect,0.250001X-1.449999X0.499999X-1.449999X-0.499999X1.449999X-0.499999X1.449999X0.499999X0*%
%ADD62C,0.650000*%
%ADD63R,0.600000X1.450000*%
%ADD64R,0.300000X1.450000*%
%ADD65O,1.000000X2.100000*%
%ADD66O,1.000000X1.600000*%
%ADD67R,0.500000X0.375000*%
%ADD68R,0.650000X0.300000*%
%ADD69RoundRect,0.150000X-0.150000X0.512500X-0.150000X-0.512500X0.150000X-0.512500X0.150000X0.512500X0*%
%ADD70R,1.400000X1.200000*%
G04 APERTURE END LIST*
D10*
X125326142Y-68192856D02*
X125354714Y-68107142D01*
X125354714Y-68107142D02*
X125383285Y-68078571D01*
X125383285Y-68078571D02*
X125440428Y-68049999D01*
X125440428Y-68049999D02*
X125526142Y-68049999D01*
X125526142Y-68049999D02*
X125583285Y-68078571D01*
X125583285Y-68078571D02*
X125611857Y-68107142D01*
X125611857Y-68107142D02*
X125640428Y-68164285D01*
X125640428Y-68164285D02*
X125640428Y-68392856D01*
X125640428Y-68392856D02*
X125040428Y-68392856D01*
X125040428Y-68392856D02*
X125040428Y-68192856D01*
X125040428Y-68192856D02*
X125069000Y-68135714D01*
X125069000Y-68135714D02*
X125097571Y-68107142D01*
X125097571Y-68107142D02*
X125154714Y-68078571D01*
X125154714Y-68078571D02*
X125211857Y-68078571D01*
X125211857Y-68078571D02*
X125269000Y-68107142D01*
X125269000Y-68107142D02*
X125297571Y-68135714D01*
X125297571Y-68135714D02*
X125326142Y-68192856D01*
X125326142Y-68192856D02*
X125326142Y-68392856D01*
X125040428Y-67878571D02*
X125040428Y-67535714D01*
X125640428Y-67707142D02*
X125040428Y-67707142D01*
X125640428Y-67335713D02*
X125040428Y-67335713D01*
X125040428Y-67335713D02*
X125640428Y-66992856D01*
X125640428Y-66992856D02*
X125040428Y-66992856D01*
X125697571Y-66850000D02*
X125697571Y-66392857D01*
X125640428Y-65907142D02*
X125354714Y-66107142D01*
X125640428Y-66249999D02*
X125040428Y-66249999D01*
X125040428Y-66249999D02*
X125040428Y-66021428D01*
X125040428Y-66021428D02*
X125069000Y-65964285D01*
X125069000Y-65964285D02*
X125097571Y-65935714D01*
X125097571Y-65935714D02*
X125154714Y-65907142D01*
X125154714Y-65907142D02*
X125240428Y-65907142D01*
X125240428Y-65907142D02*
X125297571Y-65935714D01*
X125297571Y-65935714D02*
X125326142Y-65964285D01*
X125326142Y-65964285D02*
X125354714Y-66021428D01*
X125354714Y-66021428D02*
X125354714Y-66249999D01*
X125611857Y-65678571D02*
X125640428Y-65592857D01*
X125640428Y-65592857D02*
X125640428Y-65449999D01*
X125640428Y-65449999D02*
X125611857Y-65392857D01*
X125611857Y-65392857D02*
X125583285Y-65364285D01*
X125583285Y-65364285D02*
X125526142Y-65335714D01*
X125526142Y-65335714D02*
X125469000Y-65335714D01*
X125469000Y-65335714D02*
X125411857Y-65364285D01*
X125411857Y-65364285D02*
X125383285Y-65392857D01*
X125383285Y-65392857D02*
X125354714Y-65449999D01*
X125354714Y-65449999D02*
X125326142Y-65564285D01*
X125326142Y-65564285D02*
X125297571Y-65621428D01*
X125297571Y-65621428D02*
X125269000Y-65649999D01*
X125269000Y-65649999D02*
X125211857Y-65678571D01*
X125211857Y-65678571D02*
X125154714Y-65678571D01*
X125154714Y-65678571D02*
X125097571Y-65649999D01*
X125097571Y-65649999D02*
X125069000Y-65621428D01*
X125069000Y-65621428D02*
X125040428Y-65564285D01*
X125040428Y-65564285D02*
X125040428Y-65421428D01*
X125040428Y-65421428D02*
X125069000Y-65335714D01*
X125040428Y-65164285D02*
X125040428Y-64821428D01*
X125640428Y-64992856D02*
X125040428Y-64992856D01*
D11*
X117850357Y-75260714D02*
X117850357Y-75927381D01*
X116802738Y-76213095D02*
X116802738Y-75260714D01*
X116802738Y-75260714D02*
X118802738Y-75260714D01*
X118802738Y-75260714D02*
X118802738Y-76213095D01*
X118802738Y-76784524D02*
X116802738Y-77451190D01*
X116802738Y-77451190D02*
X118802738Y-78117857D01*
X118802738Y-79641667D02*
X118802738Y-79260714D01*
X118802738Y-79260714D02*
X118707500Y-79070238D01*
X118707500Y-79070238D02*
X118612261Y-78975000D01*
X118612261Y-78975000D02*
X118326547Y-78784524D01*
X118326547Y-78784524D02*
X117945595Y-78689286D01*
X117945595Y-78689286D02*
X117183690Y-78689286D01*
X117183690Y-78689286D02*
X116993214Y-78784524D01*
X116993214Y-78784524D02*
X116897976Y-78879762D01*
X116897976Y-78879762D02*
X116802738Y-79070238D01*
X116802738Y-79070238D02*
X116802738Y-79451191D01*
X116802738Y-79451191D02*
X116897976Y-79641667D01*
X116897976Y-79641667D02*
X116993214Y-79736905D01*
X116993214Y-79736905D02*
X117183690Y-79832143D01*
X117183690Y-79832143D02*
X117659880Y-79832143D01*
X117659880Y-79832143D02*
X117850357Y-79736905D01*
X117850357Y-79736905D02*
X117945595Y-79641667D01*
X117945595Y-79641667D02*
X118040833Y-79451191D01*
X118040833Y-79451191D02*
X118040833Y-79070238D01*
X118040833Y-79070238D02*
X117945595Y-78879762D01*
X117945595Y-78879762D02*
X117850357Y-78784524D01*
X117850357Y-78784524D02*
X117659880Y-78689286D01*
X116802738Y-80689286D02*
X118802738Y-80689286D01*
X118040833Y-80689286D02*
X118136071Y-80879762D01*
X118136071Y-80879762D02*
X118136071Y-81260715D01*
X118136071Y-81260715D02*
X118040833Y-81451191D01*
X118040833Y-81451191D02*
X117945595Y-81546429D01*
X117945595Y-81546429D02*
X117755119Y-81641667D01*
X117755119Y-81641667D02*
X117183690Y-81641667D01*
X117183690Y-81641667D02*
X116993214Y-81546429D01*
X116993214Y-81546429D02*
X116897976Y-81451191D01*
X116897976Y-81451191D02*
X116802738Y-81260715D01*
X116802738Y-81260715D02*
X116802738Y-80879762D01*
X116802738Y-80879762D02*
X116897976Y-80689286D01*
X117564642Y-83698810D02*
X117564642Y-85222620D01*
X117850357Y-88041667D02*
X117850357Y-87375000D01*
X116802738Y-87375000D02*
X118802738Y-87375000D01*
X118802738Y-87375000D02*
X118802738Y-88327381D01*
X116802738Y-89089286D02*
X118802738Y-89089286D01*
X116802738Y-90041667D02*
X118802738Y-90041667D01*
X118802738Y-90041667D02*
X116802738Y-91184524D01*
X116802738Y-91184524D02*
X118802738Y-91184524D01*
X116802738Y-92136905D02*
X118802738Y-92136905D01*
X118802738Y-92136905D02*
X116802738Y-93279762D01*
X116802738Y-93279762D02*
X118802738Y-93279762D01*
X117850357Y-96098810D02*
X117755119Y-96384524D01*
X117755119Y-96384524D02*
X117659880Y-96479762D01*
X117659880Y-96479762D02*
X117469404Y-96575000D01*
X117469404Y-96575000D02*
X117183690Y-96575000D01*
X117183690Y-96575000D02*
X116993214Y-96479762D01*
X116993214Y-96479762D02*
X116897976Y-96384524D01*
X116897976Y-96384524D02*
X116802738Y-96194048D01*
X116802738Y-96194048D02*
X116802738Y-95432143D01*
X116802738Y-95432143D02*
X118802738Y-95432143D01*
X118802738Y-95432143D02*
X118802738Y-96098810D01*
X118802738Y-96098810D02*
X118707500Y-96289286D01*
X118707500Y-96289286D02*
X118612261Y-96384524D01*
X118612261Y-96384524D02*
X118421785Y-96479762D01*
X118421785Y-96479762D02*
X118231309Y-96479762D01*
X118231309Y-96479762D02*
X118040833Y-96384524D01*
X118040833Y-96384524D02*
X117945595Y-96289286D01*
X117945595Y-96289286D02*
X117850357Y-96098810D01*
X117850357Y-96098810D02*
X117850357Y-95432143D01*
X117850357Y-97432143D02*
X117850357Y-98098810D01*
X116802738Y-98384524D02*
X116802738Y-97432143D01*
X116802738Y-97432143D02*
X118802738Y-97432143D01*
X118802738Y-97432143D02*
X118802738Y-98384524D01*
X116802738Y-100384524D02*
X117755119Y-99717857D01*
X116802738Y-99241667D02*
X118802738Y-99241667D01*
X118802738Y-99241667D02*
X118802738Y-100003572D01*
X118802738Y-100003572D02*
X118707500Y-100194048D01*
X118707500Y-100194048D02*
X118612261Y-100289286D01*
X118612261Y-100289286D02*
X118421785Y-100384524D01*
X118421785Y-100384524D02*
X118136071Y-100384524D01*
X118136071Y-100384524D02*
X117945595Y-100289286D01*
X117945595Y-100289286D02*
X117850357Y-100194048D01*
X117850357Y-100194048D02*
X117755119Y-100003572D01*
X117755119Y-100003572D02*
X117755119Y-99241667D01*
X118707500Y-102289286D02*
X118802738Y-102098810D01*
X118802738Y-102098810D02*
X118802738Y-101813096D01*
X118802738Y-101813096D02*
X118707500Y-101527381D01*
X118707500Y-101527381D02*
X118517023Y-101336905D01*
X118517023Y-101336905D02*
X118326547Y-101241667D01*
X118326547Y-101241667D02*
X117945595Y-101146429D01*
X117945595Y-101146429D02*
X117659880Y-101146429D01*
X117659880Y-101146429D02*
X117278928Y-101241667D01*
X117278928Y-101241667D02*
X117088452Y-101336905D01*
X117088452Y-101336905D02*
X116897976Y-101527381D01*
X116897976Y-101527381D02*
X116802738Y-101813096D01*
X116802738Y-101813096D02*
X116802738Y-102003572D01*
X116802738Y-102003572D02*
X116897976Y-102289286D01*
X116897976Y-102289286D02*
X116993214Y-102384524D01*
X116993214Y-102384524D02*
X117659880Y-102384524D01*
X117659880Y-102384524D02*
X117659880Y-102003572D01*
D10*
X127621429Y-116290428D02*
X127621429Y-116776142D01*
X127621429Y-116776142D02*
X127650000Y-116833285D01*
X127650000Y-116833285D02*
X127678572Y-116861857D01*
X127678572Y-116861857D02*
X127735714Y-116890428D01*
X127735714Y-116890428D02*
X127850000Y-116890428D01*
X127850000Y-116890428D02*
X127907143Y-116861857D01*
X127907143Y-116861857D02*
X127935714Y-116833285D01*
X127935714Y-116833285D02*
X127964286Y-116776142D01*
X127964286Y-116776142D02*
X127964286Y-116290428D01*
X128250000Y-116890428D02*
X128250000Y-116290428D01*
X128392857Y-116947571D02*
X128849999Y-116947571D01*
X128992857Y-116890428D02*
X128992857Y-116290428D01*
X128992857Y-116290428D02*
X129221428Y-116290428D01*
X129221428Y-116290428D02*
X129278571Y-116319000D01*
X129278571Y-116319000D02*
X129307142Y-116347571D01*
X129307142Y-116347571D02*
X129335714Y-116404714D01*
X129335714Y-116404714D02*
X129335714Y-116490428D01*
X129335714Y-116490428D02*
X129307142Y-116547571D01*
X129307142Y-116547571D02*
X129278571Y-116576142D01*
X129278571Y-116576142D02*
X129221428Y-116604714D01*
X129221428Y-116604714D02*
X128992857Y-116604714D01*
X129935714Y-116833285D02*
X129907142Y-116861857D01*
X129907142Y-116861857D02*
X129821428Y-116890428D01*
X129821428Y-116890428D02*
X129764285Y-116890428D01*
X129764285Y-116890428D02*
X129678571Y-116861857D01*
X129678571Y-116861857D02*
X129621428Y-116804714D01*
X129621428Y-116804714D02*
X129592857Y-116747571D01*
X129592857Y-116747571D02*
X129564285Y-116633285D01*
X129564285Y-116633285D02*
X129564285Y-116547571D01*
X129564285Y-116547571D02*
X129592857Y-116433285D01*
X129592857Y-116433285D02*
X129621428Y-116376142D01*
X129621428Y-116376142D02*
X129678571Y-116319000D01*
X129678571Y-116319000D02*
X129764285Y-116290428D01*
X129764285Y-116290428D02*
X129821428Y-116290428D01*
X129821428Y-116290428D02*
X129907142Y-116319000D01*
X129907142Y-116319000D02*
X129935714Y-116347571D01*
X130450000Y-116490428D02*
X130450000Y-116890428D01*
X130307142Y-116261857D02*
X130164285Y-116690428D01*
X130164285Y-116690428D02*
X130535714Y-116690428D01*
X128730428Y-70537141D02*
X129216142Y-70537141D01*
X129216142Y-70537141D02*
X129273285Y-70508570D01*
X129273285Y-70508570D02*
X129301857Y-70479999D01*
X129301857Y-70479999D02*
X129330428Y-70422856D01*
X129330428Y-70422856D02*
X129330428Y-70308570D01*
X129330428Y-70308570D02*
X129301857Y-70251427D01*
X129301857Y-70251427D02*
X129273285Y-70222856D01*
X129273285Y-70222856D02*
X129216142Y-70194284D01*
X129216142Y-70194284D02*
X128730428Y-70194284D01*
X129330428Y-69908570D02*
X128730428Y-69908570D01*
X129387571Y-69765714D02*
X129387571Y-69308571D01*
X129330428Y-68879999D02*
X129330428Y-69165713D01*
X129330428Y-69165713D02*
X128730428Y-69165713D01*
X129016142Y-68679999D02*
X129016142Y-68479999D01*
X129330428Y-68394285D02*
X129330428Y-68679999D01*
X129330428Y-68679999D02*
X128730428Y-68679999D01*
X128730428Y-68679999D02*
X128730428Y-68394285D01*
X129330428Y-68137142D02*
X128730428Y-68137142D01*
X128730428Y-68137142D02*
X128730428Y-67994285D01*
X128730428Y-67994285D02*
X128759000Y-67908571D01*
X128759000Y-67908571D02*
X128816142Y-67851428D01*
X128816142Y-67851428D02*
X128873285Y-67822857D01*
X128873285Y-67822857D02*
X128987571Y-67794285D01*
X128987571Y-67794285D02*
X129073285Y-67794285D01*
X129073285Y-67794285D02*
X129187571Y-67822857D01*
X129187571Y-67822857D02*
X129244714Y-67851428D01*
X129244714Y-67851428D02*
X129301857Y-67908571D01*
X129301857Y-67908571D02*
X129330428Y-67994285D01*
X129330428Y-67994285D02*
X129330428Y-68137142D01*
X129330428Y-67194285D02*
X129044714Y-67394285D01*
X129330428Y-67537142D02*
X128730428Y-67537142D01*
X128730428Y-67537142D02*
X128730428Y-67308571D01*
X128730428Y-67308571D02*
X128759000Y-67251428D01*
X128759000Y-67251428D02*
X128787571Y-67222857D01*
X128787571Y-67222857D02*
X128844714Y-67194285D01*
X128844714Y-67194285D02*
X128930428Y-67194285D01*
X128930428Y-67194285D02*
X128987571Y-67222857D01*
X128987571Y-67222857D02*
X129016142Y-67251428D01*
X129016142Y-67251428D02*
X129044714Y-67308571D01*
X129044714Y-67308571D02*
X129044714Y-67537142D01*
X129860428Y-70557141D02*
X130346142Y-70557141D01*
X130346142Y-70557141D02*
X130403285Y-70528570D01*
X130403285Y-70528570D02*
X130431857Y-70499999D01*
X130431857Y-70499999D02*
X130460428Y-70442856D01*
X130460428Y-70442856D02*
X130460428Y-70328570D01*
X130460428Y-70328570D02*
X130431857Y-70271427D01*
X130431857Y-70271427D02*
X130403285Y-70242856D01*
X130403285Y-70242856D02*
X130346142Y-70214284D01*
X130346142Y-70214284D02*
X129860428Y-70214284D01*
X130460428Y-69928570D02*
X129860428Y-69928570D01*
X130517571Y-69785714D02*
X130517571Y-69328571D01*
X130460428Y-68899999D02*
X130460428Y-69185713D01*
X130460428Y-69185713D02*
X129860428Y-69185713D01*
X130146142Y-68699999D02*
X130146142Y-68499999D01*
X130460428Y-68414285D02*
X130460428Y-68699999D01*
X130460428Y-68699999D02*
X129860428Y-68699999D01*
X129860428Y-68699999D02*
X129860428Y-68414285D01*
X130460428Y-68157142D02*
X129860428Y-68157142D01*
X129860428Y-68157142D02*
X129860428Y-68014285D01*
X129860428Y-68014285D02*
X129889000Y-67928571D01*
X129889000Y-67928571D02*
X129946142Y-67871428D01*
X129946142Y-67871428D02*
X130003285Y-67842857D01*
X130003285Y-67842857D02*
X130117571Y-67814285D01*
X130117571Y-67814285D02*
X130203285Y-67814285D01*
X130203285Y-67814285D02*
X130317571Y-67842857D01*
X130317571Y-67842857D02*
X130374714Y-67871428D01*
X130374714Y-67871428D02*
X130431857Y-67928571D01*
X130431857Y-67928571D02*
X130460428Y-68014285D01*
X130460428Y-68014285D02*
X130460428Y-68157142D01*
X129889000Y-67242857D02*
X129860428Y-67300000D01*
X129860428Y-67300000D02*
X129860428Y-67385714D01*
X129860428Y-67385714D02*
X129889000Y-67471428D01*
X129889000Y-67471428D02*
X129946142Y-67528571D01*
X129946142Y-67528571D02*
X130003285Y-67557142D01*
X130003285Y-67557142D02*
X130117571Y-67585714D01*
X130117571Y-67585714D02*
X130203285Y-67585714D01*
X130203285Y-67585714D02*
X130317571Y-67557142D01*
X130317571Y-67557142D02*
X130374714Y-67528571D01*
X130374714Y-67528571D02*
X130431857Y-67471428D01*
X130431857Y-67471428D02*
X130460428Y-67385714D01*
X130460428Y-67385714D02*
X130460428Y-67328571D01*
X130460428Y-67328571D02*
X130431857Y-67242857D01*
X130431857Y-67242857D02*
X130403285Y-67214285D01*
X130403285Y-67214285D02*
X130203285Y-67214285D01*
X130203285Y-67214285D02*
X130203285Y-67328571D01*
X127701429Y-122370428D02*
X127701429Y-122856142D01*
X127701429Y-122856142D02*
X127730000Y-122913285D01*
X127730000Y-122913285D02*
X127758572Y-122941857D01*
X127758572Y-122941857D02*
X127815714Y-122970428D01*
X127815714Y-122970428D02*
X127930000Y-122970428D01*
X127930000Y-122970428D02*
X127987143Y-122941857D01*
X127987143Y-122941857D02*
X128015714Y-122913285D01*
X128015714Y-122913285D02*
X128044286Y-122856142D01*
X128044286Y-122856142D02*
X128044286Y-122370428D01*
X128330000Y-122970428D02*
X128330000Y-122370428D01*
X128472857Y-123027571D02*
X128929999Y-123027571D01*
X129072857Y-122970428D02*
X129072857Y-122370428D01*
X129072857Y-122370428D02*
X129301428Y-122370428D01*
X129301428Y-122370428D02*
X129358571Y-122399000D01*
X129358571Y-122399000D02*
X129387142Y-122427571D01*
X129387142Y-122427571D02*
X129415714Y-122484714D01*
X129415714Y-122484714D02*
X129415714Y-122570428D01*
X129415714Y-122570428D02*
X129387142Y-122627571D01*
X129387142Y-122627571D02*
X129358571Y-122656142D01*
X129358571Y-122656142D02*
X129301428Y-122684714D01*
X129301428Y-122684714D02*
X129072857Y-122684714D01*
X130015714Y-122913285D02*
X129987142Y-122941857D01*
X129987142Y-122941857D02*
X129901428Y-122970428D01*
X129901428Y-122970428D02*
X129844285Y-122970428D01*
X129844285Y-122970428D02*
X129758571Y-122941857D01*
X129758571Y-122941857D02*
X129701428Y-122884714D01*
X129701428Y-122884714D02*
X129672857Y-122827571D01*
X129672857Y-122827571D02*
X129644285Y-122713285D01*
X129644285Y-122713285D02*
X129644285Y-122627571D01*
X129644285Y-122627571D02*
X129672857Y-122513285D01*
X129672857Y-122513285D02*
X129701428Y-122456142D01*
X129701428Y-122456142D02*
X129758571Y-122399000D01*
X129758571Y-122399000D02*
X129844285Y-122370428D01*
X129844285Y-122370428D02*
X129901428Y-122370428D01*
X129901428Y-122370428D02*
X129987142Y-122399000D01*
X129987142Y-122399000D02*
X130015714Y-122427571D01*
X130215714Y-122370428D02*
X130615714Y-122370428D01*
X130615714Y-122370428D02*
X130358571Y-122970428D01*
X127451429Y-125000428D02*
X127451429Y-124400428D01*
X127451429Y-124400428D02*
X127794286Y-125000428D01*
X127794286Y-125000428D02*
X127794286Y-124400428D01*
X128080000Y-124686142D02*
X128280000Y-124686142D01*
X128365714Y-125000428D02*
X128080000Y-125000428D01*
X128080000Y-125000428D02*
X128080000Y-124400428D01*
X128080000Y-124400428D02*
X128365714Y-124400428D01*
X128537142Y-124400428D02*
X128880000Y-124400428D01*
X128708571Y-125000428D02*
X128708571Y-124400428D01*
X128937143Y-125057571D02*
X129394285Y-125057571D01*
X129537143Y-125000428D02*
X129537143Y-124400428D01*
X129937142Y-124400428D02*
X130051428Y-124400428D01*
X130051428Y-124400428D02*
X130108571Y-124429000D01*
X130108571Y-124429000D02*
X130165714Y-124486142D01*
X130165714Y-124486142D02*
X130194285Y-124600428D01*
X130194285Y-124600428D02*
X130194285Y-124800428D01*
X130194285Y-124800428D02*
X130165714Y-124914714D01*
X130165714Y-124914714D02*
X130108571Y-124971857D01*
X130108571Y-124971857D02*
X130051428Y-125000428D01*
X130051428Y-125000428D02*
X129937142Y-125000428D01*
X129937142Y-125000428D02*
X129880000Y-124971857D01*
X129880000Y-124971857D02*
X129822857Y-124914714D01*
X129822857Y-124914714D02*
X129794285Y-124800428D01*
X129794285Y-124800428D02*
X129794285Y-124600428D01*
X129794285Y-124600428D02*
X129822857Y-124486142D01*
X129822857Y-124486142D02*
X129880000Y-124429000D01*
X129880000Y-124429000D02*
X129937142Y-124400428D01*
X130394285Y-124400428D02*
X130765713Y-124400428D01*
X130765713Y-124400428D02*
X130565713Y-124629000D01*
X130565713Y-124629000D02*
X130651428Y-124629000D01*
X130651428Y-124629000D02*
X130708571Y-124657571D01*
X130708571Y-124657571D02*
X130737142Y-124686142D01*
X130737142Y-124686142D02*
X130765713Y-124743285D01*
X130765713Y-124743285D02*
X130765713Y-124886142D01*
X130765713Y-124886142D02*
X130737142Y-124943285D01*
X130737142Y-124943285D02*
X130708571Y-124971857D01*
X130708571Y-124971857D02*
X130651428Y-125000428D01*
X130651428Y-125000428D02*
X130479999Y-125000428D01*
X130479999Y-125000428D02*
X130422856Y-124971857D01*
X130422856Y-124971857D02*
X130394285Y-124943285D01*
X131308571Y-124400428D02*
X131022857Y-124400428D01*
X131022857Y-124400428D02*
X130994285Y-124686142D01*
X130994285Y-124686142D02*
X131022857Y-124657571D01*
X131022857Y-124657571D02*
X131080000Y-124629000D01*
X131080000Y-124629000D02*
X131222857Y-124629000D01*
X131222857Y-124629000D02*
X131280000Y-124657571D01*
X131280000Y-124657571D02*
X131308571Y-124686142D01*
X131308571Y-124686142D02*
X131337142Y-124743285D01*
X131337142Y-124743285D02*
X131337142Y-124886142D01*
X131337142Y-124886142D02*
X131308571Y-124943285D01*
X131308571Y-124943285D02*
X131280000Y-124971857D01*
X131280000Y-124971857D02*
X131222857Y-125000428D01*
X131222857Y-125000428D02*
X131080000Y-125000428D01*
X131080000Y-125000428D02*
X131022857Y-124971857D01*
X131022857Y-124971857D02*
X130994285Y-124943285D01*
X127621429Y-120280428D02*
X127621429Y-120766142D01*
X127621429Y-120766142D02*
X127650000Y-120823285D01*
X127650000Y-120823285D02*
X127678572Y-120851857D01*
X127678572Y-120851857D02*
X127735714Y-120880428D01*
X127735714Y-120880428D02*
X127850000Y-120880428D01*
X127850000Y-120880428D02*
X127907143Y-120851857D01*
X127907143Y-120851857D02*
X127935714Y-120823285D01*
X127935714Y-120823285D02*
X127964286Y-120766142D01*
X127964286Y-120766142D02*
X127964286Y-120280428D01*
X128250000Y-120880428D02*
X128250000Y-120280428D01*
X128392857Y-120937571D02*
X128849999Y-120937571D01*
X128992857Y-120880428D02*
X128992857Y-120280428D01*
X128992857Y-120280428D02*
X129221428Y-120280428D01*
X129221428Y-120280428D02*
X129278571Y-120309000D01*
X129278571Y-120309000D02*
X129307142Y-120337571D01*
X129307142Y-120337571D02*
X129335714Y-120394714D01*
X129335714Y-120394714D02*
X129335714Y-120480428D01*
X129335714Y-120480428D02*
X129307142Y-120537571D01*
X129307142Y-120537571D02*
X129278571Y-120566142D01*
X129278571Y-120566142D02*
X129221428Y-120594714D01*
X129221428Y-120594714D02*
X128992857Y-120594714D01*
X129935714Y-120823285D02*
X129907142Y-120851857D01*
X129907142Y-120851857D02*
X129821428Y-120880428D01*
X129821428Y-120880428D02*
X129764285Y-120880428D01*
X129764285Y-120880428D02*
X129678571Y-120851857D01*
X129678571Y-120851857D02*
X129621428Y-120794714D01*
X129621428Y-120794714D02*
X129592857Y-120737571D01*
X129592857Y-120737571D02*
X129564285Y-120623285D01*
X129564285Y-120623285D02*
X129564285Y-120537571D01*
X129564285Y-120537571D02*
X129592857Y-120423285D01*
X129592857Y-120423285D02*
X129621428Y-120366142D01*
X129621428Y-120366142D02*
X129678571Y-120309000D01*
X129678571Y-120309000D02*
X129764285Y-120280428D01*
X129764285Y-120280428D02*
X129821428Y-120280428D01*
X129821428Y-120280428D02*
X129907142Y-120309000D01*
X129907142Y-120309000D02*
X129935714Y-120337571D01*
X130450000Y-120280428D02*
X130335714Y-120280428D01*
X130335714Y-120280428D02*
X130278571Y-120309000D01*
X130278571Y-120309000D02*
X130250000Y-120337571D01*
X130250000Y-120337571D02*
X130192857Y-120423285D01*
X130192857Y-120423285D02*
X130164285Y-120537571D01*
X130164285Y-120537571D02*
X130164285Y-120766142D01*
X130164285Y-120766142D02*
X130192857Y-120823285D01*
X130192857Y-120823285D02*
X130221428Y-120851857D01*
X130221428Y-120851857D02*
X130278571Y-120880428D01*
X130278571Y-120880428D02*
X130392857Y-120880428D01*
X130392857Y-120880428D02*
X130450000Y-120851857D01*
X130450000Y-120851857D02*
X130478571Y-120823285D01*
X130478571Y-120823285D02*
X130507142Y-120766142D01*
X130507142Y-120766142D02*
X130507142Y-120623285D01*
X130507142Y-120623285D02*
X130478571Y-120566142D01*
X130478571Y-120566142D02*
X130450000Y-120537571D01*
X130450000Y-120537571D02*
X130392857Y-120509000D01*
X130392857Y-120509000D02*
X130278571Y-120509000D01*
X130278571Y-120509000D02*
X130221428Y-120537571D01*
X130221428Y-120537571D02*
X130192857Y-120566142D01*
X130192857Y-120566142D02*
X130164285Y-120623285D01*
X136596142Y-90591428D02*
X136624714Y-90505714D01*
X136624714Y-90505714D02*
X136653285Y-90477143D01*
X136653285Y-90477143D02*
X136710428Y-90448571D01*
X136710428Y-90448571D02*
X136796142Y-90448571D01*
X136796142Y-90448571D02*
X136853285Y-90477143D01*
X136853285Y-90477143D02*
X136881857Y-90505714D01*
X136881857Y-90505714D02*
X136910428Y-90562857D01*
X136910428Y-90562857D02*
X136910428Y-90791428D01*
X136910428Y-90791428D02*
X136310428Y-90791428D01*
X136310428Y-90791428D02*
X136310428Y-90591428D01*
X136310428Y-90591428D02*
X136339000Y-90534286D01*
X136339000Y-90534286D02*
X136367571Y-90505714D01*
X136367571Y-90505714D02*
X136424714Y-90477143D01*
X136424714Y-90477143D02*
X136481857Y-90477143D01*
X136481857Y-90477143D02*
X136539000Y-90505714D01*
X136539000Y-90505714D02*
X136567571Y-90534286D01*
X136567571Y-90534286D02*
X136596142Y-90591428D01*
X136596142Y-90591428D02*
X136596142Y-90791428D01*
X136739000Y-90220000D02*
X136739000Y-89934286D01*
X136910428Y-90277143D02*
X136310428Y-90077143D01*
X136310428Y-90077143D02*
X136910428Y-89877143D01*
X136310428Y-89762857D02*
X136310428Y-89420000D01*
X136910428Y-89591428D02*
X136310428Y-89591428D01*
X136310428Y-89305714D02*
X136310428Y-88962857D01*
X136910428Y-89134285D02*
X136310428Y-89134285D01*
X130810428Y-70577141D02*
X131296142Y-70577141D01*
X131296142Y-70577141D02*
X131353285Y-70548570D01*
X131353285Y-70548570D02*
X131381857Y-70519999D01*
X131381857Y-70519999D02*
X131410428Y-70462856D01*
X131410428Y-70462856D02*
X131410428Y-70348570D01*
X131410428Y-70348570D02*
X131381857Y-70291427D01*
X131381857Y-70291427D02*
X131353285Y-70262856D01*
X131353285Y-70262856D02*
X131296142Y-70234284D01*
X131296142Y-70234284D02*
X130810428Y-70234284D01*
X131410428Y-69948570D02*
X130810428Y-69948570D01*
X131467571Y-69805714D02*
X131467571Y-69348571D01*
X131410428Y-68919999D02*
X131410428Y-69205713D01*
X131410428Y-69205713D02*
X130810428Y-69205713D01*
X131096142Y-68719999D02*
X131096142Y-68519999D01*
X131410428Y-68434285D02*
X131410428Y-68719999D01*
X131410428Y-68719999D02*
X130810428Y-68719999D01*
X130810428Y-68719999D02*
X130810428Y-68434285D01*
X131410428Y-68177142D02*
X130810428Y-68177142D01*
X130810428Y-68177142D02*
X130810428Y-68034285D01*
X130810428Y-68034285D02*
X130839000Y-67948571D01*
X130839000Y-67948571D02*
X130896142Y-67891428D01*
X130896142Y-67891428D02*
X130953285Y-67862857D01*
X130953285Y-67862857D02*
X131067571Y-67834285D01*
X131067571Y-67834285D02*
X131153285Y-67834285D01*
X131153285Y-67834285D02*
X131267571Y-67862857D01*
X131267571Y-67862857D02*
X131324714Y-67891428D01*
X131324714Y-67891428D02*
X131381857Y-67948571D01*
X131381857Y-67948571D02*
X131410428Y-68034285D01*
X131410428Y-68034285D02*
X131410428Y-68177142D01*
X131096142Y-67377142D02*
X131124714Y-67291428D01*
X131124714Y-67291428D02*
X131153285Y-67262857D01*
X131153285Y-67262857D02*
X131210428Y-67234285D01*
X131210428Y-67234285D02*
X131296142Y-67234285D01*
X131296142Y-67234285D02*
X131353285Y-67262857D01*
X131353285Y-67262857D02*
X131381857Y-67291428D01*
X131381857Y-67291428D02*
X131410428Y-67348571D01*
X131410428Y-67348571D02*
X131410428Y-67577142D01*
X131410428Y-67577142D02*
X130810428Y-67577142D01*
X130810428Y-67577142D02*
X130810428Y-67377142D01*
X130810428Y-67377142D02*
X130839000Y-67320000D01*
X130839000Y-67320000D02*
X130867571Y-67291428D01*
X130867571Y-67291428D02*
X130924714Y-67262857D01*
X130924714Y-67262857D02*
X130981857Y-67262857D01*
X130981857Y-67262857D02*
X131039000Y-67291428D01*
X131039000Y-67291428D02*
X131067571Y-67320000D01*
X131067571Y-67320000D02*
X131096142Y-67377142D01*
X131096142Y-67377142D02*
X131096142Y-67577142D01*
X138299000Y-90127142D02*
X138270428Y-90184285D01*
X138270428Y-90184285D02*
X138270428Y-90269999D01*
X138270428Y-90269999D02*
X138299000Y-90355713D01*
X138299000Y-90355713D02*
X138356142Y-90412856D01*
X138356142Y-90412856D02*
X138413285Y-90441427D01*
X138413285Y-90441427D02*
X138527571Y-90469999D01*
X138527571Y-90469999D02*
X138613285Y-90469999D01*
X138613285Y-90469999D02*
X138727571Y-90441427D01*
X138727571Y-90441427D02*
X138784714Y-90412856D01*
X138784714Y-90412856D02*
X138841857Y-90355713D01*
X138841857Y-90355713D02*
X138870428Y-90269999D01*
X138870428Y-90269999D02*
X138870428Y-90212856D01*
X138870428Y-90212856D02*
X138841857Y-90127142D01*
X138841857Y-90127142D02*
X138813285Y-90098570D01*
X138813285Y-90098570D02*
X138613285Y-90098570D01*
X138613285Y-90098570D02*
X138613285Y-90212856D01*
X138870428Y-89841427D02*
X138270428Y-89841427D01*
X138270428Y-89841427D02*
X138870428Y-89498570D01*
X138870428Y-89498570D02*
X138270428Y-89498570D01*
X138870428Y-89212856D02*
X138270428Y-89212856D01*
X138270428Y-89212856D02*
X138270428Y-89069999D01*
X138270428Y-89069999D02*
X138299000Y-88984285D01*
X138299000Y-88984285D02*
X138356142Y-88927142D01*
X138356142Y-88927142D02*
X138413285Y-88898571D01*
X138413285Y-88898571D02*
X138527571Y-88869999D01*
X138527571Y-88869999D02*
X138613285Y-88869999D01*
X138613285Y-88869999D02*
X138727571Y-88898571D01*
X138727571Y-88898571D02*
X138784714Y-88927142D01*
X138784714Y-88927142D02*
X138841857Y-88984285D01*
X138841857Y-88984285D02*
X138870428Y-89069999D01*
X138870428Y-89069999D02*
X138870428Y-89212856D01*
X127451429Y-126930428D02*
X127451429Y-126330428D01*
X127451429Y-126330428D02*
X127794286Y-126930428D01*
X127794286Y-126930428D02*
X127794286Y-126330428D01*
X128080000Y-126616142D02*
X128280000Y-126616142D01*
X128365714Y-126930428D02*
X128080000Y-126930428D01*
X128080000Y-126930428D02*
X128080000Y-126330428D01*
X128080000Y-126330428D02*
X128365714Y-126330428D01*
X128537142Y-126330428D02*
X128880000Y-126330428D01*
X128708571Y-126930428D02*
X128708571Y-126330428D01*
X128937143Y-126987571D02*
X129394285Y-126987571D01*
X129537143Y-126930428D02*
X129537143Y-126330428D01*
X129937142Y-126330428D02*
X130051428Y-126330428D01*
X130051428Y-126330428D02*
X130108571Y-126359000D01*
X130108571Y-126359000D02*
X130165714Y-126416142D01*
X130165714Y-126416142D02*
X130194285Y-126530428D01*
X130194285Y-126530428D02*
X130194285Y-126730428D01*
X130194285Y-126730428D02*
X130165714Y-126844714D01*
X130165714Y-126844714D02*
X130108571Y-126901857D01*
X130108571Y-126901857D02*
X130051428Y-126930428D01*
X130051428Y-126930428D02*
X129937142Y-126930428D01*
X129937142Y-126930428D02*
X129880000Y-126901857D01*
X129880000Y-126901857D02*
X129822857Y-126844714D01*
X129822857Y-126844714D02*
X129794285Y-126730428D01*
X129794285Y-126730428D02*
X129794285Y-126530428D01*
X129794285Y-126530428D02*
X129822857Y-126416142D01*
X129822857Y-126416142D02*
X129880000Y-126359000D01*
X129880000Y-126359000D02*
X129937142Y-126330428D01*
X130394285Y-126330428D02*
X130765713Y-126330428D01*
X130765713Y-126330428D02*
X130565713Y-126559000D01*
X130565713Y-126559000D02*
X130651428Y-126559000D01*
X130651428Y-126559000D02*
X130708571Y-126587571D01*
X130708571Y-126587571D02*
X130737142Y-126616142D01*
X130737142Y-126616142D02*
X130765713Y-126673285D01*
X130765713Y-126673285D02*
X130765713Y-126816142D01*
X130765713Y-126816142D02*
X130737142Y-126873285D01*
X130737142Y-126873285D02*
X130708571Y-126901857D01*
X130708571Y-126901857D02*
X130651428Y-126930428D01*
X130651428Y-126930428D02*
X130479999Y-126930428D01*
X130479999Y-126930428D02*
X130422856Y-126901857D01*
X130422856Y-126901857D02*
X130394285Y-126873285D01*
X131280000Y-126330428D02*
X131165714Y-126330428D01*
X131165714Y-126330428D02*
X131108571Y-126359000D01*
X131108571Y-126359000D02*
X131080000Y-126387571D01*
X131080000Y-126387571D02*
X131022857Y-126473285D01*
X131022857Y-126473285D02*
X130994285Y-126587571D01*
X130994285Y-126587571D02*
X130994285Y-126816142D01*
X130994285Y-126816142D02*
X131022857Y-126873285D01*
X131022857Y-126873285D02*
X131051428Y-126901857D01*
X131051428Y-126901857D02*
X131108571Y-126930428D01*
X131108571Y-126930428D02*
X131222857Y-126930428D01*
X131222857Y-126930428D02*
X131280000Y-126901857D01*
X131280000Y-126901857D02*
X131308571Y-126873285D01*
X131308571Y-126873285D02*
X131337142Y-126816142D01*
X131337142Y-126816142D02*
X131337142Y-126673285D01*
X131337142Y-126673285D02*
X131308571Y-126616142D01*
X131308571Y-126616142D02*
X131280000Y-126587571D01*
X131280000Y-126587571D02*
X131222857Y-126559000D01*
X131222857Y-126559000D02*
X131108571Y-126559000D01*
X131108571Y-126559000D02*
X131051428Y-126587571D01*
X131051428Y-126587571D02*
X131022857Y-126616142D01*
X131022857Y-126616142D02*
X130994285Y-126673285D01*
D12*
X52676190Y-163986904D02*
X55533333Y-163986904D01*
X54104761Y-168986904D02*
X54104761Y-163986904D01*
X58152381Y-163986904D02*
X59104762Y-163986904D01*
X59104762Y-163986904D02*
X59580952Y-164225000D01*
X59580952Y-164225000D02*
X60057143Y-164701190D01*
X60057143Y-164701190D02*
X60295238Y-165653571D01*
X60295238Y-165653571D02*
X60295238Y-167320238D01*
X60295238Y-167320238D02*
X60057143Y-168272619D01*
X60057143Y-168272619D02*
X59580952Y-168748809D01*
X59580952Y-168748809D02*
X59104762Y-168986904D01*
X59104762Y-168986904D02*
X58152381Y-168986904D01*
X58152381Y-168986904D02*
X57676190Y-168748809D01*
X57676190Y-168748809D02*
X57200000Y-168272619D01*
X57200000Y-168272619D02*
X56961904Y-167320238D01*
X56961904Y-167320238D02*
X56961904Y-165653571D01*
X56961904Y-165653571D02*
X57200000Y-164701190D01*
X57200000Y-164701190D02*
X57676190Y-164225000D01*
X57676190Y-164225000D02*
X58152381Y-163986904D01*
X62438095Y-168986904D02*
X62438095Y-163986904D01*
X62438095Y-163986904D02*
X64342857Y-163986904D01*
X64342857Y-163986904D02*
X64819047Y-164225000D01*
X64819047Y-164225000D02*
X65057142Y-164463095D01*
X65057142Y-164463095D02*
X65295238Y-164939285D01*
X65295238Y-164939285D02*
X65295238Y-165653571D01*
X65295238Y-165653571D02*
X65057142Y-166129761D01*
X65057142Y-166129761D02*
X64819047Y-166367857D01*
X64819047Y-166367857D02*
X64342857Y-166605952D01*
X64342857Y-166605952D02*
X62438095Y-166605952D01*
X86866666Y-170891666D02*
X86628571Y-170653571D01*
X86628571Y-170653571D02*
X86152380Y-169939285D01*
X86152380Y-169939285D02*
X85914285Y-169463095D01*
X85914285Y-169463095D02*
X85676190Y-168748809D01*
X85676190Y-168748809D02*
X85438095Y-167558333D01*
X85438095Y-167558333D02*
X85438095Y-166605952D01*
X85438095Y-166605952D02*
X85676190Y-165415476D01*
X85676190Y-165415476D02*
X85914285Y-164701190D01*
X85914285Y-164701190D02*
X86152380Y-164225000D01*
X86152380Y-164225000D02*
X86628571Y-163510714D01*
X86628571Y-163510714D02*
X86866666Y-163272619D01*
X90438094Y-166367857D02*
X88771428Y-166367857D01*
X88771428Y-168986904D02*
X88771428Y-163986904D01*
X88771428Y-163986904D02*
X91152380Y-163986904D01*
X93057142Y-168510714D02*
X93295237Y-168748809D01*
X93295237Y-168748809D02*
X93057142Y-168986904D01*
X93057142Y-168986904D02*
X92819046Y-168748809D01*
X92819046Y-168748809D02*
X93057142Y-168510714D01*
X93057142Y-168510714D02*
X93057142Y-168986904D01*
X98295237Y-168510714D02*
X98057141Y-168748809D01*
X98057141Y-168748809D02*
X97342856Y-168986904D01*
X97342856Y-168986904D02*
X96866665Y-168986904D01*
X96866665Y-168986904D02*
X96152379Y-168748809D01*
X96152379Y-168748809D02*
X95676189Y-168272619D01*
X95676189Y-168272619D02*
X95438094Y-167796428D01*
X95438094Y-167796428D02*
X95199998Y-166844047D01*
X95199998Y-166844047D02*
X95199998Y-166129761D01*
X95199998Y-166129761D02*
X95438094Y-165177380D01*
X95438094Y-165177380D02*
X95676189Y-164701190D01*
X95676189Y-164701190D02*
X96152379Y-164225000D01*
X96152379Y-164225000D02*
X96866665Y-163986904D01*
X96866665Y-163986904D02*
X97342856Y-163986904D01*
X97342856Y-163986904D02*
X98057141Y-164225000D01*
X98057141Y-164225000D02*
X98295237Y-164463095D01*
X100438094Y-163986904D02*
X100438094Y-168034523D01*
X100438094Y-168034523D02*
X100676189Y-168510714D01*
X100676189Y-168510714D02*
X100914284Y-168748809D01*
X100914284Y-168748809D02*
X101390475Y-168986904D01*
X101390475Y-168986904D02*
X102342856Y-168986904D01*
X102342856Y-168986904D02*
X102819046Y-168748809D01*
X102819046Y-168748809D02*
X103057141Y-168510714D01*
X103057141Y-168510714D02*
X103295237Y-168034523D01*
X103295237Y-168034523D02*
X103295237Y-163986904D01*
X105199998Y-170891666D02*
X105438093Y-170653571D01*
X105438093Y-170653571D02*
X105914284Y-169939285D01*
X105914284Y-169939285D02*
X106152379Y-169463095D01*
X106152379Y-169463095D02*
X106390474Y-168748809D01*
X106390474Y-168748809D02*
X106628570Y-167558333D01*
X106628570Y-167558333D02*
X106628570Y-166605952D01*
X106628570Y-166605952D02*
X106390474Y-165415476D01*
X106390474Y-165415476D02*
X106152379Y-164701190D01*
X106152379Y-164701190D02*
X105914284Y-164225000D01*
X105914284Y-164225000D02*
X105438093Y-163510714D01*
X105438093Y-163510714D02*
X105199998Y-163272619D01*
X121009522Y-168986904D02*
X121009522Y-163986904D01*
X121009522Y-166367857D02*
X123866665Y-166367857D01*
X123866665Y-168986904D02*
X123866665Y-163986904D01*
X126247617Y-168986904D02*
X126247617Y-163986904D01*
X131247616Y-164225000D02*
X130771426Y-163986904D01*
X130771426Y-163986904D02*
X130057140Y-163986904D01*
X130057140Y-163986904D02*
X129342854Y-164225000D01*
X129342854Y-164225000D02*
X128866664Y-164701190D01*
X128866664Y-164701190D02*
X128628569Y-165177380D01*
X128628569Y-165177380D02*
X128390473Y-166129761D01*
X128390473Y-166129761D02*
X128390473Y-166844047D01*
X128390473Y-166844047D02*
X128628569Y-167796428D01*
X128628569Y-167796428D02*
X128866664Y-168272619D01*
X128866664Y-168272619D02*
X129342854Y-168748809D01*
X129342854Y-168748809D02*
X130057140Y-168986904D01*
X130057140Y-168986904D02*
X130533331Y-168986904D01*
X130533331Y-168986904D02*
X131247616Y-168748809D01*
X131247616Y-168748809D02*
X131485712Y-168510714D01*
X131485712Y-168510714D02*
X131485712Y-166844047D01*
X131485712Y-166844047D02*
X130533331Y-166844047D01*
X133628569Y-168986904D02*
X133628569Y-163986904D01*
X133628569Y-166367857D02*
X136485712Y-166367857D01*
X136485712Y-168986904D02*
X136485712Y-163986904D01*
X141628568Y-168748809D02*
X142342854Y-168986904D01*
X142342854Y-168986904D02*
X143533330Y-168986904D01*
X143533330Y-168986904D02*
X144009521Y-168748809D01*
X144009521Y-168748809D02*
X144247616Y-168510714D01*
X144247616Y-168510714D02*
X144485711Y-168034523D01*
X144485711Y-168034523D02*
X144485711Y-167558333D01*
X144485711Y-167558333D02*
X144247616Y-167082142D01*
X144247616Y-167082142D02*
X144009521Y-166844047D01*
X144009521Y-166844047D02*
X143533330Y-166605952D01*
X143533330Y-166605952D02*
X142580949Y-166367857D01*
X142580949Y-166367857D02*
X142104759Y-166129761D01*
X142104759Y-166129761D02*
X141866664Y-165891666D01*
X141866664Y-165891666D02*
X141628568Y-165415476D01*
X141628568Y-165415476D02*
X141628568Y-164939285D01*
X141628568Y-164939285D02*
X141866664Y-164463095D01*
X141866664Y-164463095D02*
X142104759Y-164225000D01*
X142104759Y-164225000D02*
X142580949Y-163986904D01*
X142580949Y-163986904D02*
X143771426Y-163986904D01*
X143771426Y-163986904D02*
X144485711Y-164225000D01*
X146628569Y-168986904D02*
X146628569Y-163986904D01*
X146628569Y-163986904D02*
X148533331Y-163986904D01*
X148533331Y-163986904D02*
X149009521Y-164225000D01*
X149009521Y-164225000D02*
X149247616Y-164463095D01*
X149247616Y-164463095D02*
X149485712Y-164939285D01*
X149485712Y-164939285D02*
X149485712Y-165653571D01*
X149485712Y-165653571D02*
X149247616Y-166129761D01*
X149247616Y-166129761D02*
X149009521Y-166367857D01*
X149009521Y-166367857D02*
X148533331Y-166605952D01*
X148533331Y-166605952D02*
X146628569Y-166605952D01*
X151628569Y-166367857D02*
X153295235Y-166367857D01*
X154009521Y-168986904D02*
X151628569Y-168986904D01*
X151628569Y-168986904D02*
X151628569Y-163986904D01*
X151628569Y-163986904D02*
X154009521Y-163986904D01*
X156152379Y-166367857D02*
X157819045Y-166367857D01*
X158533331Y-168986904D02*
X156152379Y-168986904D01*
X156152379Y-168986904D02*
X156152379Y-163986904D01*
X156152379Y-163986904D02*
X158533331Y-163986904D01*
X160676189Y-168986904D02*
X160676189Y-163986904D01*
X160676189Y-163986904D02*
X161866665Y-163986904D01*
X161866665Y-163986904D02*
X162580951Y-164225000D01*
X162580951Y-164225000D02*
X163057141Y-164701190D01*
X163057141Y-164701190D02*
X163295236Y-165177380D01*
X163295236Y-165177380D02*
X163533332Y-166129761D01*
X163533332Y-166129761D02*
X163533332Y-166844047D01*
X163533332Y-166844047D02*
X163295236Y-167796428D01*
X163295236Y-167796428D02*
X163057141Y-168272619D01*
X163057141Y-168272619D02*
X162580951Y-168748809D01*
X162580951Y-168748809D02*
X161866665Y-168986904D01*
X161866665Y-168986904D02*
X160676189Y-168986904D01*
X53152380Y-176848809D02*
X53866666Y-177086904D01*
X53866666Y-177086904D02*
X55057142Y-177086904D01*
X55057142Y-177086904D02*
X55533333Y-176848809D01*
X55533333Y-176848809D02*
X55771428Y-176610714D01*
X55771428Y-176610714D02*
X56009523Y-176134523D01*
X56009523Y-176134523D02*
X56009523Y-175658333D01*
X56009523Y-175658333D02*
X55771428Y-175182142D01*
X55771428Y-175182142D02*
X55533333Y-174944047D01*
X55533333Y-174944047D02*
X55057142Y-174705952D01*
X55057142Y-174705952D02*
X54104761Y-174467857D01*
X54104761Y-174467857D02*
X53628571Y-174229761D01*
X53628571Y-174229761D02*
X53390476Y-173991666D01*
X53390476Y-173991666D02*
X53152380Y-173515476D01*
X53152380Y-173515476D02*
X53152380Y-173039285D01*
X53152380Y-173039285D02*
X53390476Y-172563095D01*
X53390476Y-172563095D02*
X53628571Y-172325000D01*
X53628571Y-172325000D02*
X54104761Y-172086904D01*
X54104761Y-172086904D02*
X55295238Y-172086904D01*
X55295238Y-172086904D02*
X56009523Y-172325000D01*
X58152381Y-174467857D02*
X59819047Y-174467857D01*
X60533333Y-177086904D02*
X58152381Y-177086904D01*
X58152381Y-177086904D02*
X58152381Y-172086904D01*
X58152381Y-172086904D02*
X60533333Y-172086904D01*
X65533334Y-176610714D02*
X65295238Y-176848809D01*
X65295238Y-176848809D02*
X64580953Y-177086904D01*
X64580953Y-177086904D02*
X64104762Y-177086904D01*
X64104762Y-177086904D02*
X63390476Y-176848809D01*
X63390476Y-176848809D02*
X62914286Y-176372619D01*
X62914286Y-176372619D02*
X62676191Y-175896428D01*
X62676191Y-175896428D02*
X62438095Y-174944047D01*
X62438095Y-174944047D02*
X62438095Y-174229761D01*
X62438095Y-174229761D02*
X62676191Y-173277380D01*
X62676191Y-173277380D02*
X62914286Y-172801190D01*
X62914286Y-172801190D02*
X63390476Y-172325000D01*
X63390476Y-172325000D02*
X64104762Y-172086904D01*
X64104762Y-172086904D02*
X64580953Y-172086904D01*
X64580953Y-172086904D02*
X65295238Y-172325000D01*
X65295238Y-172325000D02*
X65533334Y-172563095D01*
X68628572Y-172086904D02*
X69580953Y-172086904D01*
X69580953Y-172086904D02*
X70057143Y-172325000D01*
X70057143Y-172325000D02*
X70533334Y-172801190D01*
X70533334Y-172801190D02*
X70771429Y-173753571D01*
X70771429Y-173753571D02*
X70771429Y-175420238D01*
X70771429Y-175420238D02*
X70533334Y-176372619D01*
X70533334Y-176372619D02*
X70057143Y-176848809D01*
X70057143Y-176848809D02*
X69580953Y-177086904D01*
X69580953Y-177086904D02*
X68628572Y-177086904D01*
X68628572Y-177086904D02*
X68152381Y-176848809D01*
X68152381Y-176848809D02*
X67676191Y-176372619D01*
X67676191Y-176372619D02*
X67438095Y-175420238D01*
X67438095Y-175420238D02*
X67438095Y-173753571D01*
X67438095Y-173753571D02*
X67676191Y-172801190D01*
X67676191Y-172801190D02*
X68152381Y-172325000D01*
X68152381Y-172325000D02*
X68628572Y-172086904D01*
X72914286Y-177086904D02*
X72914286Y-172086904D01*
X72914286Y-172086904D02*
X75771429Y-177086904D01*
X75771429Y-177086904D02*
X75771429Y-172086904D01*
X78152381Y-177086904D02*
X78152381Y-172086904D01*
X78152381Y-172086904D02*
X79342857Y-172086904D01*
X79342857Y-172086904D02*
X80057143Y-172325000D01*
X80057143Y-172325000D02*
X80533333Y-172801190D01*
X80533333Y-172801190D02*
X80771428Y-173277380D01*
X80771428Y-173277380D02*
X81009524Y-174229761D01*
X81009524Y-174229761D02*
X81009524Y-174944047D01*
X81009524Y-174944047D02*
X80771428Y-175896428D01*
X80771428Y-175896428D02*
X80533333Y-176372619D01*
X80533333Y-176372619D02*
X80057143Y-176848809D01*
X80057143Y-176848809D02*
X79342857Y-177086904D01*
X79342857Y-177086904D02*
X78152381Y-177086904D01*
X90580952Y-178991666D02*
X90342857Y-178753571D01*
X90342857Y-178753571D02*
X89866666Y-178039285D01*
X89866666Y-178039285D02*
X89628571Y-177563095D01*
X89628571Y-177563095D02*
X89390476Y-176848809D01*
X89390476Y-176848809D02*
X89152381Y-175658333D01*
X89152381Y-175658333D02*
X89152381Y-174705952D01*
X89152381Y-174705952D02*
X89390476Y-173515476D01*
X89390476Y-173515476D02*
X89628571Y-172801190D01*
X89628571Y-172801190D02*
X89866666Y-172325000D01*
X89866666Y-172325000D02*
X90342857Y-171610714D01*
X90342857Y-171610714D02*
X90580952Y-171372619D01*
X92485714Y-177086904D02*
X92485714Y-172086904D01*
X94866666Y-177086904D02*
X94866666Y-172086904D01*
X94866666Y-172086904D02*
X97723809Y-177086904D01*
X97723809Y-177086904D02*
X97723809Y-172086904D01*
X102723808Y-177086904D02*
X99866665Y-177086904D01*
X101295237Y-177086904D02*
X101295237Y-172086904D01*
X101295237Y-172086904D02*
X100819046Y-172801190D01*
X100819046Y-172801190D02*
X100342856Y-173277380D01*
X100342856Y-173277380D02*
X99866665Y-173515476D01*
X104866666Y-176610714D02*
X105104761Y-176848809D01*
X105104761Y-176848809D02*
X104866666Y-177086904D01*
X104866666Y-177086904D02*
X104628570Y-176848809D01*
X104628570Y-176848809D02*
X104866666Y-176610714D01*
X104866666Y-176610714D02*
X104866666Y-177086904D01*
X110104761Y-176610714D02*
X109866665Y-176848809D01*
X109866665Y-176848809D02*
X109152380Y-177086904D01*
X109152380Y-177086904D02*
X108676189Y-177086904D01*
X108676189Y-177086904D02*
X107961903Y-176848809D01*
X107961903Y-176848809D02*
X107485713Y-176372619D01*
X107485713Y-176372619D02*
X107247618Y-175896428D01*
X107247618Y-175896428D02*
X107009522Y-174944047D01*
X107009522Y-174944047D02*
X107009522Y-174229761D01*
X107009522Y-174229761D02*
X107247618Y-173277380D01*
X107247618Y-173277380D02*
X107485713Y-172801190D01*
X107485713Y-172801190D02*
X107961903Y-172325000D01*
X107961903Y-172325000D02*
X108676189Y-172086904D01*
X108676189Y-172086904D02*
X109152380Y-172086904D01*
X109152380Y-172086904D02*
X109866665Y-172325000D01*
X109866665Y-172325000D02*
X110104761Y-172563095D01*
X112247618Y-172086904D02*
X112247618Y-176134523D01*
X112247618Y-176134523D02*
X112485713Y-176610714D01*
X112485713Y-176610714D02*
X112723808Y-176848809D01*
X112723808Y-176848809D02*
X113199999Y-177086904D01*
X113199999Y-177086904D02*
X114152380Y-177086904D01*
X114152380Y-177086904D02*
X114628570Y-176848809D01*
X114628570Y-176848809D02*
X114866665Y-176610714D01*
X114866665Y-176610714D02*
X115104761Y-176134523D01*
X115104761Y-176134523D02*
X115104761Y-172086904D01*
X117009522Y-178991666D02*
X117247617Y-178753571D01*
X117247617Y-178753571D02*
X117723808Y-178039285D01*
X117723808Y-178039285D02*
X117961903Y-177563095D01*
X117961903Y-177563095D02*
X118199998Y-176848809D01*
X118199998Y-176848809D02*
X118438094Y-175658333D01*
X118438094Y-175658333D02*
X118438094Y-174705952D01*
X118438094Y-174705952D02*
X118199998Y-173515476D01*
X118199998Y-173515476D02*
X117961903Y-172801190D01*
X117961903Y-172801190D02*
X117723808Y-172325000D01*
X117723808Y-172325000D02*
X117247617Y-171610714D01*
X117247617Y-171610714D02*
X117009522Y-171372619D01*
X129438093Y-172325000D02*
X128961903Y-172086904D01*
X128961903Y-172086904D02*
X128247617Y-172086904D01*
X128247617Y-172086904D02*
X127533331Y-172325000D01*
X127533331Y-172325000D02*
X127057141Y-172801190D01*
X127057141Y-172801190D02*
X126819046Y-173277380D01*
X126819046Y-173277380D02*
X126580950Y-174229761D01*
X126580950Y-174229761D02*
X126580950Y-174944047D01*
X126580950Y-174944047D02*
X126819046Y-175896428D01*
X126819046Y-175896428D02*
X127057141Y-176372619D01*
X127057141Y-176372619D02*
X127533331Y-176848809D01*
X127533331Y-176848809D02*
X128247617Y-177086904D01*
X128247617Y-177086904D02*
X128723808Y-177086904D01*
X128723808Y-177086904D02*
X129438093Y-176848809D01*
X129438093Y-176848809D02*
X129676189Y-176610714D01*
X129676189Y-176610714D02*
X129676189Y-174944047D01*
X129676189Y-174944047D02*
X128723808Y-174944047D01*
X131819046Y-177086904D02*
X131819046Y-172086904D01*
X131819046Y-172086904D02*
X134676189Y-177086904D01*
X134676189Y-177086904D02*
X134676189Y-172086904D01*
X137057141Y-177086904D02*
X137057141Y-172086904D01*
X137057141Y-172086904D02*
X138247617Y-172086904D01*
X138247617Y-172086904D02*
X138961903Y-172325000D01*
X138961903Y-172325000D02*
X139438093Y-172801190D01*
X139438093Y-172801190D02*
X139676188Y-173277380D01*
X139676188Y-173277380D02*
X139914284Y-174229761D01*
X139914284Y-174229761D02*
X139914284Y-174944047D01*
X139914284Y-174944047D02*
X139676188Y-175896428D01*
X139676188Y-175896428D02*
X139438093Y-176372619D01*
X139438093Y-176372619D02*
X138961903Y-176848809D01*
X138961903Y-176848809D02*
X138247617Y-177086904D01*
X138247617Y-177086904D02*
X137057141Y-177086904D01*
X52676190Y-180186904D02*
X55533333Y-180186904D01*
X54104761Y-185186904D02*
X54104761Y-180186904D01*
X57200000Y-185186904D02*
X57200000Y-180186904D01*
X57200000Y-182567857D02*
X60057143Y-182567857D01*
X60057143Y-185186904D02*
X60057143Y-180186904D01*
X62438095Y-185186904D02*
X62438095Y-180186904D01*
X67676190Y-185186904D02*
X66009523Y-182805952D01*
X64819047Y-185186904D02*
X64819047Y-180186904D01*
X64819047Y-180186904D02*
X66723809Y-180186904D01*
X66723809Y-180186904D02*
X67199999Y-180425000D01*
X67199999Y-180425000D02*
X67438094Y-180663095D01*
X67438094Y-180663095D02*
X67676190Y-181139285D01*
X67676190Y-181139285D02*
X67676190Y-181853571D01*
X67676190Y-181853571D02*
X67438094Y-182329761D01*
X67438094Y-182329761D02*
X67199999Y-182567857D01*
X67199999Y-182567857D02*
X66723809Y-182805952D01*
X66723809Y-182805952D02*
X64819047Y-182805952D01*
X69819047Y-185186904D02*
X69819047Y-180186904D01*
X69819047Y-180186904D02*
X71009523Y-180186904D01*
X71009523Y-180186904D02*
X71723809Y-180425000D01*
X71723809Y-180425000D02*
X72199999Y-180901190D01*
X72199999Y-180901190D02*
X72438094Y-181377380D01*
X72438094Y-181377380D02*
X72676190Y-182329761D01*
X72676190Y-182329761D02*
X72676190Y-183044047D01*
X72676190Y-183044047D02*
X72438094Y-183996428D01*
X72438094Y-183996428D02*
X72199999Y-184472619D01*
X72199999Y-184472619D02*
X71723809Y-184948809D01*
X71723809Y-184948809D02*
X71009523Y-185186904D01*
X71009523Y-185186904D02*
X69819047Y-185186904D01*
X88247618Y-187091666D02*
X88009523Y-186853571D01*
X88009523Y-186853571D02*
X87533332Y-186139285D01*
X87533332Y-186139285D02*
X87295237Y-185663095D01*
X87295237Y-185663095D02*
X87057142Y-184948809D01*
X87057142Y-184948809D02*
X86819047Y-183758333D01*
X86819047Y-183758333D02*
X86819047Y-182805952D01*
X86819047Y-182805952D02*
X87057142Y-181615476D01*
X87057142Y-181615476D02*
X87295237Y-180901190D01*
X87295237Y-180901190D02*
X87533332Y-180425000D01*
X87533332Y-180425000D02*
X88009523Y-179710714D01*
X88009523Y-179710714D02*
X88247618Y-179472619D01*
X90152380Y-185186904D02*
X90152380Y-180186904D01*
X92533332Y-185186904D02*
X92533332Y-180186904D01*
X92533332Y-180186904D02*
X95390475Y-185186904D01*
X95390475Y-185186904D02*
X95390475Y-180186904D01*
X97533331Y-180663095D02*
X97771427Y-180425000D01*
X97771427Y-180425000D02*
X98247617Y-180186904D01*
X98247617Y-180186904D02*
X99438093Y-180186904D01*
X99438093Y-180186904D02*
X99914284Y-180425000D01*
X99914284Y-180425000D02*
X100152379Y-180663095D01*
X100152379Y-180663095D02*
X100390474Y-181139285D01*
X100390474Y-181139285D02*
X100390474Y-181615476D01*
X100390474Y-181615476D02*
X100152379Y-182329761D01*
X100152379Y-182329761D02*
X97295236Y-185186904D01*
X97295236Y-185186904D02*
X100390474Y-185186904D01*
X102533332Y-184710714D02*
X102771427Y-184948809D01*
X102771427Y-184948809D02*
X102533332Y-185186904D01*
X102533332Y-185186904D02*
X102295236Y-184948809D01*
X102295236Y-184948809D02*
X102533332Y-184710714D01*
X102533332Y-184710714D02*
X102533332Y-185186904D01*
X107771427Y-184710714D02*
X107533331Y-184948809D01*
X107533331Y-184948809D02*
X106819046Y-185186904D01*
X106819046Y-185186904D02*
X106342855Y-185186904D01*
X106342855Y-185186904D02*
X105628569Y-184948809D01*
X105628569Y-184948809D02*
X105152379Y-184472619D01*
X105152379Y-184472619D02*
X104914284Y-183996428D01*
X104914284Y-183996428D02*
X104676188Y-183044047D01*
X104676188Y-183044047D02*
X104676188Y-182329761D01*
X104676188Y-182329761D02*
X104914284Y-181377380D01*
X104914284Y-181377380D02*
X105152379Y-180901190D01*
X105152379Y-180901190D02*
X105628569Y-180425000D01*
X105628569Y-180425000D02*
X106342855Y-180186904D01*
X106342855Y-180186904D02*
X106819046Y-180186904D01*
X106819046Y-180186904D02*
X107533331Y-180425000D01*
X107533331Y-180425000D02*
X107771427Y-180663095D01*
X109914284Y-180186904D02*
X109914284Y-184234523D01*
X109914284Y-184234523D02*
X110152379Y-184710714D01*
X110152379Y-184710714D02*
X110390474Y-184948809D01*
X110390474Y-184948809D02*
X110866665Y-185186904D01*
X110866665Y-185186904D02*
X111819046Y-185186904D01*
X111819046Y-185186904D02*
X112295236Y-184948809D01*
X112295236Y-184948809D02*
X112533331Y-184710714D01*
X112533331Y-184710714D02*
X112771427Y-184234523D01*
X112771427Y-184234523D02*
X112771427Y-180186904D01*
X114676188Y-187091666D02*
X114914283Y-186853571D01*
X114914283Y-186853571D02*
X115390474Y-186139285D01*
X115390474Y-186139285D02*
X115628569Y-185663095D01*
X115628569Y-185663095D02*
X115866664Y-184948809D01*
X115866664Y-184948809D02*
X116104760Y-183758333D01*
X116104760Y-183758333D02*
X116104760Y-182805952D01*
X116104760Y-182805952D02*
X115866664Y-181615476D01*
X115866664Y-181615476D02*
X115628569Y-180901190D01*
X115628569Y-180901190D02*
X115390474Y-180425000D01*
X115390474Y-180425000D02*
X114914283Y-179710714D01*
X114914283Y-179710714D02*
X114676188Y-179472619D01*
X124485712Y-185186904D02*
X124485712Y-180186904D01*
X124485712Y-180186904D02*
X126390474Y-180186904D01*
X126390474Y-180186904D02*
X126866664Y-180425000D01*
X126866664Y-180425000D02*
X127104759Y-180663095D01*
X127104759Y-180663095D02*
X127342855Y-181139285D01*
X127342855Y-181139285D02*
X127342855Y-181853571D01*
X127342855Y-181853571D02*
X127104759Y-182329761D01*
X127104759Y-182329761D02*
X126866664Y-182567857D01*
X126866664Y-182567857D02*
X126390474Y-182805952D01*
X126390474Y-182805952D02*
X124485712Y-182805952D01*
X130438093Y-180186904D02*
X131390474Y-180186904D01*
X131390474Y-180186904D02*
X131866664Y-180425000D01*
X131866664Y-180425000D02*
X132342855Y-180901190D01*
X132342855Y-180901190D02*
X132580950Y-181853571D01*
X132580950Y-181853571D02*
X132580950Y-183520238D01*
X132580950Y-183520238D02*
X132342855Y-184472619D01*
X132342855Y-184472619D02*
X131866664Y-184948809D01*
X131866664Y-184948809D02*
X131390474Y-185186904D01*
X131390474Y-185186904D02*
X130438093Y-185186904D01*
X130438093Y-185186904D02*
X129961902Y-184948809D01*
X129961902Y-184948809D02*
X129485712Y-184472619D01*
X129485712Y-184472619D02*
X129247616Y-183520238D01*
X129247616Y-183520238D02*
X129247616Y-181853571D01*
X129247616Y-181853571D02*
X129485712Y-180901190D01*
X129485712Y-180901190D02*
X129961902Y-180425000D01*
X129961902Y-180425000D02*
X130438093Y-180186904D01*
X134247616Y-180186904D02*
X135438092Y-185186904D01*
X135438092Y-185186904D02*
X136390473Y-181615476D01*
X136390473Y-181615476D02*
X137342854Y-185186904D01*
X137342854Y-185186904D02*
X138533331Y-180186904D01*
X140438093Y-182567857D02*
X142104759Y-182567857D01*
X142819045Y-185186904D02*
X140438093Y-185186904D01*
X140438093Y-185186904D02*
X140438093Y-180186904D01*
X140438093Y-180186904D02*
X142819045Y-180186904D01*
X147819046Y-185186904D02*
X146152379Y-182805952D01*
X144961903Y-185186904D02*
X144961903Y-180186904D01*
X144961903Y-180186904D02*
X146866665Y-180186904D01*
X146866665Y-180186904D02*
X147342855Y-180425000D01*
X147342855Y-180425000D02*
X147580950Y-180663095D01*
X147580950Y-180663095D02*
X147819046Y-181139285D01*
X147819046Y-181139285D02*
X147819046Y-181853571D01*
X147819046Y-181853571D02*
X147580950Y-182329761D01*
X147580950Y-182329761D02*
X147342855Y-182567857D01*
X147342855Y-182567857D02*
X146866665Y-182805952D01*
X146866665Y-182805952D02*
X144961903Y-182805952D01*
X55057142Y-190667857D02*
X55771428Y-190905952D01*
X55771428Y-190905952D02*
X56009523Y-191144047D01*
X56009523Y-191144047D02*
X56247619Y-191620238D01*
X56247619Y-191620238D02*
X56247619Y-192334523D01*
X56247619Y-192334523D02*
X56009523Y-192810714D01*
X56009523Y-192810714D02*
X55771428Y-193048809D01*
X55771428Y-193048809D02*
X55295238Y-193286904D01*
X55295238Y-193286904D02*
X53390476Y-193286904D01*
X53390476Y-193286904D02*
X53390476Y-188286904D01*
X53390476Y-188286904D02*
X55057142Y-188286904D01*
X55057142Y-188286904D02*
X55533333Y-188525000D01*
X55533333Y-188525000D02*
X55771428Y-188763095D01*
X55771428Y-188763095D02*
X56009523Y-189239285D01*
X56009523Y-189239285D02*
X56009523Y-189715476D01*
X56009523Y-189715476D02*
X55771428Y-190191666D01*
X55771428Y-190191666D02*
X55533333Y-190429761D01*
X55533333Y-190429761D02*
X55057142Y-190667857D01*
X55057142Y-190667857D02*
X53390476Y-190667857D01*
X59342857Y-188286904D02*
X60295238Y-188286904D01*
X60295238Y-188286904D02*
X60771428Y-188525000D01*
X60771428Y-188525000D02*
X61247619Y-189001190D01*
X61247619Y-189001190D02*
X61485714Y-189953571D01*
X61485714Y-189953571D02*
X61485714Y-191620238D01*
X61485714Y-191620238D02*
X61247619Y-192572619D01*
X61247619Y-192572619D02*
X60771428Y-193048809D01*
X60771428Y-193048809D02*
X60295238Y-193286904D01*
X60295238Y-193286904D02*
X59342857Y-193286904D01*
X59342857Y-193286904D02*
X58866666Y-193048809D01*
X58866666Y-193048809D02*
X58390476Y-192572619D01*
X58390476Y-192572619D02*
X58152380Y-191620238D01*
X58152380Y-191620238D02*
X58152380Y-189953571D01*
X58152380Y-189953571D02*
X58390476Y-189001190D01*
X58390476Y-189001190D02*
X58866666Y-188525000D01*
X58866666Y-188525000D02*
X59342857Y-188286904D01*
X62914285Y-188286904D02*
X65771428Y-188286904D01*
X64342856Y-193286904D02*
X64342856Y-188286904D01*
X66723809Y-188286904D02*
X69580952Y-188286904D01*
X68152380Y-193286904D02*
X68152380Y-188286904D01*
X72200000Y-188286904D02*
X73152381Y-188286904D01*
X73152381Y-188286904D02*
X73628571Y-188525000D01*
X73628571Y-188525000D02*
X74104762Y-189001190D01*
X74104762Y-189001190D02*
X74342857Y-189953571D01*
X74342857Y-189953571D02*
X74342857Y-191620238D01*
X74342857Y-191620238D02*
X74104762Y-192572619D01*
X74104762Y-192572619D02*
X73628571Y-193048809D01*
X73628571Y-193048809D02*
X73152381Y-193286904D01*
X73152381Y-193286904D02*
X72200000Y-193286904D01*
X72200000Y-193286904D02*
X71723809Y-193048809D01*
X71723809Y-193048809D02*
X71247619Y-192572619D01*
X71247619Y-192572619D02*
X71009523Y-191620238D01*
X71009523Y-191620238D02*
X71009523Y-189953571D01*
X71009523Y-189953571D02*
X71247619Y-189001190D01*
X71247619Y-189001190D02*
X71723809Y-188525000D01*
X71723809Y-188525000D02*
X72200000Y-188286904D01*
X76485714Y-193286904D02*
X76485714Y-188286904D01*
X76485714Y-188286904D02*
X78152380Y-191858333D01*
X78152380Y-191858333D02*
X79819047Y-188286904D01*
X79819047Y-188286904D02*
X79819047Y-193286904D01*
X89628571Y-195191666D02*
X89390476Y-194953571D01*
X89390476Y-194953571D02*
X88914285Y-194239285D01*
X88914285Y-194239285D02*
X88676190Y-193763095D01*
X88676190Y-193763095D02*
X88438095Y-193048809D01*
X88438095Y-193048809D02*
X88200000Y-191858333D01*
X88200000Y-191858333D02*
X88200000Y-190905952D01*
X88200000Y-190905952D02*
X88438095Y-189715476D01*
X88438095Y-189715476D02*
X88676190Y-189001190D01*
X88676190Y-189001190D02*
X88914285Y-188525000D01*
X88914285Y-188525000D02*
X89390476Y-187810714D01*
X89390476Y-187810714D02*
X89628571Y-187572619D01*
X93199999Y-190667857D02*
X93914285Y-190905952D01*
X93914285Y-190905952D02*
X94152380Y-191144047D01*
X94152380Y-191144047D02*
X94390476Y-191620238D01*
X94390476Y-191620238D02*
X94390476Y-192334523D01*
X94390476Y-192334523D02*
X94152380Y-192810714D01*
X94152380Y-192810714D02*
X93914285Y-193048809D01*
X93914285Y-193048809D02*
X93438095Y-193286904D01*
X93438095Y-193286904D02*
X91533333Y-193286904D01*
X91533333Y-193286904D02*
X91533333Y-188286904D01*
X91533333Y-188286904D02*
X93199999Y-188286904D01*
X93199999Y-188286904D02*
X93676190Y-188525000D01*
X93676190Y-188525000D02*
X93914285Y-188763095D01*
X93914285Y-188763095D02*
X94152380Y-189239285D01*
X94152380Y-189239285D02*
X94152380Y-189715476D01*
X94152380Y-189715476D02*
X93914285Y-190191666D01*
X93914285Y-190191666D02*
X93676190Y-190429761D01*
X93676190Y-190429761D02*
X93199999Y-190667857D01*
X93199999Y-190667857D02*
X91533333Y-190667857D01*
X96533333Y-192810714D02*
X96771428Y-193048809D01*
X96771428Y-193048809D02*
X96533333Y-193286904D01*
X96533333Y-193286904D02*
X96295237Y-193048809D01*
X96295237Y-193048809D02*
X96533333Y-192810714D01*
X96533333Y-192810714D02*
X96533333Y-193286904D01*
X101771428Y-192810714D02*
X101533332Y-193048809D01*
X101533332Y-193048809D02*
X100819047Y-193286904D01*
X100819047Y-193286904D02*
X100342856Y-193286904D01*
X100342856Y-193286904D02*
X99628570Y-193048809D01*
X99628570Y-193048809D02*
X99152380Y-192572619D01*
X99152380Y-192572619D02*
X98914285Y-192096428D01*
X98914285Y-192096428D02*
X98676189Y-191144047D01*
X98676189Y-191144047D02*
X98676189Y-190429761D01*
X98676189Y-190429761D02*
X98914285Y-189477380D01*
X98914285Y-189477380D02*
X99152380Y-189001190D01*
X99152380Y-189001190D02*
X99628570Y-188525000D01*
X99628570Y-188525000D02*
X100342856Y-188286904D01*
X100342856Y-188286904D02*
X100819047Y-188286904D01*
X100819047Y-188286904D02*
X101533332Y-188525000D01*
X101533332Y-188525000D02*
X101771428Y-188763095D01*
X103914285Y-188286904D02*
X103914285Y-192334523D01*
X103914285Y-192334523D02*
X104152380Y-192810714D01*
X104152380Y-192810714D02*
X104390475Y-193048809D01*
X104390475Y-193048809D02*
X104866666Y-193286904D01*
X104866666Y-193286904D02*
X105819047Y-193286904D01*
X105819047Y-193286904D02*
X106295237Y-193048809D01*
X106295237Y-193048809D02*
X106533332Y-192810714D01*
X106533332Y-192810714D02*
X106771428Y-192334523D01*
X106771428Y-192334523D02*
X106771428Y-188286904D01*
X108676189Y-195191666D02*
X108914284Y-194953571D01*
X108914284Y-194953571D02*
X109390475Y-194239285D01*
X109390475Y-194239285D02*
X109628570Y-193763095D01*
X109628570Y-193763095D02*
X109866665Y-193048809D01*
X109866665Y-193048809D02*
X110104761Y-191858333D01*
X110104761Y-191858333D02*
X110104761Y-190905952D01*
X110104761Y-190905952D02*
X109866665Y-189715476D01*
X109866665Y-189715476D02*
X109628570Y-189001190D01*
X109628570Y-189001190D02*
X109390475Y-188525000D01*
X109390475Y-188525000D02*
X108914284Y-187810714D01*
X108914284Y-187810714D02*
X108676189Y-187572619D01*
X126866665Y-193286904D02*
X124485713Y-193286904D01*
X124485713Y-193286904D02*
X124485713Y-188286904D01*
X129485713Y-188286904D02*
X130438094Y-188286904D01*
X130438094Y-188286904D02*
X130914284Y-188525000D01*
X130914284Y-188525000D02*
X131390475Y-189001190D01*
X131390475Y-189001190D02*
X131628570Y-189953571D01*
X131628570Y-189953571D02*
X131628570Y-191620238D01*
X131628570Y-191620238D02*
X131390475Y-192572619D01*
X131390475Y-192572619D02*
X130914284Y-193048809D01*
X130914284Y-193048809D02*
X130438094Y-193286904D01*
X130438094Y-193286904D02*
X129485713Y-193286904D01*
X129485713Y-193286904D02*
X129009522Y-193048809D01*
X129009522Y-193048809D02*
X128533332Y-192572619D01*
X128533332Y-192572619D02*
X128295236Y-191620238D01*
X128295236Y-191620238D02*
X128295236Y-189953571D01*
X128295236Y-189953571D02*
X128533332Y-189001190D01*
X128533332Y-189001190D02*
X129009522Y-188525000D01*
X129009522Y-188525000D02*
X129485713Y-188286904D01*
X133295236Y-188286904D02*
X134485712Y-193286904D01*
X134485712Y-193286904D02*
X135438093Y-189715476D01*
X135438093Y-189715476D02*
X136390474Y-193286904D01*
X136390474Y-193286904D02*
X137580951Y-188286904D01*
X142247617Y-193048809D02*
X142961903Y-193286904D01*
X142961903Y-193286904D02*
X144152379Y-193286904D01*
X144152379Y-193286904D02*
X144628570Y-193048809D01*
X144628570Y-193048809D02*
X144866665Y-192810714D01*
X144866665Y-192810714D02*
X145104760Y-192334523D01*
X145104760Y-192334523D02*
X145104760Y-191858333D01*
X145104760Y-191858333D02*
X144866665Y-191382142D01*
X144866665Y-191382142D02*
X144628570Y-191144047D01*
X144628570Y-191144047D02*
X144152379Y-190905952D01*
X144152379Y-190905952D02*
X143199998Y-190667857D01*
X143199998Y-190667857D02*
X142723808Y-190429761D01*
X142723808Y-190429761D02*
X142485713Y-190191666D01*
X142485713Y-190191666D02*
X142247617Y-189715476D01*
X142247617Y-189715476D02*
X142247617Y-189239285D01*
X142247617Y-189239285D02*
X142485713Y-188763095D01*
X142485713Y-188763095D02*
X142723808Y-188525000D01*
X142723808Y-188525000D02*
X143199998Y-188286904D01*
X143199998Y-188286904D02*
X144390475Y-188286904D01*
X144390475Y-188286904D02*
X145104760Y-188525000D01*
X147247618Y-193286904D02*
X147247618Y-188286904D01*
X147247618Y-188286904D02*
X149152380Y-188286904D01*
X149152380Y-188286904D02*
X149628570Y-188525000D01*
X149628570Y-188525000D02*
X149866665Y-188763095D01*
X149866665Y-188763095D02*
X150104761Y-189239285D01*
X150104761Y-189239285D02*
X150104761Y-189953571D01*
X150104761Y-189953571D02*
X149866665Y-190429761D01*
X149866665Y-190429761D02*
X149628570Y-190667857D01*
X149628570Y-190667857D02*
X149152380Y-190905952D01*
X149152380Y-190905952D02*
X147247618Y-190905952D01*
X152247618Y-190667857D02*
X153914284Y-190667857D01*
X154628570Y-193286904D02*
X152247618Y-193286904D01*
X152247618Y-193286904D02*
X152247618Y-188286904D01*
X152247618Y-188286904D02*
X154628570Y-188286904D01*
X156771428Y-190667857D02*
X158438094Y-190667857D01*
X159152380Y-193286904D02*
X156771428Y-193286904D01*
X156771428Y-193286904D02*
X156771428Y-188286904D01*
X156771428Y-188286904D02*
X159152380Y-188286904D01*
X161295238Y-193286904D02*
X161295238Y-188286904D01*
X161295238Y-188286904D02*
X162485714Y-188286904D01*
X162485714Y-188286904D02*
X163200000Y-188525000D01*
X163200000Y-188525000D02*
X163676190Y-189001190D01*
X163676190Y-189001190D02*
X163914285Y-189477380D01*
X163914285Y-189477380D02*
X164152381Y-190429761D01*
X164152381Y-190429761D02*
X164152381Y-191144047D01*
X164152381Y-191144047D02*
X163914285Y-192096428D01*
X163914285Y-192096428D02*
X163676190Y-192572619D01*
X163676190Y-192572619D02*
X163200000Y-193048809D01*
X163200000Y-193048809D02*
X162485714Y-193286904D01*
X162485714Y-193286904D02*
X161295238Y-193286904D01*
D10*
X124276142Y-67525713D02*
X124304714Y-67439999D01*
X124304714Y-67439999D02*
X124333285Y-67411428D01*
X124333285Y-67411428D02*
X124390428Y-67382856D01*
X124390428Y-67382856D02*
X124476142Y-67382856D01*
X124476142Y-67382856D02*
X124533285Y-67411428D01*
X124533285Y-67411428D02*
X124561857Y-67439999D01*
X124561857Y-67439999D02*
X124590428Y-67497142D01*
X124590428Y-67497142D02*
X124590428Y-67725713D01*
X124590428Y-67725713D02*
X123990428Y-67725713D01*
X123990428Y-67725713D02*
X123990428Y-67525713D01*
X123990428Y-67525713D02*
X124019000Y-67468571D01*
X124019000Y-67468571D02*
X124047571Y-67439999D01*
X124047571Y-67439999D02*
X124104714Y-67411428D01*
X124104714Y-67411428D02*
X124161857Y-67411428D01*
X124161857Y-67411428D02*
X124219000Y-67439999D01*
X124219000Y-67439999D02*
X124247571Y-67468571D01*
X124247571Y-67468571D02*
X124276142Y-67525713D01*
X124276142Y-67525713D02*
X124276142Y-67725713D01*
X123990428Y-67211428D02*
X123990428Y-66868571D01*
X124590428Y-67039999D02*
X123990428Y-67039999D01*
X124590428Y-66668570D02*
X123990428Y-66668570D01*
X123990428Y-66668570D02*
X124590428Y-66325713D01*
X124590428Y-66325713D02*
X123990428Y-66325713D01*
X124647571Y-66182857D02*
X124647571Y-65725714D01*
X123990428Y-65582856D02*
X124476142Y-65582856D01*
X124476142Y-65582856D02*
X124533285Y-65554285D01*
X124533285Y-65554285D02*
X124561857Y-65525714D01*
X124561857Y-65525714D02*
X124590428Y-65468571D01*
X124590428Y-65468571D02*
X124590428Y-65354285D01*
X124590428Y-65354285D02*
X124561857Y-65297142D01*
X124561857Y-65297142D02*
X124533285Y-65268571D01*
X124533285Y-65268571D02*
X124476142Y-65239999D01*
X124476142Y-65239999D02*
X123990428Y-65239999D01*
X124590428Y-64954285D02*
X123990428Y-64954285D01*
X123266142Y-68172856D02*
X123294714Y-68087142D01*
X123294714Y-68087142D02*
X123323285Y-68058571D01*
X123323285Y-68058571D02*
X123380428Y-68029999D01*
X123380428Y-68029999D02*
X123466142Y-68029999D01*
X123466142Y-68029999D02*
X123523285Y-68058571D01*
X123523285Y-68058571D02*
X123551857Y-68087142D01*
X123551857Y-68087142D02*
X123580428Y-68144285D01*
X123580428Y-68144285D02*
X123580428Y-68372856D01*
X123580428Y-68372856D02*
X122980428Y-68372856D01*
X122980428Y-68372856D02*
X122980428Y-68172856D01*
X122980428Y-68172856D02*
X123009000Y-68115714D01*
X123009000Y-68115714D02*
X123037571Y-68087142D01*
X123037571Y-68087142D02*
X123094714Y-68058571D01*
X123094714Y-68058571D02*
X123151857Y-68058571D01*
X123151857Y-68058571D02*
X123209000Y-68087142D01*
X123209000Y-68087142D02*
X123237571Y-68115714D01*
X123237571Y-68115714D02*
X123266142Y-68172856D01*
X123266142Y-68172856D02*
X123266142Y-68372856D01*
X122980428Y-67858571D02*
X122980428Y-67515714D01*
X123580428Y-67687142D02*
X122980428Y-67687142D01*
X123580428Y-67315713D02*
X122980428Y-67315713D01*
X122980428Y-67315713D02*
X123580428Y-66972856D01*
X123580428Y-66972856D02*
X122980428Y-66972856D01*
X123637571Y-66830000D02*
X123637571Y-66372857D01*
X123580428Y-66229999D02*
X122980428Y-66229999D01*
X122980428Y-66229999D02*
X123580428Y-65887142D01*
X123580428Y-65887142D02*
X122980428Y-65887142D01*
X123266142Y-65601428D02*
X123266142Y-65401428D01*
X123580428Y-65315714D02*
X123580428Y-65601428D01*
X123580428Y-65601428D02*
X122980428Y-65601428D01*
X122980428Y-65601428D02*
X122980428Y-65315714D01*
X122980428Y-65144286D02*
X122980428Y-64801429D01*
X123580428Y-64972857D02*
X122980428Y-64972857D01*
X127621429Y-118234428D02*
X127621429Y-118720142D01*
X127621429Y-118720142D02*
X127650000Y-118777285D01*
X127650000Y-118777285D02*
X127678572Y-118805857D01*
X127678572Y-118805857D02*
X127735714Y-118834428D01*
X127735714Y-118834428D02*
X127850000Y-118834428D01*
X127850000Y-118834428D02*
X127907143Y-118805857D01*
X127907143Y-118805857D02*
X127935714Y-118777285D01*
X127935714Y-118777285D02*
X127964286Y-118720142D01*
X127964286Y-118720142D02*
X127964286Y-118234428D01*
X128250000Y-118834428D02*
X128250000Y-118234428D01*
X128392857Y-118891571D02*
X128849999Y-118891571D01*
X128992857Y-118834428D02*
X128992857Y-118234428D01*
X128992857Y-118234428D02*
X129221428Y-118234428D01*
X129221428Y-118234428D02*
X129278571Y-118263000D01*
X129278571Y-118263000D02*
X129307142Y-118291571D01*
X129307142Y-118291571D02*
X129335714Y-118348714D01*
X129335714Y-118348714D02*
X129335714Y-118434428D01*
X129335714Y-118434428D02*
X129307142Y-118491571D01*
X129307142Y-118491571D02*
X129278571Y-118520142D01*
X129278571Y-118520142D02*
X129221428Y-118548714D01*
X129221428Y-118548714D02*
X128992857Y-118548714D01*
X129935714Y-118777285D02*
X129907142Y-118805857D01*
X129907142Y-118805857D02*
X129821428Y-118834428D01*
X129821428Y-118834428D02*
X129764285Y-118834428D01*
X129764285Y-118834428D02*
X129678571Y-118805857D01*
X129678571Y-118805857D02*
X129621428Y-118748714D01*
X129621428Y-118748714D02*
X129592857Y-118691571D01*
X129592857Y-118691571D02*
X129564285Y-118577285D01*
X129564285Y-118577285D02*
X129564285Y-118491571D01*
X129564285Y-118491571D02*
X129592857Y-118377285D01*
X129592857Y-118377285D02*
X129621428Y-118320142D01*
X129621428Y-118320142D02*
X129678571Y-118263000D01*
X129678571Y-118263000D02*
X129764285Y-118234428D01*
X129764285Y-118234428D02*
X129821428Y-118234428D01*
X129821428Y-118234428D02*
X129907142Y-118263000D01*
X129907142Y-118263000D02*
X129935714Y-118291571D01*
X130478571Y-118234428D02*
X130192857Y-118234428D01*
X130192857Y-118234428D02*
X130164285Y-118520142D01*
X130164285Y-118520142D02*
X130192857Y-118491571D01*
X130192857Y-118491571D02*
X130250000Y-118463000D01*
X130250000Y-118463000D02*
X130392857Y-118463000D01*
X130392857Y-118463000D02*
X130450000Y-118491571D01*
X130450000Y-118491571D02*
X130478571Y-118520142D01*
X130478571Y-118520142D02*
X130507142Y-118577285D01*
X130507142Y-118577285D02*
X130507142Y-118720142D01*
X130507142Y-118720142D02*
X130478571Y-118777285D01*
X130478571Y-118777285D02*
X130450000Y-118805857D01*
X130450000Y-118805857D02*
X130392857Y-118834428D01*
X130392857Y-118834428D02*
X130250000Y-118834428D01*
X130250000Y-118834428D02*
X130192857Y-118805857D01*
X130192857Y-118805857D02*
X130164285Y-118777285D01*
X127461428Y-128770428D02*
X127461428Y-128170428D01*
X127461428Y-128170428D02*
X127661428Y-128599000D01*
X127661428Y-128599000D02*
X127861428Y-128170428D01*
X127861428Y-128170428D02*
X127861428Y-128770428D01*
X128461427Y-128199000D02*
X128404285Y-128170428D01*
X128404285Y-128170428D02*
X128318570Y-128170428D01*
X128318570Y-128170428D02*
X128232856Y-128199000D01*
X128232856Y-128199000D02*
X128175713Y-128256142D01*
X128175713Y-128256142D02*
X128147142Y-128313285D01*
X128147142Y-128313285D02*
X128118570Y-128427571D01*
X128118570Y-128427571D02*
X128118570Y-128513285D01*
X128118570Y-128513285D02*
X128147142Y-128627571D01*
X128147142Y-128627571D02*
X128175713Y-128684714D01*
X128175713Y-128684714D02*
X128232856Y-128741857D01*
X128232856Y-128741857D02*
X128318570Y-128770428D01*
X128318570Y-128770428D02*
X128375713Y-128770428D01*
X128375713Y-128770428D02*
X128461427Y-128741857D01*
X128461427Y-128741857D02*
X128489999Y-128713285D01*
X128489999Y-128713285D02*
X128489999Y-128513285D01*
X128489999Y-128513285D02*
X128375713Y-128513285D01*
X128747142Y-128770428D02*
X128747142Y-128170428D01*
X128747142Y-128170428D02*
X128947142Y-128599000D01*
X128947142Y-128599000D02*
X129147142Y-128170428D01*
X129147142Y-128170428D02*
X129147142Y-128770428D01*
X129347141Y-128170428D02*
X129689999Y-128170428D01*
X129518570Y-128770428D02*
X129518570Y-128170428D01*
X129747142Y-128827571D02*
X130204284Y-128827571D01*
X130347142Y-128770428D02*
X130347142Y-128170428D01*
X130347142Y-128170428D02*
X130575713Y-128170428D01*
X130575713Y-128170428D02*
X130632856Y-128199000D01*
X130632856Y-128199000D02*
X130661427Y-128227571D01*
X130661427Y-128227571D02*
X130689999Y-128284714D01*
X130689999Y-128284714D02*
X130689999Y-128370428D01*
X130689999Y-128370428D02*
X130661427Y-128427571D01*
X130661427Y-128427571D02*
X130632856Y-128456142D01*
X130632856Y-128456142D02*
X130575713Y-128484714D01*
X130575713Y-128484714D02*
X130347142Y-128484714D01*
X130918570Y-128599000D02*
X131204285Y-128599000D01*
X130861427Y-128770428D02*
X131061427Y-128170428D01*
X131061427Y-128170428D02*
X131261427Y-128770428D01*
X131775713Y-128770428D02*
X131432856Y-128770428D01*
X131604285Y-128770428D02*
X131604285Y-128170428D01*
X131604285Y-128170428D02*
X131547142Y-128256142D01*
X131547142Y-128256142D02*
X131489999Y-128313285D01*
X131489999Y-128313285D02*
X131432856Y-128341857D01*
X132347142Y-128770428D02*
X132004285Y-128770428D01*
X132175714Y-128770428D02*
X132175714Y-128170428D01*
X132175714Y-128170428D02*
X132118571Y-128256142D01*
X132118571Y-128256142D02*
X132061428Y-128313285D01*
X132061428Y-128313285D02*
X132004285Y-128341857D01*
X131910428Y-67190000D02*
X132510428Y-66990000D01*
X132510428Y-66990000D02*
X131910428Y-66790000D01*
X132453285Y-66247142D02*
X132481857Y-66275714D01*
X132481857Y-66275714D02*
X132510428Y-66361428D01*
X132510428Y-66361428D02*
X132510428Y-66418571D01*
X132510428Y-66418571D02*
X132481857Y-66504285D01*
X132481857Y-66504285D02*
X132424714Y-66561428D01*
X132424714Y-66561428D02*
X132367571Y-66589999D01*
X132367571Y-66589999D02*
X132253285Y-66618571D01*
X132253285Y-66618571D02*
X132167571Y-66618571D01*
X132167571Y-66618571D02*
X132053285Y-66589999D01*
X132053285Y-66589999D02*
X131996142Y-66561428D01*
X131996142Y-66561428D02*
X131939000Y-66504285D01*
X131939000Y-66504285D02*
X131910428Y-66418571D01*
X131910428Y-66418571D02*
X131910428Y-66361428D01*
X131910428Y-66361428D02*
X131939000Y-66275714D01*
X131939000Y-66275714D02*
X131967571Y-66247142D01*
X132453285Y-65647142D02*
X132481857Y-65675714D01*
X132481857Y-65675714D02*
X132510428Y-65761428D01*
X132510428Y-65761428D02*
X132510428Y-65818571D01*
X132510428Y-65818571D02*
X132481857Y-65904285D01*
X132481857Y-65904285D02*
X132424714Y-65961428D01*
X132424714Y-65961428D02*
X132367571Y-65989999D01*
X132367571Y-65989999D02*
X132253285Y-66018571D01*
X132253285Y-66018571D02*
X132167571Y-66018571D01*
X132167571Y-66018571D02*
X132053285Y-65989999D01*
X132053285Y-65989999D02*
X131996142Y-65961428D01*
X131996142Y-65961428D02*
X131939000Y-65904285D01*
X131939000Y-65904285D02*
X131910428Y-65818571D01*
X131910428Y-65818571D02*
X131910428Y-65761428D01*
X131910428Y-65761428D02*
X131939000Y-65675714D01*
X131939000Y-65675714D02*
X131967571Y-65647142D01*
X127112857Y-130369000D02*
X127055715Y-130340428D01*
X127055715Y-130340428D02*
X126970000Y-130340428D01*
X126970000Y-130340428D02*
X126884286Y-130369000D01*
X126884286Y-130369000D02*
X126827143Y-130426142D01*
X126827143Y-130426142D02*
X126798572Y-130483285D01*
X126798572Y-130483285D02*
X126770000Y-130597571D01*
X126770000Y-130597571D02*
X126770000Y-130683285D01*
X126770000Y-130683285D02*
X126798572Y-130797571D01*
X126798572Y-130797571D02*
X126827143Y-130854714D01*
X126827143Y-130854714D02*
X126884286Y-130911857D01*
X126884286Y-130911857D02*
X126970000Y-130940428D01*
X126970000Y-130940428D02*
X127027143Y-130940428D01*
X127027143Y-130940428D02*
X127112857Y-130911857D01*
X127112857Y-130911857D02*
X127141429Y-130883285D01*
X127141429Y-130883285D02*
X127141429Y-130683285D01*
X127141429Y-130683285D02*
X127027143Y-130683285D01*
X127398572Y-130940428D02*
X127398572Y-130340428D01*
X127398572Y-130340428D02*
X127741429Y-130940428D01*
X127741429Y-130940428D02*
X127741429Y-130340428D01*
X128027143Y-130940428D02*
X128027143Y-130340428D01*
X128027143Y-130340428D02*
X128170000Y-130340428D01*
X128170000Y-130340428D02*
X128255714Y-130369000D01*
X128255714Y-130369000D02*
X128312857Y-130426142D01*
X128312857Y-130426142D02*
X128341428Y-130483285D01*
X128341428Y-130483285D02*
X128370000Y-130597571D01*
X128370000Y-130597571D02*
X128370000Y-130683285D01*
X128370000Y-130683285D02*
X128341428Y-130797571D01*
X128341428Y-130797571D02*
X128312857Y-130854714D01*
X128312857Y-130854714D02*
X128255714Y-130911857D01*
X128255714Y-130911857D02*
X128170000Y-130940428D01*
X128170000Y-130940428D02*
X128027143Y-130940428D01*
X121979000Y-66107142D02*
X121950428Y-66164285D01*
X121950428Y-66164285D02*
X121950428Y-66249999D01*
X121950428Y-66249999D02*
X121979000Y-66335713D01*
X121979000Y-66335713D02*
X122036142Y-66392856D01*
X122036142Y-66392856D02*
X122093285Y-66421427D01*
X122093285Y-66421427D02*
X122207571Y-66449999D01*
X122207571Y-66449999D02*
X122293285Y-66449999D01*
X122293285Y-66449999D02*
X122407571Y-66421427D01*
X122407571Y-66421427D02*
X122464714Y-66392856D01*
X122464714Y-66392856D02*
X122521857Y-66335713D01*
X122521857Y-66335713D02*
X122550428Y-66249999D01*
X122550428Y-66249999D02*
X122550428Y-66192856D01*
X122550428Y-66192856D02*
X122521857Y-66107142D01*
X122521857Y-66107142D02*
X122493285Y-66078570D01*
X122493285Y-66078570D02*
X122293285Y-66078570D01*
X122293285Y-66078570D02*
X122293285Y-66192856D01*
X122550428Y-65821427D02*
X121950428Y-65821427D01*
X121950428Y-65821427D02*
X122550428Y-65478570D01*
X122550428Y-65478570D02*
X121950428Y-65478570D01*
X122550428Y-65192856D02*
X121950428Y-65192856D01*
X121950428Y-65192856D02*
X121950428Y-65049999D01*
X121950428Y-65049999D02*
X121979000Y-64964285D01*
X121979000Y-64964285D02*
X122036142Y-64907142D01*
X122036142Y-64907142D02*
X122093285Y-64878571D01*
X122093285Y-64878571D02*
X122207571Y-64849999D01*
X122207571Y-64849999D02*
X122293285Y-64849999D01*
X122293285Y-64849999D02*
X122407571Y-64878571D01*
X122407571Y-64878571D02*
X122464714Y-64907142D01*
X122464714Y-64907142D02*
X122521857Y-64964285D01*
X122521857Y-64964285D02*
X122550428Y-65049999D01*
X122550428Y-65049999D02*
X122550428Y-65192856D01*
D13*
X125933859Y-122345000D02*
X126241141Y-122345000D01*
X125933859Y-123105000D02*
X126241141Y-123105000D01*
X144095336Y-110585000D02*
X143879664Y-110585000D01*
X144095336Y-109865000D02*
X143879664Y-109865000D01*
D14*
X134706300Y-118440400D02*
X138668700Y-118440400D01*
X136382700Y-113309600D02*
X134706300Y-113309600D01*
X136992300Y-113309600D02*
X136382700Y-113309600D01*
X138668700Y-113309600D02*
X136992300Y-113309600D01*
X136382700Y-113309600D02*
G75*
G03*
X136992300Y-113309600I304800J0D01*
G01*
D13*
X142529664Y-108665000D02*
X142745336Y-108665000D01*
X142529664Y-109385000D02*
X142745336Y-109385000D01*
X129887500Y-100085000D02*
X129887500Y-101785000D01*
X129887500Y-100085000D02*
X132437500Y-100085000D01*
X129887500Y-101785000D02*
X132437500Y-101785000D01*
X168927500Y-101735000D02*
X169377500Y-101735000D01*
X169377500Y-101735000D02*
X169377500Y-103025000D01*
X176147500Y-101735000D02*
X175697500Y-101735000D01*
X168927500Y-101285000D02*
X168927500Y-101735000D01*
X176147500Y-101285000D02*
X176147500Y-101735000D01*
X168927500Y-94965000D02*
X168927500Y-94515000D01*
X176147500Y-94965000D02*
X176147500Y-94515000D01*
X168927500Y-94515000D02*
X169377500Y-94515000D01*
X176147500Y-94515000D02*
X175697500Y-94515000D01*
X137915336Y-112795000D02*
X137699664Y-112795000D01*
X137915336Y-112075000D02*
X137699664Y-112075000D01*
X145277500Y-99132836D02*
X145277500Y-98917164D01*
X145997500Y-99132836D02*
X145997500Y-98917164D01*
X169472500Y-106413748D02*
X169472500Y-106936252D01*
X168002500Y-106413748D02*
X168002500Y-106936252D01*
X168377500Y-112082836D02*
X168377500Y-111867164D01*
X169097500Y-112082836D02*
X169097500Y-111867164D01*
X149517500Y-134521359D02*
X149517500Y-134828641D01*
X148757500Y-134521359D02*
X148757500Y-134828641D01*
X174137500Y-86427164D02*
X174137500Y-86642836D01*
X173417500Y-86427164D02*
X173417500Y-86642836D01*
X135727500Y-99512836D02*
X135727500Y-99297164D01*
X136447500Y-99512836D02*
X136447500Y-99297164D01*
X138967500Y-99281359D02*
X138967500Y-99588641D01*
X138207500Y-99281359D02*
X138207500Y-99588641D01*
X177977500Y-137385000D02*
X177977500Y-136365000D01*
X182227500Y-137385000D02*
X177977500Y-137385000D01*
X177977500Y-136365000D02*
X179577500Y-136365000D01*
X179577500Y-136365000D02*
X179577500Y-135085000D01*
X185797500Y-135665000D02*
X185797500Y-122985000D01*
X179577500Y-135085000D02*
X176687500Y-135085000D01*
X177977500Y-122285000D02*
X179577500Y-122285000D01*
X179577500Y-122285000D02*
X179577500Y-123565000D01*
X177977500Y-121265000D02*
X177977500Y-122285000D01*
X182227500Y-121265000D02*
X177977500Y-121265000D01*
X135967500Y-131805000D02*
X138367500Y-131805000D01*
X138367500Y-131805000D02*
X138367500Y-125865000D01*
X138367500Y-125865000D02*
X135967500Y-125865000D01*
X135967500Y-125865000D02*
X135967500Y-131805000D01*
X155497500Y-110535000D02*
X155497500Y-109585000D01*
X155497500Y-109585000D02*
X156837500Y-109585000D01*
X155497500Y-100315000D02*
X155497500Y-101265000D01*
X154547500Y-110535000D02*
X155497500Y-110535000D01*
X154547500Y-100315000D02*
X155497500Y-100315000D01*
X146227500Y-110535000D02*
X145277500Y-110535000D01*
X146227500Y-100315000D02*
X145277500Y-100315000D01*
X145277500Y-110535000D02*
X145277500Y-109585000D01*
X145277500Y-100315000D02*
X145277500Y-101265000D01*
X159297500Y-108878641D02*
X159297500Y-108571359D01*
X160057500Y-108878641D02*
X160057500Y-108571359D01*
X162677500Y-119132836D02*
X162677500Y-118917164D01*
X163397500Y-119132836D02*
X163397500Y-118917164D01*
X126967500Y-63125000D02*
X126167500Y-63125000D01*
X126167500Y-63625000D01*
X121567500Y-63625000D01*
X121567500Y-63125000D01*
X120767500Y-63125000D01*
X120767500Y-59125000D01*
X126967500Y-59125000D01*
X126967500Y-63125000D01*
X161574721Y-102915000D02*
X161900279Y-102915000D01*
X161574721Y-103935000D02*
X161900279Y-103935000D01*
X137207500Y-73178641D02*
X137207500Y-72871359D01*
X137967500Y-73178641D02*
X137967500Y-72871359D01*
X129067500Y-72871359D02*
X129067500Y-73178641D01*
X128307500Y-72871359D02*
X128307500Y-73178641D01*
X180227500Y-97632836D02*
X180227500Y-97417164D01*
X180947500Y-97632836D02*
X180947500Y-97417164D01*
X125833859Y-124345000D02*
X126141141Y-124345000D01*
X125833859Y-125105000D02*
X126141141Y-125105000D01*
X142551141Y-70705000D02*
X142243859Y-70705000D01*
X142551141Y-69945000D02*
X142243859Y-69945000D01*
X140317500Y-99271359D02*
X140317500Y-99578641D01*
X139557500Y-99271359D02*
X139557500Y-99578641D01*
X118487500Y-137871359D02*
X118487500Y-138178641D01*
X117727500Y-137871359D02*
X117727500Y-138178641D01*
X154427500Y-130182836D02*
X154427500Y-129967164D01*
X155147500Y-130182836D02*
X155147500Y-129967164D01*
X181757500Y-78555000D02*
X183087500Y-78555000D01*
X181757500Y-79885000D02*
X181757500Y-78555000D01*
X181757500Y-81155000D02*
X181757500Y-98995000D01*
X181757500Y-81155000D02*
X184417500Y-81155000D01*
X181757500Y-98995000D02*
X184417500Y-98995000D01*
X184417500Y-81155000D02*
X184417500Y-98995000D01*
X158947500Y-103367164D02*
X158947500Y-103582836D01*
X158227500Y-103367164D02*
X158227500Y-103582836D01*
X133617500Y-72871359D02*
X133617500Y-73178641D01*
X132857500Y-72871359D02*
X132857500Y-73178641D01*
X134667500Y-72871359D02*
X134667500Y-73178641D01*
X133907500Y-72871359D02*
X133907500Y-73178641D01*
X147047500Y-97517164D02*
X147047500Y-97732836D01*
X146327500Y-97517164D02*
X146327500Y-97732836D01*
X135717500Y-72871359D02*
X135717500Y-73178641D01*
X134957500Y-72871359D02*
X134957500Y-73178641D01*
X133837500Y-63105000D02*
X133037500Y-63105000D01*
X133037500Y-63605000D01*
X128437500Y-63605000D01*
X128437500Y-63105000D01*
X127637500Y-63105000D01*
X127637500Y-59105000D01*
X133837500Y-59105000D01*
X133837500Y-63105000D01*
X138257500Y-73178641D02*
X138257500Y-72871359D01*
X139017500Y-73178641D02*
X139017500Y-72871359D01*
X177977500Y-120185000D02*
X177977500Y-119165000D01*
X182227500Y-120185000D02*
X177977500Y-120185000D01*
X177977500Y-119165000D02*
X179577500Y-119165000D01*
X179577500Y-119165000D02*
X179577500Y-117885000D01*
X185797500Y-118465000D02*
X185797500Y-113785000D01*
X179577500Y-117885000D02*
X176687500Y-117885000D01*
X177977500Y-113085000D02*
X179577500Y-113085000D01*
X179577500Y-113085000D02*
X179577500Y-114365000D01*
X177977500Y-112065000D02*
X177977500Y-113085000D01*
X182227500Y-112065000D02*
X177977500Y-112065000D01*
X129527500Y-65471359D02*
X129527500Y-65778641D01*
X128767500Y-65471359D02*
X128767500Y-65778641D01*
X165527500Y-108416252D02*
X165527500Y-106993748D01*
X167347500Y-108416252D02*
X167347500Y-106993748D01*
X162279664Y-116915000D02*
X162495336Y-116915000D01*
X162279664Y-117635000D02*
X162495336Y-117635000D01*
X164147500Y-103367164D02*
X164147500Y-103582836D01*
X163427500Y-103367164D02*
X163427500Y-103582836D01*
X130557500Y-73178641D02*
X130557500Y-72871359D01*
X131317500Y-73178641D02*
X131317500Y-72871359D01*
X166083859Y-98825000D02*
X166391141Y-98825000D01*
X166083859Y-99585000D02*
X166391141Y-99585000D01*
X173757500Y-109218641D02*
X173757500Y-108911359D01*
X174517500Y-109218641D02*
X174517500Y-108911359D01*
X154195336Y-113185000D02*
X153979664Y-113185000D01*
X154195336Y-112465000D02*
X153979664Y-112465000D01*
X175767500Y-126915000D02*
X174967500Y-126915000D01*
X174967500Y-127415000D01*
X170367500Y-127415000D01*
X170367500Y-126915000D01*
X169567500Y-126915000D01*
X169567500Y-122915000D01*
X175767500Y-122915000D01*
X175767500Y-126915000D01*
X138317500Y-104721359D02*
X138317500Y-105028641D01*
X137557500Y-104721359D02*
X137557500Y-105028641D01*
X136157500Y-73178641D02*
X136157500Y-72871359D01*
X136917500Y-73178641D02*
X136917500Y-72871359D01*
X152467500Y-134371359D02*
X152467500Y-134678641D01*
X151707500Y-134371359D02*
X151707500Y-134678641D01*
X177077500Y-93882836D02*
X177077500Y-93667164D01*
X177797500Y-93882836D02*
X177797500Y-93667164D01*
X147527500Y-134782836D02*
X147527500Y-134567164D01*
X148247500Y-134782836D02*
X148247500Y-134567164D01*
X147107500Y-87678641D02*
X147107500Y-87371359D01*
X147867500Y-87678641D02*
X147867500Y-87371359D01*
X129887500Y-103015000D02*
X129887500Y-104715000D01*
X129887500Y-103015000D02*
X132437500Y-103015000D01*
X129887500Y-104715000D02*
X132437500Y-104715000D01*
X136007500Y-137981359D02*
X136007500Y-138288641D01*
X135247500Y-137981359D02*
X135247500Y-138288641D01*
X143037500Y-135750000D02*
X144957500Y-135750000D01*
X144957500Y-135750000D02*
X144957500Y-133065000D01*
X143037500Y-133065000D02*
X143037500Y-135750000D01*
X175597500Y-64735000D02*
X174577500Y-64735000D01*
X175597500Y-60485000D02*
X175597500Y-64735000D01*
X174577500Y-64735000D02*
X174577500Y-63135000D01*
X174577500Y-63135000D02*
X173297500Y-63135000D01*
X173877500Y-56915000D02*
X169197500Y-56915000D01*
X173297500Y-63135000D02*
X173297500Y-66025000D01*
X168497500Y-64735000D02*
X168497500Y-63135000D01*
X168497500Y-63135000D02*
X169777500Y-63135000D01*
X167477500Y-64735000D02*
X168497500Y-64735000D01*
X167477500Y-60485000D02*
X167477500Y-64735000D01*
X164879664Y-119715000D02*
X165095336Y-119715000D01*
X164879664Y-120435000D02*
X165095336Y-120435000D01*
X156337500Y-64875000D02*
X157720500Y-64875000D01*
X156337500Y-64875000D02*
X156337500Y-63492000D01*
X156577500Y-64635000D02*
X157887500Y-64635000D01*
X156577500Y-64635000D02*
X156577500Y-57815000D01*
X159487500Y-64635000D02*
X160797500Y-64635000D01*
X160797500Y-64635000D02*
X160797500Y-57815000D01*
X158052500Y-63035000D02*
X159322500Y-63035000D01*
X158172500Y-63035000D02*
X158172500Y-61828333D01*
X158292500Y-63035000D02*
X158292500Y-61828333D01*
X158412500Y-63035000D02*
X158412500Y-61828333D01*
X158532500Y-63035000D02*
X158532500Y-61828333D01*
X158652500Y-63035000D02*
X158652500Y-61828333D01*
X158772500Y-63035000D02*
X158772500Y-61828333D01*
X158892500Y-63035000D02*
X158892500Y-61828333D01*
X159012500Y-63035000D02*
X159012500Y-61828333D01*
X159132500Y-63035000D02*
X159132500Y-61828333D01*
X159252500Y-63035000D02*
X159252500Y-61828333D01*
X159322500Y-63035000D02*
X159322500Y-59415000D01*
X158052500Y-61828333D02*
X159322500Y-61828333D01*
X158052500Y-59415000D02*
X158052500Y-63035000D01*
X159322500Y-59415000D02*
X158052500Y-59415000D01*
X156577500Y-57815000D02*
X157887500Y-57815000D01*
X159487500Y-57815000D02*
X160797500Y-57815000D01*
X127017500Y-72871359D02*
X127017500Y-73178641D01*
X126257500Y-72871359D02*
X126257500Y-73178641D01*
D15*
X164340000Y-113825000D02*
X164340000Y-114130000D01*
X164340000Y-113825000D02*
X164645000Y-113825000D01*
X164340000Y-118825000D02*
X164340000Y-118520000D01*
X164340000Y-118825000D02*
X164645000Y-118825000D01*
X169340000Y-113825000D02*
X169035000Y-113825000D01*
X169340000Y-113825000D02*
X169340000Y-114130000D01*
X169340000Y-118825000D02*
X169035000Y-118825000D01*
X169340000Y-118825000D02*
X169340000Y-118520000D01*
D16*
X163505000Y-114575000D02*
G75*
G03*
X163505000Y-114575000I-100000J0D01*
G01*
D13*
X174452500Y-106386252D02*
X174452500Y-105863748D01*
X175922500Y-106386252D02*
X175922500Y-105863748D01*
X162541141Y-113455000D02*
X162233859Y-113455000D01*
X162541141Y-112695000D02*
X162233859Y-112695000D01*
X128042500Y-72871359D02*
X128042500Y-73178641D01*
X127282500Y-72871359D02*
X127282500Y-73178641D01*
X163097500Y-108416252D02*
X163097500Y-106993748D01*
X164917500Y-108416252D02*
X164917500Y-106993748D01*
X125833859Y-116295000D02*
X126141141Y-116295000D01*
X125833859Y-117055000D02*
X126141141Y-117055000D01*
X153562500Y-61895000D02*
X154562500Y-61895000D01*
X154562500Y-61895000D02*
X154562500Y-60095000D01*
X154562500Y-60095000D02*
X153562500Y-60095000D01*
X153562500Y-60095000D02*
X153562500Y-61895000D01*
X138367500Y-101791359D02*
X138367500Y-102098641D01*
X137607500Y-101791359D02*
X137607500Y-102098641D01*
X130597500Y-65481359D02*
X130597500Y-65788641D01*
X129837500Y-65481359D02*
X129837500Y-65788641D01*
X114717500Y-65025000D02*
X116100500Y-65025000D01*
X114717500Y-65025000D02*
X114717500Y-63642000D01*
X114957500Y-64785000D02*
X116267500Y-64785000D01*
X114957500Y-64785000D02*
X114957500Y-57965000D01*
X117867500Y-64785000D02*
X119177500Y-64785000D01*
X119177500Y-64785000D02*
X119177500Y-57965000D01*
X116432500Y-63185000D02*
X117702500Y-63185000D01*
X116552500Y-63185000D02*
X116552500Y-61978333D01*
X116672500Y-63185000D02*
X116672500Y-61978333D01*
X116792500Y-63185000D02*
X116792500Y-61978333D01*
X116912500Y-63185000D02*
X116912500Y-61978333D01*
X117032500Y-63185000D02*
X117032500Y-61978333D01*
X117152500Y-63185000D02*
X117152500Y-61978333D01*
X117272500Y-63185000D02*
X117272500Y-61978333D01*
X117392500Y-63185000D02*
X117392500Y-61978333D01*
X117512500Y-63185000D02*
X117512500Y-61978333D01*
X117632500Y-63185000D02*
X117632500Y-61978333D01*
X117702500Y-63185000D02*
X117702500Y-59565000D01*
X116432500Y-61978333D02*
X117702500Y-61978333D01*
X116432500Y-59565000D02*
X116432500Y-63185000D01*
X117702500Y-59565000D02*
X116432500Y-59565000D01*
X114957500Y-57965000D02*
X116267500Y-57965000D01*
X117867500Y-57965000D02*
X119177500Y-57965000D01*
X150877500Y-123895000D02*
X150877500Y-127345000D01*
X150877500Y-123895000D02*
X150877500Y-121945000D01*
X160997500Y-123895000D02*
X160997500Y-125845000D01*
X160997500Y-123895000D02*
X160997500Y-121945000D01*
X131607500Y-73178641D02*
X131607500Y-72871359D01*
X132367500Y-73178641D02*
X132367500Y-72871359D01*
X138437500Y-140795000D02*
X139237500Y-140795000D01*
X139237500Y-144795000D01*
X133037500Y-144795000D01*
X133037500Y-140795000D01*
X133837500Y-140795000D01*
X133837500Y-140295000D01*
X138437500Y-140295000D01*
X138437500Y-140795000D01*
X137271141Y-133285000D02*
X136963859Y-133285000D01*
X137271141Y-132525000D02*
X136963859Y-132525000D01*
X161587500Y-64825000D02*
X162970500Y-64825000D01*
X161587500Y-64825000D02*
X161587500Y-63442000D01*
X161827500Y-64585000D02*
X163137500Y-64585000D01*
X161827500Y-64585000D02*
X161827500Y-57765000D01*
X164737500Y-64585000D02*
X166047500Y-64585000D01*
X166047500Y-64585000D02*
X166047500Y-57765000D01*
X163302500Y-62985000D02*
X164572500Y-62985000D01*
X163422500Y-62985000D02*
X163422500Y-61778333D01*
X163542500Y-62985000D02*
X163542500Y-61778333D01*
X163662500Y-62985000D02*
X163662500Y-61778333D01*
X163782500Y-62985000D02*
X163782500Y-61778333D01*
X163902500Y-62985000D02*
X163902500Y-61778333D01*
X164022500Y-62985000D02*
X164022500Y-61778333D01*
X164142500Y-62985000D02*
X164142500Y-61778333D01*
X164262500Y-62985000D02*
X164262500Y-61778333D01*
X164382500Y-62985000D02*
X164382500Y-61778333D01*
X164502500Y-62985000D02*
X164502500Y-61778333D01*
X164572500Y-62985000D02*
X164572500Y-59365000D01*
X163302500Y-61778333D02*
X164572500Y-61778333D01*
X163302500Y-59365000D02*
X163302500Y-62985000D01*
X164572500Y-59365000D02*
X163302500Y-59365000D01*
X161827500Y-57765000D02*
X163137500Y-57765000D01*
X164737500Y-57765000D02*
X166047500Y-57765000D01*
X125833859Y-120245000D02*
X126141141Y-120245000D01*
X125833859Y-121005000D02*
X126141141Y-121005000D01*
X162279664Y-115865000D02*
X162495336Y-115865000D01*
X162279664Y-116585000D02*
X162495336Y-116585000D01*
X170869664Y-116045000D02*
X171085336Y-116045000D01*
X170869664Y-116765000D02*
X171085336Y-116765000D01*
X131557500Y-140825000D02*
X132357500Y-140825000D01*
X132357500Y-144825000D01*
X126157500Y-144825000D01*
X126157500Y-140825000D01*
X126957500Y-140825000D01*
X126957500Y-140325000D01*
X131557500Y-140325000D01*
X131557500Y-140825000D01*
X165977500Y-89135000D02*
X165977500Y-83125000D01*
X172797500Y-86885000D02*
X172797500Y-83125000D01*
X165977500Y-83125000D02*
X167237500Y-83125000D01*
X172797500Y-83125000D02*
X171537500Y-83125000D01*
X138562500Y-61895000D02*
X139562500Y-61895000D01*
X139562500Y-61895000D02*
X139562500Y-60095000D01*
X139562500Y-60095000D02*
X138562500Y-60095000D01*
X138562500Y-60095000D02*
X138562500Y-61895000D01*
X144037500Y-66400000D02*
X162437500Y-66400000D01*
X144037500Y-67150000D02*
X143687500Y-67150000D01*
X144037500Y-67150000D02*
X144037500Y-66400000D01*
X144037500Y-85000000D02*
X144037500Y-86000000D01*
X144037500Y-86000000D02*
X145537500Y-86000000D01*
X162437500Y-66400000D02*
X162437500Y-67100000D01*
X162437500Y-86000000D02*
X160937500Y-86000000D01*
X162437500Y-86000000D02*
X162437500Y-85000000D01*
X162279664Y-114815000D02*
X162495336Y-114815000D01*
X162279664Y-115535000D02*
X162495336Y-115535000D01*
X164897500Y-111867164D02*
X164897500Y-112082836D01*
X164177500Y-111867164D02*
X164177500Y-112082836D01*
X157177500Y-136715000D02*
X158197500Y-136715000D01*
X157177500Y-140965000D02*
X157177500Y-136715000D01*
X158197500Y-136715000D02*
X158197500Y-138315000D01*
X158197500Y-138315000D02*
X159477500Y-138315000D01*
X158897500Y-144535000D02*
X171577500Y-144535000D01*
X159477500Y-138315000D02*
X159477500Y-135425000D01*
X172277500Y-136715000D02*
X172277500Y-138315000D01*
X172277500Y-138315000D02*
X170997500Y-138315000D01*
X173297500Y-136715000D02*
X172277500Y-136715000D01*
X173297500Y-140965000D02*
X173297500Y-136715000D01*
X151937500Y-128762836D02*
X151937500Y-128547164D01*
X152657500Y-128762836D02*
X152657500Y-128547164D01*
X122867500Y-113595000D02*
X122867500Y-114615000D01*
X118617500Y-113595000D02*
X122867500Y-113595000D01*
X122867500Y-114615000D02*
X121267500Y-114615000D01*
X121267500Y-114615000D02*
X121267500Y-115895000D01*
X115047500Y-115315000D02*
X115047500Y-131995000D01*
X121267500Y-115895000D02*
X124157500Y-115895000D01*
X122867500Y-132695000D02*
X121267500Y-132695000D01*
X121267500Y-132695000D02*
X121267500Y-131415000D01*
X122867500Y-133715000D02*
X122867500Y-132695000D01*
X118617500Y-133715000D02*
X122867500Y-133715000D01*
X168047500Y-111867164D02*
X168047500Y-112082836D01*
X167327500Y-111867164D02*
X167327500Y-112082836D01*
X168807500Y-126885000D02*
X168007500Y-126885000D01*
X168007500Y-127385000D01*
X163407500Y-127385000D01*
X163407500Y-126885000D01*
X162607500Y-126885000D01*
X162607500Y-122885000D01*
X168807500Y-122885000D01*
X168807500Y-126885000D01*
X160047500Y-103367164D02*
X160047500Y-103582836D01*
X159327500Y-103367164D02*
X159327500Y-103582836D01*
X169207500Y-103557164D02*
X169207500Y-103772836D01*
X168487500Y-103557164D02*
X168487500Y-103772836D01*
X141757500Y-86415000D02*
X140737500Y-86415000D01*
X141757500Y-82165000D02*
X141757500Y-86415000D01*
X140737500Y-86415000D02*
X140737500Y-84815000D01*
X140737500Y-84815000D02*
X139457500Y-84815000D01*
X140037500Y-78595000D02*
X135357500Y-78595000D01*
X139457500Y-84815000D02*
X139457500Y-87705000D01*
X134657500Y-86415000D02*
X134657500Y-84815000D01*
X134657500Y-84815000D02*
X135937500Y-84815000D01*
X133637500Y-86415000D02*
X134657500Y-86415000D01*
X133637500Y-82165000D02*
X133637500Y-86415000D01*
X145587500Y-139225000D02*
X145587500Y-141225000D01*
X145587500Y-143125000D02*
X145587500Y-145025000D01*
X145587500Y-145025000D02*
X154987500Y-145025000D01*
X154987500Y-139225000D02*
X154987500Y-141225000D01*
X154987500Y-143125000D02*
X154987500Y-145025000D01*
X143562500Y-61895000D02*
X144562500Y-61895000D01*
X144562500Y-61895000D02*
X144562500Y-60095000D01*
X144562500Y-60095000D02*
X143562500Y-60095000D01*
X143562500Y-60095000D02*
X143562500Y-61895000D01*
X125833859Y-128195000D02*
X126141141Y-128195000D01*
X125833859Y-128955000D02*
X126141141Y-128955000D01*
X125833859Y-118245000D02*
X126141141Y-118245000D01*
X125833859Y-119005000D02*
X126141141Y-119005000D01*
X153329664Y-97415000D02*
X153545336Y-97415000D01*
X153329664Y-98135000D02*
X153545336Y-98135000D01*
X148562500Y-61895000D02*
X149562500Y-61895000D01*
X149562500Y-61895000D02*
X149562500Y-60095000D01*
X149562500Y-60095000D02*
X148562500Y-60095000D01*
X148562500Y-60095000D02*
X148562500Y-61895000D01*
X157137500Y-130875000D02*
X158737500Y-130875000D01*
X158737500Y-129075000D02*
X156837500Y-129075000D01*
X131687500Y-65471359D02*
X131687500Y-65778641D01*
X130927500Y-65471359D02*
X130927500Y-65778641D01*
X170977500Y-67741359D02*
X170977500Y-68048641D01*
X170217500Y-67741359D02*
X170217500Y-68048641D01*
X125833859Y-126295000D02*
X126141141Y-126295000D01*
X125833859Y-127055000D02*
X126141141Y-127055000D01*
X119927500Y-140775000D02*
X120727500Y-140775000D01*
X120727500Y-144775000D01*
X114527500Y-144775000D01*
X114527500Y-140775000D01*
X115327500Y-140775000D01*
X115327500Y-140275000D01*
X119927500Y-140275000D01*
X119927500Y-140775000D01*
X117477500Y-137881359D02*
X117477500Y-138188641D01*
X116717500Y-137881359D02*
X116717500Y-138188641D01*
X137097500Y-103875000D02*
X137097500Y-102075000D01*
X137097500Y-103875000D02*
X137097500Y-104675000D01*
X133977500Y-103875000D02*
X133977500Y-103075000D01*
X133977500Y-103875000D02*
X133977500Y-104675000D01*
X162495336Y-114485000D02*
X162279664Y-114485000D01*
X162495336Y-113765000D02*
X162279664Y-113765000D01*
X137117500Y-138021359D02*
X137117500Y-138328641D01*
X136357500Y-138021359D02*
X136357500Y-138328641D01*
X166477500Y-101032836D02*
X166477500Y-100817164D01*
X167197500Y-101032836D02*
X167197500Y-100817164D01*
X129507500Y-73178641D02*
X129507500Y-72871359D01*
X130267500Y-73178641D02*
X130267500Y-72871359D01*
X169987500Y-104475000D02*
X169987500Y-107775000D01*
X169987500Y-107775000D02*
X173987500Y-107775000D01*
%LPC*%
D17*
X117587500Y-107925000D03*
D18*
X125577500Y-122725000D03*
X126597500Y-122725000D03*
D19*
X144467500Y-110225000D03*
X143507500Y-110225000D03*
D20*
X133893499Y-113969999D03*
X133893499Y-115239999D03*
X133893499Y-116509999D03*
X133893499Y-117779999D03*
X139481499Y-117779999D03*
X139481499Y-116509999D03*
X139481499Y-115239999D03*
X139481499Y-113969999D03*
D21*
X142157500Y-109025000D03*
X143117500Y-109025000D03*
D22*
X130337499Y-100934999D03*
X132437499Y-100934999D03*
D17*
X117587500Y-69625000D03*
D23*
X169787500Y-102287500D03*
X170287500Y-102287500D03*
X170787500Y-102287500D03*
X171287500Y-102287500D03*
X171787500Y-102287500D03*
X172287500Y-102287500D03*
X172787500Y-102287500D03*
X173287500Y-102287500D03*
X173787500Y-102287500D03*
X174287500Y-102287500D03*
X174787500Y-102287500D03*
X175287500Y-102287500D03*
D24*
X176700000Y-100875000D03*
X176700000Y-100375000D03*
X176700000Y-99875000D03*
X176700000Y-99375000D03*
X176700000Y-98875000D03*
X176700000Y-98375000D03*
X176700000Y-97875000D03*
X176700000Y-97375000D03*
X176700000Y-96875000D03*
X176700000Y-96375000D03*
X176700000Y-95875000D03*
X176700000Y-95375000D03*
D23*
X175287500Y-93962500D03*
X174787500Y-93962500D03*
X174287500Y-93962500D03*
X173787500Y-93962500D03*
X173287500Y-93962500D03*
X172787500Y-93962500D03*
X172287500Y-93962500D03*
X171787500Y-93962500D03*
X171287500Y-93962500D03*
X170787500Y-93962500D03*
X170287500Y-93962500D03*
X169787500Y-93962500D03*
D24*
X168375000Y-95375000D03*
X168375000Y-95875000D03*
X168375000Y-96375000D03*
X168375000Y-96875000D03*
X168375000Y-97375000D03*
X168375000Y-97875000D03*
X168375000Y-98375000D03*
X168375000Y-98875000D03*
X168375000Y-99375000D03*
X168375000Y-99875000D03*
X168375000Y-100375000D03*
X168375000Y-100875000D03*
D19*
X138287500Y-112435000D03*
X137327500Y-112435000D03*
D25*
X145637500Y-99505000D03*
X145637500Y-98545000D03*
D26*
X168737500Y-105725000D03*
X168737500Y-107625000D03*
D25*
X168737500Y-112455000D03*
X168737500Y-111495000D03*
D27*
X149137500Y-134165000D03*
X149137500Y-135185000D03*
D28*
X173777500Y-86055000D03*
X173777500Y-87015000D03*
D25*
X136087500Y-99885000D03*
X136087500Y-98925000D03*
D27*
X138587500Y-98925000D03*
X138587500Y-99945000D03*
D29*
X178437500Y-134325000D03*
X178437500Y-132325000D03*
X178437500Y-130325000D03*
X178437500Y-128325000D03*
X178437500Y-126325000D03*
X178437500Y-124325000D03*
D30*
X184187500Y-136675000D03*
X184187500Y-121975000D03*
D31*
X136227499Y-131539999D03*
D32*
X136227499Y-131034999D03*
X136227499Y-130634999D03*
X136227499Y-130232923D03*
X136227499Y-129834999D03*
X136227499Y-129434999D03*
X136227499Y-129034999D03*
X136227499Y-128634999D03*
X136227499Y-128234999D03*
X136227499Y-127834999D03*
X136227499Y-127434999D03*
X136227499Y-127034999D03*
X136227499Y-126634999D03*
D31*
X136227499Y-126129999D03*
X138107499Y-126129999D03*
D32*
X138107499Y-126634999D03*
X138107499Y-127034999D03*
X138107499Y-127434999D03*
X138107499Y-127834999D03*
X138107499Y-128234999D03*
X138107499Y-128634999D03*
X138107499Y-129034999D03*
X138107499Y-129434999D03*
X138107499Y-129834999D03*
X138107499Y-130232923D03*
X138107499Y-130634999D03*
X138107499Y-131034999D03*
D31*
X138107499Y-131539999D03*
D33*
X156062500Y-109175000D03*
X156062500Y-108675000D03*
X156062500Y-108175000D03*
X156062500Y-107675000D03*
X156062500Y-107175000D03*
X156062500Y-106675000D03*
X156062500Y-106175000D03*
X156062500Y-105675000D03*
X156062500Y-105175000D03*
X156062500Y-104675000D03*
X156062500Y-104175000D03*
X156062500Y-103675000D03*
X156062500Y-103175000D03*
X156062500Y-102675000D03*
X156062500Y-102175000D03*
X156062500Y-101675000D03*
D34*
X154137500Y-99750000D03*
X153637500Y-99750000D03*
X153137500Y-99750000D03*
X152637500Y-99750000D03*
X152137500Y-99750000D03*
X151637500Y-99750000D03*
X151137500Y-99750000D03*
X150637500Y-99750000D03*
X150137500Y-99750000D03*
X149637500Y-99750000D03*
X149137500Y-99750000D03*
X148637500Y-99750000D03*
X148137500Y-99750000D03*
X147637500Y-99750000D03*
X147137500Y-99750000D03*
X146637500Y-99750000D03*
D33*
X144712500Y-101675000D03*
X144712500Y-102175000D03*
X144712500Y-102675000D03*
X144712500Y-103175000D03*
X144712500Y-103675000D03*
X144712500Y-104175000D03*
X144712500Y-104675000D03*
X144712500Y-105175000D03*
X144712500Y-105675000D03*
X144712500Y-106175000D03*
X144712500Y-106675000D03*
X144712500Y-107175000D03*
X144712500Y-107675000D03*
X144712500Y-108175000D03*
X144712500Y-108675000D03*
X144712500Y-109175000D03*
D34*
X146637500Y-111100000D03*
X147137500Y-111100000D03*
X147637500Y-111100000D03*
X148137500Y-111100000D03*
X148637500Y-111100000D03*
X149137500Y-111100000D03*
X149637500Y-111100000D03*
X150137500Y-111100000D03*
X150637500Y-111100000D03*
X151137500Y-111100000D03*
X151637500Y-111100000D03*
X152137500Y-111100000D03*
X152637500Y-111100000D03*
X153137500Y-111100000D03*
X153637500Y-111100000D03*
X154137500Y-111100000D03*
D35*
X159677500Y-109235000D03*
X159677500Y-108215000D03*
D25*
X163037500Y-119505000D03*
X163037500Y-118545000D03*
D36*
X125367499Y-63524999D03*
X124367499Y-63524999D03*
X123367499Y-63524999D03*
X122367499Y-63524999D03*
D37*
X126467499Y-60124999D03*
X121267499Y-60124999D03*
D38*
X160950000Y-103425000D03*
X162525000Y-103425000D03*
D35*
X137587500Y-73535000D03*
X137587500Y-72515000D03*
D27*
X128687500Y-72515000D03*
X128687500Y-73535000D03*
D25*
X180587500Y-98005000D03*
X180587500Y-97045000D03*
D18*
X125477500Y-124725000D03*
X126497500Y-124725000D03*
D39*
X142907500Y-70325000D03*
X141887500Y-70325000D03*
D40*
X176937500Y-140345000D03*
D27*
X139937500Y-98915000D03*
X139937500Y-99935000D03*
X118107500Y-137515000D03*
X118107500Y-138535000D03*
D25*
X154787500Y-130555000D03*
X154787500Y-129595000D03*
D41*
X183087499Y-79884999D03*
D42*
X183087499Y-82424999D03*
X183087499Y-84964999D03*
X183087499Y-87504999D03*
X183087499Y-90044999D03*
X183087499Y-92584999D03*
X183087499Y-95124999D03*
X183087499Y-97664999D03*
D28*
X158587500Y-102995000D03*
X158587500Y-103955000D03*
D27*
X133237500Y-72515000D03*
X133237500Y-73535000D03*
X134287500Y-72515000D03*
X134287500Y-73535000D03*
D28*
X146687500Y-97145000D03*
X146687500Y-98105000D03*
D27*
X135337500Y-72515000D03*
X135337500Y-73535000D03*
D36*
X132237499Y-63504999D03*
X131237499Y-63504999D03*
X130237499Y-63504999D03*
X129237499Y-63504999D03*
D37*
X133337499Y-60104999D03*
X128137499Y-60104999D03*
D35*
X138637500Y-73535000D03*
X138637500Y-72515000D03*
D29*
X178437500Y-117125000D03*
X178437500Y-115125000D03*
D30*
X184187500Y-119475000D03*
X184187500Y-112775000D03*
D27*
X129147500Y-65115000D03*
X129147500Y-66135000D03*
D43*
X166437500Y-109180000D03*
X166437500Y-106230000D03*
D21*
X161907500Y-117275000D03*
X162867500Y-117275000D03*
D28*
X163787500Y-102995000D03*
X163787500Y-103955000D03*
D35*
X130937500Y-73535000D03*
X130937500Y-72515000D03*
D18*
X165727500Y-99205000D03*
X166747500Y-99205000D03*
D17*
X183087500Y-107925000D03*
D35*
X174137500Y-109575000D03*
X174137500Y-108555000D03*
D19*
X154567500Y-112825000D03*
X153607500Y-112825000D03*
D36*
X174167499Y-127314999D03*
X173167499Y-127314999D03*
X172167499Y-127314999D03*
X171167499Y-127314999D03*
D37*
X175267499Y-123914999D03*
X170067499Y-123914999D03*
D27*
X137937500Y-104365000D03*
X137937500Y-105385000D03*
D35*
X136537500Y-73535000D03*
X136537500Y-72515000D03*
D27*
X152087500Y-134015000D03*
X152087500Y-135035000D03*
D25*
X177437500Y-94255000D03*
X177437500Y-93295000D03*
X147887500Y-135155000D03*
X147887500Y-134195000D03*
D35*
X147487500Y-88035000D03*
X147487500Y-87015000D03*
D22*
X130337499Y-103864999D03*
X132437499Y-103864999D03*
D27*
X135627500Y-137625000D03*
X135627500Y-138645000D03*
D44*
X143997500Y-135002500D03*
X143997500Y-133127500D03*
D45*
X172537500Y-64275000D03*
X170537500Y-64275000D03*
D46*
X174887500Y-58525000D03*
X168187500Y-58525000D03*
D21*
X164507500Y-120075000D03*
X165467500Y-120075000D03*
D47*
X158687499Y-64589999D03*
X158687499Y-57859999D03*
D27*
X126637500Y-72515000D03*
X126637500Y-73535000D03*
D48*
X164365000Y-114575000D03*
X164365000Y-115075000D03*
X164365000Y-115575000D03*
X164365000Y-116075000D03*
X164365000Y-116575000D03*
X164365000Y-117075000D03*
X164365000Y-117575000D03*
X164365000Y-118075000D03*
D49*
X165090000Y-118800000D03*
X165590000Y-118800000D03*
X166090000Y-118800000D03*
X166590000Y-118800000D03*
X167090000Y-118800000D03*
X167590000Y-118800000D03*
X168090000Y-118800000D03*
X168590000Y-118800000D03*
D48*
X169315000Y-118075000D03*
X169315000Y-117575000D03*
X169315000Y-117075000D03*
X169315000Y-116575000D03*
X169315000Y-116075000D03*
X169315000Y-115575000D03*
X169315000Y-115075000D03*
X169315000Y-114575000D03*
D49*
X168590000Y-113850000D03*
X168090000Y-113850000D03*
X167590000Y-113850000D03*
X167090000Y-113850000D03*
X166590000Y-113850000D03*
X166090000Y-113850000D03*
X165590000Y-113850000D03*
X165090000Y-113850000D03*
D50*
X166839999Y-116324999D03*
D51*
X175187500Y-107075000D03*
X175187500Y-105175000D03*
D39*
X162897500Y-113075000D03*
X161877500Y-113075000D03*
D27*
X127662500Y-72515000D03*
X127662500Y-73535000D03*
D43*
X164007500Y-109180000D03*
X164007500Y-106230000D03*
D18*
X125477500Y-116675000D03*
X126497500Y-116675000D03*
D52*
X153662499Y-61694999D03*
X153662499Y-60294999D03*
X154462499Y-60294999D03*
X154462499Y-61694999D03*
D27*
X137987500Y-101435000D03*
X137987500Y-102455000D03*
X130217500Y-65125000D03*
X130217500Y-66145000D03*
D47*
X117067499Y-64739999D03*
X117067499Y-58009999D03*
D53*
X151492500Y-126370000D03*
X152762500Y-126370000D03*
X154032500Y-126370000D03*
X155302500Y-126370000D03*
X156572500Y-126370000D03*
X157842500Y-126370000D03*
X159112500Y-126370000D03*
X160382500Y-126370000D03*
X160382500Y-121420000D03*
X159112500Y-121420000D03*
X157842500Y-121420000D03*
X156572500Y-121420000D03*
X155302500Y-121420000D03*
X154032500Y-121420000D03*
X152762500Y-121420000D03*
X151492500Y-121420000D03*
D35*
X131987500Y-73535000D03*
X131987500Y-72515000D03*
D36*
X134637499Y-140394999D03*
X135637499Y-140394999D03*
X136637499Y-140394999D03*
X137637499Y-140394999D03*
D37*
X133537499Y-143794999D03*
X138737499Y-143794999D03*
D39*
X137627500Y-132905000D03*
X136607500Y-132905000D03*
D47*
X163937499Y-64539999D03*
X163937499Y-57809999D03*
D18*
X125477500Y-120625000D03*
X126497500Y-120625000D03*
D21*
X161907500Y-116225000D03*
X162867500Y-116225000D03*
X170497500Y-116405000D03*
X171457500Y-116405000D03*
D36*
X127757499Y-140424999D03*
X128757499Y-140424999D03*
X129757499Y-140424999D03*
X130757499Y-140424999D03*
D37*
X126657499Y-143824999D03*
X131857499Y-143824999D03*
D54*
X167087499Y-88184999D03*
X169387499Y-88184999D03*
D55*
X169387499Y-81884999D03*
D54*
X171687499Y-88184999D03*
D52*
X138662499Y-61694999D03*
X138662499Y-60294999D03*
X139462499Y-60294999D03*
X139462499Y-61694999D03*
D56*
X144487499Y-67789999D03*
X144487499Y-69059999D03*
X144487499Y-70329999D03*
X144487499Y-71599999D03*
X144487499Y-72869999D03*
X144487499Y-74139999D03*
X144487499Y-75409999D03*
X144487499Y-76679999D03*
X144487499Y-77949999D03*
X144487499Y-79219999D03*
X144487499Y-80489999D03*
X144487499Y-81759999D03*
X144487499Y-83029999D03*
X144487499Y-84299999D03*
D57*
X146252499Y-85549999D03*
X147522499Y-85549999D03*
X148792499Y-85549999D03*
X150062499Y-85549999D03*
X151332499Y-85549999D03*
X152602499Y-85549999D03*
X153872499Y-85549999D03*
X155142499Y-85549999D03*
X156412499Y-85549999D03*
X157682499Y-85549999D03*
X158952499Y-85549999D03*
X160222499Y-85549999D03*
D56*
X161987499Y-84299999D03*
X161987499Y-83029999D03*
X161987499Y-81759999D03*
X161987499Y-80489999D03*
X161987499Y-79219999D03*
X161987499Y-77949999D03*
X161987499Y-76679999D03*
X161987499Y-75409999D03*
X161987499Y-74139999D03*
X161987499Y-72869999D03*
X161987499Y-71599999D03*
X161987499Y-70329999D03*
X161987499Y-69059999D03*
X161987499Y-67789999D03*
D21*
X161907500Y-115175000D03*
X162867500Y-115175000D03*
D28*
X164537500Y-111495000D03*
X164537500Y-112455000D03*
D58*
X160237500Y-137175000D03*
X162237500Y-137175000D03*
X164237500Y-137175000D03*
X166237500Y-137175000D03*
X168237500Y-137175000D03*
X170237500Y-137175000D03*
D59*
X157887500Y-142925000D03*
X172587500Y-142925000D03*
D25*
X152297500Y-129135000D03*
X152297500Y-128175000D03*
D60*
X122407500Y-116655000D03*
X122407500Y-118655000D03*
X122407500Y-120655000D03*
X122407500Y-122655000D03*
X122407500Y-124655000D03*
X122407500Y-126655000D03*
X122407500Y-128655000D03*
X122407500Y-130655000D03*
D61*
X116657500Y-114305000D03*
X116657500Y-133005000D03*
D28*
X167687500Y-111495000D03*
X167687500Y-112455000D03*
D36*
X167207499Y-127284999D03*
X166207499Y-127284999D03*
X165207499Y-127284999D03*
X164207499Y-127284999D03*
D37*
X168307499Y-123884999D03*
X163107499Y-123884999D03*
D17*
X183087500Y-69625000D03*
D28*
X159687500Y-102995000D03*
X159687500Y-103955000D03*
X168847500Y-103185000D03*
X168847500Y-104145000D03*
D45*
X138697500Y-85955000D03*
X136697500Y-85955000D03*
D46*
X141047500Y-80205000D03*
X134347500Y-80205000D03*
D40*
X123637500Y-140345000D03*
D62*
X147397500Y-138525000D03*
X153177500Y-138525000D03*
D63*
X147037499Y-137079999D03*
X147837499Y-137079999D03*
D64*
X149037499Y-137079999D03*
X150037499Y-137079999D03*
X150537499Y-137079999D03*
X151537499Y-137079999D03*
D63*
X152737499Y-137079999D03*
X153537499Y-137079999D03*
X153537499Y-137079999D03*
X152737499Y-137079999D03*
D64*
X152037499Y-137079999D03*
X151037499Y-137079999D03*
X149537499Y-137079999D03*
X148537499Y-137079999D03*
D63*
X147837499Y-137079999D03*
X147037499Y-137079999D03*
D65*
X145967499Y-137994999D03*
D66*
X145967499Y-142174999D03*
D65*
X154607499Y-137994999D03*
D66*
X154607499Y-142174999D03*
D52*
X143662499Y-61694999D03*
X143662499Y-60294999D03*
X144462499Y-60294999D03*
X144462499Y-61694999D03*
D18*
X125477500Y-128575000D03*
X126497500Y-128575000D03*
X125477500Y-118625000D03*
X126497500Y-118625000D03*
D21*
X152957500Y-97775000D03*
X153917500Y-97775000D03*
D52*
X148662499Y-61694999D03*
X148662499Y-60294999D03*
X149462499Y-60294999D03*
X149462499Y-61694999D03*
D67*
X157087499Y-129437499D03*
D68*
X157012499Y-129974999D03*
D67*
X157087499Y-130512499D03*
X158787499Y-130512499D03*
D68*
X158862499Y-129974999D03*
D67*
X158787499Y-129437499D03*
D27*
X131307500Y-65115000D03*
X131307500Y-66135000D03*
X170597500Y-67385000D03*
X170597500Y-68405000D03*
D18*
X125477500Y-126675000D03*
X126497500Y-126675000D03*
D36*
X116127499Y-140374999D03*
X117127499Y-140374999D03*
X118127499Y-140374999D03*
X119127499Y-140374999D03*
D37*
X115027499Y-143774999D03*
X120227499Y-143774999D03*
D27*
X117097500Y-137525000D03*
X117097500Y-138545000D03*
D69*
X136487500Y-102737500D03*
X135537500Y-102737500D03*
X134587500Y-102737500D03*
X134587500Y-105012500D03*
X136487500Y-105012500D03*
D19*
X162867500Y-114125000D03*
X161907500Y-114125000D03*
D27*
X136737500Y-137665000D03*
X136737500Y-138685000D03*
D25*
X166837500Y-101405000D03*
X166837500Y-100445000D03*
D35*
X129887500Y-73535000D03*
X129887500Y-72515000D03*
D70*
X170887499Y-106974999D03*
X173087499Y-106974999D03*
X173087499Y-105274999D03*
X170887499Y-105274999D03*
M02*
