M48
; DRILL file {KiCad (7.0.0-0)} date Saturday, April 29, 2023 at 12:32:29 PM
; FORMAT={-:-/ absolute / metric / decimal}
; #@! TF.CreationDate,2023-04-29T12:32:29-06:00
; #@! TF.GenerationSoftware,Kicad,Pcbnew,(7.0.0-0)
; #@! TF.FileFunction,Plated,1,4,PTH
FMAT,2
METRIC
; #@! TA.AperFunction,Plated,PTH,ViaDrill
T1C0.200
; #@! TA.AperFunction,Plated,PTH,ComponentDrill
T2C0.200
; #@! TA.AperFunction,Plated,PTH,ViaDrill
T3C0.300
; #@! TA.AperFunction,Plated,PTH,ViaDrill
T4C0.400
; #@! TA.AperFunction,Plated,PTH,ComponentDrill
T5C0.600
; #@! TA.AperFunction,Plated,PTH,ComponentDrill
T6C1.000
%
G90
G05
T1
X117.087Y-139.215
X118.546Y-139.269
X118.582Y-64.74
X125.387Y-64.165
X127.041Y-74.428
X127.157Y-118.615
X127.157Y-126.675
X127.167Y-116.685
X127.177Y-120.635
X127.197Y-124.725
X127.197Y-128.565
X127.287Y-122.735
X128.038Y-74.495
X128.044Y-103.785
X128.371Y-104.945
X128.847Y-142.445
X129.037Y-74.475
X129.137Y-66.9
X129.857Y-142.395
X130.037Y-74.475
X130.188Y-66.895
X131.037Y-74.475
X131.192Y-66.9
X132.036Y-74.475
X132.487Y-117.825
X133.237Y-74.475
X134.287Y-74.475
X134.338Y-126.41
X134.43Y-125.606
X134.866Y-124.641
X135.338Y-74.475
X135.728Y-136.839
X135.773Y-131.54
X135.864Y-124.68
X136.757Y-136.799
X136.984Y-124.725
X137.218Y-130.825
X138.012Y-117.24
X138.31Y-124.722
X138.547Y-132.885
X138.579Y-134.48
X138.637Y-74.425
X138.697Y-102.485
X138.819Y-124.514
X139.363Y-124.433
X139.637Y-74.425
X139.868Y-108.555
X139.982Y-124.433
X139.993Y-119.564
X140.462Y-139.565
X140.462Y-140.115
X140.487Y-73.762
X140.522Y-124.534
X140.998Y-137.795
X141.037Y-119.012
X141.258Y-120.44
X141.543Y-137.669
X141.637Y-101.625
X141.879Y-103.287
X142.088Y-137.595
X142.338Y-104.175
X142.569Y-116.072
X142.911Y-95.887
X142.927Y-73.335
X142.938Y-74.225
X143.037Y-75.525
X143.037Y-101.975
X143.209Y-85.869
X143.366Y-95.56
X143.598Y-86.258
X143.868Y-95.233
X143.986Y-86.646
X144.75Y-120.557
X145.22Y-120.087
X145.262Y-93.633
X145.686Y-114.074
X145.765Y-93.96
X145.767Y-105.675
X145.808Y-121.315
X145.87Y-114.592
X146.017Y-70.285
X146.078Y-101.086
X146.107Y-101.993
X146.118Y-107.705
X146.567Y-119.355
X146.718Y-102.445
X146.727Y-101.095
X147.627Y-100.955
X147.897Y-95.895
X148.177Y-100.966
X148.517Y-95.895
X148.637Y-138.875
X149.137Y-110.115
X149.197Y-101.237
X149.424Y-95.571
X149.565Y-109.16
X149.618Y-96.085
X149.892Y-106.205
X149.921Y-133.975
X149.956Y-102.126
X150.088Y-98.425
X150.168Y-94.614
X150.244Y-138.631
X150.637Y-98.425
X150.748Y-113.863
X150.887Y-113.275
X151.377Y-109.966
X152.188Y-106.14
X152.377Y-102.175
X152.413Y-100.852
X152.737Y-90.475
X152.817Y-124.635
X153.588Y-113.625
X153.662Y-108.616
X153.997Y-94.648
X154.097Y-124.765
X154.338Y-108.616
X154.537Y-102.775
X154.913Y-108.297
X154.918Y-106.316
X154.987Y-94.783
X154.987Y-116.995
X154.994Y-115.795
X154.994Y-116.435
X155.387Y-112.775
X155.443Y-93.88
X155.45Y-98.675
X156.357Y-112.245
X156.399Y-110.443
X156.427Y-86.725
X156.438Y-58.245
X156.525Y-129.975
X156.849Y-112.666
X157.152Y-98.611
X157.183Y-108.17
X157.486Y-123.757
X157.507Y-107.675
X157.718Y-95.495
X157.718Y-96.045
X158.041Y-106.471
X158.368Y-111.789
X158.386Y-108.445
X158.405Y-105.917
X158.479Y-92.977
X159.418Y-72.182
X159.528Y-123.417
X159.737Y-101.975
X159.968Y-72.195
X159.987Y-130.025
X160.017Y-65.285
X160.209Y-98.131
X160.211Y-94.317
X160.237Y-134.425
X160.316Y-109.235
X160.358Y-116.585
X160.407Y-72.715
X160.427Y-71.545
X160.688Y-81.825
X160.757Y-94.385
X160.877Y-83.075
X161.194Y-93.941
X161.612Y-115.115
X161.632Y-94.44
X161.739Y-89.452
X161.968Y-84.985
X162.085Y-98.525
X162.238Y-89.779
X162.297Y-139.885
X162.567Y-99.978
X162.577Y-128.065
X162.737Y-129.874
X162.995Y-94.283
X163.104Y-95.112
X163.227Y-98.525
X163.718Y-130.475
X163.787Y-102.225
X163.827Y-99.805
X164.167Y-125.225
X164.248Y-135.035
X164.311Y-95.072
X164.778Y-99.265
X164.808Y-124.985
X165.2Y-84.515
X165.31Y-95.298
X165.438Y-57.875
X165.807Y-125.006
X166.032Y-95.37
X166.076Y-84.555
X166.099Y-119.451
X166.237Y-134.405
X166.447Y-120.076
X166.648Y-119.47
X166.806Y-125.005
X166.838Y-102.275
X167.193Y-119.538
X167.267Y-134.405
X167.352Y-92.109
X167.741Y-119.5
X167.947Y-109.255
X168.528Y-119.515
X168.533Y-109.146
X169.778Y-92.756
X169.897Y-99.976
X169.938Y-100.975
X170.808Y-92.787
X170.827Y-98.525
X171.498Y-125.815
X171.757Y-92.765
X171.877Y-99.215
X171.878Y-95.773
X172.127Y-126.065
X172.307Y-92.744
X172.677Y-128.795
X172.754Y-95.773
X172.817Y-100.255
X173.087Y-97.575
X173.237Y-115.105
X173.248Y-114.395
X173.304Y-95.773
X173.517Y-100.969
X174.087Y-97.587
X174.157Y-128.825
X174.277Y-99.156
X174.303Y-103.519
X174.725Y-92.516
X174.985Y-87.686
X175.007Y-88.685
X175.106Y-97.641
X175.117Y-108.505
X175.117Y-109.595
X175.197Y-115.265
X175.288Y-95.875
X176.137Y-94.125
X176.762Y-115.175
X176.762Y-117.195
X176.762Y-124.375
X176.762Y-126.375
X177.108Y-83.865
X177.169Y-85.505
X177.257Y-101.805
X177.267Y-102.855
X177.559Y-70.173
X177.998Y-70.611
X178.107Y-83.855
X178.167Y-85.465
X180.058Y-90.415
X180.437Y-82.512
X180.447Y-87.305
X180.588Y-128.375
X180.998Y-88.327
X181.055Y-90.474
X181.528Y-83.275
X181.528Y-88.755
X181.563Y-90.264
T2
X150.338Y-74.81
X150.338Y-76.21
X151.037Y-74.11
X151.037Y-75.51
X151.037Y-76.91
X151.737Y-74.81
X151.737Y-76.21
X152.438Y-74.11
X152.438Y-75.51
X152.438Y-76.91
X153.137Y-74.81
X153.137Y-76.21
T3
X116.087Y-139.005
X119.157Y-138.985
X120.127Y-57.725
X124.218Y-59.025
X124.218Y-100.445
X125.287Y-130.705
X127.837Y-138.935
X130.887Y-139.055
X132.188Y-65.055
X133.528Y-102.715
X134.588Y-106.325
X134.637Y-139.115
X134.852Y-100.06
X135.637Y-101.375
X136.088Y-98.145
X137.938Y-103.475
X138.272Y-139.748
X138.627Y-59.345
X139.797Y-98.175
X140.938Y-70.375
X142.778Y-68.375
X143.444Y-111.285
X143.637Y-59.465
X144.438Y-111.175
X144.637Y-99.445
X144.963Y-131.899
X145.588Y-97.725
X146.047Y-67.525
X146.472Y-133.11
X146.618Y-136.495
X148.387Y-88.165
X148.637Y-59.665
X151.57Y-127.985
X152.887Y-134.038
X153.037Y-96.875
X153.197Y-135.115
X153.637Y-59.505
X153.957Y-130.555
X154.037Y-136.245
X154.137Y-96.675
X154.737Y-128.835
X155.493Y-128.05
X158.588Y-105.025
X160.987Y-104.625
X161.088Y-114.095
X162.028Y-119.575
X162.137Y-118.575
X163.612Y-112.25
X163.787Y-104.825
X165.077Y-110.575
X165.392Y-67.98
X165.938Y-101.142
X166.701Y-85.212
X167.088Y-89.785
X169.487Y-65.725
X169.637Y-112.375
X169.65Y-111.417
X169.838Y-68.435
X170.487Y-103.875
X170.487Y-115.435
X171.427Y-136.495
X171.457Y-115.335
X171.817Y-67.835
X172.838Y-108.525
X174.147Y-89.795
X176.137Y-86.025
X177.363Y-92.375
X179.718Y-98.645
X181.267Y-95.125
T4
X136.697Y-88.373
X139.79Y-88.91
T6
X183.088Y-79.885
X183.088Y-82.425
X183.088Y-84.965
X183.088Y-87.505
X183.088Y-90.045
X183.088Y-92.585
X183.088Y-95.125
X183.088Y-97.665
T5
X145.968Y-137.445G85X145.968Y-138.545
G05
X145.968Y-141.875G85X145.968Y-142.475
G05
X154.607Y-137.445G85X154.607Y-138.545
G05
X154.607Y-141.875G85X154.607Y-142.475
G05
T0
M30
