%TF.GenerationSoftware,KiCad,Pcbnew,(7.0.0-0)*%
%TF.CreationDate,2023-04-29T12:32:31-06:00*%
%TF.ProjectId,EV6 Board Design,45563620-426f-4617-9264-204465736967,rev?*%
%TF.SameCoordinates,Original*%
%TF.FileFunction,Drillmap*%
%TF.FilePolarity,Positive*%
%FSLAX45Y45*%
G04 Gerber Fmt 4.5, Leading zero omitted, Abs format (unit mm)*
G04 Created by KiCad (PCBNEW (7.0.0-0)) date 2023-04-29 12:32:31*
%MOMM*%
%LPD*%
G01*
G04 APERTURE LIST*
%ADD10C,0.050000*%
%ADD11C,0.200000*%
%ADD12C,0.065000*%
%ADD13C,0.210000*%
%ADD14C,0.320000*%
G04 APERTURE END LIST*
D10*
X17668750Y-6588500D02*
X18668750Y-6588500D01*
X18668750Y-14543500D01*
X11398750Y-14543500D01*
X11398750Y-5602500D01*
X17668750Y-5602500D01*
X17668750Y-6588500D01*
D11*
D12*
X14707250Y-13820000D02*
X14772250Y-13885000D01*
X14772250Y-13820000D02*
X14707250Y-13885000D01*
X15285250Y-13820000D02*
X15350250Y-13885000D01*
X15350250Y-13820000D02*
X15285250Y-13885000D01*
D13*
X12468750Y-14034500D02*
G75*
G03*
X12468750Y-14034500I-105000J0D01*
G01*
X17798750Y-14034500D02*
G75*
G03*
X17798750Y-14034500I-105000J0D01*
G01*
D14*
X11758750Y-6802500D02*
X11758750Y-7122500D01*
X11598750Y-6962500D02*
X11918750Y-6962500D01*
X11758750Y-10632500D02*
X11758750Y-10952500D01*
X11598750Y-10792500D02*
X11918750Y-10792500D01*
X18308750Y-6802500D02*
X18308750Y-7122500D01*
X18148750Y-6962500D02*
X18468750Y-6962500D01*
X18308750Y-10632500D02*
X18308750Y-10952500D01*
X18148750Y-10792500D02*
X18468750Y-10792500D01*
D11*
X11643869Y-14839476D02*
X11643869Y-14639476D01*
X11643869Y-14639476D02*
X11691488Y-14639476D01*
X11691488Y-14639476D02*
X11720059Y-14649000D01*
X11720059Y-14649000D02*
X11739107Y-14668048D01*
X11739107Y-14668048D02*
X11748631Y-14687095D01*
X11748631Y-14687095D02*
X11758155Y-14725190D01*
X11758155Y-14725190D02*
X11758155Y-14753762D01*
X11758155Y-14753762D02*
X11748631Y-14791857D01*
X11748631Y-14791857D02*
X11739107Y-14810905D01*
X11739107Y-14810905D02*
X11720059Y-14829952D01*
X11720059Y-14829952D02*
X11691488Y-14839476D01*
X11691488Y-14839476D02*
X11643869Y-14839476D01*
X11843869Y-14839476D02*
X11843869Y-14706143D01*
X11843869Y-14744238D02*
X11853393Y-14725190D01*
X11853393Y-14725190D02*
X11862917Y-14715667D01*
X11862917Y-14715667D02*
X11881964Y-14706143D01*
X11881964Y-14706143D02*
X11901012Y-14706143D01*
X11967678Y-14839476D02*
X11967678Y-14706143D01*
X11967678Y-14639476D02*
X11958155Y-14649000D01*
X11958155Y-14649000D02*
X11967678Y-14658524D01*
X11967678Y-14658524D02*
X11977202Y-14649000D01*
X11977202Y-14649000D02*
X11967678Y-14639476D01*
X11967678Y-14639476D02*
X11967678Y-14658524D01*
X12091488Y-14839476D02*
X12072440Y-14829952D01*
X12072440Y-14829952D02*
X12062917Y-14810905D01*
X12062917Y-14810905D02*
X12062917Y-14639476D01*
X12196250Y-14839476D02*
X12177202Y-14829952D01*
X12177202Y-14829952D02*
X12167678Y-14810905D01*
X12167678Y-14810905D02*
X12167678Y-14639476D01*
X12392440Y-14839476D02*
X12392440Y-14639476D01*
X12392440Y-14639476D02*
X12459107Y-14782333D01*
X12459107Y-14782333D02*
X12525774Y-14639476D01*
X12525774Y-14639476D02*
X12525774Y-14839476D01*
X12706726Y-14839476D02*
X12706726Y-14734714D01*
X12706726Y-14734714D02*
X12697202Y-14715667D01*
X12697202Y-14715667D02*
X12678155Y-14706143D01*
X12678155Y-14706143D02*
X12640059Y-14706143D01*
X12640059Y-14706143D02*
X12621012Y-14715667D01*
X12706726Y-14829952D02*
X12687678Y-14839476D01*
X12687678Y-14839476D02*
X12640059Y-14839476D01*
X12640059Y-14839476D02*
X12621012Y-14829952D01*
X12621012Y-14829952D02*
X12611488Y-14810905D01*
X12611488Y-14810905D02*
X12611488Y-14791857D01*
X12611488Y-14791857D02*
X12621012Y-14772809D01*
X12621012Y-14772809D02*
X12640059Y-14763286D01*
X12640059Y-14763286D02*
X12687678Y-14763286D01*
X12687678Y-14763286D02*
X12706726Y-14753762D01*
X12801964Y-14706143D02*
X12801964Y-14906143D01*
X12801964Y-14715667D02*
X12821012Y-14706143D01*
X12821012Y-14706143D02*
X12859107Y-14706143D01*
X12859107Y-14706143D02*
X12878155Y-14715667D01*
X12878155Y-14715667D02*
X12887678Y-14725190D01*
X12887678Y-14725190D02*
X12897202Y-14744238D01*
X12897202Y-14744238D02*
X12897202Y-14801381D01*
X12897202Y-14801381D02*
X12887678Y-14820428D01*
X12887678Y-14820428D02*
X12878155Y-14829952D01*
X12878155Y-14829952D02*
X12859107Y-14839476D01*
X12859107Y-14839476D02*
X12821012Y-14839476D01*
X12821012Y-14839476D02*
X12801964Y-14829952D01*
X12982917Y-14820428D02*
X12992440Y-14829952D01*
X12992440Y-14829952D02*
X12982917Y-14839476D01*
X12982917Y-14839476D02*
X12973393Y-14829952D01*
X12973393Y-14829952D02*
X12982917Y-14820428D01*
X12982917Y-14820428D02*
X12982917Y-14839476D01*
X12982917Y-14715667D02*
X12992440Y-14725190D01*
X12992440Y-14725190D02*
X12982917Y-14734714D01*
X12982917Y-14734714D02*
X12973393Y-14725190D01*
X12973393Y-14725190D02*
X12982917Y-14715667D01*
X12982917Y-14715667D02*
X12982917Y-14734714D01*
D12*
X11331250Y-15153500D02*
X11396250Y-15218500D01*
X11396250Y-15153500D02*
X11331250Y-15218500D01*
D11*
X11681964Y-15059476D02*
X11701012Y-15059476D01*
X11701012Y-15059476D02*
X11720059Y-15069000D01*
X11720059Y-15069000D02*
X11729583Y-15078524D01*
X11729583Y-15078524D02*
X11739107Y-15097571D01*
X11739107Y-15097571D02*
X11748631Y-15135667D01*
X11748631Y-15135667D02*
X11748631Y-15183286D01*
X11748631Y-15183286D02*
X11739107Y-15221381D01*
X11739107Y-15221381D02*
X11729583Y-15240428D01*
X11729583Y-15240428D02*
X11720059Y-15249952D01*
X11720059Y-15249952D02*
X11701012Y-15259476D01*
X11701012Y-15259476D02*
X11681964Y-15259476D01*
X11681964Y-15259476D02*
X11662917Y-15249952D01*
X11662917Y-15249952D02*
X11653393Y-15240428D01*
X11653393Y-15240428D02*
X11643869Y-15221381D01*
X11643869Y-15221381D02*
X11634345Y-15183286D01*
X11634345Y-15183286D02*
X11634345Y-15135667D01*
X11634345Y-15135667D02*
X11643869Y-15097571D01*
X11643869Y-15097571D02*
X11653393Y-15078524D01*
X11653393Y-15078524D02*
X11662917Y-15069000D01*
X11662917Y-15069000D02*
X11681964Y-15059476D01*
X11834345Y-15240428D02*
X11843869Y-15249952D01*
X11843869Y-15249952D02*
X11834345Y-15259476D01*
X11834345Y-15259476D02*
X11824821Y-15249952D01*
X11824821Y-15249952D02*
X11834345Y-15240428D01*
X11834345Y-15240428D02*
X11834345Y-15259476D01*
X12015298Y-15059476D02*
X11977202Y-15059476D01*
X11977202Y-15059476D02*
X11958155Y-15069000D01*
X11958155Y-15069000D02*
X11948631Y-15078524D01*
X11948631Y-15078524D02*
X11929583Y-15107095D01*
X11929583Y-15107095D02*
X11920059Y-15145190D01*
X11920059Y-15145190D02*
X11920059Y-15221381D01*
X11920059Y-15221381D02*
X11929583Y-15240428D01*
X11929583Y-15240428D02*
X11939107Y-15249952D01*
X11939107Y-15249952D02*
X11958155Y-15259476D01*
X11958155Y-15259476D02*
X11996250Y-15259476D01*
X11996250Y-15259476D02*
X12015298Y-15249952D01*
X12015298Y-15249952D02*
X12024821Y-15240428D01*
X12024821Y-15240428D02*
X12034345Y-15221381D01*
X12034345Y-15221381D02*
X12034345Y-15173762D01*
X12034345Y-15173762D02*
X12024821Y-15154714D01*
X12024821Y-15154714D02*
X12015298Y-15145190D01*
X12015298Y-15145190D02*
X11996250Y-15135667D01*
X11996250Y-15135667D02*
X11958155Y-15135667D01*
X11958155Y-15135667D02*
X11939107Y-15145190D01*
X11939107Y-15145190D02*
X11929583Y-15154714D01*
X11929583Y-15154714D02*
X11920059Y-15173762D01*
X12215298Y-15059476D02*
X12120059Y-15059476D01*
X12120059Y-15059476D02*
X12110536Y-15154714D01*
X12110536Y-15154714D02*
X12120059Y-15145190D01*
X12120059Y-15145190D02*
X12139107Y-15135667D01*
X12139107Y-15135667D02*
X12186726Y-15135667D01*
X12186726Y-15135667D02*
X12205774Y-15145190D01*
X12205774Y-15145190D02*
X12215298Y-15154714D01*
X12215298Y-15154714D02*
X12224821Y-15173762D01*
X12224821Y-15173762D02*
X12224821Y-15221381D01*
X12224821Y-15221381D02*
X12215298Y-15240428D01*
X12215298Y-15240428D02*
X12205774Y-15249952D01*
X12205774Y-15249952D02*
X12186726Y-15259476D01*
X12186726Y-15259476D02*
X12139107Y-15259476D01*
X12139107Y-15259476D02*
X12120059Y-15249952D01*
X12120059Y-15249952D02*
X12110536Y-15240428D01*
X12348631Y-15059476D02*
X12367679Y-15059476D01*
X12367679Y-15059476D02*
X12386726Y-15069000D01*
X12386726Y-15069000D02*
X12396250Y-15078524D01*
X12396250Y-15078524D02*
X12405774Y-15097571D01*
X12405774Y-15097571D02*
X12415298Y-15135667D01*
X12415298Y-15135667D02*
X12415298Y-15183286D01*
X12415298Y-15183286D02*
X12405774Y-15221381D01*
X12405774Y-15221381D02*
X12396250Y-15240428D01*
X12396250Y-15240428D02*
X12386726Y-15249952D01*
X12386726Y-15249952D02*
X12367679Y-15259476D01*
X12367679Y-15259476D02*
X12348631Y-15259476D01*
X12348631Y-15259476D02*
X12329583Y-15249952D01*
X12329583Y-15249952D02*
X12320059Y-15240428D01*
X12320059Y-15240428D02*
X12310536Y-15221381D01*
X12310536Y-15221381D02*
X12301012Y-15183286D01*
X12301012Y-15183286D02*
X12301012Y-15135667D01*
X12301012Y-15135667D02*
X12310536Y-15097571D01*
X12310536Y-15097571D02*
X12320059Y-15078524D01*
X12320059Y-15078524D02*
X12329583Y-15069000D01*
X12329583Y-15069000D02*
X12348631Y-15059476D01*
X12501012Y-15259476D02*
X12501012Y-15126143D01*
X12501012Y-15145190D02*
X12510536Y-15135667D01*
X12510536Y-15135667D02*
X12529583Y-15126143D01*
X12529583Y-15126143D02*
X12558155Y-15126143D01*
X12558155Y-15126143D02*
X12577202Y-15135667D01*
X12577202Y-15135667D02*
X12586726Y-15154714D01*
X12586726Y-15154714D02*
X12586726Y-15259476D01*
X12586726Y-15154714D02*
X12596250Y-15135667D01*
X12596250Y-15135667D02*
X12615298Y-15126143D01*
X12615298Y-15126143D02*
X12643869Y-15126143D01*
X12643869Y-15126143D02*
X12662917Y-15135667D01*
X12662917Y-15135667D02*
X12672440Y-15154714D01*
X12672440Y-15154714D02*
X12672440Y-15259476D01*
X12767679Y-15259476D02*
X12767679Y-15126143D01*
X12767679Y-15145190D02*
X12777202Y-15135667D01*
X12777202Y-15135667D02*
X12796250Y-15126143D01*
X12796250Y-15126143D02*
X12824821Y-15126143D01*
X12824821Y-15126143D02*
X12843869Y-15135667D01*
X12843869Y-15135667D02*
X12853393Y-15154714D01*
X12853393Y-15154714D02*
X12853393Y-15259476D01*
X12853393Y-15154714D02*
X12862917Y-15135667D01*
X12862917Y-15135667D02*
X12881964Y-15126143D01*
X12881964Y-15126143D02*
X12910536Y-15126143D01*
X12910536Y-15126143D02*
X12929583Y-15135667D01*
X12929583Y-15135667D02*
X12939107Y-15154714D01*
X12939107Y-15154714D02*
X12939107Y-15259476D01*
X13297202Y-15049952D02*
X13125774Y-15307095D01*
X13521964Y-15059476D02*
X13541012Y-15059476D01*
X13541012Y-15059476D02*
X13560060Y-15069000D01*
X13560060Y-15069000D02*
X13569583Y-15078524D01*
X13569583Y-15078524D02*
X13579107Y-15097571D01*
X13579107Y-15097571D02*
X13588631Y-15135667D01*
X13588631Y-15135667D02*
X13588631Y-15183286D01*
X13588631Y-15183286D02*
X13579107Y-15221381D01*
X13579107Y-15221381D02*
X13569583Y-15240428D01*
X13569583Y-15240428D02*
X13560060Y-15249952D01*
X13560060Y-15249952D02*
X13541012Y-15259476D01*
X13541012Y-15259476D02*
X13521964Y-15259476D01*
X13521964Y-15259476D02*
X13502917Y-15249952D01*
X13502917Y-15249952D02*
X13493393Y-15240428D01*
X13493393Y-15240428D02*
X13483869Y-15221381D01*
X13483869Y-15221381D02*
X13474345Y-15183286D01*
X13474345Y-15183286D02*
X13474345Y-15135667D01*
X13474345Y-15135667D02*
X13483869Y-15097571D01*
X13483869Y-15097571D02*
X13493393Y-15078524D01*
X13493393Y-15078524D02*
X13502917Y-15069000D01*
X13502917Y-15069000D02*
X13521964Y-15059476D01*
X13674345Y-15240428D02*
X13683869Y-15249952D01*
X13683869Y-15249952D02*
X13674345Y-15259476D01*
X13674345Y-15259476D02*
X13664821Y-15249952D01*
X13664821Y-15249952D02*
X13674345Y-15240428D01*
X13674345Y-15240428D02*
X13674345Y-15259476D01*
X13807679Y-15059476D02*
X13826726Y-15059476D01*
X13826726Y-15059476D02*
X13845774Y-15069000D01*
X13845774Y-15069000D02*
X13855298Y-15078524D01*
X13855298Y-15078524D02*
X13864821Y-15097571D01*
X13864821Y-15097571D02*
X13874345Y-15135667D01*
X13874345Y-15135667D02*
X13874345Y-15183286D01*
X13874345Y-15183286D02*
X13864821Y-15221381D01*
X13864821Y-15221381D02*
X13855298Y-15240428D01*
X13855298Y-15240428D02*
X13845774Y-15249952D01*
X13845774Y-15249952D02*
X13826726Y-15259476D01*
X13826726Y-15259476D02*
X13807679Y-15259476D01*
X13807679Y-15259476D02*
X13788631Y-15249952D01*
X13788631Y-15249952D02*
X13779107Y-15240428D01*
X13779107Y-15240428D02*
X13769583Y-15221381D01*
X13769583Y-15221381D02*
X13760060Y-15183286D01*
X13760060Y-15183286D02*
X13760060Y-15135667D01*
X13760060Y-15135667D02*
X13769583Y-15097571D01*
X13769583Y-15097571D02*
X13779107Y-15078524D01*
X13779107Y-15078524D02*
X13788631Y-15069000D01*
X13788631Y-15069000D02*
X13807679Y-15059476D01*
X13950536Y-15078524D02*
X13960060Y-15069000D01*
X13960060Y-15069000D02*
X13979107Y-15059476D01*
X13979107Y-15059476D02*
X14026726Y-15059476D01*
X14026726Y-15059476D02*
X14045774Y-15069000D01*
X14045774Y-15069000D02*
X14055298Y-15078524D01*
X14055298Y-15078524D02*
X14064821Y-15097571D01*
X14064821Y-15097571D02*
X14064821Y-15116619D01*
X14064821Y-15116619D02*
X14055298Y-15145190D01*
X14055298Y-15145190D02*
X13941012Y-15259476D01*
X13941012Y-15259476D02*
X14064821Y-15259476D01*
X14245774Y-15059476D02*
X14150536Y-15059476D01*
X14150536Y-15059476D02*
X14141012Y-15154714D01*
X14141012Y-15154714D02*
X14150536Y-15145190D01*
X14150536Y-15145190D02*
X14169583Y-15135667D01*
X14169583Y-15135667D02*
X14217202Y-15135667D01*
X14217202Y-15135667D02*
X14236250Y-15145190D01*
X14236250Y-15145190D02*
X14245774Y-15154714D01*
X14245774Y-15154714D02*
X14255298Y-15173762D01*
X14255298Y-15173762D02*
X14255298Y-15221381D01*
X14255298Y-15221381D02*
X14245774Y-15240428D01*
X14245774Y-15240428D02*
X14236250Y-15249952D01*
X14236250Y-15249952D02*
X14217202Y-15259476D01*
X14217202Y-15259476D02*
X14169583Y-15259476D01*
X14169583Y-15259476D02*
X14150536Y-15249952D01*
X14150536Y-15249952D02*
X14141012Y-15240428D01*
X14426726Y-15059476D02*
X14388631Y-15059476D01*
X14388631Y-15059476D02*
X14369583Y-15069000D01*
X14369583Y-15069000D02*
X14360060Y-15078524D01*
X14360060Y-15078524D02*
X14341012Y-15107095D01*
X14341012Y-15107095D02*
X14331488Y-15145190D01*
X14331488Y-15145190D02*
X14331488Y-15221381D01*
X14331488Y-15221381D02*
X14341012Y-15240428D01*
X14341012Y-15240428D02*
X14350536Y-15249952D01*
X14350536Y-15249952D02*
X14369583Y-15259476D01*
X14369583Y-15259476D02*
X14407679Y-15259476D01*
X14407679Y-15259476D02*
X14426726Y-15249952D01*
X14426726Y-15249952D02*
X14436250Y-15240428D01*
X14436250Y-15240428D02*
X14445774Y-15221381D01*
X14445774Y-15221381D02*
X14445774Y-15173762D01*
X14445774Y-15173762D02*
X14436250Y-15154714D01*
X14436250Y-15154714D02*
X14426726Y-15145190D01*
X14426726Y-15145190D02*
X14407679Y-15135667D01*
X14407679Y-15135667D02*
X14369583Y-15135667D01*
X14369583Y-15135667D02*
X14350536Y-15145190D01*
X14350536Y-15145190D02*
X14341012Y-15154714D01*
X14341012Y-15154714D02*
X14331488Y-15173762D01*
X14521964Y-15059476D02*
X14521964Y-15097571D01*
X14598155Y-15059476D02*
X14598155Y-15097571D01*
X14861012Y-15335667D02*
X14851488Y-15326143D01*
X14851488Y-15326143D02*
X14832441Y-15297571D01*
X14832441Y-15297571D02*
X14822917Y-15278524D01*
X14822917Y-15278524D02*
X14813393Y-15249952D01*
X14813393Y-15249952D02*
X14803869Y-15202333D01*
X14803869Y-15202333D02*
X14803869Y-15164238D01*
X14803869Y-15164238D02*
X14813393Y-15116619D01*
X14813393Y-15116619D02*
X14822917Y-15088048D01*
X14822917Y-15088048D02*
X14832441Y-15069000D01*
X14832441Y-15069000D02*
X14851488Y-15040428D01*
X14851488Y-15040428D02*
X14861012Y-15030905D01*
X14927679Y-15078524D02*
X14937202Y-15069000D01*
X14937202Y-15069000D02*
X14956250Y-15059476D01*
X14956250Y-15059476D02*
X15003869Y-15059476D01*
X15003869Y-15059476D02*
X15022917Y-15069000D01*
X15022917Y-15069000D02*
X15032441Y-15078524D01*
X15032441Y-15078524D02*
X15041964Y-15097571D01*
X15041964Y-15097571D02*
X15041964Y-15116619D01*
X15041964Y-15116619D02*
X15032441Y-15145190D01*
X15032441Y-15145190D02*
X14918155Y-15259476D01*
X14918155Y-15259476D02*
X15041964Y-15259476D01*
X15247679Y-15259476D02*
X15247679Y-15059476D01*
X15333393Y-15259476D02*
X15333393Y-15154714D01*
X15333393Y-15154714D02*
X15323869Y-15135667D01*
X15323869Y-15135667D02*
X15304822Y-15126143D01*
X15304822Y-15126143D02*
X15276250Y-15126143D01*
X15276250Y-15126143D02*
X15257202Y-15135667D01*
X15257202Y-15135667D02*
X15247679Y-15145190D01*
X15457202Y-15259476D02*
X15438155Y-15249952D01*
X15438155Y-15249952D02*
X15428631Y-15240428D01*
X15428631Y-15240428D02*
X15419107Y-15221381D01*
X15419107Y-15221381D02*
X15419107Y-15164238D01*
X15419107Y-15164238D02*
X15428631Y-15145190D01*
X15428631Y-15145190D02*
X15438155Y-15135667D01*
X15438155Y-15135667D02*
X15457202Y-15126143D01*
X15457202Y-15126143D02*
X15485774Y-15126143D01*
X15485774Y-15126143D02*
X15504822Y-15135667D01*
X15504822Y-15135667D02*
X15514345Y-15145190D01*
X15514345Y-15145190D02*
X15523869Y-15164238D01*
X15523869Y-15164238D02*
X15523869Y-15221381D01*
X15523869Y-15221381D02*
X15514345Y-15240428D01*
X15514345Y-15240428D02*
X15504822Y-15249952D01*
X15504822Y-15249952D02*
X15485774Y-15259476D01*
X15485774Y-15259476D02*
X15457202Y-15259476D01*
X15638155Y-15259476D02*
X15619107Y-15249952D01*
X15619107Y-15249952D02*
X15609583Y-15230905D01*
X15609583Y-15230905D02*
X15609583Y-15059476D01*
X15790536Y-15249952D02*
X15771488Y-15259476D01*
X15771488Y-15259476D02*
X15733393Y-15259476D01*
X15733393Y-15259476D02*
X15714345Y-15249952D01*
X15714345Y-15249952D02*
X15704822Y-15230905D01*
X15704822Y-15230905D02*
X15704822Y-15154714D01*
X15704822Y-15154714D02*
X15714345Y-15135667D01*
X15714345Y-15135667D02*
X15733393Y-15126143D01*
X15733393Y-15126143D02*
X15771488Y-15126143D01*
X15771488Y-15126143D02*
X15790536Y-15135667D01*
X15790536Y-15135667D02*
X15800060Y-15154714D01*
X15800060Y-15154714D02*
X15800060Y-15173762D01*
X15800060Y-15173762D02*
X15704822Y-15192809D01*
X15876250Y-15249952D02*
X15895298Y-15259476D01*
X15895298Y-15259476D02*
X15933393Y-15259476D01*
X15933393Y-15259476D02*
X15952441Y-15249952D01*
X15952441Y-15249952D02*
X15961964Y-15230905D01*
X15961964Y-15230905D02*
X15961964Y-15221381D01*
X15961964Y-15221381D02*
X15952441Y-15202333D01*
X15952441Y-15202333D02*
X15933393Y-15192809D01*
X15933393Y-15192809D02*
X15904822Y-15192809D01*
X15904822Y-15192809D02*
X15885774Y-15183286D01*
X15885774Y-15183286D02*
X15876250Y-15164238D01*
X15876250Y-15164238D02*
X15876250Y-15154714D01*
X15876250Y-15154714D02*
X15885774Y-15135667D01*
X15885774Y-15135667D02*
X15904822Y-15126143D01*
X15904822Y-15126143D02*
X15933393Y-15126143D01*
X15933393Y-15126143D02*
X15952441Y-15135667D01*
X16028631Y-15335667D02*
X16038155Y-15326143D01*
X16038155Y-15326143D02*
X16057203Y-15297571D01*
X16057203Y-15297571D02*
X16066726Y-15278524D01*
X16066726Y-15278524D02*
X16076250Y-15249952D01*
X16076250Y-15249952D02*
X16085774Y-15202333D01*
X16085774Y-15202333D02*
X16085774Y-15164238D01*
X16085774Y-15164238D02*
X16076250Y-15116619D01*
X16076250Y-15116619D02*
X16066726Y-15088048D01*
X16066726Y-15088048D02*
X16057203Y-15069000D01*
X16057203Y-15069000D02*
X16038155Y-15040428D01*
X16038155Y-15040428D02*
X16028631Y-15030905D01*
X16358155Y-15335667D02*
X16348631Y-15326143D01*
X16348631Y-15326143D02*
X16329583Y-15297571D01*
X16329583Y-15297571D02*
X16320060Y-15278524D01*
X16320060Y-15278524D02*
X16310536Y-15249952D01*
X16310536Y-15249952D02*
X16301012Y-15202333D01*
X16301012Y-15202333D02*
X16301012Y-15164238D01*
X16301012Y-15164238D02*
X16310536Y-15116619D01*
X16310536Y-15116619D02*
X16320060Y-15088048D01*
X16320060Y-15088048D02*
X16329583Y-15069000D01*
X16329583Y-15069000D02*
X16348631Y-15040428D01*
X16348631Y-15040428D02*
X16358155Y-15030905D01*
X16434345Y-15126143D02*
X16434345Y-15259476D01*
X16434345Y-15145190D02*
X16443869Y-15135667D01*
X16443869Y-15135667D02*
X16462917Y-15126143D01*
X16462917Y-15126143D02*
X16491488Y-15126143D01*
X16491488Y-15126143D02*
X16510536Y-15135667D01*
X16510536Y-15135667D02*
X16520060Y-15154714D01*
X16520060Y-15154714D02*
X16520060Y-15259476D01*
X16643869Y-15259476D02*
X16624822Y-15249952D01*
X16624822Y-15249952D02*
X16615298Y-15240428D01*
X16615298Y-15240428D02*
X16605774Y-15221381D01*
X16605774Y-15221381D02*
X16605774Y-15164238D01*
X16605774Y-15164238D02*
X16615298Y-15145190D01*
X16615298Y-15145190D02*
X16624822Y-15135667D01*
X16624822Y-15135667D02*
X16643869Y-15126143D01*
X16643869Y-15126143D02*
X16672441Y-15126143D01*
X16672441Y-15126143D02*
X16691488Y-15135667D01*
X16691488Y-15135667D02*
X16701012Y-15145190D01*
X16701012Y-15145190D02*
X16710536Y-15164238D01*
X16710536Y-15164238D02*
X16710536Y-15221381D01*
X16710536Y-15221381D02*
X16701012Y-15240428D01*
X16701012Y-15240428D02*
X16691488Y-15249952D01*
X16691488Y-15249952D02*
X16672441Y-15259476D01*
X16672441Y-15259476D02*
X16643869Y-15259476D01*
X16767679Y-15126143D02*
X16843869Y-15126143D01*
X16796250Y-15059476D02*
X16796250Y-15230905D01*
X16796250Y-15230905D02*
X16805774Y-15249952D01*
X16805774Y-15249952D02*
X16824822Y-15259476D01*
X16824822Y-15259476D02*
X16843869Y-15259476D01*
X17030536Y-15126143D02*
X17030536Y-15326143D01*
X17030536Y-15135667D02*
X17049584Y-15126143D01*
X17049584Y-15126143D02*
X17087679Y-15126143D01*
X17087679Y-15126143D02*
X17106726Y-15135667D01*
X17106726Y-15135667D02*
X17116250Y-15145190D01*
X17116250Y-15145190D02*
X17125774Y-15164238D01*
X17125774Y-15164238D02*
X17125774Y-15221381D01*
X17125774Y-15221381D02*
X17116250Y-15240428D01*
X17116250Y-15240428D02*
X17106726Y-15249952D01*
X17106726Y-15249952D02*
X17087679Y-15259476D01*
X17087679Y-15259476D02*
X17049584Y-15259476D01*
X17049584Y-15259476D02*
X17030536Y-15249952D01*
X17240060Y-15259476D02*
X17221012Y-15249952D01*
X17221012Y-15249952D02*
X17211488Y-15230905D01*
X17211488Y-15230905D02*
X17211488Y-15059476D01*
X17401965Y-15259476D02*
X17401965Y-15154714D01*
X17401965Y-15154714D02*
X17392441Y-15135667D01*
X17392441Y-15135667D02*
X17373393Y-15126143D01*
X17373393Y-15126143D02*
X17335298Y-15126143D01*
X17335298Y-15126143D02*
X17316250Y-15135667D01*
X17401965Y-15249952D02*
X17382917Y-15259476D01*
X17382917Y-15259476D02*
X17335298Y-15259476D01*
X17335298Y-15259476D02*
X17316250Y-15249952D01*
X17316250Y-15249952D02*
X17306726Y-15230905D01*
X17306726Y-15230905D02*
X17306726Y-15211857D01*
X17306726Y-15211857D02*
X17316250Y-15192809D01*
X17316250Y-15192809D02*
X17335298Y-15183286D01*
X17335298Y-15183286D02*
X17382917Y-15183286D01*
X17382917Y-15183286D02*
X17401965Y-15173762D01*
X17468631Y-15126143D02*
X17544822Y-15126143D01*
X17497203Y-15059476D02*
X17497203Y-15230905D01*
X17497203Y-15230905D02*
X17506726Y-15249952D01*
X17506726Y-15249952D02*
X17525774Y-15259476D01*
X17525774Y-15259476D02*
X17544822Y-15259476D01*
X17687679Y-15249952D02*
X17668631Y-15259476D01*
X17668631Y-15259476D02*
X17630536Y-15259476D01*
X17630536Y-15259476D02*
X17611488Y-15249952D01*
X17611488Y-15249952D02*
X17601965Y-15230905D01*
X17601965Y-15230905D02*
X17601965Y-15154714D01*
X17601965Y-15154714D02*
X17611488Y-15135667D01*
X17611488Y-15135667D02*
X17630536Y-15126143D01*
X17630536Y-15126143D02*
X17668631Y-15126143D01*
X17668631Y-15126143D02*
X17687679Y-15135667D01*
X17687679Y-15135667D02*
X17697203Y-15154714D01*
X17697203Y-15154714D02*
X17697203Y-15173762D01*
X17697203Y-15173762D02*
X17601965Y-15192809D01*
X17868631Y-15259476D02*
X17868631Y-15059476D01*
X17868631Y-15249952D02*
X17849584Y-15259476D01*
X17849584Y-15259476D02*
X17811488Y-15259476D01*
X17811488Y-15259476D02*
X17792441Y-15249952D01*
X17792441Y-15249952D02*
X17782917Y-15240428D01*
X17782917Y-15240428D02*
X17773393Y-15221381D01*
X17773393Y-15221381D02*
X17773393Y-15164238D01*
X17773393Y-15164238D02*
X17782917Y-15145190D01*
X17782917Y-15145190D02*
X17792441Y-15135667D01*
X17792441Y-15135667D02*
X17811488Y-15126143D01*
X17811488Y-15126143D02*
X17849584Y-15126143D01*
X17849584Y-15126143D02*
X17868631Y-15135667D01*
X17944822Y-15335667D02*
X17954346Y-15326143D01*
X17954346Y-15326143D02*
X17973393Y-15297571D01*
X17973393Y-15297571D02*
X17982917Y-15278524D01*
X17982917Y-15278524D02*
X17992441Y-15249952D01*
X17992441Y-15249952D02*
X18001965Y-15202333D01*
X18001965Y-15202333D02*
X18001965Y-15164238D01*
X18001965Y-15164238D02*
X17992441Y-15116619D01*
X17992441Y-15116619D02*
X17982917Y-15088048D01*
X17982917Y-15088048D02*
X17973393Y-15069000D01*
X17973393Y-15069000D02*
X17954346Y-15040428D01*
X17954346Y-15040428D02*
X17944822Y-15030905D01*
X11396250Y-15450000D02*
G75*
G03*
X11396250Y-15450000I-100000J0D01*
G01*
X11634345Y-15342524D02*
X11643869Y-15333000D01*
X11643869Y-15333000D02*
X11662917Y-15323476D01*
X11662917Y-15323476D02*
X11710536Y-15323476D01*
X11710536Y-15323476D02*
X11729583Y-15333000D01*
X11729583Y-15333000D02*
X11739107Y-15342524D01*
X11739107Y-15342524D02*
X11748631Y-15361571D01*
X11748631Y-15361571D02*
X11748631Y-15380619D01*
X11748631Y-15380619D02*
X11739107Y-15409190D01*
X11739107Y-15409190D02*
X11624821Y-15523476D01*
X11624821Y-15523476D02*
X11748631Y-15523476D01*
X11834345Y-15504428D02*
X11843869Y-15513952D01*
X11843869Y-15513952D02*
X11834345Y-15523476D01*
X11834345Y-15523476D02*
X11824821Y-15513952D01*
X11824821Y-15513952D02*
X11834345Y-15504428D01*
X11834345Y-15504428D02*
X11834345Y-15523476D01*
X12034345Y-15523476D02*
X11920059Y-15523476D01*
X11977202Y-15523476D02*
X11977202Y-15323476D01*
X11977202Y-15323476D02*
X11958155Y-15352048D01*
X11958155Y-15352048D02*
X11939107Y-15371095D01*
X11939107Y-15371095D02*
X11920059Y-15380619D01*
X12158155Y-15323476D02*
X12177202Y-15323476D01*
X12177202Y-15323476D02*
X12196250Y-15333000D01*
X12196250Y-15333000D02*
X12205774Y-15342524D01*
X12205774Y-15342524D02*
X12215298Y-15361571D01*
X12215298Y-15361571D02*
X12224821Y-15399667D01*
X12224821Y-15399667D02*
X12224821Y-15447286D01*
X12224821Y-15447286D02*
X12215298Y-15485381D01*
X12215298Y-15485381D02*
X12205774Y-15504428D01*
X12205774Y-15504428D02*
X12196250Y-15513952D01*
X12196250Y-15513952D02*
X12177202Y-15523476D01*
X12177202Y-15523476D02*
X12158155Y-15523476D01*
X12158155Y-15523476D02*
X12139107Y-15513952D01*
X12139107Y-15513952D02*
X12129583Y-15504428D01*
X12129583Y-15504428D02*
X12120059Y-15485381D01*
X12120059Y-15485381D02*
X12110536Y-15447286D01*
X12110536Y-15447286D02*
X12110536Y-15399667D01*
X12110536Y-15399667D02*
X12120059Y-15361571D01*
X12120059Y-15361571D02*
X12129583Y-15342524D01*
X12129583Y-15342524D02*
X12139107Y-15333000D01*
X12139107Y-15333000D02*
X12158155Y-15323476D01*
X12348631Y-15323476D02*
X12367679Y-15323476D01*
X12367679Y-15323476D02*
X12386726Y-15333000D01*
X12386726Y-15333000D02*
X12396250Y-15342524D01*
X12396250Y-15342524D02*
X12405774Y-15361571D01*
X12405774Y-15361571D02*
X12415298Y-15399667D01*
X12415298Y-15399667D02*
X12415298Y-15447286D01*
X12415298Y-15447286D02*
X12405774Y-15485381D01*
X12405774Y-15485381D02*
X12396250Y-15504428D01*
X12396250Y-15504428D02*
X12386726Y-15513952D01*
X12386726Y-15513952D02*
X12367679Y-15523476D01*
X12367679Y-15523476D02*
X12348631Y-15523476D01*
X12348631Y-15523476D02*
X12329583Y-15513952D01*
X12329583Y-15513952D02*
X12320059Y-15504428D01*
X12320059Y-15504428D02*
X12310536Y-15485381D01*
X12310536Y-15485381D02*
X12301012Y-15447286D01*
X12301012Y-15447286D02*
X12301012Y-15399667D01*
X12301012Y-15399667D02*
X12310536Y-15361571D01*
X12310536Y-15361571D02*
X12320059Y-15342524D01*
X12320059Y-15342524D02*
X12329583Y-15333000D01*
X12329583Y-15333000D02*
X12348631Y-15323476D01*
X12501012Y-15523476D02*
X12501012Y-15390143D01*
X12501012Y-15409190D02*
X12510536Y-15399667D01*
X12510536Y-15399667D02*
X12529583Y-15390143D01*
X12529583Y-15390143D02*
X12558155Y-15390143D01*
X12558155Y-15390143D02*
X12577202Y-15399667D01*
X12577202Y-15399667D02*
X12586726Y-15418714D01*
X12586726Y-15418714D02*
X12586726Y-15523476D01*
X12586726Y-15418714D02*
X12596250Y-15399667D01*
X12596250Y-15399667D02*
X12615298Y-15390143D01*
X12615298Y-15390143D02*
X12643869Y-15390143D01*
X12643869Y-15390143D02*
X12662917Y-15399667D01*
X12662917Y-15399667D02*
X12672440Y-15418714D01*
X12672440Y-15418714D02*
X12672440Y-15523476D01*
X12767679Y-15523476D02*
X12767679Y-15390143D01*
X12767679Y-15409190D02*
X12777202Y-15399667D01*
X12777202Y-15399667D02*
X12796250Y-15390143D01*
X12796250Y-15390143D02*
X12824821Y-15390143D01*
X12824821Y-15390143D02*
X12843869Y-15399667D01*
X12843869Y-15399667D02*
X12853393Y-15418714D01*
X12853393Y-15418714D02*
X12853393Y-15523476D01*
X12853393Y-15418714D02*
X12862917Y-15399667D01*
X12862917Y-15399667D02*
X12881964Y-15390143D01*
X12881964Y-15390143D02*
X12910536Y-15390143D01*
X12910536Y-15390143D02*
X12929583Y-15399667D01*
X12929583Y-15399667D02*
X12939107Y-15418714D01*
X12939107Y-15418714D02*
X12939107Y-15523476D01*
X13297202Y-15313952D02*
X13125774Y-15571095D01*
X13521964Y-15323476D02*
X13541012Y-15323476D01*
X13541012Y-15323476D02*
X13560060Y-15333000D01*
X13560060Y-15333000D02*
X13569583Y-15342524D01*
X13569583Y-15342524D02*
X13579107Y-15361571D01*
X13579107Y-15361571D02*
X13588631Y-15399667D01*
X13588631Y-15399667D02*
X13588631Y-15447286D01*
X13588631Y-15447286D02*
X13579107Y-15485381D01*
X13579107Y-15485381D02*
X13569583Y-15504428D01*
X13569583Y-15504428D02*
X13560060Y-15513952D01*
X13560060Y-15513952D02*
X13541012Y-15523476D01*
X13541012Y-15523476D02*
X13521964Y-15523476D01*
X13521964Y-15523476D02*
X13502917Y-15513952D01*
X13502917Y-15513952D02*
X13493393Y-15504428D01*
X13493393Y-15504428D02*
X13483869Y-15485381D01*
X13483869Y-15485381D02*
X13474345Y-15447286D01*
X13474345Y-15447286D02*
X13474345Y-15399667D01*
X13474345Y-15399667D02*
X13483869Y-15361571D01*
X13483869Y-15361571D02*
X13493393Y-15342524D01*
X13493393Y-15342524D02*
X13502917Y-15333000D01*
X13502917Y-15333000D02*
X13521964Y-15323476D01*
X13674345Y-15504428D02*
X13683869Y-15513952D01*
X13683869Y-15513952D02*
X13674345Y-15523476D01*
X13674345Y-15523476D02*
X13664821Y-15513952D01*
X13664821Y-15513952D02*
X13674345Y-15504428D01*
X13674345Y-15504428D02*
X13674345Y-15523476D01*
X13807679Y-15323476D02*
X13826726Y-15323476D01*
X13826726Y-15323476D02*
X13845774Y-15333000D01*
X13845774Y-15333000D02*
X13855298Y-15342524D01*
X13855298Y-15342524D02*
X13864821Y-15361571D01*
X13864821Y-15361571D02*
X13874345Y-15399667D01*
X13874345Y-15399667D02*
X13874345Y-15447286D01*
X13874345Y-15447286D02*
X13864821Y-15485381D01*
X13864821Y-15485381D02*
X13855298Y-15504428D01*
X13855298Y-15504428D02*
X13845774Y-15513952D01*
X13845774Y-15513952D02*
X13826726Y-15523476D01*
X13826726Y-15523476D02*
X13807679Y-15523476D01*
X13807679Y-15523476D02*
X13788631Y-15513952D01*
X13788631Y-15513952D02*
X13779107Y-15504428D01*
X13779107Y-15504428D02*
X13769583Y-15485381D01*
X13769583Y-15485381D02*
X13760060Y-15447286D01*
X13760060Y-15447286D02*
X13760060Y-15399667D01*
X13760060Y-15399667D02*
X13769583Y-15361571D01*
X13769583Y-15361571D02*
X13779107Y-15342524D01*
X13779107Y-15342524D02*
X13788631Y-15333000D01*
X13788631Y-15333000D02*
X13807679Y-15323476D01*
X13988631Y-15409190D02*
X13969583Y-15399667D01*
X13969583Y-15399667D02*
X13960060Y-15390143D01*
X13960060Y-15390143D02*
X13950536Y-15371095D01*
X13950536Y-15371095D02*
X13950536Y-15361571D01*
X13950536Y-15361571D02*
X13960060Y-15342524D01*
X13960060Y-15342524D02*
X13969583Y-15333000D01*
X13969583Y-15333000D02*
X13988631Y-15323476D01*
X13988631Y-15323476D02*
X14026726Y-15323476D01*
X14026726Y-15323476D02*
X14045774Y-15333000D01*
X14045774Y-15333000D02*
X14055298Y-15342524D01*
X14055298Y-15342524D02*
X14064821Y-15361571D01*
X14064821Y-15361571D02*
X14064821Y-15371095D01*
X14064821Y-15371095D02*
X14055298Y-15390143D01*
X14055298Y-15390143D02*
X14045774Y-15399667D01*
X14045774Y-15399667D02*
X14026726Y-15409190D01*
X14026726Y-15409190D02*
X13988631Y-15409190D01*
X13988631Y-15409190D02*
X13969583Y-15418714D01*
X13969583Y-15418714D02*
X13960060Y-15428238D01*
X13960060Y-15428238D02*
X13950536Y-15447286D01*
X13950536Y-15447286D02*
X13950536Y-15485381D01*
X13950536Y-15485381D02*
X13960060Y-15504428D01*
X13960060Y-15504428D02*
X13969583Y-15513952D01*
X13969583Y-15513952D02*
X13988631Y-15523476D01*
X13988631Y-15523476D02*
X14026726Y-15523476D01*
X14026726Y-15523476D02*
X14045774Y-15513952D01*
X14045774Y-15513952D02*
X14055298Y-15504428D01*
X14055298Y-15504428D02*
X14064821Y-15485381D01*
X14064821Y-15485381D02*
X14064821Y-15447286D01*
X14064821Y-15447286D02*
X14055298Y-15428238D01*
X14055298Y-15428238D02*
X14045774Y-15418714D01*
X14045774Y-15418714D02*
X14026726Y-15409190D01*
X14141012Y-15342524D02*
X14150536Y-15333000D01*
X14150536Y-15333000D02*
X14169583Y-15323476D01*
X14169583Y-15323476D02*
X14217202Y-15323476D01*
X14217202Y-15323476D02*
X14236250Y-15333000D01*
X14236250Y-15333000D02*
X14245774Y-15342524D01*
X14245774Y-15342524D02*
X14255298Y-15361571D01*
X14255298Y-15361571D02*
X14255298Y-15380619D01*
X14255298Y-15380619D02*
X14245774Y-15409190D01*
X14245774Y-15409190D02*
X14131488Y-15523476D01*
X14131488Y-15523476D02*
X14255298Y-15523476D01*
X14321964Y-15323476D02*
X14455298Y-15323476D01*
X14455298Y-15323476D02*
X14369583Y-15523476D01*
X14521964Y-15323476D02*
X14521964Y-15361571D01*
X14598155Y-15323476D02*
X14598155Y-15361571D01*
X14861012Y-15599667D02*
X14851488Y-15590143D01*
X14851488Y-15590143D02*
X14832441Y-15561571D01*
X14832441Y-15561571D02*
X14822917Y-15542524D01*
X14822917Y-15542524D02*
X14813393Y-15513952D01*
X14813393Y-15513952D02*
X14803869Y-15466333D01*
X14803869Y-15466333D02*
X14803869Y-15428238D01*
X14803869Y-15428238D02*
X14813393Y-15380619D01*
X14813393Y-15380619D02*
X14822917Y-15352048D01*
X14822917Y-15352048D02*
X14832441Y-15333000D01*
X14832441Y-15333000D02*
X14851488Y-15304428D01*
X14851488Y-15304428D02*
X14861012Y-15294905D01*
X14927679Y-15342524D02*
X14937202Y-15333000D01*
X14937202Y-15333000D02*
X14956250Y-15323476D01*
X14956250Y-15323476D02*
X15003869Y-15323476D01*
X15003869Y-15323476D02*
X15022917Y-15333000D01*
X15022917Y-15333000D02*
X15032441Y-15342524D01*
X15032441Y-15342524D02*
X15041964Y-15361571D01*
X15041964Y-15361571D02*
X15041964Y-15380619D01*
X15041964Y-15380619D02*
X15032441Y-15409190D01*
X15032441Y-15409190D02*
X14918155Y-15523476D01*
X14918155Y-15523476D02*
X15041964Y-15523476D01*
X15247679Y-15523476D02*
X15247679Y-15323476D01*
X15333393Y-15523476D02*
X15333393Y-15418714D01*
X15333393Y-15418714D02*
X15323869Y-15399667D01*
X15323869Y-15399667D02*
X15304822Y-15390143D01*
X15304822Y-15390143D02*
X15276250Y-15390143D01*
X15276250Y-15390143D02*
X15257202Y-15399667D01*
X15257202Y-15399667D02*
X15247679Y-15409190D01*
X15457202Y-15523476D02*
X15438155Y-15513952D01*
X15438155Y-15513952D02*
X15428631Y-15504428D01*
X15428631Y-15504428D02*
X15419107Y-15485381D01*
X15419107Y-15485381D02*
X15419107Y-15428238D01*
X15419107Y-15428238D02*
X15428631Y-15409190D01*
X15428631Y-15409190D02*
X15438155Y-15399667D01*
X15438155Y-15399667D02*
X15457202Y-15390143D01*
X15457202Y-15390143D02*
X15485774Y-15390143D01*
X15485774Y-15390143D02*
X15504822Y-15399667D01*
X15504822Y-15399667D02*
X15514345Y-15409190D01*
X15514345Y-15409190D02*
X15523869Y-15428238D01*
X15523869Y-15428238D02*
X15523869Y-15485381D01*
X15523869Y-15485381D02*
X15514345Y-15504428D01*
X15514345Y-15504428D02*
X15504822Y-15513952D01*
X15504822Y-15513952D02*
X15485774Y-15523476D01*
X15485774Y-15523476D02*
X15457202Y-15523476D01*
X15638155Y-15523476D02*
X15619107Y-15513952D01*
X15619107Y-15513952D02*
X15609583Y-15494905D01*
X15609583Y-15494905D02*
X15609583Y-15323476D01*
X15790536Y-15513952D02*
X15771488Y-15523476D01*
X15771488Y-15523476D02*
X15733393Y-15523476D01*
X15733393Y-15523476D02*
X15714345Y-15513952D01*
X15714345Y-15513952D02*
X15704822Y-15494905D01*
X15704822Y-15494905D02*
X15704822Y-15418714D01*
X15704822Y-15418714D02*
X15714345Y-15399667D01*
X15714345Y-15399667D02*
X15733393Y-15390143D01*
X15733393Y-15390143D02*
X15771488Y-15390143D01*
X15771488Y-15390143D02*
X15790536Y-15399667D01*
X15790536Y-15399667D02*
X15800060Y-15418714D01*
X15800060Y-15418714D02*
X15800060Y-15437762D01*
X15800060Y-15437762D02*
X15704822Y-15456809D01*
X15876250Y-15513952D02*
X15895298Y-15523476D01*
X15895298Y-15523476D02*
X15933393Y-15523476D01*
X15933393Y-15523476D02*
X15952441Y-15513952D01*
X15952441Y-15513952D02*
X15961964Y-15494905D01*
X15961964Y-15494905D02*
X15961964Y-15485381D01*
X15961964Y-15485381D02*
X15952441Y-15466333D01*
X15952441Y-15466333D02*
X15933393Y-15456809D01*
X15933393Y-15456809D02*
X15904822Y-15456809D01*
X15904822Y-15456809D02*
X15885774Y-15447286D01*
X15885774Y-15447286D02*
X15876250Y-15428238D01*
X15876250Y-15428238D02*
X15876250Y-15418714D01*
X15876250Y-15418714D02*
X15885774Y-15399667D01*
X15885774Y-15399667D02*
X15904822Y-15390143D01*
X15904822Y-15390143D02*
X15933393Y-15390143D01*
X15933393Y-15390143D02*
X15952441Y-15399667D01*
X16028631Y-15599667D02*
X16038155Y-15590143D01*
X16038155Y-15590143D02*
X16057203Y-15561571D01*
X16057203Y-15561571D02*
X16066726Y-15542524D01*
X16066726Y-15542524D02*
X16076250Y-15513952D01*
X16076250Y-15513952D02*
X16085774Y-15466333D01*
X16085774Y-15466333D02*
X16085774Y-15428238D01*
X16085774Y-15428238D02*
X16076250Y-15380619D01*
X16076250Y-15380619D02*
X16066726Y-15352048D01*
X16066726Y-15352048D02*
X16057203Y-15333000D01*
X16057203Y-15333000D02*
X16038155Y-15304428D01*
X16038155Y-15304428D02*
X16028631Y-15294905D01*
X16358155Y-15599667D02*
X16348631Y-15590143D01*
X16348631Y-15590143D02*
X16329583Y-15561571D01*
X16329583Y-15561571D02*
X16320060Y-15542524D01*
X16320060Y-15542524D02*
X16310536Y-15513952D01*
X16310536Y-15513952D02*
X16301012Y-15466333D01*
X16301012Y-15466333D02*
X16301012Y-15428238D01*
X16301012Y-15428238D02*
X16310536Y-15380619D01*
X16310536Y-15380619D02*
X16320060Y-15352048D01*
X16320060Y-15352048D02*
X16329583Y-15333000D01*
X16329583Y-15333000D02*
X16348631Y-15304428D01*
X16348631Y-15304428D02*
X16358155Y-15294905D01*
X16434345Y-15390143D02*
X16434345Y-15523476D01*
X16434345Y-15409190D02*
X16443869Y-15399667D01*
X16443869Y-15399667D02*
X16462917Y-15390143D01*
X16462917Y-15390143D02*
X16491488Y-15390143D01*
X16491488Y-15390143D02*
X16510536Y-15399667D01*
X16510536Y-15399667D02*
X16520060Y-15418714D01*
X16520060Y-15418714D02*
X16520060Y-15523476D01*
X16643869Y-15523476D02*
X16624822Y-15513952D01*
X16624822Y-15513952D02*
X16615298Y-15504428D01*
X16615298Y-15504428D02*
X16605774Y-15485381D01*
X16605774Y-15485381D02*
X16605774Y-15428238D01*
X16605774Y-15428238D02*
X16615298Y-15409190D01*
X16615298Y-15409190D02*
X16624822Y-15399667D01*
X16624822Y-15399667D02*
X16643869Y-15390143D01*
X16643869Y-15390143D02*
X16672441Y-15390143D01*
X16672441Y-15390143D02*
X16691488Y-15399667D01*
X16691488Y-15399667D02*
X16701012Y-15409190D01*
X16701012Y-15409190D02*
X16710536Y-15428238D01*
X16710536Y-15428238D02*
X16710536Y-15485381D01*
X16710536Y-15485381D02*
X16701012Y-15504428D01*
X16701012Y-15504428D02*
X16691488Y-15513952D01*
X16691488Y-15513952D02*
X16672441Y-15523476D01*
X16672441Y-15523476D02*
X16643869Y-15523476D01*
X16767679Y-15390143D02*
X16843869Y-15390143D01*
X16796250Y-15323476D02*
X16796250Y-15494905D01*
X16796250Y-15494905D02*
X16805774Y-15513952D01*
X16805774Y-15513952D02*
X16824822Y-15523476D01*
X16824822Y-15523476D02*
X16843869Y-15523476D01*
X17030536Y-15390143D02*
X17030536Y-15590143D01*
X17030536Y-15399667D02*
X17049584Y-15390143D01*
X17049584Y-15390143D02*
X17087679Y-15390143D01*
X17087679Y-15390143D02*
X17106726Y-15399667D01*
X17106726Y-15399667D02*
X17116250Y-15409190D01*
X17116250Y-15409190D02*
X17125774Y-15428238D01*
X17125774Y-15428238D02*
X17125774Y-15485381D01*
X17125774Y-15485381D02*
X17116250Y-15504428D01*
X17116250Y-15504428D02*
X17106726Y-15513952D01*
X17106726Y-15513952D02*
X17087679Y-15523476D01*
X17087679Y-15523476D02*
X17049584Y-15523476D01*
X17049584Y-15523476D02*
X17030536Y-15513952D01*
X17240060Y-15523476D02*
X17221012Y-15513952D01*
X17221012Y-15513952D02*
X17211488Y-15494905D01*
X17211488Y-15494905D02*
X17211488Y-15323476D01*
X17401965Y-15523476D02*
X17401965Y-15418714D01*
X17401965Y-15418714D02*
X17392441Y-15399667D01*
X17392441Y-15399667D02*
X17373393Y-15390143D01*
X17373393Y-15390143D02*
X17335298Y-15390143D01*
X17335298Y-15390143D02*
X17316250Y-15399667D01*
X17401965Y-15513952D02*
X17382917Y-15523476D01*
X17382917Y-15523476D02*
X17335298Y-15523476D01*
X17335298Y-15523476D02*
X17316250Y-15513952D01*
X17316250Y-15513952D02*
X17306726Y-15494905D01*
X17306726Y-15494905D02*
X17306726Y-15475857D01*
X17306726Y-15475857D02*
X17316250Y-15456809D01*
X17316250Y-15456809D02*
X17335298Y-15447286D01*
X17335298Y-15447286D02*
X17382917Y-15447286D01*
X17382917Y-15447286D02*
X17401965Y-15437762D01*
X17468631Y-15390143D02*
X17544822Y-15390143D01*
X17497203Y-15323476D02*
X17497203Y-15494905D01*
X17497203Y-15494905D02*
X17506726Y-15513952D01*
X17506726Y-15513952D02*
X17525774Y-15523476D01*
X17525774Y-15523476D02*
X17544822Y-15523476D01*
X17687679Y-15513952D02*
X17668631Y-15523476D01*
X17668631Y-15523476D02*
X17630536Y-15523476D01*
X17630536Y-15523476D02*
X17611488Y-15513952D01*
X17611488Y-15513952D02*
X17601965Y-15494905D01*
X17601965Y-15494905D02*
X17601965Y-15418714D01*
X17601965Y-15418714D02*
X17611488Y-15399667D01*
X17611488Y-15399667D02*
X17630536Y-15390143D01*
X17630536Y-15390143D02*
X17668631Y-15390143D01*
X17668631Y-15390143D02*
X17687679Y-15399667D01*
X17687679Y-15399667D02*
X17697203Y-15418714D01*
X17697203Y-15418714D02*
X17697203Y-15437762D01*
X17697203Y-15437762D02*
X17601965Y-15456809D01*
X17868631Y-15523476D02*
X17868631Y-15323476D01*
X17868631Y-15513952D02*
X17849584Y-15523476D01*
X17849584Y-15523476D02*
X17811488Y-15523476D01*
X17811488Y-15523476D02*
X17792441Y-15513952D01*
X17792441Y-15513952D02*
X17782917Y-15504428D01*
X17782917Y-15504428D02*
X17773393Y-15485381D01*
X17773393Y-15485381D02*
X17773393Y-15428238D01*
X17773393Y-15428238D02*
X17782917Y-15409190D01*
X17782917Y-15409190D02*
X17792441Y-15399667D01*
X17792441Y-15399667D02*
X17811488Y-15390143D01*
X17811488Y-15390143D02*
X17849584Y-15390143D01*
X17849584Y-15390143D02*
X17868631Y-15399667D01*
X17944822Y-15599667D02*
X17954346Y-15590143D01*
X17954346Y-15590143D02*
X17973393Y-15561571D01*
X17973393Y-15561571D02*
X17982917Y-15542524D01*
X17982917Y-15542524D02*
X17992441Y-15513952D01*
X17992441Y-15513952D02*
X18001965Y-15466333D01*
X18001965Y-15466333D02*
X18001965Y-15428238D01*
X18001965Y-15428238D02*
X17992441Y-15380619D01*
X17992441Y-15380619D02*
X17982917Y-15352048D01*
X17982917Y-15352048D02*
X17973393Y-15333000D01*
X17973393Y-15333000D02*
X17954346Y-15304428D01*
X17954346Y-15304428D02*
X17944822Y-15294905D01*
X11296250Y-15670000D02*
X11296250Y-15870000D01*
X11196250Y-15770000D02*
X11396250Y-15770000D01*
X11624821Y-15643476D02*
X11748631Y-15643476D01*
X11748631Y-15643476D02*
X11681964Y-15719667D01*
X11681964Y-15719667D02*
X11710536Y-15719667D01*
X11710536Y-15719667D02*
X11729583Y-15729190D01*
X11729583Y-15729190D02*
X11739107Y-15738714D01*
X11739107Y-15738714D02*
X11748631Y-15757762D01*
X11748631Y-15757762D02*
X11748631Y-15805381D01*
X11748631Y-15805381D02*
X11739107Y-15824428D01*
X11739107Y-15824428D02*
X11729583Y-15833952D01*
X11729583Y-15833952D02*
X11710536Y-15843476D01*
X11710536Y-15843476D02*
X11653393Y-15843476D01*
X11653393Y-15843476D02*
X11634345Y-15833952D01*
X11634345Y-15833952D02*
X11624821Y-15824428D01*
X11834345Y-15824428D02*
X11843869Y-15833952D01*
X11843869Y-15833952D02*
X11834345Y-15843476D01*
X11834345Y-15843476D02*
X11824821Y-15833952D01*
X11824821Y-15833952D02*
X11834345Y-15824428D01*
X11834345Y-15824428D02*
X11834345Y-15843476D01*
X11920059Y-15662524D02*
X11929583Y-15653000D01*
X11929583Y-15653000D02*
X11948631Y-15643476D01*
X11948631Y-15643476D02*
X11996250Y-15643476D01*
X11996250Y-15643476D02*
X12015298Y-15653000D01*
X12015298Y-15653000D02*
X12024821Y-15662524D01*
X12024821Y-15662524D02*
X12034345Y-15681571D01*
X12034345Y-15681571D02*
X12034345Y-15700619D01*
X12034345Y-15700619D02*
X12024821Y-15729190D01*
X12024821Y-15729190D02*
X11910536Y-15843476D01*
X11910536Y-15843476D02*
X12034345Y-15843476D01*
X12158155Y-15643476D02*
X12177202Y-15643476D01*
X12177202Y-15643476D02*
X12196250Y-15653000D01*
X12196250Y-15653000D02*
X12205774Y-15662524D01*
X12205774Y-15662524D02*
X12215298Y-15681571D01*
X12215298Y-15681571D02*
X12224821Y-15719667D01*
X12224821Y-15719667D02*
X12224821Y-15767286D01*
X12224821Y-15767286D02*
X12215298Y-15805381D01*
X12215298Y-15805381D02*
X12205774Y-15824428D01*
X12205774Y-15824428D02*
X12196250Y-15833952D01*
X12196250Y-15833952D02*
X12177202Y-15843476D01*
X12177202Y-15843476D02*
X12158155Y-15843476D01*
X12158155Y-15843476D02*
X12139107Y-15833952D01*
X12139107Y-15833952D02*
X12129583Y-15824428D01*
X12129583Y-15824428D02*
X12120059Y-15805381D01*
X12120059Y-15805381D02*
X12110536Y-15767286D01*
X12110536Y-15767286D02*
X12110536Y-15719667D01*
X12110536Y-15719667D02*
X12120059Y-15681571D01*
X12120059Y-15681571D02*
X12129583Y-15662524D01*
X12129583Y-15662524D02*
X12139107Y-15653000D01*
X12139107Y-15653000D02*
X12158155Y-15643476D01*
X12348631Y-15643476D02*
X12367679Y-15643476D01*
X12367679Y-15643476D02*
X12386726Y-15653000D01*
X12386726Y-15653000D02*
X12396250Y-15662524D01*
X12396250Y-15662524D02*
X12405774Y-15681571D01*
X12405774Y-15681571D02*
X12415298Y-15719667D01*
X12415298Y-15719667D02*
X12415298Y-15767286D01*
X12415298Y-15767286D02*
X12405774Y-15805381D01*
X12405774Y-15805381D02*
X12396250Y-15824428D01*
X12396250Y-15824428D02*
X12386726Y-15833952D01*
X12386726Y-15833952D02*
X12367679Y-15843476D01*
X12367679Y-15843476D02*
X12348631Y-15843476D01*
X12348631Y-15843476D02*
X12329583Y-15833952D01*
X12329583Y-15833952D02*
X12320059Y-15824428D01*
X12320059Y-15824428D02*
X12310536Y-15805381D01*
X12310536Y-15805381D02*
X12301012Y-15767286D01*
X12301012Y-15767286D02*
X12301012Y-15719667D01*
X12301012Y-15719667D02*
X12310536Y-15681571D01*
X12310536Y-15681571D02*
X12320059Y-15662524D01*
X12320059Y-15662524D02*
X12329583Y-15653000D01*
X12329583Y-15653000D02*
X12348631Y-15643476D01*
X12501012Y-15843476D02*
X12501012Y-15710143D01*
X12501012Y-15729190D02*
X12510536Y-15719667D01*
X12510536Y-15719667D02*
X12529583Y-15710143D01*
X12529583Y-15710143D02*
X12558155Y-15710143D01*
X12558155Y-15710143D02*
X12577202Y-15719667D01*
X12577202Y-15719667D02*
X12586726Y-15738714D01*
X12586726Y-15738714D02*
X12586726Y-15843476D01*
X12586726Y-15738714D02*
X12596250Y-15719667D01*
X12596250Y-15719667D02*
X12615298Y-15710143D01*
X12615298Y-15710143D02*
X12643869Y-15710143D01*
X12643869Y-15710143D02*
X12662917Y-15719667D01*
X12662917Y-15719667D02*
X12672440Y-15738714D01*
X12672440Y-15738714D02*
X12672440Y-15843476D01*
X12767679Y-15843476D02*
X12767679Y-15710143D01*
X12767679Y-15729190D02*
X12777202Y-15719667D01*
X12777202Y-15719667D02*
X12796250Y-15710143D01*
X12796250Y-15710143D02*
X12824821Y-15710143D01*
X12824821Y-15710143D02*
X12843869Y-15719667D01*
X12843869Y-15719667D02*
X12853393Y-15738714D01*
X12853393Y-15738714D02*
X12853393Y-15843476D01*
X12853393Y-15738714D02*
X12862917Y-15719667D01*
X12862917Y-15719667D02*
X12881964Y-15710143D01*
X12881964Y-15710143D02*
X12910536Y-15710143D01*
X12910536Y-15710143D02*
X12929583Y-15719667D01*
X12929583Y-15719667D02*
X12939107Y-15738714D01*
X12939107Y-15738714D02*
X12939107Y-15843476D01*
X13297202Y-15633952D02*
X13125774Y-15891095D01*
X13521964Y-15643476D02*
X13541012Y-15643476D01*
X13541012Y-15643476D02*
X13560060Y-15653000D01*
X13560060Y-15653000D02*
X13569583Y-15662524D01*
X13569583Y-15662524D02*
X13579107Y-15681571D01*
X13579107Y-15681571D02*
X13588631Y-15719667D01*
X13588631Y-15719667D02*
X13588631Y-15767286D01*
X13588631Y-15767286D02*
X13579107Y-15805381D01*
X13579107Y-15805381D02*
X13569583Y-15824428D01*
X13569583Y-15824428D02*
X13560060Y-15833952D01*
X13560060Y-15833952D02*
X13541012Y-15843476D01*
X13541012Y-15843476D02*
X13521964Y-15843476D01*
X13521964Y-15843476D02*
X13502917Y-15833952D01*
X13502917Y-15833952D02*
X13493393Y-15824428D01*
X13493393Y-15824428D02*
X13483869Y-15805381D01*
X13483869Y-15805381D02*
X13474345Y-15767286D01*
X13474345Y-15767286D02*
X13474345Y-15719667D01*
X13474345Y-15719667D02*
X13483869Y-15681571D01*
X13483869Y-15681571D02*
X13493393Y-15662524D01*
X13493393Y-15662524D02*
X13502917Y-15653000D01*
X13502917Y-15653000D02*
X13521964Y-15643476D01*
X13674345Y-15824428D02*
X13683869Y-15833952D01*
X13683869Y-15833952D02*
X13674345Y-15843476D01*
X13674345Y-15843476D02*
X13664821Y-15833952D01*
X13664821Y-15833952D02*
X13674345Y-15824428D01*
X13674345Y-15824428D02*
X13674345Y-15843476D01*
X13874345Y-15843476D02*
X13760060Y-15843476D01*
X13817202Y-15843476D02*
X13817202Y-15643476D01*
X13817202Y-15643476D02*
X13798155Y-15672048D01*
X13798155Y-15672048D02*
X13779107Y-15691095D01*
X13779107Y-15691095D02*
X13760060Y-15700619D01*
X13950536Y-15662524D02*
X13960060Y-15653000D01*
X13960060Y-15653000D02*
X13979107Y-15643476D01*
X13979107Y-15643476D02*
X14026726Y-15643476D01*
X14026726Y-15643476D02*
X14045774Y-15653000D01*
X14045774Y-15653000D02*
X14055298Y-15662524D01*
X14055298Y-15662524D02*
X14064821Y-15681571D01*
X14064821Y-15681571D02*
X14064821Y-15700619D01*
X14064821Y-15700619D02*
X14055298Y-15729190D01*
X14055298Y-15729190D02*
X13941012Y-15843476D01*
X13941012Y-15843476D02*
X14064821Y-15843476D01*
X14236250Y-15643476D02*
X14198155Y-15643476D01*
X14198155Y-15643476D02*
X14179107Y-15653000D01*
X14179107Y-15653000D02*
X14169583Y-15662524D01*
X14169583Y-15662524D02*
X14150536Y-15691095D01*
X14150536Y-15691095D02*
X14141012Y-15729190D01*
X14141012Y-15729190D02*
X14141012Y-15805381D01*
X14141012Y-15805381D02*
X14150536Y-15824428D01*
X14150536Y-15824428D02*
X14160060Y-15833952D01*
X14160060Y-15833952D02*
X14179107Y-15843476D01*
X14179107Y-15843476D02*
X14217202Y-15843476D01*
X14217202Y-15843476D02*
X14236250Y-15833952D01*
X14236250Y-15833952D02*
X14245774Y-15824428D01*
X14245774Y-15824428D02*
X14255298Y-15805381D01*
X14255298Y-15805381D02*
X14255298Y-15757762D01*
X14255298Y-15757762D02*
X14245774Y-15738714D01*
X14245774Y-15738714D02*
X14236250Y-15729190D01*
X14236250Y-15729190D02*
X14217202Y-15719667D01*
X14217202Y-15719667D02*
X14179107Y-15719667D01*
X14179107Y-15719667D02*
X14160060Y-15729190D01*
X14160060Y-15729190D02*
X14150536Y-15738714D01*
X14150536Y-15738714D02*
X14141012Y-15757762D01*
X14379107Y-15643476D02*
X14398155Y-15643476D01*
X14398155Y-15643476D02*
X14417202Y-15653000D01*
X14417202Y-15653000D02*
X14426726Y-15662524D01*
X14426726Y-15662524D02*
X14436250Y-15681571D01*
X14436250Y-15681571D02*
X14445774Y-15719667D01*
X14445774Y-15719667D02*
X14445774Y-15767286D01*
X14445774Y-15767286D02*
X14436250Y-15805381D01*
X14436250Y-15805381D02*
X14426726Y-15824428D01*
X14426726Y-15824428D02*
X14417202Y-15833952D01*
X14417202Y-15833952D02*
X14398155Y-15843476D01*
X14398155Y-15843476D02*
X14379107Y-15843476D01*
X14379107Y-15843476D02*
X14360060Y-15833952D01*
X14360060Y-15833952D02*
X14350536Y-15824428D01*
X14350536Y-15824428D02*
X14341012Y-15805381D01*
X14341012Y-15805381D02*
X14331488Y-15767286D01*
X14331488Y-15767286D02*
X14331488Y-15719667D01*
X14331488Y-15719667D02*
X14341012Y-15681571D01*
X14341012Y-15681571D02*
X14350536Y-15662524D01*
X14350536Y-15662524D02*
X14360060Y-15653000D01*
X14360060Y-15653000D02*
X14379107Y-15643476D01*
X14521964Y-15643476D02*
X14521964Y-15681571D01*
X14598155Y-15643476D02*
X14598155Y-15681571D01*
X14861012Y-15919667D02*
X14851488Y-15910143D01*
X14851488Y-15910143D02*
X14832441Y-15881571D01*
X14832441Y-15881571D02*
X14822917Y-15862524D01*
X14822917Y-15862524D02*
X14813393Y-15833952D01*
X14813393Y-15833952D02*
X14803869Y-15786333D01*
X14803869Y-15786333D02*
X14803869Y-15748238D01*
X14803869Y-15748238D02*
X14813393Y-15700619D01*
X14813393Y-15700619D02*
X14822917Y-15672048D01*
X14822917Y-15672048D02*
X14832441Y-15653000D01*
X14832441Y-15653000D02*
X14851488Y-15624428D01*
X14851488Y-15624428D02*
X14861012Y-15614905D01*
X15022917Y-15710143D02*
X15022917Y-15843476D01*
X14975298Y-15633952D02*
X14927679Y-15776809D01*
X14927679Y-15776809D02*
X15051488Y-15776809D01*
X15247679Y-15843476D02*
X15247679Y-15643476D01*
X15333393Y-15843476D02*
X15333393Y-15738714D01*
X15333393Y-15738714D02*
X15323869Y-15719667D01*
X15323869Y-15719667D02*
X15304822Y-15710143D01*
X15304822Y-15710143D02*
X15276250Y-15710143D01*
X15276250Y-15710143D02*
X15257202Y-15719667D01*
X15257202Y-15719667D02*
X15247679Y-15729190D01*
X15457202Y-15843476D02*
X15438155Y-15833952D01*
X15438155Y-15833952D02*
X15428631Y-15824428D01*
X15428631Y-15824428D02*
X15419107Y-15805381D01*
X15419107Y-15805381D02*
X15419107Y-15748238D01*
X15419107Y-15748238D02*
X15428631Y-15729190D01*
X15428631Y-15729190D02*
X15438155Y-15719667D01*
X15438155Y-15719667D02*
X15457202Y-15710143D01*
X15457202Y-15710143D02*
X15485774Y-15710143D01*
X15485774Y-15710143D02*
X15504822Y-15719667D01*
X15504822Y-15719667D02*
X15514345Y-15729190D01*
X15514345Y-15729190D02*
X15523869Y-15748238D01*
X15523869Y-15748238D02*
X15523869Y-15805381D01*
X15523869Y-15805381D02*
X15514345Y-15824428D01*
X15514345Y-15824428D02*
X15504822Y-15833952D01*
X15504822Y-15833952D02*
X15485774Y-15843476D01*
X15485774Y-15843476D02*
X15457202Y-15843476D01*
X15638155Y-15843476D02*
X15619107Y-15833952D01*
X15619107Y-15833952D02*
X15609583Y-15814905D01*
X15609583Y-15814905D02*
X15609583Y-15643476D01*
X15790536Y-15833952D02*
X15771488Y-15843476D01*
X15771488Y-15843476D02*
X15733393Y-15843476D01*
X15733393Y-15843476D02*
X15714345Y-15833952D01*
X15714345Y-15833952D02*
X15704822Y-15814905D01*
X15704822Y-15814905D02*
X15704822Y-15738714D01*
X15704822Y-15738714D02*
X15714345Y-15719667D01*
X15714345Y-15719667D02*
X15733393Y-15710143D01*
X15733393Y-15710143D02*
X15771488Y-15710143D01*
X15771488Y-15710143D02*
X15790536Y-15719667D01*
X15790536Y-15719667D02*
X15800060Y-15738714D01*
X15800060Y-15738714D02*
X15800060Y-15757762D01*
X15800060Y-15757762D02*
X15704822Y-15776809D01*
X15876250Y-15833952D02*
X15895298Y-15843476D01*
X15895298Y-15843476D02*
X15933393Y-15843476D01*
X15933393Y-15843476D02*
X15952441Y-15833952D01*
X15952441Y-15833952D02*
X15961964Y-15814905D01*
X15961964Y-15814905D02*
X15961964Y-15805381D01*
X15961964Y-15805381D02*
X15952441Y-15786333D01*
X15952441Y-15786333D02*
X15933393Y-15776809D01*
X15933393Y-15776809D02*
X15904822Y-15776809D01*
X15904822Y-15776809D02*
X15885774Y-15767286D01*
X15885774Y-15767286D02*
X15876250Y-15748238D01*
X15876250Y-15748238D02*
X15876250Y-15738714D01*
X15876250Y-15738714D02*
X15885774Y-15719667D01*
X15885774Y-15719667D02*
X15904822Y-15710143D01*
X15904822Y-15710143D02*
X15933393Y-15710143D01*
X15933393Y-15710143D02*
X15952441Y-15719667D01*
X16028631Y-15919667D02*
X16038155Y-15910143D01*
X16038155Y-15910143D02*
X16057203Y-15881571D01*
X16057203Y-15881571D02*
X16066726Y-15862524D01*
X16066726Y-15862524D02*
X16076250Y-15833952D01*
X16076250Y-15833952D02*
X16085774Y-15786333D01*
X16085774Y-15786333D02*
X16085774Y-15748238D01*
X16085774Y-15748238D02*
X16076250Y-15700619D01*
X16076250Y-15700619D02*
X16066726Y-15672048D01*
X16066726Y-15672048D02*
X16057203Y-15653000D01*
X16057203Y-15653000D02*
X16038155Y-15624428D01*
X16038155Y-15624428D02*
X16028631Y-15614905D01*
X16358155Y-15919667D02*
X16348631Y-15910143D01*
X16348631Y-15910143D02*
X16329583Y-15881571D01*
X16329583Y-15881571D02*
X16320060Y-15862524D01*
X16320060Y-15862524D02*
X16310536Y-15833952D01*
X16310536Y-15833952D02*
X16301012Y-15786333D01*
X16301012Y-15786333D02*
X16301012Y-15748238D01*
X16301012Y-15748238D02*
X16310536Y-15700619D01*
X16310536Y-15700619D02*
X16320060Y-15672048D01*
X16320060Y-15672048D02*
X16329583Y-15653000D01*
X16329583Y-15653000D02*
X16348631Y-15624428D01*
X16348631Y-15624428D02*
X16358155Y-15614905D01*
X16434345Y-15710143D02*
X16434345Y-15843476D01*
X16434345Y-15729190D02*
X16443869Y-15719667D01*
X16443869Y-15719667D02*
X16462917Y-15710143D01*
X16462917Y-15710143D02*
X16491488Y-15710143D01*
X16491488Y-15710143D02*
X16510536Y-15719667D01*
X16510536Y-15719667D02*
X16520060Y-15738714D01*
X16520060Y-15738714D02*
X16520060Y-15843476D01*
X16643869Y-15843476D02*
X16624822Y-15833952D01*
X16624822Y-15833952D02*
X16615298Y-15824428D01*
X16615298Y-15824428D02*
X16605774Y-15805381D01*
X16605774Y-15805381D02*
X16605774Y-15748238D01*
X16605774Y-15748238D02*
X16615298Y-15729190D01*
X16615298Y-15729190D02*
X16624822Y-15719667D01*
X16624822Y-15719667D02*
X16643869Y-15710143D01*
X16643869Y-15710143D02*
X16672441Y-15710143D01*
X16672441Y-15710143D02*
X16691488Y-15719667D01*
X16691488Y-15719667D02*
X16701012Y-15729190D01*
X16701012Y-15729190D02*
X16710536Y-15748238D01*
X16710536Y-15748238D02*
X16710536Y-15805381D01*
X16710536Y-15805381D02*
X16701012Y-15824428D01*
X16701012Y-15824428D02*
X16691488Y-15833952D01*
X16691488Y-15833952D02*
X16672441Y-15843476D01*
X16672441Y-15843476D02*
X16643869Y-15843476D01*
X16767679Y-15710143D02*
X16843869Y-15710143D01*
X16796250Y-15643476D02*
X16796250Y-15814905D01*
X16796250Y-15814905D02*
X16805774Y-15833952D01*
X16805774Y-15833952D02*
X16824822Y-15843476D01*
X16824822Y-15843476D02*
X16843869Y-15843476D01*
X17030536Y-15710143D02*
X17030536Y-15910143D01*
X17030536Y-15719667D02*
X17049584Y-15710143D01*
X17049584Y-15710143D02*
X17087679Y-15710143D01*
X17087679Y-15710143D02*
X17106726Y-15719667D01*
X17106726Y-15719667D02*
X17116250Y-15729190D01*
X17116250Y-15729190D02*
X17125774Y-15748238D01*
X17125774Y-15748238D02*
X17125774Y-15805381D01*
X17125774Y-15805381D02*
X17116250Y-15824428D01*
X17116250Y-15824428D02*
X17106726Y-15833952D01*
X17106726Y-15833952D02*
X17087679Y-15843476D01*
X17087679Y-15843476D02*
X17049584Y-15843476D01*
X17049584Y-15843476D02*
X17030536Y-15833952D01*
X17240060Y-15843476D02*
X17221012Y-15833952D01*
X17221012Y-15833952D02*
X17211488Y-15814905D01*
X17211488Y-15814905D02*
X17211488Y-15643476D01*
X17401965Y-15843476D02*
X17401965Y-15738714D01*
X17401965Y-15738714D02*
X17392441Y-15719667D01*
X17392441Y-15719667D02*
X17373393Y-15710143D01*
X17373393Y-15710143D02*
X17335298Y-15710143D01*
X17335298Y-15710143D02*
X17316250Y-15719667D01*
X17401965Y-15833952D02*
X17382917Y-15843476D01*
X17382917Y-15843476D02*
X17335298Y-15843476D01*
X17335298Y-15843476D02*
X17316250Y-15833952D01*
X17316250Y-15833952D02*
X17306726Y-15814905D01*
X17306726Y-15814905D02*
X17306726Y-15795857D01*
X17306726Y-15795857D02*
X17316250Y-15776809D01*
X17316250Y-15776809D02*
X17335298Y-15767286D01*
X17335298Y-15767286D02*
X17382917Y-15767286D01*
X17382917Y-15767286D02*
X17401965Y-15757762D01*
X17468631Y-15710143D02*
X17544822Y-15710143D01*
X17497203Y-15643476D02*
X17497203Y-15814905D01*
X17497203Y-15814905D02*
X17506726Y-15833952D01*
X17506726Y-15833952D02*
X17525774Y-15843476D01*
X17525774Y-15843476D02*
X17544822Y-15843476D01*
X17687679Y-15833952D02*
X17668631Y-15843476D01*
X17668631Y-15843476D02*
X17630536Y-15843476D01*
X17630536Y-15843476D02*
X17611488Y-15833952D01*
X17611488Y-15833952D02*
X17601965Y-15814905D01*
X17601965Y-15814905D02*
X17601965Y-15738714D01*
X17601965Y-15738714D02*
X17611488Y-15719667D01*
X17611488Y-15719667D02*
X17630536Y-15710143D01*
X17630536Y-15710143D02*
X17668631Y-15710143D01*
X17668631Y-15710143D02*
X17687679Y-15719667D01*
X17687679Y-15719667D02*
X17697203Y-15738714D01*
X17697203Y-15738714D02*
X17697203Y-15757762D01*
X17697203Y-15757762D02*
X17601965Y-15776809D01*
X17868631Y-15843476D02*
X17868631Y-15643476D01*
X17868631Y-15833952D02*
X17849584Y-15843476D01*
X17849584Y-15843476D02*
X17811488Y-15843476D01*
X17811488Y-15843476D02*
X17792441Y-15833952D01*
X17792441Y-15833952D02*
X17782917Y-15824428D01*
X17782917Y-15824428D02*
X17773393Y-15805381D01*
X17773393Y-15805381D02*
X17773393Y-15748238D01*
X17773393Y-15748238D02*
X17782917Y-15729190D01*
X17782917Y-15729190D02*
X17792441Y-15719667D01*
X17792441Y-15719667D02*
X17811488Y-15710143D01*
X17811488Y-15710143D02*
X17849584Y-15710143D01*
X17849584Y-15710143D02*
X17868631Y-15719667D01*
X17944822Y-15919667D02*
X17954346Y-15910143D01*
X17954346Y-15910143D02*
X17973393Y-15881571D01*
X17973393Y-15881571D02*
X17982917Y-15862524D01*
X17982917Y-15862524D02*
X17992441Y-15833952D01*
X17992441Y-15833952D02*
X18001965Y-15786333D01*
X18001965Y-15786333D02*
X18001965Y-15748238D01*
X18001965Y-15748238D02*
X17992441Y-15700619D01*
X17992441Y-15700619D02*
X17982917Y-15672048D01*
X17982917Y-15672048D02*
X17973393Y-15653000D01*
X17973393Y-15653000D02*
X17954346Y-15624428D01*
X17954346Y-15624428D02*
X17944822Y-15614905D01*
M02*
