G04 #@! TF.GenerationSoftware,KiCad,Pcbnew,(7.0.0-0)*
G04 #@! TF.CreationDate,2023-05-01T18:06:05-06:00*
G04 #@! TF.ProjectId,HactarEV6b,48616374-6172-4455-9636-622e6b696361,rev?*
G04 #@! TF.SameCoordinates,Original*
G04 #@! TF.FileFunction,Soldermask,Top*
G04 #@! TF.FilePolarity,Negative*
%FSLAX46Y46*%
G04 Gerber Fmt 4.6, Leading zero omitted, Abs format (unit mm)*
G04 Created by KiCad (PCBNEW (7.0.0-0)) date 2023-05-01 18:06:05*
%MOMM*%
%LPD*%
G01*
G04 APERTURE LIST*
G04 Aperture macros list*
%AMRoundRect*
0 Rectangle with rounded corners*
0 $1 Rounding radius*
0 $2 $3 $4 $5 $6 $7 $8 $9 X,Y pos of 4 corners*
0 Add a 4 corners polygon primitive as box body*
4,1,4,$2,$3,$4,$5,$6,$7,$8,$9,$2,$3,0*
0 Add four circle primitives for the rounded corners*
1,1,$1+$1,$2,$3*
1,1,$1+$1,$4,$5*
1,1,$1+$1,$6,$7*
1,1,$1+$1,$8,$9*
0 Add four rect primitives between the rounded corners*
20,1,$1+$1,$2,$3,$4,$5,0*
20,1,$1+$1,$4,$5,$6,$7,0*
20,1,$1+$1,$6,$7,$8,$9,0*
20,1,$1+$1,$8,$9,$2,$3,0*%
G04 Aperture macros list end*
%ADD10C,3.200000*%
%ADD11RoundRect,0.135000X-0.135000X-0.185000X0.135000X-0.185000X0.135000X0.185000X-0.135000X0.185000X0*%
%ADD12RoundRect,0.140000X0.140000X0.170000X-0.140000X0.170000X-0.140000X-0.170000X0.140000X-0.170000X0*%
%ADD13R,1.422400X0.533400*%
%ADD14RoundRect,0.140000X-0.140000X-0.170000X0.140000X-0.170000X0.140000X0.170000X-0.140000X0.170000X0*%
%ADD15R,0.600000X0.450000*%
%ADD16RoundRect,0.075000X0.075000X-0.662500X0.075000X0.662500X-0.075000X0.662500X-0.075000X-0.662500X0*%
%ADD17RoundRect,0.075000X0.662500X-0.075000X0.662500X0.075000X-0.662500X0.075000X-0.662500X-0.075000X0*%
%ADD18RoundRect,0.140000X0.170000X-0.140000X0.170000X0.140000X-0.170000X0.140000X-0.170000X-0.140000X0*%
%ADD19RoundRect,0.250000X-0.475000X0.250000X-0.475000X-0.250000X0.475000X-0.250000X0.475000X0.250000X0*%
%ADD20RoundRect,0.135000X-0.185000X0.135000X-0.185000X-0.135000X0.185000X-0.135000X0.185000X0.135000X0*%
%ADD21RoundRect,0.140000X-0.170000X0.140000X-0.170000X-0.140000X0.170000X-0.140000X0.170000X0.140000X0*%
%ADD22RoundRect,0.250000X1.500000X-0.250000X1.500000X0.250000X-1.500000X0.250000X-1.500000X-0.250000X0*%
%ADD23RoundRect,0.250001X1.449999X-0.499999X1.449999X0.499999X-1.449999X0.499999X-1.449999X-0.499999X0*%
%ADD24R,0.400000X0.410000*%
%ADD25R,0.400000X0.200000*%
%ADD26RoundRect,0.075000X0.700000X0.075000X-0.700000X0.075000X-0.700000X-0.075000X0.700000X-0.075000X0*%
%ADD27RoundRect,0.075000X0.075000X0.700000X-0.075000X0.700000X-0.075000X-0.700000X0.075000X-0.700000X0*%
%ADD28RoundRect,0.135000X0.185000X-0.135000X0.185000X0.135000X-0.185000X0.135000X-0.185000X-0.135000X0*%
%ADD29R,0.500000X1.700000*%
%ADD30R,1.200000X2.500000*%
%ADD31RoundRect,0.218750X-0.218750X-0.256250X0.218750X-0.256250X0.218750X0.256250X-0.218750X0.256250X0*%
%ADD32RoundRect,0.135000X0.135000X0.185000X-0.135000X0.185000X-0.135000X-0.185000X0.135000X-0.185000X0*%
%ADD33C,2.100000*%
%ADD34R,1.700000X1.700000*%
%ADD35O,1.700000X1.700000*%
%ADD36RoundRect,0.250000X0.650000X-0.325000X0.650000X0.325000X-0.650000X0.325000X-0.650000X-0.325000X0*%
%ADD37RoundRect,0.243750X0.456250X-0.243750X0.456250X0.243750X-0.456250X0.243750X-0.456250X-0.243750X0*%
%ADD38RoundRect,0.250000X0.250000X1.500000X-0.250000X1.500000X-0.250000X-1.500000X0.250000X-1.500000X0*%
%ADD39RoundRect,0.250001X0.499999X1.449999X-0.499999X1.449999X-0.499999X-1.449999X0.499999X-1.449999X0*%
%ADD40R,1.120000X2.160000*%
%ADD41RoundRect,0.007500X-0.372500X-0.117500X0.372500X-0.117500X0.372500X0.117500X-0.372500X0.117500X0*%
%ADD42RoundRect,0.007500X0.117500X-0.372500X0.117500X0.372500X-0.117500X0.372500X-0.117500X-0.372500X0*%
%ADD43R,3.650000X3.650000*%
%ADD44RoundRect,0.250000X0.475000X-0.250000X0.475000X0.250000X-0.475000X0.250000X-0.475000X-0.250000X0*%
%ADD45R,0.400000X0.600000*%
%ADD46RoundRect,0.150000X0.150000X-0.825000X0.150000X0.825000X-0.150000X0.825000X-0.150000X-0.825000X0*%
%ADD47R,1.500000X2.000000*%
%ADD48R,3.800000X2.000000*%
%ADD49R,1.500000X0.900000*%
%ADD50R,0.900000X1.500000*%
%ADD51RoundRect,0.250000X-0.250000X-1.500000X0.250000X-1.500000X0.250000X1.500000X-0.250000X1.500000X0*%
%ADD52RoundRect,0.250001X-0.499999X-1.449999X0.499999X-1.449999X0.499999X1.449999X-0.499999X1.449999X0*%
%ADD53RoundRect,0.250000X-1.500000X0.250000X-1.500000X-0.250000X1.500000X-0.250000X1.500000X0.250000X0*%
%ADD54RoundRect,0.250001X-1.449999X0.499999X-1.449999X-0.499999X1.449999X-0.499999X1.449999X0.499999X0*%
%ADD55C,0.650000*%
%ADD56R,0.600000X1.450000*%
%ADD57R,0.300000X1.450000*%
%ADD58O,1.000000X2.100000*%
%ADD59O,1.000000X1.600000*%
%ADD60R,0.500000X0.375000*%
%ADD61R,0.650000X0.300000*%
%ADD62RoundRect,0.150000X-0.150000X0.512500X-0.150000X-0.512500X0.150000X-0.512500X0.150000X0.512500X0*%
%ADD63R,1.400000X1.200000*%
G04 APERTURE END LIST*
D10*
X117587500Y-107925000D03*
D11*
X125577500Y-122725000D03*
X126597500Y-122725000D03*
D12*
X144467500Y-110225000D03*
X143507500Y-110225000D03*
D13*
X133893499Y-113969999D03*
X133893499Y-115239999D03*
X133893499Y-116509999D03*
X133893499Y-117779999D03*
X139481499Y-117779999D03*
X139481499Y-116509999D03*
X139481499Y-115239999D03*
X139481499Y-113969999D03*
D14*
X142157500Y-109025000D03*
X143117500Y-109025000D03*
D15*
X130337499Y-100934999D03*
X132437499Y-100934999D03*
D10*
X117587500Y-69625000D03*
D16*
X169787500Y-102287500D03*
X170287500Y-102287500D03*
X170787500Y-102287500D03*
X171287500Y-102287500D03*
X171787500Y-102287500D03*
X172287500Y-102287500D03*
X172787500Y-102287500D03*
X173287500Y-102287500D03*
X173787500Y-102287500D03*
X174287500Y-102287500D03*
X174787500Y-102287500D03*
X175287500Y-102287500D03*
D17*
X176700000Y-100875000D03*
X176700000Y-100375000D03*
X176700000Y-99875000D03*
X176700000Y-99375000D03*
X176700000Y-98875000D03*
X176700000Y-98375000D03*
X176700000Y-97875000D03*
X176700000Y-97375000D03*
X176700000Y-96875000D03*
X176700000Y-96375000D03*
X176700000Y-95875000D03*
X176700000Y-95375000D03*
D16*
X175287500Y-93962500D03*
X174787500Y-93962500D03*
X174287500Y-93962500D03*
X173787500Y-93962500D03*
X173287500Y-93962500D03*
X172787500Y-93962500D03*
X172287500Y-93962500D03*
X171787500Y-93962500D03*
X171287500Y-93962500D03*
X170787500Y-93962500D03*
X170287500Y-93962500D03*
X169787500Y-93962500D03*
D17*
X168375000Y-95375000D03*
X168375000Y-95875000D03*
X168375000Y-96375000D03*
X168375000Y-96875000D03*
X168375000Y-97375000D03*
X168375000Y-97875000D03*
X168375000Y-98375000D03*
X168375000Y-98875000D03*
X168375000Y-99375000D03*
X168375000Y-99875000D03*
X168375000Y-100375000D03*
X168375000Y-100875000D03*
D12*
X138287500Y-112435000D03*
X137327500Y-112435000D03*
D18*
X145637500Y-99505000D03*
X145637500Y-98545000D03*
D19*
X168737500Y-105725000D03*
X168737500Y-107625000D03*
D18*
X168737500Y-112455000D03*
X168737500Y-111495000D03*
D20*
X149137500Y-134165000D03*
X149137500Y-135185000D03*
D21*
X173777500Y-86055000D03*
X173777500Y-87015000D03*
D18*
X136087500Y-99885000D03*
X136087500Y-98925000D03*
D20*
X138587500Y-98925000D03*
X138587500Y-99945000D03*
D22*
X178437500Y-134325000D03*
X178437500Y-132325000D03*
X178437500Y-130325000D03*
X178437500Y-128325000D03*
X178437500Y-126325000D03*
X178437500Y-124325000D03*
D23*
X184187500Y-136675000D03*
X184187500Y-121975000D03*
D24*
X136227499Y-131539999D03*
D25*
X136227499Y-131034999D03*
X136227499Y-130634999D03*
X136227499Y-130232923D03*
X136227499Y-129834999D03*
X136227499Y-129434999D03*
X136227499Y-129034999D03*
X136227499Y-128634999D03*
X136227499Y-128234999D03*
X136227499Y-127834999D03*
X136227499Y-127434999D03*
X136227499Y-127034999D03*
X136227499Y-126634999D03*
D24*
X136227499Y-126129999D03*
X138107499Y-126129999D03*
D25*
X138107499Y-126634999D03*
X138107499Y-127034999D03*
X138107499Y-127434999D03*
X138107499Y-127834999D03*
X138107499Y-128234999D03*
X138107499Y-128634999D03*
X138107499Y-129034999D03*
X138107499Y-129434999D03*
X138107499Y-129834999D03*
X138107499Y-130232923D03*
X138107499Y-130634999D03*
X138107499Y-131034999D03*
D24*
X138107499Y-131539999D03*
D26*
X156062500Y-109175000D03*
X156062500Y-108675000D03*
X156062500Y-108175000D03*
X156062500Y-107675000D03*
X156062500Y-107175000D03*
X156062500Y-106675000D03*
X156062500Y-106175000D03*
X156062500Y-105675000D03*
X156062500Y-105175000D03*
X156062500Y-104675000D03*
X156062500Y-104175000D03*
X156062500Y-103675000D03*
X156062500Y-103175000D03*
X156062500Y-102675000D03*
X156062500Y-102175000D03*
X156062500Y-101675000D03*
D27*
X154137500Y-99750000D03*
X153637500Y-99750000D03*
X153137500Y-99750000D03*
X152637500Y-99750000D03*
X152137500Y-99750000D03*
X151637500Y-99750000D03*
X151137500Y-99750000D03*
X150637500Y-99750000D03*
X150137500Y-99750000D03*
X149637500Y-99750000D03*
X149137500Y-99750000D03*
X148637500Y-99750000D03*
X148137500Y-99750000D03*
X147637500Y-99750000D03*
X147137500Y-99750000D03*
X146637500Y-99750000D03*
D26*
X144712500Y-101675000D03*
X144712500Y-102175000D03*
X144712500Y-102675000D03*
X144712500Y-103175000D03*
X144712500Y-103675000D03*
X144712500Y-104175000D03*
X144712500Y-104675000D03*
X144712500Y-105175000D03*
X144712500Y-105675000D03*
X144712500Y-106175000D03*
X144712500Y-106675000D03*
X144712500Y-107175000D03*
X144712500Y-107675000D03*
X144712500Y-108175000D03*
X144712500Y-108675000D03*
X144712500Y-109175000D03*
D27*
X146637500Y-111100000D03*
X147137500Y-111100000D03*
X147637500Y-111100000D03*
X148137500Y-111100000D03*
X148637500Y-111100000D03*
X149137500Y-111100000D03*
X149637500Y-111100000D03*
X150137500Y-111100000D03*
X150637500Y-111100000D03*
X151137500Y-111100000D03*
X151637500Y-111100000D03*
X152137500Y-111100000D03*
X152637500Y-111100000D03*
X153137500Y-111100000D03*
X153637500Y-111100000D03*
X154137500Y-111100000D03*
D28*
X159677500Y-109235000D03*
X159677500Y-108215000D03*
D18*
X163037500Y-119505000D03*
X163037500Y-118545000D03*
D29*
X125367499Y-63524999D03*
X124367499Y-63524999D03*
X123367499Y-63524999D03*
X122367499Y-63524999D03*
D30*
X126467499Y-60124999D03*
X121267499Y-60124999D03*
D31*
X160950000Y-103425000D03*
X162525000Y-103425000D03*
D28*
X137587500Y-73535000D03*
X137587500Y-72515000D03*
D20*
X128687500Y-72515000D03*
X128687500Y-73535000D03*
D18*
X180587500Y-98005000D03*
X180587500Y-97045000D03*
D11*
X125477500Y-124725000D03*
X126497500Y-124725000D03*
D32*
X142907500Y-70325000D03*
X141887500Y-70325000D03*
D33*
X176937500Y-140345000D03*
D20*
X139937500Y-98915000D03*
X139937500Y-99935000D03*
X118107500Y-137515000D03*
X118107500Y-138535000D03*
D18*
X154787500Y-130555000D03*
X154787500Y-129595000D03*
D34*
X183087499Y-79884999D03*
D35*
X183087499Y-82424999D03*
X183087499Y-84964999D03*
X183087499Y-87504999D03*
X183087499Y-90044999D03*
X183087499Y-92584999D03*
X183087499Y-95124999D03*
X183087499Y-97664999D03*
D21*
X158587500Y-102995000D03*
X158587500Y-103955000D03*
D20*
X133237500Y-72515000D03*
X133237500Y-73535000D03*
X134287500Y-72515000D03*
X134287500Y-73535000D03*
D21*
X146687500Y-97145000D03*
X146687500Y-98105000D03*
D20*
X135337500Y-72515000D03*
X135337500Y-73535000D03*
D29*
X132237499Y-63504999D03*
X131237499Y-63504999D03*
X130237499Y-63504999D03*
X129237499Y-63504999D03*
D30*
X133337499Y-60104999D03*
X128137499Y-60104999D03*
D28*
X138637500Y-73535000D03*
X138637500Y-72515000D03*
D22*
X178437500Y-117125000D03*
X178437500Y-115125000D03*
D23*
X184187500Y-119475000D03*
X184187500Y-112775000D03*
D20*
X129147500Y-65115000D03*
X129147500Y-66135000D03*
D36*
X166437500Y-109180000D03*
X166437500Y-106230000D03*
D14*
X161907500Y-117275000D03*
X162867500Y-117275000D03*
D21*
X163787500Y-102995000D03*
X163787500Y-103955000D03*
D28*
X130937500Y-73535000D03*
X130937500Y-72515000D03*
D11*
X165727500Y-99205000D03*
X166747500Y-99205000D03*
D10*
X183087500Y-107925000D03*
D28*
X174137500Y-109575000D03*
X174137500Y-108555000D03*
D12*
X154567500Y-112825000D03*
X153607500Y-112825000D03*
D29*
X174167499Y-127314999D03*
X173167499Y-127314999D03*
X172167499Y-127314999D03*
X171167499Y-127314999D03*
D30*
X175267499Y-123914999D03*
X170067499Y-123914999D03*
D20*
X137937500Y-104365000D03*
X137937500Y-105385000D03*
D28*
X136537500Y-73535000D03*
X136537500Y-72515000D03*
D20*
X152087500Y-134015000D03*
X152087500Y-135035000D03*
D18*
X177437500Y-94255000D03*
X177437500Y-93295000D03*
X147887500Y-135155000D03*
X147887500Y-134195000D03*
D28*
X147487500Y-88035000D03*
X147487500Y-87015000D03*
D15*
X130337499Y-103864999D03*
X132437499Y-103864999D03*
D20*
X135627500Y-137625000D03*
X135627500Y-138645000D03*
D37*
X143997500Y-135002500D03*
X143997500Y-133127500D03*
D38*
X172537500Y-64275000D03*
X170537500Y-64275000D03*
D39*
X174887500Y-58525000D03*
X168187500Y-58525000D03*
D14*
X164507500Y-120075000D03*
X165467500Y-120075000D03*
D40*
X158687499Y-64589999D03*
X158687499Y-57859999D03*
D20*
X126637500Y-72515000D03*
X126637500Y-73535000D03*
D41*
X164365000Y-114575000D03*
X164365000Y-115075000D03*
X164365000Y-115575000D03*
X164365000Y-116075000D03*
X164365000Y-116575000D03*
X164365000Y-117075000D03*
X164365000Y-117575000D03*
X164365000Y-118075000D03*
D42*
X165090000Y-118800000D03*
X165590000Y-118800000D03*
X166090000Y-118800000D03*
X166590000Y-118800000D03*
X167090000Y-118800000D03*
X167590000Y-118800000D03*
X168090000Y-118800000D03*
X168590000Y-118800000D03*
D41*
X169315000Y-118075000D03*
X169315000Y-117575000D03*
X169315000Y-117075000D03*
X169315000Y-116575000D03*
X169315000Y-116075000D03*
X169315000Y-115575000D03*
X169315000Y-115075000D03*
X169315000Y-114575000D03*
D42*
X168590000Y-113850000D03*
X168090000Y-113850000D03*
X167590000Y-113850000D03*
X167090000Y-113850000D03*
X166590000Y-113850000D03*
X166090000Y-113850000D03*
X165590000Y-113850000D03*
X165090000Y-113850000D03*
D43*
X166839999Y-116324999D03*
D44*
X175187500Y-107075000D03*
X175187500Y-105175000D03*
D32*
X162897500Y-113075000D03*
X161877500Y-113075000D03*
D20*
X127662500Y-72515000D03*
X127662500Y-73535000D03*
D36*
X164007500Y-109180000D03*
X164007500Y-106230000D03*
D11*
X125477500Y-116675000D03*
X126497500Y-116675000D03*
D45*
X153662499Y-61694999D03*
X153662499Y-60294999D03*
X154462499Y-60294999D03*
X154462499Y-61694999D03*
D20*
X137987500Y-101435000D03*
X137987500Y-102455000D03*
X130217500Y-65125000D03*
X130217500Y-66145000D03*
D40*
X117067499Y-64739999D03*
X117067499Y-58009999D03*
D46*
X151492500Y-126370000D03*
X152762500Y-126370000D03*
X154032500Y-126370000D03*
X155302500Y-126370000D03*
X156572500Y-126370000D03*
X157842500Y-126370000D03*
X159112500Y-126370000D03*
X160382500Y-126370000D03*
X160382500Y-121420000D03*
X159112500Y-121420000D03*
X157842500Y-121420000D03*
X156572500Y-121420000D03*
X155302500Y-121420000D03*
X154032500Y-121420000D03*
X152762500Y-121420000D03*
X151492500Y-121420000D03*
D28*
X131987500Y-73535000D03*
X131987500Y-72515000D03*
D29*
X134637499Y-140394999D03*
X135637499Y-140394999D03*
X136637499Y-140394999D03*
X137637499Y-140394999D03*
D30*
X133537499Y-143794999D03*
X138737499Y-143794999D03*
D32*
X137627500Y-132905000D03*
X136607500Y-132905000D03*
D40*
X163937499Y-64539999D03*
X163937499Y-57809999D03*
D11*
X125477500Y-120625000D03*
X126497500Y-120625000D03*
D14*
X161907500Y-116225000D03*
X162867500Y-116225000D03*
X170497500Y-116405000D03*
X171457500Y-116405000D03*
D29*
X127757499Y-140424999D03*
X128757499Y-140424999D03*
X129757499Y-140424999D03*
X130757499Y-140424999D03*
D30*
X126657499Y-143824999D03*
X131857499Y-143824999D03*
D47*
X167087499Y-88184999D03*
X169387499Y-88184999D03*
D48*
X169387499Y-81884999D03*
D47*
X171687499Y-88184999D03*
D45*
X138662499Y-61694999D03*
X138662499Y-60294999D03*
X139462499Y-60294999D03*
X139462499Y-61694999D03*
D49*
X144487499Y-67789999D03*
X144487499Y-69059999D03*
X144487499Y-70329999D03*
X144487499Y-71599999D03*
X144487499Y-72869999D03*
X144487499Y-74139999D03*
X144487499Y-75409999D03*
X144487499Y-76679999D03*
X144487499Y-77949999D03*
X144487499Y-79219999D03*
X144487499Y-80489999D03*
X144487499Y-81759999D03*
X144487499Y-83029999D03*
X144487499Y-84299999D03*
D50*
X146252499Y-85549999D03*
X147522499Y-85549999D03*
X148792499Y-85549999D03*
X150062499Y-85549999D03*
X151332499Y-85549999D03*
X152602499Y-85549999D03*
X153872499Y-85549999D03*
X155142499Y-85549999D03*
X156412499Y-85549999D03*
X157682499Y-85549999D03*
X158952499Y-85549999D03*
X160222499Y-85549999D03*
D49*
X161987499Y-84299999D03*
X161987499Y-83029999D03*
X161987499Y-81759999D03*
X161987499Y-80489999D03*
X161987499Y-79219999D03*
X161987499Y-77949999D03*
X161987499Y-76679999D03*
X161987499Y-75409999D03*
X161987499Y-74139999D03*
X161987499Y-72869999D03*
X161987499Y-71599999D03*
X161987499Y-70329999D03*
X161987499Y-69059999D03*
X161987499Y-67789999D03*
D14*
X161907500Y-115175000D03*
X162867500Y-115175000D03*
D21*
X164537500Y-111495000D03*
X164537500Y-112455000D03*
D51*
X160237500Y-137175000D03*
X162237500Y-137175000D03*
X164237500Y-137175000D03*
X166237500Y-137175000D03*
X168237500Y-137175000D03*
X170237500Y-137175000D03*
D52*
X157887500Y-142925000D03*
X172587500Y-142925000D03*
D18*
X152297500Y-129135000D03*
X152297500Y-128175000D03*
D53*
X122407500Y-116655000D03*
X122407500Y-118655000D03*
X122407500Y-120655000D03*
X122407500Y-122655000D03*
X122407500Y-124655000D03*
X122407500Y-126655000D03*
X122407500Y-128655000D03*
X122407500Y-130655000D03*
D54*
X116657500Y-114305000D03*
X116657500Y-133005000D03*
D21*
X167687500Y-111495000D03*
X167687500Y-112455000D03*
D29*
X167207499Y-127284999D03*
X166207499Y-127284999D03*
X165207499Y-127284999D03*
X164207499Y-127284999D03*
D30*
X168307499Y-123884999D03*
X163107499Y-123884999D03*
D10*
X183087500Y-69625000D03*
D21*
X159687500Y-102995000D03*
X159687500Y-103955000D03*
X168847500Y-103185000D03*
X168847500Y-104145000D03*
D38*
X138697500Y-85955000D03*
X136697500Y-85955000D03*
D39*
X141047500Y-80205000D03*
X134347500Y-80205000D03*
D33*
X123637500Y-140345000D03*
D55*
X147397500Y-138525000D03*
X153177500Y-138525000D03*
D56*
X147037499Y-137079999D03*
X147837499Y-137079999D03*
D57*
X149037499Y-137079999D03*
X150037499Y-137079999D03*
X150537499Y-137079999D03*
X151537499Y-137079999D03*
D56*
X152737499Y-137079999D03*
X153537499Y-137079999D03*
X153537499Y-137079999D03*
X152737499Y-137079999D03*
D57*
X152037499Y-137079999D03*
X151037499Y-137079999D03*
X149537499Y-137079999D03*
X148537499Y-137079999D03*
D56*
X147837499Y-137079999D03*
X147037499Y-137079999D03*
D58*
X145967499Y-137994999D03*
D59*
X145967499Y-142174999D03*
D58*
X154607499Y-137994999D03*
D59*
X154607499Y-142174999D03*
D45*
X143662499Y-61694999D03*
X143662499Y-60294999D03*
X144462499Y-60294999D03*
X144462499Y-61694999D03*
D11*
X125477500Y-128575000D03*
X126497500Y-128575000D03*
X125477500Y-118625000D03*
X126497500Y-118625000D03*
D14*
X152957500Y-97775000D03*
X153917500Y-97775000D03*
D45*
X148662499Y-61694999D03*
X148662499Y-60294999D03*
X149462499Y-60294999D03*
X149462499Y-61694999D03*
D60*
X157087499Y-129437499D03*
D61*
X157012499Y-129974999D03*
D60*
X157087499Y-130512499D03*
X158787499Y-130512499D03*
D61*
X158862499Y-129974999D03*
D60*
X158787499Y-129437499D03*
D20*
X131307500Y-65115000D03*
X131307500Y-66135000D03*
X170597500Y-67385000D03*
X170597500Y-68405000D03*
D11*
X125477500Y-126675000D03*
X126497500Y-126675000D03*
D29*
X116127499Y-140374999D03*
X117127499Y-140374999D03*
X118127499Y-140374999D03*
X119127499Y-140374999D03*
D30*
X115027499Y-143774999D03*
X120227499Y-143774999D03*
D20*
X117097500Y-137525000D03*
X117097500Y-138545000D03*
D62*
X136487500Y-102737500D03*
X135537500Y-102737500D03*
X134587500Y-102737500D03*
X134587500Y-105012500D03*
X136487500Y-105012500D03*
D12*
X162867500Y-114125000D03*
X161907500Y-114125000D03*
D20*
X136737500Y-137665000D03*
X136737500Y-138685000D03*
D18*
X166837500Y-101405000D03*
X166837500Y-100445000D03*
D28*
X129887500Y-73535000D03*
X129887500Y-72515000D03*
D63*
X170887499Y-106974999D03*
X173087499Y-106974999D03*
X173087499Y-105274999D03*
X170887499Y-105274999D03*
M02*
