%TF.GenerationSoftware,KiCad,Pcbnew,7.0.5*%
%TF.CreationDate,2023-12-05T08:46:21-08:00*%
%TF.ProjectId,EV10 Board Design,45563130-2042-46f6-9172-642044657369,EV9*%
%TF.SameCoordinates,Original*%
%TF.FileFunction,Profile,NP*%
%FSLAX46Y46*%
G04 Gerber Fmt 4.6, Leading zero omitted, Abs format (unit mm)*
G04 Created by KiCad (PCBNEW 7.0.5) date 2023-12-05 08:46:21*
%MOMM*%
%LPD*%
G01*
G04 APERTURE LIST*
%TA.AperFunction,Profile*%
%ADD10C,0.050000*%
%TD*%
G04 APERTURE END LIST*
D10*
X144600000Y-73500000D02*
G75*
G03*
X142600000Y-71500000I-2000000J0D01*
G01*
X176680000Y-63890000D02*
G75*
G03*
X178680000Y-65890000I2000000J0D01*
G01*
X144600000Y-73500000D02*
X144598077Y-112920087D01*
X113990001Y-117000001D02*
X113980000Y-143440000D01*
X113980000Y-143440000D02*
G75*
G03*
X115980000Y-145440000I2000000J0D01*
G01*
X115980000Y-145440000D02*
X184680000Y-145430000D01*
X184680000Y-145430000D02*
G75*
G03*
X186680000Y-143430000I0J2000000D01*
G01*
X186690000Y-67880000D02*
G75*
G03*
X184690000Y-65880000I-2000000J0D01*
G01*
X176680000Y-63890000D02*
X176685786Y-58024214D01*
X115990001Y-115000001D02*
G75*
G03*
X113990001Y-117000001I-1J-1999999D01*
G01*
X186680000Y-143430000D02*
X186690000Y-67880000D01*
X142580000Y-115009999D02*
X115990001Y-115000001D01*
X115990000Y-56020000D02*
G75*
G03*
X113990000Y-58020000I0J-2000000D01*
G01*
X176685786Y-58024214D02*
G75*
G03*
X174685786Y-56024214I-1999986J14D01*
G01*
X184690000Y-65880000D02*
X178680000Y-65890000D01*
X142580000Y-115009999D02*
G75*
G03*
X144598077Y-112920087I20000J1999999D01*
G01*
X113990000Y-58020000D02*
X114000000Y-69500000D01*
X116000000Y-71500000D02*
X142600000Y-71500000D01*
X114000000Y-69500000D02*
G75*
G03*
X116000000Y-71500000I2000000J0D01*
G01*
X174685786Y-56024214D02*
X115990000Y-56020000D01*
M02*
