%TF.GenerationSoftware,KiCad,Pcbnew,7.0.5*%
%TF.CreationDate,2023-09-20T09:45:38-07:00*%
%TF.ProjectId,EV9 Board Design,45563920-426f-4617-9264-204465736967,EV8*%
%TF.SameCoordinates,Original*%
%TF.FileFunction,Paste,Top*%
%TF.FilePolarity,Positive*%
%FSLAX46Y46*%
G04 Gerber Fmt 4.6, Leading zero omitted, Abs format (unit mm)*
G04 Created by KiCad (PCBNEW 7.0.5) date 2023-09-20 09:45:38*
%MOMM*%
%LPD*%
G01*
G04 APERTURE LIST*
G04 Aperture macros list*
%AMRoundRect*
0 Rectangle with rounded corners*
0 $1 Rounding radius*
0 $2 $3 $4 $5 $6 $7 $8 $9 X,Y pos of 4 corners*
0 Add a 4 corners polygon primitive as box body*
4,1,4,$2,$3,$4,$5,$6,$7,$8,$9,$2,$3,0*
0 Add four circle primitives for the rounded corners*
1,1,$1+$1,$2,$3*
1,1,$1+$1,$4,$5*
1,1,$1+$1,$6,$7*
1,1,$1+$1,$8,$9*
0 Add four rect primitives between the rounded corners*
20,1,$1+$1,$2,$3,$4,$5,0*
20,1,$1+$1,$4,$5,$6,$7,0*
20,1,$1+$1,$6,$7,$8,$9,0*
20,1,$1+$1,$8,$9,$2,$3,0*%
G04 Aperture macros list end*
%ADD10C,0.010000*%
%ADD11RoundRect,0.135000X-0.135000X-0.185000X0.135000X-0.185000X0.135000X0.185000X-0.135000X0.185000X0*%
%ADD12RoundRect,0.140000X0.140000X0.170000X-0.140000X0.170000X-0.140000X-0.170000X0.140000X-0.170000X0*%
%ADD13R,1.422400X0.533400*%
%ADD14RoundRect,0.140000X-0.140000X-0.170000X0.140000X-0.170000X0.140000X0.170000X-0.140000X0.170000X0*%
%ADD15R,0.600000X0.450000*%
%ADD16RoundRect,0.075000X0.075000X-0.662500X0.075000X0.662500X-0.075000X0.662500X-0.075000X-0.662500X0*%
%ADD17RoundRect,0.075000X0.662500X-0.075000X0.662500X0.075000X-0.662500X0.075000X-0.662500X-0.075000X0*%
%ADD18RoundRect,0.140000X0.170000X-0.140000X0.170000X0.140000X-0.170000X0.140000X-0.170000X-0.140000X0*%
%ADD19RoundRect,0.250000X-0.475000X0.250000X-0.475000X-0.250000X0.475000X-0.250000X0.475000X0.250000X0*%
%ADD20RoundRect,0.135000X-0.185000X0.135000X-0.185000X-0.135000X0.185000X-0.135000X0.185000X0.135000X0*%
%ADD21RoundRect,0.250000X1.500000X-0.250000X1.500000X0.250000X-1.500000X0.250000X-1.500000X-0.250000X0*%
%ADD22RoundRect,0.250001X1.449999X-0.499999X1.449999X0.499999X-1.449999X0.499999X-1.449999X-0.499999X0*%
%ADD23R,0.400000X0.410000*%
%ADD24R,0.400000X0.200000*%
%ADD25RoundRect,0.075000X0.700000X0.075000X-0.700000X0.075000X-0.700000X-0.075000X0.700000X-0.075000X0*%
%ADD26RoundRect,0.075000X0.075000X0.700000X-0.075000X0.700000X-0.075000X-0.700000X0.075000X-0.700000X0*%
%ADD27R,0.500000X1.700000*%
%ADD28R,1.200000X2.500000*%
%ADD29RoundRect,0.218750X-0.218750X-0.256250X0.218750X-0.256250X0.218750X0.256250X-0.218750X0.256250X0*%
%ADD30RoundRect,0.135000X0.185000X-0.135000X0.185000X0.135000X-0.185000X0.135000X-0.185000X-0.135000X0*%
%ADD31RoundRect,0.135000X0.135000X0.185000X-0.135000X0.185000X-0.135000X-0.185000X0.135000X-0.185000X0*%
%ADD32RoundRect,0.140000X-0.170000X0.140000X-0.170000X-0.140000X0.170000X-0.140000X0.170000X0.140000X0*%
%ADD33RoundRect,0.250000X0.650000X-0.325000X0.650000X0.325000X-0.650000X0.325000X-0.650000X-0.325000X0*%
%ADD34RoundRect,0.243750X0.456250X-0.243750X0.456250X0.243750X-0.456250X0.243750X-0.456250X-0.243750X0*%
%ADD35RoundRect,0.250000X0.250000X1.500000X-0.250000X1.500000X-0.250000X-1.500000X0.250000X-1.500000X0*%
%ADD36RoundRect,0.250001X0.499999X1.449999X-0.499999X1.449999X-0.499999X-1.449999X0.499999X-1.449999X0*%
%ADD37R,1.120000X2.160000*%
%ADD38RoundRect,0.007500X-0.372500X-0.117500X0.372500X-0.117500X0.372500X0.117500X-0.372500X0.117500X0*%
%ADD39RoundRect,0.007500X0.117500X-0.372500X0.117500X0.372500X-0.117500X0.372500X-0.117500X-0.372500X0*%
%ADD40RoundRect,0.250000X0.475000X-0.250000X0.475000X0.250000X-0.475000X0.250000X-0.475000X-0.250000X0*%
%ADD41R,0.400000X0.600000*%
%ADD42RoundRect,0.150000X0.150000X-0.825000X0.150000X0.825000X-0.150000X0.825000X-0.150000X-0.825000X0*%
%ADD43R,1.500000X2.000000*%
%ADD44R,3.800000X2.000000*%
%ADD45R,0.900000X0.900000*%
%ADD46R,1.500000X0.900000*%
%ADD47R,0.900000X1.500000*%
%ADD48RoundRect,0.250000X-0.250000X-1.500000X0.250000X-1.500000X0.250000X1.500000X-0.250000X1.500000X0*%
%ADD49RoundRect,0.250001X-0.499999X-1.449999X0.499999X-1.449999X0.499999X1.449999X-0.499999X1.449999X0*%
%ADD50RoundRect,0.250000X-1.500000X0.250000X-1.500000X-0.250000X1.500000X-0.250000X1.500000X0.250000X0*%
%ADD51RoundRect,0.250001X-1.449999X0.499999X-1.449999X-0.499999X1.449999X-0.499999X1.449999X0.499999X0*%
%ADD52R,0.600000X1.450000*%
%ADD53R,0.300000X1.450000*%
%ADD54R,0.500000X0.375000*%
%ADD55R,0.650000X0.300000*%
%ADD56RoundRect,0.150000X-0.150000X0.512500X-0.150000X-0.512500X0.150000X-0.512500X0.150000X0.512500X0*%
%ADD57R,1.400000X1.200000*%
G04 APERTURE END LIST*
%TO.C,U6*%
D10*
X167990000Y-117475000D02*
X165690000Y-117475000D01*
X165690000Y-115175000D01*
X167990000Y-115175000D01*
X167990000Y-117475000D01*
G36*
X167990000Y-117475000D02*
G01*
X165690000Y-117475000D01*
X165690000Y-115175000D01*
X167990000Y-115175000D01*
X167990000Y-117475000D01*
G37*
%TD*%
D11*
%TO.C,R28*%
X125577500Y-122725000D03*
X126597500Y-122725000D03*
%TD*%
D12*
%TO.C,C13*%
X144467500Y-110225000D03*
X143507500Y-110225000D03*
%TD*%
D13*
%TO.C,CR1*%
X133893500Y-113970000D03*
X133893500Y-115240000D03*
X133893500Y-116510000D03*
X133893500Y-117780000D03*
X139481500Y-117780000D03*
X139481500Y-116510000D03*
X139481500Y-115240000D03*
X139481500Y-113970000D03*
%TD*%
D14*
%TO.C,C22*%
X142157500Y-109025000D03*
X143117500Y-109025000D03*
%TD*%
D15*
%TO.C,D2*%
X130337500Y-100935000D03*
X132437500Y-100935000D03*
%TD*%
D16*
%TO.C,U5*%
X169787500Y-102287500D03*
X170287500Y-102287500D03*
X170787500Y-102287500D03*
X171287500Y-102287500D03*
X171787500Y-102287500D03*
X172287500Y-102287500D03*
X172787500Y-102287500D03*
X173287500Y-102287500D03*
X173787500Y-102287500D03*
X174287500Y-102287500D03*
X174787500Y-102287500D03*
X175287500Y-102287500D03*
D17*
X176700000Y-100875000D03*
X176700000Y-100375000D03*
X176700000Y-99875000D03*
X176700000Y-99375000D03*
X176700000Y-98875000D03*
X176700000Y-98375000D03*
X176700000Y-97875000D03*
X176700000Y-97375000D03*
X176700000Y-96875000D03*
X176700000Y-96375000D03*
X176700000Y-95875000D03*
X176700000Y-95375000D03*
D16*
X175287500Y-93962500D03*
X174787500Y-93962500D03*
X174287500Y-93962500D03*
X173787500Y-93962500D03*
X173287500Y-93962500D03*
X172787500Y-93962500D03*
X172287500Y-93962500D03*
X171787500Y-93962500D03*
X171287500Y-93962500D03*
X170787500Y-93962500D03*
X170287500Y-93962500D03*
X169787500Y-93962500D03*
D17*
X168375000Y-95375000D03*
X168375000Y-95875000D03*
X168375000Y-96375000D03*
X168375000Y-96875000D03*
X168375000Y-97375000D03*
X168375000Y-97875000D03*
X168375000Y-98375000D03*
X168375000Y-98875000D03*
X168375000Y-99375000D03*
X168375000Y-99875000D03*
X168375000Y-100375000D03*
X168375000Y-100875000D03*
%TD*%
D12*
%TO.C,C33*%
X138287500Y-112435000D03*
X137327500Y-112435000D03*
%TD*%
D18*
%TO.C,C14*%
X145637500Y-99505000D03*
X145637500Y-98545000D03*
%TD*%
D19*
%TO.C,C4*%
X168737500Y-105725000D03*
X168737500Y-107625000D03*
%TD*%
D18*
%TO.C,C3*%
X168737500Y-112455000D03*
X168737500Y-111495000D03*
%TD*%
D20*
%TO.C,R3*%
X149137500Y-134010000D03*
X149137500Y-135030000D03*
%TD*%
D11*
%TO.C,R5*%
X163380000Y-101360000D03*
X164400000Y-101360000D03*
%TD*%
D18*
%TO.C,C19*%
X136087500Y-99885000D03*
X136087500Y-98925000D03*
%TD*%
D20*
%TO.C,R38*%
X138587500Y-98925000D03*
X138587500Y-99945000D03*
%TD*%
D21*
%TO.C,J8*%
X178437500Y-134325000D03*
X178437500Y-132325000D03*
X178437500Y-130325000D03*
X178437500Y-128325000D03*
X178437500Y-126325000D03*
X178437500Y-124325000D03*
D22*
X184187500Y-136675000D03*
X184187500Y-121975000D03*
%TD*%
D23*
%TO.C,U13*%
X136227500Y-131540000D03*
D24*
X136227500Y-131035000D03*
X136227500Y-130635000D03*
X136227500Y-130232924D03*
X136227500Y-129835000D03*
X136227500Y-129435000D03*
X136227500Y-129035000D03*
X136227500Y-128635000D03*
X136227500Y-128235000D03*
X136227500Y-127835000D03*
X136227500Y-127435000D03*
X136227500Y-127035000D03*
X136227500Y-126635000D03*
D23*
X136227500Y-126130000D03*
X138107500Y-126130000D03*
D24*
X138107500Y-126635000D03*
X138107500Y-127035000D03*
X138107500Y-127435000D03*
X138107500Y-127835000D03*
X138107500Y-128235000D03*
X138107500Y-128635000D03*
X138107500Y-129035000D03*
X138107500Y-129435000D03*
X138107500Y-129835000D03*
X138107500Y-130232924D03*
X138107500Y-130635000D03*
X138107500Y-131035000D03*
D23*
X138107500Y-131540000D03*
%TD*%
D25*
%TO.C,U1*%
X156062500Y-109175000D03*
X156062500Y-108675000D03*
X156062500Y-108175000D03*
X156062500Y-107675000D03*
X156062500Y-107175000D03*
X156062500Y-106675000D03*
X156062500Y-106175000D03*
X156062500Y-105675000D03*
X156062500Y-105175000D03*
X156062500Y-104675000D03*
X156062500Y-104175000D03*
X156062500Y-103675000D03*
X156062500Y-103175000D03*
X156062500Y-102675000D03*
X156062500Y-102175000D03*
X156062500Y-101675000D03*
D26*
X154137500Y-99750000D03*
X153637500Y-99750000D03*
X153137500Y-99750000D03*
X152637500Y-99750000D03*
X152137500Y-99750000D03*
X151637500Y-99750000D03*
X151137500Y-99750000D03*
X150637500Y-99750000D03*
X150137500Y-99750000D03*
X149637500Y-99750000D03*
X149137500Y-99750000D03*
X148637500Y-99750000D03*
X148137500Y-99750000D03*
X147637500Y-99750000D03*
X147137500Y-99750000D03*
X146637500Y-99750000D03*
D25*
X144712500Y-101675000D03*
X144712500Y-102175000D03*
X144712500Y-102675000D03*
X144712500Y-103175000D03*
X144712500Y-103675000D03*
X144712500Y-104175000D03*
X144712500Y-104675000D03*
X144712500Y-105175000D03*
X144712500Y-105675000D03*
X144712500Y-106175000D03*
X144712500Y-106675000D03*
X144712500Y-107175000D03*
X144712500Y-107675000D03*
X144712500Y-108175000D03*
X144712500Y-108675000D03*
X144712500Y-109175000D03*
D26*
X146637500Y-111100000D03*
X147137500Y-111100000D03*
X147637500Y-111100000D03*
X148137500Y-111100000D03*
X148637500Y-111100000D03*
X149137500Y-111100000D03*
X149637500Y-111100000D03*
X150137500Y-111100000D03*
X150637500Y-111100000D03*
X151137500Y-111100000D03*
X151637500Y-111100000D03*
X152137500Y-111100000D03*
X152637500Y-111100000D03*
X153137500Y-111100000D03*
X153637500Y-111100000D03*
X154137500Y-111100000D03*
%TD*%
D18*
%TO.C,C16*%
X163037500Y-119505000D03*
X163037500Y-118545000D03*
%TD*%
D27*
%TO.C,J13*%
X125367500Y-63525000D03*
X124367500Y-63525000D03*
X123367500Y-63525000D03*
X122367500Y-63525000D03*
D28*
X126467500Y-60125000D03*
X121267500Y-60125000D03*
%TD*%
D29*
%TO.C,120R1*%
X160950000Y-103425000D03*
X162525000Y-103425000D03*
%TD*%
D30*
%TO.C,R17*%
X137587500Y-73535000D03*
X137587500Y-72515000D03*
%TD*%
D20*
%TO.C,R13*%
X128687500Y-72515000D03*
X128687500Y-73535000D03*
%TD*%
D18*
%TO.C,C20*%
X180587500Y-98005000D03*
X180587500Y-97045000D03*
%TD*%
D11*
%TO.C,R30*%
X125477500Y-124725000D03*
X126497500Y-124725000D03*
%TD*%
D31*
%TO.C,R4*%
X142907500Y-70325000D03*
X141887500Y-70325000D03*
%TD*%
D20*
%TO.C,R39*%
X139937500Y-98915000D03*
X139937500Y-99935000D03*
%TD*%
%TO.C,R21*%
X118107500Y-137660000D03*
X118107500Y-138680000D03*
%TD*%
D18*
%TO.C,C5*%
X154787500Y-130555000D03*
X154787500Y-129595000D03*
%TD*%
D32*
%TO.C,C8*%
X158587500Y-102995000D03*
X158587500Y-103955000D03*
%TD*%
D20*
%TO.C,R12*%
X133237500Y-72515000D03*
X133237500Y-73535000D03*
%TD*%
%TO.C,R11*%
X134287500Y-72515000D03*
X134287500Y-73535000D03*
%TD*%
D32*
%TO.C,C21*%
X146687500Y-97145000D03*
X146687500Y-98105000D03*
%TD*%
D20*
%TO.C,R6*%
X135337500Y-72515000D03*
X135337500Y-73535000D03*
%TD*%
D27*
%TO.C,J14*%
X132237500Y-63505000D03*
X131237500Y-63505000D03*
X130237500Y-63505000D03*
X129237500Y-63505000D03*
D28*
X133337500Y-60105000D03*
X128137500Y-60105000D03*
%TD*%
D30*
%TO.C,R16*%
X138637500Y-73535000D03*
X138637500Y-72515000D03*
%TD*%
D21*
%TO.C,J2*%
X178437500Y-117125000D03*
X178437500Y-115125000D03*
D22*
X184187500Y-119475000D03*
X184187500Y-112775000D03*
%TD*%
D20*
%TO.C,R35*%
X129147500Y-65115000D03*
X129147500Y-66135000D03*
%TD*%
D19*
%TO.C,C2*%
X174200000Y-84780000D03*
X174200000Y-86680000D03*
%TD*%
D33*
%TO.C,C29*%
X166437500Y-109180000D03*
X166437500Y-106230000D03*
%TD*%
D14*
%TO.C,C27*%
X161907500Y-117275000D03*
X162867500Y-117275000D03*
%TD*%
D32*
%TO.C,C10*%
X163787500Y-102995000D03*
X163787500Y-103955000D03*
%TD*%
D30*
%TO.C,R24*%
X130937500Y-73535000D03*
X130937500Y-72515000D03*
%TD*%
D11*
%TO.C,R19*%
X165727500Y-99205000D03*
X166747500Y-99205000D03*
%TD*%
D30*
%TO.C,R1*%
X174250000Y-110110000D03*
X174250000Y-109090000D03*
%TD*%
D12*
%TO.C,C12*%
X154567500Y-112825000D03*
X153607500Y-112825000D03*
%TD*%
D27*
%TO.C,J12*%
X173940000Y-130430000D03*
X172940000Y-130430000D03*
X171940000Y-130430000D03*
X170940000Y-130430000D03*
D28*
X175040000Y-127030000D03*
X169840000Y-127030000D03*
%TD*%
D20*
%TO.C,R37*%
X137937500Y-104365000D03*
X137937500Y-105385000D03*
%TD*%
D30*
%TO.C,R18*%
X136537500Y-73535000D03*
X136537500Y-72515000D03*
%TD*%
D20*
%TO.C,R2*%
X152087500Y-134015000D03*
X152087500Y-135035000D03*
%TD*%
D18*
%TO.C,C25*%
X177437500Y-94255000D03*
X177437500Y-93295000D03*
%TD*%
%TO.C,C1*%
X147870000Y-134970000D03*
X147870000Y-134010000D03*
%TD*%
D30*
%TO.C,R32*%
X147487500Y-88035000D03*
X147487500Y-87015000D03*
%TD*%
D15*
%TO.C,D10*%
X130337500Y-103865000D03*
X132437500Y-103865000D03*
%TD*%
D20*
%TO.C,R8*%
X135627500Y-137625000D03*
X135627500Y-138645000D03*
%TD*%
D34*
%TO.C,D11*%
X143997500Y-135002500D03*
X143997500Y-133127500D03*
%TD*%
D35*
%TO.C,J15*%
X172537500Y-64275000D03*
X170537500Y-64275000D03*
D36*
X174887500Y-58525000D03*
X168187500Y-58525000D03*
%TD*%
D14*
%TO.C,C15*%
X164507500Y-120075000D03*
X165467500Y-120075000D03*
%TD*%
D37*
%TO.C,SW3*%
X158687500Y-64590000D03*
X158687500Y-57860000D03*
%TD*%
D20*
%TO.C,R15*%
X126637500Y-72515000D03*
X126637500Y-73535000D03*
%TD*%
D38*
%TO.C,U6*%
X164365000Y-114575000D03*
X164365000Y-115075000D03*
X164365000Y-115575000D03*
X164365000Y-116075000D03*
X164365000Y-116575000D03*
X164365000Y-117075000D03*
X164365000Y-117575000D03*
X164365000Y-118075000D03*
D39*
X165090000Y-118800000D03*
X165590000Y-118800000D03*
X166090000Y-118800000D03*
X166590000Y-118800000D03*
X167090000Y-118800000D03*
X167590000Y-118800000D03*
X168090000Y-118800000D03*
X168590000Y-118800000D03*
D38*
X169315000Y-118075000D03*
X169315000Y-117575000D03*
X169315000Y-117075000D03*
X169315000Y-116575000D03*
X169315000Y-116075000D03*
X169315000Y-115575000D03*
X169315000Y-115075000D03*
X169315000Y-114575000D03*
D39*
X168590000Y-113850000D03*
X168090000Y-113850000D03*
X167590000Y-113850000D03*
X167090000Y-113850000D03*
X166590000Y-113850000D03*
X166090000Y-113850000D03*
X165590000Y-113850000D03*
X165090000Y-113850000D03*
%TD*%
D40*
%TO.C,C23*%
X175187500Y-107075000D03*
X175187500Y-105175000D03*
%TD*%
D31*
%TO.C,R9*%
X162897500Y-113075000D03*
X161877500Y-113075000D03*
%TD*%
D20*
%TO.C,R14*%
X127662500Y-72515000D03*
X127662500Y-73535000D03*
%TD*%
D33*
%TO.C,C30*%
X164007500Y-109180000D03*
X164007500Y-106230000D03*
%TD*%
D11*
%TO.C,R22*%
X125477500Y-116675000D03*
X126497500Y-116675000D03*
%TD*%
D41*
%TO.C,D4*%
X153662500Y-61695000D03*
X153662500Y-60295000D03*
X154462500Y-60295000D03*
X154462500Y-61695000D03*
%TD*%
D20*
%TO.C,R36*%
X137987500Y-101435000D03*
X137987500Y-102455000D03*
%TD*%
%TO.C,R34*%
X130217500Y-65125000D03*
X130217500Y-66145000D03*
%TD*%
D37*
%TO.C,SW1*%
X117067500Y-64740000D03*
X117067500Y-58010000D03*
%TD*%
D42*
%TO.C,U3*%
X151492500Y-126370000D03*
X152762500Y-126370000D03*
X154032500Y-126370000D03*
X155302500Y-126370000D03*
X156572500Y-126370000D03*
X157842500Y-126370000D03*
X159112500Y-126370000D03*
X160382500Y-126370000D03*
X160382500Y-121420000D03*
X159112500Y-121420000D03*
X157842500Y-121420000D03*
X156572500Y-121420000D03*
X155302500Y-121420000D03*
X154032500Y-121420000D03*
X152762500Y-121420000D03*
X151492500Y-121420000D03*
%TD*%
D30*
%TO.C,R23*%
X131987500Y-73535000D03*
X131987500Y-72515000D03*
%TD*%
D32*
%TO.C,C34*%
X168730000Y-92880000D03*
X168730000Y-93840000D03*
%TD*%
D27*
%TO.C,J7*%
X134637500Y-140395000D03*
X135637500Y-140395000D03*
X136637500Y-140395000D03*
X137637500Y-140395000D03*
D28*
X133537500Y-143795000D03*
X138737500Y-143795000D03*
%TD*%
D31*
%TO.C,R41*%
X137627500Y-132905000D03*
X136607500Y-132905000D03*
%TD*%
D37*
%TO.C,SW2*%
X163937500Y-64540000D03*
X163937500Y-57810000D03*
%TD*%
D11*
%TO.C,R27*%
X125477500Y-120625000D03*
X126497500Y-120625000D03*
%TD*%
D14*
%TO.C,C18*%
X161907500Y-116225000D03*
X162867500Y-116225000D03*
%TD*%
%TO.C,C6*%
X170497500Y-116405000D03*
X171457500Y-116405000D03*
%TD*%
D27*
%TO.C,J5*%
X127757500Y-140425000D03*
X128757500Y-140425000D03*
X129757500Y-140425000D03*
X130757500Y-140425000D03*
D28*
X126657500Y-143825000D03*
X131857500Y-143825000D03*
%TD*%
D43*
%TO.C,U2*%
X167087500Y-88185000D03*
X169387500Y-88185000D03*
D44*
X169387500Y-81885000D03*
D43*
X171687500Y-88185000D03*
%TD*%
D41*
%TO.C,D3*%
X138662500Y-61695000D03*
X138662500Y-60295000D03*
X139462500Y-60295000D03*
X139462500Y-61695000D03*
%TD*%
D45*
%TO.C,U11*%
X150333106Y-76910000D03*
X150337500Y-74110000D03*
X150337500Y-75510000D03*
X151733106Y-76910000D03*
X151737500Y-74110000D03*
X151737500Y-75510000D03*
X153133106Y-76910000D03*
X153137500Y-74110000D03*
X153137500Y-75510000D03*
D46*
X144487500Y-67790000D03*
X144487500Y-69060000D03*
X144487500Y-70330000D03*
X144487500Y-71600000D03*
X144487500Y-72870000D03*
X144487500Y-74140000D03*
X144487500Y-75410000D03*
X144487500Y-76680000D03*
X144487500Y-77950000D03*
X144487500Y-79220000D03*
X144487500Y-80490000D03*
X144487500Y-81760000D03*
X144487500Y-83030000D03*
X144487500Y-84300000D03*
D47*
X146252500Y-85550000D03*
X147522500Y-85550000D03*
X148792500Y-85550000D03*
X150062500Y-85550000D03*
X151332500Y-85550000D03*
X152602500Y-85550000D03*
X153872500Y-85550000D03*
X155142500Y-85550000D03*
X156412500Y-85550000D03*
X157682500Y-85550000D03*
X158952500Y-85550000D03*
X160222500Y-85550000D03*
D46*
X161987500Y-84300000D03*
X161987500Y-83030000D03*
X161987500Y-81760000D03*
X161987500Y-80490000D03*
X161987500Y-79220000D03*
X161987500Y-77950000D03*
X161987500Y-76680000D03*
X161987500Y-75410000D03*
X161987500Y-74140000D03*
X161987500Y-72870000D03*
X161987500Y-71600000D03*
X161987500Y-70330000D03*
X161987500Y-69060000D03*
X161987500Y-67790000D03*
%TD*%
D14*
%TO.C,C17*%
X161907500Y-115175000D03*
X162867500Y-115175000D03*
%TD*%
D32*
%TO.C,C7*%
X164537500Y-111495000D03*
X164537500Y-112455000D03*
%TD*%
D48*
%TO.C,J11*%
X160237500Y-137175000D03*
X162237500Y-137175000D03*
X164237500Y-137175000D03*
X166237500Y-137175000D03*
X168237500Y-137175000D03*
X170237500Y-137175000D03*
D49*
X157887500Y-142925000D03*
X172587500Y-142925000D03*
%TD*%
D18*
%TO.C,C32*%
X152297500Y-129135000D03*
X152297500Y-128175000D03*
%TD*%
D50*
%TO.C,J10*%
X122407500Y-116655000D03*
X122407500Y-118655000D03*
X122407500Y-120655000D03*
X122407500Y-122655000D03*
X122407500Y-124655000D03*
X122407500Y-126655000D03*
X122407500Y-128655000D03*
X122407500Y-130655000D03*
D51*
X116657500Y-114305000D03*
X116657500Y-133005000D03*
%TD*%
D32*
%TO.C,C31*%
X167687500Y-111495000D03*
X167687500Y-112455000D03*
%TD*%
D27*
%TO.C,J6*%
X166900000Y-130440000D03*
X165900000Y-130440000D03*
X164900000Y-130440000D03*
X163900000Y-130440000D03*
D28*
X168000000Y-127040000D03*
X162800000Y-127040000D03*
%TD*%
D32*
%TO.C,C9*%
X159687500Y-102995000D03*
X159687500Y-103955000D03*
%TD*%
%TO.C,C24*%
X168847500Y-103185000D03*
X168847500Y-104145000D03*
%TD*%
D35*
%TO.C,J1*%
X138697500Y-85955000D03*
X136697500Y-85955000D03*
D36*
X141047500Y-80205000D03*
X134347500Y-80205000D03*
%TD*%
D52*
%TO.C,J9*%
X147037500Y-139001000D03*
X147837500Y-139001000D03*
D53*
X149037500Y-139001000D03*
X150037500Y-139001000D03*
X150537500Y-139001000D03*
X151537500Y-139001000D03*
D52*
X152737500Y-139001000D03*
X153537500Y-139001000D03*
X153537500Y-139001000D03*
X152737500Y-139001000D03*
D53*
X152037500Y-139001000D03*
X151037500Y-139001000D03*
X149537500Y-139001000D03*
X148537500Y-139001000D03*
D52*
X147837500Y-139001000D03*
X147037500Y-139001000D03*
%TD*%
D41*
%TO.C,D5*%
X143662500Y-61695000D03*
X143662500Y-60295000D03*
X144462500Y-60295000D03*
X144462500Y-61695000D03*
%TD*%
D11*
%TO.C,R29*%
X125477500Y-128575000D03*
X126497500Y-128575000D03*
%TD*%
%TO.C,R26*%
X125477500Y-118625000D03*
X126497500Y-118625000D03*
%TD*%
D14*
%TO.C,C11*%
X152957500Y-97775000D03*
X153917500Y-97775000D03*
%TD*%
D41*
%TO.C,D18*%
X148662500Y-61695000D03*
X148662500Y-60295000D03*
X149462500Y-60295000D03*
X149462500Y-61695000D03*
%TD*%
D54*
%TO.C,U4*%
X157087500Y-129437500D03*
D55*
X157012500Y-129975000D03*
D54*
X157087500Y-130512500D03*
X158787500Y-130512500D03*
D55*
X158862500Y-129975000D03*
D54*
X158787500Y-129437500D03*
%TD*%
D20*
%TO.C,R33*%
X131307500Y-65115000D03*
X131307500Y-66135000D03*
%TD*%
%TO.C,R40*%
X170597500Y-67385000D03*
X170597500Y-68405000D03*
%TD*%
D11*
%TO.C,R31*%
X125477500Y-126675000D03*
X126497500Y-126675000D03*
%TD*%
D27*
%TO.C,J3*%
X116127500Y-140375000D03*
X117127500Y-140375000D03*
X118127500Y-140375000D03*
X119127500Y-140375000D03*
D28*
X115027500Y-143775000D03*
X120227500Y-143775000D03*
%TD*%
D20*
%TO.C,R20*%
X117130000Y-137660000D03*
X117130000Y-138680000D03*
%TD*%
D56*
%TO.C,U12*%
X136487500Y-102737500D03*
X135537500Y-102737500D03*
X134587500Y-102737500D03*
X134587500Y-105012500D03*
X136487500Y-105012500D03*
%TD*%
D12*
%TO.C,C28*%
X162867500Y-114125000D03*
X161907500Y-114125000D03*
%TD*%
D20*
%TO.C,R7*%
X136737500Y-137665000D03*
X136737500Y-138685000D03*
%TD*%
D18*
%TO.C,C26*%
X166840000Y-101550000D03*
X166840000Y-100590000D03*
%TD*%
D30*
%TO.C,R25*%
X129887500Y-73535000D03*
X129887500Y-72515000D03*
%TD*%
D57*
%TO.C,Y1*%
X170887500Y-106975000D03*
X173087500Y-106975000D03*
X173087500Y-105275000D03*
X170887500Y-105275000D03*
%TD*%
M02*
