%TF.GenerationSoftware,KiCad,Pcbnew,7.0.5*%
%TF.CreationDate,2023-09-20T09:45:38-07:00*%
%TF.ProjectId,EV9 Board Design,45563920-426f-4617-9264-204465736967,EV8*%
%TF.SameCoordinates,Original*%
%TF.FileFunction,Copper,L1,Top*%
%TF.FilePolarity,Positive*%
%FSLAX46Y46*%
G04 Gerber Fmt 4.6, Leading zero omitted, Abs format (unit mm)*
G04 Created by KiCad (PCBNEW 7.0.5) date 2023-09-20 09:45:38*
%MOMM*%
%LPD*%
G01*
G04 APERTURE LIST*
G04 Aperture macros list*
%AMRoundRect*
0 Rectangle with rounded corners*
0 $1 Rounding radius*
0 $2 $3 $4 $5 $6 $7 $8 $9 X,Y pos of 4 corners*
0 Add a 4 corners polygon primitive as box body*
4,1,4,$2,$3,$4,$5,$6,$7,$8,$9,$2,$3,0*
0 Add four circle primitives for the rounded corners*
1,1,$1+$1,$2,$3*
1,1,$1+$1,$4,$5*
1,1,$1+$1,$6,$7*
1,1,$1+$1,$8,$9*
0 Add four rect primitives between the rounded corners*
20,1,$1+$1,$2,$3,$4,$5,0*
20,1,$1+$1,$4,$5,$6,$7,0*
20,1,$1+$1,$6,$7,$8,$9,0*
20,1,$1+$1,$8,$9,$2,$3,0*%
G04 Aperture macros list end*
%TA.AperFunction,SMDPad,CuDef*%
%ADD10RoundRect,0.135000X-0.135000X-0.185000X0.135000X-0.185000X0.135000X0.185000X-0.135000X0.185000X0*%
%TD*%
%TA.AperFunction,SMDPad,CuDef*%
%ADD11RoundRect,0.140000X0.140000X0.170000X-0.140000X0.170000X-0.140000X-0.170000X0.140000X-0.170000X0*%
%TD*%
%TA.AperFunction,SMDPad,CuDef*%
%ADD12R,1.422400X0.533400*%
%TD*%
%TA.AperFunction,SMDPad,CuDef*%
%ADD13RoundRect,0.140000X-0.140000X-0.170000X0.140000X-0.170000X0.140000X0.170000X-0.140000X0.170000X0*%
%TD*%
%TA.AperFunction,SMDPad,CuDef*%
%ADD14R,0.600000X0.450000*%
%TD*%
%TA.AperFunction,SMDPad,CuDef*%
%ADD15RoundRect,0.075000X0.075000X-0.662500X0.075000X0.662500X-0.075000X0.662500X-0.075000X-0.662500X0*%
%TD*%
%TA.AperFunction,SMDPad,CuDef*%
%ADD16RoundRect,0.075000X0.662500X-0.075000X0.662500X0.075000X-0.662500X0.075000X-0.662500X-0.075000X0*%
%TD*%
%TA.AperFunction,SMDPad,CuDef*%
%ADD17RoundRect,0.140000X0.170000X-0.140000X0.170000X0.140000X-0.170000X0.140000X-0.170000X-0.140000X0*%
%TD*%
%TA.AperFunction,SMDPad,CuDef*%
%ADD18RoundRect,0.250000X-0.475000X0.250000X-0.475000X-0.250000X0.475000X-0.250000X0.475000X0.250000X0*%
%TD*%
%TA.AperFunction,SMDPad,CuDef*%
%ADD19RoundRect,0.135000X-0.185000X0.135000X-0.185000X-0.135000X0.185000X-0.135000X0.185000X0.135000X0*%
%TD*%
%TA.AperFunction,SMDPad,CuDef*%
%ADD20RoundRect,0.250000X1.500000X-0.250000X1.500000X0.250000X-1.500000X0.250000X-1.500000X-0.250000X0*%
%TD*%
%TA.AperFunction,SMDPad,CuDef*%
%ADD21RoundRect,0.250001X1.449999X-0.499999X1.449999X0.499999X-1.449999X0.499999X-1.449999X-0.499999X0*%
%TD*%
%TA.AperFunction,SMDPad,CuDef*%
%ADD22R,0.400000X0.410000*%
%TD*%
%TA.AperFunction,SMDPad,CuDef*%
%ADD23R,0.400000X0.200000*%
%TD*%
%TA.AperFunction,SMDPad,CuDef*%
%ADD24RoundRect,0.075000X0.700000X0.075000X-0.700000X0.075000X-0.700000X-0.075000X0.700000X-0.075000X0*%
%TD*%
%TA.AperFunction,SMDPad,CuDef*%
%ADD25RoundRect,0.075000X0.075000X0.700000X-0.075000X0.700000X-0.075000X-0.700000X0.075000X-0.700000X0*%
%TD*%
%TA.AperFunction,SMDPad,CuDef*%
%ADD26R,0.500000X1.700000*%
%TD*%
%TA.AperFunction,SMDPad,CuDef*%
%ADD27R,1.200000X2.500000*%
%TD*%
%TA.AperFunction,SMDPad,CuDef*%
%ADD28RoundRect,0.218750X-0.218750X-0.256250X0.218750X-0.256250X0.218750X0.256250X-0.218750X0.256250X0*%
%TD*%
%TA.AperFunction,SMDPad,CuDef*%
%ADD29RoundRect,0.135000X0.185000X-0.135000X0.185000X0.135000X-0.185000X0.135000X-0.185000X-0.135000X0*%
%TD*%
%TA.AperFunction,SMDPad,CuDef*%
%ADD30RoundRect,0.135000X0.135000X0.185000X-0.135000X0.185000X-0.135000X-0.185000X0.135000X-0.185000X0*%
%TD*%
%TA.AperFunction,ComponentPad*%
%ADD31R,1.700000X1.700000*%
%TD*%
%TA.AperFunction,ComponentPad*%
%ADD32O,1.700000X1.700000*%
%TD*%
%TA.AperFunction,SMDPad,CuDef*%
%ADD33RoundRect,0.140000X-0.170000X0.140000X-0.170000X-0.140000X0.170000X-0.140000X0.170000X0.140000X0*%
%TD*%
%TA.AperFunction,SMDPad,CuDef*%
%ADD34RoundRect,0.250000X0.650000X-0.325000X0.650000X0.325000X-0.650000X0.325000X-0.650000X-0.325000X0*%
%TD*%
%TA.AperFunction,SMDPad,CuDef*%
%ADD35RoundRect,0.243750X0.456250X-0.243750X0.456250X0.243750X-0.456250X0.243750X-0.456250X-0.243750X0*%
%TD*%
%TA.AperFunction,SMDPad,CuDef*%
%ADD36RoundRect,0.250000X0.250000X1.500000X-0.250000X1.500000X-0.250000X-1.500000X0.250000X-1.500000X0*%
%TD*%
%TA.AperFunction,SMDPad,CuDef*%
%ADD37RoundRect,0.250001X0.499999X1.449999X-0.499999X1.449999X-0.499999X-1.449999X0.499999X-1.449999X0*%
%TD*%
%TA.AperFunction,SMDPad,CuDef*%
%ADD38R,1.120000X2.160000*%
%TD*%
%TA.AperFunction,SMDPad,CuDef*%
%ADD39RoundRect,0.007500X-0.372500X-0.117500X0.372500X-0.117500X0.372500X0.117500X-0.372500X0.117500X0*%
%TD*%
%TA.AperFunction,SMDPad,CuDef*%
%ADD40RoundRect,0.007500X0.117500X-0.372500X0.117500X0.372500X-0.117500X0.372500X-0.117500X-0.372500X0*%
%TD*%
%TA.AperFunction,SMDPad,CuDef*%
%ADD41R,3.650000X3.650000*%
%TD*%
%TA.AperFunction,SMDPad,CuDef*%
%ADD42RoundRect,0.250000X0.475000X-0.250000X0.475000X0.250000X-0.475000X0.250000X-0.475000X-0.250000X0*%
%TD*%
%TA.AperFunction,SMDPad,CuDef*%
%ADD43R,0.400000X0.600000*%
%TD*%
%TA.AperFunction,SMDPad,CuDef*%
%ADD44RoundRect,0.150000X0.150000X-0.825000X0.150000X0.825000X-0.150000X0.825000X-0.150000X-0.825000X0*%
%TD*%
%TA.AperFunction,SMDPad,CuDef*%
%ADD45R,1.500000X2.000000*%
%TD*%
%TA.AperFunction,SMDPad,CuDef*%
%ADD46R,3.800000X2.000000*%
%TD*%
%TA.AperFunction,SMDPad,CuDef*%
%ADD47R,1.500000X0.900000*%
%TD*%
%TA.AperFunction,SMDPad,CuDef*%
%ADD48R,0.900000X1.500000*%
%TD*%
%TA.AperFunction,ComponentPad*%
%ADD49C,0.500000*%
%TD*%
%TA.AperFunction,SMDPad,CuDef*%
%ADD50R,3.900000X3.900000*%
%TD*%
%TA.AperFunction,SMDPad,CuDef*%
%ADD51RoundRect,0.250000X-0.250000X-1.500000X0.250000X-1.500000X0.250000X1.500000X-0.250000X1.500000X0*%
%TD*%
%TA.AperFunction,SMDPad,CuDef*%
%ADD52RoundRect,0.250001X-0.499999X-1.449999X0.499999X-1.449999X0.499999X1.449999X-0.499999X1.449999X0*%
%TD*%
%TA.AperFunction,SMDPad,CuDef*%
%ADD53RoundRect,0.250000X-1.500000X0.250000X-1.500000X-0.250000X1.500000X-0.250000X1.500000X0.250000X0*%
%TD*%
%TA.AperFunction,SMDPad,CuDef*%
%ADD54RoundRect,0.250001X-1.449999X0.499999X-1.449999X-0.499999X1.449999X-0.499999X1.449999X0.499999X0*%
%TD*%
%TA.AperFunction,SMDPad,CuDef*%
%ADD55R,0.600000X1.450000*%
%TD*%
%TA.AperFunction,SMDPad,CuDef*%
%ADD56R,0.300000X1.450000*%
%TD*%
%TA.AperFunction,ComponentPad*%
%ADD57O,1.000000X2.100000*%
%TD*%
%TA.AperFunction,ComponentPad*%
%ADD58O,1.000000X1.600000*%
%TD*%
%TA.AperFunction,SMDPad,CuDef*%
%ADD59R,0.500000X0.375000*%
%TD*%
%TA.AperFunction,SMDPad,CuDef*%
%ADD60R,0.650000X0.300000*%
%TD*%
%TA.AperFunction,SMDPad,CuDef*%
%ADD61RoundRect,0.150000X-0.150000X0.512500X-0.150000X-0.512500X0.150000X-0.512500X0.150000X0.512500X0*%
%TD*%
%TA.AperFunction,SMDPad,CuDef*%
%ADD62R,1.400000X1.200000*%
%TD*%
%TA.AperFunction,ViaPad*%
%ADD63C,0.600000*%
%TD*%
%TA.AperFunction,ViaPad*%
%ADD64C,0.350000*%
%TD*%
%TA.AperFunction,ViaPad*%
%ADD65C,0.800000*%
%TD*%
%TA.AperFunction,Conductor*%
%ADD66C,0.127000*%
%TD*%
%TA.AperFunction,Conductor*%
%ADD67C,0.500000*%
%TD*%
%TA.AperFunction,Conductor*%
%ADD68C,0.200000*%
%TD*%
%TA.AperFunction,Conductor*%
%ADD69C,0.250000*%
%TD*%
G04 APERTURE END LIST*
D10*
%TO.P,R28,1*%
%TO.N,Net-(J10-Pin_4)*%
X125577500Y-122725000D03*
%TO.P,R28,2*%
%TO.N,/UI_DBG4*%
X126597500Y-122725000D03*
%TD*%
D11*
%TO.P,C13,1*%
%TO.N,+3.3V*%
X144467500Y-110225000D03*
%TO.P,C13,2*%
%TO.N,GND*%
X143507500Y-110225000D03*
%TD*%
D12*
%TO.P,CR1,1,E0*%
%TO.N,GND*%
X133893500Y-113970000D03*
%TO.P,CR1,2,E1*%
X133893500Y-115240000D03*
%TO.P,CR1,3,E2*%
X133893500Y-116510000D03*
%TO.P,CR1,4,VSS*%
X133893500Y-117780000D03*
%TO.P,CR1,5,SDA*%
%TO.N,/UI_SDA*%
X139481500Y-117780000D03*
%TO.P,CR1,6,SCL*%
%TO.N,/UI_SCL*%
X139481500Y-116510000D03*
%TO.P,CR1,7,\u002AWC*%
%TO.N,unconnected-(CR1-\u002AWC-Pad7)*%
X139481500Y-115240000D03*
%TO.P,CR1,8,VCC*%
%TO.N,+3.3V*%
X139481500Y-113970000D03*
%TD*%
D13*
%TO.P,C22,1*%
%TO.N,GND*%
X142157500Y-109025000D03*
%TO.P,C22,2*%
%TO.N,Net-(U1-VCAP_2)*%
X143117500Y-109025000D03*
%TD*%
D14*
%TO.P,D2,1,K*%
%TO.N,Net-(D10-K)*%
X130337500Y-100935000D03*
%TO.P,D2,2,A*%
%TO.N,+BATT*%
X132437500Y-100935000D03*
%TD*%
D15*
%TO.P,U5,1,VDD*%
%TO.N,+3.3V*%
X169787500Y-102287500D03*
%TO.P,U5,2,PC13*%
%TO.N,/BTN_RST*%
X170287500Y-102287500D03*
%TO.P,U5,3,PC14*%
%TO.N,/BTN_UI*%
X170787500Y-102287500D03*
%TO.P,U5,4,PC15*%
%TO.N,/BTN_NET*%
X171287500Y-102287500D03*
%TO.P,U5,5,PF0*%
%TO.N,/RCC_OSC_IN*%
X171787500Y-102287500D03*
%TO.P,U5,6,PF1*%
%TO.N,/RCC_OSC_OUT*%
X172287500Y-102287500D03*
%TO.P,U5,7,NRST*%
%TO.N,/MGMT_NRST*%
X172787500Y-102287500D03*
%TO.P,U5,8,VSSA*%
%TO.N,GND*%
X173287500Y-102287500D03*
%TO.P,U5,9,VDDA*%
%TO.N,+3.3V*%
X173787500Y-102287500D03*
%TO.P,U5,10,PA0*%
%TO.N,/UI_STAT*%
X174287500Y-102287500D03*
%TO.P,U5,11,PA1*%
%TO.N,/NET_STAT*%
X174787500Y-102287500D03*
%TO.P,U5,12,PA2*%
%TO.N,/UI_RX1_MGMT*%
X175287500Y-102287500D03*
D16*
%TO.P,U5,13,PA3*%
%TO.N,/UI_TX1_MGMT*%
X176700000Y-100875000D03*
%TO.P,U5,14,PA4*%
%TO.N,/LEDB_R*%
X176700000Y-100375000D03*
%TO.P,U5,15,PA5*%
%TO.N,unconnected-(U5-PA5-Pad15)*%
X176700000Y-99875000D03*
%TO.P,U5,16,PA6*%
%TO.N,/LEDA_R*%
X176700000Y-99375000D03*
%TO.P,U5,17,PA7*%
%TO.N,/LEDA_G*%
X176700000Y-98875000D03*
%TO.P,U5,18,PB0*%
%TO.N,/LEDA_B*%
X176700000Y-98375000D03*
%TO.P,U5,19,PB1*%
%TO.N,/USB_RTS*%
X176700000Y-97875000D03*
%TO.P,U5,20,PB2*%
%TO.N,unconnected-(U5-PB2-Pad20)*%
X176700000Y-97375000D03*
%TO.P,U5,21,PB10*%
%TO.N,/UI_STAT*%
X176700000Y-96875000D03*
%TO.P,U5,22,PB11*%
%TO.N,/NET_STAT*%
X176700000Y-96375000D03*
%TO.P,U5,23,VSS*%
%TO.N,GND*%
X176700000Y-95875000D03*
%TO.P,U5,24,VDD*%
%TO.N,+3.3V*%
X176700000Y-95375000D03*
D15*
%TO.P,U5,25,PB12*%
%TO.N,unconnected-(U5-PB12-Pad25)*%
X175287500Y-93962500D03*
%TO.P,U5,26,PB13*%
%TO.N,/USB_DTR*%
X174787500Y-93962500D03*
%TO.P,U5,27,PB14*%
%TO.N,/LEDB_G*%
X174287500Y-93962500D03*
%TO.P,U5,28,PB15*%
%TO.N,/LEDB_B*%
X173787500Y-93962500D03*
%TO.P,U5,29,PA8*%
%TO.N,/MCLK*%
X173287500Y-93962500D03*
%TO.P,U5,30,PA9*%
%TO.N,/USB_RX1_MGMT*%
X172787500Y-93962500D03*
%TO.P,U5,31,PA10*%
%TO.N,/USB_TX1_MGMT*%
X172287500Y-93962500D03*
%TO.P,U5,32,PA11*%
%TO.N,/MGMT_DBG7*%
X171787500Y-93962500D03*
%TO.P,U5,33,PA12*%
%TO.N,unconnected-(U5-PA12-Pad33)*%
X171287500Y-93962500D03*
%TO.P,U5,34,PA13*%
%TO.N,/MGMT_SWDIO*%
X170787500Y-93962500D03*
%TO.P,U5,35,PF6*%
%TO.N,GND*%
X170287500Y-93962500D03*
%TO.P,U5,36,PF7*%
%TO.N,+3.3V*%
X169787500Y-93962500D03*
D16*
%TO.P,U5,37,PA14*%
%TO.N,/MGMT_SWCLK*%
X168375000Y-95375000D03*
%TO.P,U5,38,PA15*%
%TO.N,/UI_RST*%
X168375000Y-95875000D03*
%TO.P,U5,39,PB3*%
%TO.N,/UI_BOOT*%
X168375000Y-96375000D03*
%TO.P,U5,40,PB4*%
%TO.N,/NET_RST*%
X168375000Y-96875000D03*
%TO.P,U5,41,PB5*%
%TO.N,/NET_BOOT*%
X168375000Y-97375000D03*
%TO.P,U5,42,PB6*%
%TO.N,/NET_RX0_MGMT*%
X168375000Y-97875000D03*
%TO.P,U5,43,PB7*%
%TO.N,/NET_TX0_MGMT*%
X168375000Y-98375000D03*
%TO.P,U5,44,BOOT0*%
%TO.N,/MGMT_BOOT*%
X168375000Y-98875000D03*
%TO.P,U5,45,PB8*%
%TO.N,/BOOT1*%
X168375000Y-99375000D03*
%TO.P,U5,46,PB9*%
%TO.N,unconnected-(U5-PB9-Pad46)*%
X168375000Y-99875000D03*
%TO.P,U5,47,VSS*%
%TO.N,GND*%
X168375000Y-100375000D03*
%TO.P,U5,48,VDD*%
%TO.N,+3.3V*%
X168375000Y-100875000D03*
%TD*%
D11*
%TO.P,C33,1*%
%TO.N,+3.3V*%
X138287500Y-112435000D03*
%TO.P,C33,2*%
%TO.N,GND*%
X137327500Y-112435000D03*
%TD*%
D17*
%TO.P,C14,1*%
%TO.N,+3.3V*%
X145637500Y-99505000D03*
%TO.P,C14,2*%
%TO.N,GND*%
X145637500Y-98545000D03*
%TD*%
D18*
%TO.P,C4,1*%
%TO.N,GND*%
X168737500Y-105725000D03*
%TO.P,C4,2*%
%TO.N,/RCC_OSC_IN*%
X168737500Y-107625000D03*
%TD*%
D17*
%TO.P,C3,1*%
%TO.N,+3.3VA*%
X168737500Y-112455000D03*
%TO.P,C3,2*%
%TO.N,GND*%
X168737500Y-111495000D03*
%TD*%
D19*
%TO.P,R3,1*%
%TO.N,GND*%
X149137500Y-134010000D03*
%TO.P,R3,2*%
%TO.N,Net-(J9-CC1)*%
X149137500Y-135030000D03*
%TD*%
D10*
%TO.P,R5,1*%
%TO.N,+3.3V*%
X163380000Y-101360000D03*
%TO.P,R5,2*%
%TO.N,/BOOT1*%
X164400000Y-101360000D03*
%TD*%
D17*
%TO.P,C19,1*%
%TO.N,+BATT*%
X136087500Y-99885000D03*
%TO.P,C19,2*%
%TO.N,GND*%
X136087500Y-98925000D03*
%TD*%
D19*
%TO.P,R38,1*%
%TO.N,/BATTERY_MON*%
X138587500Y-98925000D03*
%TO.P,R38,2*%
%TO.N,+BATT*%
X138587500Y-99945000D03*
%TD*%
D20*
%TO.P,J8,1,Pin_1*%
%TO.N,/MIC_P*%
X178437500Y-134325000D03*
%TO.P,J8,2,Pin_2*%
%TO.N,/MIC_N*%
X178437500Y-132325000D03*
%TO.P,J8,3,Pin_3*%
%TO.N,/IN_3*%
X178437500Y-130325000D03*
%TO.P,J8,4,Pin_4*%
%TO.N,GND*%
X178437500Y-128325000D03*
%TO.P,J8,5,Pin_5*%
%TO.N,/HP_L*%
X178437500Y-126325000D03*
%TO.P,J8,6,Pin_6*%
%TO.N,/HP_R*%
X178437500Y-124325000D03*
D21*
%TO.P,J8,MP*%
%TO.N,N/C*%
X184187500Y-136675000D03*
X184187500Y-121975000D03*
%TD*%
D22*
%TO.P,U13,1*%
%TO.N,GND*%
X136227500Y-131540000D03*
D23*
%TO.P,U13,2*%
X136227500Y-131035000D03*
%TO.P,U13,3*%
X136227500Y-130635000D03*
%TO.P,U13,4*%
X136227500Y-130232924D03*
%TO.P,U13,5*%
X136227500Y-129835000D03*
%TO.P,U13,6*%
%TO.N,/KB_ROW1*%
X136227500Y-129435000D03*
%TO.P,U13,7*%
%TO.N,/KB_COL1*%
X136227500Y-129035000D03*
%TO.P,U13,8*%
%TO.N,/KB_ROW2*%
X136227500Y-128635000D03*
%TO.P,U13,9*%
%TO.N,/KB_COL2*%
X136227500Y-128235000D03*
%TO.P,U13,10*%
%TO.N,/KB_COL3*%
X136227500Y-127835000D03*
%TO.P,U13,11*%
%TO.N,GND*%
X136227500Y-127435000D03*
%TO.P,U13,12*%
X136227500Y-127035000D03*
%TO.P,U13,13*%
X136227500Y-126635000D03*
D22*
%TO.P,U13,14*%
X136227500Y-126130000D03*
%TO.P,U13,15*%
X138107500Y-126130000D03*
D23*
%TO.P,U13,16*%
X138107500Y-126635000D03*
%TO.P,U13,17*%
%TO.N,/KB_COL4*%
X138107500Y-127035000D03*
%TO.P,U13,18*%
%TO.N,/KB_ROW3*%
X138107500Y-127435000D03*
%TO.P,U13,19*%
%TO.N,/KB_COL5*%
X138107500Y-127835000D03*
%TO.P,U13,20*%
%TO.N,/KB_ROW4*%
X138107500Y-128235000D03*
%TO.P,U13,21*%
%TO.N,/KB_ROW5*%
X138107500Y-128635000D03*
%TO.P,U13,22*%
%TO.N,/KB_ROW6*%
X138107500Y-129035000D03*
%TO.P,U13,23*%
%TO.N,/KB_LED*%
X138107500Y-129435000D03*
%TO.P,U13,24*%
X138107500Y-129835000D03*
%TO.P,U13,25*%
X138107500Y-130232924D03*
%TO.P,U13,26*%
X138107500Y-130635000D03*
%TO.P,U13,27*%
%TO.N,/KB_ROW7*%
X138107500Y-131035000D03*
D22*
%TO.P,U13,28*%
%TO.N,GND*%
X138107500Y-131540000D03*
%TD*%
D24*
%TO.P,U1,1,VBAT*%
%TO.N,unconnected-(U1-VBAT-Pad1)*%
X156062500Y-109175000D03*
%TO.P,U1,2,PC13*%
%TO.N,unconnected-(U1-PC13-Pad2)*%
X156062500Y-108675000D03*
%TO.P,U1,3,PC14*%
%TO.N,/KB_COL3*%
X156062500Y-108175000D03*
%TO.P,U1,4,PC15*%
%TO.N,/KB_COL4*%
X156062500Y-107675000D03*
%TO.P,U1,5,PH0*%
%TO.N,/MCLK*%
X156062500Y-107175000D03*
%TO.P,U1,6,PH1*%
%TO.N,unconnected-(U1-PH1-Pad6)*%
X156062500Y-106675000D03*
%TO.P,U1,7,NRST*%
%TO.N,/UI_RST*%
X156062500Y-106175000D03*
%TO.P,U1,8,PC0*%
%TO.N,/UI_LED_G*%
X156062500Y-105675000D03*
%TO.P,U1,9,PC1*%
%TO.N,/UI_LED_R*%
X156062500Y-105175000D03*
%TO.P,U1,10,PC2*%
%TO.N,unconnected-(U1-PC2-Pad10)*%
X156062500Y-104675000D03*
%TO.P,U1,11,PC3*%
%TO.N,unconnected-(U1-PC3-Pad11)*%
X156062500Y-104175000D03*
%TO.P,U1,12,VSSA*%
%TO.N,GND*%
X156062500Y-103675000D03*
%TO.P,U1,13,VDDA*%
%TO.N,+3.3VA*%
X156062500Y-103175000D03*
%TO.P,U1,14,PA0*%
%TO.N,/BATTERY_MON*%
X156062500Y-102675000D03*
%TO.P,U1,15,PA1*%
%TO.N,/DISP_CS*%
X156062500Y-102175000D03*
%TO.P,U1,16,PA2*%
%TO.N,/UI_TX1_NET*%
X156062500Y-101675000D03*
D25*
%TO.P,U1,17,PA3*%
%TO.N,/UI_RX1_NET*%
X154137500Y-99750000D03*
%TO.P,U1,18,VSS*%
%TO.N,GND*%
X153637500Y-99750000D03*
%TO.P,U1,19,VDD*%
%TO.N,+3.3V*%
X153137500Y-99750000D03*
%TO.P,U1,20,PA4*%
%TO.N,/I2S_DACLRC*%
X152637500Y-99750000D03*
%TO.P,U1,21,PA5*%
%TO.N,/DISP_SPI_SCK*%
X152137500Y-99750000D03*
%TO.P,U1,22,PA6*%
%TO.N,/DISP_RSTR*%
X151637500Y-99750000D03*
%TO.P,U1,23,PA7*%
%TO.N,/DISP_SPI_MOSI*%
X151137500Y-99750000D03*
%TO.P,U1,24,PC4*%
%TO.N,/UI_DBG1*%
X150637500Y-99750000D03*
%TO.P,U1,25,PC5*%
%TO.N,/UI_DBG2*%
X150137500Y-99750000D03*
%TO.P,U1,26,PB0*%
%TO.N,/DISP_DC*%
X149637500Y-99750000D03*
%TO.P,U1,27,PB1*%
%TO.N,/KB_MIC*%
X149137500Y-99750000D03*
%TO.P,U1,28,PB2*%
%TO.N,/BOOT1*%
X148637500Y-99750000D03*
%TO.P,U1,29,PB10*%
%TO.N,/UI_TX3*%
X148137500Y-99750000D03*
%TO.P,U1,30,PB11*%
%TO.N,/UI_RX3*%
X147637500Y-99750000D03*
%TO.P,U1,31,VCAP_1*%
%TO.N,Net-(U1-VCAP_1)*%
X147137500Y-99750000D03*
%TO.P,U1,32,VDD*%
%TO.N,+3.3V*%
X146637500Y-99750000D03*
D24*
%TO.P,U1,33,PB12*%
%TO.N,/KB_ROW1*%
X144712500Y-101675000D03*
%TO.P,U1,34,PB13*%
%TO.N,/KB_ROW2*%
X144712500Y-102175000D03*
%TO.P,U1,35,PB14*%
%TO.N,/KB_ROW3*%
X144712500Y-102675000D03*
%TO.P,U1,36,PB15*%
%TO.N,/KB_ROW4*%
X144712500Y-103175000D03*
%TO.P,U1,37,PC6*%
%TO.N,/UI_DBG3*%
X144712500Y-103675000D03*
%TO.P,U1,38,PC7*%
%TO.N,/UI_DBG4*%
X144712500Y-104175000D03*
%TO.P,U1,39,PC8*%
%TO.N,/KB_ROW5*%
X144712500Y-104675000D03*
%TO.P,U1,40,PC9*%
%TO.N,unconnected-(U1-PC9-Pad40)*%
X144712500Y-105175000D03*
%TO.P,U1,41,PA8*%
%TO.N,/UI_STAT*%
X144712500Y-105675000D03*
%TO.P,U1,42,PA9*%
%TO.N,/UI_TX1_MGMT*%
X144712500Y-106175000D03*
%TO.P,U1,43,PA10*%
%TO.N,/UI_RX1_MGMT*%
X144712500Y-106675000D03*
%TO.P,U1,44,PA11*%
%TO.N,unconnected-(U1-PA11-Pad44)*%
X144712500Y-107175000D03*
%TO.P,U1,45,PA12*%
%TO.N,Net-(U1-PA12)*%
X144712500Y-107675000D03*
%TO.P,U1,46,PA13*%
%TO.N,/UI_SWDIO*%
X144712500Y-108175000D03*
%TO.P,U1,47,VCAP_2*%
%TO.N,Net-(U1-VCAP_2)*%
X144712500Y-108675000D03*
%TO.P,U1,48,VDD*%
%TO.N,+3.3V*%
X144712500Y-109175000D03*
D25*
%TO.P,U1,49,PA14*%
%TO.N,/UI_SWDCLK*%
X146637500Y-111100000D03*
%TO.P,U1,50,PA15*%
%TO.N,/DISP_BL*%
X147137500Y-111100000D03*
%TO.P,U1,51,PC10*%
%TO.N,/I2S_BCLK*%
X147637500Y-111100000D03*
%TO.P,U1,52,PC11*%
%TO.N,/I2S_ADCDAT*%
X148137500Y-111100000D03*
%TO.P,U1,53,PC12*%
%TO.N,/I2S_DACDAT*%
X148637500Y-111100000D03*
%TO.P,U1,54,PD2*%
%TO.N,/UI_LED_B*%
X149137500Y-111100000D03*
%TO.P,U1,55,PB3*%
%TO.N,/KB_ROW6*%
X149637500Y-111100000D03*
%TO.P,U1,56,PB4*%
%TO.N,/KB_ROW7*%
X150137500Y-111100000D03*
%TO.P,U1,57,PB5*%
%TO.N,/KB_COL5*%
X150637500Y-111100000D03*
%TO.P,U1,58,PB6*%
%TO.N,/UI_SCL*%
X151137500Y-111100000D03*
%TO.P,U1,59,PB7*%
%TO.N,/UI_SDA*%
X151637500Y-111100000D03*
%TO.P,U1,60,BOOT0*%
%TO.N,/UI_BOOT*%
X152137500Y-111100000D03*
%TO.P,U1,61,PB8*%
%TO.N,/KB_COL2*%
X152637500Y-111100000D03*
%TO.P,U1,62,PB9*%
%TO.N,/KB_COL1*%
X153137500Y-111100000D03*
%TO.P,U1,63,VSS*%
%TO.N,GND*%
X153637500Y-111100000D03*
%TO.P,U1,64,VDD*%
%TO.N,+3.3V*%
X154137500Y-111100000D03*
%TD*%
D17*
%TO.P,C16,1*%
%TO.N,GND*%
X163037500Y-119505000D03*
%TO.P,C16,2*%
%TO.N,+3.3V*%
X163037500Y-118545000D03*
%TD*%
D26*
%TO.P,J13,1,Pin_1*%
%TO.N,/BTN_RST*%
X125367500Y-63525000D03*
%TO.P,J13,2,Pin_2*%
%TO.N,/BTN_UI*%
X124367500Y-63525000D03*
%TO.P,J13,3,Pin_3*%
%TO.N,/BTN_NET*%
X123367500Y-63525000D03*
%TO.P,J13,4,Pin_4*%
%TO.N,GND*%
X122367500Y-63525000D03*
D27*
%TO.P,J13,5*%
%TO.N,N/C*%
X126467500Y-60125000D03*
%TO.P,J13,6*%
X121267500Y-60125000D03*
%TD*%
D28*
%TO.P,120R1,1*%
%TO.N,+3.3VA*%
X160950000Y-103425000D03*
%TO.P,120R1,2*%
%TO.N,+3.3V*%
X162525000Y-103425000D03*
%TD*%
D29*
%TO.P,R17,1*%
%TO.N,/NET_LED_G*%
X137587500Y-73535000D03*
%TO.P,R17,2*%
%TO.N,Net-(D4-GK)*%
X137587500Y-72515000D03*
%TD*%
D19*
%TO.P,R13,1*%
%TO.N,Net-(D3-BK)*%
X128687500Y-72515000D03*
%TO.P,R13,2*%
%TO.N,/LEDB_B*%
X128687500Y-73535000D03*
%TD*%
D17*
%TO.P,C20,1*%
%TO.N,/VIN*%
X180587500Y-98005000D03*
%TO.P,C20,2*%
%TO.N,GND*%
X180587500Y-97045000D03*
%TD*%
D10*
%TO.P,R30,1*%
%TO.N,Net-(J10-Pin_5)*%
X125477500Y-124725000D03*
%TO.P,R30,2*%
%TO.N,/NET_DBG5*%
X126497500Y-124725000D03*
%TD*%
D30*
%TO.P,R4,1*%
%TO.N,/NET_RST*%
X142907500Y-70325000D03*
%TO.P,R4,2*%
%TO.N,GND*%
X141887500Y-70325000D03*
%TD*%
D19*
%TO.P,R39,1*%
%TO.N,GND*%
X139937500Y-98915000D03*
%TO.P,R39,2*%
%TO.N,/BATTERY_MON*%
X139937500Y-99935000D03*
%TD*%
%TO.P,R21,1*%
%TO.N,+3.3V*%
X118107500Y-137660000D03*
%TO.P,R21,2*%
%TO.N,/NET_SCL*%
X118107500Y-138680000D03*
%TD*%
D17*
%TO.P,C5,1*%
%TO.N,/VIN*%
X154787500Y-130555000D03*
%TO.P,C5,2*%
%TO.N,GND*%
X154787500Y-129595000D03*
%TD*%
D31*
%TO.P,J4,1,Pin_1*%
%TO.N,/DISP_BL*%
X183087500Y-79885000D03*
D32*
%TO.P,J4,2,Pin_2*%
%TO.N,/DISP_RSTR*%
X183087500Y-82425000D03*
%TO.P,J4,3,Pin_3*%
%TO.N,/DISP_DC*%
X183087500Y-84965000D03*
%TO.P,J4,4,Pin_4*%
%TO.N,/DISP_CS*%
X183087500Y-87505000D03*
%TO.P,J4,5,Pin_5*%
%TO.N,/DISP_SPI_SCK*%
X183087500Y-90045000D03*
%TO.P,J4,6,Pin_6*%
%TO.N,/DISP_SPI_MOSI*%
X183087500Y-92585000D03*
%TO.P,J4,7,Pin_7*%
%TO.N,GND*%
X183087500Y-95125000D03*
%TO.P,J4,8,Pin_8*%
%TO.N,/VIN*%
X183087500Y-97665000D03*
%TD*%
D33*
%TO.P,C8,1*%
%TO.N,+3.3VA*%
X158587500Y-102995000D03*
%TO.P,C8,2*%
%TO.N,GND*%
X158587500Y-103955000D03*
%TD*%
D19*
%TO.P,R12,1*%
%TO.N,Net-(D18-RK)*%
X133237500Y-72515000D03*
%TO.P,R12,2*%
%TO.N,/LEDA_R*%
X133237500Y-73535000D03*
%TD*%
%TO.P,R11,1*%
%TO.N,Net-(D18-GK)*%
X134287500Y-72515000D03*
%TO.P,R11,2*%
%TO.N,/LEDA_G*%
X134287500Y-73535000D03*
%TD*%
D33*
%TO.P,C21,1*%
%TO.N,GND*%
X146687500Y-97145000D03*
%TO.P,C21,2*%
%TO.N,Net-(U1-VCAP_1)*%
X146687500Y-98105000D03*
%TD*%
D19*
%TO.P,R6,1*%
%TO.N,Net-(D18-BK)*%
X135337500Y-72515000D03*
%TO.P,R6,2*%
%TO.N,/LEDA_B*%
X135337500Y-73535000D03*
%TD*%
D26*
%TO.P,J14,1,Pin_1*%
%TO.N,+3.3V*%
X132237500Y-63505000D03*
%TO.P,J14,2,Pin_2*%
%TO.N,Net-(J14-Pin_2)*%
X131237500Y-63505000D03*
%TO.P,J14,3,Pin_3*%
%TO.N,Net-(J14-Pin_3)*%
X130237500Y-63505000D03*
%TO.P,J14,4,Pin_4*%
%TO.N,Net-(J14-Pin_4)*%
X129237500Y-63505000D03*
D27*
%TO.P,J14,5*%
%TO.N,N/C*%
X133337500Y-60105000D03*
%TO.P,J14,6*%
X128137500Y-60105000D03*
%TD*%
D29*
%TO.P,R16,1*%
%TO.N,/NET_LED_B*%
X138637500Y-73535000D03*
%TO.P,R16,2*%
%TO.N,Net-(D4-BK)*%
X138637500Y-72515000D03*
%TD*%
D20*
%TO.P,J2,1,Pin_1*%
%TO.N,/SPK_LN*%
X178437500Y-117125000D03*
%TO.P,J2,2,Pin_2*%
%TO.N,/SPK_LP*%
X178437500Y-115125000D03*
D21*
%TO.P,J2,MP*%
%TO.N,N/C*%
X184187500Y-119475000D03*
X184187500Y-112775000D03*
%TD*%
D19*
%TO.P,R35,1*%
%TO.N,Net-(J14-Pin_4)*%
X129147500Y-65115000D03*
%TO.P,R35,2*%
%TO.N,/UI_LED_R*%
X129147500Y-66135000D03*
%TD*%
D18*
%TO.P,C2,1*%
%TO.N,+3.3V*%
X174200000Y-84780000D03*
%TO.P,C2,2*%
%TO.N,GND*%
X174200000Y-86680000D03*
%TD*%
D34*
%TO.P,C29,1*%
%TO.N,Net-(U6-HP_R)*%
X166437500Y-109180000D03*
%TO.P,C29,2*%
%TO.N,/HP_R*%
X166437500Y-106230000D03*
%TD*%
D13*
%TO.P,C27,1*%
%TO.N,/MIC_N*%
X161907500Y-117275000D03*
%TO.P,C27,2*%
%TO.N,Net-(U6-LINPUT1)*%
X162867500Y-117275000D03*
%TD*%
D33*
%TO.P,C10,1*%
%TO.N,+3.3V*%
X163787500Y-102995000D03*
%TO.P,C10,2*%
%TO.N,GND*%
X163787500Y-103955000D03*
%TD*%
D29*
%TO.P,R24,1*%
%TO.N,/UI_LED_G*%
X130937500Y-73535000D03*
%TO.P,R24,2*%
%TO.N,Net-(D5-GK)*%
X130937500Y-72515000D03*
%TD*%
D10*
%TO.P,R19,1*%
%TO.N,GND*%
X165727500Y-99205000D03*
%TO.P,R19,2*%
%TO.N,/MGMT_BOOT*%
X166747500Y-99205000D03*
%TD*%
D29*
%TO.P,R1,1*%
%TO.N,+3.3V*%
X174250000Y-110110000D03*
%TO.P,R1,2*%
%TO.N,/MGMT_NRST*%
X174250000Y-109090000D03*
%TD*%
D11*
%TO.P,C12,1*%
%TO.N,+3.3V*%
X154567500Y-112825000D03*
%TO.P,C12,2*%
%TO.N,GND*%
X153607500Y-112825000D03*
%TD*%
D26*
%TO.P,J12,1,Pin_1*%
%TO.N,/UI_SWDIO*%
X173940000Y-130430000D03*
%TO.P,J12,2,Pin_2*%
%TO.N,/UI_SWDCLK*%
X172940000Y-130430000D03*
%TO.P,J12,3,Pin_3*%
%TO.N,GND*%
X171940000Y-130430000D03*
%TO.P,J12,4,Pin_4*%
%TO.N,+3.3V*%
X170940000Y-130430000D03*
D27*
%TO.P,J12,5*%
%TO.N,N/C*%
X175040000Y-127030000D03*
%TO.P,J12,6*%
X169840000Y-127030000D03*
%TD*%
D19*
%TO.P,R37,1*%
%TO.N,GND*%
X137937500Y-104365000D03*
%TO.P,R37,2*%
%TO.N,Net-(U12-PROG)*%
X137937500Y-105385000D03*
%TD*%
D29*
%TO.P,R18,1*%
%TO.N,/NET_LED_R*%
X136537500Y-73535000D03*
%TO.P,R18,2*%
%TO.N,Net-(D4-RK)*%
X136537500Y-72515000D03*
%TD*%
D19*
%TO.P,R2,1*%
%TO.N,GND*%
X152087500Y-134015000D03*
%TO.P,R2,2*%
%TO.N,Net-(J9-CC2)*%
X152087500Y-135035000D03*
%TD*%
D17*
%TO.P,C25,1*%
%TO.N,+3.3V*%
X177437500Y-94255000D03*
%TO.P,C25,2*%
%TO.N,GND*%
X177437500Y-93295000D03*
%TD*%
%TO.P,C1,1*%
%TO.N,VBUS*%
X147870000Y-134970000D03*
%TO.P,C1,2*%
%TO.N,GND*%
X147870000Y-134010000D03*
%TD*%
D29*
%TO.P,R32,1*%
%TO.N,GND*%
X147487500Y-88035000D03*
%TO.P,R32,2*%
%TO.N,Net-(U11-IO46)*%
X147487500Y-87015000D03*
%TD*%
D14*
%TO.P,D10,1,K*%
%TO.N,Net-(D10-K)*%
X130337500Y-103865000D03*
%TO.P,D10,2,A*%
%TO.N,VBUS*%
X132437500Y-103865000D03*
%TD*%
D19*
%TO.P,R8,1*%
%TO.N,+3.3V*%
X135627500Y-137625000D03*
%TO.P,R8,2*%
%TO.N,/UI_SCL*%
X135627500Y-138645000D03*
%TD*%
D35*
%TO.P,D11,1,K*%
%TO.N,Net-(D11-K)*%
X143997500Y-135002500D03*
%TO.P,D11,2,A*%
%TO.N,VBUS*%
X143997500Y-133127500D03*
%TD*%
D36*
%TO.P,J15,1,Pin_1*%
%TO.N,Net-(D10-K)*%
X172537500Y-64275000D03*
%TO.P,J15,2,Pin_2*%
%TO.N,Net-(J15-Pin_2)*%
X170537500Y-64275000D03*
D37*
%TO.P,J15,MP*%
%TO.N,N/C*%
X174887500Y-58525000D03*
X168187500Y-58525000D03*
%TD*%
D13*
%TO.P,C15,1*%
%TO.N,GND*%
X164507500Y-120075000D03*
%TO.P,C15,2*%
%TO.N,+3.3V*%
X165467500Y-120075000D03*
%TD*%
D38*
%TO.P,SW3,1,1*%
%TO.N,/BTN_NET*%
X158687500Y-64590000D03*
%TO.P,SW3,2,2*%
%TO.N,GND*%
X158687500Y-57860000D03*
%TD*%
D19*
%TO.P,R15,1*%
%TO.N,Net-(D3-RK)*%
X126637500Y-72515000D03*
%TO.P,R15,2*%
%TO.N,/LEDB_R*%
X126637500Y-73535000D03*
%TD*%
D39*
%TO.P,U6,1,MICBIAS*%
%TO.N,Net-(U6-MICBIAS)*%
X164365000Y-114575000D03*
%TO.P,U6,2,LINPUT3*%
%TO.N,Net-(U6-LINPUT3)*%
X164365000Y-115075000D03*
%TO.P,U6,3,LINPUT2*%
%TO.N,Net-(U6-LINPUT2)*%
X164365000Y-115575000D03*
%TO.P,U6,4,LINPUT1*%
%TO.N,Net-(U6-LINPUT1)*%
X164365000Y-116075000D03*
%TO.P,U6,5,RINPUT1*%
%TO.N,unconnected-(U6-RINPUT1-Pad5)*%
X164365000Y-116575000D03*
%TO.P,U6,6,RINPUT2*%
%TO.N,unconnected-(U6-RINPUT2-Pad6)*%
X164365000Y-117075000D03*
%TO.P,U6,7,RINPUT3*%
%TO.N,unconnected-(U6-RINPUT3-Pad7)*%
X164365000Y-117575000D03*
%TO.P,U6,8,DCVDD*%
%TO.N,+3.3V*%
X164365000Y-118075000D03*
D40*
%TO.P,U6,9,DGND*%
%TO.N,GND*%
X165090000Y-118800000D03*
%TO.P,U6,10,DBVDD*%
%TO.N,+3.3V*%
X165590000Y-118800000D03*
%TO.P,U6,11,MCLK*%
%TO.N,/MCLK*%
X166090000Y-118800000D03*
%TO.P,U6,12,BCLK*%
%TO.N,/I2S_BCLK*%
X166590000Y-118800000D03*
%TO.P,U6,13,DACLRC*%
%TO.N,/I2S_DACLRC*%
X167090000Y-118800000D03*
%TO.P,U6,14,DACDAT*%
%TO.N,/I2S_DACDAT*%
X167590000Y-118800000D03*
%TO.P,U6,15,ADCLRC*%
%TO.N,unconnected-(U6-ADCLRC-Pad15)*%
X168090000Y-118800000D03*
%TO.P,U6,16,ADCDAT*%
%TO.N,/I2S_ADCDAT*%
X168590000Y-118800000D03*
D39*
%TO.P,U6,17,SCLK*%
%TO.N,/UI_SCL*%
X169315000Y-118075000D03*
%TO.P,U6,18,SDIN*%
%TO.N,/UI_SDA*%
X169315000Y-117575000D03*
%TO.P,U6,19,SPK_RN*%
%TO.N,unconnected-(U6-SPK_RN-Pad19)*%
X169315000Y-117075000D03*
%TO.P,U6,20,SPKGND2*%
%TO.N,unconnected-(U6-SPKGND2-Pad20)*%
X169315000Y-116575000D03*
%TO.P,U6,21,SPKVDD2*%
%TO.N,+3.3VA*%
X169315000Y-116075000D03*
%TO.P,U6,22,SPK_RP*%
%TO.N,unconnected-(U6-SPK_RP-Pad22)*%
X169315000Y-115575000D03*
%TO.P,U6,23,SPK_LN*%
%TO.N,/SPK_LN*%
X169315000Y-115075000D03*
%TO.P,U6,24,SPKGND1*%
%TO.N,unconnected-(U6-SPKGND1-Pad24)*%
X169315000Y-114575000D03*
D40*
%TO.P,U6,25,SPK_LP*%
%TO.N,/SPK_LP*%
X168590000Y-113850000D03*
%TO.P,U6,26,SPKVDD1*%
%TO.N,+3.3VA*%
X168090000Y-113850000D03*
%TO.P,U6,27,AMID*%
%TO.N,Net-(U6-AMID)*%
X167590000Y-113850000D03*
%TO.P,U6,28,AGND*%
%TO.N,unconnected-(U6-AGND-Pad28)*%
X167090000Y-113850000D03*
%TO.P,U6,29,HP_R*%
%TO.N,Net-(U6-HP_R)*%
X166590000Y-113850000D03*
%TO.P,U6,30,OUT3*%
%TO.N,unconnected-(U6-OUT3-Pad30)*%
X166090000Y-113850000D03*
%TO.P,U6,31,HP_L*%
%TO.N,Net-(U6-HP_L)*%
X165590000Y-113850000D03*
%TO.P,U6,32,AVDD*%
%TO.N,+3.3VA*%
X165090000Y-113850000D03*
D41*
%TO.P,U6,33,EP*%
%TO.N,unconnected-(U6-EP-Pad33)*%
X166840000Y-116325000D03*
%TD*%
D42*
%TO.P,C23,1*%
%TO.N,GND*%
X175187500Y-107075000D03*
%TO.P,C23,2*%
%TO.N,/RCC_OSC_OUT*%
X175187500Y-105175000D03*
%TD*%
D30*
%TO.P,R9,1*%
%TO.N,Net-(U6-MICBIAS)*%
X162897500Y-113075000D03*
%TO.P,R9,2*%
%TO.N,/MIC_P*%
X161877500Y-113075000D03*
%TD*%
D19*
%TO.P,R14,1*%
%TO.N,Net-(D3-GK)*%
X127662500Y-72515000D03*
%TO.P,R14,2*%
%TO.N,/LEDB_G*%
X127662500Y-73535000D03*
%TD*%
D34*
%TO.P,C30,1*%
%TO.N,Net-(U6-HP_L)*%
X164007500Y-109180000D03*
%TO.P,C30,2*%
%TO.N,/HP_L*%
X164007500Y-106230000D03*
%TD*%
D10*
%TO.P,R22,1*%
%TO.N,Net-(J10-Pin_1)*%
X125477500Y-116675000D03*
%TO.P,R22,2*%
%TO.N,/UI_DBG1*%
X126497500Y-116675000D03*
%TD*%
D43*
%TO.P,D4,1,RK*%
%TO.N,Net-(D4-RK)*%
X153662500Y-61695000D03*
%TO.P,D4,2,A*%
%TO.N,+3.3V*%
X153662500Y-60295000D03*
%TO.P,D4,3,BK*%
%TO.N,Net-(D4-BK)*%
X154462500Y-60295000D03*
%TO.P,D4,4,GK*%
%TO.N,Net-(D4-GK)*%
X154462500Y-61695000D03*
%TD*%
D19*
%TO.P,R36,1*%
%TO.N,Net-(U12-STAT)*%
X137987500Y-101435000D03*
%TO.P,R36,2*%
%TO.N,Net-(D11-K)*%
X137987500Y-102455000D03*
%TD*%
%TO.P,R34,1*%
%TO.N,Net-(J14-Pin_3)*%
X130217500Y-65125000D03*
%TO.P,R34,2*%
%TO.N,/UI_LED_G*%
X130217500Y-66145000D03*
%TD*%
D38*
%TO.P,SW1,1,1*%
%TO.N,/BTN_RST*%
X117067500Y-64740000D03*
%TO.P,SW1,2,2*%
%TO.N,GND*%
X117067500Y-58010000D03*
%TD*%
D44*
%TO.P,U3,1,GND*%
%TO.N,GND*%
X151492500Y-126370000D03*
%TO.P,U3,2,TXD*%
%TO.N,/USB_TX1_MGMT*%
X152762500Y-126370000D03*
%TO.P,U3,3,RXD*%
%TO.N,/USB_RX1_MGMT*%
X154032500Y-126370000D03*
%TO.P,U3,4,V3*%
%TO.N,+3.3V*%
X155302500Y-126370000D03*
%TO.P,U3,5,UD+*%
%TO.N,/UD+*%
X156572500Y-126370000D03*
%TO.P,U3,6,UD-*%
%TO.N,/UD-*%
X157842500Y-126370000D03*
%TO.P,U3,7,NC*%
%TO.N,unconnected-(U3-NC-Pad7)*%
X159112500Y-126370000D03*
%TO.P,U3,8,NC*%
%TO.N,unconnected-(U3-NC-Pad8)*%
X160382500Y-126370000D03*
%TO.P,U3,9,~{CTS}*%
%TO.N,unconnected-(U3-~{CTS}-Pad9)*%
X160382500Y-121420000D03*
%TO.P,U3,10,~{DSR}*%
%TO.N,unconnected-(U3-~{DSR}-Pad10)*%
X159112500Y-121420000D03*
%TO.P,U3,11,~{RI}*%
%TO.N,unconnected-(U3-~{RI}-Pad11)*%
X157842500Y-121420000D03*
%TO.P,U3,12,~{DCD}*%
%TO.N,unconnected-(U3-~{DCD}-Pad12)*%
X156572500Y-121420000D03*
%TO.P,U3,13,~{DTR}*%
%TO.N,/USB_DTR*%
X155302500Y-121420000D03*
%TO.P,U3,14,~{RTS}*%
%TO.N,/USB_RTS*%
X154032500Y-121420000D03*
%TO.P,U3,15,R232*%
%TO.N,unconnected-(U3-R232-Pad15)*%
X152762500Y-121420000D03*
%TO.P,U3,16,VCC*%
%TO.N,+3.3V*%
X151492500Y-121420000D03*
%TD*%
D29*
%TO.P,R23,1*%
%TO.N,/UI_LED_B*%
X131987500Y-73535000D03*
%TO.P,R23,2*%
%TO.N,Net-(D5-BK)*%
X131987500Y-72515000D03*
%TD*%
D33*
%TO.P,C34,1*%
%TO.N,+3.3V*%
X168730000Y-92880000D03*
%TO.P,C34,2*%
%TO.N,GND*%
X168730000Y-93840000D03*
%TD*%
D26*
%TO.P,J7,1,Pin_1*%
%TO.N,+3.3V*%
X134637500Y-140395000D03*
%TO.P,J7,2,Pin_2*%
%TO.N,/UI_SCL*%
X135637500Y-140395000D03*
%TO.P,J7,3,Pin_3*%
%TO.N,/UI_SDA*%
X136637500Y-140395000D03*
%TO.P,J7,4,Pin_4*%
%TO.N,GND*%
X137637500Y-140395000D03*
D27*
%TO.P,J7,5*%
%TO.N,N/C*%
X133537500Y-143795000D03*
%TO.P,J7,6*%
X138737500Y-143795000D03*
%TD*%
D30*
%TO.P,R41,1*%
%TO.N,Net-(U1-PA12)*%
X137627500Y-132905000D03*
%TO.P,R41,2*%
%TO.N,/KB_LED*%
X136607500Y-132905000D03*
%TD*%
D38*
%TO.P,SW2,1,1*%
%TO.N,/BTN_UI*%
X163937500Y-64540000D03*
%TO.P,SW2,2,2*%
%TO.N,GND*%
X163937500Y-57810000D03*
%TD*%
D10*
%TO.P,R27,1*%
%TO.N,Net-(J10-Pin_3)*%
X125477500Y-120625000D03*
%TO.P,R27,2*%
%TO.N,/UI_DBG3*%
X126497500Y-120625000D03*
%TD*%
D13*
%TO.P,C18,1*%
%TO.N,/MIC_P*%
X161907500Y-116225000D03*
%TO.P,C18,2*%
%TO.N,Net-(U6-LINPUT2)*%
X162867500Y-116225000D03*
%TD*%
%TO.P,C6,1*%
%TO.N,+3.3VA*%
X170497500Y-116405000D03*
%TO.P,C6,2*%
%TO.N,GND*%
X171457500Y-116405000D03*
%TD*%
D26*
%TO.P,J5,1,Pin_1*%
%TO.N,+3.3V*%
X127757500Y-140425000D03*
%TO.P,J5,2,Pin_2*%
%TO.N,/UI_TX3*%
X128757500Y-140425000D03*
%TO.P,J5,3,Pin_3*%
%TO.N,/UI_RX3*%
X129757500Y-140425000D03*
%TO.P,J5,4,Pin_4*%
%TO.N,GND*%
X130757500Y-140425000D03*
D27*
%TO.P,J5,5*%
%TO.N,N/C*%
X126657500Y-143825000D03*
%TO.P,J5,6*%
X131857500Y-143825000D03*
%TD*%
D45*
%TO.P,U2,1,GND*%
%TO.N,GND*%
X167087500Y-88185000D03*
%TO.P,U2,2,VO*%
%TO.N,+3.3V*%
X169387500Y-88185000D03*
D46*
X169387500Y-81885000D03*
D45*
%TO.P,U2,3,VI*%
%TO.N,/VIN*%
X171687500Y-88185000D03*
%TD*%
D43*
%TO.P,D3,1,RK*%
%TO.N,Net-(D3-RK)*%
X138662500Y-61695000D03*
%TO.P,D3,2,A*%
%TO.N,+3.3V*%
X138662500Y-60295000D03*
%TO.P,D3,3,BK*%
%TO.N,Net-(D3-BK)*%
X139462500Y-60295000D03*
%TO.P,D3,4,GK*%
%TO.N,Net-(D3-GK)*%
X139462500Y-61695000D03*
%TD*%
D47*
%TO.P,U11,1,GND*%
%TO.N,GND*%
X144487500Y-67790000D03*
%TO.P,U11,2,3V3*%
%TO.N,+3.3V*%
X144487500Y-69060000D03*
%TO.P,U11,3,EN*%
%TO.N,/NET_RST*%
X144487500Y-70330000D03*
%TO.P,U11,4,IO4*%
%TO.N,unconnected-(U11-IO4-Pad4)*%
X144487500Y-71600000D03*
%TO.P,U11,5,IO5*%
%TO.N,/NET_LED_R*%
X144487500Y-72870000D03*
%TO.P,U11,6,IO6*%
%TO.N,/NET_LED_G*%
X144487500Y-74140000D03*
%TO.P,U11,7,IO7*%
%TO.N,/NET_LED_B*%
X144487500Y-75410000D03*
%TO.P,U11,8,IO15*%
%TO.N,unconnected-(U11-IO15-Pad8)*%
X144487500Y-76680000D03*
%TO.P,U11,9,IO16*%
%TO.N,unconnected-(U11-IO16-Pad9)*%
X144487500Y-77950000D03*
%TO.P,U11,10,IO17*%
%TO.N,/UI_RX1_NET*%
X144487500Y-79220000D03*
%TO.P,U11,11,IO18*%
%TO.N,/UI_TX1_NET*%
X144487500Y-80490000D03*
%TO.P,U11,12,IO8*%
%TO.N,unconnected-(U11-IO8-Pad12)*%
X144487500Y-81760000D03*
%TO.P,U11,13,IO19*%
%TO.N,unconnected-(U11-IO19-Pad13)*%
X144487500Y-83030000D03*
%TO.P,U11,14,IO20*%
%TO.N,unconnected-(U11-IO20-Pad14)*%
X144487500Y-84300000D03*
D48*
%TO.P,U11,15,IO3*%
%TO.N,unconnected-(U11-IO3-Pad15)*%
X146252500Y-85550000D03*
%TO.P,U11,16,IO46*%
%TO.N,Net-(U11-IO46)*%
X147522500Y-85550000D03*
%TO.P,U11,17,IO9*%
%TO.N,unconnected-(U11-IO9-Pad17)*%
X148792500Y-85550000D03*
%TO.P,U11,18,IO10*%
%TO.N,unconnected-(U11-IO10-Pad18)*%
X150062500Y-85550000D03*
%TO.P,U11,19,IO11*%
%TO.N,unconnected-(U11-IO11-Pad19)*%
X151332500Y-85550000D03*
%TO.P,U11,20,IO12*%
%TO.N,unconnected-(U11-IO12-Pad20)*%
X152602500Y-85550000D03*
%TO.P,U11,21,IO13*%
%TO.N,unconnected-(U11-IO13-Pad21)*%
X153872500Y-85550000D03*
%TO.P,U11,22,IO14*%
%TO.N,unconnected-(U11-IO14-Pad22)*%
X155142500Y-85550000D03*
%TO.P,U11,23,IO21*%
%TO.N,/NET_STAT*%
X156412500Y-85550000D03*
%TO.P,U11,24,IO47*%
%TO.N,/NET_SDA*%
X157682500Y-85550000D03*
%TO.P,U11,25,IO48*%
%TO.N,/NET_SCL*%
X158952500Y-85550000D03*
%TO.P,U11,26,IO45*%
%TO.N,unconnected-(U11-IO45-Pad26)*%
X160222500Y-85550000D03*
D47*
%TO.P,U11,27,IO0*%
%TO.N,/NET_BOOT*%
X161987500Y-84300000D03*
%TO.P,U11,28,IO35*%
%TO.N,/NET_DBG5*%
X161987500Y-83030000D03*
%TO.P,U11,29,IO36*%
%TO.N,/NET_DBG6*%
X161987500Y-81760000D03*
%TO.P,U11,30,IO37*%
%TO.N,unconnected-(U11-IO37-Pad30)*%
X161987500Y-80490000D03*
%TO.P,U11,31,IO38*%
%TO.N,unconnected-(U11-IO38-Pad31)*%
X161987500Y-79220000D03*
%TO.P,U11,32,IO39*%
%TO.N,unconnected-(U11-IO39-Pad32)*%
X161987500Y-77950000D03*
%TO.P,U11,33,IO40*%
%TO.N,unconnected-(U11-IO40-Pad33)*%
X161987500Y-76680000D03*
%TO.P,U11,34,IO41*%
%TO.N,unconnected-(U11-IO41-Pad34)*%
X161987500Y-75410000D03*
%TO.P,U11,35,IO42*%
%TO.N,unconnected-(U11-IO42-Pad35)*%
X161987500Y-74140000D03*
%TO.P,U11,36,RXD0*%
%TO.N,/NET_RX0_MGMT*%
X161987500Y-72870000D03*
%TO.P,U11,37,TXD0*%
%TO.N,/NET_TX0_MGMT*%
X161987500Y-71600000D03*
%TO.P,U11,38,IO2*%
%TO.N,unconnected-(U11-IO2-Pad38)*%
X161987500Y-70330000D03*
%TO.P,U11,39,IO1*%
%TO.N,unconnected-(U11-IO1-Pad39)*%
X161987500Y-69060000D03*
%TO.P,U11,40,GND*%
%TO.N,GND*%
X161987500Y-67790000D03*
D49*
%TO.P,U11,41*%
%TO.N,N/C*%
X150337500Y-74810000D03*
X150337500Y-76210000D03*
X151037500Y-74110000D03*
X151037500Y-75510000D03*
X151037500Y-76910000D03*
X151737500Y-74810000D03*
D50*
X151737500Y-75510000D03*
D49*
X151737500Y-76210000D03*
X152437500Y-74110000D03*
X152437500Y-75510000D03*
X152437500Y-76910000D03*
X153137500Y-74810000D03*
X153137500Y-76210000D03*
%TD*%
D13*
%TO.P,C17,1*%
%TO.N,/IN_3*%
X161907500Y-115175000D03*
%TO.P,C17,2*%
%TO.N,Net-(U6-LINPUT3)*%
X162867500Y-115175000D03*
%TD*%
D33*
%TO.P,C7,1*%
%TO.N,GND*%
X164537500Y-111495000D03*
%TO.P,C7,2*%
%TO.N,+3.3VA*%
X164537500Y-112455000D03*
%TD*%
D51*
%TO.P,J11,1,Pin_1*%
%TO.N,+3.3V*%
X160237500Y-137175000D03*
%TO.P,J11,2,Pin_2*%
%TO.N,/MGMT_BOOT*%
X162237500Y-137175000D03*
%TO.P,J11,3,Pin_3*%
%TO.N,/MGMT_NRST*%
X164237500Y-137175000D03*
%TO.P,J11,4,Pin_4*%
%TO.N,/MGMT_SWDIO*%
X166237500Y-137175000D03*
%TO.P,J11,5,Pin_5*%
%TO.N,/MGMT_SWCLK*%
X168237500Y-137175000D03*
%TO.P,J11,6,Pin_6*%
%TO.N,GND*%
X170237500Y-137175000D03*
D52*
%TO.P,J11,MP*%
%TO.N,N/C*%
X157887500Y-142925000D03*
X172587500Y-142925000D03*
%TD*%
D17*
%TO.P,C32,1*%
%TO.N,+3.3V*%
X152297500Y-129135000D03*
%TO.P,C32,2*%
%TO.N,GND*%
X152297500Y-128175000D03*
%TD*%
D53*
%TO.P,J10,1,Pin_1*%
%TO.N,Net-(J10-Pin_1)*%
X122407500Y-116655000D03*
%TO.P,J10,2,Pin_2*%
%TO.N,Net-(J10-Pin_2)*%
X122407500Y-118655000D03*
%TO.P,J10,3,Pin_3*%
%TO.N,Net-(J10-Pin_3)*%
X122407500Y-120655000D03*
%TO.P,J10,4,Pin_4*%
%TO.N,Net-(J10-Pin_4)*%
X122407500Y-122655000D03*
%TO.P,J10,5,Pin_5*%
%TO.N,Net-(J10-Pin_5)*%
X122407500Y-124655000D03*
%TO.P,J10,6,Pin_6*%
%TO.N,Net-(J10-Pin_6)*%
X122407500Y-126655000D03*
%TO.P,J10,7,Pin_7*%
%TO.N,Net-(J10-Pin_7)*%
X122407500Y-128655000D03*
%TO.P,J10,8,Pin_8*%
%TO.N,GND*%
X122407500Y-130655000D03*
D54*
%TO.P,J10,MP*%
%TO.N,N/C*%
X116657500Y-114305000D03*
X116657500Y-133005000D03*
%TD*%
D33*
%TO.P,C31,1*%
%TO.N,GND*%
X167687500Y-111495000D03*
%TO.P,C31,2*%
%TO.N,Net-(U6-AMID)*%
X167687500Y-112455000D03*
%TD*%
D26*
%TO.P,J6,1,Pin_1*%
%TO.N,/NET_TX0_MGMT*%
X166900000Y-130440000D03*
%TO.P,J6,2,Pin_2*%
%TO.N,/NET_RX0_MGMT*%
X165900000Y-130440000D03*
%TO.P,J6,3,Pin_3*%
%TO.N,GND*%
X164900000Y-130440000D03*
%TO.P,J6,4,Pin_4*%
%TO.N,+3.3V*%
X163900000Y-130440000D03*
D27*
%TO.P,J6,5*%
%TO.N,N/C*%
X168000000Y-127040000D03*
%TO.P,J6,6*%
X162800000Y-127040000D03*
%TD*%
D33*
%TO.P,C9,1*%
%TO.N,+3.3VA*%
X159687500Y-102995000D03*
%TO.P,C9,2*%
%TO.N,GND*%
X159687500Y-103955000D03*
%TD*%
%TO.P,C24,1*%
%TO.N,+3.3V*%
X168847500Y-103185000D03*
%TO.P,C24,2*%
%TO.N,GND*%
X168847500Y-104145000D03*
%TD*%
D36*
%TO.P,J1,1,Pin_1*%
%TO.N,GND*%
X138697500Y-85955000D03*
%TO.P,J1,2,Pin_2*%
%TO.N,+BATT*%
X136697500Y-85955000D03*
D37*
%TO.P,J1,MP*%
%TO.N,N/C*%
X141047500Y-80205000D03*
X134347500Y-80205000D03*
%TD*%
D55*
%TO.P,J9,A1,GND*%
%TO.N,GND*%
X147037500Y-139001000D03*
%TO.P,J9,A4,VBUS*%
%TO.N,VBUS*%
X147837500Y-139001000D03*
D56*
%TO.P,J9,A5,CC1*%
%TO.N,Net-(J9-CC1)*%
X149037500Y-139001000D03*
%TO.P,J9,A6,D+*%
%TO.N,/USB_D+*%
X150037500Y-139001000D03*
%TO.P,J9,A7,D-*%
%TO.N,/USB_D-*%
X150537500Y-139001000D03*
%TO.P,J9,A8,SBU1*%
%TO.N,unconnected-(J9-SBU1-PadA8)*%
X151537500Y-139001000D03*
D55*
%TO.P,J9,A9,VBUS*%
%TO.N,VBUS*%
X152737500Y-139001000D03*
%TO.P,J9,A12,GND*%
%TO.N,GND*%
X153537500Y-139001000D03*
%TO.P,J9,B1,GND*%
X153537500Y-139001000D03*
%TO.P,J9,B4,VBUS*%
%TO.N,VBUS*%
X152737500Y-139001000D03*
D56*
%TO.P,J9,B5,CC2*%
%TO.N,Net-(J9-CC2)*%
X152037500Y-139001000D03*
%TO.P,J9,B6,D+*%
%TO.N,/USB_D+*%
X151037500Y-139001000D03*
%TO.P,J9,B7,D-*%
%TO.N,/USB_D-*%
X149537500Y-139001000D03*
%TO.P,J9,B8,SBU2*%
%TO.N,unconnected-(J9-SBU2-PadB8)*%
X148537500Y-139001000D03*
D55*
%TO.P,J9,B9,VBUS*%
%TO.N,VBUS*%
X147837500Y-139001000D03*
%TO.P,J9,B12,GND*%
%TO.N,GND*%
X147037500Y-139001000D03*
D57*
%TO.P,J9,S1,SHIELD*%
%TO.N,unconnected-(J9-SHIELD-PadS1)*%
X145967500Y-139916000D03*
D58*
X145967500Y-144096000D03*
D57*
X154607500Y-139916000D03*
D58*
X154607500Y-144096000D03*
%TD*%
D43*
%TO.P,D5,1,RK*%
%TO.N,Net-(D5-RK)*%
X143662500Y-61695000D03*
%TO.P,D5,2,A*%
%TO.N,+3.3V*%
X143662500Y-60295000D03*
%TO.P,D5,3,BK*%
%TO.N,Net-(D5-BK)*%
X144462500Y-60295000D03*
%TO.P,D5,4,GK*%
%TO.N,Net-(D5-GK)*%
X144462500Y-61695000D03*
%TD*%
D10*
%TO.P,R29,1*%
%TO.N,Net-(J10-Pin_7)*%
X125477500Y-128575000D03*
%TO.P,R29,2*%
%TO.N,/MGMT_DBG7*%
X126497500Y-128575000D03*
%TD*%
%TO.P,R26,1*%
%TO.N,Net-(J10-Pin_2)*%
X125477500Y-118625000D03*
%TO.P,R26,2*%
%TO.N,/UI_DBG2*%
X126497500Y-118625000D03*
%TD*%
D13*
%TO.P,C11,1*%
%TO.N,+3.3V*%
X152957500Y-97775000D03*
%TO.P,C11,2*%
%TO.N,GND*%
X153917500Y-97775000D03*
%TD*%
D43*
%TO.P,D18,1,RK*%
%TO.N,Net-(D18-RK)*%
X148662500Y-61695000D03*
%TO.P,D18,2,A*%
%TO.N,+3.3V*%
X148662500Y-60295000D03*
%TO.P,D18,3,BK*%
%TO.N,Net-(D18-BK)*%
X149462500Y-60295000D03*
%TO.P,D18,4,GK*%
%TO.N,Net-(D18-GK)*%
X149462500Y-61695000D03*
%TD*%
D59*
%TO.P,U4,1,I/O1*%
%TO.N,/USB_D+*%
X157087500Y-129437500D03*
D60*
%TO.P,U4,2,GND*%
%TO.N,GND*%
X157012500Y-129975000D03*
D59*
%TO.P,U4,3,I/O2*%
%TO.N,/USB_D-*%
X157087500Y-130512500D03*
%TO.P,U4,4,I/O2*%
%TO.N,/UD-*%
X158787500Y-130512500D03*
D60*
%TO.P,U4,5,VBUS*%
%TO.N,VBUS*%
X158862500Y-129975000D03*
D59*
%TO.P,U4,6,I/O1*%
%TO.N,/UD+*%
X158787500Y-129437500D03*
%TD*%
D19*
%TO.P,R33,1*%
%TO.N,Net-(J14-Pin_2)*%
X131307500Y-65115000D03*
%TO.P,R33,2*%
%TO.N,/UI_LED_B*%
X131307500Y-66135000D03*
%TD*%
%TO.P,R40,1*%
%TO.N,Net-(J15-Pin_2)*%
X170597500Y-67385000D03*
%TO.P,R40,2*%
%TO.N,/VIN*%
X170597500Y-68405000D03*
%TD*%
D10*
%TO.P,R31,1*%
%TO.N,Net-(J10-Pin_6)*%
X125477500Y-126675000D03*
%TO.P,R31,2*%
%TO.N,/NET_DBG6*%
X126497500Y-126675000D03*
%TD*%
D26*
%TO.P,J3,1,Pin_1*%
%TO.N,+3.3V*%
X116127500Y-140375000D03*
%TO.P,J3,2,Pin_2*%
%TO.N,/NET_SDA*%
X117127500Y-140375000D03*
%TO.P,J3,3,Pin_3*%
%TO.N,/NET_SCL*%
X118127500Y-140375000D03*
%TO.P,J3,4,Pin_4*%
%TO.N,GND*%
X119127500Y-140375000D03*
D27*
%TO.P,J3,5*%
%TO.N,N/C*%
X115027500Y-143775000D03*
%TO.P,J3,6*%
X120227500Y-143775000D03*
%TD*%
D19*
%TO.P,R20,1*%
%TO.N,+3.3V*%
X117130000Y-137660000D03*
%TO.P,R20,2*%
%TO.N,/NET_SDA*%
X117130000Y-138680000D03*
%TD*%
D61*
%TO.P,U12,1,STAT*%
%TO.N,Net-(U12-STAT)*%
X136487500Y-102737500D03*
%TO.P,U12,2,VSS*%
%TO.N,GND*%
X135537500Y-102737500D03*
%TO.P,U12,3,VBAT*%
%TO.N,+BATT*%
X134587500Y-102737500D03*
%TO.P,U12,4,VDD*%
%TO.N,VBUS*%
X134587500Y-105012500D03*
%TO.P,U12,5,PROG*%
%TO.N,Net-(U12-PROG)*%
X136487500Y-105012500D03*
%TD*%
D11*
%TO.P,C28,1*%
%TO.N,Net-(U6-MICBIAS)*%
X162867500Y-114125000D03*
%TO.P,C28,2*%
%TO.N,GND*%
X161907500Y-114125000D03*
%TD*%
D19*
%TO.P,R7,1*%
%TO.N,+3.3V*%
X136737500Y-137665000D03*
%TO.P,R7,2*%
%TO.N,/UI_SDA*%
X136737500Y-138685000D03*
%TD*%
D17*
%TO.P,C26,1*%
%TO.N,+3.3V*%
X166840000Y-101550000D03*
%TO.P,C26,2*%
%TO.N,GND*%
X166840000Y-100590000D03*
%TD*%
D29*
%TO.P,R25,1*%
%TO.N,/UI_LED_R*%
X129887500Y-73535000D03*
%TO.P,R25,2*%
%TO.N,Net-(D5-RK)*%
X129887500Y-72515000D03*
%TD*%
D62*
%TO.P,Y1,1,1*%
%TO.N,/RCC_OSC_IN*%
X170887500Y-106975000D03*
%TO.P,Y1,2,2*%
%TO.N,GND*%
X173087500Y-106975000D03*
%TO.P,Y1,3,3*%
%TO.N,/RCC_OSC_OUT*%
X173087500Y-105275000D03*
%TO.P,Y1,4,4*%
%TO.N,GND*%
X170887500Y-105275000D03*
%TD*%
D63*
%TO.N,+3.3VA*%
X169637500Y-112375000D03*
X163607500Y-112245000D03*
X170487500Y-115435000D03*
X160987500Y-104625000D03*
D64*
%TO.N,+3.3V*%
X163787500Y-102225000D03*
X155387500Y-112775000D03*
D63*
X127837500Y-138935000D03*
D64*
X173517413Y-100968530D03*
X161495000Y-128065000D03*
D63*
X142777500Y-68375000D03*
X162137500Y-118575000D03*
D65*
X171574000Y-127925000D03*
D63*
X155492500Y-128050000D03*
X148637500Y-59665000D03*
D64*
X166446962Y-120075538D03*
X161700000Y-130190000D03*
X175117500Y-109595000D03*
X162690000Y-101350000D03*
X160237500Y-134425000D03*
D63*
X138627500Y-59345000D03*
D64*
X167870000Y-93260000D03*
X135727878Y-136838556D03*
D63*
X134637500Y-139115000D03*
X176137500Y-86025000D03*
X132187500Y-65055000D03*
X116087500Y-139005000D03*
X143637500Y-59465000D03*
X144437500Y-111175000D03*
X153637500Y-59505000D03*
D64*
X176137500Y-94125000D03*
X166837500Y-102275000D03*
D63*
X144637500Y-99445000D03*
D64*
X169937500Y-100975000D03*
D63*
X153037500Y-96875000D03*
D64*
X136757500Y-136799500D03*
D63*
%TO.N,VBUS*%
X153197500Y-135115000D03*
X146472500Y-133110000D03*
X145480000Y-131980000D03*
D64*
X159987500Y-130025000D03*
D63*
X133320000Y-105950000D03*
%TO.N,GND*%
X174147500Y-89795000D03*
D64*
X149921225Y-133974500D03*
D63*
X154737500Y-128835000D03*
X169649706Y-111417206D03*
D64*
X164777500Y-99517000D03*
D63*
X146617500Y-136495000D03*
X130887500Y-139055000D03*
X139797500Y-98175000D03*
X162027997Y-119574503D03*
X151570500Y-127985023D03*
X169635000Y-103875000D03*
X148387500Y-88165000D03*
X125287500Y-130705000D03*
X137937500Y-103475000D03*
X181267500Y-95125000D03*
D65*
X164716000Y-126992000D03*
D64*
X132487500Y-117825000D03*
D63*
X171457500Y-115335000D03*
D64*
X167880000Y-93930000D03*
D63*
X171427500Y-136495000D03*
X154137500Y-96675000D03*
D64*
X170270000Y-95130000D03*
D63*
X138272313Y-139748000D03*
X140937500Y-70375000D03*
D64*
X156525500Y-129975000D03*
D63*
X163787500Y-104825000D03*
D64*
X135772500Y-131540000D03*
D63*
X143444111Y-111285377D03*
D65*
X180464000Y-128262000D03*
D63*
X119157500Y-138985000D03*
X158587500Y-105025000D03*
D64*
X153587500Y-113625000D03*
D63*
X167087500Y-89785000D03*
X165938378Y-101141541D03*
X165392500Y-67980000D03*
X145587500Y-97725000D03*
X136087500Y-98145000D03*
X146047000Y-67525500D03*
X154037500Y-136245000D03*
X161087500Y-114095000D03*
X135637500Y-101375000D03*
D64*
X165437500Y-57875000D03*
X175288000Y-95875000D03*
D63*
X176887000Y-92448000D03*
X120127500Y-57725000D03*
X172291250Y-109071250D03*
X152887500Y-134038000D03*
X165077500Y-110575000D03*
%TO.N,+BATT*%
X134852500Y-100060000D03*
D65*
X138050000Y-92920000D03*
X135654312Y-92814312D03*
D63*
X133527500Y-102715000D03*
%TO.N,/VIN*%
X166700500Y-85212000D03*
X153957500Y-130555000D03*
X169837500Y-68435000D03*
X179737500Y-98625000D03*
D64*
%TO.N,/UI_SDA*%
X140462000Y-139565000D03*
X150887500Y-113275000D03*
X145807500Y-121315000D03*
%TO.N,/UI_SCL*%
X140462000Y-140114503D03*
X146567500Y-119355000D03*
X150748062Y-113863104D03*
%TO.N,/MCLK*%
X166098551Y-119450538D03*
X158367500Y-111789047D03*
X160209500Y-98130504D03*
X173352000Y-95242000D03*
X158386000Y-108445000D03*
X154917903Y-106316217D03*
X160211225Y-94316851D03*
%TO.N,/NET_SDA*%
X117160000Y-139340000D03*
X145262000Y-93633000D03*
%TO.N,/NET_SCL*%
X118545720Y-139269041D03*
X145764630Y-93960000D03*
%TO.N,/MGMT_BOOT*%
X162297500Y-139885000D03*
X162567500Y-99978000D03*
%TO.N,/MGMT_NRST*%
X172817500Y-100255000D03*
X175197500Y-115265000D03*
X175117500Y-108505000D03*
X163717500Y-132165500D03*
X164247500Y-135035000D03*
%TO.N,/IN_3*%
X154987500Y-116995000D03*
X142087500Y-137595000D03*
X160357787Y-116584713D03*
X161612000Y-115115000D03*
%TO.N,/NET_RST*%
X166032500Y-95370000D03*
X146017500Y-70285000D03*
%TO.N,/UI_RST*%
X159737500Y-101975000D03*
X158041063Y-106471500D03*
%TO.N,/MIC_P*%
X140997500Y-137795000D03*
X154994000Y-115795000D03*
%TO.N,/LEDA_R*%
X133237500Y-74475000D03*
X173087464Y-97575036D03*
%TO.N,/DISP_BL*%
X149649497Y-97310503D03*
X177813367Y-80065838D03*
X150670051Y-102839949D03*
X165076000Y-80039744D03*
%TO.N,/DISP_RSTR*%
X181527500Y-83275000D03*
X181527500Y-88755000D03*
X177764713Y-81735287D03*
X165078327Y-81688247D03*
%TO.N,/LEDA_G*%
X134287500Y-74475000D03*
X174086897Y-97586821D03*
D63*
%TO.N,Net-(D10-K)*%
X124217500Y-59025000D03*
X124217500Y-99052000D03*
D64*
%TO.N,/LEDA_B*%
X135337500Y-74475000D03*
X175105761Y-97640885D03*
%TO.N,/KB_COL3*%
X141257670Y-120440000D03*
X136984500Y-124725000D03*
X145140167Y-120630430D03*
X157182500Y-108170000D03*
%TO.N,/KB_COL4*%
X157507500Y-107675000D03*
X145220073Y-120086769D03*
%TO.N,/DISP_DC*%
X165076000Y-80589247D03*
X177796668Y-80615087D03*
%TO.N,/DISP_CS*%
X149640287Y-96700287D03*
X180447500Y-87305000D03*
X177759286Y-79519004D03*
X180437109Y-82512104D03*
X149179000Y-100899500D03*
X165076000Y-79490241D03*
%TO.N,/DISP_SPI_SCK*%
X165076000Y-82310000D03*
X177734779Y-82479257D03*
%TO.N,/DISP_SPI_MOSI*%
X181562911Y-90264103D03*
X177813193Y-81164341D03*
X180997500Y-88327000D03*
X165076000Y-81138750D03*
%TO.N,/UI_TX3*%
X148176888Y-100966212D03*
X128847500Y-142445000D03*
%TO.N,/UI_RX3*%
X147627500Y-100955000D03*
X129857500Y-142395000D03*
%TO.N,/NET_TX0_MGMT*%
X160427500Y-71545000D03*
X166832002Y-127300500D03*
X177108052Y-83865411D03*
X164311000Y-95071500D03*
X178392500Y-75126500D03*
X177168812Y-85505351D03*
X167850000Y-66170000D03*
X163016680Y-71029620D03*
%TO.N,/KB_MIC*%
X149200353Y-96259647D03*
D63*
X134857500Y-130145000D03*
D64*
%TO.N,/NET_RX0_MGMT*%
X166210000Y-98315000D03*
X163112002Y-71850000D03*
X165832002Y-127300500D03*
X178107500Y-83855000D03*
X169620000Y-98300000D03*
X163104250Y-95111750D03*
X178167500Y-85465000D03*
X160407500Y-72715000D03*
X167704963Y-67564463D03*
X177954500Y-74040000D03*
%TO.N,/KB_ROW5*%
X139979479Y-124430737D03*
X142782831Y-105932832D03*
%TO.N,/KB_ROW1*%
X134338500Y-126410414D03*
X141637500Y-101625000D03*
%TO.N,/KB_ROW2*%
X134865765Y-124640620D03*
X143037500Y-101975000D03*
%TO.N,/KB_ROW3*%
X141879176Y-103286775D03*
X138310500Y-124722000D03*
%TO.N,/MIC_N*%
X154994000Y-116435000D03*
X141543070Y-137669494D03*
%TO.N,/KB_ROW4*%
X142337500Y-104175000D03*
X139362700Y-124433384D03*
%TO.N,/KB_ROW6*%
X145686060Y-114074350D03*
X140522320Y-124534102D03*
%TO.N,/KB_ROW7*%
X137217500Y-130825000D03*
X145870428Y-114592000D03*
%TO.N,/LEDB_R*%
X158478724Y-92977000D03*
X153996664Y-94648319D03*
X174277128Y-99155912D03*
X127040914Y-74428046D03*
%TO.N,/LEDB_G*%
X154987083Y-94782756D03*
X128038192Y-74494691D03*
%TO.N,Net-(D11-K)*%
X138579500Y-134479500D03*
X138697500Y-102485000D03*
%TO.N,/LEDB_B*%
X155442568Y-93879932D03*
X129037500Y-74475000D03*
%TO.N,/SPK_LN*%
X176762000Y-117195000D03*
X173237500Y-115105000D03*
%TO.N,/SPK_LP*%
X176762000Y-115175000D03*
X173247500Y-114395000D03*
%TO.N,/HP_R*%
X168533334Y-109146500D03*
X176762000Y-124375000D03*
%TO.N,/HP_L*%
X167947500Y-109255000D03*
X176762000Y-126375000D03*
%TO.N,/KB_COL5*%
X142569000Y-116072000D03*
X138819159Y-124514108D03*
%TO.N,/KB_COL2*%
X141037500Y-119012000D03*
X135864500Y-124679767D03*
D63*
%TO.N,Net-(J15-Pin_2)*%
X169487500Y-65725000D03*
X171817500Y-67835000D03*
D64*
%TO.N,/BTN_RST*%
X169896738Y-99976329D03*
X118582500Y-64740000D03*
X125387500Y-64165000D03*
X163827500Y-99805000D03*
X160756530Y-94384622D03*
%TO.N,/BTN_UI*%
X163227500Y-98525000D03*
X170827500Y-98525000D03*
X159967500Y-72195000D03*
X162995438Y-94282938D03*
%TO.N,/BTN_NET*%
X162085063Y-98525000D03*
X161632500Y-94440000D03*
X171877500Y-99215000D03*
X159418141Y-72182458D03*
X156437500Y-58245000D03*
X160017500Y-65285000D03*
%TO.N,/KB_COL1*%
X139992500Y-119564000D03*
X134491860Y-125668536D03*
%TO.N,Net-(U1-PA12)*%
X146117500Y-107705000D03*
X138547500Y-132885000D03*
%TO.N,/UI_STAT*%
X149565500Y-109160000D03*
X172082000Y-95750000D03*
X170899423Y-95773500D03*
X156849401Y-112665547D03*
X175240000Y-103410000D03*
X145767500Y-105675000D03*
%TO.N,/UI_BOOT*%
X151377500Y-109966000D03*
X150064500Y-95400000D03*
X152737500Y-90475500D03*
X161194164Y-93940782D03*
%TO.N,/NET_LED_B*%
X138637500Y-74425000D03*
X143037500Y-75525000D03*
%TO.N,/NET_LED_G*%
X139981002Y-74752500D03*
X142937500Y-74225000D03*
%TO.N,/NET_LED_R*%
X141098738Y-74721262D03*
X142950000Y-72870000D03*
%TO.N,/UI_DBG1*%
X127167500Y-116685000D03*
X150637500Y-98425000D03*
%TO.N,/UI_LED_B*%
X149137500Y-110115000D03*
X132036009Y-74475000D03*
X149892500Y-106205000D03*
X131191563Y-66900500D03*
X152188000Y-106140000D03*
%TO.N,/NET_STAT*%
X156427500Y-86725000D03*
X174725500Y-92515962D03*
X161738609Y-89452000D03*
X174622000Y-95242000D03*
%TO.N,/UI_LED_G*%
X131036506Y-74475000D03*
X154537500Y-103910000D03*
X130187500Y-66895000D03*
%TO.N,/UI_TX1_MGMT*%
X147575500Y-107206966D03*
X151635000Y-107285000D03*
X146699500Y-107128000D03*
X177010000Y-102120000D03*
%TO.N,/UI_RX1_MGMT*%
X147575500Y-106657463D03*
X176780000Y-101550000D03*
X151620000Y-106643000D03*
X145730000Y-106690000D03*
%TO.N,/NET_BOOT*%
X165199000Y-84560000D03*
X165310500Y-95298000D03*
X161967500Y-84985000D03*
%TO.N,/UI_LED_R*%
X155449604Y-98675000D03*
X130037003Y-74475000D03*
X129137500Y-66900500D03*
X158405228Y-105917272D03*
X158130000Y-98720000D03*
%TO.N,/UI_DBG2*%
X150087997Y-98425000D03*
X127157500Y-118615000D03*
%TO.N,/UI_DBG3*%
X127177500Y-120635000D03*
X128044000Y-103785000D03*
%TO.N,/UI_DBG4*%
X127287500Y-122735000D03*
X128371000Y-104945000D03*
%TO.N,/MGMT_DBG7*%
X127197500Y-128565000D03*
X162238000Y-89779000D03*
X142911435Y-95887000D03*
X166929713Y-91959713D03*
X171757500Y-92765000D03*
X143209283Y-85868990D03*
%TO.N,/NET_DBG5*%
X143867500Y-95233000D03*
X160877500Y-83075000D03*
X127197500Y-124725000D03*
X143986397Y-86646104D03*
%TO.N,/NET_DBG6*%
X160687500Y-81825000D03*
X127157500Y-126675000D03*
X143597840Y-86257547D03*
X143366397Y-95560000D03*
%TO.N,/MGMT_SWDIO*%
X175007500Y-88685000D03*
X180057500Y-90415000D03*
X170807500Y-92787000D03*
X166237500Y-134405000D03*
%TO.N,/MGMT_SWCLK*%
X174985294Y-87685745D03*
X181055237Y-90474389D03*
X167267500Y-134405000D03*
X169700000Y-92230500D03*
%TO.N,/I2S_DACLRC*%
X154337500Y-108616000D03*
X167192939Y-119538388D03*
X152377500Y-103367500D03*
X152413000Y-100852306D03*
%TO.N,/UI_SWDIO*%
X172660573Y-131870000D03*
X139867500Y-108555000D03*
X173920000Y-131870000D03*
X138012213Y-117239713D03*
%TO.N,/UI_TX1_NET*%
X154502181Y-101987819D03*
X154938820Y-101185605D03*
%TO.N,/BOOT1*%
X154028212Y-95300000D03*
X149664859Y-95022852D03*
%TO.N,/UI_RX1_NET*%
X154130000Y-100852806D03*
X154128152Y-102390380D03*
%TO.N,/I2S_BCLK*%
X153662000Y-108616000D03*
X166647709Y-119469995D03*
%TO.N,/I2S_ADCDAT*%
X168527500Y-119515000D03*
X154913000Y-108297000D03*
%TO.N,/I2S_DACDAT*%
X167741086Y-119499818D03*
X156399308Y-110443192D03*
%TO.N,/USB_TX1_MGMT*%
X152817500Y-124635000D03*
X172336000Y-92702000D03*
X176908000Y-91686000D03*
X159527500Y-123417000D03*
%TO.N,/USB_RX1_MGMT*%
X178683000Y-95242000D03*
X154097500Y-124765000D03*
X172972781Y-92789278D03*
X177856500Y-96004000D03*
X157486000Y-123757000D03*
%TD*%
D66*
%TO.N,+3.3VA*%
X168737500Y-112405000D02*
X168090000Y-113052500D01*
D67*
X160987500Y-103462500D02*
X160950000Y-103425000D01*
D68*
X159687500Y-102995000D02*
X160520000Y-102995000D01*
D67*
X169607500Y-112405000D02*
X169637500Y-112375000D01*
D68*
X156062500Y-103175000D02*
X158407500Y-103175000D01*
X158587500Y-102995000D02*
X159687500Y-102995000D01*
D66*
X169315000Y-116075000D02*
X170457500Y-116075000D01*
X170457500Y-116075000D02*
X170507500Y-116125000D01*
D67*
X160987500Y-104625000D02*
X160987500Y-103462500D01*
D68*
X160520000Y-102995000D02*
X160950000Y-103425000D01*
D66*
X168090000Y-113052500D02*
X168090000Y-113850000D01*
X165090000Y-113850000D02*
X165090000Y-113007500D01*
X165090000Y-113007500D02*
X164537500Y-112455000D01*
D67*
X168737500Y-112405000D02*
X169607500Y-112405000D01*
X170497500Y-116405000D02*
X170507500Y-116395000D01*
D68*
X158407500Y-103175000D02*
X158587500Y-102995000D01*
D67*
X170487500Y-115435000D02*
X170487500Y-116395000D01*
X170507500Y-116395000D02*
X170507500Y-116125000D01*
X163817500Y-112455000D02*
X164537500Y-112455000D01*
X170487500Y-116395000D02*
X170497500Y-116405000D01*
D68*
%TO.N,+3.3V*%
X168640000Y-92970000D02*
X168730000Y-92880000D01*
D66*
X174765000Y-109595000D02*
X175117500Y-109595000D01*
X163895000Y-118545000D02*
X164365000Y-118075000D01*
D67*
X161700000Y-130190000D02*
X161495000Y-129985000D01*
X127837500Y-138935000D02*
X127837500Y-140345000D01*
X155492500Y-128050000D02*
X155417000Y-127974500D01*
D68*
X168375000Y-100875000D02*
X169837500Y-100875000D01*
X168937500Y-103195000D02*
X168937500Y-103137500D01*
D67*
X174200000Y-84780000D02*
X174842500Y-84780000D01*
X155417000Y-127974500D02*
X154385418Y-127974500D01*
D66*
X135727878Y-136838556D02*
X135727878Y-137524622D01*
X174250000Y-110110000D02*
X174765000Y-109595000D01*
D67*
X161495000Y-129985000D02*
X161495000Y-128065000D01*
D68*
X152957500Y-96955000D02*
X153037500Y-96875000D01*
D67*
X145637500Y-99505000D02*
X144667500Y-99505000D01*
X170940000Y-130430000D02*
X170940000Y-128559000D01*
X165468038Y-120075538D02*
X165467500Y-120075000D01*
D68*
X168730000Y-92880000D02*
X169050000Y-92880000D01*
X152957500Y-97775000D02*
X152957500Y-98595000D01*
D66*
X139481500Y-113629000D02*
X138287500Y-112435000D01*
D67*
X154567500Y-112825000D02*
X155337500Y-112825000D01*
D68*
X177437500Y-94637500D02*
X176700000Y-95375000D01*
X168937500Y-103137500D02*
X169787500Y-102287500D01*
D67*
X153304918Y-129055000D02*
X151427500Y-129055000D01*
X166446962Y-120075538D02*
X165468038Y-120075538D01*
D68*
X152957500Y-97775000D02*
X152957500Y-96955000D01*
D66*
X116127500Y-139045000D02*
X116127500Y-140375000D01*
D68*
X169787500Y-101125000D02*
X169937500Y-100975000D01*
D67*
X138627500Y-60260000D02*
X138662500Y-60295000D01*
D68*
X167845000Y-101405000D02*
X168375000Y-100875000D01*
X168160000Y-92970000D02*
X168640000Y-92970000D01*
X166837500Y-101405000D02*
X167845000Y-101405000D01*
X152957500Y-98595000D02*
X153137500Y-98775000D01*
D66*
X165590000Y-119952500D02*
X165467500Y-120075000D01*
D67*
X143472500Y-69060000D02*
X142787500Y-68375000D01*
X150437500Y-122385000D02*
X151382500Y-121440000D01*
D66*
X165590000Y-118800000D02*
X165590000Y-119952500D01*
X135727878Y-137524622D02*
X135627500Y-137625000D01*
X162700000Y-101360000D02*
X162690000Y-101350000D01*
X144437500Y-111230319D02*
X144437500Y-111175000D01*
X163037500Y-118545000D02*
X163895000Y-118545000D01*
D67*
X161950000Y-130440000D02*
X161700000Y-130190000D01*
D68*
X166837500Y-102275000D02*
X166837500Y-101405000D01*
X144467500Y-109420000D02*
X144712500Y-109175000D01*
D67*
X153637500Y-59505000D02*
X153637500Y-60270000D01*
X155302500Y-126590000D02*
X155302500Y-127860000D01*
X154385418Y-127974500D02*
X153304918Y-129055000D01*
D66*
X116087500Y-139005000D02*
X116127500Y-139045000D01*
D68*
X169837500Y-100875000D02*
X169937500Y-100975000D01*
X167870000Y-93260000D02*
X168160000Y-92970000D01*
X173517413Y-101104913D02*
X173787500Y-101375000D01*
X154137500Y-111100000D02*
X154137500Y-112395000D01*
D67*
X169387500Y-81885000D02*
X169387500Y-88185000D01*
X155507500Y-128065000D02*
X155492500Y-128050000D01*
D68*
X163357500Y-103425000D02*
X163787500Y-102995000D01*
D66*
X116087500Y-138535000D02*
X116087500Y-139005000D01*
D67*
X169387500Y-87935000D02*
X172542500Y-84780000D01*
X151382500Y-121440000D02*
X151492500Y-121440000D01*
D66*
X136757500Y-136799500D02*
X136757500Y-137645000D01*
D67*
X163037500Y-118545000D02*
X162167500Y-118545000D01*
X162167500Y-118545000D02*
X162137500Y-118575000D01*
X144467500Y-110225000D02*
X144467500Y-111145000D01*
D66*
X139481500Y-113970000D02*
X139481500Y-113629000D01*
D68*
X162525000Y-103425000D02*
X163357500Y-103425000D01*
D66*
X136757500Y-137645000D02*
X136737500Y-137665000D01*
X132237500Y-65005000D02*
X132187500Y-65055000D01*
D67*
X143647500Y-60280000D02*
X143662500Y-60295000D01*
D66*
X117097500Y-137525000D02*
X116087500Y-138535000D01*
D68*
X176700000Y-94687500D02*
X176137500Y-94125000D01*
D66*
X141697819Y-113970000D02*
X144437500Y-111230319D01*
D67*
X172542500Y-84780000D02*
X174200000Y-84780000D01*
X174842500Y-84780000D02*
X176137500Y-86075000D01*
D68*
X169050000Y-92880000D02*
X169787500Y-93617500D01*
X176700000Y-95375000D02*
X176700000Y-94687500D01*
D67*
X144667500Y-99505000D02*
X144637500Y-99475000D01*
D68*
X169787500Y-102287500D02*
X169787500Y-101125000D01*
D67*
X138627500Y-59345000D02*
X138627500Y-60260000D01*
D68*
X163787500Y-102995000D02*
X163787500Y-102225000D01*
D67*
X144487500Y-69060000D02*
X143472500Y-69060000D01*
X150437500Y-128065000D02*
X150437500Y-122385000D01*
D66*
X132237500Y-63505000D02*
X132237500Y-65005000D01*
D67*
X153637500Y-60270000D02*
X153662500Y-60295000D01*
D68*
X145882500Y-99750000D02*
X145637500Y-99505000D01*
X177437500Y-94255000D02*
X177437500Y-94637500D01*
X144467500Y-110225000D02*
X144467500Y-109420000D01*
D66*
X117177500Y-137605000D02*
X117097500Y-137525000D01*
D67*
X170940000Y-128559000D02*
X171574000Y-127925000D01*
D66*
X139481500Y-113970000D02*
X141697819Y-113970000D01*
D67*
X160237500Y-134425000D02*
X160237500Y-137175000D01*
X155337500Y-112825000D02*
X155387500Y-112775000D01*
X148637500Y-59665000D02*
X148637500Y-60270000D01*
X144467500Y-111145000D02*
X144437500Y-111175000D01*
X127837500Y-140345000D02*
X127757500Y-140425000D01*
X134637500Y-140075000D02*
X134637500Y-139115000D01*
D66*
X118087500Y-137605000D02*
X117177500Y-137605000D01*
D67*
X155302500Y-127860000D02*
X155507500Y-128065000D01*
D68*
X154137500Y-112395000D02*
X154567500Y-112825000D01*
X169787500Y-93617500D02*
X169787500Y-93962500D01*
D66*
X163380000Y-101360000D02*
X162700000Y-101360000D01*
D68*
X173787500Y-101375000D02*
X173787500Y-102287500D01*
X173517413Y-100968530D02*
X173517413Y-101104913D01*
D67*
X143647500Y-59455000D02*
X143647500Y-60280000D01*
X151427500Y-129055000D02*
X150437500Y-128065000D01*
D68*
X153137500Y-98775000D02*
X153137500Y-99750000D01*
D67*
X169387500Y-88185000D02*
X169387500Y-87935000D01*
D68*
X146637500Y-99750000D02*
X145882500Y-99750000D01*
D67*
X163900000Y-130440000D02*
X161950000Y-130440000D01*
%TO.N,VBUS*%
X147837500Y-139001000D02*
X147837500Y-135002500D01*
X152737500Y-135575000D02*
X153187500Y-135125000D01*
X134257500Y-105012500D02*
X133320000Y-105950000D01*
D68*
X159937500Y-129975000D02*
X159987500Y-130025000D01*
D67*
X145480000Y-132117500D02*
X146472500Y-133110000D01*
X145480000Y-131980000D02*
X144332500Y-133127500D01*
X133440000Y-103865000D02*
X134587500Y-105012500D01*
X147837500Y-135002500D02*
X147870000Y-134970000D01*
X152737500Y-139001000D02*
X152737500Y-135575000D01*
X132437500Y-103865000D02*
X133440000Y-103865000D01*
X146487500Y-133125000D02*
X146472500Y-133110000D01*
D68*
X158862500Y-129975000D02*
X159937500Y-129975000D01*
D67*
X146487500Y-134475000D02*
X146487500Y-133125000D01*
X146982500Y-134970000D02*
X146487500Y-134475000D01*
X144332500Y-133127500D02*
X143997500Y-133127500D01*
X147870000Y-134970000D02*
X146982500Y-134970000D01*
X145480000Y-131980000D02*
X145480000Y-132117500D01*
X134587500Y-105012500D02*
X134257500Y-105012500D01*
%TO.N,GND*%
X123557500Y-56555000D02*
X122387500Y-57725000D01*
D66*
X136691000Y-129645000D02*
X136501000Y-129835000D01*
D67*
X163037500Y-119505000D02*
X162207003Y-119505000D01*
X180232500Y-128730000D02*
X180587500Y-128375000D01*
X146687500Y-97145000D02*
X146167500Y-97145000D01*
X166840000Y-100590000D02*
X166655614Y-100590000D01*
D68*
X170287500Y-95112500D02*
X170270000Y-95130000D01*
D67*
X147667500Y-88165000D02*
X147487500Y-87985000D01*
X120147500Y-57725000D02*
X120127500Y-57725000D01*
D66*
X136227500Y-130635000D02*
X136227500Y-131035000D01*
D67*
X153607500Y-113605000D02*
X153587500Y-113625000D01*
X167087500Y-88185000D02*
X167087500Y-89785000D01*
D68*
X170287500Y-93962500D02*
X170287500Y-95112500D01*
D67*
X141887500Y-70325000D02*
X140987500Y-70325000D01*
D68*
X157012500Y-129975000D02*
X156487500Y-129975000D01*
D66*
X165090000Y-118800000D02*
X164642500Y-118800000D01*
D67*
X140987500Y-70325000D02*
X140937500Y-70375000D01*
X153537500Y-136775000D02*
X153537500Y-139001000D01*
D66*
X136227500Y-127435000D02*
X136654500Y-127435000D01*
D67*
X172640000Y-128730000D02*
X180232500Y-128730000D01*
D66*
X156062500Y-103675000D02*
X158307500Y-103675000D01*
D67*
X122467500Y-63425000D02*
X122467500Y-57805000D01*
X163037500Y-119505000D02*
X163937500Y-119505000D01*
D66*
X136691000Y-127471500D02*
X136691000Y-129645000D01*
D67*
X180537500Y-128325000D02*
X180587500Y-128375000D01*
D66*
X136227500Y-126915000D02*
X136217500Y-126925000D01*
X138107500Y-131540000D02*
X136227500Y-131540000D01*
D67*
X135537500Y-101475000D02*
X135587500Y-101425000D01*
X177437500Y-92998500D02*
X177437500Y-93295000D01*
X145637500Y-98545000D02*
X145637500Y-97775000D01*
D68*
X167880000Y-93930000D02*
X168640000Y-93930000D01*
D67*
X144487500Y-67790000D02*
X145723000Y-67790000D01*
D66*
X164642500Y-118800000D02*
X163937500Y-119505000D01*
D67*
X139937500Y-98915000D02*
X139937500Y-98315000D01*
D68*
X166840000Y-100590000D02*
X166837500Y-100587500D01*
D67*
X139937500Y-98315000D02*
X139797500Y-98175000D01*
X130887500Y-139055000D02*
X130887500Y-140295000D01*
D66*
X136501000Y-129835000D02*
X136227500Y-129835000D01*
D67*
X165377500Y-67995000D02*
X164857500Y-67475000D01*
X117352500Y-57725000D02*
X117067500Y-58010000D01*
D66*
X136227500Y-126130000D02*
X136227500Y-126635000D01*
D67*
X143444111Y-111285377D02*
X142157500Y-109998766D01*
X164537500Y-111115000D02*
X165077500Y-110575000D01*
D68*
X168737500Y-111495000D02*
X169571912Y-111495000D01*
D67*
X145637500Y-97775000D02*
X145587500Y-97725000D01*
D68*
X153917500Y-98195000D02*
X153637500Y-98475000D01*
D66*
X136654500Y-127435000D02*
X136691000Y-127471500D01*
X136227500Y-127035000D02*
X136227500Y-127435000D01*
X176700000Y-95875000D02*
X175288000Y-95875000D01*
D67*
X169635000Y-103875000D02*
X168737500Y-104772500D01*
D68*
X168640000Y-93930000D02*
X168730000Y-93840000D01*
X174387500Y-104275000D02*
X176287500Y-104275000D01*
D67*
X152087500Y-134015000D02*
X152864500Y-134015000D01*
X137937500Y-104365000D02*
X137937500Y-103475000D01*
D66*
X133893500Y-116510000D02*
X133893500Y-117780000D01*
D67*
X181237500Y-96395000D02*
X180587500Y-97045000D01*
X138697500Y-90972500D02*
X138697500Y-85955000D01*
X162302500Y-67475000D02*
X161987500Y-67790000D01*
X142157500Y-109998766D02*
X142157500Y-109025000D01*
X154037500Y-136275000D02*
X153537500Y-136775000D01*
X169635000Y-103875000D02*
X170887500Y-105127500D01*
X168737500Y-104772500D02*
X168737500Y-105725000D01*
X146617500Y-138581000D02*
X147037500Y-139001000D01*
X174067500Y-89715000D02*
X174067500Y-86812500D01*
D66*
X136217500Y-127025000D02*
X136227500Y-127035000D01*
D67*
X146617500Y-136495000D02*
X146617500Y-138581000D01*
X133893500Y-117780000D02*
X132532500Y-117780000D01*
X169355000Y-104155000D02*
X168937500Y-104155000D01*
X161907500Y-114125000D02*
X161087500Y-114125000D01*
X162207003Y-119505000D02*
X162137500Y-119574503D01*
X135537500Y-102737500D02*
X135537500Y-101475000D01*
X153917500Y-97775000D02*
X153917500Y-96895000D01*
D66*
X136227500Y-126635000D02*
X136227500Y-126915000D01*
D68*
X153637500Y-98475000D02*
X153637500Y-99750000D01*
D66*
X147905500Y-133974500D02*
X149921225Y-133974500D01*
D68*
X167055000Y-100375000D02*
X166840000Y-100590000D01*
D66*
X135792500Y-113970000D02*
X133893500Y-113970000D01*
X165089500Y-99205000D02*
X165727500Y-99205000D01*
D68*
X153637500Y-111100000D02*
X153637500Y-112795000D01*
D67*
X170887500Y-105127500D02*
X170887500Y-105275000D01*
X164857500Y-67475000D02*
X162302500Y-67475000D01*
D66*
X136227500Y-126130000D02*
X138107500Y-126130000D01*
D67*
X120127500Y-57725000D02*
X117352500Y-57725000D01*
D66*
X136217500Y-126925000D02*
X136217500Y-127025000D01*
D67*
X158587500Y-105025000D02*
X158587500Y-103955000D01*
D66*
X147870000Y-134010000D02*
X147905500Y-133974500D01*
X164777500Y-99517000D02*
X165089500Y-99205000D01*
D67*
X163937500Y-119505000D02*
X164507500Y-120075000D01*
X122407500Y-130655000D02*
X125247500Y-130655000D01*
X173087500Y-108275000D02*
X173087500Y-106975000D01*
X155413698Y-56555000D02*
X123557500Y-56555000D01*
X169635000Y-103875000D02*
X169355000Y-104155000D01*
D66*
X119127500Y-139015000D02*
X119127500Y-140375000D01*
D68*
X153637500Y-112795000D02*
X153607500Y-112825000D01*
D67*
X159687500Y-103955000D02*
X158587500Y-103955000D01*
X164900000Y-130440000D02*
X164900000Y-127176000D01*
D66*
X158307500Y-103675000D02*
X158587500Y-103955000D01*
D67*
X143444111Y-111285377D02*
X143444111Y-110288389D01*
X122467500Y-57805000D02*
X122387500Y-57725000D01*
X176887000Y-92448000D02*
X177437500Y-92998500D01*
X132532500Y-117780000D02*
X132487500Y-117825000D01*
X125247500Y-130655000D02*
X125287500Y-130695000D01*
D66*
X133893500Y-113970000D02*
X133893500Y-115240000D01*
X136227500Y-130232924D02*
X136227500Y-130635000D01*
D68*
X153917500Y-97775000D02*
X153917500Y-98195000D01*
D67*
X145723000Y-67790000D02*
X145987500Y-67525500D01*
X173087500Y-106975000D02*
X174987500Y-106975000D01*
X165147500Y-57585000D02*
X156443698Y-57585000D01*
X151492500Y-127907023D02*
X151492500Y-126370000D01*
X166655614Y-100590000D02*
X166104073Y-101141541D01*
X130887500Y-140295000D02*
X130757500Y-140425000D01*
D66*
X138107500Y-126130000D02*
X138107500Y-126635000D01*
D67*
X151570500Y-127985023D02*
X151492500Y-127907023D01*
X174067500Y-86812500D02*
X174200000Y-86680000D01*
X172291250Y-109071250D02*
X173087500Y-108275000D01*
D66*
X138272313Y-139748000D02*
X138272313Y-139760187D01*
D67*
X181237500Y-95125000D02*
X181237500Y-96395000D01*
X166104073Y-101141541D02*
X165938378Y-101141541D01*
X154787500Y-128874500D02*
X154737500Y-128824500D01*
D68*
X168375000Y-100375000D02*
X167055000Y-100375000D01*
D67*
X136087500Y-98175000D02*
X136087500Y-98925000D01*
D66*
X136227500Y-129835000D02*
X136227500Y-130232924D01*
D67*
X164900000Y-127176000D02*
X164716000Y-126992000D01*
X170737500Y-137175000D02*
X171417500Y-136495000D01*
X156443698Y-57585000D02*
X155413698Y-56555000D01*
X148387500Y-88165000D02*
X147667500Y-88165000D01*
D68*
X173287500Y-102287500D02*
X173287500Y-103175000D01*
D67*
X154787500Y-129595000D02*
X154787500Y-128874500D01*
X122367500Y-63525000D02*
X122467500Y-63425000D01*
X152864500Y-134015000D02*
X152887500Y-134038000D01*
X178437500Y-128325000D02*
X180537500Y-128325000D01*
D66*
X151570500Y-127985023D02*
X151760477Y-128175000D01*
D67*
X171940000Y-130430000D02*
X171940000Y-129430000D01*
D66*
X133893500Y-115240000D02*
X133893500Y-116510000D01*
X138272313Y-139760187D02*
X137637500Y-140395000D01*
D68*
X176287500Y-104275000D02*
X176287500Y-105975000D01*
D67*
X136087500Y-93582500D02*
X138697500Y-90972500D01*
D68*
X173287500Y-103175000D02*
X174387500Y-104275000D01*
D67*
X153917500Y-96895000D02*
X154137500Y-96675000D01*
X163787500Y-104825000D02*
X163787500Y-103955000D01*
X153607500Y-112825000D02*
X153607500Y-113605000D01*
X170237500Y-137175000D02*
X170737500Y-137175000D01*
X136087500Y-98145000D02*
X136087500Y-93582500D01*
X136087500Y-98175000D02*
X136087500Y-98145000D01*
X164537500Y-111495000D02*
X164537500Y-111115000D01*
D66*
X137327500Y-112435000D02*
X135792500Y-113970000D01*
X119157500Y-138985000D02*
X119127500Y-139015000D01*
D67*
X171940000Y-129430000D02*
X172640000Y-128730000D01*
X143444111Y-110288389D02*
X143507500Y-110225000D01*
X171457500Y-115335000D02*
X171457500Y-116405000D01*
D68*
X167687500Y-111495000D02*
X168737500Y-111495000D01*
D67*
X146167500Y-97145000D02*
X145587500Y-97725000D01*
D66*
X135772500Y-131540000D02*
X136227500Y-131540000D01*
X136227500Y-131035000D02*
X136227500Y-131540000D01*
D68*
X176287500Y-105975000D02*
X175187500Y-107075000D01*
D67*
X165437500Y-57875000D02*
X165147500Y-57585000D01*
D66*
X151760477Y-128175000D02*
X152297500Y-128175000D01*
D67*
X122387500Y-57725000D02*
X120147500Y-57725000D01*
%TO.N,+BATT*%
X135725023Y-92885023D02*
X135725023Y-92724977D01*
X138527500Y-99885000D02*
X138587500Y-99945000D01*
X135725023Y-92724977D02*
X136697500Y-91752500D01*
X133550000Y-102737500D02*
X133527500Y-102715000D01*
X133527500Y-102715000D02*
X133487500Y-102675000D01*
X135027500Y-99885000D02*
X134852500Y-100060000D01*
X134587500Y-102737500D02*
X133550000Y-102737500D01*
X136697500Y-91752500D02*
X136697500Y-85955000D01*
X136087500Y-99885000D02*
X137287500Y-99885000D01*
X138050000Y-92920000D02*
X137337500Y-93632500D01*
X132437500Y-101625000D02*
X133487500Y-102675000D01*
X136087500Y-99885000D02*
X135027500Y-99885000D01*
X137337500Y-93632500D02*
X137337500Y-99835000D01*
X137337500Y-99835000D02*
X137287500Y-99885000D01*
X132437500Y-100935000D02*
X132437500Y-101625000D01*
X137287500Y-99885000D02*
X138527500Y-99885000D01*
D69*
%TO.N,/RCC_OSC_IN*%
X171787500Y-102287500D02*
X171787500Y-104225000D01*
X171137500Y-106975000D02*
X170887500Y-106975000D01*
X171912500Y-106200000D02*
X171137500Y-106975000D01*
X170887500Y-106975000D02*
X169387500Y-106975000D01*
X171912500Y-104350000D02*
X171912500Y-106200000D01*
X171787500Y-104225000D02*
X171912500Y-104350000D01*
X169387500Y-106975000D02*
X168737500Y-107625000D01*
D67*
%TO.N,/VIN*%
X171687500Y-88185000D02*
X171687500Y-89555000D01*
D66*
X154787500Y-130555000D02*
X153957500Y-130555000D01*
D67*
X182747500Y-98005000D02*
X183087500Y-97665000D01*
X165557500Y-86525000D02*
X166700500Y-85382000D01*
X165787500Y-90625000D02*
X165557500Y-90395000D01*
X165557500Y-90395000D02*
X165557500Y-86525000D01*
X170597500Y-68405000D02*
X169867500Y-68405000D01*
X172017500Y-90625000D02*
X177467500Y-90625000D01*
X171687500Y-90295000D02*
X172017500Y-90625000D01*
X179967500Y-98625000D02*
X180587500Y-98005000D01*
X171687500Y-89555000D02*
X170617500Y-90625000D01*
X180587500Y-98005000D02*
X182747500Y-98005000D01*
X169867500Y-68405000D02*
X169837500Y-68435000D01*
X170617500Y-90625000D02*
X165787500Y-90625000D01*
X177467500Y-90625000D02*
X179737500Y-92895000D01*
X179737500Y-92895000D02*
X179737500Y-98625000D01*
X179737500Y-98625000D02*
X179967500Y-98625000D01*
X171687500Y-88185000D02*
X171687500Y-90295000D01*
D66*
%TO.N,/UI_SDA*%
X150757500Y-113275000D02*
X150486855Y-113004355D01*
X151637500Y-111100000D02*
X151637500Y-111853711D01*
X170937500Y-118824248D02*
X170937500Y-120124948D01*
X169688252Y-117575000D02*
X170937500Y-118824248D01*
X137201000Y-139541500D02*
X137557500Y-139185000D01*
X136657500Y-140105000D02*
X137201000Y-139561500D01*
X162139948Y-121045000D02*
X160782948Y-119688000D01*
X139481500Y-117780000D02*
X140444500Y-117780000D01*
X136737500Y-139285000D02*
X136657500Y-139365000D01*
X169315000Y-117575000D02*
X169688252Y-117575000D01*
X150887500Y-113275000D02*
X150757500Y-113275000D01*
X151637500Y-111853711D02*
X150486855Y-113004355D01*
X144326948Y-117998000D02*
X147087948Y-115237000D01*
X137201000Y-139561500D02*
X137201000Y-139541500D01*
X147087948Y-115237000D02*
X148137500Y-115237000D01*
X146924500Y-119688000D02*
X146717500Y-119895000D01*
X146717500Y-120405000D02*
X145807500Y-121315000D01*
X146717500Y-119895000D02*
X146717500Y-120405000D01*
X137557500Y-139185000D02*
X140082000Y-139185000D01*
X170017448Y-121045000D02*
X162139948Y-121045000D01*
X136657500Y-139365000D02*
X136657500Y-140105000D01*
X170937500Y-120124948D02*
X170017448Y-121045000D01*
X140082000Y-139185000D02*
X140462000Y-139565000D01*
X136737500Y-138685000D02*
X136737500Y-139285000D01*
X160782948Y-119688000D02*
X146924500Y-119688000D01*
X140662500Y-117998000D02*
X144326948Y-117998000D01*
X148254211Y-115237000D02*
X148087500Y-115237000D01*
X150486855Y-113004355D02*
X148254211Y-115237000D01*
X140444500Y-117780000D02*
X140662500Y-117998000D01*
%TO.N,Net-(U6-LINPUT3)*%
X162967500Y-115075000D02*
X162867500Y-115175000D01*
X164365000Y-115075000D02*
X162967500Y-115075000D01*
%TO.N,/UI_SCL*%
X150748062Y-113863104D02*
X150090555Y-113863104D01*
X160918396Y-119361000D02*
X146573500Y-119361000D01*
X147223396Y-115564000D02*
X144292396Y-118495000D01*
X138506800Y-118310200D02*
X138506800Y-117249800D01*
X135657500Y-138675000D02*
X135657500Y-141655000D01*
X148389659Y-115564000D02*
X147223396Y-115564000D01*
X139947500Y-139888500D02*
X140062500Y-140003500D01*
X162275396Y-120718000D02*
X160918396Y-119361000D01*
X150090555Y-113863104D02*
X148389659Y-115564000D01*
X139481500Y-116510000D02*
X145352500Y-116510000D01*
X138506800Y-117249800D02*
X139246600Y-116510000D01*
X144292396Y-118495000D02*
X138691600Y-118495000D01*
X169882000Y-120718000D02*
X162275396Y-120718000D01*
X135657500Y-141655000D02*
X136457500Y-142455000D01*
X140350997Y-140003500D02*
X140462000Y-140114503D01*
X138691600Y-118495000D02*
X138506800Y-118310200D01*
X169725804Y-118075000D02*
X170610500Y-118959696D01*
X151137500Y-111853711D02*
X151137500Y-111100000D01*
X170610500Y-119989500D02*
X169882000Y-120718000D01*
X140062500Y-140003500D02*
X140350997Y-140003500D01*
X170610500Y-118959696D02*
X170610500Y-119989500D01*
X169315000Y-118075000D02*
X169725804Y-118075000D01*
X145352500Y-116510000D02*
X146952500Y-114910000D01*
X138637500Y-142455000D02*
X138817500Y-142275000D01*
X138817500Y-139888500D02*
X139947500Y-139888500D01*
X138817500Y-142275000D02*
X138817500Y-139888500D01*
X139246600Y-116510000D02*
X139481500Y-116510000D01*
X136457500Y-142455000D02*
X138637500Y-142455000D01*
X146952500Y-114910000D02*
X148081211Y-114910000D01*
X146573500Y-119361000D02*
X146567500Y-119355000D01*
X148081211Y-114910000D02*
X151137500Y-111853711D01*
X135627500Y-138645000D02*
X135657500Y-138675000D01*
%TO.N,Net-(U6-LINPUT2)*%
X163237500Y-116225000D02*
X163887500Y-115575000D01*
X162867500Y-116225000D02*
X163237500Y-116225000D01*
X163887500Y-115575000D02*
X164365000Y-115575000D01*
D68*
%TO.N,Net-(U1-VCAP_1)*%
X146687500Y-98375000D02*
X147137500Y-98825000D01*
X147137500Y-98825000D02*
X147137500Y-99750000D01*
X146687500Y-98105000D02*
X146687500Y-98375000D01*
D66*
%TO.N,/USB_D+*%
X156087500Y-131347228D02*
X154059728Y-133375000D01*
X151000000Y-137914000D02*
X150238000Y-137914000D01*
X156087500Y-129575000D02*
X156087500Y-131347228D01*
X150238000Y-137914000D02*
X150037500Y-138114500D01*
X151843936Y-133375000D02*
X151037500Y-134181436D01*
X151037500Y-134181436D02*
X151037500Y-137951500D01*
X154059728Y-133375000D02*
X151843936Y-133375000D01*
X151037500Y-139001000D02*
X151037500Y-137951500D01*
X151037500Y-137951500D02*
X151000000Y-137914000D01*
X156225000Y-129437500D02*
X156087500Y-129575000D01*
X157087500Y-129437500D02*
X156225000Y-129437500D01*
X150037500Y-138114500D02*
X150037500Y-139001000D01*
%TO.N,/USB_D-*%
X149537500Y-137598500D02*
X149537500Y-139001000D01*
X150240500Y-140200000D02*
X150537500Y-139903000D01*
X150537500Y-134218988D02*
X150537500Y-136598500D01*
X157087500Y-130512500D02*
X157500000Y-130512500D01*
X153937500Y-133025000D02*
X151731488Y-133025000D01*
X157807500Y-130205000D02*
X157807500Y-128875000D01*
X150537500Y-136598500D02*
X149537500Y-137598500D01*
X157807500Y-128875000D02*
X156325052Y-128875000D01*
X156325052Y-128875000D02*
X155760500Y-129439552D01*
X150537500Y-139903000D02*
X150537500Y-139001000D01*
X149730000Y-140200000D02*
X150240500Y-140200000D01*
X155760500Y-129439552D02*
X155760500Y-131202000D01*
X151731488Y-133025000D02*
X150537500Y-134218988D01*
X157500000Y-130512500D02*
X157807500Y-130205000D01*
X155760500Y-131202000D02*
X153937500Y-133025000D01*
X149537500Y-140007500D02*
X149730000Y-140200000D01*
X149537500Y-139001000D02*
X149537500Y-140007500D01*
D68*
%TO.N,Net-(U1-VCAP_2)*%
X143117500Y-109025000D02*
X143387500Y-109025000D01*
X143737500Y-108675000D02*
X144712500Y-108675000D01*
X143387500Y-109025000D02*
X143737500Y-108675000D01*
D66*
%TO.N,Net-(U6-LINPUT1)*%
X163021500Y-117275000D02*
X162867500Y-117275000D01*
X164365000Y-116075000D02*
X163991748Y-116075000D01*
X163721500Y-116345248D02*
X163721500Y-116575000D01*
X163991748Y-116075000D02*
X163721500Y-116345248D01*
X163721500Y-116575000D02*
X163021500Y-117275000D01*
%TO.N,Net-(U6-MICBIAS)*%
X162947500Y-113075000D02*
X162947500Y-114045000D01*
X162947500Y-114045000D02*
X162867500Y-114125000D01*
X164365000Y-114575000D02*
X163317500Y-114575000D01*
X163317500Y-114575000D02*
X162867500Y-114125000D01*
%TO.N,Net-(U6-HP_R)*%
X166590000Y-113850000D02*
X166587500Y-113847500D01*
X166587500Y-109330000D02*
X166437500Y-109180000D01*
X166587500Y-113847500D02*
X166587500Y-109330000D01*
%TO.N,/MCLK*%
X155024000Y-106316217D02*
X155024000Y-106890211D01*
X155024000Y-106890211D02*
X155308789Y-107175000D01*
X158367500Y-111789047D02*
X158386000Y-111770547D01*
X166098551Y-119450538D02*
X166098551Y-118808551D01*
X160233996Y-98155000D02*
X160209500Y-98130504D01*
X166098551Y-118808551D02*
X166090000Y-118800000D01*
X160320500Y-98155000D02*
X160233996Y-98155000D01*
X154917903Y-106316217D02*
X155024000Y-106316217D01*
X173352000Y-95242000D02*
X173287500Y-95177500D01*
D69*
X166090000Y-119260226D02*
X166090000Y-118800000D01*
D66*
X155308789Y-107175000D02*
X156062500Y-107175000D01*
X160211225Y-94316851D02*
X160320500Y-94426126D01*
X160320500Y-94426126D02*
X160320500Y-98155000D01*
X158386000Y-111770547D02*
X158386000Y-108445000D01*
X173287500Y-95177500D02*
X173287500Y-93962500D01*
D69*
%TO.N,/RCC_OSC_OUT*%
X172587500Y-104775000D02*
X173087500Y-105275000D01*
X172287500Y-102287500D02*
X172287500Y-103875000D01*
X173087500Y-105275000D02*
X174787500Y-105275000D01*
X172587500Y-104175000D02*
X172587500Y-104775000D01*
X172287500Y-103875000D02*
X172587500Y-104175000D01*
X174787500Y-105275000D02*
X175137500Y-104925000D01*
D66*
%TO.N,/NET_SDA*%
X117160000Y-139340000D02*
X117097500Y-139277500D01*
X117097500Y-139277500D02*
X117097500Y-138545000D01*
X157682500Y-87670000D02*
X157682500Y-85550000D01*
X149960000Y-88935000D02*
X156417500Y-88935000D01*
X117160000Y-139340000D02*
X117127500Y-139372500D01*
X156417500Y-88935000D02*
X157682500Y-87670000D01*
X145262000Y-93633000D02*
X149960000Y-88935000D01*
X117127500Y-139372500D02*
X117127500Y-140375000D01*
%TO.N,/NET_SCL*%
X118087500Y-138810821D02*
X118545720Y-139269041D01*
X149939974Y-89417474D02*
X146304974Y-93052474D01*
X118087500Y-138625000D02*
X118087500Y-138810821D01*
X153097500Y-89262000D02*
X150095448Y-89262000D01*
X118545720Y-139269041D02*
X118545720Y-139956780D01*
X146304974Y-93052474D02*
X145764630Y-93592818D01*
X145764630Y-93592818D02*
X145764630Y-93960000D01*
X118545720Y-139956780D02*
X118127500Y-140375000D01*
X158952500Y-85550000D02*
X158952500Y-86862448D01*
X156552948Y-89262000D02*
X153097500Y-89262000D01*
X158952500Y-86862448D02*
X156552948Y-89262000D01*
X150095448Y-89262000D02*
X149939974Y-89417474D01*
%TO.N,/MGMT_BOOT*%
X165744000Y-99928500D02*
X165392500Y-100280000D01*
X162869500Y-100280000D02*
X162567500Y-99978000D01*
X165392500Y-100280000D02*
X162869500Y-100280000D01*
X168375000Y-98875000D02*
X167077500Y-98875000D01*
X167077500Y-98875000D02*
X166747500Y-99205000D01*
X162297500Y-137235000D02*
X162237500Y-137175000D01*
X162297500Y-139885000D02*
X162297500Y-137235000D01*
X166024000Y-99928500D02*
X165744000Y-99928500D01*
X166747500Y-99205000D02*
X166024000Y-99928500D01*
%TO.N,/MGMT_NRST*%
X175117500Y-108505000D02*
X174835000Y-108505000D01*
X174835000Y-108505000D02*
X174250000Y-109090000D01*
X175084500Y-115378000D02*
X175197500Y-115265000D01*
X164237500Y-137175000D02*
X164237500Y-135045000D01*
X172787500Y-102287500D02*
X172787500Y-100285000D01*
X168900000Y-131500000D02*
X168900000Y-125690000D01*
X163717500Y-132165500D02*
X163722000Y-132170000D01*
X171910000Y-122680000D02*
X173402292Y-122680000D01*
X163722000Y-132170000D02*
X168230000Y-132170000D01*
X174707500Y-121374792D02*
X174707708Y-121374792D01*
X168230000Y-132170000D02*
X168900000Y-131500000D01*
X164237500Y-135045000D02*
X164247500Y-135035000D01*
X172787500Y-100285000D02*
X172817500Y-100255000D01*
X173402292Y-122680000D02*
X174707500Y-121374792D01*
X175084500Y-120998000D02*
X175084500Y-115378000D01*
X174707708Y-121374792D02*
X175084500Y-120998000D01*
X168900000Y-125690000D02*
X171910000Y-122680000D01*
%TO.N,/IN_3*%
X142087500Y-141655948D02*
X142087500Y-137595000D01*
X160721095Y-133257500D02*
X158593104Y-133257500D01*
X158593104Y-133257500D02*
X156043500Y-135807104D01*
X155054133Y-116995000D02*
X155600133Y-116449000D01*
X160776095Y-133312500D02*
X160721095Y-133257500D01*
X156043500Y-141161396D02*
X155080896Y-142124000D01*
X177518052Y-130325000D02*
X174530552Y-133312500D01*
X155080896Y-142124000D02*
X142555552Y-142124000D01*
X160222074Y-116449000D02*
X160357787Y-116584713D01*
X161672000Y-115175000D02*
X161907500Y-115175000D01*
X161612000Y-115115000D02*
X161672000Y-115175000D01*
X156077500Y-116449000D02*
X160222074Y-116449000D01*
X142555552Y-142124000D02*
X142087500Y-141655948D01*
X178437500Y-130325000D02*
X177518052Y-130325000D01*
X154987500Y-116995000D02*
X155054133Y-116995000D01*
X155600133Y-116449000D02*
X156077500Y-116449000D01*
X156043500Y-135807104D02*
X156043500Y-141161396D01*
X174530552Y-133312500D02*
X160776095Y-133312500D01*
%TO.N,Net-(U6-HP_L)*%
X164832500Y-109180000D02*
X164007500Y-109180000D01*
X165274000Y-109621500D02*
X164832500Y-109180000D01*
X165274000Y-109717699D02*
X165274000Y-109621500D01*
X165667500Y-113772500D02*
X165667500Y-110018500D01*
X165590000Y-113850000D02*
X165667500Y-113772500D01*
X165574801Y-110018500D02*
X165274000Y-109717699D01*
X165667500Y-110018500D02*
X165574801Y-110018500D01*
%TO.N,/NET_RST*%
X167537500Y-96875000D02*
X168375000Y-96875000D01*
X142907500Y-70325000D02*
X142912500Y-70330000D01*
X142907500Y-70325000D02*
X145977500Y-70325000D01*
X145977500Y-70325000D02*
X146017500Y-70285000D01*
X142912500Y-70330000D02*
X144487500Y-70330000D01*
X166032500Y-95370000D02*
X167537500Y-96875000D01*
%TO.N,/UI_RST*%
X167479948Y-95875000D02*
X167154500Y-95549552D01*
X161414500Y-93202000D02*
X160694896Y-93202000D01*
X165436948Y-93202000D02*
X161414500Y-93202000D01*
X156062500Y-106175000D02*
X157744563Y-106175000D01*
X167154500Y-94919552D02*
X166768724Y-94533776D01*
X160694896Y-93202000D02*
X159717500Y-94179396D01*
X159717500Y-101955000D02*
X159737500Y-101975000D01*
X167154500Y-95549552D02*
X167154500Y-94919552D01*
X159717500Y-94179396D02*
X159717500Y-99595000D01*
X159717500Y-99595000D02*
X159717500Y-101955000D01*
X166768724Y-94533776D02*
X165436948Y-93202000D01*
X157744563Y-106175000D02*
X158041063Y-106471500D01*
X168375000Y-95875000D02*
X167479948Y-95875000D01*
%TO.N,/MIC_P*%
X156697500Y-141432292D02*
X155351792Y-142778000D01*
X161187500Y-116225000D02*
X161907500Y-116225000D01*
X160505199Y-133966500D02*
X160450199Y-133911500D01*
X177518052Y-134325000D02*
X177159552Y-133966500D01*
X141433500Y-141926844D02*
X141433500Y-138231000D01*
X141433500Y-138231000D02*
X140997500Y-137795000D01*
X154994000Y-115795000D02*
X160757500Y-115795000D01*
X142284656Y-142778000D02*
X141433500Y-141926844D01*
X160357500Y-113735000D02*
X160357500Y-115395000D01*
X161877500Y-113075000D02*
X161017500Y-113075000D01*
X177159552Y-133966500D02*
X160505199Y-133966500D01*
X160357500Y-115395000D02*
X160792500Y-115830000D01*
X155351792Y-142778000D02*
X142284656Y-142778000D01*
X178437500Y-134325000D02*
X177518052Y-134325000D01*
X160757500Y-115795000D02*
X160792500Y-115830000D01*
X160792500Y-115830000D02*
X161187500Y-116225000D01*
X156697500Y-136078000D02*
X156697500Y-141432292D01*
X158864000Y-133911500D02*
X156697500Y-136078000D01*
X161017500Y-113075000D02*
X160357500Y-113735000D01*
X160450199Y-133911500D02*
X158864000Y-133911500D01*
%TO.N,/LEDA_R*%
X173087464Y-97575036D02*
X173762749Y-98250321D01*
X133237500Y-73535000D02*
X133237500Y-74475000D01*
X175433840Y-99375000D02*
X176700000Y-99375000D01*
X174309161Y-98250321D02*
X175433840Y-99375000D01*
X173762749Y-98250321D02*
X174309161Y-98250321D01*
%TO.N,Net-(U6-AMID)*%
X167701500Y-112419000D02*
X167701500Y-113738500D01*
X167701500Y-113738500D02*
X167590000Y-113850000D01*
%TO.N,/DISP_BL*%
X165005370Y-80039744D02*
X165076000Y-80039744D01*
X180212396Y-82950104D02*
X180982396Y-82950104D01*
X156011679Y-89916000D02*
X156823844Y-89916000D01*
X147137500Y-106372500D02*
X147137500Y-111100000D01*
X150829500Y-96130500D02*
X150829500Y-95098179D01*
X181447500Y-82485000D02*
X181447500Y-80525000D01*
X180982396Y-82950104D02*
X181447500Y-82485000D01*
X163453000Y-86849708D02*
X163453000Y-81592114D01*
X150670051Y-102839949D02*
X147137500Y-106372500D01*
X162835708Y-87467000D02*
X163453000Y-86849708D01*
X163453000Y-81592114D02*
X165005370Y-80039744D01*
X177813367Y-80065838D02*
X177867552Y-80065838D01*
X181447500Y-80525000D02*
X182087500Y-79885000D01*
X179478948Y-81677234D02*
X179478948Y-82216656D01*
X182087500Y-79885000D02*
X183087500Y-79885000D01*
X159272844Y-87467000D02*
X162835708Y-87467000D01*
X150829500Y-95098179D02*
X156011679Y-89916000D01*
X177867552Y-80065838D02*
X179478948Y-81677234D01*
X156823844Y-89916000D02*
X159272844Y-87467000D01*
X179478948Y-82216656D02*
X180212396Y-82950104D01*
X149649497Y-97310503D02*
X150829500Y-96130500D01*
%TO.N,/DISP_RSTR*%
X182237500Y-83275000D02*
X183087500Y-82425000D01*
X156418023Y-90897000D02*
X157230188Y-90897000D01*
X151810500Y-95504523D02*
X156418023Y-90897000D01*
X180284500Y-88765000D02*
X181517500Y-88765000D01*
X165077620Y-81688247D02*
X165078327Y-81688247D01*
X181527500Y-83275000D02*
X182237500Y-83275000D01*
X151637500Y-99750000D02*
X151637500Y-98758000D01*
X177764713Y-81735287D02*
X177764713Y-81889765D01*
X151637500Y-98758000D02*
X151810500Y-98585000D01*
X179294500Y-83419552D02*
X179294500Y-87775000D01*
X164434000Y-87256052D02*
X164434000Y-82331867D01*
X163242052Y-88448000D02*
X164434000Y-87256052D01*
X181517500Y-88765000D02*
X181527500Y-88755000D01*
X159679188Y-88448000D02*
X163242052Y-88448000D01*
X179294500Y-87775000D02*
X180284500Y-88765000D01*
X157230188Y-90897000D02*
X159679188Y-88448000D01*
X151810500Y-98585000D02*
X151810500Y-95504523D01*
X177764713Y-81889765D02*
X179294500Y-83419552D01*
X164434000Y-82331867D02*
X165077620Y-81688247D01*
%TO.N,/LEDA_G*%
X174108109Y-97586821D02*
X175396288Y-98875000D01*
X134287500Y-73535000D02*
X134287500Y-74475000D01*
X175396288Y-98875000D02*
X176700000Y-98875000D01*
X174086897Y-97586821D02*
X174108109Y-97586821D01*
D67*
%TO.N,Net-(D10-K)*%
X126100500Y-100935000D02*
X130337500Y-100935000D01*
X168377500Y-60965000D02*
X168397500Y-60945000D01*
X124217500Y-99052000D02*
X126100500Y-100935000D01*
X170447500Y-60945000D02*
X172537500Y-63035000D01*
X161943698Y-60965000D02*
X168377500Y-60965000D01*
X160680198Y-59701500D02*
X161943698Y-60965000D01*
X124217500Y-59025000D02*
X125660500Y-57582000D01*
X156770198Y-59701500D02*
X160680198Y-59701500D01*
X130337500Y-100935000D02*
X130337500Y-103865000D01*
X125660500Y-57582000D02*
X154650698Y-57582000D01*
X154650698Y-57582000D02*
X156770198Y-59701500D01*
X172537500Y-63035000D02*
X172537500Y-64275000D01*
X168397500Y-60945000D02*
X170447500Y-60945000D01*
D66*
%TO.N,/BATTERY_MON*%
X155277500Y-102675000D02*
X154602500Y-103350000D01*
X156062500Y-102675000D02*
X155277500Y-102675000D01*
X138587500Y-98925000D02*
X138927500Y-98925000D01*
X146730000Y-102400000D02*
X145278000Y-100948000D01*
X145278000Y-100948000D02*
X140950500Y-100948000D01*
X140950500Y-100948000D02*
X139937500Y-99935000D01*
X152030133Y-102400000D02*
X146730000Y-102400000D01*
X138927500Y-98925000D02*
X139937500Y-99935000D01*
X152980133Y-103350000D02*
X152030133Y-102400000D01*
X154602500Y-103350000D02*
X152980133Y-103350000D01*
%TO.N,Net-(D3-RK)*%
X136479052Y-62521000D02*
X138662500Y-62521000D01*
X126637500Y-72515000D02*
X126637500Y-72362552D01*
X138662500Y-62521000D02*
X138662500Y-61695000D01*
X126637500Y-72362552D02*
X136479052Y-62521000D01*
%TO.N,/LEDA_B*%
X135337500Y-73535000D02*
X135337500Y-74475000D01*
X175983789Y-98375000D02*
X176700000Y-98375000D01*
X175680096Y-97640885D02*
X175699000Y-97659789D01*
X175699000Y-98090211D02*
X175983789Y-98375000D01*
X175699000Y-97659789D02*
X175699000Y-98090211D01*
X175105761Y-97640885D02*
X175680096Y-97640885D01*
%TO.N,Net-(D3-BK)*%
X140087500Y-60920000D02*
X139462500Y-60295000D01*
X140087500Y-63175000D02*
X140087500Y-60920000D01*
X136749948Y-63175000D02*
X140087500Y-63175000D01*
X128687500Y-71237448D02*
X136749948Y-63175000D01*
X128687500Y-72515000D02*
X128687500Y-71237448D01*
%TO.N,/KB_COL3*%
X136154500Y-125555000D02*
X135757500Y-125555000D01*
X157182500Y-108170000D02*
X157177500Y-108175000D01*
X135800500Y-127835000D02*
X136227500Y-127835000D01*
X145140167Y-120630430D02*
X144838737Y-120329000D01*
X141368670Y-120329000D02*
X141257670Y-120440000D01*
X135757500Y-125555000D02*
X135757500Y-127792000D01*
X157177500Y-108175000D02*
X156062500Y-108175000D01*
X135757500Y-127792000D02*
X135800500Y-127835000D01*
X144838737Y-120329000D02*
X141368670Y-120329000D01*
X136984500Y-124725000D02*
X136154500Y-125555000D01*
%TO.N,/KB_COL4*%
X138677500Y-126745000D02*
X138387500Y-127035000D01*
X157507500Y-107675000D02*
X156062500Y-107675000D01*
X138387500Y-127035000D02*
X138107500Y-127035000D01*
X141439303Y-120001500D02*
X141076037Y-120001500D01*
X138677500Y-125871500D02*
X138677500Y-126745000D01*
X141439803Y-120002000D02*
X141439303Y-120001500D01*
X145220073Y-120086769D02*
X145135304Y-120002000D01*
X141076037Y-120001500D02*
X137872000Y-123205537D01*
X137872000Y-125066000D02*
X138677500Y-125871500D01*
X137872000Y-123205537D02*
X137872000Y-125066000D01*
X145135304Y-120002000D02*
X141439803Y-120002000D01*
%TO.N,Net-(D3-GK)*%
X139462500Y-61695000D02*
X139462500Y-62848000D01*
X139462500Y-62848000D02*
X136614500Y-62848000D01*
X127662500Y-71800000D02*
X127662500Y-72515000D01*
X136614500Y-62848000D02*
X127662500Y-71800000D01*
%TO.N,Net-(D4-RK)*%
X143466604Y-65471000D02*
X153662500Y-65471000D01*
X136537500Y-72400104D02*
X143466604Y-65471000D01*
X153662500Y-65471000D02*
X153662500Y-61695000D01*
X136537500Y-72515000D02*
X136537500Y-72400104D01*
%TO.N,/DISP_DC*%
X180578500Y-84965000D02*
X183087500Y-84965000D01*
X163780000Y-86985156D02*
X163780000Y-81814617D01*
X179948500Y-84335000D02*
X180578500Y-84965000D01*
X179151948Y-82352104D02*
X179948500Y-83148656D01*
X149637500Y-97942500D02*
X151156500Y-96423500D01*
X179948500Y-83148656D02*
X179948500Y-84335000D01*
X177884072Y-80615087D02*
X179151948Y-81882963D01*
X162971156Y-87794000D02*
X163780000Y-86985156D01*
X179151948Y-81882963D02*
X179151948Y-82352104D01*
X156147127Y-90243000D02*
X156959292Y-90243000D01*
X156959292Y-90243000D02*
X159408292Y-87794000D01*
X163780000Y-81814617D02*
X165005370Y-80589247D01*
X149637500Y-99750000D02*
X149637500Y-97942500D01*
X151156500Y-96423500D02*
X151156500Y-95233627D01*
X165005370Y-80589247D02*
X165076000Y-80589247D01*
X159408292Y-87794000D02*
X162971156Y-87794000D01*
X151156500Y-95233627D02*
X156147127Y-90243000D01*
X177796668Y-80615087D02*
X177884072Y-80615087D01*
%TO.N,/DISP_CS*%
X150502500Y-95995052D02*
X150502500Y-94962731D01*
X177759286Y-79519004D02*
X177886666Y-79519004D01*
X179805948Y-82081208D02*
X180236844Y-82512104D01*
X180647500Y-87505000D02*
X183087500Y-87505000D01*
X177886666Y-79519004D02*
X179805948Y-81438286D01*
X149797265Y-96700287D02*
X150502500Y-95995052D01*
X155876231Y-89589000D02*
X156688396Y-89589000D01*
X149570306Y-101290806D02*
X154424595Y-101290806D01*
X179805948Y-81438286D02*
X179805948Y-82081208D01*
X150502500Y-94962731D02*
X155876231Y-89589000D01*
X149179000Y-100899500D02*
X149570306Y-101290806D01*
X159137396Y-87140000D02*
X162700260Y-87140000D01*
X180447500Y-87305000D02*
X180647500Y-87505000D01*
X165005370Y-79490241D02*
X165076000Y-79490241D01*
X149640287Y-96700287D02*
X149797265Y-96700287D01*
X163126000Y-86714260D02*
X163126000Y-81369611D01*
X162700260Y-87140000D02*
X163126000Y-86714260D01*
X156688396Y-89589000D02*
X159137396Y-87140000D01*
X155308789Y-102175000D02*
X156062500Y-102175000D01*
X180236844Y-82512104D02*
X180437109Y-82512104D01*
X154424595Y-101290806D02*
X155308789Y-102175000D01*
X163126000Y-81369611D02*
X165005370Y-79490241D01*
%TO.N,/DISP_SPI_SCK*%
X156553471Y-91224000D02*
X157365636Y-91224000D01*
X152137500Y-99750000D02*
X152137500Y-95639971D01*
X163377500Y-88775000D02*
X164761000Y-87391500D01*
X157365636Y-91224000D02*
X159814636Y-88775000D01*
X164761000Y-82671500D02*
X164761000Y-82625000D01*
X182787500Y-89745000D02*
X183087500Y-90045000D01*
X164761000Y-87391500D02*
X164761000Y-82671500D01*
X177734779Y-82479257D02*
X178967500Y-83711978D01*
X178967500Y-83711978D02*
X178967500Y-87910448D01*
X164761000Y-82625000D02*
X165076000Y-82310000D01*
X180802052Y-89745000D02*
X182787500Y-89745000D01*
X159814636Y-88775000D02*
X163377500Y-88775000D01*
X152137500Y-95639971D02*
X156553471Y-91224000D01*
X178967500Y-87910448D02*
X180802052Y-89745000D01*
%TO.N,/DISP_SPI_MOSI*%
X156282575Y-90570000D02*
X151483500Y-95369075D01*
X164107000Y-82033000D02*
X164107000Y-87120604D01*
X164890253Y-81249747D02*
X164107000Y-82033000D01*
X179621500Y-87639552D02*
X180308948Y-88327000D01*
X179621500Y-83284104D02*
X179621500Y-87639552D01*
X151483500Y-95369075D02*
X151483500Y-98405000D01*
X165076000Y-81138750D02*
X164965003Y-81249747D01*
X181562911Y-91060411D02*
X183087500Y-92585000D01*
X163106604Y-88121000D02*
X159543740Y-88121000D01*
X151137500Y-98751000D02*
X151137500Y-99750000D01*
X178824948Y-82487552D02*
X179621500Y-83284104D01*
X164965003Y-81249747D02*
X164890253Y-81249747D01*
X177844341Y-81164341D02*
X178824948Y-82144948D01*
X151483500Y-98405000D02*
X151137500Y-98751000D01*
X157094740Y-90570000D02*
X156282575Y-90570000D01*
X178824948Y-82144948D02*
X178824948Y-82487552D01*
X159543740Y-88121000D02*
X157094740Y-90570000D01*
X177813193Y-81164341D02*
X177844341Y-81164341D01*
X164107000Y-87120604D02*
X163106604Y-88121000D01*
X181562911Y-90264103D02*
X181562911Y-91060411D01*
X180308948Y-88327000D02*
X180997500Y-88327000D01*
%TO.N,/UI_TX3*%
X148176888Y-100966212D02*
X148176888Y-99789388D01*
X128857500Y-141355000D02*
X128857500Y-140525000D01*
X148176888Y-99789388D02*
X148137500Y-99750000D01*
X128857500Y-141355000D02*
X128857500Y-142435000D01*
X128857500Y-142435000D02*
X128847500Y-142445000D01*
X128857500Y-140525000D02*
X128757500Y-140425000D01*
%TO.N,/UI_RX3*%
X147637500Y-99750000D02*
X147637500Y-100945000D01*
X129757500Y-141255000D02*
X129857500Y-141355000D01*
X147637500Y-100945000D02*
X147627500Y-100955000D01*
X129757500Y-140425000D02*
X129757500Y-141255000D01*
X129857500Y-142395000D02*
X129857500Y-141355000D01*
%TO.N,/NET_TX0_MGMT*%
X162446300Y-71600000D02*
X161987500Y-71600000D01*
X177168812Y-85505351D02*
X177108052Y-85444591D01*
X178392500Y-75126500D02*
X178392500Y-68922500D01*
X166957500Y-98375000D02*
X168375000Y-98375000D01*
X160482500Y-71600000D02*
X160427500Y-71545000D01*
X161987500Y-71600000D02*
X160482500Y-71600000D01*
X167850000Y-66417500D02*
X167850000Y-66170000D01*
X167877500Y-66445000D02*
X167850000Y-66417500D01*
X178392500Y-68922500D02*
X175915000Y-66445000D01*
X177108052Y-85444591D02*
X177108052Y-83865411D01*
X164311000Y-95728500D02*
X166957500Y-98375000D01*
D68*
X166900000Y-127368498D02*
X166900000Y-130440000D01*
D66*
X164311000Y-95071500D02*
X164311000Y-95728500D01*
D68*
X166832002Y-127300500D02*
X166900000Y-127368498D01*
D66*
X175915000Y-66445000D02*
X167877500Y-66445000D01*
X163016680Y-71029620D02*
X162446300Y-71600000D01*
%TO.N,Net-(D4-BK)*%
X138637500Y-71225000D02*
X143737500Y-66125000D01*
X154507500Y-60295000D02*
X154462500Y-60295000D01*
X143737500Y-66125000D02*
X155087500Y-66125000D01*
X155087500Y-66125000D02*
X155087500Y-60875000D01*
X138637500Y-72515000D02*
X138637500Y-71225000D01*
X155087500Y-60875000D02*
X154507500Y-60295000D01*
%TO.N,/KB_MIC*%
X149200353Y-96259647D02*
X149137500Y-96322500D01*
X149137500Y-96322500D02*
X149137500Y-99750000D01*
%TO.N,/NET_RX0_MGMT*%
X166150000Y-98375000D02*
X166210000Y-98315000D01*
X178167500Y-83915000D02*
X178107500Y-83855000D01*
X169620000Y-98150000D02*
X169345000Y-97875000D01*
X163112002Y-72527998D02*
X162770000Y-72870000D01*
X175779552Y-66772000D02*
X168497426Y-66772000D01*
X169345000Y-97875000D02*
X168375000Y-97875000D01*
X162770000Y-72870000D02*
X161987500Y-72870000D01*
X177954500Y-68946948D02*
X175779552Y-66772000D01*
X163104250Y-95985250D02*
X165494000Y-98375000D01*
X161987500Y-72870000D02*
X160562500Y-72870000D01*
X178167500Y-85465000D02*
X178167500Y-83915000D01*
D68*
X165832002Y-127300500D02*
X165900000Y-127368498D01*
D66*
X160562500Y-72870000D02*
X160407500Y-72715000D01*
X169620000Y-98300000D02*
X169620000Y-98150000D01*
D68*
X165900000Y-127368498D02*
X165900000Y-130440000D01*
D66*
X165494000Y-98375000D02*
X166150000Y-98375000D01*
X163104250Y-95111750D02*
X163104250Y-95985250D01*
X177954500Y-74040000D02*
X177954500Y-68946948D01*
X168497426Y-66772000D02*
X167704963Y-67564463D01*
X163112002Y-71850000D02*
X163112002Y-72527998D01*
%TO.N,Net-(D4-GK)*%
X154487500Y-65798000D02*
X143602052Y-65798000D01*
X154462500Y-61695000D02*
X154487500Y-61720000D01*
X154487500Y-61720000D02*
X154487500Y-65798000D01*
X137587500Y-72515000D02*
X137587500Y-71812552D01*
X137587500Y-71812552D02*
X141537500Y-67862552D01*
X143602052Y-65798000D02*
X141506276Y-67893776D01*
%TO.N,/KB_ROW5*%
X144712500Y-104675000D02*
X143883685Y-104675000D01*
X143194342Y-105364343D02*
X142782831Y-105775854D01*
X140035500Y-124486758D02*
X140035500Y-127236792D01*
X139979479Y-124430737D02*
X140035500Y-124486758D01*
X138637292Y-128635000D02*
X138107500Y-128635000D01*
X143384342Y-105174343D02*
X143194342Y-105364343D01*
X142782831Y-105775854D02*
X142782831Y-105932832D01*
X143883685Y-104675000D02*
X143384342Y-105174343D01*
X140035500Y-127236792D02*
X138637292Y-128635000D01*
%TO.N,/KB_ROW1*%
X135530708Y-129415000D02*
X136207500Y-129415000D01*
X141637500Y-101625000D02*
X141987500Y-101275000D01*
X136207500Y-129415000D02*
X136227500Y-129435000D01*
X144312500Y-101275000D02*
X144712500Y-101675000D01*
X134449500Y-128333792D02*
X135530708Y-129415000D01*
X141987500Y-101275000D02*
X144312500Y-101275000D01*
X134449500Y-126521414D02*
X134449500Y-128333792D01*
X134338500Y-126410414D02*
X134449500Y-126521414D01*
%TO.N,/KB_ROW2*%
X135675604Y-128635000D02*
X136227500Y-128635000D01*
X135093500Y-124868355D02*
X135093500Y-125930448D01*
X135103500Y-125940448D02*
X135103500Y-128062896D01*
X134865765Y-124640620D02*
X135093500Y-124868355D01*
X143237500Y-102175000D02*
X143037500Y-101975000D01*
X135103500Y-128062896D02*
X135675604Y-128635000D01*
X144712500Y-102175000D02*
X143237500Y-102175000D01*
X135093500Y-125930448D02*
X135103500Y-125940448D01*
%TO.N,/KB_ROW3*%
X142490951Y-102675000D02*
X144712500Y-102675000D01*
X139054500Y-126830448D02*
X138449948Y-127435000D01*
X139054500Y-125466000D02*
X139054500Y-126830448D01*
X141879176Y-103286775D02*
X142490951Y-102675000D01*
X138310500Y-124722000D02*
X139054500Y-125466000D01*
X138449948Y-127435000D02*
X138107500Y-127435000D01*
%TO.N,/MIC_N*%
X160514500Y-116122000D02*
X161587500Y-117195000D01*
X154994000Y-116435000D02*
X155307000Y-116122000D01*
X175980500Y-132325000D02*
X174666000Y-133639500D01*
X155307000Y-116122000D02*
X160514500Y-116122000D01*
X160640647Y-133639500D02*
X160585647Y-133584500D01*
X178437500Y-132325000D02*
X175980500Y-132325000D01*
X142420104Y-142451000D02*
X141760500Y-141791396D01*
X155216344Y-142451000D02*
X142420104Y-142451000D01*
X156370500Y-141296844D02*
X155216344Y-142451000D01*
X174666000Y-133639500D02*
X160640647Y-133639500D01*
X156370500Y-135942552D02*
X156370500Y-141296844D01*
X141760500Y-141791396D02*
X141760500Y-137886924D01*
X158728552Y-133584500D02*
X156370500Y-135942552D01*
X160585647Y-133584500D02*
X158728552Y-133584500D01*
X141760500Y-137886924D02*
X141543070Y-137669494D01*
%TO.N,Net-(D5-RK)*%
X143662500Y-63509000D02*
X138893500Y-63509000D01*
X138893500Y-63509000D02*
X129887500Y-72515000D01*
X143662500Y-61695000D02*
X143662500Y-63509000D01*
%TO.N,/KB_ROW4*%
X138137500Y-128205000D02*
X138107500Y-128235000D01*
X143337500Y-103175000D02*
X144712500Y-103175000D01*
X139708500Y-127101344D02*
X138604844Y-128205000D01*
X139362700Y-124433384D02*
X139708500Y-124779184D01*
X139708500Y-124779184D02*
X139708500Y-127101344D01*
X142337500Y-104175000D02*
X143337500Y-103175000D01*
X138604844Y-128205000D02*
X138137500Y-128205000D01*
%TO.N,Net-(D5-BK)*%
X144462500Y-60300000D02*
X145087500Y-60925000D01*
X131987500Y-71339896D02*
X131987500Y-72515000D01*
X145087500Y-60925000D02*
X145087500Y-64163000D01*
X144462500Y-60295000D02*
X144462500Y-60300000D01*
X145087500Y-64163000D02*
X139164396Y-64163000D01*
X139164396Y-64163000D02*
X131987500Y-71339896D01*
%TO.N,/KB_ROW6*%
X149637500Y-111853711D02*
X149637500Y-111100000D01*
X140522320Y-124534102D02*
X140362500Y-124693922D01*
X140362500Y-127372240D02*
X138699740Y-129035000D01*
X140362500Y-124693922D02*
X140362500Y-127372240D01*
X145831410Y-113929000D02*
X147562211Y-113929000D01*
X138699740Y-129035000D02*
X138107500Y-129035000D01*
X147562211Y-113929000D02*
X149637500Y-111853711D01*
X145686060Y-114074350D02*
X145831410Y-113929000D01*
%TO.N,/KB_ROW7*%
X137217500Y-130825000D02*
X137547500Y-130825000D01*
X150137500Y-111100000D02*
X150137500Y-111853711D01*
X137547500Y-130825000D02*
X137777500Y-131055000D01*
X146206428Y-114256000D02*
X145870428Y-114592000D01*
X147735211Y-114256000D02*
X146537500Y-114256000D01*
X138087500Y-131055000D02*
X138107500Y-131035000D01*
X150137500Y-111853711D02*
X147735211Y-114256000D01*
X137777500Y-131055000D02*
X138087500Y-131055000D01*
X146537500Y-114256000D02*
X146206428Y-114256000D01*
D68*
%TO.N,/UD-*%
X160827500Y-129696396D02*
X160827500Y-130605000D01*
X159617500Y-130825000D02*
X159305000Y-130512500D01*
X157842500Y-126370000D02*
X157842500Y-126711396D01*
X157842500Y-126711396D02*
X160827500Y-129696396D01*
X160827500Y-130605000D02*
X160607500Y-130825000D01*
X159305000Y-130512500D02*
X158787500Y-130512500D01*
X160607500Y-130825000D02*
X159617500Y-130825000D01*
%TO.N,/UD+*%
X158787500Y-129437500D02*
X158787500Y-128926396D01*
X156572500Y-126711396D02*
X156572500Y-126370000D01*
X158787500Y-128926396D02*
X156572500Y-126711396D01*
D66*
%TO.N,/LEDB_R*%
X175496216Y-100375000D02*
X176700000Y-100375000D01*
X158478724Y-92977000D02*
X158367724Y-93088000D01*
X155151919Y-93088000D02*
X153996664Y-94243255D01*
X126637500Y-73535000D02*
X126637500Y-74024632D01*
X153996664Y-94243255D02*
X153996664Y-94648319D01*
X158367724Y-93088000D02*
X155151919Y-93088000D01*
X174277128Y-99155912D02*
X175496216Y-100375000D01*
X126637500Y-74024632D02*
X127040914Y-74428046D01*
%TO.N,/LEDB_G*%
X154779068Y-93923299D02*
X155287367Y-93415000D01*
X160424000Y-92548000D02*
X166962000Y-92548000D01*
X159557000Y-93415000D02*
X160424000Y-92548000D01*
X127662500Y-73535000D02*
X127662500Y-74118999D01*
X168044500Y-91465500D02*
X173450448Y-91465500D01*
X166962000Y-92548000D02*
X168044500Y-91465500D01*
X154779068Y-94574741D02*
X154779068Y-93923299D01*
X154987083Y-94782756D02*
X154779068Y-94574741D01*
X127662500Y-74118999D02*
X128038192Y-74494691D01*
X174287500Y-92302552D02*
X174287500Y-93962500D01*
X173450448Y-91465500D02*
X174287500Y-92302552D01*
X155287367Y-93415000D02*
X159557000Y-93415000D01*
%TO.N,Net-(D5-GK)*%
X130937500Y-72515000D02*
X130937500Y-71927448D01*
X130937500Y-71927448D02*
X139028948Y-63836000D01*
X139028948Y-63836000D02*
X144487500Y-63836000D01*
X144487500Y-63836000D02*
X144487500Y-61720000D01*
X144487500Y-61720000D02*
X144462500Y-61695000D01*
%TO.N,Net-(D11-K)*%
X137987500Y-102455000D02*
X138667500Y-102455000D01*
X138667500Y-102455000D02*
X138697500Y-102485000D01*
X138579500Y-134479500D02*
X143474500Y-134479500D01*
X143474500Y-134479500D02*
X143997500Y-135002500D01*
%TO.N,Net-(D18-RK)*%
X138737500Y-67000104D02*
X141247604Y-64490000D01*
X138737500Y-67015000D02*
X138737500Y-67000104D01*
X133237500Y-72515000D02*
X138737500Y-67015000D01*
X141247604Y-64490000D02*
X148662500Y-64490000D01*
X148662500Y-64490000D02*
X148662500Y-61695000D01*
%TO.N,Net-(D18-BK)*%
X135337500Y-72515000D02*
X135337500Y-71339896D01*
X150087500Y-60920000D02*
X149462500Y-60295000D01*
X135337500Y-71339896D02*
X140137500Y-66539896D01*
X141518500Y-65144000D02*
X150087500Y-65144000D01*
X150087500Y-65144000D02*
X150087500Y-60920000D01*
X140137500Y-66539896D02*
X140137500Y-66525000D01*
X140137500Y-66525000D02*
X141518500Y-65144000D01*
%TO.N,Net-(D18-GK)*%
X139537500Y-66677448D02*
X134287500Y-71927448D01*
X134287500Y-71927448D02*
X134287500Y-72515000D01*
X149487500Y-64817000D02*
X141383052Y-64817000D01*
X149487500Y-61720000D02*
X149487500Y-64817000D01*
X149462500Y-61695000D02*
X149487500Y-61720000D01*
X141383052Y-64817000D02*
X139537500Y-66662552D01*
X139537500Y-66662552D02*
X139537500Y-66677448D01*
%TO.N,Net-(J9-CC1)*%
X149037500Y-135130000D02*
X149137500Y-135030000D01*
X149137500Y-135185000D02*
X149137500Y-135030000D01*
X149037500Y-139001000D02*
X149037500Y-135130000D01*
%TO.N,Net-(J9-CC2)*%
X152037500Y-135085000D02*
X152087500Y-135035000D01*
X152037500Y-139001000D02*
X152037500Y-135085000D01*
%TO.N,Net-(J10-Pin_1)*%
X122407500Y-116655000D02*
X125457500Y-116655000D01*
X125457500Y-116655000D02*
X125477500Y-116675000D01*
%TO.N,Net-(J10-Pin_2)*%
X122407500Y-118655000D02*
X125447500Y-118655000D01*
X125447500Y-118655000D02*
X125477500Y-118625000D01*
%TO.N,/LEDB_B*%
X128687500Y-73535000D02*
X128687500Y-74125000D01*
X173787500Y-92265000D02*
X173787500Y-93962500D01*
X173315000Y-91792500D02*
X173787500Y-92265000D01*
X168179948Y-91792500D02*
X173315000Y-91792500D01*
X128687500Y-74125000D02*
X129037500Y-74475000D01*
X160559448Y-92875000D02*
X167097448Y-92875000D01*
X155442568Y-93879932D02*
X159554516Y-93879932D01*
X159554516Y-93879932D02*
X160559448Y-92875000D01*
X167097448Y-92875000D02*
X168179948Y-91792500D01*
%TO.N,Net-(J10-Pin_3)*%
X122407500Y-120655000D02*
X122437500Y-120625000D01*
X122437500Y-120625000D02*
X125477500Y-120625000D01*
%TO.N,Net-(J10-Pin_4)*%
X125507500Y-122655000D02*
X125577500Y-122725000D01*
X122407500Y-122655000D02*
X125507500Y-122655000D01*
%TO.N,Net-(J10-Pin_5)*%
X125407500Y-124655000D02*
X125477500Y-124725000D01*
X122407500Y-124655000D02*
X125407500Y-124655000D01*
%TO.N,Net-(J10-Pin_6)*%
X125457500Y-126655000D02*
X125477500Y-126675000D01*
X122407500Y-126655000D02*
X125457500Y-126655000D01*
%TO.N,Net-(J10-Pin_7)*%
X122407500Y-128655000D02*
X125397500Y-128655000D01*
X125397500Y-128655000D02*
X125477500Y-128575000D01*
%TO.N,Net-(J14-Pin_2)*%
X131237500Y-63505000D02*
X131237500Y-65045000D01*
X131237500Y-65045000D02*
X131307500Y-65115000D01*
%TO.N,Net-(J14-Pin_3)*%
X130237500Y-63505000D02*
X130237500Y-65088000D01*
X130237500Y-65088000D02*
X130217500Y-65108000D01*
%TO.N,/SPK_LN*%
X169761301Y-115075000D02*
X170281301Y-114555000D01*
X172687500Y-114555000D02*
X173237500Y-115105000D01*
X169315000Y-115075000D02*
X169761301Y-115075000D01*
X178367500Y-117195000D02*
X178437500Y-117125000D01*
X170281301Y-114555000D02*
X170757500Y-114555000D01*
X176762000Y-117195000D02*
X178367500Y-117195000D01*
X170757500Y-114555000D02*
X172687500Y-114555000D01*
%TO.N,/SPK_LP*%
X170320500Y-114228000D02*
X169942500Y-113850000D01*
X173080500Y-114228000D02*
X170320500Y-114228000D01*
X173247500Y-114395000D02*
X173080500Y-114228000D01*
X169942500Y-113850000D02*
X168590000Y-113850000D01*
X178437500Y-115125000D02*
X176812000Y-115125000D01*
X176812000Y-115125000D02*
X176762000Y-115175000D01*
%TO.N,/HP_R*%
X176762000Y-124375000D02*
X178387500Y-124375000D01*
X178387500Y-124375000D02*
X178437500Y-124325000D01*
X166437500Y-106785000D02*
X168533334Y-108880834D01*
X176812000Y-124325000D02*
X176762000Y-124375000D01*
X166437500Y-106230000D02*
X166437500Y-106785000D01*
X168533334Y-108880834D02*
X168533334Y-109146500D01*
%TO.N,/HP_L*%
X164007500Y-106230000D02*
X164846000Y-107068500D01*
X176762000Y-126375000D02*
X178387500Y-126375000D01*
X178387500Y-126375000D02*
X178437500Y-126325000D01*
X168021276Y-108831224D02*
X168021276Y-109181224D01*
X166258552Y-107068500D02*
X168021276Y-108831224D01*
X164846000Y-107068500D02*
X166258552Y-107068500D01*
X168021276Y-109181224D02*
X167947500Y-109255000D01*
%TO.N,Net-(J14-Pin_4)*%
X129237500Y-65025000D02*
X129147500Y-65115000D01*
X129237500Y-63505000D02*
X129237500Y-65025000D01*
%TO.N,/KB_COL5*%
X150637500Y-111853711D02*
X147908211Y-114583000D01*
X139381500Y-125076449D02*
X139381500Y-126965896D01*
X138512396Y-127835000D02*
X138107500Y-127835000D01*
X147908211Y-114583000D02*
X147599763Y-114583000D01*
X142680000Y-116183000D02*
X145217052Y-116183000D01*
X142569000Y-116072000D02*
X142680000Y-116183000D01*
X138819159Y-124514108D02*
X139381500Y-125076449D01*
X139381500Y-126965896D02*
X138512396Y-127835000D01*
X150637500Y-111100000D02*
X150637500Y-111853711D01*
X146817052Y-114583000D02*
X147587500Y-114583000D01*
X145217052Y-116183000D02*
X146817052Y-114583000D01*
%TO.N,/KB_COL2*%
X135430500Y-127927448D02*
X135738052Y-128235000D01*
X141037500Y-119012000D02*
X141373500Y-119348000D01*
X135430500Y-125805000D02*
X135430500Y-127927448D01*
X141373500Y-119348000D02*
X143901844Y-119348000D01*
X135738052Y-128235000D02*
X136227500Y-128235000D01*
X152637500Y-112595000D02*
X152637500Y-111100000D01*
X147358844Y-115891000D02*
X149341500Y-115891000D01*
X143901844Y-119348000D02*
X147358844Y-115891000D01*
X149341500Y-115891000D02*
X152637500Y-112595000D01*
X135864500Y-124679767D02*
X135420500Y-125123767D01*
X135420500Y-125795000D02*
X135430500Y-125805000D01*
X135420500Y-125123767D02*
X135420500Y-125795000D01*
D67*
%TO.N,Net-(J15-Pin_2)*%
X171817500Y-67835000D02*
X171367500Y-67385000D01*
X170537500Y-64275000D02*
X170537500Y-64675000D01*
X170537500Y-64675000D02*
X169487500Y-65725000D01*
X171367500Y-67385000D02*
X170597500Y-67385000D01*
D66*
%TO.N,Net-(U11-IO46)*%
X147522500Y-85550000D02*
X147522500Y-86930000D01*
X147522500Y-86930000D02*
X147487500Y-86965000D01*
%TO.N,/BTN_RST*%
X170287500Y-101563331D02*
X170601000Y-101249831D01*
X125387500Y-64165000D02*
X125387500Y-62955000D01*
X160647500Y-94493652D02*
X160647500Y-98375000D01*
X163337500Y-99315000D02*
X163827500Y-99805000D01*
X118582500Y-64740000D02*
X117067500Y-64740000D01*
X160756530Y-94384622D02*
X160647500Y-94493652D01*
X170601000Y-101249831D02*
X170601000Y-100680591D01*
X160647500Y-98375000D02*
X161587500Y-99315000D01*
X170287500Y-102287500D02*
X170287500Y-101563331D01*
X170601000Y-100680591D02*
X169896738Y-99976329D01*
X161587500Y-99315000D02*
X163337500Y-99315000D01*
%TO.N,/BTN_UI*%
X163937500Y-65955000D02*
X163937500Y-64540000D01*
X162004000Y-95273669D02*
X162392669Y-94885000D01*
X159967500Y-72195000D02*
X159967500Y-71384867D01*
X160717500Y-66955000D02*
X161367500Y-66305000D01*
X163587500Y-66305000D02*
X163937500Y-65955000D01*
X162004000Y-97301500D02*
X162004000Y-95273669D01*
X170827500Y-98525000D02*
X170928000Y-98625500D01*
X124387500Y-59785000D02*
X124387500Y-63505000D01*
X163937500Y-64540000D02*
X163937500Y-63685000D01*
X170787500Y-101525779D02*
X170787500Y-102287500D01*
X163937500Y-63685000D02*
X160467500Y-60215000D01*
X124387500Y-63505000D02*
X124367500Y-63525000D01*
X170928000Y-101385279D02*
X170787500Y-101525779D01*
X170928000Y-98625500D02*
X170928000Y-101385279D01*
X154438000Y-58095500D02*
X126077000Y-58095500D01*
X159967500Y-71384867D02*
X160717500Y-70634867D01*
X156557500Y-60215000D02*
X154438000Y-58095500D01*
X163227500Y-98525000D02*
X162004000Y-97301500D01*
X162393376Y-94885000D02*
X162995438Y-94282938D01*
X162392669Y-94885000D02*
X162393376Y-94885000D01*
X161367500Y-66305000D02*
X163587500Y-66305000D01*
X126077000Y-58095500D02*
X124387500Y-59785000D01*
X160717500Y-70634867D02*
X160717500Y-66955000D01*
X160467500Y-60215000D02*
X156557500Y-60215000D01*
%TO.N,/BTN_NET*%
X171287500Y-99805000D02*
X171287500Y-102287500D01*
X162085063Y-98525000D02*
X161837500Y-98525000D01*
X156437500Y-58245000D02*
X156377500Y-58245000D01*
X160017500Y-65285000D02*
X159382500Y-65285000D01*
X160390500Y-70499419D02*
X160390500Y-65658000D01*
X171877500Y-99215000D02*
X171287500Y-99805000D01*
X124987802Y-57068500D02*
X123387500Y-58668802D01*
X159418141Y-71471778D02*
X160390500Y-70499419D01*
X123387500Y-58668802D02*
X123387500Y-63505000D01*
X156377500Y-58245000D02*
X155201000Y-57068500D01*
X160390500Y-65658000D02*
X160017500Y-65285000D01*
X159382500Y-65285000D02*
X158687500Y-64590000D01*
X155201000Y-57068500D02*
X124987802Y-57068500D01*
X123387500Y-63505000D02*
X123367500Y-63525000D01*
X161837500Y-98525000D02*
X161632500Y-98320000D01*
X159418141Y-72182458D02*
X159418141Y-71471778D01*
X161632500Y-98320000D02*
X161632500Y-94440000D01*
%TO.N,/KB_COL1*%
X147494292Y-116218000D02*
X149476948Y-116218000D01*
X140103500Y-119675000D02*
X144037292Y-119675000D01*
X134776500Y-128198344D02*
X135613156Y-129035000D01*
X135613156Y-129035000D02*
X136227500Y-129035000D01*
X152964500Y-112587365D02*
X153137500Y-112414365D01*
X152964500Y-112730448D02*
X152964500Y-112587365D01*
X144037292Y-119675000D02*
X147494292Y-116218000D01*
X153137500Y-112414365D02*
X153137500Y-111100000D01*
X149476948Y-116218000D02*
X152964500Y-112730448D01*
X134776500Y-126075896D02*
X134776500Y-128198344D01*
X134491860Y-125791256D02*
X134776500Y-126075896D01*
X139992500Y-119564000D02*
X140103500Y-119675000D01*
X134491860Y-125668536D02*
X134491860Y-125791256D01*
%TO.N,Net-(U12-STAT)*%
X136487500Y-102737500D02*
X137790000Y-101435000D01*
X137790000Y-101435000D02*
X137987500Y-101435000D01*
%TO.N,Net-(U12-PROG)*%
X136487500Y-105012500D02*
X137565000Y-105012500D01*
X137565000Y-105012500D02*
X137937500Y-105385000D01*
%TO.N,Net-(U1-PA12)*%
X144712500Y-107675000D02*
X146087500Y-107675000D01*
X137627500Y-132905000D02*
X138527500Y-132905000D01*
X138527500Y-132905000D02*
X138547500Y-132885000D01*
X146087500Y-107675000D02*
X146117500Y-107705000D01*
%TO.N,/UI_STAT*%
X174287500Y-100567448D02*
X174287500Y-102287500D01*
X144712500Y-105675000D02*
X145767500Y-105675000D01*
X170899423Y-95773500D02*
X171989000Y-96863077D01*
X151961659Y-109708000D02*
X151781159Y-109527500D01*
X172082000Y-95750000D02*
X173207000Y-96875000D01*
X171989000Y-96863077D02*
X171989000Y-98268948D01*
X173207000Y-96875000D02*
X176700000Y-96875000D01*
X150350500Y-109945000D02*
X149565500Y-109160000D01*
X156849401Y-112665547D02*
X156849401Y-112095742D01*
X150768000Y-109527500D02*
X150350500Y-109945000D01*
X171989000Y-98268948D02*
X174287500Y-100567448D01*
X175240000Y-103410000D02*
X174693789Y-103410000D01*
X154461659Y-109708000D02*
X151961659Y-109708000D01*
X174287500Y-103003711D02*
X174287500Y-102287500D01*
X156849401Y-112095742D02*
X154461659Y-109708000D01*
X174693789Y-103410000D02*
X174287500Y-103003711D01*
X151781159Y-109527500D02*
X150768000Y-109527500D01*
%TO.N,/UI_BOOT*%
X161194164Y-93940782D02*
X161599946Y-93535000D01*
X167517500Y-96375000D02*
X168375000Y-96375000D01*
X152137500Y-110346289D02*
X152137500Y-111100000D01*
X150727500Y-92485500D02*
X152737500Y-90475500D01*
X150727500Y-94275283D02*
X150727500Y-92485500D01*
X166827500Y-95685000D02*
X167517500Y-96375000D01*
X151377500Y-109966000D02*
X151757211Y-109966000D01*
X151757211Y-109966000D02*
X152137500Y-110346289D01*
X150175500Y-95289000D02*
X150175500Y-94827283D01*
X165307500Y-93535000D02*
X166827500Y-95055000D01*
X150175500Y-94827283D02*
X150727500Y-94275283D01*
X150064500Y-95400000D02*
X150175500Y-95289000D01*
X161599946Y-93535000D02*
X165307500Y-93535000D01*
X166827500Y-95055000D02*
X166827500Y-95685000D01*
%TO.N,/NET_LED_B*%
X143152500Y-75410000D02*
X144487500Y-75410000D01*
X138637500Y-73535000D02*
X138637500Y-74425000D01*
X143037500Y-75525000D02*
X143152500Y-75410000D01*
%TO.N,/NET_LED_G*%
X137587500Y-74313331D02*
X137587500Y-73535000D01*
X142937500Y-74225000D02*
X143022500Y-74140000D01*
X143022500Y-74140000D02*
X144487500Y-74140000D01*
X139981002Y-74752500D02*
X139870002Y-74863500D01*
X138137669Y-74863500D02*
X137587500Y-74313331D01*
X139870002Y-74863500D02*
X138137669Y-74863500D01*
%TO.N,/USB_DTR*%
X160429896Y-124195000D02*
X155487500Y-124195000D01*
X174787500Y-93962500D02*
X174787500Y-93246289D01*
X162271896Y-122353000D02*
X160429896Y-124195000D01*
X179174000Y-93057698D02*
X179174000Y-110068500D01*
X179174000Y-110068500D02*
X174757500Y-114485000D01*
X177363802Y-91247500D02*
X179174000Y-93057698D01*
X175072289Y-92961500D02*
X175884962Y-92961500D01*
X176323500Y-92522962D02*
X176323500Y-91650367D01*
X174757500Y-114485000D02*
X174757500Y-120862344D01*
X174787500Y-93246289D02*
X175072289Y-92961500D01*
X155487500Y-124195000D02*
X155487500Y-121455000D01*
X173266844Y-122353000D02*
X162271896Y-122353000D01*
X175884962Y-92961500D02*
X176323500Y-92522962D01*
X176323500Y-91650367D02*
X176726367Y-91247500D01*
X176726367Y-91247500D02*
X177363802Y-91247500D01*
X174757500Y-120862344D02*
X173266844Y-122353000D01*
%TO.N,/USB_RTS*%
X162004500Y-121372000D02*
X172860500Y-121372000D01*
X172860500Y-121372000D02*
X173776500Y-120456000D01*
X173776500Y-113316000D02*
X177967500Y-109125000D01*
X177967500Y-97875000D02*
X176700000Y-97875000D01*
X155147723Y-120015000D02*
X160647500Y-120015000D01*
X154032500Y-121130223D02*
X155147723Y-120015000D01*
X173776500Y-120456000D02*
X173776500Y-113316000D01*
X154032500Y-121420000D02*
X154032500Y-121130223D01*
X160647500Y-120015000D02*
X162004500Y-121372000D01*
X177967500Y-109125000D02*
X177967500Y-97875000D01*
%TO.N,/NET_LED_R*%
X140629500Y-75190500D02*
X138002221Y-75190500D01*
X141098738Y-74721262D02*
X140629500Y-75190500D01*
X138002221Y-75190500D02*
X136537500Y-73725779D01*
X142950000Y-72870000D02*
X144487500Y-72870000D01*
X136537500Y-73725779D02*
X136537500Y-73535000D01*
%TO.N,/UI_DBG1*%
X150637500Y-98425000D02*
X150637500Y-99750000D01*
X126497500Y-116675000D02*
X127157500Y-116675000D01*
X127157500Y-116675000D02*
X127167500Y-116685000D01*
%TO.N,/UI_LED_B*%
X152123000Y-106205000D02*
X152188000Y-106140000D01*
X131307500Y-66784563D02*
X131191563Y-66900500D01*
X149137500Y-111100000D02*
X149137500Y-110115000D01*
X131307500Y-66135000D02*
X131307500Y-66784563D01*
X131987500Y-74426491D02*
X132036009Y-74475000D01*
X131237500Y-66854563D02*
X131191563Y-66900500D01*
X149892500Y-106205000D02*
X152123000Y-106205000D01*
X131987500Y-73535000D02*
X131987500Y-74426491D01*
%TO.N,/NET_STAT*%
X171828000Y-95242000D02*
X171574000Y-95496000D01*
X174877500Y-100695000D02*
X174877500Y-101445000D01*
X167131500Y-91138500D02*
X173585896Y-91138500D01*
X174622000Y-95829133D02*
X174622000Y-95242000D01*
X173585896Y-91138500D02*
X174725500Y-92278104D01*
X166376000Y-91894000D02*
X167131500Y-91138500D01*
X173239867Y-95750000D02*
X172731867Y-95242000D01*
X162676500Y-89597367D02*
X162676500Y-91884000D01*
X172731867Y-95242000D02*
X171828000Y-95242000D01*
X175167867Y-96375000D02*
X174622000Y-95829133D01*
X172316000Y-96727629D02*
X172316000Y-98133500D01*
X162419633Y-89340500D02*
X162676500Y-89597367D01*
X162676500Y-91884000D02*
X162686500Y-91894000D01*
X156412500Y-86710000D02*
X156427500Y-86725000D01*
X174622000Y-95750000D02*
X173239867Y-95750000D01*
X156412500Y-85550000D02*
X156412500Y-86710000D01*
X171574000Y-95496000D02*
X171574000Y-95985629D01*
X174877500Y-101445000D02*
X174787500Y-101535000D01*
X174622000Y-95829133D02*
X174622000Y-95750000D01*
X161850109Y-89340500D02*
X162419633Y-89340500D01*
X174787500Y-101535000D02*
X174787500Y-102287500D01*
X176700000Y-96375000D02*
X175167867Y-96375000D01*
X172316000Y-98133500D02*
X174877500Y-100695000D01*
X174725500Y-92278104D02*
X174725500Y-92515962D01*
X171574000Y-95985629D02*
X172316000Y-96727629D01*
X161738609Y-89452000D02*
X161850109Y-89340500D01*
X162686500Y-91894000D02*
X166376000Y-91894000D01*
%TO.N,/UI_LED_G*%
X130937500Y-73535000D02*
X130937500Y-74375994D01*
X154537500Y-103910000D02*
X154537500Y-104903711D01*
X154537500Y-104903711D02*
X155308789Y-105675000D01*
X155308789Y-105675000D02*
X156062500Y-105675000D01*
X130217500Y-66145000D02*
X130217500Y-66865000D01*
X130937500Y-74375994D02*
X131036506Y-74475000D01*
X130217500Y-66865000D02*
X130187500Y-66895000D01*
%TO.N,/UI_TX1_MGMT*%
X144712500Y-106175000D02*
X145925000Y-106175000D01*
X176700000Y-100875000D02*
X176875000Y-100875000D01*
X177230000Y-101230000D02*
X177230000Y-101900000D01*
X177230000Y-101900000D02*
X177010000Y-102120000D01*
X151560000Y-107210000D02*
X148036068Y-107210000D01*
X148033034Y-107206966D02*
X147575500Y-107206966D01*
X151635000Y-107285000D02*
X151560000Y-107210000D01*
X148036068Y-107210000D02*
X148033034Y-107206966D01*
X146699500Y-106949500D02*
X146699500Y-107128000D01*
X145925000Y-106175000D02*
X146420000Y-106670000D01*
X146420000Y-106670000D02*
X146699500Y-106949500D01*
X176875000Y-100875000D02*
X177230000Y-101230000D01*
%TO.N,/UI_RX1_MGMT*%
X151620000Y-106643000D02*
X147589963Y-106643000D01*
X176042500Y-102287500D02*
X175287500Y-102287500D01*
X145730000Y-106690000D02*
X144727500Y-106690000D01*
X144727500Y-106690000D02*
X144712500Y-106675000D01*
X176780000Y-101550000D02*
X176042500Y-102287500D01*
X147589963Y-106643000D02*
X147575500Y-106657463D01*
%TO.N,/NET_BOOT*%
X161987500Y-84965000D02*
X161967500Y-84985000D01*
X165310500Y-95298000D02*
X165310500Y-95976331D01*
X161987500Y-84300000D02*
X161987500Y-84965000D01*
X165310500Y-95976331D02*
X166709169Y-97375000D01*
X166709169Y-97375000D02*
X168375000Y-97375000D01*
%TO.N,/UI_LED_R*%
X129147500Y-66890500D02*
X129137500Y-66900500D01*
X129887500Y-73535000D02*
X129887500Y-74325497D01*
X129147500Y-66135000D02*
X129147500Y-66890500D01*
X129887500Y-74325497D02*
X130037003Y-74475000D01*
X158405228Y-105917272D02*
X157662956Y-105175000D01*
X157662956Y-105175000D02*
X156062500Y-105175000D01*
X158085000Y-98675000D02*
X155449604Y-98675000D01*
X158130000Y-98720000D02*
X158085000Y-98675000D01*
%TO.N,/UI_DBG2*%
X150137500Y-98474503D02*
X150087997Y-98425000D01*
X127147500Y-118625000D02*
X127157500Y-118615000D01*
X150137500Y-99750000D02*
X150137500Y-98474503D01*
X126497500Y-118625000D02*
X127147500Y-118625000D01*
%TO.N,/UI_DBG3*%
X127167500Y-120625000D02*
X127177500Y-120635000D01*
X126497500Y-120625000D02*
X127167500Y-120625000D01*
X128044000Y-103785000D02*
X131374000Y-107115000D01*
X143958789Y-103675000D02*
X144712500Y-103675000D01*
X140518789Y-107115000D02*
X143958789Y-103675000D01*
X131374000Y-107115000D02*
X140518789Y-107115000D01*
%TO.N,/UI_DBG4*%
X128371000Y-104945000D02*
X128741552Y-104945000D01*
X140654237Y-107442000D02*
X143921237Y-104175000D01*
X126597500Y-122725000D02*
X127277500Y-122725000D01*
X131238552Y-107442000D02*
X140654237Y-107442000D01*
X127277500Y-122725000D02*
X127287500Y-122735000D01*
X128741552Y-104945000D02*
X131238552Y-107442000D01*
X143921237Y-104175000D02*
X144712500Y-104175000D01*
%TO.N,/MGMT_DBG7*%
X126497500Y-128575000D02*
X127187500Y-128575000D01*
X166668426Y-92221000D02*
X162493500Y-92221000D01*
X171757500Y-92765000D02*
X171757500Y-93932500D01*
X162493500Y-92221000D02*
X162227500Y-91955000D01*
X162227500Y-89789500D02*
X162238000Y-89779000D01*
X143209283Y-86025971D02*
X143209283Y-85868990D01*
X171757500Y-93932500D02*
X171787500Y-93962500D01*
X166929713Y-91959713D02*
X166668426Y-92221000D01*
X127187500Y-128575000D02*
X127197500Y-128565000D01*
X162227500Y-91955000D02*
X162227500Y-89789500D01*
X142911435Y-95887000D02*
X142911435Y-86323819D01*
X142911435Y-86323819D02*
X143209283Y-86025971D01*
%TO.N,/NET_DBG5*%
X143565435Y-87067066D02*
X143986397Y-86646104D01*
X143867500Y-94662552D02*
X143565435Y-94360487D01*
X126497500Y-124725000D02*
X127197500Y-124725000D01*
X161942500Y-83075000D02*
X161987500Y-83030000D01*
X160877500Y-83075000D02*
X161942500Y-83075000D01*
X143867500Y-95233000D02*
X143867500Y-94662552D01*
X143565435Y-94360487D02*
X143565435Y-87067066D01*
%TO.N,/NET_DBG6*%
X160752500Y-81760000D02*
X161987500Y-81760000D01*
X160687500Y-81825000D02*
X160752500Y-81760000D01*
X143238435Y-86616952D02*
X143597840Y-86257547D01*
X126497500Y-126675000D02*
X127157500Y-126675000D01*
X143238435Y-94495935D02*
X143238435Y-86616952D01*
X143366397Y-95560000D02*
X143417500Y-95508897D01*
X143417500Y-94675000D02*
X143238435Y-94495935D01*
X143417500Y-95508897D02*
X143417500Y-94675000D01*
%TO.N,/MGMT_SWDIO*%
X180057500Y-90415000D02*
X180057500Y-90095000D01*
X180057500Y-90095000D02*
X178557500Y-88595000D01*
X170807500Y-92787000D02*
X170807500Y-93942500D01*
X175097500Y-88595000D02*
X175007500Y-88685000D01*
X170807500Y-93942500D02*
X170787500Y-93962500D01*
X178557500Y-88595000D02*
X175097500Y-88595000D01*
X166237500Y-137175000D02*
X166237500Y-134405000D01*
%TO.N,/MGMT_SWCLK*%
X167240000Y-94240000D02*
X168375000Y-95375000D01*
X169589000Y-92119500D02*
X168315396Y-92119500D01*
X174985294Y-87685745D02*
X178266593Y-87685745D01*
X168315396Y-92119500D02*
X167240000Y-93194896D01*
X167267500Y-136205000D02*
X168237500Y-137175000D01*
X178266593Y-87685745D02*
X181055237Y-90474389D01*
X167267500Y-134405000D02*
X167267500Y-136205000D01*
X169700000Y-92230500D02*
X169589000Y-92119500D01*
X167240000Y-93194896D02*
X167240000Y-94240000D01*
%TO.N,/I2S_DACLRC*%
X167090000Y-118800000D02*
X167090000Y-119435449D01*
X154337500Y-107669367D02*
X154337500Y-108616000D01*
X152377500Y-103367500D02*
X152377500Y-105709367D01*
X167090000Y-119435449D02*
X167192939Y-119538388D01*
X152637500Y-100627806D02*
X152637500Y-99750000D01*
X152377500Y-105709367D02*
X154337500Y-107669367D01*
X152413000Y-100852306D02*
X152637500Y-100627806D01*
%TO.N,/UI_SWDIO*%
X160991991Y-132603500D02*
X158322208Y-132603500D01*
X155389500Y-140890500D02*
X154810000Y-141470000D01*
X172331500Y-132658500D02*
X161046991Y-132658500D01*
X140769140Y-135186500D02*
X136601448Y-135186500D01*
X138012213Y-120770287D02*
X138012213Y-117239713D01*
X161046991Y-132658500D02*
X160991991Y-132603500D01*
X142853000Y-141470000D02*
X142853000Y-137270360D01*
X155389500Y-135536208D02*
X155389500Y-140890500D01*
X154810000Y-141470000D02*
X142853000Y-141470000D01*
X136601448Y-135186500D02*
X133824500Y-132409552D01*
X173920000Y-131870000D02*
X173940000Y-131850000D01*
X133824500Y-124958000D02*
X138012213Y-120770287D01*
X173940000Y-131850000D02*
X173940000Y-130430000D01*
X142853000Y-137270360D02*
X140769140Y-135186500D01*
X133824500Y-132409552D02*
X133824500Y-124958000D01*
X158322208Y-132603500D02*
X155389500Y-135536208D01*
X172677500Y-131886927D02*
X172677500Y-132312500D01*
X172660573Y-131870000D02*
X172677500Y-131886927D01*
X140247500Y-108175000D02*
X144712500Y-108175000D01*
X139867500Y-108555000D02*
X140247500Y-108175000D01*
X172677500Y-132312500D02*
X172331500Y-132658500D01*
%TO.N,/UI_SWDCLK*%
X137573713Y-120746339D02*
X133497500Y-124822552D01*
X172484500Y-132985500D02*
X173100000Y-132370000D01*
X142691000Y-141797000D02*
X154945448Y-141797000D01*
X142526000Y-141632000D02*
X142691000Y-141797000D01*
X146637500Y-111100000D02*
X146637500Y-111365000D01*
X137573713Y-117058080D02*
X137573713Y-120746339D01*
X142526000Y-137405808D02*
X142526000Y-141632000D01*
X173100000Y-132370000D02*
X173100000Y-130590000D01*
X160911543Y-132985500D02*
X172484500Y-132985500D01*
X154945448Y-141797000D02*
X155716500Y-141025948D01*
X158457656Y-132930500D02*
X160856543Y-132930500D01*
X173100000Y-130590000D02*
X172940000Y-130430000D01*
X138651993Y-115979800D02*
X137573713Y-117058080D01*
X140633692Y-135513500D02*
X142526000Y-137405808D01*
X133497500Y-124822552D02*
X133497500Y-132545000D01*
X146637500Y-111365000D02*
X142022700Y-115979800D01*
X160856543Y-132930500D02*
X160911543Y-132985500D01*
X155716500Y-141025948D02*
X155716500Y-135671656D01*
X133497500Y-132545000D02*
X136466000Y-135513500D01*
X142022700Y-115979800D02*
X138651993Y-115979800D01*
X136466000Y-135513500D02*
X140633692Y-135513500D01*
X155716500Y-135671656D02*
X158457656Y-132930500D01*
%TO.N,/UI_TX1_NET*%
X154938820Y-101185605D02*
X155125605Y-101185605D01*
X145660000Y-100140000D02*
X144510000Y-100140000D01*
X144510000Y-100140000D02*
X142472935Y-98102935D01*
X142950000Y-85490000D02*
X142950000Y-81130000D01*
X142584435Y-94940000D02*
X142584435Y-85855565D01*
X155125605Y-101185605D02*
X155615000Y-101675000D01*
X154502181Y-101987819D02*
X154132168Y-101617806D01*
X142472935Y-98102935D02*
X142472935Y-95051500D01*
X147137806Y-101617806D02*
X145660000Y-100140000D01*
X142584435Y-85855565D02*
X142950000Y-85490000D01*
X143590000Y-80490000D02*
X144487500Y-80490000D01*
X154132168Y-101617806D02*
X147137806Y-101617806D01*
X142472935Y-95051500D02*
X142584435Y-94940000D01*
X155615000Y-101675000D02*
X156062500Y-101675000D01*
X142950000Y-81130000D02*
X143590000Y-80490000D01*
%TO.N,/BOOT1*%
X149664859Y-95025141D02*
X148637500Y-96052500D01*
X157260000Y-101170000D02*
X155011104Y-98921104D01*
X164774948Y-101360000D02*
X164400000Y-101360000D01*
X167083789Y-99950000D02*
X166464948Y-99950000D01*
X164400000Y-101360000D02*
X163670000Y-100630000D01*
X168375000Y-99375000D02*
X167658789Y-99375000D01*
X149664859Y-95022852D02*
X149664859Y-95025141D01*
X148637500Y-96052500D02*
X148637500Y-99750000D01*
X167658789Y-99375000D02*
X167083789Y-99950000D01*
X155011104Y-98921104D02*
X155011104Y-96271104D01*
X166159448Y-100255500D02*
X165879448Y-100255500D01*
X166464948Y-99950000D02*
X166159448Y-100255500D01*
X157923500Y-102413500D02*
X157260000Y-101750000D01*
X163670000Y-100630000D02*
X162690000Y-100630000D01*
X157260000Y-101750000D02*
X157260000Y-101170000D01*
X162690000Y-100630000D02*
X160906500Y-102413500D01*
X160906500Y-102413500D02*
X157923500Y-102413500D01*
X165879448Y-100255500D02*
X164774948Y-101360000D01*
X155011104Y-96271104D02*
X154040000Y-95300000D01*
%TO.N,/UI_RX1_NET*%
X143610500Y-79220000D02*
X144487500Y-79220000D01*
X142623000Y-85354552D02*
X142623000Y-80207500D01*
X154137500Y-99750000D02*
X154137500Y-100845306D01*
X144374552Y-100467000D02*
X142145935Y-98238383D01*
X142257435Y-94790000D02*
X142257435Y-85720117D01*
X145524552Y-100467000D02*
X144374552Y-100467000D01*
X147002358Y-101944806D02*
X145524552Y-100467000D01*
X154137500Y-100845306D02*
X154130000Y-100852806D01*
X153682578Y-101944806D02*
X147002358Y-101944806D01*
X142145935Y-94901500D02*
X142257435Y-94790000D01*
X154128152Y-102390380D02*
X153682578Y-101944806D01*
X142145935Y-98238383D02*
X142145935Y-94901500D01*
X142257435Y-85720117D02*
X142623000Y-85354552D01*
X142623000Y-80207500D02*
X143610500Y-79220000D01*
%TO.N,/I2S_BCLK*%
X147637500Y-109542971D02*
X147637500Y-111100000D01*
X151424010Y-108067500D02*
X149112971Y-108067500D01*
X166590000Y-119412286D02*
X166647709Y-119469995D01*
X153482000Y-108436000D02*
X151792510Y-108436000D01*
X166590000Y-118800000D02*
X166590000Y-119412286D01*
X151792510Y-108436000D02*
X151424010Y-108067500D01*
X149112971Y-108067500D02*
X147637500Y-109542971D01*
X153662000Y-108616000D02*
X153482000Y-108436000D01*
%TO.N,/I2S_ADCDAT*%
X151767562Y-108873500D02*
X151288562Y-108394500D01*
X148137500Y-109505419D02*
X148137500Y-111100000D01*
X152052055Y-108873500D02*
X151767562Y-108873500D01*
X151288562Y-108394500D02*
X149248419Y-108394500D01*
X168590000Y-118800000D02*
X168590000Y-119452500D01*
X152232555Y-109054000D02*
X152052055Y-108873500D01*
X154588500Y-109054000D02*
X152232555Y-109054000D01*
X154913000Y-108729500D02*
X154588500Y-109054000D01*
X154913000Y-108297000D02*
X154913000Y-108729500D01*
X168590000Y-119452500D02*
X168527500Y-119515000D01*
X149248419Y-108394500D02*
X148137500Y-109505419D01*
%TO.N,/I2S_DACDAT*%
X151153114Y-108721500D02*
X149383867Y-108721500D01*
X154597107Y-109381000D02*
X152097107Y-109381000D01*
X148637500Y-109467867D02*
X148637500Y-111100000D01*
X151916607Y-109200500D02*
X151632114Y-109200500D01*
X152097107Y-109381000D02*
X151916607Y-109200500D01*
X167590000Y-119348732D02*
X167741086Y-119499818D01*
X156399308Y-110443192D02*
X155659299Y-110443192D01*
X155659299Y-110443192D02*
X154597107Y-109381000D01*
X149383867Y-108721500D02*
X148637500Y-109467867D01*
X167590000Y-118800000D02*
X167590000Y-119348732D01*
X151632114Y-109200500D02*
X151153114Y-108721500D01*
%TO.N,/USB_TX1_MGMT*%
X172287500Y-93962500D02*
X172316000Y-93991000D01*
X178178000Y-92524146D02*
X177339854Y-91686000D01*
X152762500Y-124690000D02*
X152817500Y-124635000D01*
X172336000Y-92702000D02*
X172336000Y-93914000D01*
X152762500Y-126370000D02*
X152762500Y-124690000D01*
X174103500Y-113451448D02*
X178294500Y-109260448D01*
X177339854Y-91686000D02*
X176908000Y-91686000D01*
X159527500Y-123417000D02*
X160283000Y-123417000D01*
X174103500Y-120591448D02*
X174103500Y-113451448D01*
X178178000Y-95705367D02*
X178178000Y-92524146D01*
X160283000Y-123417000D02*
X162001000Y-121699000D01*
X172995948Y-121699000D02*
X174103500Y-120591448D01*
X162001000Y-121699000D02*
X172995948Y-121699000D01*
X178294500Y-109260448D02*
X178294500Y-95821867D01*
X178294500Y-95821867D02*
X178178000Y-95705367D01*
X172336000Y-93914000D02*
X172287500Y-93962500D01*
%TO.N,/USB_RX1_MGMT*%
X178686000Y-95245000D02*
X178683000Y-95242000D01*
X172787500Y-93962500D02*
X172787500Y-92974559D01*
X173131396Y-122026000D02*
X174430500Y-120726896D01*
X174430500Y-120726896D02*
X174430500Y-113586896D01*
X178686000Y-97020000D02*
X178686000Y-95245000D01*
X174430500Y-113586896D02*
X178621500Y-109395896D01*
X178621500Y-109395896D02*
X178621500Y-97084500D01*
X162136448Y-122026000D02*
X173131396Y-122026000D01*
X160307448Y-123855000D02*
X162136448Y-122026000D01*
X178621500Y-97084500D02*
X178686000Y-97020000D01*
X154097500Y-126305000D02*
X154032500Y-126370000D01*
X172754000Y-93996000D02*
X172787500Y-93962500D01*
X154097500Y-124765000D02*
X154097500Y-126305000D01*
X172787500Y-92974559D02*
X172972781Y-92789278D01*
X157584000Y-123855000D02*
X160307448Y-123855000D01*
X157486000Y-123757000D02*
X157584000Y-123855000D01*
%TO.N,/KB_LED*%
X138344500Y-132235000D02*
X137277500Y-132235000D01*
X138107500Y-129435000D02*
X138107500Y-129835000D01*
X137277500Y-132235000D02*
X136607500Y-132905000D01*
X138534500Y-130635000D02*
X138571000Y-130671500D01*
X138571000Y-130671500D02*
X138571000Y-132008500D01*
X138107500Y-129835000D02*
X138107500Y-130232924D01*
X138107500Y-130232924D02*
X138107500Y-130635000D01*
X138107500Y-130635000D02*
X138534500Y-130635000D01*
X138571000Y-132008500D02*
X138344500Y-132235000D01*
%TD*%
%TA.AperFunction,Conductor*%
%TO.N,+3.3V*%
G36*
X177246274Y-69218330D02*
G01*
X177292774Y-69271979D01*
X177304168Y-69324147D01*
X177310943Y-73786138D01*
X177302756Y-73831008D01*
X177285986Y-73875227D01*
X177285985Y-73875230D01*
X177265980Y-74039996D01*
X177265980Y-74040003D01*
X177285985Y-74204769D01*
X177303529Y-74251029D01*
X177311716Y-74295517D01*
X177318768Y-78939221D01*
X177298869Y-79007372D01*
X177276324Y-79033722D01*
X177243924Y-79062427D01*
X177243919Y-79062432D01*
X177149633Y-79199029D01*
X177090771Y-79354232D01*
X177070766Y-79519000D01*
X177070766Y-79519007D01*
X177090772Y-79683776D01*
X177142088Y-79819085D01*
X177147542Y-79889871D01*
X177146615Y-79893917D01*
X177144853Y-79901065D01*
X177124847Y-80065834D01*
X177124847Y-80065841D01*
X177144852Y-80230609D01*
X177161220Y-80273765D01*
X177166674Y-80344552D01*
X177161220Y-80363126D01*
X177128155Y-80450310D01*
X177128153Y-80450317D01*
X177108148Y-80615083D01*
X177108148Y-80615090D01*
X177128153Y-80779858D01*
X177161134Y-80866819D01*
X177166588Y-80937606D01*
X177161134Y-80956179D01*
X177144679Y-80999566D01*
X177144679Y-80999568D01*
X177124673Y-81164337D01*
X177124673Y-81164344D01*
X177144679Y-81329113D01*
X177149270Y-81341219D01*
X177154724Y-81412005D01*
X177149270Y-81430580D01*
X177096198Y-81570515D01*
X177076193Y-81735283D01*
X177076193Y-81735290D01*
X177096198Y-81900058D01*
X177146456Y-82032574D01*
X177151910Y-82103361D01*
X177132344Y-82148825D01*
X177125127Y-82159281D01*
X177125126Y-82159282D01*
X177066264Y-82314485D01*
X177046259Y-82479253D01*
X177046259Y-82479260D01*
X177066264Y-82644028D01*
X177125126Y-82799231D01*
X177219412Y-82935827D01*
X177219415Y-82935831D01*
X177248501Y-82961599D01*
X177286227Y-83021743D01*
X177285447Y-83092735D01*
X177246410Y-83152036D01*
X177181509Y-83180818D01*
X177164948Y-83181911D01*
X177025058Y-83181911D01*
X176863900Y-83221633D01*
X176716932Y-83298767D01*
X176716928Y-83298769D01*
X176592685Y-83408840D01*
X176498399Y-83545436D01*
X176489052Y-83570082D01*
X176446192Y-83626682D01*
X176379535Y-83651125D01*
X176370992Y-83651398D01*
X171374888Y-83641527D01*
X171306807Y-83621390D01*
X171260420Y-83567643D01*
X171250455Y-83497349D01*
X171280076Y-83432827D01*
X171339878Y-83394561D01*
X171361670Y-83390249D01*
X171396593Y-83386494D01*
X171533464Y-83335444D01*
X171533465Y-83335444D01*
X171650404Y-83247904D01*
X171737944Y-83130965D01*
X171737944Y-83130964D01*
X171788994Y-82994093D01*
X171795499Y-82933597D01*
X171795500Y-82933585D01*
X171795500Y-82139000D01*
X166979500Y-82139000D01*
X166979500Y-82933597D01*
X166986005Y-82994093D01*
X167037055Y-83130964D01*
X167037055Y-83130965D01*
X167124595Y-83247904D01*
X167241534Y-83335444D01*
X167385791Y-83389249D01*
X167384667Y-83392261D01*
X167433486Y-83420039D01*
X167466415Y-83482937D01*
X167460111Y-83553653D01*
X167416576Y-83609736D01*
X167349631Y-83633378D01*
X167342595Y-83633561D01*
X165665751Y-83630248D01*
X165597670Y-83610111D01*
X165551283Y-83556364D01*
X165540000Y-83504248D01*
X165540000Y-82868786D01*
X165560002Y-82800665D01*
X165582450Y-82774471D01*
X165591365Y-82766573D01*
X165685654Y-82629971D01*
X165744513Y-82474774D01*
X165744513Y-82474773D01*
X165744514Y-82474771D01*
X165764520Y-82310003D01*
X165764520Y-82309996D01*
X165744514Y-82145230D01*
X165744513Y-82145228D01*
X165744513Y-82145226D01*
X165707210Y-82046869D01*
X165701757Y-81976086D01*
X165707212Y-81957509D01*
X165746839Y-81853025D01*
X165746841Y-81853017D01*
X165766847Y-81688250D01*
X165766847Y-81688243D01*
X165759897Y-81631000D01*
X166979500Y-81631000D01*
X169133500Y-81631000D01*
X169133500Y-80377000D01*
X169641500Y-80377000D01*
X169641500Y-81631000D01*
X171795500Y-81631000D01*
X171795500Y-80836414D01*
X171795499Y-80836402D01*
X171788994Y-80775906D01*
X171737944Y-80639035D01*
X171737944Y-80639034D01*
X171650404Y-80522095D01*
X171533465Y-80434555D01*
X171396593Y-80383505D01*
X171336097Y-80377000D01*
X169641500Y-80377000D01*
X169133500Y-80377000D01*
X167438902Y-80377000D01*
X167378406Y-80383505D01*
X167241535Y-80434555D01*
X167241534Y-80434555D01*
X167124595Y-80522095D01*
X167037055Y-80639034D01*
X167037055Y-80639035D01*
X166986005Y-80775906D01*
X166979500Y-80836402D01*
X166979500Y-81631000D01*
X165759897Y-81631000D01*
X165746841Y-81523475D01*
X165720913Y-81455111D01*
X165715459Y-81384325D01*
X165720914Y-81365747D01*
X165744513Y-81303525D01*
X165744514Y-81303520D01*
X165764520Y-81138753D01*
X165764520Y-81138746D01*
X165744514Y-80973978D01*
X165719748Y-80908678D01*
X165714294Y-80837892D01*
X165719747Y-80819321D01*
X165744513Y-80754021D01*
X165761382Y-80615090D01*
X165764520Y-80589250D01*
X165764520Y-80589243D01*
X165744514Y-80424475D01*
X165728976Y-80383505D01*
X165719747Y-80359174D01*
X165714294Y-80288389D01*
X165719747Y-80269818D01*
X165744513Y-80204518D01*
X165744514Y-80204510D01*
X165764520Y-80039747D01*
X165764520Y-80039740D01*
X165744514Y-79874972D01*
X165719748Y-79809672D01*
X165714294Y-79738886D01*
X165719747Y-79720315D01*
X165744513Y-79655015D01*
X165744514Y-79655007D01*
X165764520Y-79490244D01*
X165764520Y-79490237D01*
X165744514Y-79325469D01*
X165724893Y-79273734D01*
X165685654Y-79170270D01*
X165685652Y-79170268D01*
X165685652Y-79170266D01*
X165591366Y-79033669D01*
X165591363Y-79033666D01*
X165582446Y-79025766D01*
X165544721Y-78965621D01*
X165540000Y-78931454D01*
X165540000Y-69325982D01*
X165560002Y-69257861D01*
X165613658Y-69211368D01*
X165665981Y-69199982D01*
X169552751Y-69199427D01*
X169594383Y-69206498D01*
X169656453Y-69228217D01*
X169837500Y-69248616D01*
X170018547Y-69228217D01*
X170080856Y-69206414D01*
X170122438Y-69199345D01*
X177178153Y-69198338D01*
X177246274Y-69218330D01*
G37*
%TD.AperFunction*%
%TD*%
M02*
