%TF.GenerationSoftware,KiCad,Pcbnew,7.0.5*%
%TF.CreationDate,2023-09-20T09:45:38-07:00*%
%TF.ProjectId,EV9 Board Design,45563920-426f-4617-9264-204465736967,EV8*%
%TF.SameCoordinates,Original*%
%TF.FileFunction,Copper,L4,Bot*%
%TF.FilePolarity,Positive*%
%FSLAX46Y46*%
G04 Gerber Fmt 4.6, Leading zero omitted, Abs format (unit mm)*
G04 Created by KiCad (PCBNEW 7.0.5) date 2023-09-20 09:45:38*
%MOMM*%
%LPD*%
G01*
G04 APERTURE LIST*
%TA.AperFunction,ComponentPad*%
%ADD10R,1.700000X1.700000*%
%TD*%
%TA.AperFunction,ComponentPad*%
%ADD11O,1.700000X1.700000*%
%TD*%
%TA.AperFunction,ComponentPad*%
%ADD12C,0.500000*%
%TD*%
%TA.AperFunction,ComponentPad*%
%ADD13O,1.000000X2.100000*%
%TD*%
%TA.AperFunction,ComponentPad*%
%ADD14O,1.000000X1.600000*%
%TD*%
%TA.AperFunction,ViaPad*%
%ADD15C,0.600000*%
%TD*%
%TA.AperFunction,ViaPad*%
%ADD16C,0.350000*%
%TD*%
%TA.AperFunction,ViaPad*%
%ADD17C,0.800000*%
%TD*%
%TA.AperFunction,Conductor*%
%ADD18C,0.500000*%
%TD*%
%TA.AperFunction,Conductor*%
%ADD19C,0.127000*%
%TD*%
G04 APERTURE END LIST*
D10*
%TO.P,J4,1,Pin_1*%
%TO.N,/DISP_BL*%
X183087500Y-79885000D03*
D11*
%TO.P,J4,2,Pin_2*%
%TO.N,/DISP_RSTR*%
X183087500Y-82425000D03*
%TO.P,J4,3,Pin_3*%
%TO.N,/DISP_DC*%
X183087500Y-84965000D03*
%TO.P,J4,4,Pin_4*%
%TO.N,/DISP_CS*%
X183087500Y-87505000D03*
%TO.P,J4,5,Pin_5*%
%TO.N,/DISP_SPI_SCK*%
X183087500Y-90045000D03*
%TO.P,J4,6,Pin_6*%
%TO.N,/DISP_SPI_MOSI*%
X183087500Y-92585000D03*
%TO.P,J4,7,Pin_7*%
%TO.N,GND*%
X183087500Y-95125000D03*
%TO.P,J4,8,Pin_8*%
%TO.N,/VIN*%
X183087500Y-97665000D03*
%TD*%
D12*
%TO.P,U11,41*%
%TO.N,N/C*%
X150337500Y-74810000D03*
X150337500Y-76210000D03*
X151037500Y-74110000D03*
X151037500Y-75510000D03*
X151037500Y-76910000D03*
X151737500Y-74810000D03*
X151737500Y-76210000D03*
X152437500Y-74110000D03*
X152437500Y-75510000D03*
X152437500Y-76910000D03*
X153137500Y-74810000D03*
X153137500Y-76210000D03*
%TD*%
D13*
%TO.P,J9,S1,SHIELD*%
%TO.N,unconnected-(J9-SHIELD-PadS1)*%
X145967500Y-139916000D03*
D14*
X145967500Y-144096000D03*
D13*
X154607500Y-139916000D03*
D14*
X154607500Y-144096000D03*
%TD*%
D15*
%TO.N,+3.3VA*%
X169637500Y-112375000D03*
X163607500Y-112245000D03*
X170487500Y-115435000D03*
X160987500Y-104625000D03*
D16*
%TO.N,+3.3V*%
X163787500Y-102225000D03*
X155387500Y-112775000D03*
D15*
X127837500Y-138935000D03*
D16*
X173517413Y-100968530D03*
X161495000Y-128065000D03*
D15*
X142777500Y-68375000D03*
X162137500Y-118575000D03*
D17*
X171574000Y-127925000D03*
D15*
X155492500Y-128050000D03*
X148637500Y-59665000D03*
D16*
X166446962Y-120075538D03*
X161700000Y-130190000D03*
X175117500Y-109595000D03*
X162690000Y-101350000D03*
X160237500Y-134425000D03*
D15*
X138627500Y-59345000D03*
D16*
X167870000Y-93260000D03*
X135727878Y-136838556D03*
D15*
X134637500Y-139115000D03*
X176137500Y-86025000D03*
X132187500Y-65055000D03*
X116087500Y-139005000D03*
X143637500Y-59465000D03*
X144437500Y-111175000D03*
X153637500Y-59505000D03*
D16*
X176137500Y-94125000D03*
X166837500Y-102275000D03*
D15*
X144637500Y-99445000D03*
D16*
X169937500Y-100975000D03*
D15*
X153037500Y-96875000D03*
D16*
X136757500Y-136799500D03*
D15*
%TO.N,VBUS*%
X153197500Y-135115000D03*
X146472500Y-133110000D03*
X145480000Y-131980000D03*
D16*
X159987500Y-130025000D03*
D15*
X133320000Y-105950000D03*
%TO.N,GND*%
X174147500Y-89795000D03*
D16*
X149921225Y-133974500D03*
D15*
X154737500Y-128835000D03*
X169649706Y-111417206D03*
D16*
X164777500Y-99517000D03*
D15*
X146617500Y-136495000D03*
X130887500Y-139055000D03*
X139797500Y-98175000D03*
X162027997Y-119574503D03*
X151570500Y-127985023D03*
X169635000Y-103875000D03*
X148387500Y-88165000D03*
X125287500Y-130705000D03*
X137937500Y-103475000D03*
X181267500Y-95125000D03*
D17*
X164716000Y-126992000D03*
D16*
X132487500Y-117825000D03*
D15*
X171457500Y-115335000D03*
D16*
X167880000Y-93930000D03*
D15*
X171427500Y-136495000D03*
X154137500Y-96675000D03*
D16*
X170270000Y-95130000D03*
D15*
X138272313Y-139748000D03*
X140937500Y-70375000D03*
D16*
X156525500Y-129975000D03*
D15*
X163787500Y-104825000D03*
D16*
X135772500Y-131540000D03*
D15*
X143444111Y-111285377D03*
D17*
X180464000Y-128262000D03*
D15*
X119157500Y-138985000D03*
X158587500Y-105025000D03*
D16*
X153587500Y-113625000D03*
D15*
X167087500Y-89785000D03*
X165938378Y-101141541D03*
X165392500Y-67980000D03*
X145587500Y-97725000D03*
X136087500Y-98145000D03*
X146047000Y-67525500D03*
X154037500Y-136245000D03*
X161087500Y-114095000D03*
X135637500Y-101375000D03*
D16*
X165437500Y-57875000D03*
X175288000Y-95875000D03*
D15*
X176887000Y-92448000D03*
X120127500Y-57725000D03*
X172291250Y-109071250D03*
X152887500Y-134038000D03*
X165077500Y-110575000D03*
%TO.N,+BATT*%
X134852500Y-100060000D03*
D17*
X138050000Y-92920000D03*
X135654312Y-92814312D03*
D15*
X133527500Y-102715000D03*
%TO.N,/VIN*%
X166700500Y-85212000D03*
X153957500Y-130555000D03*
X169837500Y-68435000D03*
X179737500Y-98625000D03*
D16*
%TO.N,/UI_SDA*%
X140462000Y-139565000D03*
X150887500Y-113275000D03*
X145807500Y-121315000D03*
%TO.N,/UI_SCL*%
X140462000Y-140114503D03*
X146567500Y-119355000D03*
X150748062Y-113863104D03*
%TO.N,/MCLK*%
X166098551Y-119450538D03*
X158367500Y-111789047D03*
X160209500Y-98130504D03*
X173352000Y-95242000D03*
X158386000Y-108445000D03*
X154917903Y-106316217D03*
X160211225Y-94316851D03*
%TO.N,/NET_SDA*%
X117160000Y-139340000D03*
X145262000Y-93633000D03*
%TO.N,/NET_SCL*%
X118545720Y-139269041D03*
X145764630Y-93960000D03*
%TO.N,/MGMT_BOOT*%
X162297500Y-139885000D03*
X162567500Y-99978000D03*
%TO.N,/MGMT_NRST*%
X172817500Y-100255000D03*
X175197500Y-115265000D03*
X175117500Y-108505000D03*
X163717500Y-132165500D03*
X164247500Y-135035000D03*
%TO.N,/IN_3*%
X154987500Y-116995000D03*
X142087500Y-137595000D03*
X160357787Y-116584713D03*
X161612000Y-115115000D03*
%TO.N,/NET_RST*%
X166032500Y-95370000D03*
X146017500Y-70285000D03*
%TO.N,/UI_RST*%
X159737500Y-101975000D03*
X158041063Y-106471500D03*
%TO.N,/MIC_P*%
X140997500Y-137795000D03*
X154994000Y-115795000D03*
%TO.N,/LEDA_R*%
X133237500Y-74475000D03*
X173087464Y-97575036D03*
%TO.N,/DISP_BL*%
X149649497Y-97310503D03*
X177813367Y-80065838D03*
X150670051Y-102839949D03*
X165076000Y-80039744D03*
%TO.N,/DISP_RSTR*%
X181527500Y-83275000D03*
X181527500Y-88755000D03*
X177764713Y-81735287D03*
X165078327Y-81688247D03*
%TO.N,/LEDA_G*%
X134287500Y-74475000D03*
X174086897Y-97586821D03*
D15*
%TO.N,Net-(D10-K)*%
X124217500Y-59025000D03*
X124217500Y-99052000D03*
D16*
%TO.N,/LEDA_B*%
X135337500Y-74475000D03*
X175105761Y-97640885D03*
%TO.N,/KB_COL3*%
X141257670Y-120440000D03*
X136984500Y-124725000D03*
X145140167Y-120630430D03*
X157182500Y-108170000D03*
%TO.N,/KB_COL4*%
X157507500Y-107675000D03*
X145220073Y-120086769D03*
%TO.N,/DISP_DC*%
X165076000Y-80589247D03*
X177796668Y-80615087D03*
%TO.N,/DISP_CS*%
X149640287Y-96700287D03*
X180447500Y-87305000D03*
X177759286Y-79519004D03*
X180437109Y-82512104D03*
X149179000Y-100899500D03*
X165076000Y-79490241D03*
%TO.N,/DISP_SPI_SCK*%
X165076000Y-82310000D03*
X177734779Y-82479257D03*
%TO.N,/DISP_SPI_MOSI*%
X181562911Y-90264103D03*
X177813193Y-81164341D03*
X180997500Y-88327000D03*
X165076000Y-81138750D03*
%TO.N,/UI_TX3*%
X148176888Y-100966212D03*
X128847500Y-142445000D03*
%TO.N,/UI_RX3*%
X147627500Y-100955000D03*
X129857500Y-142395000D03*
%TO.N,/NET_TX0_MGMT*%
X160427500Y-71545000D03*
X166832002Y-127300500D03*
X177108052Y-83865411D03*
X164311000Y-95071500D03*
X178392500Y-75126500D03*
X177168812Y-85505351D03*
X167850000Y-66170000D03*
X163016680Y-71029620D03*
%TO.N,/KB_MIC*%
X149200353Y-96259647D03*
D15*
X134857500Y-130145000D03*
D16*
%TO.N,/NET_RX0_MGMT*%
X166210000Y-98315000D03*
X163112002Y-71850000D03*
X165832002Y-127300500D03*
X178107500Y-83855000D03*
X169620000Y-98300000D03*
X163104250Y-95111750D03*
X178167500Y-85465000D03*
X160407500Y-72715000D03*
X167704963Y-67564463D03*
X177954500Y-74040000D03*
%TO.N,/KB_ROW5*%
X139979479Y-124430737D03*
X142782831Y-105932832D03*
%TO.N,/KB_ROW1*%
X134338500Y-126410414D03*
X141637500Y-101625000D03*
%TO.N,/KB_ROW2*%
X134865765Y-124640620D03*
X143037500Y-101975000D03*
%TO.N,/KB_ROW3*%
X141879176Y-103286775D03*
X138310500Y-124722000D03*
%TO.N,/MIC_N*%
X154994000Y-116435000D03*
X141543070Y-137669494D03*
%TO.N,/KB_ROW4*%
X142337500Y-104175000D03*
X139362700Y-124433384D03*
%TO.N,/KB_ROW6*%
X145686060Y-114074350D03*
X140522320Y-124534102D03*
%TO.N,/KB_ROW7*%
X137217500Y-130825000D03*
X145870428Y-114592000D03*
%TO.N,/LEDB_R*%
X158478724Y-92977000D03*
X153996664Y-94648319D03*
X174277128Y-99155912D03*
X127040914Y-74428046D03*
%TO.N,/LEDB_G*%
X154987083Y-94782756D03*
X128038192Y-74494691D03*
%TO.N,Net-(D11-K)*%
X138579500Y-134479500D03*
X138697500Y-102485000D03*
%TO.N,/LEDB_B*%
X155442568Y-93879932D03*
X129037500Y-74475000D03*
%TO.N,/SPK_LN*%
X176762000Y-117195000D03*
X173237500Y-115105000D03*
%TO.N,/SPK_LP*%
X176762000Y-115175000D03*
X173247500Y-114395000D03*
%TO.N,/HP_R*%
X168533334Y-109146500D03*
X176762000Y-124375000D03*
%TO.N,/HP_L*%
X167947500Y-109255000D03*
X176762000Y-126375000D03*
%TO.N,/KB_COL5*%
X142569000Y-116072000D03*
X138819159Y-124514108D03*
%TO.N,/KB_COL2*%
X141037500Y-119012000D03*
X135864500Y-124679767D03*
D15*
%TO.N,Net-(J15-Pin_2)*%
X169487500Y-65725000D03*
X171817500Y-67835000D03*
D16*
%TO.N,/BTN_RST*%
X169896738Y-99976329D03*
X118582500Y-64740000D03*
X125387500Y-64165000D03*
X163827500Y-99805000D03*
X160756530Y-94384622D03*
%TO.N,/BTN_UI*%
X163227500Y-98525000D03*
X170827500Y-98525000D03*
X159967500Y-72195000D03*
X162995438Y-94282938D03*
%TO.N,/BTN_NET*%
X162085063Y-98525000D03*
X161632500Y-94440000D03*
X171877500Y-99215000D03*
X159418141Y-72182458D03*
X156437500Y-58245000D03*
X160017500Y-65285000D03*
%TO.N,/KB_COL1*%
X139992500Y-119564000D03*
X134491860Y-125668536D03*
%TO.N,Net-(U1-PA12)*%
X146117500Y-107705000D03*
X138547500Y-132885000D03*
%TO.N,/UI_STAT*%
X149565500Y-109160000D03*
X172082000Y-95750000D03*
X170899423Y-95773500D03*
X156849401Y-112665547D03*
X175240000Y-103410000D03*
X145767500Y-105675000D03*
%TO.N,/UI_BOOT*%
X151377500Y-109966000D03*
X150064500Y-95400000D03*
X152737500Y-90475500D03*
X161194164Y-93940782D03*
%TO.N,/NET_LED_B*%
X138637500Y-74425000D03*
X143037500Y-75525000D03*
%TO.N,/NET_LED_G*%
X139981002Y-74752500D03*
X142937500Y-74225000D03*
%TO.N,/NET_LED_R*%
X141098738Y-74721262D03*
X142950000Y-72870000D03*
%TO.N,/UI_DBG1*%
X127167500Y-116685000D03*
X150637500Y-98425000D03*
%TO.N,/UI_LED_B*%
X149137500Y-110115000D03*
X132036009Y-74475000D03*
X149892500Y-106205000D03*
X131191563Y-66900500D03*
X152188000Y-106140000D03*
%TO.N,/NET_STAT*%
X156427500Y-86725000D03*
X174725500Y-92515962D03*
X161738609Y-89452000D03*
X174622000Y-95242000D03*
%TO.N,/UI_LED_G*%
X131036506Y-74475000D03*
X154537500Y-103910000D03*
X130187500Y-66895000D03*
%TO.N,/UI_TX1_MGMT*%
X147575500Y-107206966D03*
X151635000Y-107285000D03*
X146699500Y-107128000D03*
X177010000Y-102120000D03*
%TO.N,/UI_RX1_MGMT*%
X147575500Y-106657463D03*
X176780000Y-101550000D03*
X151620000Y-106643000D03*
X145730000Y-106690000D03*
%TO.N,/NET_BOOT*%
X165199000Y-84560000D03*
X165310500Y-95298000D03*
X161967500Y-84985000D03*
%TO.N,/UI_LED_R*%
X155449604Y-98675000D03*
X130037003Y-74475000D03*
X129137500Y-66900500D03*
X158405228Y-105917272D03*
X158130000Y-98720000D03*
%TO.N,/UI_DBG2*%
X150087997Y-98425000D03*
X127157500Y-118615000D03*
%TO.N,/UI_DBG3*%
X127177500Y-120635000D03*
X128044000Y-103785000D03*
%TO.N,/UI_DBG4*%
X127287500Y-122735000D03*
X128371000Y-104945000D03*
%TO.N,/MGMT_DBG7*%
X127197500Y-128565000D03*
X162238000Y-89779000D03*
X142911435Y-95887000D03*
X166929713Y-91959713D03*
X171757500Y-92765000D03*
X143209283Y-85868990D03*
%TO.N,/NET_DBG5*%
X143867500Y-95233000D03*
X160877500Y-83075000D03*
X127197500Y-124725000D03*
X143986397Y-86646104D03*
%TO.N,/NET_DBG6*%
X160687500Y-81825000D03*
X127157500Y-126675000D03*
X143597840Y-86257547D03*
X143366397Y-95560000D03*
%TO.N,/MGMT_SWDIO*%
X175007500Y-88685000D03*
X180057500Y-90415000D03*
X170807500Y-92787000D03*
X166237500Y-134405000D03*
%TO.N,/MGMT_SWCLK*%
X174985294Y-87685745D03*
X181055237Y-90474389D03*
X167267500Y-134405000D03*
X169700000Y-92230500D03*
%TO.N,/I2S_DACLRC*%
X154337500Y-108616000D03*
X167192939Y-119538388D03*
X152377500Y-103367500D03*
X152413000Y-100852306D03*
%TO.N,/UI_SWDIO*%
X172660573Y-131870000D03*
X139867500Y-108555000D03*
X173920000Y-131870000D03*
X138012213Y-117239713D03*
%TO.N,/UI_TX1_NET*%
X154502181Y-101987819D03*
X154938820Y-101185605D03*
%TO.N,/BOOT1*%
X154028212Y-95300000D03*
X149664859Y-95022852D03*
%TO.N,/UI_RX1_NET*%
X154130000Y-100852806D03*
X154128152Y-102390380D03*
%TO.N,/I2S_BCLK*%
X153662000Y-108616000D03*
X166647709Y-119469995D03*
%TO.N,/I2S_ADCDAT*%
X168527500Y-119515000D03*
X154913000Y-108297000D03*
%TO.N,/I2S_DACDAT*%
X167741086Y-119499818D03*
X156399308Y-110443192D03*
%TO.N,/USB_TX1_MGMT*%
X152817500Y-124635000D03*
X172336000Y-92702000D03*
X176908000Y-91686000D03*
X159527500Y-123417000D03*
%TO.N,/USB_RX1_MGMT*%
X178683000Y-95242000D03*
X154097500Y-124765000D03*
X172972781Y-92789278D03*
X177856500Y-96004000D03*
X157486000Y-123757000D03*
%TD*%
D18*
%TO.N,+BATT*%
X138015023Y-92885023D02*
X138050000Y-92920000D01*
X135725023Y-92885023D02*
X138015023Y-92885023D01*
D19*
%TO.N,/UI_SDA*%
X150887500Y-113275000D02*
X150716740Y-113275000D01*
X145985573Y-120403850D02*
X145394252Y-120995171D01*
X145985573Y-118006167D02*
X145985573Y-120403850D01*
X145394252Y-120995171D02*
X145394252Y-124808039D01*
X139671500Y-130530792D02*
X139671500Y-138774500D01*
X150716740Y-113275000D02*
X145985573Y-118006167D01*
X145807500Y-121315000D02*
X145985573Y-121136927D01*
X139671500Y-138774500D02*
X140462000Y-139565000D01*
X145394252Y-124808039D02*
X139671500Y-130530792D01*
X145985573Y-121136927D02*
X145985573Y-120403850D01*
%TO.N,/UI_SCL*%
X146567500Y-119355000D02*
X146522573Y-119310073D01*
X140485948Y-139126500D02*
X140649000Y-139126500D01*
X140900500Y-139746633D02*
X140532630Y-140114503D01*
X140532630Y-140114503D02*
X140462000Y-140114503D01*
X146312573Y-119310073D02*
X146312573Y-124352166D01*
X139998500Y-130666240D02*
X139998500Y-138639052D01*
X150748062Y-113863104D02*
X150591084Y-113863104D01*
X140649000Y-139126500D02*
X140900500Y-139378000D01*
X146312573Y-124352166D02*
X139998500Y-130666240D01*
X146312573Y-118141615D02*
X146312573Y-119310073D01*
X146522573Y-119310073D02*
X146312573Y-119310073D01*
X140900500Y-139378000D02*
X140900500Y-139746633D01*
X139998500Y-138639052D02*
X140485948Y-139126500D01*
X150591084Y-113863104D02*
X146312573Y-118141615D01*
%TO.N,/MCLK*%
X158283000Y-106909500D02*
X158275000Y-106917500D01*
X158993000Y-106909500D02*
X158283000Y-106909500D01*
X160209500Y-98130504D02*
X160209500Y-105693000D01*
X170169500Y-95884500D02*
X161621896Y-95884500D01*
X158367500Y-111789047D02*
X158478500Y-111900047D01*
X154917903Y-106316217D02*
X155168717Y-106316217D01*
X158275000Y-108334000D02*
X158386000Y-108445000D01*
X162204995Y-111900047D02*
X166098551Y-115793603D01*
X166098551Y-115793603D02*
X166098551Y-119450538D01*
X173352000Y-95242000D02*
X170812000Y-95242000D01*
X155168717Y-106316217D02*
X155762000Y-106909500D01*
X160211225Y-94473829D02*
X160211225Y-94316851D01*
X158275000Y-108235000D02*
X158275000Y-108334000D01*
X158275000Y-106917500D02*
X158275000Y-108235000D01*
X160209500Y-105693000D02*
X158993000Y-106909500D01*
X161621896Y-95884500D02*
X160211225Y-94473829D01*
X158478500Y-111900047D02*
X162204995Y-111900047D01*
X155762000Y-106909500D02*
X158283000Y-106909500D01*
X170812000Y-95242000D02*
X170169500Y-95884500D01*
%TO.N,/NET_SDA*%
X126230500Y-128449552D02*
X126230500Y-116294052D01*
X126625000Y-96065000D02*
X128946000Y-93744000D01*
X117160000Y-139340000D02*
X118000500Y-138499500D01*
X126625000Y-115899552D02*
X126625000Y-96065000D01*
X118000500Y-138499500D02*
X118000500Y-136679552D01*
X128946000Y-93744000D02*
X145151000Y-93744000D01*
X118000500Y-136679552D02*
X126230500Y-128449552D01*
X145151000Y-93744000D02*
X145262000Y-93633000D01*
X126230500Y-116294052D02*
X126625000Y-115899552D01*
%TO.N,/NET_SCL*%
X129529000Y-94071000D02*
X145653630Y-94071000D01*
X145653630Y-94071000D02*
X145764630Y-93960000D01*
X118545720Y-139269041D02*
X118327500Y-139050821D01*
X118327500Y-136815000D02*
X126557500Y-128585000D01*
X126557500Y-128585000D02*
X126557500Y-116429500D01*
X118327500Y-139050821D02*
X118327500Y-136815000D01*
X126952000Y-116035000D02*
X126952000Y-96648000D01*
X126557500Y-116429500D02*
X126952000Y-116035000D01*
X126952000Y-96648000D02*
X129529000Y-94071000D01*
%TO.N,/MGMT_BOOT*%
X152515000Y-109082396D02*
X152515000Y-114362500D01*
X158188633Y-109262500D02*
X156729971Y-109262500D01*
X153738396Y-107859000D02*
X152515000Y-109082396D01*
X153509000Y-115356500D02*
X155175633Y-115356500D01*
X162567500Y-99978000D02*
X162251500Y-100294000D01*
X152515000Y-114362500D02*
X153509000Y-115356500D01*
X155432000Y-115612867D02*
X155432000Y-121400367D01*
X155326471Y-107859000D02*
X153738396Y-107859000D01*
X151007500Y-130957500D02*
X159935000Y-139885000D01*
X156729971Y-109262500D02*
X155326471Y-107859000D01*
X151007500Y-125824867D02*
X151007500Y-130957500D01*
X155432000Y-121400367D02*
X151007500Y-125824867D01*
X162251500Y-100294000D02*
X162251500Y-105199633D01*
X162251500Y-105199633D02*
X158188633Y-109262500D01*
X159935000Y-139885000D02*
X162297500Y-139885000D01*
X155175633Y-115356500D02*
X155432000Y-115612867D01*
%TO.N,/MGMT_NRST*%
X175781000Y-114681500D02*
X175781000Y-109168500D01*
X163717500Y-134505000D02*
X164247500Y-135035000D01*
X175781000Y-109168500D02*
X175117500Y-108505000D01*
X172817500Y-100255000D02*
X172817500Y-106505000D01*
X175197500Y-115265000D02*
X175781000Y-114681500D01*
X174837500Y-108525000D02*
X175097500Y-108525000D01*
X172817500Y-106505000D02*
X174837500Y-108525000D01*
X163717500Y-132165500D02*
X163717500Y-134505000D01*
X175097500Y-108525000D02*
X175117500Y-108505000D01*
%TO.N,/IN_3*%
X147660000Y-124392084D02*
X147660000Y-118181532D01*
X154301500Y-116449000D02*
X154957500Y-117105000D01*
X161612000Y-115115000D02*
X161612000Y-115330500D01*
X142087500Y-137595000D02*
X142087500Y-137593791D01*
X142087500Y-137593791D02*
X140979500Y-136485791D01*
X147660000Y-118181532D02*
X149392532Y-116449000D01*
X161612000Y-115330500D02*
X160357787Y-116584713D01*
X140979500Y-131072584D02*
X147660000Y-124392084D01*
X149392532Y-116449000D02*
X154301500Y-116449000D01*
X154957500Y-117105000D02*
X154957500Y-117025000D01*
X154957500Y-117025000D02*
X154987500Y-116995000D01*
X140979500Y-136485791D02*
X140979500Y-131072584D01*
%TO.N,/NET_RST*%
X163297500Y-72397500D02*
X161900133Y-72397500D01*
X164638000Y-83378867D02*
X165637500Y-84378367D01*
X165637500Y-94975000D02*
X166032500Y-95370000D01*
X159787633Y-70285000D02*
X146017500Y-70285000D01*
X164640000Y-73740000D02*
X163297500Y-72397500D01*
X161900133Y-72397500D02*
X159787633Y-70285000D01*
X165637500Y-84378367D02*
X165637500Y-94975000D01*
X164638000Y-73748208D02*
X164638000Y-83378867D01*
%TO.N,/UI_RST*%
X159737500Y-101975000D02*
X159737500Y-105702552D01*
X158968552Y-106471500D02*
X158041063Y-106471500D01*
X159737500Y-105702552D02*
X158968552Y-106471500D01*
%TO.N,/MIC_P*%
X140997500Y-137795000D02*
X140325500Y-137123000D01*
X140325500Y-137123000D02*
X140325500Y-130801688D01*
X147006000Y-124121187D02*
X147006000Y-117910636D01*
X147006000Y-117910636D02*
X149121636Y-115795000D01*
X140325500Y-130801688D02*
X147006000Y-124121187D01*
X149121636Y-115795000D02*
X154994000Y-115795000D01*
%TO.N,/LEDA_R*%
X172704928Y-97192500D02*
X173087464Y-97575036D01*
X156066604Y-92179000D02*
X161080104Y-97192500D01*
X147512523Y-92179000D02*
X156066604Y-92179000D01*
X133237500Y-74475000D02*
X133247500Y-74485000D01*
X133247500Y-74485000D02*
X133247500Y-77913977D01*
X161080104Y-97192500D02*
X172704928Y-97192500D01*
X133247500Y-77913977D02*
X147512523Y-92179000D01*
%TO.N,/DISP_BL*%
X149649497Y-101819395D02*
X150670051Y-102839949D01*
X176382000Y-78792000D02*
X177655838Y-80065838D01*
X149649497Y-97310503D02*
X149649497Y-101819395D01*
X165076000Y-80039744D02*
X165496464Y-80039744D01*
X165496464Y-80039744D02*
X166744208Y-78792000D01*
X166744208Y-78792000D02*
X176382000Y-78792000D01*
X177655838Y-80065838D02*
X177813367Y-80065838D01*
%TO.N,/DISP_RSTR*%
X175733000Y-79773000D02*
X177695287Y-81735287D01*
X167150552Y-79773000D02*
X175733000Y-79773000D01*
X177695287Y-81735287D02*
X177764713Y-81735287D01*
X165235305Y-81688247D02*
X167150552Y-79773000D01*
X165078327Y-81688247D02*
X165235305Y-81688247D01*
X181527500Y-88755000D02*
X181527500Y-83275000D01*
%TO.N,/LEDA_G*%
X174036873Y-97586821D02*
X173315552Y-96865500D01*
X174086897Y-97586821D02*
X174036873Y-97586821D01*
X134287500Y-78491529D02*
X134287500Y-74475000D01*
X173315552Y-96865500D02*
X161215552Y-96865500D01*
X161215552Y-96865500D02*
X156202052Y-91852000D01*
X156202052Y-91852000D02*
X147647971Y-91852000D01*
X147647971Y-91852000D02*
X134287500Y-78491529D01*
%TO.N,/LEDA_B*%
X147783419Y-91525000D02*
X135337500Y-79079081D01*
X156337500Y-91525000D02*
X147783419Y-91525000D01*
X175105761Y-97640885D02*
X174003376Y-96538500D01*
X135337500Y-79079081D02*
X135337500Y-74475000D01*
X161351000Y-96538500D02*
X156337500Y-91525000D01*
X174003376Y-96538500D02*
X161351000Y-96538500D01*
%TO.N,/KB_COL3*%
X155461919Y-107532000D02*
X156865419Y-108935500D01*
X157188166Y-107236500D02*
X157024000Y-107400666D01*
X145140167Y-120630430D02*
X145296545Y-120630430D01*
X157024000Y-107400666D02*
X157024000Y-108011500D01*
X152188000Y-108946948D02*
X153602948Y-107532000D01*
X157709166Y-107236500D02*
X157188166Y-107236500D01*
X157948000Y-108487081D02*
X157948000Y-107475334D01*
X145296545Y-120630430D02*
X145658573Y-120268402D01*
X137455052Y-124725000D02*
X136984500Y-124725000D01*
X152188000Y-111341292D02*
X152188000Y-108946948D01*
X157948000Y-107475334D02*
X157709166Y-107236500D01*
X153602948Y-107532000D02*
X155461919Y-107532000D01*
X157024000Y-108011500D02*
X157182500Y-108170000D01*
X141257670Y-120440000D02*
X141257670Y-120922382D01*
X157499581Y-108935500D02*
X157948000Y-108487081D01*
X145658573Y-117870719D02*
X152188000Y-111341292D01*
X141257670Y-120922382D02*
X137455052Y-124725000D01*
X145658573Y-120268402D02*
X145658573Y-117870719D01*
X156865419Y-108935500D02*
X157499581Y-108935500D01*
%TO.N,/KB_COL4*%
X157000867Y-108608500D02*
X157364133Y-108608500D01*
X157621000Y-107788500D02*
X157507500Y-107675000D01*
X151861000Y-108811500D02*
X153467500Y-107205000D01*
X151861000Y-111205844D02*
X151861000Y-108811500D01*
X157621000Y-108351633D02*
X157621000Y-107788500D01*
X153467500Y-107205000D02*
X155597367Y-107205000D01*
X145220073Y-120086769D02*
X145331573Y-119975269D01*
X157364133Y-108608500D02*
X157621000Y-108351633D01*
X155597367Y-107205000D02*
X157000867Y-108608500D01*
X145331573Y-119975269D02*
X145331573Y-117735271D01*
X145331573Y-117735271D02*
X151861000Y-111205844D01*
%TO.N,/DISP_DC*%
X165076000Y-80589247D02*
X165409409Y-80589247D01*
X176239000Y-79119000D02*
X177735087Y-80615087D01*
X177735087Y-80615087D02*
X177796668Y-80615087D01*
X165409409Y-80589247D02*
X166879656Y-79119000D01*
X166879656Y-79119000D02*
X176239000Y-79119000D01*
%TO.N,/DISP_CS*%
X180437109Y-82512104D02*
X180437109Y-87294609D01*
X176705282Y-78465000D02*
X177759286Y-79519004D01*
X165583519Y-79490241D02*
X166608760Y-78465000D01*
X149640287Y-96700287D02*
X149179000Y-97161574D01*
X166608760Y-78465000D02*
X176705282Y-78465000D01*
X149179000Y-97161574D02*
X149179000Y-100899500D01*
X180437109Y-87294609D02*
X180447500Y-87305000D01*
X165076000Y-79490241D02*
X165583519Y-79490241D01*
%TO.N,/DISP_SPI_SCK*%
X177734779Y-82404779D02*
X175430000Y-80100000D01*
X177734779Y-82479257D02*
X177734779Y-82404779D01*
X175430000Y-80100000D02*
X167286000Y-80100000D01*
X167286000Y-80100000D02*
X165076000Y-82310000D01*
%TO.N,/DISP_SPI_MOSI*%
X180997500Y-88327000D02*
X180997500Y-89698692D01*
X165076000Y-81138750D02*
X165322354Y-81138750D01*
X167015104Y-79446000D02*
X175986000Y-79446000D01*
X177704341Y-81164341D02*
X177813193Y-81164341D01*
X165322354Y-81138750D02*
X167015104Y-79446000D01*
X175986000Y-79446000D02*
X177704341Y-81164341D01*
X180997500Y-89698692D02*
X181562911Y-90264103D01*
%TO.N,/UI_TX3*%
X128847500Y-142445000D02*
X129236000Y-142833500D01*
X139344500Y-141808000D02*
X139344500Y-130395344D01*
X150657500Y-103446824D02*
X148176888Y-100966212D01*
X129236000Y-142833500D02*
X138319000Y-142833500D01*
X139344500Y-130395344D02*
X144700000Y-125039844D01*
X144700000Y-119986709D02*
X144969000Y-119717709D01*
X144700000Y-125039844D02*
X144700000Y-119986709D01*
X144969000Y-119717709D02*
X144969000Y-117635396D01*
X138319000Y-142833500D02*
X139344500Y-141808000D01*
X150657500Y-111946896D02*
X150657500Y-103446824D01*
X144969000Y-117635396D02*
X150657500Y-111946896D01*
%TO.N,/UI_RX3*%
X150330500Y-103920447D02*
X150330500Y-109759980D01*
X144642000Y-119582261D02*
X144373000Y-119851261D01*
X147627500Y-100955000D02*
X147627500Y-101217447D01*
X144373000Y-119851261D02*
X144373000Y-124904396D01*
X146860928Y-113229552D02*
X146860928Y-115281020D01*
X144373000Y-124904396D02*
X139017500Y-130259896D01*
X147627500Y-101217447D02*
X150330500Y-103920447D01*
X138295052Y-142395000D02*
X129857500Y-142395000D01*
X139017500Y-130259896D02*
X139017500Y-141672552D01*
X139017500Y-141672552D02*
X138295052Y-142395000D01*
X150330500Y-109759980D02*
X146860928Y-113229552D01*
X146860928Y-115281020D02*
X144642000Y-117499948D01*
X144642000Y-117499948D02*
X144642000Y-119582261D01*
%TO.N,/NET_TX0_MGMT*%
X179121000Y-97057246D02*
X179121000Y-90240396D01*
X177178461Y-85515000D02*
X177168812Y-85505351D01*
X166806292Y-127326210D02*
X166806292Y-129373792D01*
X164311000Y-73883656D02*
X163151844Y-72724500D01*
X166832002Y-127300500D02*
X166806292Y-127326210D01*
X178093000Y-127659448D02*
X178093000Y-98085246D01*
X163151844Y-72724500D02*
X161607000Y-72724500D01*
X161607000Y-72724500D02*
X160427500Y-71545000D01*
X163016680Y-71029620D02*
X163620380Y-71029620D01*
X163620380Y-71029620D02*
X167850000Y-66800000D01*
X178176500Y-86412331D02*
X177279169Y-85515000D01*
X177279169Y-85515000D02*
X177178461Y-85515000D01*
X178503500Y-82469963D02*
X177108052Y-83865411D01*
X178392500Y-75126500D02*
X178503500Y-75237500D01*
X176098448Y-129654000D02*
X178093000Y-127659448D01*
X178503500Y-75237500D02*
X178503500Y-82469963D01*
X167086500Y-129654000D02*
X176098448Y-129654000D01*
X179121000Y-90240396D02*
X178176500Y-89295896D01*
X167850000Y-66800000D02*
X167850000Y-66170000D01*
X178176500Y-89295896D02*
X178176500Y-86412331D01*
X166806292Y-129373792D02*
X167086500Y-129654000D01*
X164311000Y-95071500D02*
X164311000Y-73883656D01*
X178093000Y-98085246D02*
X179121000Y-97057246D01*
%TO.N,/KB_MIC*%
X140783500Y-117690419D02*
X139227000Y-119246919D01*
X148355684Y-95258000D02*
X144504500Y-95258000D01*
X149200353Y-96102668D02*
X148355684Y-95258000D01*
X140783500Y-98979000D02*
X140783500Y-117690419D01*
X149200353Y-96259647D02*
X149200353Y-96102668D01*
X134709104Y-122978500D02*
X133630500Y-124057104D01*
X136889312Y-122978500D02*
X134709104Y-122978500D01*
X144504500Y-95258000D02*
X140783500Y-98979000D01*
X133630500Y-128918000D02*
X134857500Y-130145000D01*
X133630500Y-124057104D02*
X133630500Y-128918000D01*
X139227000Y-119246919D02*
X139227000Y-120640812D01*
X139227000Y-120640812D02*
X136889312Y-122978500D01*
%TO.N,/NET_RX0_MGMT*%
X178830500Y-74916000D02*
X178830500Y-83132000D01*
X165806790Y-127325712D02*
X165806790Y-129374290D01*
X178503500Y-85801000D02*
X178167500Y-85465000D01*
X163984000Y-94232000D02*
X163984000Y-74019104D01*
X179448000Y-90104948D02*
X178503500Y-89160448D01*
X165806790Y-129374290D02*
X166413500Y-129981000D01*
X178420000Y-98220694D02*
X179448000Y-97192694D01*
X178830500Y-83132000D02*
X178107500Y-83855000D01*
X165832002Y-127300500D02*
X165806790Y-127325712D01*
X178420000Y-127794896D02*
X178420000Y-98220694D01*
X163016396Y-73051500D02*
X160744000Y-73051500D01*
X163104250Y-95111750D02*
X163984000Y-94232000D01*
X163419426Y-71850000D02*
X167704963Y-67564463D01*
X166413500Y-129981000D02*
X176233896Y-129981000D01*
X176233896Y-129981000D02*
X178420000Y-127794896D01*
X160744000Y-73051500D02*
X160407500Y-72715000D01*
X179448000Y-97192694D02*
X179448000Y-90104948D01*
X163984000Y-74019104D02*
X163016396Y-73051500D01*
X177954500Y-74040000D02*
X178830500Y-74916000D01*
X166210000Y-98315000D02*
X166225000Y-98300000D01*
X178503500Y-89160448D02*
X178503500Y-85801000D01*
X166225000Y-98300000D02*
X169620000Y-98300000D01*
X163112002Y-71850000D02*
X163419426Y-71850000D01*
%TO.N,/KB_ROW5*%
X143334000Y-112113597D02*
X143334000Y-119040469D01*
X143065000Y-119309469D02*
X143065000Y-121169948D01*
X142664500Y-111444097D02*
X143334000Y-112113597D01*
X143065000Y-121169948D02*
X139979479Y-124255469D01*
X142664500Y-106051163D02*
X142664500Y-111444097D01*
X143334000Y-119040469D02*
X143065000Y-119309469D01*
X142782831Y-105932832D02*
X142664500Y-106051163D01*
X139979479Y-124255469D02*
X139979479Y-124430737D01*
%TO.N,/KB_ROW1*%
X134207500Y-126003603D02*
X133957500Y-125753603D01*
X139554000Y-119382367D02*
X141110500Y-117825867D01*
X133957500Y-124192552D02*
X134844552Y-123305500D01*
X137024760Y-123305500D02*
X139554000Y-120776260D01*
X141110500Y-117825867D02*
X141110500Y-102152000D01*
X139554000Y-120776260D02*
X139554000Y-119382367D01*
X133957500Y-125753603D02*
X133957500Y-124192552D01*
X134207500Y-126279414D02*
X134207500Y-126003603D01*
X134844552Y-123305500D02*
X137024760Y-123305500D01*
X141110500Y-102152000D02*
X141637500Y-101625000D01*
X134338500Y-126410414D02*
X134207500Y-126279414D01*
%TO.N,/KB_ROW2*%
X141437500Y-102575000D02*
X142037500Y-101975000D01*
X142037500Y-101975000D02*
X143037500Y-101975000D01*
X137295656Y-123959500D02*
X140430500Y-120824656D01*
X141437500Y-117991867D02*
X141437500Y-102575000D01*
X134865765Y-124640620D02*
X135546885Y-123959500D01*
X140430500Y-118998867D02*
X141437500Y-117991867D01*
X140430500Y-120824656D02*
X140430500Y-118998867D01*
X135546885Y-123959500D02*
X137295656Y-123959500D01*
%TO.N,/KB_ROW3*%
X142087500Y-118899625D02*
X142087500Y-111791993D01*
X138310500Y-124722000D02*
X138310500Y-124332000D01*
X138310500Y-124332000D02*
X142084000Y-120558499D01*
X142087500Y-111791993D02*
X141879176Y-111583669D01*
X142084000Y-118903125D02*
X142087500Y-118899625D01*
X142084000Y-120558499D02*
X142084000Y-118903125D01*
X141879176Y-111583669D02*
X141879176Y-103286775D01*
%TO.N,/MIC_N*%
X147333000Y-118046084D02*
X149257084Y-116122000D01*
X141543070Y-137669494D02*
X140652500Y-136778924D01*
X140652500Y-130937136D02*
X147333000Y-124256636D01*
X149257084Y-116122000D02*
X154681000Y-116122000D01*
X140652500Y-136778924D02*
X140652500Y-130937136D01*
X154681000Y-116122000D02*
X154994000Y-116435000D01*
X147333000Y-124256636D02*
X147333000Y-118046084D01*
%TO.N,/KB_ROW4*%
X142738000Y-119174021D02*
X143007000Y-118905021D01*
X142337500Y-111579545D02*
X142337500Y-104175000D01*
X142738000Y-121034500D02*
X142738000Y-119174021D01*
X139362700Y-124409800D02*
X142738000Y-121034500D01*
X143007000Y-118905021D02*
X143007000Y-112249045D01*
X139362700Y-124433384D02*
X139362700Y-124409800D01*
X143007000Y-112249045D02*
X142337500Y-111579545D01*
%TO.N,/KB_ROW6*%
X140522320Y-124445625D02*
X140522320Y-124534102D01*
X143661000Y-119175917D02*
X143392000Y-119444917D01*
X143392000Y-121575945D02*
X140522320Y-124445625D01*
X143392000Y-119444917D02*
X143392000Y-121575945D01*
X145686060Y-114074350D02*
X145431928Y-114328482D01*
X145431928Y-115322676D02*
X143661000Y-117093604D01*
X145431928Y-114328482D02*
X145431928Y-115322676D01*
X143661000Y-117093604D02*
X143661000Y-119175917D01*
%TO.N,/KB_ROW7*%
X143719000Y-119580365D02*
X143719000Y-124633500D01*
X143988000Y-119311365D02*
X143719000Y-119580365D01*
X143719000Y-124633500D02*
X137527500Y-130825000D01*
X137527500Y-130825000D02*
X137217500Y-130825000D01*
X145870428Y-114592000D02*
X145870428Y-115346624D01*
X143988000Y-117229052D02*
X143988000Y-119311365D01*
X145870428Y-115346624D02*
X143988000Y-117229052D01*
%TO.N,/LEDB_R*%
X175769261Y-97366761D02*
X175769261Y-97915716D01*
X174614000Y-96211500D02*
X175769261Y-97366761D01*
X153996664Y-94474072D02*
X153663592Y-94141000D01*
X127040914Y-74482079D02*
X127040914Y-74428046D01*
X158478724Y-93203776D02*
X161486448Y-96211500D01*
X146699835Y-94141000D02*
X127040914Y-74482079D01*
X175769261Y-97915716D02*
X174529065Y-99155912D01*
X153996664Y-94648319D02*
X153996664Y-94474072D01*
X153663592Y-94141000D02*
X146699835Y-94141000D01*
X174529065Y-99155912D02*
X174277128Y-99155912D01*
X161486448Y-96211500D02*
X174614000Y-96211500D01*
X158478724Y-92977000D02*
X158478724Y-93203776D01*
%TO.N,/LEDB_G*%
X154100676Y-93814000D02*
X146835283Y-93814000D01*
X128038192Y-75016909D02*
X128038192Y-74494691D01*
X154987083Y-94700407D02*
X154100676Y-93814000D01*
X146835283Y-93814000D02*
X128038192Y-75016909D01*
X154987083Y-94782756D02*
X154987083Y-94700407D01*
%TO.N,Net-(D11-K)*%
X133303500Y-133341000D02*
X133303500Y-111397000D01*
X138579500Y-134479500D02*
X137984000Y-135075000D01*
X138697500Y-106003000D02*
X138697500Y-102485000D01*
X137984000Y-135075000D02*
X135037500Y-135075000D01*
X133303500Y-111397000D02*
X138697500Y-106003000D01*
X135037500Y-135075000D02*
X133303500Y-133341000D01*
%TO.N,/LEDB_B*%
X155442568Y-93879932D02*
X155049636Y-93487000D01*
X129037500Y-75553769D02*
X129037500Y-74475000D01*
X155049636Y-93487000D02*
X146970731Y-93487000D01*
X146970731Y-93487000D02*
X129037500Y-75553769D01*
%TO.N,/SPK_LN*%
X173237500Y-115105000D02*
X175327500Y-117195000D01*
X175327500Y-117195000D02*
X176762000Y-117195000D01*
%TO.N,/SPK_LP*%
X173247500Y-114405000D02*
X173247500Y-114395000D01*
X176762000Y-115175000D02*
X176082000Y-115855000D01*
X174697500Y-115855000D02*
X173247500Y-114405000D01*
X176082000Y-115855000D02*
X174697500Y-115855000D01*
%TO.N,/HP_R*%
X171004896Y-109257500D02*
X168447500Y-109257500D01*
X172767500Y-111020104D02*
X171004896Y-109257500D01*
X173477500Y-124375000D02*
X172767500Y-123665000D01*
X176762000Y-124375000D02*
X173477500Y-124375000D01*
X168447500Y-109257500D02*
X168447500Y-109232334D01*
X172767500Y-123665000D02*
X172767500Y-111020104D01*
X168447500Y-109232334D02*
X168533334Y-109146500D01*
%TO.N,/HP_L*%
X170869448Y-109584500D02*
X172440500Y-111155552D01*
X168277000Y-109584500D02*
X170869448Y-109584500D01*
X167947500Y-109255000D02*
X168277000Y-109584500D01*
X172440500Y-111155552D02*
X172440500Y-125278000D01*
X173537500Y-126375000D02*
X176762000Y-126375000D01*
X172440500Y-125278000D02*
X173537500Y-126375000D01*
%TO.N,/KB_COL5*%
X139181067Y-123994884D02*
X139187616Y-123994884D01*
X142414500Y-119035073D02*
X142414500Y-116226500D01*
X142411000Y-119038573D02*
X142414500Y-119035073D01*
X142414500Y-116226500D02*
X142569000Y-116072000D01*
X138819159Y-124514108D02*
X138797500Y-124492449D01*
X138797500Y-124492449D02*
X138797500Y-124378451D01*
X139187616Y-123994884D02*
X142411000Y-120771499D01*
X142411000Y-120771499D02*
X142411000Y-119038573D01*
X138797500Y-124378451D02*
X139181067Y-123994884D01*
%TO.N,/KB_COL2*%
X135864500Y-124679767D02*
X136257767Y-124286500D01*
X137431104Y-124286500D02*
X140757500Y-120960104D01*
X140757500Y-120960104D02*
X140757500Y-119292000D01*
X140757500Y-119292000D02*
X141037500Y-119012000D01*
X136257767Y-124286500D02*
X137431104Y-124286500D01*
D18*
%TO.N,Net-(J15-Pin_2)*%
X171817500Y-67835000D02*
X169707500Y-65725000D01*
X169707500Y-65725000D02*
X169487500Y-65725000D01*
D19*
%TO.N,/BTN_RST*%
X118582500Y-64740000D02*
X119157500Y-64165000D01*
X163827500Y-99805000D02*
X164115831Y-99805000D01*
X135664500Y-78943633D02*
X135664500Y-75768000D01*
X129076196Y-64165000D02*
X125387500Y-64165000D01*
X164265831Y-99955000D02*
X169875409Y-99955000D01*
X160755664Y-93954209D02*
X157999455Y-91198000D01*
X136001000Y-71089804D02*
X129076196Y-64165000D01*
X147918867Y-91198000D02*
X135664500Y-78943633D01*
X157999455Y-91198000D02*
X147918867Y-91198000D01*
X119157500Y-64165000D02*
X125387500Y-64165000D01*
X169875409Y-99955000D02*
X169896738Y-99976329D01*
X135664500Y-75768000D02*
X136001000Y-75431500D01*
X164115831Y-99805000D02*
X164265831Y-99955000D01*
X160755664Y-94383756D02*
X160755664Y-93954209D01*
X160756530Y-94384622D02*
X160755664Y-94383756D01*
X136001000Y-75431500D02*
X136001000Y-71089804D01*
%TO.N,/BTN_UI*%
X163657000Y-93474384D02*
X162995438Y-94135946D01*
X163518552Y-98751500D02*
X163517052Y-98753000D01*
X170599500Y-98753000D02*
X165096081Y-98753000D01*
X163455500Y-98753000D02*
X163227500Y-98525000D01*
X160438500Y-73378500D02*
X162880948Y-73378500D01*
X162880948Y-73378500D02*
X163657000Y-74154552D01*
X163517052Y-98753000D02*
X163455500Y-98753000D01*
X159967500Y-72907500D02*
X160438500Y-73378500D01*
X163657000Y-74154552D02*
X163657000Y-93474384D01*
X170827500Y-98525000D02*
X170599500Y-98753000D01*
X165094581Y-98751500D02*
X163518552Y-98751500D01*
X165096081Y-98753000D02*
X165094581Y-98751500D01*
X159967500Y-72195000D02*
X159967500Y-72907500D01*
X162995438Y-94135946D02*
X162995438Y-94282938D01*
%TO.N,/BTN_NET*%
X170442500Y-99080000D02*
X170707500Y-99345000D01*
X160303052Y-73705500D02*
X162745500Y-73705500D01*
X162745500Y-73705500D02*
X163330000Y-74290000D01*
X171747500Y-99345000D02*
X171877500Y-99215000D01*
X170707500Y-99345000D02*
X171747500Y-99345000D01*
X163544000Y-99188500D02*
X163654000Y-99078500D01*
X160017500Y-62449775D02*
X160017500Y-65285000D01*
X163654000Y-99078500D02*
X164959133Y-99078500D01*
X156437500Y-58245000D02*
X156437500Y-58869775D01*
X156437500Y-58869775D02*
X160017500Y-62449775D01*
X162748563Y-99188500D02*
X163544000Y-99188500D01*
X163330000Y-92742500D02*
X161632500Y-94440000D01*
X163330000Y-74290000D02*
X163330000Y-92742500D01*
X162085063Y-98525000D02*
X162748563Y-99188500D01*
X159418141Y-72182458D02*
X159418141Y-72820589D01*
X159418141Y-72820589D02*
X160303052Y-73705500D01*
X164959133Y-99078500D02*
X164960633Y-99080000D01*
X164960633Y-99080000D02*
X170442500Y-99080000D01*
%TO.N,/KB_COL1*%
X134980000Y-123632500D02*
X137160208Y-123632500D01*
X134491860Y-125668536D02*
X134427265Y-125603941D01*
X139992500Y-120800208D02*
X139992500Y-119564000D01*
X137160208Y-123632500D02*
X139992500Y-120800208D01*
X134427265Y-124185235D02*
X134980000Y-123632500D01*
X134427265Y-125603941D02*
X134427265Y-124185235D01*
%TO.N,Net-(U1-PA12)*%
X138547500Y-130267448D02*
X138547500Y-132885000D01*
X146117500Y-107705000D02*
X146533928Y-108121428D01*
X144046000Y-119715813D02*
X144046000Y-124768948D01*
X146533928Y-115145572D02*
X144315000Y-117364500D01*
X144315000Y-117364500D02*
X144315000Y-119446813D01*
X144046000Y-124768948D02*
X138547500Y-130267448D01*
X146533928Y-108121428D02*
X146533928Y-115145572D01*
X144315000Y-119446813D02*
X144046000Y-119715813D01*
%TO.N,/UI_STAT*%
X149676500Y-106934000D02*
X148417500Y-105675000D01*
X172058500Y-95773500D02*
X172082000Y-95750000D01*
X158284500Y-122252000D02*
X156849401Y-120816901D01*
X149676500Y-109049000D02*
X149676500Y-106934000D01*
X170899423Y-95773500D02*
X172058500Y-95773500D01*
X167359500Y-129327000D02*
X167270502Y-129238002D01*
X167244792Y-122252000D02*
X158284500Y-122252000D01*
X149565500Y-109160000D02*
X149676500Y-109049000D01*
X175240000Y-103410000D02*
X175240000Y-104456454D01*
X167270502Y-122277710D02*
X167244792Y-122252000D01*
X156849401Y-120816901D02*
X156849401Y-112665547D01*
X167270502Y-129238002D02*
X167270502Y-122277710D01*
X175240000Y-104456454D02*
X177766000Y-106982454D01*
X175963000Y-129327000D02*
X167359500Y-129327000D01*
X177766000Y-106982454D02*
X177766000Y-127524000D01*
X177766000Y-127524000D02*
X175963000Y-129327000D01*
X148417500Y-105675000D02*
X145767500Y-105675000D01*
%TO.N,/UI_BOOT*%
X158455093Y-90871000D02*
X153203500Y-90871000D01*
X152827500Y-90495000D02*
X152757000Y-90495000D01*
X150064500Y-95400000D02*
X151127500Y-96463000D01*
X161194164Y-93610071D02*
X158455093Y-90871000D01*
X153203500Y-90871000D02*
X152827500Y-90495000D01*
X151127500Y-96463000D02*
X151127500Y-109716000D01*
X152757000Y-90495000D02*
X152737500Y-90475500D01*
X151127500Y-109716000D02*
X151377500Y-109966000D01*
X161194164Y-93940782D02*
X161194164Y-93610071D01*
%TO.N,/NET_LED_B*%
X139025000Y-74425000D02*
X140125000Y-75525000D01*
X140125000Y-75525000D02*
X143037500Y-75525000D01*
X138637500Y-74425000D02*
X139025000Y-74425000D01*
%TO.N,/NET_LED_G*%
X139981002Y-74752500D02*
X140426502Y-75198000D01*
X141964500Y-75198000D02*
X142937500Y-74225000D01*
X140426502Y-75198000D02*
X141964500Y-75198000D01*
%TO.N,/NET_LED_R*%
X141098738Y-74721262D02*
X142950000Y-72870000D01*
%TO.N,/UI_DBG1*%
X130172000Y-94468000D02*
X148490581Y-94468000D01*
X150637500Y-96614919D02*
X150637500Y-98425000D01*
X148490581Y-94468000D02*
X150637500Y-96614919D01*
X127279000Y-116573500D02*
X127279000Y-97361000D01*
X127167500Y-116685000D02*
X127279000Y-116573500D01*
X127279000Y-97361000D02*
X130172000Y-94468000D01*
%TO.N,/UI_LED_B*%
X147377075Y-92506000D02*
X132017500Y-77146425D01*
X156917500Y-93492344D02*
X155931156Y-92506000D01*
X150003500Y-106316000D02*
X149892500Y-106205000D01*
X152188000Y-106140000D02*
X152970000Y-106140000D01*
X131237500Y-73676491D02*
X132036009Y-74475000D01*
X150003500Y-108615000D02*
X150003500Y-106316000D01*
X132017500Y-77146425D02*
X132017500Y-74493509D01*
X155931156Y-92506000D02*
X147377075Y-92506000D01*
X131191563Y-66900500D02*
X131237500Y-66946437D01*
X132017500Y-74493509D02*
X132036009Y-74475000D01*
X150003500Y-109619000D02*
X150003500Y-108615000D01*
X156488023Y-102621977D02*
X156488023Y-98336146D01*
X149137500Y-110115000D02*
X149507500Y-110115000D01*
X152970000Y-106140000D02*
X156488023Y-102621977D01*
X156488023Y-98336146D02*
X156917500Y-97906669D01*
X131237500Y-66946437D02*
X131237500Y-73676491D01*
X156917500Y-97906669D02*
X156917500Y-93492344D01*
X149507500Y-110115000D02*
X150003500Y-109619000D01*
%TO.N,/NET_STAT*%
X161627609Y-89563000D02*
X161738609Y-89452000D01*
X174622000Y-92619462D02*
X174725500Y-92515962D01*
X156427500Y-86725000D02*
X156427500Y-89555000D01*
X174622000Y-95242000D02*
X174622000Y-92619462D01*
X156427500Y-89555000D02*
X156435500Y-89563000D01*
X156435500Y-89563000D02*
X157367500Y-89563000D01*
X157367500Y-89563000D02*
X161627609Y-89563000D01*
%TO.N,/UI_LED_G*%
X156161023Y-102286477D02*
X156161023Y-98200698D01*
X156590500Y-93627792D02*
X155795708Y-92833000D01*
X156161023Y-98200698D02*
X156590500Y-97771221D01*
X130187500Y-66895000D02*
X130187500Y-73625994D01*
X147241627Y-92833000D02*
X131036506Y-76627879D01*
X154537500Y-103910000D02*
X156161023Y-102286477D01*
X155795708Y-92833000D02*
X147241627Y-92833000D01*
X156590500Y-97771221D02*
X156590500Y-93627792D01*
X131036506Y-76627879D02*
X131036506Y-74475000D01*
X130187500Y-73625994D02*
X131036506Y-74475000D01*
%TO.N,/UI_TX1_MGMT*%
X147496534Y-107128000D02*
X147575500Y-107206966D01*
X173511628Y-99174076D02*
X173511628Y-99472993D01*
X151635000Y-107285000D02*
X152749896Y-107285000D01*
X160040000Y-97099422D02*
X160787078Y-97846500D01*
X173960047Y-99921412D02*
X174258964Y-99921412D01*
X157142023Y-98607042D02*
X158649643Y-97099422D01*
X146699500Y-107128000D02*
X147496534Y-107128000D01*
X174258964Y-99921412D02*
X176457552Y-102120000D01*
X172184052Y-97846500D02*
X173511628Y-99174076D01*
X157142023Y-102892873D02*
X157142023Y-98607042D01*
X160787078Y-97846500D02*
X172184052Y-97846500D01*
X152749896Y-107285000D02*
X157142023Y-102892873D01*
X173511628Y-99472993D02*
X173960047Y-99921412D01*
X176457552Y-102120000D02*
X177010000Y-102120000D01*
X158649643Y-97099422D02*
X160040000Y-97099422D01*
%TO.N,/UI_RX1_MGMT*%
X160197578Y-96772422D02*
X158514195Y-96772422D01*
X151684500Y-106578500D02*
X151620000Y-106643000D01*
X156815023Y-102757425D02*
X152993948Y-106578500D01*
X152993948Y-106578500D02*
X151684500Y-106578500D01*
X176762000Y-101440000D02*
X176762000Y-101532000D01*
X173838628Y-99038628D02*
X172319500Y-97519500D01*
X147575500Y-106657463D02*
X147542963Y-106690000D01*
X172319500Y-97519500D02*
X160944656Y-97519500D01*
X147542963Y-106690000D02*
X145730000Y-106690000D01*
X160944656Y-97519500D02*
X160197578Y-96772422D01*
X176762000Y-101532000D02*
X176780000Y-101550000D01*
X176240000Y-101440000D02*
X174394412Y-99594412D01*
X176762000Y-101440000D02*
X176240000Y-101440000D01*
X173838628Y-99337545D02*
X173838628Y-99038628D01*
X156815023Y-98471594D02*
X156815023Y-102757425D01*
X174095495Y-99594412D02*
X173838628Y-99337545D01*
X158514195Y-96772422D02*
X156815023Y-98471594D01*
X174394412Y-99594412D02*
X174095495Y-99594412D01*
%TO.N,/NET_BOOT*%
X165199000Y-84560000D02*
X164638000Y-85121000D01*
X164638000Y-85121000D02*
X164638000Y-94625500D01*
X164638000Y-94625500D02*
X165310500Y-95298000D01*
%TO.N,/UI_LED_R*%
X155834023Y-98065250D02*
X156263500Y-97635773D01*
X156263500Y-93763240D02*
X155660260Y-93160000D01*
X158130000Y-98720000D02*
X158000000Y-98850000D01*
X129137500Y-66900500D02*
X129137500Y-73575497D01*
X155449604Y-98675000D02*
X155834023Y-98290581D01*
X156263500Y-97635773D02*
X156263500Y-93763240D01*
X158000000Y-98850000D02*
X158000000Y-105512044D01*
X147106179Y-93160000D02*
X130037003Y-76090824D01*
X155660260Y-93160000D02*
X147106179Y-93160000D01*
X158000000Y-105512044D02*
X158405228Y-105917272D01*
X129137500Y-73575497D02*
X130037003Y-74475000D01*
X155834023Y-98290581D02*
X155834023Y-98065250D01*
X130037003Y-76090824D02*
X130037003Y-74475000D01*
%TO.N,/UI_DBG2*%
X148355132Y-94795000D02*
X130855000Y-94795000D01*
X130855000Y-94795000D02*
X127606000Y-98044000D01*
X127606000Y-118166500D02*
X127157500Y-118615000D01*
X150087997Y-96527864D02*
X148355132Y-94795000D01*
X127606000Y-98044000D02*
X127606000Y-118166500D01*
X150087997Y-98425000D02*
X150087997Y-96527864D01*
%TO.N,/UI_DBG3*%
X127933000Y-119879500D02*
X127933000Y-114985000D01*
X127933000Y-114985000D02*
X127933000Y-103896000D01*
X127177500Y-120635000D02*
X127933000Y-119879500D01*
X127933000Y-103896000D02*
X128044000Y-103785000D01*
%TO.N,/UI_DBG4*%
X128260000Y-121762500D02*
X128260000Y-116725000D01*
X127287500Y-122735000D02*
X128260000Y-121762500D01*
X128260000Y-116725000D02*
X128260000Y-105056000D01*
X128260000Y-105056000D02*
X128371000Y-104945000D01*
%TO.N,/MGMT_DBG7*%
X143209283Y-85868990D02*
X143259226Y-85819047D01*
X144989948Y-86567448D02*
X144989948Y-86802552D01*
X162127000Y-89890000D02*
X162238000Y-89779000D01*
X127197500Y-128565000D02*
X129241000Y-126521500D01*
X169627500Y-93225000D02*
X171297500Y-93225000D01*
X144241547Y-85819047D02*
X144989948Y-86567448D01*
X153341396Y-89383000D02*
X153532948Y-89574552D01*
X133064000Y-95776000D02*
X142800435Y-95776000D01*
X151788052Y-89675552D02*
X152080604Y-89383000D01*
X129463500Y-105632500D02*
X129463500Y-103260604D01*
X151246604Y-90217000D02*
X151788052Y-89675552D01*
X128587000Y-100253000D02*
X133064000Y-95776000D01*
X153848396Y-89890000D02*
X153997500Y-89890000D01*
X142800435Y-95776000D02*
X142911435Y-95887000D01*
X148404396Y-90217000D02*
X149417500Y-90217000D01*
X149417500Y-90217000D02*
X151246604Y-90217000D01*
X129463500Y-103260604D02*
X128587000Y-102384104D01*
X144989948Y-86802552D02*
X147109948Y-88922552D01*
X143259226Y-85819047D02*
X144241547Y-85819047D01*
X129241000Y-126521500D02*
X129241000Y-105855000D01*
X152080604Y-89383000D02*
X152351500Y-89383000D01*
X129241000Y-105855000D02*
X129463500Y-105632500D01*
X153532948Y-89574552D02*
X153848396Y-89890000D01*
X166929713Y-91959713D02*
X168362213Y-91959713D01*
X168362213Y-91959713D02*
X169627500Y-93225000D01*
X147109948Y-88922552D02*
X148404396Y-90217000D01*
X171297500Y-93225000D02*
X171757500Y-92765000D01*
X153997500Y-89890000D02*
X162127000Y-89890000D01*
X128587000Y-102384104D02*
X128587000Y-100253000D01*
X152351500Y-89383000D02*
X153341396Y-89383000D01*
%TO.N,/NET_DBG5*%
X163003000Y-90457500D02*
X163003000Y-83170500D01*
X143756500Y-95122000D02*
X143867500Y-95233000D01*
X128587000Y-123335500D02*
X128587000Y-105565000D01*
X153577500Y-90544000D02*
X162916500Y-90544000D01*
X127197500Y-124725000D02*
X128587000Y-123335500D01*
X128809500Y-105342500D02*
X128809500Y-103531500D01*
X128587000Y-105565000D02*
X128809500Y-105342500D01*
X152351500Y-90037000D02*
X153070500Y-90037000D01*
X143986397Y-86723897D02*
X148133500Y-90871000D01*
X162907500Y-83075000D02*
X160877500Y-83075000D01*
X148133500Y-90871000D02*
X151517500Y-90871000D01*
X153070500Y-90037000D02*
X153577500Y-90544000D01*
X127933000Y-102655000D02*
X127933000Y-98807000D01*
X128809500Y-103531500D02*
X127933000Y-102655000D01*
X163003000Y-83170500D02*
X162907500Y-83075000D01*
X143986397Y-86646104D02*
X143986397Y-86723897D01*
X127933000Y-98807000D02*
X131618000Y-95122000D01*
X151517500Y-90871000D02*
X152351500Y-90037000D01*
X162916500Y-90544000D02*
X163003000Y-90457500D01*
X131618000Y-95122000D02*
X143756500Y-95122000D01*
%TO.N,/NET_DBG6*%
X143255397Y-95449000D02*
X143366397Y-95560000D01*
X132361000Y-95449000D02*
X143255397Y-95449000D01*
X160407500Y-83575000D02*
X160407500Y-82105000D01*
X153359224Y-89863276D02*
X153712948Y-90217000D01*
X153712948Y-90217000D02*
X154167500Y-90217000D01*
X154167500Y-90217000D02*
X162676000Y-90217000D01*
X128914000Y-105715000D02*
X129136500Y-105492500D01*
X152216052Y-89710000D02*
X153205948Y-89710000D01*
X144573724Y-86848776D02*
X145633724Y-87908776D01*
X128260000Y-99550000D02*
X132361000Y-95449000D01*
X129136500Y-103396052D02*
X128260000Y-102519552D01*
X144573724Y-86613298D02*
X144573724Y-86848776D01*
X151382052Y-90544000D02*
X152216052Y-89710000D01*
X128260000Y-102519552D02*
X128260000Y-99550000D01*
X153205948Y-89710000D02*
X153359224Y-89863276D01*
X162646000Y-83575000D02*
X160407500Y-83575000D01*
X128914000Y-124918500D02*
X128914000Y-105715000D01*
X129136500Y-105492500D02*
X129136500Y-103396052D01*
X148268948Y-90544000D02*
X151382052Y-90544000D01*
X143647783Y-86207604D02*
X144168030Y-86207604D01*
X143597840Y-86257547D02*
X143647783Y-86207604D01*
X162676000Y-90217000D02*
X162676000Y-83605000D01*
X145633724Y-87908776D02*
X148268948Y-90544000D01*
X162676000Y-83605000D02*
X162646000Y-83575000D01*
X144168030Y-86207604D02*
X144573724Y-86613298D01*
X127157500Y-126675000D02*
X128914000Y-124918500D01*
X160407500Y-82105000D02*
X160687500Y-81825000D01*
%TO.N,/MGMT_SWDIO*%
X174089169Y-88685000D02*
X175007500Y-88685000D01*
X166237500Y-134405000D02*
X169680500Y-130962000D01*
X176640240Y-130962000D02*
X179401000Y-128201240D01*
X170807500Y-91966669D02*
X174089169Y-88685000D01*
X179401000Y-128201240D02*
X179401000Y-99899831D01*
X179401000Y-99899831D02*
X180407500Y-98893331D01*
X169680500Y-130962000D02*
X176640240Y-130962000D01*
X170807500Y-92787000D02*
X170807500Y-91966669D01*
X180407500Y-97395000D02*
X180057500Y-97045000D01*
X180057500Y-97045000D02*
X180057500Y-90415000D01*
X180407500Y-98893331D02*
X180407500Y-97395000D01*
%TO.N,/MGMT_SWCLK*%
X181055237Y-90474389D02*
X180384500Y-91145126D01*
X169700000Y-92230500D02*
X170081221Y-92230500D01*
X170081221Y-92230500D02*
X174625976Y-87685745D01*
X176775688Y-131289000D02*
X169815948Y-131289000D01*
X179728000Y-128336688D02*
X176775688Y-131289000D01*
X169815948Y-131289000D02*
X167267500Y-133837448D01*
X180734500Y-99028779D02*
X179728000Y-100035279D01*
X180384500Y-91145126D02*
X180384500Y-96909552D01*
X180734500Y-97259552D02*
X180734500Y-99028779D01*
X167267500Y-133837448D02*
X167267500Y-134405000D01*
X174625976Y-87685745D02*
X174985294Y-87685745D01*
X180384500Y-96909552D02*
X180734500Y-97259552D01*
X179728000Y-100035279D02*
X179728000Y-128336688D01*
%TO.N,/I2S_DACLRC*%
X167192939Y-119538388D02*
X167192939Y-115695543D01*
X161290448Y-111023547D02*
X157247500Y-111023547D01*
X155254594Y-109917905D02*
X154604594Y-109267905D01*
X157247500Y-111023547D02*
X156360236Y-111023547D01*
X161512948Y-111246047D02*
X161290448Y-111023547D01*
X154554500Y-108865000D02*
X154554500Y-108833000D01*
X164553000Y-111858052D02*
X163940995Y-111246047D01*
X163940995Y-111246047D02*
X161512948Y-111246047D01*
X152377500Y-103367500D02*
X152377500Y-100887806D01*
X156360236Y-111023547D02*
X155254594Y-109917905D01*
X154604594Y-109267905D02*
X154554500Y-109217811D01*
X164553000Y-113055604D02*
X164553000Y-111858052D01*
X152377500Y-100887806D02*
X152413000Y-100852306D01*
X154554500Y-109217811D02*
X154554500Y-108865000D01*
X167192939Y-115695543D02*
X164553000Y-113055604D01*
X154554500Y-108833000D02*
X154337500Y-108616000D01*
%TO.N,/UI_SWDIO*%
X172660573Y-131870000D02*
X173920000Y-131870000D01*
X140129500Y-108817000D02*
X139867500Y-108555000D01*
X140129500Y-117239713D02*
X140129500Y-108817000D01*
X138012213Y-117239713D02*
X140129500Y-117239713D01*
%TO.N,/UI_TX1_NET*%
X154502181Y-101987819D02*
X154938820Y-101551180D01*
X154938820Y-101551180D02*
X154938820Y-101185605D01*
%TO.N,/BOOT1*%
X153230000Y-94468000D02*
X153230000Y-94501788D01*
X151520000Y-94468000D02*
X153230000Y-94468000D01*
X150162000Y-94468000D02*
X151520000Y-94468000D01*
X149664859Y-95022852D02*
X149726211Y-94961500D01*
X149726211Y-94903789D02*
X150162000Y-94468000D01*
X149726211Y-94961500D02*
X149726211Y-94903789D01*
X153230000Y-94501788D02*
X154028212Y-95300000D01*
%TO.N,/UI_RX1_NET*%
X154063681Y-100919125D02*
X154063681Y-102325909D01*
X154130000Y-100852806D02*
X154063681Y-100919125D01*
X154063681Y-102325909D02*
X154128152Y-102390380D01*
%TO.N,/I2S_BCLK*%
X161377500Y-111573047D02*
X163805547Y-111573047D01*
X164226000Y-113191052D02*
X166647709Y-115612761D01*
X153662000Y-108787759D02*
X156224788Y-111350547D01*
X166647709Y-115612761D02*
X166647709Y-119469995D01*
X153662000Y-108616000D02*
X153662000Y-108787759D01*
X156224788Y-111350547D02*
X161155000Y-111350547D01*
X163805547Y-111573047D02*
X164226000Y-111993500D01*
X164226000Y-111993500D02*
X164226000Y-113191052D01*
X161155000Y-111350547D02*
X161377500Y-111573047D01*
%TO.N,/I2S_ADCDAT*%
X164211891Y-110592047D02*
X165228172Y-111608328D01*
X165228172Y-112805880D02*
X167876534Y-115454242D01*
X161802948Y-110592047D02*
X164211891Y-110592047D01*
X155131948Y-108297000D02*
X157204495Y-110369547D01*
X157204495Y-110369547D02*
X161580448Y-110369547D01*
X154913000Y-108297000D02*
X155131948Y-108297000D01*
X161580448Y-110369547D02*
X161802948Y-110592047D01*
X167876534Y-118669147D02*
X168527500Y-119320113D01*
X168527500Y-119320113D02*
X168527500Y-119515000D01*
X165228172Y-111608328D02*
X165228172Y-112805880D01*
X167876534Y-115454242D02*
X167876534Y-118669147D01*
%TO.N,/I2S_DACDAT*%
X167741086Y-118996147D02*
X167741086Y-119499818D01*
X161667500Y-110919047D02*
X164076443Y-110919047D01*
X164901172Y-112941328D02*
X167519939Y-115560095D01*
X156399308Y-110443192D02*
X156815692Y-110443192D01*
X161445000Y-110696547D02*
X161667500Y-110919047D01*
X156815692Y-110443192D02*
X157069047Y-110696547D01*
X164076443Y-110919047D02*
X164901172Y-111743776D01*
X164901172Y-111743776D02*
X164901172Y-112941328D01*
X157069047Y-110696547D02*
X161445000Y-110696547D01*
X167519939Y-118775000D02*
X167741086Y-118996147D01*
X167519939Y-115560095D02*
X167519939Y-118775000D01*
%TO.N,/USB_TX1_MGMT*%
X176908000Y-91686000D02*
X173456633Y-91686000D01*
X158936941Y-122826441D02*
X154626059Y-122826441D01*
X154626059Y-122826441D02*
X152817500Y-124635000D01*
X159527500Y-123417000D02*
X158936941Y-122826441D01*
X173456633Y-91686000D02*
X172440633Y-92702000D01*
X172440633Y-92702000D02*
X172336000Y-92702000D01*
%TO.N,/USB_RX1_MGMT*%
X156478000Y-124765000D02*
X154097500Y-124765000D01*
X177856500Y-94214410D02*
X175655090Y-92013000D01*
X177856500Y-96004000D02*
X177856500Y-94214410D01*
X175655090Y-92013000D02*
X173749059Y-92013000D01*
X178618500Y-95242000D02*
X177856500Y-96004000D01*
X173749059Y-92013000D02*
X172972781Y-92789278D01*
X157486000Y-123757000D02*
X156478000Y-124765000D01*
X178683000Y-95242000D02*
X178618500Y-95242000D01*
%TD*%
M02*
